%FSLAX45Y45*%
G04 Gerber Fmt 4.5, Leading zero omitted, Abs format (unit mm)*
G04 Created by KiCad (PCBNEW (5.1.10-1-10_14)) date 2021-10-16 18:52:19*
%MOMM*%
%LPD*%
G01*
G04 APERTURE LIST*
%TA.AperFunction,Profile*%
%ADD10C,0.500000*%
%TD*%
%ADD11C,0.200000*%
%ADD12C,0.300000*%
G04 APERTURE END LIST*
D10*
X5460000Y-2170000D02*
G75*
G02*
X6005350Y-1649871I534817J-14789D01*
G01*
X5980129Y-16135350D02*
G75*
G02*
X5460000Y-15590000I14789J534817D01*
G01*
X15360000Y-1650000D02*
G75*
G02*
X15880129Y-2195350I-14789J-534817D01*
G01*
X15865350Y-15610000D02*
G75*
G02*
X15320000Y-16130129I-534817J14789D01*
G01*
X5460000Y-15590000D02*
X5460000Y-2170000D01*
X15320000Y-16130129D02*
X5980129Y-16135350D01*
X15880129Y-2195350D02*
X15865350Y-15610000D01*
X6005350Y-1649871D02*
X15360000Y-1650000D01*
D11*
X9260000Y-4297500D02*
X9300000Y-4337500D01*
X9300000Y-4297500D02*
X9260000Y-4337500D01*
X9780000Y-7410000D02*
X9820000Y-7450000D01*
X9820000Y-7410000D02*
X9780000Y-7450000D01*
X9821265Y-11758735D02*
X9861265Y-11798735D01*
X9861265Y-11758735D02*
X9821265Y-11798735D01*
X10280000Y-5580000D02*
X10320000Y-5620000D01*
X10320000Y-5580000D02*
X10280000Y-5620000D01*
X10478735Y-5281265D02*
X10518735Y-5321265D01*
X10518735Y-5281265D02*
X10478735Y-5321265D01*
X10650000Y-3020000D02*
X10690000Y-3060000D01*
X10690000Y-3020000D02*
X10650000Y-3060000D01*
X11480000Y-5980000D02*
X11520000Y-6020000D01*
X11520000Y-5980000D02*
X11480000Y-6020000D01*
X11581265Y-5978735D02*
X11621265Y-6018735D01*
X11621265Y-5978735D02*
X11581265Y-6018735D01*
X11752500Y-6565148D02*
X11792500Y-6605148D01*
X11792500Y-6565148D02*
X11752500Y-6605148D01*
X11760000Y-9360000D02*
X11800000Y-9400000D01*
X11800000Y-9360000D02*
X11760000Y-9400000D01*
X13000000Y-7940000D02*
X13040000Y-7980000D01*
X13040000Y-7940000D02*
X13000000Y-7980000D01*
X13080000Y-13680000D02*
X13120000Y-13720000D01*
X13120000Y-13680000D02*
X13080000Y-13720000D01*
X14026200Y-12428540D02*
X14066200Y-12468540D01*
X14066200Y-12428540D02*
X14026200Y-12468540D01*
X14150660Y-12029760D02*
X14190660Y-12069760D01*
X14190660Y-12029760D02*
X14150660Y-12069760D01*
X14153200Y-12870500D02*
X14193200Y-12910500D01*
X14193200Y-12870500D02*
X14153200Y-12910500D01*
X14230000Y-11190960D02*
X14270000Y-11230960D01*
X14270000Y-11190960D02*
X14230000Y-11230960D01*
X14260000Y-8080000D02*
X14300000Y-8120000D01*
X14300000Y-8080000D02*
X14260000Y-8120000D01*
X15024420Y-12600420D02*
X15064420Y-12640420D01*
X15064420Y-12600420D02*
X15024420Y-12640420D01*
X15152500Y-6820000D02*
X15192500Y-6860000D01*
X15192500Y-6820000D02*
X15152500Y-6860000D01*
X12512830Y-13666330D02*
G75*
G03*
X12512830Y-13666330I-30000J0D01*
G01*
X12512830Y-13816330D02*
G75*
G03*
X12512830Y-13816330I-30000J0D01*
G01*
X13582170Y-13585190D02*
G75*
G03*
X13582170Y-13585190I-30000J0D01*
G01*
X13732170Y-13585190D02*
G75*
G03*
X13732170Y-13585190I-30000J0D01*
G01*
X9537700Y-7404700D02*
X9537700Y-7479700D01*
X9500200Y-7442200D02*
X9575200Y-7442200D01*
X9537700Y-7531700D02*
X9537700Y-7606700D01*
X9500200Y-7569200D02*
X9575200Y-7569200D01*
X9537700Y-7658700D02*
X9537700Y-7733700D01*
X9500200Y-7696200D02*
X9575200Y-7696200D01*
X10394950Y-3029550D02*
X10394950Y-3104550D01*
X10357450Y-3067050D02*
X10432450Y-3067050D01*
X10394950Y-3156550D02*
X10394950Y-3231550D01*
X10357450Y-3194050D02*
X10432450Y-3194050D01*
X10394950Y-3283550D02*
X10394950Y-3358550D01*
X10357450Y-3321050D02*
X10432450Y-3321050D01*
X8424752Y-6735652D02*
X8424752Y-6675548D01*
X8364648Y-6675548D01*
X8364648Y-6735652D01*
X8424752Y-6735652D01*
X8424752Y-6989652D02*
X8424752Y-6929548D01*
X8364648Y-6929548D01*
X8364648Y-6989652D01*
X8424752Y-6989652D01*
X8462852Y-3154252D02*
X8462852Y-3094148D01*
X8402748Y-3094148D01*
X8402748Y-3154252D01*
X8462852Y-3154252D01*
X8462852Y-3408252D02*
X8462852Y-3348148D01*
X8402748Y-3348148D01*
X8402748Y-3408252D01*
X8462852Y-3408252D01*
X9186752Y-6735652D02*
X9186752Y-6675548D01*
X9126648Y-6675548D01*
X9126648Y-6735652D01*
X9186752Y-6735652D01*
X9186752Y-6989652D02*
X9186752Y-6929548D01*
X9126648Y-6929548D01*
X9126648Y-6989652D01*
X9186752Y-6989652D01*
X9224852Y-3154252D02*
X9224852Y-3094148D01*
X9164748Y-3094148D01*
X9164748Y-3154252D01*
X9224852Y-3154252D01*
X9224852Y-3408252D02*
X9224852Y-3348148D01*
X9164748Y-3348148D01*
X9164748Y-3408252D01*
X9224852Y-3408252D01*
X7823720Y-14736870D02*
X7869720Y-14690870D01*
X7823720Y-14644870D01*
X7777720Y-14690870D01*
X7823720Y-14736870D01*
X8073720Y-14736870D02*
X8119720Y-14690870D01*
X8073720Y-14644870D01*
X8027720Y-14690870D01*
X8073720Y-14736870D01*
X8273720Y-14736870D02*
X8319720Y-14690870D01*
X8273720Y-14644870D01*
X8227720Y-14690870D01*
X8273720Y-14736870D01*
X8523720Y-14736870D02*
X8569720Y-14690870D01*
X8523720Y-14644870D01*
X8477720Y-14690870D01*
X8523720Y-14736870D01*
X9360700Y-2528100D02*
X9460700Y-2628100D01*
X9460700Y-2528100D02*
X9360700Y-2628100D01*
X9460700Y-2578100D02*
G75*
G03*
X9460700Y-2578100I-50000J0D01*
G01*
X9596000Y-10788000D02*
X9696000Y-10888000D01*
X9696000Y-10788000D02*
X9596000Y-10888000D01*
X9696000Y-10838000D02*
G75*
G03*
X9696000Y-10838000I-50000J0D01*
G01*
X9596000Y-11042000D02*
X9696000Y-11142000D01*
X9696000Y-11042000D02*
X9596000Y-11142000D01*
X9696000Y-11092000D02*
G75*
G03*
X9696000Y-11092000I-50000J0D01*
G01*
X9596000Y-11296000D02*
X9696000Y-11396000D01*
X9696000Y-11296000D02*
X9596000Y-11396000D01*
X9696000Y-11346000D02*
G75*
G03*
X9696000Y-11346000I-50000J0D01*
G01*
X9596000Y-11550000D02*
X9696000Y-11650000D01*
X9696000Y-11550000D02*
X9596000Y-11650000D01*
X9696000Y-11600000D02*
G75*
G03*
X9696000Y-11600000I-50000J0D01*
G01*
X9614700Y-2528100D02*
X9714700Y-2628100D01*
X9714700Y-2528100D02*
X9614700Y-2628100D01*
X9714700Y-2578100D02*
G75*
G03*
X9714700Y-2578100I-50000J0D01*
G01*
X9764560Y-6258090D02*
X9864560Y-6358090D01*
X9864560Y-6258090D02*
X9764560Y-6358090D01*
X9864560Y-6308090D02*
G75*
G03*
X9864560Y-6308090I-50000J0D01*
G01*
X9850000Y-10788000D02*
X9950000Y-10888000D01*
X9950000Y-10788000D02*
X9850000Y-10888000D01*
X9950000Y-10838000D02*
G75*
G03*
X9950000Y-10838000I-50000J0D01*
G01*
X9850000Y-11042000D02*
X9950000Y-11142000D01*
X9950000Y-11042000D02*
X9850000Y-11142000D01*
X9950000Y-11092000D02*
G75*
G03*
X9950000Y-11092000I-50000J0D01*
G01*
X9850000Y-11296000D02*
X9950000Y-11396000D01*
X9950000Y-11296000D02*
X9850000Y-11396000D01*
X9950000Y-11346000D02*
G75*
G03*
X9950000Y-11346000I-50000J0D01*
G01*
X9850000Y-11550000D02*
X9950000Y-11650000D01*
X9950000Y-11550000D02*
X9850000Y-11650000D01*
X9950000Y-11600000D02*
G75*
G03*
X9950000Y-11600000I-50000J0D01*
G01*
X10018560Y-6258090D02*
X10118560Y-6358090D01*
X10118560Y-6258090D02*
X10018560Y-6358090D01*
X10118560Y-6308090D02*
G75*
G03*
X10118560Y-6308090I-50000J0D01*
G01*
X10250000Y-4080000D02*
X10350000Y-4180000D01*
X10350000Y-4080000D02*
X10250000Y-4180000D01*
X10350000Y-4130000D02*
G75*
G03*
X10350000Y-4130000I-50000J0D01*
G01*
X10250000Y-4334000D02*
X10350000Y-4434000D01*
X10350000Y-4334000D02*
X10250000Y-4434000D01*
X10350000Y-4384000D02*
G75*
G03*
X10350000Y-4384000I-50000J0D01*
G01*
X10250000Y-4588000D02*
X10350000Y-4688000D01*
X10350000Y-4588000D02*
X10250000Y-4688000D01*
X10350000Y-4638000D02*
G75*
G03*
X10350000Y-4638000I-50000J0D01*
G01*
X10250000Y-4842000D02*
X10350000Y-4942000D01*
X10350000Y-4842000D02*
X10250000Y-4942000D01*
X10350000Y-4892000D02*
G75*
G03*
X10350000Y-4892000I-50000J0D01*
G01*
X10250000Y-5096000D02*
X10350000Y-5196000D01*
X10350000Y-5096000D02*
X10250000Y-5196000D01*
X10350000Y-5146000D02*
G75*
G03*
X10350000Y-5146000I-50000J0D01*
G01*
X10250000Y-5350000D02*
X10350000Y-5450000D01*
X10350000Y-5350000D02*
X10250000Y-5450000D01*
X10350000Y-5400000D02*
G75*
G03*
X10350000Y-5400000I-50000J0D01*
G01*
X14544840Y-2831630D02*
X14644840Y-2931630D01*
X14644840Y-2831630D02*
X14544840Y-2931630D01*
X14644840Y-2881630D02*
G75*
G03*
X14644840Y-2881630I-50000J0D01*
G01*
X14798840Y-2831630D02*
X14898840Y-2931630D01*
X14898840Y-2831630D02*
X14798840Y-2931630D01*
X14898840Y-2881630D02*
G75*
G03*
X14898840Y-2881630I-50000J0D01*
G01*
X12760000Y-3486000D02*
X12862000Y-3588000D01*
X12862000Y-3486000D02*
X12760000Y-3588000D01*
X12811000Y-3486000D02*
X12811000Y-3588000D01*
X12760000Y-3537000D02*
X12862000Y-3537000D01*
X12760000Y-3740000D02*
X12862000Y-3842000D01*
X12862000Y-3740000D02*
X12760000Y-3842000D01*
X12811000Y-3740000D02*
X12811000Y-3842000D01*
X12760000Y-3791000D02*
X12862000Y-3791000D01*
X12760000Y-3994000D02*
X12862000Y-4096000D01*
X12862000Y-3994000D02*
X12760000Y-4096000D01*
X12811000Y-3994000D02*
X12811000Y-4096000D01*
X12760000Y-4045000D02*
X12862000Y-4045000D01*
X12760000Y-4248000D02*
X12862000Y-4350000D01*
X12862000Y-4248000D02*
X12760000Y-4350000D01*
X12811000Y-4248000D02*
X12811000Y-4350000D01*
X12760000Y-4299000D02*
X12862000Y-4299000D01*
X12760000Y-4502000D02*
X12862000Y-4604000D01*
X12862000Y-4502000D02*
X12760000Y-4604000D01*
X12811000Y-4502000D02*
X12811000Y-4604000D01*
X12760000Y-4553000D02*
X12862000Y-4553000D01*
X12760000Y-4756000D02*
X12862000Y-4858000D01*
X12862000Y-4756000D02*
X12760000Y-4858000D01*
X12811000Y-4756000D02*
X12811000Y-4858000D01*
X12760000Y-4807000D02*
X12862000Y-4807000D01*
X12760000Y-5010000D02*
X12862000Y-5112000D01*
X12862000Y-5010000D02*
X12760000Y-5112000D01*
X12811000Y-5010000D02*
X12811000Y-5112000D01*
X12760000Y-5061000D02*
X12862000Y-5061000D01*
X12760000Y-5264000D02*
X12862000Y-5366000D01*
X12862000Y-5264000D02*
X12760000Y-5366000D01*
X12811000Y-5264000D02*
X12811000Y-5366000D01*
X12760000Y-5315000D02*
X12862000Y-5315000D01*
X12760000Y-5518000D02*
X12862000Y-5620000D01*
X12862000Y-5518000D02*
X12760000Y-5620000D01*
X12811000Y-5518000D02*
X12811000Y-5620000D01*
X12760000Y-5569000D02*
X12862000Y-5569000D01*
X12760000Y-5772000D02*
X12862000Y-5874000D01*
X12862000Y-5772000D02*
X12760000Y-5874000D01*
X12811000Y-5772000D02*
X12811000Y-5874000D01*
X12760000Y-5823000D02*
X12862000Y-5823000D01*
X12760000Y-6026000D02*
X12862000Y-6128000D01*
X12862000Y-6026000D02*
X12760000Y-6128000D01*
X12811000Y-6026000D02*
X12811000Y-6128000D01*
X12760000Y-6077000D02*
X12862000Y-6077000D01*
X12760000Y-6280000D02*
X12862000Y-6382000D01*
X12862000Y-6280000D02*
X12760000Y-6382000D01*
X12811000Y-6280000D02*
X12811000Y-6382000D01*
X12760000Y-6331000D02*
X12862000Y-6331000D01*
X12760000Y-6534000D02*
X12862000Y-6636000D01*
X12862000Y-6534000D02*
X12760000Y-6636000D01*
X12811000Y-6534000D02*
X12811000Y-6636000D01*
X12760000Y-6585000D02*
X12862000Y-6585000D01*
X12760000Y-6788000D02*
X12862000Y-6890000D01*
X12862000Y-6788000D02*
X12760000Y-6890000D01*
X12811000Y-6788000D02*
X12811000Y-6890000D01*
X12760000Y-6839000D02*
X12862000Y-6839000D01*
X12760000Y-7042000D02*
X12862000Y-7144000D01*
X12862000Y-7042000D02*
X12760000Y-7144000D01*
X12811000Y-7042000D02*
X12811000Y-7144000D01*
X12760000Y-7093000D02*
X12862000Y-7093000D01*
X12760000Y-7296000D02*
X12862000Y-7398000D01*
X12862000Y-7296000D02*
X12760000Y-7398000D01*
X12811000Y-7296000D02*
X12811000Y-7398000D01*
X12760000Y-7347000D02*
X12862000Y-7347000D01*
X12760000Y-7550000D02*
X12862000Y-7652000D01*
X12862000Y-7550000D02*
X12760000Y-7652000D01*
X12811000Y-7550000D02*
X12811000Y-7652000D01*
X12760000Y-7601000D02*
X12862000Y-7601000D01*
X12760000Y-7804000D02*
X12862000Y-7906000D01*
X12862000Y-7804000D02*
X12760000Y-7906000D01*
X12811000Y-7804000D02*
X12811000Y-7906000D01*
X12760000Y-7855000D02*
X12862000Y-7855000D01*
X12760000Y-8058000D02*
X12862000Y-8160000D01*
X12862000Y-8058000D02*
X12760000Y-8160000D01*
X12811000Y-8058000D02*
X12811000Y-8160000D01*
X12760000Y-8109000D02*
X12862000Y-8109000D01*
X12760000Y-8312000D02*
X12862000Y-8414000D01*
X12862000Y-8312000D02*
X12760000Y-8414000D01*
X12811000Y-8312000D02*
X12811000Y-8414000D01*
X12760000Y-8363000D02*
X12862000Y-8363000D01*
X13395000Y-8289000D02*
X13497000Y-8391000D01*
X13497000Y-8289000D02*
X13395000Y-8391000D01*
X13446000Y-8289000D02*
X13446000Y-8391000D01*
X13395000Y-8340000D02*
X13497000Y-8340000D01*
X13649000Y-8289000D02*
X13751000Y-8391000D01*
X13751000Y-8289000D02*
X13649000Y-8391000D01*
X13700000Y-8289000D02*
X13700000Y-8391000D01*
X13649000Y-8340000D02*
X13751000Y-8340000D01*
X13903000Y-8289000D02*
X14005000Y-8391000D01*
X14005000Y-8289000D02*
X13903000Y-8391000D01*
X13954000Y-8289000D02*
X13954000Y-8391000D01*
X13903000Y-8340000D02*
X14005000Y-8340000D01*
X14538000Y-3486000D02*
X14640000Y-3588000D01*
X14640000Y-3486000D02*
X14538000Y-3588000D01*
X14589000Y-3486000D02*
X14589000Y-3588000D01*
X14538000Y-3537000D02*
X14640000Y-3537000D01*
X14538000Y-3740000D02*
X14640000Y-3842000D01*
X14640000Y-3740000D02*
X14538000Y-3842000D01*
X14589000Y-3740000D02*
X14589000Y-3842000D01*
X14538000Y-3791000D02*
X14640000Y-3791000D01*
X14538000Y-3994000D02*
X14640000Y-4096000D01*
X14640000Y-3994000D02*
X14538000Y-4096000D01*
X14589000Y-3994000D02*
X14589000Y-4096000D01*
X14538000Y-4045000D02*
X14640000Y-4045000D01*
X14538000Y-4248000D02*
X14640000Y-4350000D01*
X14640000Y-4248000D02*
X14538000Y-4350000D01*
X14589000Y-4248000D02*
X14589000Y-4350000D01*
X14538000Y-4299000D02*
X14640000Y-4299000D01*
X14538000Y-4502000D02*
X14640000Y-4604000D01*
X14640000Y-4502000D02*
X14538000Y-4604000D01*
X14589000Y-4502000D02*
X14589000Y-4604000D01*
X14538000Y-4553000D02*
X14640000Y-4553000D01*
X14538000Y-4756000D02*
X14640000Y-4858000D01*
X14640000Y-4756000D02*
X14538000Y-4858000D01*
X14589000Y-4756000D02*
X14589000Y-4858000D01*
X14538000Y-4807000D02*
X14640000Y-4807000D01*
X14538000Y-5010000D02*
X14640000Y-5112000D01*
X14640000Y-5010000D02*
X14538000Y-5112000D01*
X14589000Y-5010000D02*
X14589000Y-5112000D01*
X14538000Y-5061000D02*
X14640000Y-5061000D01*
X14538000Y-5264000D02*
X14640000Y-5366000D01*
X14640000Y-5264000D02*
X14538000Y-5366000D01*
X14589000Y-5264000D02*
X14589000Y-5366000D01*
X14538000Y-5315000D02*
X14640000Y-5315000D01*
X14538000Y-5518000D02*
X14640000Y-5620000D01*
X14640000Y-5518000D02*
X14538000Y-5620000D01*
X14589000Y-5518000D02*
X14589000Y-5620000D01*
X14538000Y-5569000D02*
X14640000Y-5569000D01*
X14538000Y-5772000D02*
X14640000Y-5874000D01*
X14640000Y-5772000D02*
X14538000Y-5874000D01*
X14589000Y-5772000D02*
X14589000Y-5874000D01*
X14538000Y-5823000D02*
X14640000Y-5823000D01*
X14538000Y-6026000D02*
X14640000Y-6128000D01*
X14640000Y-6026000D02*
X14538000Y-6128000D01*
X14589000Y-6026000D02*
X14589000Y-6128000D01*
X14538000Y-6077000D02*
X14640000Y-6077000D01*
X14538000Y-6280000D02*
X14640000Y-6382000D01*
X14640000Y-6280000D02*
X14538000Y-6382000D01*
X14589000Y-6280000D02*
X14589000Y-6382000D01*
X14538000Y-6331000D02*
X14640000Y-6331000D01*
X14538000Y-6534000D02*
X14640000Y-6636000D01*
X14640000Y-6534000D02*
X14538000Y-6636000D01*
X14589000Y-6534000D02*
X14589000Y-6636000D01*
X14538000Y-6585000D02*
X14640000Y-6585000D01*
X14538000Y-6788000D02*
X14640000Y-6890000D01*
X14640000Y-6788000D02*
X14538000Y-6890000D01*
X14589000Y-6788000D02*
X14589000Y-6890000D01*
X14538000Y-6839000D02*
X14640000Y-6839000D01*
X14538000Y-7042000D02*
X14640000Y-7144000D01*
X14640000Y-7042000D02*
X14538000Y-7144000D01*
X14589000Y-7042000D02*
X14589000Y-7144000D01*
X14538000Y-7093000D02*
X14640000Y-7093000D01*
X14538000Y-7296000D02*
X14640000Y-7398000D01*
X14640000Y-7296000D02*
X14538000Y-7398000D01*
X14589000Y-7296000D02*
X14589000Y-7398000D01*
X14538000Y-7347000D02*
X14640000Y-7347000D01*
X14538000Y-7550000D02*
X14640000Y-7652000D01*
X14640000Y-7550000D02*
X14538000Y-7652000D01*
X14589000Y-7550000D02*
X14589000Y-7652000D01*
X14538000Y-7601000D02*
X14640000Y-7601000D01*
X14538000Y-7804000D02*
X14640000Y-7906000D01*
X14640000Y-7804000D02*
X14538000Y-7906000D01*
X14589000Y-7804000D02*
X14589000Y-7906000D01*
X14538000Y-7855000D02*
X14640000Y-7855000D01*
X14538000Y-8058000D02*
X14640000Y-8160000D01*
X14640000Y-8058000D02*
X14538000Y-8160000D01*
X14589000Y-8058000D02*
X14589000Y-8160000D01*
X14538000Y-8109000D02*
X14640000Y-8109000D01*
X14538000Y-8312000D02*
X14640000Y-8414000D01*
X14640000Y-8312000D02*
X14538000Y-8414000D01*
X14589000Y-8312000D02*
X14589000Y-8414000D01*
X14538000Y-8363000D02*
X14640000Y-8363000D01*
X5954640Y-12738980D02*
X6064640Y-12848980D01*
X6064640Y-12738980D02*
X5954640Y-12848980D01*
X6048531Y-12832871D02*
X6048531Y-12755089D01*
X5970749Y-12755089D01*
X5970749Y-12832871D01*
X6048531Y-12832871D01*
X5954640Y-13246980D02*
X6064640Y-13356980D01*
X6064640Y-13246980D02*
X5954640Y-13356980D01*
X6048531Y-13340871D02*
X6048531Y-13263089D01*
X5970749Y-13263089D01*
X5970749Y-13340871D01*
X6048531Y-13340871D01*
X6173080Y-15433920D02*
X6283080Y-15543920D01*
X6283080Y-15433920D02*
X6173080Y-15543920D01*
X6266971Y-15527811D02*
X6266971Y-15450029D01*
X6189189Y-15450029D01*
X6189189Y-15527811D01*
X6266971Y-15527811D01*
X6681080Y-15433920D02*
X6791080Y-15543920D01*
X6791080Y-15433920D02*
X6681080Y-15543920D01*
X6774971Y-15527811D02*
X6774971Y-15450029D01*
X6697189Y-15450029D01*
X6697189Y-15527811D01*
X6774971Y-15527811D01*
X11592170Y-2369430D02*
X11702170Y-2479430D01*
X11702170Y-2369430D02*
X11592170Y-2479430D01*
X11686061Y-2463321D02*
X11686061Y-2385539D01*
X11608279Y-2385539D01*
X11608279Y-2463321D01*
X11686061Y-2463321D01*
X12100170Y-2369430D02*
X12210170Y-2479430D01*
X12210170Y-2369430D02*
X12100170Y-2479430D01*
X12194061Y-2463321D02*
X12194061Y-2385539D01*
X12116279Y-2385539D01*
X12116279Y-2463321D01*
X12194061Y-2463321D01*
X15155000Y-14001000D02*
X15265000Y-14111000D01*
X15265000Y-14001000D02*
X15155000Y-14111000D01*
X15248891Y-14094891D02*
X15248891Y-14017109D01*
X15171109Y-14017109D01*
X15171109Y-14094891D01*
X15248891Y-14094891D01*
X15155000Y-14509000D02*
X15265000Y-14619000D01*
X15265000Y-14509000D02*
X15155000Y-14619000D01*
X15248891Y-14602891D02*
X15248891Y-14525109D01*
X15171109Y-14525109D01*
X15171109Y-14602891D01*
X15248891Y-14602891D01*
X15205000Y-11765000D02*
X15315000Y-11875000D01*
X15315000Y-11765000D02*
X15205000Y-11875000D01*
X15298891Y-11858891D02*
X15298891Y-11781109D01*
X15221109Y-11781109D01*
X15221109Y-11858891D01*
X15298891Y-11858891D01*
X15205000Y-12019000D02*
X15315000Y-12129000D01*
X15315000Y-12019000D02*
X15205000Y-12129000D01*
X15298891Y-12112891D02*
X15298891Y-12035109D01*
X15221109Y-12035109D01*
X15221109Y-12112891D01*
X15298891Y-12112891D01*
X15205000Y-12273000D02*
X15315000Y-12383000D01*
X15315000Y-12273000D02*
X15205000Y-12383000D01*
X15298891Y-12366891D02*
X15298891Y-12289109D01*
X15221109Y-12289109D01*
X15221109Y-12366891D01*
X15298891Y-12366891D01*
X15205000Y-12527000D02*
X15315000Y-12637000D01*
X15315000Y-12527000D02*
X15205000Y-12637000D01*
X15298891Y-12620891D02*
X15298891Y-12543109D01*
X15221109Y-12543109D01*
X15221109Y-12620891D01*
X15298891Y-12620891D01*
X15205000Y-12781000D02*
X15315000Y-12891000D01*
X15315000Y-12781000D02*
X15205000Y-12891000D01*
X15298891Y-12874891D02*
X15298891Y-12797109D01*
X15221109Y-12797109D01*
X15221109Y-12874891D01*
X15298891Y-12874891D01*
X15205000Y-13035000D02*
X15315000Y-13145000D01*
X15315000Y-13035000D02*
X15205000Y-13145000D01*
X15298891Y-13128891D02*
X15298891Y-13051109D01*
X15221109Y-13051109D01*
X15221109Y-13128891D01*
X15298891Y-13128891D01*
X15205000Y-13289000D02*
X15315000Y-13399000D01*
X15315000Y-13289000D02*
X15205000Y-13399000D01*
X15298891Y-13382891D02*
X15298891Y-13305109D01*
X15221109Y-13305109D01*
X15221109Y-13382891D01*
X15298891Y-13382891D01*
X6386600Y-3021100D02*
X6516600Y-3151100D01*
X6516600Y-3021100D02*
X6386600Y-3151100D01*
X6451600Y-3151100D02*
X6516600Y-3086100D01*
X6451600Y-3021100D01*
X6386600Y-3086100D01*
X6451600Y-3151100D01*
X6386600Y-4221100D02*
X6516600Y-4351100D01*
X6516600Y-4221100D02*
X6386600Y-4351100D01*
X6451600Y-4351100D02*
X6516600Y-4286100D01*
X6451600Y-4221100D01*
X6386600Y-4286100D01*
X6451600Y-4351100D01*
X6412000Y-6640600D02*
X6542000Y-6770600D01*
X6542000Y-6640600D02*
X6412000Y-6770600D01*
X6477000Y-6770600D02*
X6542000Y-6705600D01*
X6477000Y-6640600D01*
X6412000Y-6705600D01*
X6477000Y-6770600D01*
X6412000Y-7840600D02*
X6542000Y-7970600D01*
X6542000Y-7840600D02*
X6412000Y-7970600D01*
X6477000Y-7970600D02*
X6542000Y-7905600D01*
X6477000Y-7840600D01*
X6412000Y-7905600D01*
X6477000Y-7970600D01*
X7606600Y-3021100D02*
X7736600Y-3151100D01*
X7736600Y-3021100D02*
X7606600Y-3151100D01*
X7671600Y-3151100D02*
X7736600Y-3086100D01*
X7671600Y-3021100D01*
X7606600Y-3086100D01*
X7671600Y-3151100D01*
X7606600Y-4221100D02*
X7736600Y-4351100D01*
X7736600Y-4221100D02*
X7606600Y-4351100D01*
X7671600Y-4351100D02*
X7736600Y-4286100D01*
X7671600Y-4221100D01*
X7606600Y-4286100D01*
X7671600Y-4351100D01*
X7632000Y-6640600D02*
X7762000Y-6770600D01*
X7762000Y-6640600D02*
X7632000Y-6770600D01*
X7697000Y-6770600D02*
X7762000Y-6705600D01*
X7697000Y-6640600D01*
X7632000Y-6705600D01*
X7697000Y-6770600D01*
X7632000Y-7840600D02*
X7762000Y-7970600D01*
X7762000Y-7840600D02*
X7632000Y-7970600D01*
X7697000Y-7970600D02*
X7762000Y-7905600D01*
X7697000Y-7840600D01*
X7632000Y-7905600D01*
X7697000Y-7970600D01*
X7806600Y-3621100D02*
X7936600Y-3751100D01*
X7936600Y-3621100D02*
X7806600Y-3751100D01*
X7871600Y-3751100D02*
X7936600Y-3686100D01*
X7871600Y-3621100D01*
X7806600Y-3686100D01*
X7871600Y-3751100D01*
X7832000Y-7240600D02*
X7962000Y-7370600D01*
X7962000Y-7240600D02*
X7832000Y-7370600D01*
X7897000Y-7370600D02*
X7962000Y-7305600D01*
X7897000Y-7240600D01*
X7832000Y-7305600D01*
X7897000Y-7370600D01*
X7516720Y-14848870D02*
X7516720Y-15074870D01*
X7403720Y-14961870D02*
X7629720Y-14961870D01*
X7629720Y-14961870D02*
G75*
G03*
X7629720Y-14961870I-113000J0D01*
G01*
X8830720Y-14848870D02*
X8830720Y-15074870D01*
X8717720Y-14961870D02*
X8943720Y-14961870D01*
X8943720Y-14961870D02*
G75*
G03*
X8943720Y-14961870I-113000J0D01*
G01*
X13510533Y-3906033D02*
X13510533Y-3799966D01*
X13404466Y-3799966D01*
X13404466Y-3906033D01*
X13510533Y-3906033D01*
X13532500Y-3853000D02*
G75*
G03*
X13532500Y-3853000I-75000J0D01*
G01*
X13995533Y-3906033D02*
X13995533Y-3799966D01*
X13889466Y-3799966D01*
X13889466Y-3906033D01*
X13995533Y-3906033D01*
X14017500Y-3853000D02*
G75*
G03*
X14017500Y-3853000I-75000J0D01*
G01*
X13427500Y-3640000D02*
X13517500Y-3550000D01*
X13427500Y-3460000D01*
X13337500Y-3550000D01*
X13427500Y-3640000D01*
X13517500Y-3550000D02*
G75*
G03*
X13517500Y-3550000I-90000J0D01*
G01*
X13972500Y-3640000D02*
X14062500Y-3550000D01*
X13972500Y-3460000D01*
X13882500Y-3550000D01*
X13972500Y-3640000D01*
X14062500Y-3550000D02*
G75*
G03*
X14062500Y-3550000I-90000J0D01*
G01*
X6000000Y-2050000D02*
X6000000Y-2350000D01*
X5850000Y-2200000D02*
X6150000Y-2200000D01*
X6106067Y-2306067D02*
X6106067Y-2093933D01*
X5893933Y-2093933D01*
X5893933Y-2306067D01*
X6106067Y-2306067D01*
X6000000Y-14250000D02*
X6000000Y-14550000D01*
X5850000Y-14400000D02*
X6150000Y-14400000D01*
X6106067Y-14506067D02*
X6106067Y-14293933D01*
X5893933Y-14293933D01*
X5893933Y-14506067D01*
X6106067Y-14506067D01*
X15120000Y-15240000D02*
X15120000Y-15540000D01*
X14970000Y-15390000D02*
X15270000Y-15390000D01*
X15226067Y-15496067D02*
X15226067Y-15283933D01*
X15013933Y-15283933D01*
X15013933Y-15496067D01*
X15226067Y-15496067D01*
X15400000Y-2050000D02*
X15400000Y-2350000D01*
X15250000Y-2200000D02*
X15550000Y-2200000D01*
X15506067Y-2306067D02*
X15506067Y-2093933D01*
X15293933Y-2093933D01*
X15293933Y-2306067D01*
X15506067Y-2306067D01*
D12*
X5721325Y-16626064D02*
X5721325Y-16326064D01*
X5792753Y-16326064D01*
X5835610Y-16340350D01*
X5864182Y-16368921D01*
X5878468Y-16397493D01*
X5892753Y-16454636D01*
X5892753Y-16497493D01*
X5878468Y-16554636D01*
X5864182Y-16583207D01*
X5835610Y-16611778D01*
X5792753Y-16626064D01*
X5721325Y-16626064D01*
X6021325Y-16626064D02*
X6021325Y-16426064D01*
X6021325Y-16483207D02*
X6035610Y-16454636D01*
X6049896Y-16440350D01*
X6078468Y-16426064D01*
X6107039Y-16426064D01*
X6207039Y-16626064D02*
X6207039Y-16426064D01*
X6207039Y-16326064D02*
X6192753Y-16340350D01*
X6207039Y-16354636D01*
X6221325Y-16340350D01*
X6207039Y-16326064D01*
X6207039Y-16354636D01*
X6392753Y-16626064D02*
X6364182Y-16611778D01*
X6349896Y-16583207D01*
X6349896Y-16326064D01*
X6549896Y-16626064D02*
X6521325Y-16611778D01*
X6507039Y-16583207D01*
X6507039Y-16326064D01*
X6892753Y-16626064D02*
X6892753Y-16326064D01*
X6992753Y-16540350D01*
X7092753Y-16326064D01*
X7092753Y-16626064D01*
X7364182Y-16626064D02*
X7364182Y-16468921D01*
X7349896Y-16440350D01*
X7321325Y-16426064D01*
X7264182Y-16426064D01*
X7235610Y-16440350D01*
X7364182Y-16611778D02*
X7335610Y-16626064D01*
X7264182Y-16626064D01*
X7235610Y-16611778D01*
X7221325Y-16583207D01*
X7221325Y-16554636D01*
X7235610Y-16526064D01*
X7264182Y-16511778D01*
X7335610Y-16511778D01*
X7364182Y-16497493D01*
X7507039Y-16426064D02*
X7507039Y-16726064D01*
X7507039Y-16440350D02*
X7535610Y-16426064D01*
X7592753Y-16426064D01*
X7621325Y-16440350D01*
X7635610Y-16454636D01*
X7649896Y-16483207D01*
X7649896Y-16568921D01*
X7635610Y-16597493D01*
X7621325Y-16611778D01*
X7592753Y-16626064D01*
X7535610Y-16626064D01*
X7507039Y-16611778D01*
X7778468Y-16597493D02*
X7792753Y-16611778D01*
X7778468Y-16626064D01*
X7764182Y-16611778D01*
X7778468Y-16597493D01*
X7778468Y-16626064D01*
X7778468Y-16440350D02*
X7792753Y-16454636D01*
X7778468Y-16468921D01*
X7764182Y-16454636D01*
X7778468Y-16440350D01*
X7778468Y-16468921D01*
X5394896Y-17100350D02*
X5434896Y-17140350D01*
X5434896Y-17100350D02*
X5394896Y-17140350D01*
X5778468Y-16956064D02*
X5807039Y-16956064D01*
X5835610Y-16970350D01*
X5849896Y-16984636D01*
X5864182Y-17013207D01*
X5878468Y-17070350D01*
X5878468Y-17141779D01*
X5864182Y-17198921D01*
X5849896Y-17227493D01*
X5835610Y-17241779D01*
X5807039Y-17256064D01*
X5778468Y-17256064D01*
X5749896Y-17241779D01*
X5735610Y-17227493D01*
X5721325Y-17198921D01*
X5707039Y-17141779D01*
X5707039Y-17070350D01*
X5721325Y-17013207D01*
X5735610Y-16984636D01*
X5749896Y-16970350D01*
X5778468Y-16956064D01*
X6007039Y-17227493D02*
X6021325Y-17241779D01*
X6007039Y-17256064D01*
X5992753Y-17241779D01*
X6007039Y-17227493D01*
X6007039Y-17256064D01*
X6278468Y-17056064D02*
X6278468Y-17256064D01*
X6207039Y-16941779D02*
X6135610Y-17156064D01*
X6321325Y-17156064D01*
X6492753Y-16956064D02*
X6521325Y-16956064D01*
X6549896Y-16970350D01*
X6564182Y-16984636D01*
X6578468Y-17013207D01*
X6592753Y-17070350D01*
X6592753Y-17141779D01*
X6578468Y-17198921D01*
X6564182Y-17227493D01*
X6549896Y-17241779D01*
X6521325Y-17256064D01*
X6492753Y-17256064D01*
X6464182Y-17241779D01*
X6449896Y-17227493D01*
X6435610Y-17198921D01*
X6421325Y-17141779D01*
X6421325Y-17070350D01*
X6435610Y-17013207D01*
X6449896Y-16984636D01*
X6464182Y-16970350D01*
X6492753Y-16956064D01*
X6778468Y-16956064D02*
X6807039Y-16956064D01*
X6835610Y-16970350D01*
X6849896Y-16984636D01*
X6864182Y-17013207D01*
X6878468Y-17070350D01*
X6878468Y-17141779D01*
X6864182Y-17198921D01*
X6849896Y-17227493D01*
X6835610Y-17241779D01*
X6807039Y-17256064D01*
X6778468Y-17256064D01*
X6749896Y-17241779D01*
X6735610Y-17227493D01*
X6721325Y-17198921D01*
X6707039Y-17141779D01*
X6707039Y-17070350D01*
X6721325Y-17013207D01*
X6735610Y-16984636D01*
X6749896Y-16970350D01*
X6778468Y-16956064D01*
X7007039Y-17256064D02*
X7007039Y-17056064D01*
X7007039Y-17084636D02*
X7021325Y-17070350D01*
X7049896Y-17056064D01*
X7092753Y-17056064D01*
X7121325Y-17070350D01*
X7135610Y-17098921D01*
X7135610Y-17256064D01*
X7135610Y-17098921D02*
X7149896Y-17070350D01*
X7178468Y-17056064D01*
X7221325Y-17056064D01*
X7249896Y-17070350D01*
X7264182Y-17098921D01*
X7264182Y-17256064D01*
X7407039Y-17256064D02*
X7407039Y-17056064D01*
X7407039Y-17084636D02*
X7421325Y-17070350D01*
X7449896Y-17056064D01*
X7492753Y-17056064D01*
X7521325Y-17070350D01*
X7535610Y-17098921D01*
X7535610Y-17256064D01*
X7535610Y-17098921D02*
X7549896Y-17070350D01*
X7578468Y-17056064D01*
X7621325Y-17056064D01*
X7649896Y-17070350D01*
X7664182Y-17098921D01*
X7664182Y-17256064D01*
X8249896Y-16941779D02*
X7992753Y-17327493D01*
X8635610Y-16956064D02*
X8664182Y-16956064D01*
X8692753Y-16970350D01*
X8707039Y-16984636D01*
X8721325Y-17013207D01*
X8735610Y-17070350D01*
X8735610Y-17141779D01*
X8721325Y-17198921D01*
X8707039Y-17227493D01*
X8692753Y-17241779D01*
X8664182Y-17256064D01*
X8635610Y-17256064D01*
X8607039Y-17241779D01*
X8592753Y-17227493D01*
X8578468Y-17198921D01*
X8564182Y-17141779D01*
X8564182Y-17070350D01*
X8578468Y-17013207D01*
X8592753Y-16984636D01*
X8607039Y-16970350D01*
X8635610Y-16956064D01*
X8864182Y-17227493D02*
X8878468Y-17241779D01*
X8864182Y-17256064D01*
X8849896Y-17241779D01*
X8864182Y-17227493D01*
X8864182Y-17256064D01*
X9064182Y-16956064D02*
X9092753Y-16956064D01*
X9121325Y-16970350D01*
X9135610Y-16984636D01*
X9149896Y-17013207D01*
X9164182Y-17070350D01*
X9164182Y-17141779D01*
X9149896Y-17198921D01*
X9135610Y-17227493D01*
X9121325Y-17241779D01*
X9092753Y-17256064D01*
X9064182Y-17256064D01*
X9035610Y-17241779D01*
X9021325Y-17227493D01*
X9007039Y-17198921D01*
X8992753Y-17141779D01*
X8992753Y-17070350D01*
X9007039Y-17013207D01*
X9021325Y-16984636D01*
X9035610Y-16970350D01*
X9064182Y-16956064D01*
X9449896Y-17256064D02*
X9278468Y-17256064D01*
X9364182Y-17256064D02*
X9364182Y-16956064D01*
X9335610Y-16998921D01*
X9307039Y-17027493D01*
X9278468Y-17041779D01*
X9721325Y-16956064D02*
X9578468Y-16956064D01*
X9564182Y-17098921D01*
X9578468Y-17084636D01*
X9607039Y-17070350D01*
X9678468Y-17070350D01*
X9707039Y-17084636D01*
X9721325Y-17098921D01*
X9735610Y-17127493D01*
X9735610Y-17198921D01*
X9721325Y-17227493D01*
X9707039Y-17241779D01*
X9678468Y-17256064D01*
X9607039Y-17256064D01*
X9578468Y-17241779D01*
X9564182Y-17227493D01*
X9835610Y-16956064D02*
X10035610Y-16956064D01*
X9907039Y-17256064D01*
X10135610Y-16956064D02*
X10135610Y-17013207D01*
X10249896Y-16956064D02*
X10249896Y-17013207D01*
X10692753Y-17370350D02*
X10678468Y-17356064D01*
X10649896Y-17313207D01*
X10635610Y-17284636D01*
X10621325Y-17241779D01*
X10607039Y-17170350D01*
X10607039Y-17113207D01*
X10621325Y-17041779D01*
X10635610Y-16998921D01*
X10649896Y-16970350D01*
X10678468Y-16927493D01*
X10692753Y-16913207D01*
X10964182Y-17256064D02*
X10792753Y-17256064D01*
X10878468Y-17256064D02*
X10878468Y-16956064D01*
X10849896Y-16998921D01*
X10821325Y-17027493D01*
X10792753Y-17041779D01*
X11107039Y-17256064D02*
X11164182Y-17256064D01*
X11192753Y-17241779D01*
X11207039Y-17227493D01*
X11235610Y-17184636D01*
X11249896Y-17127493D01*
X11249896Y-17013207D01*
X11235610Y-16984636D01*
X11221325Y-16970350D01*
X11192753Y-16956064D01*
X11135610Y-16956064D01*
X11107039Y-16970350D01*
X11092753Y-16984636D01*
X11078468Y-17013207D01*
X11078468Y-17084636D01*
X11092753Y-17113207D01*
X11107039Y-17127493D01*
X11135610Y-17141779D01*
X11192753Y-17141779D01*
X11221325Y-17127493D01*
X11235610Y-17113207D01*
X11249896Y-17084636D01*
X11607039Y-17256064D02*
X11607039Y-16956064D01*
X11735610Y-17256064D02*
X11735610Y-17098921D01*
X11721325Y-17070350D01*
X11692753Y-17056064D01*
X11649896Y-17056064D01*
X11621325Y-17070350D01*
X11607039Y-17084636D01*
X11921325Y-17256064D02*
X11892753Y-17241779D01*
X11878468Y-17227493D01*
X11864182Y-17198921D01*
X11864182Y-17113207D01*
X11878468Y-17084636D01*
X11892753Y-17070350D01*
X11921325Y-17056064D01*
X11964182Y-17056064D01*
X11992753Y-17070350D01*
X12007039Y-17084636D01*
X12021325Y-17113207D01*
X12021325Y-17198921D01*
X12007039Y-17227493D01*
X11992753Y-17241779D01*
X11964182Y-17256064D01*
X11921325Y-17256064D01*
X12192753Y-17256064D02*
X12164182Y-17241779D01*
X12149896Y-17213207D01*
X12149896Y-16956064D01*
X12421325Y-17241779D02*
X12392753Y-17256064D01*
X12335610Y-17256064D01*
X12307039Y-17241779D01*
X12292753Y-17213207D01*
X12292753Y-17098921D01*
X12307039Y-17070350D01*
X12335610Y-17056064D01*
X12392753Y-17056064D01*
X12421325Y-17070350D01*
X12435610Y-17098921D01*
X12435610Y-17127493D01*
X12292753Y-17156064D01*
X12549896Y-17241779D02*
X12578468Y-17256064D01*
X12635610Y-17256064D01*
X12664182Y-17241779D01*
X12678468Y-17213207D01*
X12678468Y-17198921D01*
X12664182Y-17170350D01*
X12635610Y-17156064D01*
X12592753Y-17156064D01*
X12564182Y-17141779D01*
X12549896Y-17113207D01*
X12549896Y-17098921D01*
X12564182Y-17070350D01*
X12592753Y-17056064D01*
X12635610Y-17056064D01*
X12664182Y-17070350D01*
X12778468Y-17370350D02*
X12792753Y-17356064D01*
X12821325Y-17313207D01*
X12835610Y-17284636D01*
X12849896Y-17241779D01*
X12864182Y-17170350D01*
X12864182Y-17113207D01*
X12849896Y-17041779D01*
X12835610Y-16998921D01*
X12821325Y-16970350D01*
X12792753Y-16927493D01*
X12778468Y-16913207D01*
X5434896Y-17516350D02*
G75*
G03*
X5434896Y-17516350I-30000J0D01*
G01*
X5778468Y-17352064D02*
X5807039Y-17352064D01*
X5835610Y-17366350D01*
X5849896Y-17380636D01*
X5864182Y-17409207D01*
X5878468Y-17466350D01*
X5878468Y-17537779D01*
X5864182Y-17594921D01*
X5849896Y-17623493D01*
X5835610Y-17637779D01*
X5807039Y-17652064D01*
X5778468Y-17652064D01*
X5749896Y-17637779D01*
X5735610Y-17623493D01*
X5721325Y-17594921D01*
X5707039Y-17537779D01*
X5707039Y-17466350D01*
X5721325Y-17409207D01*
X5735610Y-17380636D01*
X5749896Y-17366350D01*
X5778468Y-17352064D01*
X6007039Y-17623493D02*
X6021325Y-17637779D01*
X6007039Y-17652064D01*
X5992753Y-17637779D01*
X6007039Y-17623493D01*
X6007039Y-17652064D01*
X6278468Y-17352064D02*
X6221325Y-17352064D01*
X6192753Y-17366350D01*
X6178468Y-17380636D01*
X6149896Y-17423493D01*
X6135610Y-17480636D01*
X6135610Y-17594921D01*
X6149896Y-17623493D01*
X6164182Y-17637779D01*
X6192753Y-17652064D01*
X6249896Y-17652064D01*
X6278468Y-17637779D01*
X6292753Y-17623493D01*
X6307039Y-17594921D01*
X6307039Y-17523493D01*
X6292753Y-17494921D01*
X6278468Y-17480636D01*
X6249896Y-17466350D01*
X6192753Y-17466350D01*
X6164182Y-17480636D01*
X6149896Y-17494921D01*
X6135610Y-17523493D01*
X6492753Y-17352064D02*
X6521325Y-17352064D01*
X6549896Y-17366350D01*
X6564182Y-17380636D01*
X6578468Y-17409207D01*
X6592753Y-17466350D01*
X6592753Y-17537779D01*
X6578468Y-17594921D01*
X6564182Y-17623493D01*
X6549896Y-17637779D01*
X6521325Y-17652064D01*
X6492753Y-17652064D01*
X6464182Y-17637779D01*
X6449896Y-17623493D01*
X6435610Y-17594921D01*
X6421325Y-17537779D01*
X6421325Y-17466350D01*
X6435610Y-17409207D01*
X6449896Y-17380636D01*
X6464182Y-17366350D01*
X6492753Y-17352064D01*
X6778468Y-17352064D02*
X6807039Y-17352064D01*
X6835610Y-17366350D01*
X6849896Y-17380636D01*
X6864182Y-17409207D01*
X6878468Y-17466350D01*
X6878468Y-17537779D01*
X6864182Y-17594921D01*
X6849896Y-17623493D01*
X6835610Y-17637779D01*
X6807039Y-17652064D01*
X6778468Y-17652064D01*
X6749896Y-17637779D01*
X6735610Y-17623493D01*
X6721325Y-17594921D01*
X6707039Y-17537779D01*
X6707039Y-17466350D01*
X6721325Y-17409207D01*
X6735610Y-17380636D01*
X6749896Y-17366350D01*
X6778468Y-17352064D01*
X7007039Y-17652064D02*
X7007039Y-17452064D01*
X7007039Y-17480636D02*
X7021325Y-17466350D01*
X7049896Y-17452064D01*
X7092753Y-17452064D01*
X7121325Y-17466350D01*
X7135610Y-17494921D01*
X7135610Y-17652064D01*
X7135610Y-17494921D02*
X7149896Y-17466350D01*
X7178468Y-17452064D01*
X7221325Y-17452064D01*
X7249896Y-17466350D01*
X7264182Y-17494921D01*
X7264182Y-17652064D01*
X7407039Y-17652064D02*
X7407039Y-17452064D01*
X7407039Y-17480636D02*
X7421325Y-17466350D01*
X7449896Y-17452064D01*
X7492753Y-17452064D01*
X7521325Y-17466350D01*
X7535610Y-17494921D01*
X7535610Y-17652064D01*
X7535610Y-17494921D02*
X7549896Y-17466350D01*
X7578468Y-17452064D01*
X7621325Y-17452064D01*
X7649896Y-17466350D01*
X7664182Y-17494921D01*
X7664182Y-17652064D01*
X8249896Y-17337779D02*
X7992753Y-17723493D01*
X8635610Y-17352064D02*
X8664182Y-17352064D01*
X8692753Y-17366350D01*
X8707039Y-17380636D01*
X8721325Y-17409207D01*
X8735610Y-17466350D01*
X8735610Y-17537779D01*
X8721325Y-17594921D01*
X8707039Y-17623493D01*
X8692753Y-17637779D01*
X8664182Y-17652064D01*
X8635610Y-17652064D01*
X8607039Y-17637779D01*
X8592753Y-17623493D01*
X8578468Y-17594921D01*
X8564182Y-17537779D01*
X8564182Y-17466350D01*
X8578468Y-17409207D01*
X8592753Y-17380636D01*
X8607039Y-17366350D01*
X8635610Y-17352064D01*
X8864182Y-17623493D02*
X8878468Y-17637779D01*
X8864182Y-17652064D01*
X8849896Y-17637779D01*
X8864182Y-17623493D01*
X8864182Y-17652064D01*
X9064182Y-17352064D02*
X9092753Y-17352064D01*
X9121325Y-17366350D01*
X9135610Y-17380636D01*
X9149896Y-17409207D01*
X9164182Y-17466350D01*
X9164182Y-17537779D01*
X9149896Y-17594921D01*
X9135610Y-17623493D01*
X9121325Y-17637779D01*
X9092753Y-17652064D01*
X9064182Y-17652064D01*
X9035610Y-17637779D01*
X9021325Y-17623493D01*
X9007039Y-17594921D01*
X8992753Y-17537779D01*
X8992753Y-17466350D01*
X9007039Y-17409207D01*
X9021325Y-17380636D01*
X9035610Y-17366350D01*
X9064182Y-17352064D01*
X9278468Y-17380636D02*
X9292753Y-17366350D01*
X9321325Y-17352064D01*
X9392753Y-17352064D01*
X9421325Y-17366350D01*
X9435610Y-17380636D01*
X9449896Y-17409207D01*
X9449896Y-17437779D01*
X9435610Y-17480636D01*
X9264182Y-17652064D01*
X9449896Y-17652064D01*
X9549896Y-17352064D02*
X9735610Y-17352064D01*
X9635610Y-17466350D01*
X9678468Y-17466350D01*
X9707039Y-17480636D01*
X9721325Y-17494921D01*
X9735610Y-17523493D01*
X9735610Y-17594921D01*
X9721325Y-17623493D01*
X9707039Y-17637779D01*
X9678468Y-17652064D01*
X9592753Y-17652064D01*
X9564182Y-17637779D01*
X9549896Y-17623493D01*
X9992753Y-17352064D02*
X9935610Y-17352064D01*
X9907039Y-17366350D01*
X9892753Y-17380636D01*
X9864182Y-17423493D01*
X9849896Y-17480636D01*
X9849896Y-17594921D01*
X9864182Y-17623493D01*
X9878468Y-17637779D01*
X9907039Y-17652064D01*
X9964182Y-17652064D01*
X9992753Y-17637779D01*
X10007039Y-17623493D01*
X10021325Y-17594921D01*
X10021325Y-17523493D01*
X10007039Y-17494921D01*
X9992753Y-17480636D01*
X9964182Y-17466350D01*
X9907039Y-17466350D01*
X9878468Y-17480636D01*
X9864182Y-17494921D01*
X9849896Y-17523493D01*
X10135610Y-17352064D02*
X10135610Y-17409207D01*
X10249896Y-17352064D02*
X10249896Y-17409207D01*
X10692753Y-17766350D02*
X10678468Y-17752064D01*
X10649896Y-17709207D01*
X10635610Y-17680636D01*
X10621325Y-17637779D01*
X10607039Y-17566350D01*
X10607039Y-17509207D01*
X10621325Y-17437779D01*
X10635610Y-17394921D01*
X10649896Y-17366350D01*
X10678468Y-17323493D01*
X10692753Y-17309207D01*
X10935610Y-17452064D02*
X10935610Y-17652064D01*
X10864182Y-17337779D02*
X10792753Y-17552064D01*
X10978468Y-17552064D01*
X11321325Y-17652064D02*
X11321325Y-17352064D01*
X11449896Y-17652064D02*
X11449896Y-17494921D01*
X11435610Y-17466350D01*
X11407039Y-17452064D01*
X11364182Y-17452064D01*
X11335610Y-17466350D01*
X11321325Y-17480636D01*
X11635610Y-17652064D02*
X11607039Y-17637779D01*
X11592753Y-17623493D01*
X11578468Y-17594921D01*
X11578468Y-17509207D01*
X11592753Y-17480636D01*
X11607039Y-17466350D01*
X11635610Y-17452064D01*
X11678468Y-17452064D01*
X11707039Y-17466350D01*
X11721325Y-17480636D01*
X11735610Y-17509207D01*
X11735610Y-17594921D01*
X11721325Y-17623493D01*
X11707039Y-17637779D01*
X11678468Y-17652064D01*
X11635610Y-17652064D01*
X11907039Y-17652064D02*
X11878468Y-17637779D01*
X11864182Y-17609207D01*
X11864182Y-17352064D01*
X12135610Y-17637779D02*
X12107039Y-17652064D01*
X12049896Y-17652064D01*
X12021325Y-17637779D01*
X12007039Y-17609207D01*
X12007039Y-17494921D01*
X12021325Y-17466350D01*
X12049896Y-17452064D01*
X12107039Y-17452064D01*
X12135610Y-17466350D01*
X12149896Y-17494921D01*
X12149896Y-17523493D01*
X12007039Y-17552064D01*
X12264182Y-17637779D02*
X12292753Y-17652064D01*
X12349896Y-17652064D01*
X12378468Y-17637779D01*
X12392753Y-17609207D01*
X12392753Y-17594921D01*
X12378468Y-17566350D01*
X12349896Y-17552064D01*
X12307039Y-17552064D01*
X12278468Y-17537779D01*
X12264182Y-17509207D01*
X12264182Y-17494921D01*
X12278468Y-17466350D01*
X12307039Y-17452064D01*
X12349896Y-17452064D01*
X12378468Y-17466350D01*
X12492753Y-17766350D02*
X12507039Y-17752064D01*
X12535610Y-17709207D01*
X12549896Y-17680636D01*
X12564182Y-17637779D01*
X12578468Y-17566350D01*
X12578468Y-17509207D01*
X12564182Y-17437779D01*
X12549896Y-17394921D01*
X12535610Y-17366350D01*
X12507039Y-17323493D01*
X12492753Y-17309207D01*
X5397396Y-17874850D02*
X5397396Y-17949850D01*
X5359896Y-17912350D02*
X5434896Y-17912350D01*
X5778468Y-17748064D02*
X5807039Y-17748064D01*
X5835610Y-17762350D01*
X5849896Y-17776636D01*
X5864182Y-17805207D01*
X5878468Y-17862350D01*
X5878468Y-17933779D01*
X5864182Y-17990921D01*
X5849896Y-18019493D01*
X5835610Y-18033779D01*
X5807039Y-18048064D01*
X5778468Y-18048064D01*
X5749896Y-18033779D01*
X5735610Y-18019493D01*
X5721325Y-17990921D01*
X5707039Y-17933779D01*
X5707039Y-17862350D01*
X5721325Y-17805207D01*
X5735610Y-17776636D01*
X5749896Y-17762350D01*
X5778468Y-17748064D01*
X6007039Y-18019493D02*
X6021325Y-18033779D01*
X6007039Y-18048064D01*
X5992753Y-18033779D01*
X6007039Y-18019493D01*
X6007039Y-18048064D01*
X6121325Y-17748064D02*
X6321325Y-17748064D01*
X6192753Y-18048064D01*
X6578468Y-17748064D02*
X6435610Y-17748064D01*
X6421325Y-17890921D01*
X6435610Y-17876636D01*
X6464182Y-17862350D01*
X6535610Y-17862350D01*
X6564182Y-17876636D01*
X6578468Y-17890921D01*
X6592753Y-17919493D01*
X6592753Y-17990921D01*
X6578468Y-18019493D01*
X6564182Y-18033779D01*
X6535610Y-18048064D01*
X6464182Y-18048064D01*
X6435610Y-18033779D01*
X6421325Y-18019493D01*
X6778468Y-17748064D02*
X6807039Y-17748064D01*
X6835610Y-17762350D01*
X6849896Y-17776636D01*
X6864182Y-17805207D01*
X6878468Y-17862350D01*
X6878468Y-17933779D01*
X6864182Y-17990921D01*
X6849896Y-18019493D01*
X6835610Y-18033779D01*
X6807039Y-18048064D01*
X6778468Y-18048064D01*
X6749896Y-18033779D01*
X6735610Y-18019493D01*
X6721325Y-17990921D01*
X6707039Y-17933779D01*
X6707039Y-17862350D01*
X6721325Y-17805207D01*
X6735610Y-17776636D01*
X6749896Y-17762350D01*
X6778468Y-17748064D01*
X7007039Y-18048064D02*
X7007039Y-17848064D01*
X7007039Y-17876636D02*
X7021325Y-17862350D01*
X7049896Y-17848064D01*
X7092753Y-17848064D01*
X7121325Y-17862350D01*
X7135610Y-17890921D01*
X7135610Y-18048064D01*
X7135610Y-17890921D02*
X7149896Y-17862350D01*
X7178468Y-17848064D01*
X7221325Y-17848064D01*
X7249896Y-17862350D01*
X7264182Y-17890921D01*
X7264182Y-18048064D01*
X7407039Y-18048064D02*
X7407039Y-17848064D01*
X7407039Y-17876636D02*
X7421325Y-17862350D01*
X7449896Y-17848064D01*
X7492753Y-17848064D01*
X7521325Y-17862350D01*
X7535610Y-17890921D01*
X7535610Y-18048064D01*
X7535610Y-17890921D02*
X7549896Y-17862350D01*
X7578468Y-17848064D01*
X7621325Y-17848064D01*
X7649896Y-17862350D01*
X7664182Y-17890921D01*
X7664182Y-18048064D01*
X8249896Y-17733779D02*
X7992753Y-18119493D01*
X8635610Y-17748064D02*
X8664182Y-17748064D01*
X8692753Y-17762350D01*
X8707039Y-17776636D01*
X8721325Y-17805207D01*
X8735610Y-17862350D01*
X8735610Y-17933779D01*
X8721325Y-17990921D01*
X8707039Y-18019493D01*
X8692753Y-18033779D01*
X8664182Y-18048064D01*
X8635610Y-18048064D01*
X8607039Y-18033779D01*
X8592753Y-18019493D01*
X8578468Y-17990921D01*
X8564182Y-17933779D01*
X8564182Y-17862350D01*
X8578468Y-17805207D01*
X8592753Y-17776636D01*
X8607039Y-17762350D01*
X8635610Y-17748064D01*
X8864182Y-18019493D02*
X8878468Y-18033779D01*
X8864182Y-18048064D01*
X8849896Y-18033779D01*
X8864182Y-18019493D01*
X8864182Y-18048064D01*
X9064182Y-17748064D02*
X9092753Y-17748064D01*
X9121325Y-17762350D01*
X9135610Y-17776636D01*
X9149896Y-17805207D01*
X9164182Y-17862350D01*
X9164182Y-17933779D01*
X9149896Y-17990921D01*
X9135610Y-18019493D01*
X9121325Y-18033779D01*
X9092753Y-18048064D01*
X9064182Y-18048064D01*
X9035610Y-18033779D01*
X9021325Y-18019493D01*
X9007039Y-17990921D01*
X8992753Y-17933779D01*
X8992753Y-17862350D01*
X9007039Y-17805207D01*
X9021325Y-17776636D01*
X9035610Y-17762350D01*
X9064182Y-17748064D01*
X9278468Y-17776636D02*
X9292753Y-17762350D01*
X9321325Y-17748064D01*
X9392753Y-17748064D01*
X9421325Y-17762350D01*
X9435610Y-17776636D01*
X9449896Y-17805207D01*
X9449896Y-17833779D01*
X9435610Y-17876636D01*
X9264182Y-18048064D01*
X9449896Y-18048064D01*
X9592753Y-18048064D02*
X9649896Y-18048064D01*
X9678468Y-18033779D01*
X9692753Y-18019493D01*
X9721325Y-17976636D01*
X9735610Y-17919493D01*
X9735610Y-17805207D01*
X9721325Y-17776636D01*
X9707039Y-17762350D01*
X9678468Y-17748064D01*
X9621325Y-17748064D01*
X9592753Y-17762350D01*
X9578468Y-17776636D01*
X9564182Y-17805207D01*
X9564182Y-17876636D01*
X9578468Y-17905207D01*
X9592753Y-17919493D01*
X9621325Y-17933779D01*
X9678468Y-17933779D01*
X9707039Y-17919493D01*
X9721325Y-17905207D01*
X9735610Y-17876636D01*
X10007039Y-17748064D02*
X9864182Y-17748064D01*
X9849896Y-17890921D01*
X9864182Y-17876636D01*
X9892753Y-17862350D01*
X9964182Y-17862350D01*
X9992753Y-17876636D01*
X10007039Y-17890921D01*
X10021325Y-17919493D01*
X10021325Y-17990921D01*
X10007039Y-18019493D01*
X9992753Y-18033779D01*
X9964182Y-18048064D01*
X9892753Y-18048064D01*
X9864182Y-18033779D01*
X9849896Y-18019493D01*
X10135610Y-17748064D02*
X10135610Y-17805207D01*
X10249896Y-17748064D02*
X10249896Y-17805207D01*
X10692753Y-18162350D02*
X10678468Y-18148064D01*
X10649896Y-18105207D01*
X10635610Y-18076636D01*
X10621325Y-18033779D01*
X10607039Y-17962350D01*
X10607039Y-17905207D01*
X10621325Y-17833779D01*
X10635610Y-17790921D01*
X10649896Y-17762350D01*
X10678468Y-17719493D01*
X10692753Y-17705207D01*
X10935610Y-17748064D02*
X10878468Y-17748064D01*
X10849896Y-17762350D01*
X10835610Y-17776636D01*
X10807039Y-17819493D01*
X10792753Y-17876636D01*
X10792753Y-17990921D01*
X10807039Y-18019493D01*
X10821325Y-18033779D01*
X10849896Y-18048064D01*
X10907039Y-18048064D01*
X10935610Y-18033779D01*
X10949896Y-18019493D01*
X10964182Y-17990921D01*
X10964182Y-17919493D01*
X10949896Y-17890921D01*
X10935610Y-17876636D01*
X10907039Y-17862350D01*
X10849896Y-17862350D01*
X10821325Y-17876636D01*
X10807039Y-17890921D01*
X10792753Y-17919493D01*
X11321325Y-18048064D02*
X11321325Y-17748064D01*
X11449896Y-18048064D02*
X11449896Y-17890921D01*
X11435610Y-17862350D01*
X11407039Y-17848064D01*
X11364182Y-17848064D01*
X11335610Y-17862350D01*
X11321325Y-17876636D01*
X11635610Y-18048064D02*
X11607039Y-18033779D01*
X11592753Y-18019493D01*
X11578468Y-17990921D01*
X11578468Y-17905207D01*
X11592753Y-17876636D01*
X11607039Y-17862350D01*
X11635610Y-17848064D01*
X11678468Y-17848064D01*
X11707039Y-17862350D01*
X11721325Y-17876636D01*
X11735610Y-17905207D01*
X11735610Y-17990921D01*
X11721325Y-18019493D01*
X11707039Y-18033779D01*
X11678468Y-18048064D01*
X11635610Y-18048064D01*
X11907039Y-18048064D02*
X11878468Y-18033779D01*
X11864182Y-18005207D01*
X11864182Y-17748064D01*
X12135610Y-18033779D02*
X12107039Y-18048064D01*
X12049896Y-18048064D01*
X12021325Y-18033779D01*
X12007039Y-18005207D01*
X12007039Y-17890921D01*
X12021325Y-17862350D01*
X12049896Y-17848064D01*
X12107039Y-17848064D01*
X12135610Y-17862350D01*
X12149896Y-17890921D01*
X12149896Y-17919493D01*
X12007039Y-17948064D01*
X12264182Y-18033779D02*
X12292753Y-18048064D01*
X12349896Y-18048064D01*
X12378468Y-18033779D01*
X12392753Y-18005207D01*
X12392753Y-17990921D01*
X12378468Y-17962350D01*
X12349896Y-17948064D01*
X12307039Y-17948064D01*
X12278468Y-17933779D01*
X12264182Y-17905207D01*
X12264182Y-17890921D01*
X12278468Y-17862350D01*
X12307039Y-17848064D01*
X12349896Y-17848064D01*
X12378468Y-17862350D01*
X12492753Y-18162350D02*
X12507039Y-18148064D01*
X12535610Y-18105207D01*
X12549896Y-18076636D01*
X12564182Y-18033779D01*
X12578468Y-17962350D01*
X12578468Y-17905207D01*
X12564182Y-17833779D01*
X12549896Y-17790921D01*
X12535610Y-17762350D01*
X12507039Y-17719493D01*
X12492753Y-17705207D01*
X5422449Y-18338402D02*
X5422449Y-18278298D01*
X5362344Y-18278298D01*
X5362344Y-18338402D01*
X5422449Y-18338402D01*
X5778468Y-18144064D02*
X5807039Y-18144064D01*
X5835610Y-18158350D01*
X5849896Y-18172636D01*
X5864182Y-18201207D01*
X5878468Y-18258350D01*
X5878468Y-18329779D01*
X5864182Y-18386921D01*
X5849896Y-18415493D01*
X5835610Y-18429779D01*
X5807039Y-18444064D01*
X5778468Y-18444064D01*
X5749896Y-18429779D01*
X5735610Y-18415493D01*
X5721325Y-18386921D01*
X5707039Y-18329779D01*
X5707039Y-18258350D01*
X5721325Y-18201207D01*
X5735610Y-18172636D01*
X5749896Y-18158350D01*
X5778468Y-18144064D01*
X6007039Y-18415493D02*
X6021325Y-18429779D01*
X6007039Y-18444064D01*
X5992753Y-18429779D01*
X6007039Y-18415493D01*
X6007039Y-18444064D01*
X6192753Y-18272636D02*
X6164182Y-18258350D01*
X6149896Y-18244064D01*
X6135610Y-18215493D01*
X6135610Y-18201207D01*
X6149896Y-18172636D01*
X6164182Y-18158350D01*
X6192753Y-18144064D01*
X6249896Y-18144064D01*
X6278468Y-18158350D01*
X6292753Y-18172636D01*
X6307039Y-18201207D01*
X6307039Y-18215493D01*
X6292753Y-18244064D01*
X6278468Y-18258350D01*
X6249896Y-18272636D01*
X6192753Y-18272636D01*
X6164182Y-18286921D01*
X6149896Y-18301207D01*
X6135610Y-18329779D01*
X6135610Y-18386921D01*
X6149896Y-18415493D01*
X6164182Y-18429779D01*
X6192753Y-18444064D01*
X6249896Y-18444064D01*
X6278468Y-18429779D01*
X6292753Y-18415493D01*
X6307039Y-18386921D01*
X6307039Y-18329779D01*
X6292753Y-18301207D01*
X6278468Y-18286921D01*
X6249896Y-18272636D01*
X6578468Y-18144064D02*
X6435610Y-18144064D01*
X6421325Y-18286921D01*
X6435610Y-18272636D01*
X6464182Y-18258350D01*
X6535610Y-18258350D01*
X6564182Y-18272636D01*
X6578468Y-18286921D01*
X6592753Y-18315493D01*
X6592753Y-18386921D01*
X6578468Y-18415493D01*
X6564182Y-18429779D01*
X6535610Y-18444064D01*
X6464182Y-18444064D01*
X6435610Y-18429779D01*
X6421325Y-18415493D01*
X6778468Y-18144064D02*
X6807039Y-18144064D01*
X6835610Y-18158350D01*
X6849896Y-18172636D01*
X6864182Y-18201207D01*
X6878468Y-18258350D01*
X6878468Y-18329779D01*
X6864182Y-18386921D01*
X6849896Y-18415493D01*
X6835610Y-18429779D01*
X6807039Y-18444064D01*
X6778468Y-18444064D01*
X6749896Y-18429779D01*
X6735610Y-18415493D01*
X6721325Y-18386921D01*
X6707039Y-18329779D01*
X6707039Y-18258350D01*
X6721325Y-18201207D01*
X6735610Y-18172636D01*
X6749896Y-18158350D01*
X6778468Y-18144064D01*
X7007039Y-18444064D02*
X7007039Y-18244064D01*
X7007039Y-18272636D02*
X7021325Y-18258350D01*
X7049896Y-18244064D01*
X7092753Y-18244064D01*
X7121325Y-18258350D01*
X7135610Y-18286921D01*
X7135610Y-18444064D01*
X7135610Y-18286921D02*
X7149896Y-18258350D01*
X7178468Y-18244064D01*
X7221325Y-18244064D01*
X7249896Y-18258350D01*
X7264182Y-18286921D01*
X7264182Y-18444064D01*
X7407039Y-18444064D02*
X7407039Y-18244064D01*
X7407039Y-18272636D02*
X7421325Y-18258350D01*
X7449896Y-18244064D01*
X7492753Y-18244064D01*
X7521325Y-18258350D01*
X7535610Y-18286921D01*
X7535610Y-18444064D01*
X7535610Y-18286921D02*
X7549896Y-18258350D01*
X7578468Y-18244064D01*
X7621325Y-18244064D01*
X7649896Y-18258350D01*
X7664182Y-18286921D01*
X7664182Y-18444064D01*
X8249896Y-18129779D02*
X7992753Y-18515493D01*
X8635610Y-18144064D02*
X8664182Y-18144064D01*
X8692753Y-18158350D01*
X8707039Y-18172636D01*
X8721325Y-18201207D01*
X8735610Y-18258350D01*
X8735610Y-18329779D01*
X8721325Y-18386921D01*
X8707039Y-18415493D01*
X8692753Y-18429779D01*
X8664182Y-18444064D01*
X8635610Y-18444064D01*
X8607039Y-18429779D01*
X8592753Y-18415493D01*
X8578468Y-18386921D01*
X8564182Y-18329779D01*
X8564182Y-18258350D01*
X8578468Y-18201207D01*
X8592753Y-18172636D01*
X8607039Y-18158350D01*
X8635610Y-18144064D01*
X8864182Y-18415493D02*
X8878468Y-18429779D01*
X8864182Y-18444064D01*
X8849896Y-18429779D01*
X8864182Y-18415493D01*
X8864182Y-18444064D01*
X9064182Y-18144064D02*
X9092753Y-18144064D01*
X9121325Y-18158350D01*
X9135610Y-18172636D01*
X9149896Y-18201207D01*
X9164182Y-18258350D01*
X9164182Y-18329779D01*
X9149896Y-18386921D01*
X9135610Y-18415493D01*
X9121325Y-18429779D01*
X9092753Y-18444064D01*
X9064182Y-18444064D01*
X9035610Y-18429779D01*
X9021325Y-18415493D01*
X9007039Y-18386921D01*
X8992753Y-18329779D01*
X8992753Y-18258350D01*
X9007039Y-18201207D01*
X9021325Y-18172636D01*
X9035610Y-18158350D01*
X9064182Y-18144064D01*
X9264182Y-18144064D02*
X9449896Y-18144064D01*
X9349896Y-18258350D01*
X9392753Y-18258350D01*
X9421325Y-18272636D01*
X9435610Y-18286921D01*
X9449896Y-18315493D01*
X9449896Y-18386921D01*
X9435610Y-18415493D01*
X9421325Y-18429779D01*
X9392753Y-18444064D01*
X9307039Y-18444064D01*
X9278468Y-18429779D01*
X9264182Y-18415493D01*
X9549896Y-18144064D02*
X9735610Y-18144064D01*
X9635610Y-18258350D01*
X9678468Y-18258350D01*
X9707039Y-18272636D01*
X9721325Y-18286921D01*
X9735610Y-18315493D01*
X9735610Y-18386921D01*
X9721325Y-18415493D01*
X9707039Y-18429779D01*
X9678468Y-18444064D01*
X9592753Y-18444064D01*
X9564182Y-18429779D01*
X9549896Y-18415493D01*
X10007039Y-18144064D02*
X9864182Y-18144064D01*
X9849896Y-18286921D01*
X9864182Y-18272636D01*
X9892753Y-18258350D01*
X9964182Y-18258350D01*
X9992753Y-18272636D01*
X10007039Y-18286921D01*
X10021325Y-18315493D01*
X10021325Y-18386921D01*
X10007039Y-18415493D01*
X9992753Y-18429779D01*
X9964182Y-18444064D01*
X9892753Y-18444064D01*
X9864182Y-18429779D01*
X9849896Y-18415493D01*
X10135610Y-18144064D02*
X10135610Y-18201207D01*
X10249896Y-18144064D02*
X10249896Y-18201207D01*
X10692753Y-18558350D02*
X10678468Y-18544064D01*
X10649896Y-18501207D01*
X10635610Y-18472636D01*
X10621325Y-18429779D01*
X10607039Y-18358350D01*
X10607039Y-18301207D01*
X10621325Y-18229779D01*
X10635610Y-18186921D01*
X10649896Y-18158350D01*
X10678468Y-18115493D01*
X10692753Y-18101207D01*
X10849896Y-18272636D02*
X10821325Y-18258350D01*
X10807039Y-18244064D01*
X10792753Y-18215493D01*
X10792753Y-18201207D01*
X10807039Y-18172636D01*
X10821325Y-18158350D01*
X10849896Y-18144064D01*
X10907039Y-18144064D01*
X10935610Y-18158350D01*
X10949896Y-18172636D01*
X10964182Y-18201207D01*
X10964182Y-18215493D01*
X10949896Y-18244064D01*
X10935610Y-18258350D01*
X10907039Y-18272636D01*
X10849896Y-18272636D01*
X10821325Y-18286921D01*
X10807039Y-18301207D01*
X10792753Y-18329779D01*
X10792753Y-18386921D01*
X10807039Y-18415493D01*
X10821325Y-18429779D01*
X10849896Y-18444064D01*
X10907039Y-18444064D01*
X10935610Y-18429779D01*
X10949896Y-18415493D01*
X10964182Y-18386921D01*
X10964182Y-18329779D01*
X10949896Y-18301207D01*
X10935610Y-18286921D01*
X10907039Y-18272636D01*
X11321325Y-18444064D02*
X11321325Y-18144064D01*
X11449896Y-18444064D02*
X11449896Y-18286921D01*
X11435610Y-18258350D01*
X11407039Y-18244064D01*
X11364182Y-18244064D01*
X11335610Y-18258350D01*
X11321325Y-18272636D01*
X11635610Y-18444064D02*
X11607039Y-18429779D01*
X11592753Y-18415493D01*
X11578468Y-18386921D01*
X11578468Y-18301207D01*
X11592753Y-18272636D01*
X11607039Y-18258350D01*
X11635610Y-18244064D01*
X11678468Y-18244064D01*
X11707039Y-18258350D01*
X11721325Y-18272636D01*
X11735610Y-18301207D01*
X11735610Y-18386921D01*
X11721325Y-18415493D01*
X11707039Y-18429779D01*
X11678468Y-18444064D01*
X11635610Y-18444064D01*
X11907039Y-18444064D02*
X11878468Y-18429779D01*
X11864182Y-18401207D01*
X11864182Y-18144064D01*
X12135610Y-18429779D02*
X12107039Y-18444064D01*
X12049896Y-18444064D01*
X12021325Y-18429779D01*
X12007039Y-18401207D01*
X12007039Y-18286921D01*
X12021325Y-18258350D01*
X12049896Y-18244064D01*
X12107039Y-18244064D01*
X12135610Y-18258350D01*
X12149896Y-18286921D01*
X12149896Y-18315493D01*
X12007039Y-18344064D01*
X12264182Y-18429779D02*
X12292753Y-18444064D01*
X12349896Y-18444064D01*
X12378468Y-18429779D01*
X12392753Y-18401207D01*
X12392753Y-18386921D01*
X12378468Y-18358350D01*
X12349896Y-18344064D01*
X12307039Y-18344064D01*
X12278468Y-18329779D01*
X12264182Y-18301207D01*
X12264182Y-18286921D01*
X12278468Y-18258350D01*
X12307039Y-18244064D01*
X12349896Y-18244064D01*
X12378468Y-18258350D01*
X12492753Y-18558350D02*
X12507039Y-18544064D01*
X12535610Y-18501207D01*
X12549896Y-18472636D01*
X12564182Y-18429779D01*
X12578468Y-18358350D01*
X12578468Y-18301207D01*
X12564182Y-18229779D01*
X12549896Y-18186921D01*
X12535610Y-18158350D01*
X12507039Y-18115493D01*
X12492753Y-18101207D01*
X5388896Y-18750350D02*
X5434896Y-18704350D01*
X5388896Y-18658350D01*
X5342896Y-18704350D01*
X5388896Y-18750350D01*
X5778468Y-18540064D02*
X5807039Y-18540064D01*
X5835610Y-18554350D01*
X5849896Y-18568636D01*
X5864182Y-18597207D01*
X5878468Y-18654350D01*
X5878468Y-18725779D01*
X5864182Y-18782921D01*
X5849896Y-18811493D01*
X5835610Y-18825779D01*
X5807039Y-18840064D01*
X5778468Y-18840064D01*
X5749896Y-18825779D01*
X5735610Y-18811493D01*
X5721325Y-18782921D01*
X5707039Y-18725779D01*
X5707039Y-18654350D01*
X5721325Y-18597207D01*
X5735610Y-18568636D01*
X5749896Y-18554350D01*
X5778468Y-18540064D01*
X6007039Y-18811493D02*
X6021325Y-18825779D01*
X6007039Y-18840064D01*
X5992753Y-18825779D01*
X6007039Y-18811493D01*
X6007039Y-18840064D01*
X6164182Y-18840064D02*
X6221325Y-18840064D01*
X6249896Y-18825779D01*
X6264182Y-18811493D01*
X6292753Y-18768636D01*
X6307039Y-18711493D01*
X6307039Y-18597207D01*
X6292753Y-18568636D01*
X6278468Y-18554350D01*
X6249896Y-18540064D01*
X6192753Y-18540064D01*
X6164182Y-18554350D01*
X6149896Y-18568636D01*
X6135610Y-18597207D01*
X6135610Y-18668636D01*
X6149896Y-18697207D01*
X6164182Y-18711493D01*
X6192753Y-18725779D01*
X6249896Y-18725779D01*
X6278468Y-18711493D01*
X6292753Y-18697207D01*
X6307039Y-18668636D01*
X6421325Y-18568636D02*
X6435610Y-18554350D01*
X6464182Y-18540064D01*
X6535610Y-18540064D01*
X6564182Y-18554350D01*
X6578468Y-18568636D01*
X6592753Y-18597207D01*
X6592753Y-18625779D01*
X6578468Y-18668636D01*
X6407039Y-18840064D01*
X6592753Y-18840064D01*
X6778468Y-18540064D02*
X6807039Y-18540064D01*
X6835610Y-18554350D01*
X6849896Y-18568636D01*
X6864182Y-18597207D01*
X6878468Y-18654350D01*
X6878468Y-18725779D01*
X6864182Y-18782921D01*
X6849896Y-18811493D01*
X6835610Y-18825779D01*
X6807039Y-18840064D01*
X6778468Y-18840064D01*
X6749896Y-18825779D01*
X6735610Y-18811493D01*
X6721325Y-18782921D01*
X6707039Y-18725779D01*
X6707039Y-18654350D01*
X6721325Y-18597207D01*
X6735610Y-18568636D01*
X6749896Y-18554350D01*
X6778468Y-18540064D01*
X7007039Y-18840064D02*
X7007039Y-18640064D01*
X7007039Y-18668636D02*
X7021325Y-18654350D01*
X7049896Y-18640064D01*
X7092753Y-18640064D01*
X7121325Y-18654350D01*
X7135610Y-18682921D01*
X7135610Y-18840064D01*
X7135610Y-18682921D02*
X7149896Y-18654350D01*
X7178468Y-18640064D01*
X7221325Y-18640064D01*
X7249896Y-18654350D01*
X7264182Y-18682921D01*
X7264182Y-18840064D01*
X7407039Y-18840064D02*
X7407039Y-18640064D01*
X7407039Y-18668636D02*
X7421325Y-18654350D01*
X7449896Y-18640064D01*
X7492753Y-18640064D01*
X7521325Y-18654350D01*
X7535610Y-18682921D01*
X7535610Y-18840064D01*
X7535610Y-18682921D02*
X7549896Y-18654350D01*
X7578468Y-18640064D01*
X7621325Y-18640064D01*
X7649896Y-18654350D01*
X7664182Y-18682921D01*
X7664182Y-18840064D01*
X8249896Y-18525779D02*
X7992753Y-18911493D01*
X8635610Y-18540064D02*
X8664182Y-18540064D01*
X8692753Y-18554350D01*
X8707039Y-18568636D01*
X8721325Y-18597207D01*
X8735610Y-18654350D01*
X8735610Y-18725779D01*
X8721325Y-18782921D01*
X8707039Y-18811493D01*
X8692753Y-18825779D01*
X8664182Y-18840064D01*
X8635610Y-18840064D01*
X8607039Y-18825779D01*
X8592753Y-18811493D01*
X8578468Y-18782921D01*
X8564182Y-18725779D01*
X8564182Y-18654350D01*
X8578468Y-18597207D01*
X8592753Y-18568636D01*
X8607039Y-18554350D01*
X8635610Y-18540064D01*
X8864182Y-18811493D02*
X8878468Y-18825779D01*
X8864182Y-18840064D01*
X8849896Y-18825779D01*
X8864182Y-18811493D01*
X8864182Y-18840064D01*
X9064182Y-18540064D02*
X9092753Y-18540064D01*
X9121325Y-18554350D01*
X9135610Y-18568636D01*
X9149896Y-18597207D01*
X9164182Y-18654350D01*
X9164182Y-18725779D01*
X9149896Y-18782921D01*
X9135610Y-18811493D01*
X9121325Y-18825779D01*
X9092753Y-18840064D01*
X9064182Y-18840064D01*
X9035610Y-18825779D01*
X9021325Y-18811493D01*
X9007039Y-18782921D01*
X8992753Y-18725779D01*
X8992753Y-18654350D01*
X9007039Y-18597207D01*
X9021325Y-18568636D01*
X9035610Y-18554350D01*
X9064182Y-18540064D01*
X9264182Y-18540064D02*
X9449896Y-18540064D01*
X9349896Y-18654350D01*
X9392753Y-18654350D01*
X9421325Y-18668636D01*
X9435610Y-18682921D01*
X9449896Y-18711493D01*
X9449896Y-18782921D01*
X9435610Y-18811493D01*
X9421325Y-18825779D01*
X9392753Y-18840064D01*
X9307039Y-18840064D01*
X9278468Y-18825779D01*
X9264182Y-18811493D01*
X9707039Y-18540064D02*
X9649896Y-18540064D01*
X9621325Y-18554350D01*
X9607039Y-18568636D01*
X9578468Y-18611493D01*
X9564182Y-18668636D01*
X9564182Y-18782921D01*
X9578468Y-18811493D01*
X9592753Y-18825779D01*
X9621325Y-18840064D01*
X9678468Y-18840064D01*
X9707039Y-18825779D01*
X9721325Y-18811493D01*
X9735610Y-18782921D01*
X9735610Y-18711493D01*
X9721325Y-18682921D01*
X9707039Y-18668636D01*
X9678468Y-18654350D01*
X9621325Y-18654350D01*
X9592753Y-18668636D01*
X9578468Y-18682921D01*
X9564182Y-18711493D01*
X9849896Y-18568636D02*
X9864182Y-18554350D01*
X9892753Y-18540064D01*
X9964182Y-18540064D01*
X9992753Y-18554350D01*
X10007039Y-18568636D01*
X10021325Y-18597207D01*
X10021325Y-18625779D01*
X10007039Y-18668636D01*
X9835610Y-18840064D01*
X10021325Y-18840064D01*
X10135610Y-18540064D02*
X10135610Y-18597207D01*
X10249896Y-18540064D02*
X10249896Y-18597207D01*
X10692753Y-18954350D02*
X10678468Y-18940064D01*
X10649896Y-18897207D01*
X10635610Y-18868636D01*
X10621325Y-18825779D01*
X10607039Y-18754350D01*
X10607039Y-18697207D01*
X10621325Y-18625779D01*
X10635610Y-18582921D01*
X10649896Y-18554350D01*
X10678468Y-18511493D01*
X10692753Y-18497207D01*
X10935610Y-18640064D02*
X10935610Y-18840064D01*
X10864182Y-18525779D02*
X10792753Y-18740064D01*
X10978468Y-18740064D01*
X11321325Y-18840064D02*
X11321325Y-18540064D01*
X11449896Y-18840064D02*
X11449896Y-18682921D01*
X11435610Y-18654350D01*
X11407039Y-18640064D01*
X11364182Y-18640064D01*
X11335610Y-18654350D01*
X11321325Y-18668636D01*
X11635610Y-18840064D02*
X11607039Y-18825779D01*
X11592753Y-18811493D01*
X11578468Y-18782921D01*
X11578468Y-18697207D01*
X11592753Y-18668636D01*
X11607039Y-18654350D01*
X11635610Y-18640064D01*
X11678468Y-18640064D01*
X11707039Y-18654350D01*
X11721325Y-18668636D01*
X11735610Y-18697207D01*
X11735610Y-18782921D01*
X11721325Y-18811493D01*
X11707039Y-18825779D01*
X11678468Y-18840064D01*
X11635610Y-18840064D01*
X11907039Y-18840064D02*
X11878468Y-18825779D01*
X11864182Y-18797207D01*
X11864182Y-18540064D01*
X12135610Y-18825779D02*
X12107039Y-18840064D01*
X12049896Y-18840064D01*
X12021325Y-18825779D01*
X12007039Y-18797207D01*
X12007039Y-18682921D01*
X12021325Y-18654350D01*
X12049896Y-18640064D01*
X12107039Y-18640064D01*
X12135610Y-18654350D01*
X12149896Y-18682921D01*
X12149896Y-18711493D01*
X12007039Y-18740064D01*
X12264182Y-18825779D02*
X12292753Y-18840064D01*
X12349896Y-18840064D01*
X12378468Y-18825779D01*
X12392753Y-18797207D01*
X12392753Y-18782921D01*
X12378468Y-18754350D01*
X12349896Y-18740064D01*
X12307039Y-18740064D01*
X12278468Y-18725779D01*
X12264182Y-18697207D01*
X12264182Y-18682921D01*
X12278468Y-18654350D01*
X12307039Y-18640064D01*
X12349896Y-18640064D01*
X12378468Y-18654350D01*
X12492753Y-18954350D02*
X12507039Y-18940064D01*
X12535610Y-18897207D01*
X12549896Y-18868636D01*
X12564182Y-18825779D01*
X12578468Y-18754350D01*
X12578468Y-18697207D01*
X12564182Y-18625779D01*
X12549896Y-18582921D01*
X12535610Y-18554350D01*
X12507039Y-18511493D01*
X12492753Y-18497207D01*
X5334896Y-19050350D02*
X5434896Y-19150350D01*
X5434896Y-19050350D02*
X5334896Y-19150350D01*
X5434896Y-19100350D02*
G75*
G03*
X5434896Y-19100350I-50000J0D01*
G01*
X5878468Y-19236064D02*
X5707039Y-19236064D01*
X5792753Y-19236064D02*
X5792753Y-18936064D01*
X5764182Y-18978921D01*
X5735610Y-19007493D01*
X5707039Y-19021779D01*
X6007039Y-19207493D02*
X6021325Y-19221779D01*
X6007039Y-19236064D01*
X5992753Y-19221779D01*
X6007039Y-19207493D01*
X6007039Y-19236064D01*
X6207039Y-18936064D02*
X6235610Y-18936064D01*
X6264182Y-18950350D01*
X6278468Y-18964636D01*
X6292753Y-18993207D01*
X6307039Y-19050350D01*
X6307039Y-19121779D01*
X6292753Y-19178921D01*
X6278468Y-19207493D01*
X6264182Y-19221779D01*
X6235610Y-19236064D01*
X6207039Y-19236064D01*
X6178468Y-19221779D01*
X6164182Y-19207493D01*
X6149896Y-19178921D01*
X6135610Y-19121779D01*
X6135610Y-19050350D01*
X6149896Y-18993207D01*
X6164182Y-18964636D01*
X6178468Y-18950350D01*
X6207039Y-18936064D01*
X6492753Y-18936064D02*
X6521325Y-18936064D01*
X6549896Y-18950350D01*
X6564182Y-18964636D01*
X6578468Y-18993207D01*
X6592753Y-19050350D01*
X6592753Y-19121779D01*
X6578468Y-19178921D01*
X6564182Y-19207493D01*
X6549896Y-19221779D01*
X6521325Y-19236064D01*
X6492753Y-19236064D01*
X6464182Y-19221779D01*
X6449896Y-19207493D01*
X6435610Y-19178921D01*
X6421325Y-19121779D01*
X6421325Y-19050350D01*
X6435610Y-18993207D01*
X6449896Y-18964636D01*
X6464182Y-18950350D01*
X6492753Y-18936064D01*
X6778468Y-18936064D02*
X6807039Y-18936064D01*
X6835610Y-18950350D01*
X6849896Y-18964636D01*
X6864182Y-18993207D01*
X6878468Y-19050350D01*
X6878468Y-19121779D01*
X6864182Y-19178921D01*
X6849896Y-19207493D01*
X6835610Y-19221779D01*
X6807039Y-19236064D01*
X6778468Y-19236064D01*
X6749896Y-19221779D01*
X6735610Y-19207493D01*
X6721325Y-19178921D01*
X6707039Y-19121779D01*
X6707039Y-19050350D01*
X6721325Y-18993207D01*
X6735610Y-18964636D01*
X6749896Y-18950350D01*
X6778468Y-18936064D01*
X7007039Y-19236064D02*
X7007039Y-19036064D01*
X7007039Y-19064636D02*
X7021325Y-19050350D01*
X7049896Y-19036064D01*
X7092753Y-19036064D01*
X7121325Y-19050350D01*
X7135610Y-19078921D01*
X7135610Y-19236064D01*
X7135610Y-19078921D02*
X7149896Y-19050350D01*
X7178468Y-19036064D01*
X7221325Y-19036064D01*
X7249896Y-19050350D01*
X7264182Y-19078921D01*
X7264182Y-19236064D01*
X7407039Y-19236064D02*
X7407039Y-19036064D01*
X7407039Y-19064636D02*
X7421325Y-19050350D01*
X7449896Y-19036064D01*
X7492753Y-19036064D01*
X7521325Y-19050350D01*
X7535610Y-19078921D01*
X7535610Y-19236064D01*
X7535610Y-19078921D02*
X7549896Y-19050350D01*
X7578468Y-19036064D01*
X7621325Y-19036064D01*
X7649896Y-19050350D01*
X7664182Y-19078921D01*
X7664182Y-19236064D01*
X8249896Y-18921779D02*
X7992753Y-19307493D01*
X8635610Y-18936064D02*
X8664182Y-18936064D01*
X8692753Y-18950350D01*
X8707039Y-18964636D01*
X8721325Y-18993207D01*
X8735610Y-19050350D01*
X8735610Y-19121779D01*
X8721325Y-19178921D01*
X8707039Y-19207493D01*
X8692753Y-19221779D01*
X8664182Y-19236064D01*
X8635610Y-19236064D01*
X8607039Y-19221779D01*
X8592753Y-19207493D01*
X8578468Y-19178921D01*
X8564182Y-19121779D01*
X8564182Y-19050350D01*
X8578468Y-18993207D01*
X8592753Y-18964636D01*
X8607039Y-18950350D01*
X8635610Y-18936064D01*
X8864182Y-19207493D02*
X8878468Y-19221779D01*
X8864182Y-19236064D01*
X8849896Y-19221779D01*
X8864182Y-19207493D01*
X8864182Y-19236064D01*
X9064182Y-18936064D02*
X9092753Y-18936064D01*
X9121325Y-18950350D01*
X9135610Y-18964636D01*
X9149896Y-18993207D01*
X9164182Y-19050350D01*
X9164182Y-19121779D01*
X9149896Y-19178921D01*
X9135610Y-19207493D01*
X9121325Y-19221779D01*
X9092753Y-19236064D01*
X9064182Y-19236064D01*
X9035610Y-19221779D01*
X9021325Y-19207493D01*
X9007039Y-19178921D01*
X8992753Y-19121779D01*
X8992753Y-19050350D01*
X9007039Y-18993207D01*
X9021325Y-18964636D01*
X9035610Y-18950350D01*
X9064182Y-18936064D01*
X9264182Y-18936064D02*
X9449896Y-18936064D01*
X9349896Y-19050350D01*
X9392753Y-19050350D01*
X9421325Y-19064636D01*
X9435610Y-19078921D01*
X9449896Y-19107493D01*
X9449896Y-19178921D01*
X9435610Y-19207493D01*
X9421325Y-19221779D01*
X9392753Y-19236064D01*
X9307039Y-19236064D01*
X9278468Y-19221779D01*
X9264182Y-19207493D01*
X9592753Y-19236064D02*
X9649896Y-19236064D01*
X9678468Y-19221779D01*
X9692753Y-19207493D01*
X9721325Y-19164636D01*
X9735610Y-19107493D01*
X9735610Y-18993207D01*
X9721325Y-18964636D01*
X9707039Y-18950350D01*
X9678468Y-18936064D01*
X9621325Y-18936064D01*
X9592753Y-18950350D01*
X9578468Y-18964636D01*
X9564182Y-18993207D01*
X9564182Y-19064636D01*
X9578468Y-19093207D01*
X9592753Y-19107493D01*
X9621325Y-19121779D01*
X9678468Y-19121779D01*
X9707039Y-19107493D01*
X9721325Y-19093207D01*
X9735610Y-19064636D01*
X9992753Y-19036064D02*
X9992753Y-19236064D01*
X9921325Y-18921779D02*
X9849896Y-19136064D01*
X10035610Y-19136064D01*
X10135610Y-18936064D02*
X10135610Y-18993207D01*
X10249896Y-18936064D02*
X10249896Y-18993207D01*
X10692753Y-19350350D02*
X10678468Y-19336064D01*
X10649896Y-19293207D01*
X10635610Y-19264636D01*
X10621325Y-19221779D01*
X10607039Y-19150350D01*
X10607039Y-19093207D01*
X10621325Y-19021779D01*
X10635610Y-18978921D01*
X10649896Y-18950350D01*
X10678468Y-18907493D01*
X10692753Y-18893207D01*
X10792753Y-18964636D02*
X10807039Y-18950350D01*
X10835610Y-18936064D01*
X10907039Y-18936064D01*
X10935610Y-18950350D01*
X10949896Y-18964636D01*
X10964182Y-18993207D01*
X10964182Y-19021779D01*
X10949896Y-19064636D01*
X10778468Y-19236064D01*
X10964182Y-19236064D01*
X11149896Y-18936064D02*
X11178468Y-18936064D01*
X11207039Y-18950350D01*
X11221325Y-18964636D01*
X11235610Y-18993207D01*
X11249896Y-19050350D01*
X11249896Y-19121779D01*
X11235610Y-19178921D01*
X11221325Y-19207493D01*
X11207039Y-19221779D01*
X11178468Y-19236064D01*
X11149896Y-19236064D01*
X11121325Y-19221779D01*
X11107039Y-19207493D01*
X11092753Y-19178921D01*
X11078468Y-19121779D01*
X11078468Y-19050350D01*
X11092753Y-18993207D01*
X11107039Y-18964636D01*
X11121325Y-18950350D01*
X11149896Y-18936064D01*
X11607039Y-19236064D02*
X11607039Y-18936064D01*
X11735610Y-19236064D02*
X11735610Y-19078921D01*
X11721325Y-19050350D01*
X11692753Y-19036064D01*
X11649896Y-19036064D01*
X11621325Y-19050350D01*
X11607039Y-19064636D01*
X11921325Y-19236064D02*
X11892753Y-19221779D01*
X11878468Y-19207493D01*
X11864182Y-19178921D01*
X11864182Y-19093207D01*
X11878468Y-19064636D01*
X11892753Y-19050350D01*
X11921325Y-19036064D01*
X11964182Y-19036064D01*
X11992753Y-19050350D01*
X12007039Y-19064636D01*
X12021325Y-19093207D01*
X12021325Y-19178921D01*
X12007039Y-19207493D01*
X11992753Y-19221779D01*
X11964182Y-19236064D01*
X11921325Y-19236064D01*
X12192753Y-19236064D02*
X12164182Y-19221779D01*
X12149896Y-19193207D01*
X12149896Y-18936064D01*
X12421325Y-19221779D02*
X12392753Y-19236064D01*
X12335610Y-19236064D01*
X12307039Y-19221779D01*
X12292753Y-19193207D01*
X12292753Y-19078921D01*
X12307039Y-19050350D01*
X12335610Y-19036064D01*
X12392753Y-19036064D01*
X12421325Y-19050350D01*
X12435610Y-19078921D01*
X12435610Y-19107493D01*
X12292753Y-19136064D01*
X12549896Y-19221779D02*
X12578468Y-19236064D01*
X12635610Y-19236064D01*
X12664182Y-19221779D01*
X12678468Y-19193207D01*
X12678468Y-19178921D01*
X12664182Y-19150350D01*
X12635610Y-19136064D01*
X12592753Y-19136064D01*
X12564182Y-19121779D01*
X12549896Y-19093207D01*
X12549896Y-19078921D01*
X12564182Y-19050350D01*
X12592753Y-19036064D01*
X12635610Y-19036064D01*
X12664182Y-19050350D01*
X12778468Y-19350350D02*
X12792753Y-19336064D01*
X12821325Y-19293207D01*
X12835610Y-19264636D01*
X12849896Y-19221779D01*
X12864182Y-19150350D01*
X12864182Y-19093207D01*
X12849896Y-19021779D01*
X12835610Y-18978921D01*
X12821325Y-18950350D01*
X12792753Y-18907493D01*
X12778468Y-18893207D01*
X5332896Y-19445350D02*
X5434896Y-19547350D01*
X5434896Y-19445350D02*
X5332896Y-19547350D01*
X5383896Y-19445350D02*
X5383896Y-19547350D01*
X5332896Y-19496350D02*
X5434896Y-19496350D01*
X5878468Y-19632064D02*
X5707039Y-19632064D01*
X5792753Y-19632064D02*
X5792753Y-19332064D01*
X5764182Y-19374921D01*
X5735610Y-19403493D01*
X5707039Y-19417779D01*
X6007039Y-19603493D02*
X6021325Y-19617779D01*
X6007039Y-19632064D01*
X5992753Y-19617779D01*
X6007039Y-19603493D01*
X6007039Y-19632064D01*
X6207039Y-19332064D02*
X6235610Y-19332064D01*
X6264182Y-19346350D01*
X6278468Y-19360636D01*
X6292753Y-19389207D01*
X6307039Y-19446350D01*
X6307039Y-19517779D01*
X6292753Y-19574921D01*
X6278468Y-19603493D01*
X6264182Y-19617779D01*
X6235610Y-19632064D01*
X6207039Y-19632064D01*
X6178468Y-19617779D01*
X6164182Y-19603493D01*
X6149896Y-19574921D01*
X6135610Y-19517779D01*
X6135610Y-19446350D01*
X6149896Y-19389207D01*
X6164182Y-19360636D01*
X6178468Y-19346350D01*
X6207039Y-19332064D01*
X6421325Y-19360636D02*
X6435610Y-19346350D01*
X6464182Y-19332064D01*
X6535610Y-19332064D01*
X6564182Y-19346350D01*
X6578468Y-19360636D01*
X6592753Y-19389207D01*
X6592753Y-19417779D01*
X6578468Y-19460636D01*
X6407039Y-19632064D01*
X6592753Y-19632064D01*
X6778468Y-19332064D02*
X6807039Y-19332064D01*
X6835610Y-19346350D01*
X6849896Y-19360636D01*
X6864182Y-19389207D01*
X6878468Y-19446350D01*
X6878468Y-19517779D01*
X6864182Y-19574921D01*
X6849896Y-19603493D01*
X6835610Y-19617779D01*
X6807039Y-19632064D01*
X6778468Y-19632064D01*
X6749896Y-19617779D01*
X6735610Y-19603493D01*
X6721325Y-19574921D01*
X6707039Y-19517779D01*
X6707039Y-19446350D01*
X6721325Y-19389207D01*
X6735610Y-19360636D01*
X6749896Y-19346350D01*
X6778468Y-19332064D01*
X7007039Y-19632064D02*
X7007039Y-19432064D01*
X7007039Y-19460636D02*
X7021325Y-19446350D01*
X7049896Y-19432064D01*
X7092753Y-19432064D01*
X7121325Y-19446350D01*
X7135610Y-19474921D01*
X7135610Y-19632064D01*
X7135610Y-19474921D02*
X7149896Y-19446350D01*
X7178468Y-19432064D01*
X7221325Y-19432064D01*
X7249896Y-19446350D01*
X7264182Y-19474921D01*
X7264182Y-19632064D01*
X7407039Y-19632064D02*
X7407039Y-19432064D01*
X7407039Y-19460636D02*
X7421325Y-19446350D01*
X7449896Y-19432064D01*
X7492753Y-19432064D01*
X7521325Y-19446350D01*
X7535610Y-19474921D01*
X7535610Y-19632064D01*
X7535610Y-19474921D02*
X7549896Y-19446350D01*
X7578468Y-19432064D01*
X7621325Y-19432064D01*
X7649896Y-19446350D01*
X7664182Y-19474921D01*
X7664182Y-19632064D01*
X8249896Y-19317779D02*
X7992753Y-19703493D01*
X8635610Y-19332064D02*
X8664182Y-19332064D01*
X8692753Y-19346350D01*
X8707039Y-19360636D01*
X8721325Y-19389207D01*
X8735610Y-19446350D01*
X8735610Y-19517779D01*
X8721325Y-19574921D01*
X8707039Y-19603493D01*
X8692753Y-19617779D01*
X8664182Y-19632064D01*
X8635610Y-19632064D01*
X8607039Y-19617779D01*
X8592753Y-19603493D01*
X8578468Y-19574921D01*
X8564182Y-19517779D01*
X8564182Y-19446350D01*
X8578468Y-19389207D01*
X8592753Y-19360636D01*
X8607039Y-19346350D01*
X8635610Y-19332064D01*
X8864182Y-19603493D02*
X8878468Y-19617779D01*
X8864182Y-19632064D01*
X8849896Y-19617779D01*
X8864182Y-19603493D01*
X8864182Y-19632064D01*
X9064182Y-19332064D02*
X9092753Y-19332064D01*
X9121325Y-19346350D01*
X9135610Y-19360636D01*
X9149896Y-19389207D01*
X9164182Y-19446350D01*
X9164182Y-19517779D01*
X9149896Y-19574921D01*
X9135610Y-19603493D01*
X9121325Y-19617779D01*
X9092753Y-19632064D01*
X9064182Y-19632064D01*
X9035610Y-19617779D01*
X9021325Y-19603493D01*
X9007039Y-19574921D01*
X8992753Y-19517779D01*
X8992753Y-19446350D01*
X9007039Y-19389207D01*
X9021325Y-19360636D01*
X9035610Y-19346350D01*
X9064182Y-19332064D01*
X9421325Y-19432064D02*
X9421325Y-19632064D01*
X9349896Y-19317779D02*
X9278468Y-19532064D01*
X9464182Y-19532064D01*
X9635610Y-19332064D02*
X9664182Y-19332064D01*
X9692753Y-19346350D01*
X9707039Y-19360636D01*
X9721325Y-19389207D01*
X9735610Y-19446350D01*
X9735610Y-19517779D01*
X9721325Y-19574921D01*
X9707039Y-19603493D01*
X9692753Y-19617779D01*
X9664182Y-19632064D01*
X9635610Y-19632064D01*
X9607039Y-19617779D01*
X9592753Y-19603493D01*
X9578468Y-19574921D01*
X9564182Y-19517779D01*
X9564182Y-19446350D01*
X9578468Y-19389207D01*
X9592753Y-19360636D01*
X9607039Y-19346350D01*
X9635610Y-19332064D01*
X9849896Y-19360636D02*
X9864182Y-19346350D01*
X9892753Y-19332064D01*
X9964182Y-19332064D01*
X9992753Y-19346350D01*
X10007039Y-19360636D01*
X10021325Y-19389207D01*
X10021325Y-19417779D01*
X10007039Y-19460636D01*
X9835610Y-19632064D01*
X10021325Y-19632064D01*
X10135610Y-19332064D02*
X10135610Y-19389207D01*
X10249896Y-19332064D02*
X10249896Y-19389207D01*
X10692753Y-19746350D02*
X10678468Y-19732064D01*
X10649896Y-19689207D01*
X10635610Y-19660636D01*
X10621325Y-19617779D01*
X10607039Y-19546350D01*
X10607039Y-19489207D01*
X10621325Y-19417779D01*
X10635610Y-19374921D01*
X10649896Y-19346350D01*
X10678468Y-19303493D01*
X10692753Y-19289207D01*
X10935610Y-19432064D02*
X10935610Y-19632064D01*
X10864182Y-19317779D02*
X10792753Y-19532064D01*
X10978468Y-19532064D01*
X11064182Y-19332064D02*
X11249896Y-19332064D01*
X11149896Y-19446350D01*
X11192753Y-19446350D01*
X11221325Y-19460636D01*
X11235610Y-19474921D01*
X11249896Y-19503493D01*
X11249896Y-19574921D01*
X11235610Y-19603493D01*
X11221325Y-19617779D01*
X11192753Y-19632064D01*
X11107039Y-19632064D01*
X11078468Y-19617779D01*
X11064182Y-19603493D01*
X11607039Y-19632064D02*
X11607039Y-19332064D01*
X11735610Y-19632064D02*
X11735610Y-19474921D01*
X11721325Y-19446350D01*
X11692753Y-19432064D01*
X11649896Y-19432064D01*
X11621325Y-19446350D01*
X11607039Y-19460636D01*
X11921325Y-19632064D02*
X11892753Y-19617779D01*
X11878468Y-19603493D01*
X11864182Y-19574921D01*
X11864182Y-19489207D01*
X11878468Y-19460636D01*
X11892753Y-19446350D01*
X11921325Y-19432064D01*
X11964182Y-19432064D01*
X11992753Y-19446350D01*
X12007039Y-19460636D01*
X12021325Y-19489207D01*
X12021325Y-19574921D01*
X12007039Y-19603493D01*
X11992753Y-19617779D01*
X11964182Y-19632064D01*
X11921325Y-19632064D01*
X12192753Y-19632064D02*
X12164182Y-19617779D01*
X12149896Y-19589207D01*
X12149896Y-19332064D01*
X12421325Y-19617779D02*
X12392753Y-19632064D01*
X12335610Y-19632064D01*
X12307039Y-19617779D01*
X12292753Y-19589207D01*
X12292753Y-19474921D01*
X12307039Y-19446350D01*
X12335610Y-19432064D01*
X12392753Y-19432064D01*
X12421325Y-19446350D01*
X12435610Y-19474921D01*
X12435610Y-19503493D01*
X12292753Y-19532064D01*
X12549896Y-19617779D02*
X12578468Y-19632064D01*
X12635610Y-19632064D01*
X12664182Y-19617779D01*
X12678468Y-19589207D01*
X12678468Y-19574921D01*
X12664182Y-19546350D01*
X12635610Y-19532064D01*
X12592753Y-19532064D01*
X12564182Y-19517779D01*
X12549896Y-19489207D01*
X12549896Y-19474921D01*
X12564182Y-19446350D01*
X12592753Y-19432064D01*
X12635610Y-19432064D01*
X12664182Y-19446350D01*
X12778468Y-19746350D02*
X12792753Y-19732064D01*
X12821325Y-19689207D01*
X12835610Y-19660636D01*
X12849896Y-19617779D01*
X12864182Y-19546350D01*
X12864182Y-19489207D01*
X12849896Y-19417779D01*
X12835610Y-19374921D01*
X12821325Y-19346350D01*
X12792753Y-19303493D01*
X12778468Y-19289207D01*
X5324896Y-19837350D02*
X5434896Y-19947350D01*
X5434896Y-19837350D02*
X5324896Y-19947350D01*
X5418787Y-19931241D02*
X5418787Y-19853459D01*
X5341005Y-19853459D01*
X5341005Y-19931241D01*
X5418787Y-19931241D01*
X5878468Y-20028064D02*
X5707039Y-20028064D01*
X5792753Y-20028064D02*
X5792753Y-19728064D01*
X5764182Y-19770921D01*
X5735610Y-19799493D01*
X5707039Y-19813779D01*
X6007039Y-19999493D02*
X6021325Y-20013779D01*
X6007039Y-20028064D01*
X5992753Y-20013779D01*
X6007039Y-19999493D01*
X6007039Y-20028064D01*
X6307039Y-20028064D02*
X6135610Y-20028064D01*
X6221325Y-20028064D02*
X6221325Y-19728064D01*
X6192753Y-19770921D01*
X6164182Y-19799493D01*
X6135610Y-19813779D01*
X6492753Y-19728064D02*
X6521325Y-19728064D01*
X6549896Y-19742350D01*
X6564182Y-19756636D01*
X6578468Y-19785207D01*
X6592753Y-19842350D01*
X6592753Y-19913779D01*
X6578468Y-19970921D01*
X6564182Y-19999493D01*
X6549896Y-20013779D01*
X6521325Y-20028064D01*
X6492753Y-20028064D01*
X6464182Y-20013779D01*
X6449896Y-19999493D01*
X6435610Y-19970921D01*
X6421325Y-19913779D01*
X6421325Y-19842350D01*
X6435610Y-19785207D01*
X6449896Y-19756636D01*
X6464182Y-19742350D01*
X6492753Y-19728064D01*
X6778468Y-19728064D02*
X6807039Y-19728064D01*
X6835610Y-19742350D01*
X6849896Y-19756636D01*
X6864182Y-19785207D01*
X6878468Y-19842350D01*
X6878468Y-19913779D01*
X6864182Y-19970921D01*
X6849896Y-19999493D01*
X6835610Y-20013779D01*
X6807039Y-20028064D01*
X6778468Y-20028064D01*
X6749896Y-20013779D01*
X6735610Y-19999493D01*
X6721325Y-19970921D01*
X6707039Y-19913779D01*
X6707039Y-19842350D01*
X6721325Y-19785207D01*
X6735610Y-19756636D01*
X6749896Y-19742350D01*
X6778468Y-19728064D01*
X7007039Y-20028064D02*
X7007039Y-19828064D01*
X7007039Y-19856636D02*
X7021325Y-19842350D01*
X7049896Y-19828064D01*
X7092753Y-19828064D01*
X7121325Y-19842350D01*
X7135610Y-19870921D01*
X7135610Y-20028064D01*
X7135610Y-19870921D02*
X7149896Y-19842350D01*
X7178468Y-19828064D01*
X7221325Y-19828064D01*
X7249896Y-19842350D01*
X7264182Y-19870921D01*
X7264182Y-20028064D01*
X7407039Y-20028064D02*
X7407039Y-19828064D01*
X7407039Y-19856636D02*
X7421325Y-19842350D01*
X7449896Y-19828064D01*
X7492753Y-19828064D01*
X7521325Y-19842350D01*
X7535610Y-19870921D01*
X7535610Y-20028064D01*
X7535610Y-19870921D02*
X7549896Y-19842350D01*
X7578468Y-19828064D01*
X7621325Y-19828064D01*
X7649896Y-19842350D01*
X7664182Y-19870921D01*
X7664182Y-20028064D01*
X8249896Y-19713779D02*
X7992753Y-20099493D01*
X8635610Y-19728064D02*
X8664182Y-19728064D01*
X8692753Y-19742350D01*
X8707039Y-19756636D01*
X8721325Y-19785207D01*
X8735610Y-19842350D01*
X8735610Y-19913779D01*
X8721325Y-19970921D01*
X8707039Y-19999493D01*
X8692753Y-20013779D01*
X8664182Y-20028064D01*
X8635610Y-20028064D01*
X8607039Y-20013779D01*
X8592753Y-19999493D01*
X8578468Y-19970921D01*
X8564182Y-19913779D01*
X8564182Y-19842350D01*
X8578468Y-19785207D01*
X8592753Y-19756636D01*
X8607039Y-19742350D01*
X8635610Y-19728064D01*
X8864182Y-19999493D02*
X8878468Y-20013779D01*
X8864182Y-20028064D01*
X8849896Y-20013779D01*
X8864182Y-19999493D01*
X8864182Y-20028064D01*
X9064182Y-19728064D02*
X9092753Y-19728064D01*
X9121325Y-19742350D01*
X9135610Y-19756636D01*
X9149896Y-19785207D01*
X9164182Y-19842350D01*
X9164182Y-19913779D01*
X9149896Y-19970921D01*
X9135610Y-19999493D01*
X9121325Y-20013779D01*
X9092753Y-20028064D01*
X9064182Y-20028064D01*
X9035610Y-20013779D01*
X9021325Y-19999493D01*
X9007039Y-19970921D01*
X8992753Y-19913779D01*
X8992753Y-19842350D01*
X9007039Y-19785207D01*
X9021325Y-19756636D01*
X9035610Y-19742350D01*
X9064182Y-19728064D01*
X9421325Y-19828064D02*
X9421325Y-20028064D01*
X9349896Y-19713779D02*
X9278468Y-19928064D01*
X9464182Y-19928064D01*
X9549896Y-19728064D02*
X9735610Y-19728064D01*
X9635610Y-19842350D01*
X9678468Y-19842350D01*
X9707039Y-19856636D01*
X9721325Y-19870921D01*
X9735610Y-19899493D01*
X9735610Y-19970921D01*
X9721325Y-19999493D01*
X9707039Y-20013779D01*
X9678468Y-20028064D01*
X9592753Y-20028064D01*
X9564182Y-20013779D01*
X9549896Y-19999493D01*
X9835610Y-19728064D02*
X10021325Y-19728064D01*
X9921325Y-19842350D01*
X9964182Y-19842350D01*
X9992753Y-19856636D01*
X10007039Y-19870921D01*
X10021325Y-19899493D01*
X10021325Y-19970921D01*
X10007039Y-19999493D01*
X9992753Y-20013779D01*
X9964182Y-20028064D01*
X9878468Y-20028064D01*
X9849896Y-20013779D01*
X9835610Y-19999493D01*
X10135610Y-19728064D02*
X10135610Y-19785207D01*
X10249896Y-19728064D02*
X10249896Y-19785207D01*
X10692753Y-20142350D02*
X10678468Y-20128064D01*
X10649896Y-20085207D01*
X10635610Y-20056636D01*
X10621325Y-20013779D01*
X10607039Y-19942350D01*
X10607039Y-19885207D01*
X10621325Y-19813779D01*
X10635610Y-19770921D01*
X10649896Y-19742350D01*
X10678468Y-19699493D01*
X10692753Y-19685207D01*
X10964182Y-20028064D02*
X10792753Y-20028064D01*
X10878468Y-20028064D02*
X10878468Y-19728064D01*
X10849896Y-19770921D01*
X10821325Y-19799493D01*
X10792753Y-19813779D01*
X11235610Y-19728064D02*
X11092753Y-19728064D01*
X11078468Y-19870921D01*
X11092753Y-19856636D01*
X11121325Y-19842350D01*
X11192753Y-19842350D01*
X11221325Y-19856636D01*
X11235610Y-19870921D01*
X11249896Y-19899493D01*
X11249896Y-19970921D01*
X11235610Y-19999493D01*
X11221325Y-20013779D01*
X11192753Y-20028064D01*
X11121325Y-20028064D01*
X11092753Y-20013779D01*
X11078468Y-19999493D01*
X11607039Y-20028064D02*
X11607039Y-19728064D01*
X11735610Y-20028064D02*
X11735610Y-19870921D01*
X11721325Y-19842350D01*
X11692753Y-19828064D01*
X11649896Y-19828064D01*
X11621325Y-19842350D01*
X11607039Y-19856636D01*
X11921325Y-20028064D02*
X11892753Y-20013779D01*
X11878468Y-19999493D01*
X11864182Y-19970921D01*
X11864182Y-19885207D01*
X11878468Y-19856636D01*
X11892753Y-19842350D01*
X11921325Y-19828064D01*
X11964182Y-19828064D01*
X11992753Y-19842350D01*
X12007039Y-19856636D01*
X12021325Y-19885207D01*
X12021325Y-19970921D01*
X12007039Y-19999493D01*
X11992753Y-20013779D01*
X11964182Y-20028064D01*
X11921325Y-20028064D01*
X12192753Y-20028064D02*
X12164182Y-20013779D01*
X12149896Y-19985207D01*
X12149896Y-19728064D01*
X12421325Y-20013779D02*
X12392753Y-20028064D01*
X12335610Y-20028064D01*
X12307039Y-20013779D01*
X12292753Y-19985207D01*
X12292753Y-19870921D01*
X12307039Y-19842350D01*
X12335610Y-19828064D01*
X12392753Y-19828064D01*
X12421325Y-19842350D01*
X12435610Y-19870921D01*
X12435610Y-19899493D01*
X12292753Y-19928064D01*
X12549896Y-20013779D02*
X12578468Y-20028064D01*
X12635610Y-20028064D01*
X12664182Y-20013779D01*
X12678468Y-19985207D01*
X12678468Y-19970921D01*
X12664182Y-19942350D01*
X12635610Y-19928064D01*
X12592753Y-19928064D01*
X12564182Y-19913779D01*
X12549896Y-19885207D01*
X12549896Y-19870921D01*
X12564182Y-19842350D01*
X12592753Y-19828064D01*
X12635610Y-19828064D01*
X12664182Y-19842350D01*
X12778468Y-20142350D02*
X12792753Y-20128064D01*
X12821325Y-20085207D01*
X12835610Y-20056636D01*
X12849896Y-20013779D01*
X12864182Y-19942350D01*
X12864182Y-19885207D01*
X12849896Y-19813779D01*
X12835610Y-19770921D01*
X12821325Y-19742350D01*
X12792753Y-19699493D01*
X12778468Y-19685207D01*
X5304896Y-20223350D02*
X5434896Y-20353350D01*
X5434896Y-20223350D02*
X5304896Y-20353350D01*
X5369896Y-20353350D02*
X5434896Y-20288350D01*
X5369896Y-20223350D01*
X5304896Y-20288350D01*
X5369896Y-20353350D01*
X5878468Y-20424064D02*
X5707039Y-20424064D01*
X5792753Y-20424064D02*
X5792753Y-20124064D01*
X5764182Y-20166921D01*
X5735610Y-20195493D01*
X5707039Y-20209779D01*
X6007039Y-20395493D02*
X6021325Y-20409779D01*
X6007039Y-20424064D01*
X5992753Y-20409779D01*
X6007039Y-20395493D01*
X6007039Y-20424064D01*
X6121325Y-20124064D02*
X6307039Y-20124064D01*
X6207039Y-20238350D01*
X6249896Y-20238350D01*
X6278468Y-20252636D01*
X6292753Y-20266921D01*
X6307039Y-20295493D01*
X6307039Y-20366921D01*
X6292753Y-20395493D01*
X6278468Y-20409779D01*
X6249896Y-20424064D01*
X6164182Y-20424064D01*
X6135610Y-20409779D01*
X6121325Y-20395493D01*
X6492753Y-20124064D02*
X6521325Y-20124064D01*
X6549896Y-20138350D01*
X6564182Y-20152636D01*
X6578468Y-20181207D01*
X6592753Y-20238350D01*
X6592753Y-20309779D01*
X6578468Y-20366921D01*
X6564182Y-20395493D01*
X6549896Y-20409779D01*
X6521325Y-20424064D01*
X6492753Y-20424064D01*
X6464182Y-20409779D01*
X6449896Y-20395493D01*
X6435610Y-20366921D01*
X6421325Y-20309779D01*
X6421325Y-20238350D01*
X6435610Y-20181207D01*
X6449896Y-20152636D01*
X6464182Y-20138350D01*
X6492753Y-20124064D01*
X6778468Y-20124064D02*
X6807039Y-20124064D01*
X6835610Y-20138350D01*
X6849896Y-20152636D01*
X6864182Y-20181207D01*
X6878468Y-20238350D01*
X6878468Y-20309779D01*
X6864182Y-20366921D01*
X6849896Y-20395493D01*
X6835610Y-20409779D01*
X6807039Y-20424064D01*
X6778468Y-20424064D01*
X6749896Y-20409779D01*
X6735610Y-20395493D01*
X6721325Y-20366921D01*
X6707039Y-20309779D01*
X6707039Y-20238350D01*
X6721325Y-20181207D01*
X6735610Y-20152636D01*
X6749896Y-20138350D01*
X6778468Y-20124064D01*
X7007039Y-20424064D02*
X7007039Y-20224064D01*
X7007039Y-20252636D02*
X7021325Y-20238350D01*
X7049896Y-20224064D01*
X7092753Y-20224064D01*
X7121325Y-20238350D01*
X7135610Y-20266921D01*
X7135610Y-20424064D01*
X7135610Y-20266921D02*
X7149896Y-20238350D01*
X7178468Y-20224064D01*
X7221325Y-20224064D01*
X7249896Y-20238350D01*
X7264182Y-20266921D01*
X7264182Y-20424064D01*
X7407039Y-20424064D02*
X7407039Y-20224064D01*
X7407039Y-20252636D02*
X7421325Y-20238350D01*
X7449896Y-20224064D01*
X7492753Y-20224064D01*
X7521325Y-20238350D01*
X7535610Y-20266921D01*
X7535610Y-20424064D01*
X7535610Y-20266921D02*
X7549896Y-20238350D01*
X7578468Y-20224064D01*
X7621325Y-20224064D01*
X7649896Y-20238350D01*
X7664182Y-20266921D01*
X7664182Y-20424064D01*
X8249896Y-20109779D02*
X7992753Y-20495493D01*
X8635610Y-20124064D02*
X8664182Y-20124064D01*
X8692753Y-20138350D01*
X8707039Y-20152636D01*
X8721325Y-20181207D01*
X8735610Y-20238350D01*
X8735610Y-20309779D01*
X8721325Y-20366921D01*
X8707039Y-20395493D01*
X8692753Y-20409779D01*
X8664182Y-20424064D01*
X8635610Y-20424064D01*
X8607039Y-20409779D01*
X8592753Y-20395493D01*
X8578468Y-20366921D01*
X8564182Y-20309779D01*
X8564182Y-20238350D01*
X8578468Y-20181207D01*
X8592753Y-20152636D01*
X8607039Y-20138350D01*
X8635610Y-20124064D01*
X8864182Y-20395493D02*
X8878468Y-20409779D01*
X8864182Y-20424064D01*
X8849896Y-20409779D01*
X8864182Y-20395493D01*
X8864182Y-20424064D01*
X9064182Y-20124064D02*
X9092753Y-20124064D01*
X9121325Y-20138350D01*
X9135610Y-20152636D01*
X9149896Y-20181207D01*
X9164182Y-20238350D01*
X9164182Y-20309779D01*
X9149896Y-20366921D01*
X9135610Y-20395493D01*
X9121325Y-20409779D01*
X9092753Y-20424064D01*
X9064182Y-20424064D01*
X9035610Y-20409779D01*
X9021325Y-20395493D01*
X9007039Y-20366921D01*
X8992753Y-20309779D01*
X8992753Y-20238350D01*
X9007039Y-20181207D01*
X9021325Y-20152636D01*
X9035610Y-20138350D01*
X9064182Y-20124064D01*
X9435610Y-20124064D02*
X9292753Y-20124064D01*
X9278468Y-20266921D01*
X9292753Y-20252636D01*
X9321325Y-20238350D01*
X9392753Y-20238350D01*
X9421325Y-20252636D01*
X9435610Y-20266921D01*
X9449896Y-20295493D01*
X9449896Y-20366921D01*
X9435610Y-20395493D01*
X9421325Y-20409779D01*
X9392753Y-20424064D01*
X9321325Y-20424064D01*
X9292753Y-20409779D01*
X9278468Y-20395493D01*
X9735610Y-20424064D02*
X9564182Y-20424064D01*
X9649896Y-20424064D02*
X9649896Y-20124064D01*
X9621325Y-20166921D01*
X9592753Y-20195493D01*
X9564182Y-20209779D01*
X9849896Y-20152636D02*
X9864182Y-20138350D01*
X9892753Y-20124064D01*
X9964182Y-20124064D01*
X9992753Y-20138350D01*
X10007039Y-20152636D01*
X10021325Y-20181207D01*
X10021325Y-20209779D01*
X10007039Y-20252636D01*
X9835610Y-20424064D01*
X10021325Y-20424064D01*
X10135610Y-20124064D02*
X10135610Y-20181207D01*
X10249896Y-20124064D02*
X10249896Y-20181207D01*
X10692753Y-20538350D02*
X10678468Y-20524064D01*
X10649896Y-20481207D01*
X10635610Y-20452636D01*
X10621325Y-20409779D01*
X10607039Y-20338350D01*
X10607039Y-20281207D01*
X10621325Y-20209779D01*
X10635610Y-20166921D01*
X10649896Y-20138350D01*
X10678468Y-20095493D01*
X10692753Y-20081207D01*
X10964182Y-20424064D02*
X10792753Y-20424064D01*
X10878468Y-20424064D02*
X10878468Y-20124064D01*
X10849896Y-20166921D01*
X10821325Y-20195493D01*
X10792753Y-20209779D01*
X11149896Y-20124064D02*
X11178468Y-20124064D01*
X11207039Y-20138350D01*
X11221325Y-20152636D01*
X11235610Y-20181207D01*
X11249896Y-20238350D01*
X11249896Y-20309779D01*
X11235610Y-20366921D01*
X11221325Y-20395493D01*
X11207039Y-20409779D01*
X11178468Y-20424064D01*
X11149896Y-20424064D01*
X11121325Y-20409779D01*
X11107039Y-20395493D01*
X11092753Y-20366921D01*
X11078468Y-20309779D01*
X11078468Y-20238350D01*
X11092753Y-20181207D01*
X11107039Y-20152636D01*
X11121325Y-20138350D01*
X11149896Y-20124064D01*
X11607039Y-20424064D02*
X11607039Y-20124064D01*
X11735610Y-20424064D02*
X11735610Y-20266921D01*
X11721325Y-20238350D01*
X11692753Y-20224064D01*
X11649896Y-20224064D01*
X11621325Y-20238350D01*
X11607039Y-20252636D01*
X11921325Y-20424064D02*
X11892753Y-20409779D01*
X11878468Y-20395493D01*
X11864182Y-20366921D01*
X11864182Y-20281207D01*
X11878468Y-20252636D01*
X11892753Y-20238350D01*
X11921325Y-20224064D01*
X11964182Y-20224064D01*
X11992753Y-20238350D01*
X12007039Y-20252636D01*
X12021325Y-20281207D01*
X12021325Y-20366921D01*
X12007039Y-20395493D01*
X11992753Y-20409779D01*
X11964182Y-20424064D01*
X11921325Y-20424064D01*
X12192753Y-20424064D02*
X12164182Y-20409779D01*
X12149896Y-20381207D01*
X12149896Y-20124064D01*
X12421325Y-20409779D02*
X12392753Y-20424064D01*
X12335610Y-20424064D01*
X12307039Y-20409779D01*
X12292753Y-20381207D01*
X12292753Y-20266921D01*
X12307039Y-20238350D01*
X12335610Y-20224064D01*
X12392753Y-20224064D01*
X12421325Y-20238350D01*
X12435610Y-20266921D01*
X12435610Y-20295493D01*
X12292753Y-20324064D01*
X12549896Y-20409779D02*
X12578468Y-20424064D01*
X12635610Y-20424064D01*
X12664182Y-20409779D01*
X12678468Y-20381207D01*
X12678468Y-20366921D01*
X12664182Y-20338350D01*
X12635610Y-20324064D01*
X12592753Y-20324064D01*
X12564182Y-20309779D01*
X12549896Y-20281207D01*
X12549896Y-20266921D01*
X12564182Y-20238350D01*
X12592753Y-20224064D01*
X12635610Y-20224064D01*
X12664182Y-20238350D01*
X12778468Y-20538350D02*
X12792753Y-20524064D01*
X12821325Y-20481207D01*
X12835610Y-20452636D01*
X12849896Y-20409779D01*
X12864182Y-20338350D01*
X12864182Y-20281207D01*
X12849896Y-20209779D01*
X12835610Y-20166921D01*
X12821325Y-20138350D01*
X12792753Y-20095493D01*
X12778468Y-20081207D01*
X5321896Y-20571350D02*
X5321896Y-20797350D01*
X5208896Y-20684350D02*
X5434896Y-20684350D01*
X5434896Y-20684350D02*
G75*
G03*
X5434896Y-20684350I-113000J0D01*
G01*
X5707039Y-20548636D02*
X5721325Y-20534350D01*
X5749896Y-20520064D01*
X5821325Y-20520064D01*
X5849896Y-20534350D01*
X5864182Y-20548636D01*
X5878468Y-20577207D01*
X5878468Y-20605779D01*
X5864182Y-20648636D01*
X5692753Y-20820064D01*
X5878468Y-20820064D01*
X6007039Y-20791493D02*
X6021325Y-20805779D01*
X6007039Y-20820064D01*
X5992753Y-20805779D01*
X6007039Y-20791493D01*
X6007039Y-20820064D01*
X6135610Y-20548636D02*
X6149896Y-20534350D01*
X6178468Y-20520064D01*
X6249896Y-20520064D01*
X6278468Y-20534350D01*
X6292753Y-20548636D01*
X6307039Y-20577207D01*
X6307039Y-20605779D01*
X6292753Y-20648636D01*
X6121325Y-20820064D01*
X6307039Y-20820064D01*
X6564182Y-20520064D02*
X6507039Y-20520064D01*
X6478468Y-20534350D01*
X6464182Y-20548636D01*
X6435610Y-20591493D01*
X6421325Y-20648636D01*
X6421325Y-20762921D01*
X6435610Y-20791493D01*
X6449896Y-20805779D01*
X6478468Y-20820064D01*
X6535610Y-20820064D01*
X6564182Y-20805779D01*
X6578468Y-20791493D01*
X6592753Y-20762921D01*
X6592753Y-20691493D01*
X6578468Y-20662921D01*
X6564182Y-20648636D01*
X6535610Y-20634350D01*
X6478468Y-20634350D01*
X6449896Y-20648636D01*
X6435610Y-20662921D01*
X6421325Y-20691493D01*
X6778468Y-20520064D02*
X6807039Y-20520064D01*
X6835610Y-20534350D01*
X6849896Y-20548636D01*
X6864182Y-20577207D01*
X6878468Y-20634350D01*
X6878468Y-20705779D01*
X6864182Y-20762921D01*
X6849896Y-20791493D01*
X6835610Y-20805779D01*
X6807039Y-20820064D01*
X6778468Y-20820064D01*
X6749896Y-20805779D01*
X6735610Y-20791493D01*
X6721325Y-20762921D01*
X6707039Y-20705779D01*
X6707039Y-20634350D01*
X6721325Y-20577207D01*
X6735610Y-20548636D01*
X6749896Y-20534350D01*
X6778468Y-20520064D01*
X7007039Y-20820064D02*
X7007039Y-20620064D01*
X7007039Y-20648636D02*
X7021325Y-20634350D01*
X7049896Y-20620064D01*
X7092753Y-20620064D01*
X7121325Y-20634350D01*
X7135610Y-20662921D01*
X7135610Y-20820064D01*
X7135610Y-20662921D02*
X7149896Y-20634350D01*
X7178468Y-20620064D01*
X7221325Y-20620064D01*
X7249896Y-20634350D01*
X7264182Y-20662921D01*
X7264182Y-20820064D01*
X7407039Y-20820064D02*
X7407039Y-20620064D01*
X7407039Y-20648636D02*
X7421325Y-20634350D01*
X7449896Y-20620064D01*
X7492753Y-20620064D01*
X7521325Y-20634350D01*
X7535610Y-20662921D01*
X7535610Y-20820064D01*
X7535610Y-20662921D02*
X7549896Y-20634350D01*
X7578468Y-20620064D01*
X7621325Y-20620064D01*
X7649896Y-20634350D01*
X7664182Y-20662921D01*
X7664182Y-20820064D01*
X8249896Y-20505779D02*
X7992753Y-20891493D01*
X8635610Y-20520064D02*
X8664182Y-20520064D01*
X8692753Y-20534350D01*
X8707039Y-20548636D01*
X8721325Y-20577207D01*
X8735610Y-20634350D01*
X8735610Y-20705779D01*
X8721325Y-20762921D01*
X8707039Y-20791493D01*
X8692753Y-20805779D01*
X8664182Y-20820064D01*
X8635610Y-20820064D01*
X8607039Y-20805779D01*
X8592753Y-20791493D01*
X8578468Y-20762921D01*
X8564182Y-20705779D01*
X8564182Y-20634350D01*
X8578468Y-20577207D01*
X8592753Y-20548636D01*
X8607039Y-20534350D01*
X8635610Y-20520064D01*
X8864182Y-20791493D02*
X8878468Y-20805779D01*
X8864182Y-20820064D01*
X8849896Y-20805779D01*
X8864182Y-20791493D01*
X8864182Y-20820064D01*
X9064182Y-20520064D02*
X9092753Y-20520064D01*
X9121325Y-20534350D01*
X9135610Y-20548636D01*
X9149896Y-20577207D01*
X9164182Y-20634350D01*
X9164182Y-20705779D01*
X9149896Y-20762921D01*
X9135610Y-20791493D01*
X9121325Y-20805779D01*
X9092753Y-20820064D01*
X9064182Y-20820064D01*
X9035610Y-20805779D01*
X9021325Y-20791493D01*
X9007039Y-20762921D01*
X8992753Y-20705779D01*
X8992753Y-20634350D01*
X9007039Y-20577207D01*
X9021325Y-20548636D01*
X9035610Y-20534350D01*
X9064182Y-20520064D01*
X9335610Y-20648636D02*
X9307039Y-20634350D01*
X9292753Y-20620064D01*
X9278468Y-20591493D01*
X9278468Y-20577207D01*
X9292753Y-20548636D01*
X9307039Y-20534350D01*
X9335610Y-20520064D01*
X9392753Y-20520064D01*
X9421325Y-20534350D01*
X9435610Y-20548636D01*
X9449896Y-20577207D01*
X9449896Y-20591493D01*
X9435610Y-20620064D01*
X9421325Y-20634350D01*
X9392753Y-20648636D01*
X9335610Y-20648636D01*
X9307039Y-20662921D01*
X9292753Y-20677207D01*
X9278468Y-20705779D01*
X9278468Y-20762921D01*
X9292753Y-20791493D01*
X9307039Y-20805779D01*
X9335610Y-20820064D01*
X9392753Y-20820064D01*
X9421325Y-20805779D01*
X9435610Y-20791493D01*
X9449896Y-20762921D01*
X9449896Y-20705779D01*
X9435610Y-20677207D01*
X9421325Y-20662921D01*
X9392753Y-20648636D01*
X9592753Y-20820064D02*
X9649896Y-20820064D01*
X9678468Y-20805779D01*
X9692753Y-20791493D01*
X9721325Y-20748636D01*
X9735610Y-20691493D01*
X9735610Y-20577207D01*
X9721325Y-20548636D01*
X9707039Y-20534350D01*
X9678468Y-20520064D01*
X9621325Y-20520064D01*
X9592753Y-20534350D01*
X9578468Y-20548636D01*
X9564182Y-20577207D01*
X9564182Y-20648636D01*
X9578468Y-20677207D01*
X9592753Y-20691493D01*
X9621325Y-20705779D01*
X9678468Y-20705779D01*
X9707039Y-20691493D01*
X9721325Y-20677207D01*
X9735610Y-20648636D01*
X9921325Y-20520064D02*
X9949896Y-20520064D01*
X9978468Y-20534350D01*
X9992753Y-20548636D01*
X10007039Y-20577207D01*
X10021325Y-20634350D01*
X10021325Y-20705779D01*
X10007039Y-20762921D01*
X9992753Y-20791493D01*
X9978468Y-20805779D01*
X9949896Y-20820064D01*
X9921325Y-20820064D01*
X9892753Y-20805779D01*
X9878468Y-20791493D01*
X9864182Y-20762921D01*
X9849896Y-20705779D01*
X9849896Y-20634350D01*
X9864182Y-20577207D01*
X9878468Y-20548636D01*
X9892753Y-20534350D01*
X9921325Y-20520064D01*
X10135610Y-20520064D02*
X10135610Y-20577207D01*
X10249896Y-20520064D02*
X10249896Y-20577207D01*
X10692753Y-20934350D02*
X10678468Y-20920064D01*
X10649896Y-20877207D01*
X10635610Y-20848636D01*
X10621325Y-20805779D01*
X10607039Y-20734350D01*
X10607039Y-20677207D01*
X10621325Y-20605779D01*
X10635610Y-20562921D01*
X10649896Y-20534350D01*
X10678468Y-20491493D01*
X10692753Y-20477207D01*
X10792753Y-20548636D02*
X10807039Y-20534350D01*
X10835610Y-20520064D01*
X10907039Y-20520064D01*
X10935610Y-20534350D01*
X10949896Y-20548636D01*
X10964182Y-20577207D01*
X10964182Y-20605779D01*
X10949896Y-20648636D01*
X10778468Y-20820064D01*
X10964182Y-20820064D01*
X11321325Y-20820064D02*
X11321325Y-20520064D01*
X11449896Y-20820064D02*
X11449896Y-20662921D01*
X11435610Y-20634350D01*
X11407039Y-20620064D01*
X11364182Y-20620064D01*
X11335610Y-20634350D01*
X11321325Y-20648636D01*
X11635610Y-20820064D02*
X11607039Y-20805779D01*
X11592753Y-20791493D01*
X11578468Y-20762921D01*
X11578468Y-20677207D01*
X11592753Y-20648636D01*
X11607039Y-20634350D01*
X11635610Y-20620064D01*
X11678468Y-20620064D01*
X11707039Y-20634350D01*
X11721325Y-20648636D01*
X11735610Y-20677207D01*
X11735610Y-20762921D01*
X11721325Y-20791493D01*
X11707039Y-20805779D01*
X11678468Y-20820064D01*
X11635610Y-20820064D01*
X11907039Y-20820064D02*
X11878468Y-20805779D01*
X11864182Y-20777207D01*
X11864182Y-20520064D01*
X12135610Y-20805779D02*
X12107039Y-20820064D01*
X12049896Y-20820064D01*
X12021325Y-20805779D01*
X12007039Y-20777207D01*
X12007039Y-20662921D01*
X12021325Y-20634350D01*
X12049896Y-20620064D01*
X12107039Y-20620064D01*
X12135610Y-20634350D01*
X12149896Y-20662921D01*
X12149896Y-20691493D01*
X12007039Y-20720064D01*
X12264182Y-20805779D02*
X12292753Y-20820064D01*
X12349896Y-20820064D01*
X12378468Y-20805779D01*
X12392753Y-20777207D01*
X12392753Y-20762921D01*
X12378468Y-20734350D01*
X12349896Y-20720064D01*
X12307039Y-20720064D01*
X12278468Y-20705779D01*
X12264182Y-20677207D01*
X12264182Y-20662921D01*
X12278468Y-20634350D01*
X12307039Y-20620064D01*
X12349896Y-20620064D01*
X12378468Y-20634350D01*
X12492753Y-20934350D02*
X12507039Y-20920064D01*
X12535610Y-20877207D01*
X12549896Y-20848636D01*
X12564182Y-20805779D01*
X12578468Y-20734350D01*
X12578468Y-20677207D01*
X12564182Y-20605779D01*
X12549896Y-20562921D01*
X12535610Y-20534350D01*
X12507039Y-20491493D01*
X12492753Y-20477207D01*
X5412930Y-21133384D02*
X5412930Y-21027317D01*
X5306863Y-21027317D01*
X5306863Y-21133384D01*
X5412930Y-21133384D01*
X5434896Y-21080350D02*
G75*
G03*
X5434896Y-21080350I-75000J0D01*
G01*
X5878468Y-21216064D02*
X5707039Y-21216064D01*
X5792753Y-21216064D02*
X5792753Y-20916064D01*
X5764182Y-20958921D01*
X5735610Y-20987493D01*
X5707039Y-21001779D01*
X6007039Y-21187493D02*
X6021325Y-21201779D01*
X6007039Y-21216064D01*
X5992753Y-21201779D01*
X6007039Y-21187493D01*
X6007039Y-21216064D01*
X6292753Y-20916064D02*
X6149896Y-20916064D01*
X6135610Y-21058921D01*
X6149896Y-21044636D01*
X6178468Y-21030350D01*
X6249896Y-21030350D01*
X6278468Y-21044636D01*
X6292753Y-21058921D01*
X6307039Y-21087493D01*
X6307039Y-21158921D01*
X6292753Y-21187493D01*
X6278468Y-21201779D01*
X6249896Y-21216064D01*
X6178468Y-21216064D01*
X6149896Y-21201779D01*
X6135610Y-21187493D01*
X6492753Y-20916064D02*
X6521325Y-20916064D01*
X6549896Y-20930350D01*
X6564182Y-20944636D01*
X6578468Y-20973207D01*
X6592753Y-21030350D01*
X6592753Y-21101779D01*
X6578468Y-21158921D01*
X6564182Y-21187493D01*
X6549896Y-21201779D01*
X6521325Y-21216064D01*
X6492753Y-21216064D01*
X6464182Y-21201779D01*
X6449896Y-21187493D01*
X6435610Y-21158921D01*
X6421325Y-21101779D01*
X6421325Y-21030350D01*
X6435610Y-20973207D01*
X6449896Y-20944636D01*
X6464182Y-20930350D01*
X6492753Y-20916064D01*
X6778468Y-20916064D02*
X6807039Y-20916064D01*
X6835610Y-20930350D01*
X6849896Y-20944636D01*
X6864182Y-20973207D01*
X6878468Y-21030350D01*
X6878468Y-21101779D01*
X6864182Y-21158921D01*
X6849896Y-21187493D01*
X6835610Y-21201779D01*
X6807039Y-21216064D01*
X6778468Y-21216064D01*
X6749896Y-21201779D01*
X6735610Y-21187493D01*
X6721325Y-21158921D01*
X6707039Y-21101779D01*
X6707039Y-21030350D01*
X6721325Y-20973207D01*
X6735610Y-20944636D01*
X6749896Y-20930350D01*
X6778468Y-20916064D01*
X7007039Y-21216064D02*
X7007039Y-21016064D01*
X7007039Y-21044636D02*
X7021325Y-21030350D01*
X7049896Y-21016064D01*
X7092753Y-21016064D01*
X7121325Y-21030350D01*
X7135610Y-21058921D01*
X7135610Y-21216064D01*
X7135610Y-21058921D02*
X7149896Y-21030350D01*
X7178468Y-21016064D01*
X7221325Y-21016064D01*
X7249896Y-21030350D01*
X7264182Y-21058921D01*
X7264182Y-21216064D01*
X7407039Y-21216064D02*
X7407039Y-21016064D01*
X7407039Y-21044636D02*
X7421325Y-21030350D01*
X7449896Y-21016064D01*
X7492753Y-21016064D01*
X7521325Y-21030350D01*
X7535610Y-21058921D01*
X7535610Y-21216064D01*
X7535610Y-21058921D02*
X7549896Y-21030350D01*
X7578468Y-21016064D01*
X7621325Y-21016064D01*
X7649896Y-21030350D01*
X7664182Y-21058921D01*
X7664182Y-21216064D01*
X8249896Y-20901779D02*
X7992753Y-21287493D01*
X8635610Y-20916064D02*
X8664182Y-20916064D01*
X8692753Y-20930350D01*
X8707039Y-20944636D01*
X8721325Y-20973207D01*
X8735610Y-21030350D01*
X8735610Y-21101779D01*
X8721325Y-21158921D01*
X8707039Y-21187493D01*
X8692753Y-21201779D01*
X8664182Y-21216064D01*
X8635610Y-21216064D01*
X8607039Y-21201779D01*
X8592753Y-21187493D01*
X8578468Y-21158921D01*
X8564182Y-21101779D01*
X8564182Y-21030350D01*
X8578468Y-20973207D01*
X8592753Y-20944636D01*
X8607039Y-20930350D01*
X8635610Y-20916064D01*
X8864182Y-21187493D02*
X8878468Y-21201779D01*
X8864182Y-21216064D01*
X8849896Y-21201779D01*
X8864182Y-21187493D01*
X8864182Y-21216064D01*
X9064182Y-20916064D02*
X9092753Y-20916064D01*
X9121325Y-20930350D01*
X9135610Y-20944636D01*
X9149896Y-20973207D01*
X9164182Y-21030350D01*
X9164182Y-21101779D01*
X9149896Y-21158921D01*
X9135610Y-21187493D01*
X9121325Y-21201779D01*
X9092753Y-21216064D01*
X9064182Y-21216064D01*
X9035610Y-21201779D01*
X9021325Y-21187493D01*
X9007039Y-21158921D01*
X8992753Y-21101779D01*
X8992753Y-21030350D01*
X9007039Y-20973207D01*
X9021325Y-20944636D01*
X9035610Y-20930350D01*
X9064182Y-20916064D01*
X9435610Y-20916064D02*
X9292753Y-20916064D01*
X9278468Y-21058921D01*
X9292753Y-21044636D01*
X9321325Y-21030350D01*
X9392753Y-21030350D01*
X9421325Y-21044636D01*
X9435610Y-21058921D01*
X9449896Y-21087493D01*
X9449896Y-21158921D01*
X9435610Y-21187493D01*
X9421325Y-21201779D01*
X9392753Y-21216064D01*
X9321325Y-21216064D01*
X9292753Y-21201779D01*
X9278468Y-21187493D01*
X9592753Y-21216064D02*
X9649896Y-21216064D01*
X9678468Y-21201779D01*
X9692753Y-21187493D01*
X9721325Y-21144636D01*
X9735610Y-21087493D01*
X9735610Y-20973207D01*
X9721325Y-20944636D01*
X9707039Y-20930350D01*
X9678468Y-20916064D01*
X9621325Y-20916064D01*
X9592753Y-20930350D01*
X9578468Y-20944636D01*
X9564182Y-20973207D01*
X9564182Y-21044636D01*
X9578468Y-21073207D01*
X9592753Y-21087493D01*
X9621325Y-21101779D01*
X9678468Y-21101779D01*
X9707039Y-21087493D01*
X9721325Y-21073207D01*
X9735610Y-21044636D01*
X10021325Y-21216064D02*
X9849896Y-21216064D01*
X9935610Y-21216064D02*
X9935610Y-20916064D01*
X9907039Y-20958921D01*
X9878468Y-20987493D01*
X9849896Y-21001779D01*
X10135610Y-20916064D02*
X10135610Y-20973207D01*
X10249896Y-20916064D02*
X10249896Y-20973207D01*
X10692753Y-21330350D02*
X10678468Y-21316064D01*
X10649896Y-21273207D01*
X10635610Y-21244636D01*
X10621325Y-21201779D01*
X10607039Y-21130350D01*
X10607039Y-21073207D01*
X10621325Y-21001779D01*
X10635610Y-20958921D01*
X10649896Y-20930350D01*
X10678468Y-20887493D01*
X10692753Y-20873207D01*
X10792753Y-20944636D02*
X10807039Y-20930350D01*
X10835610Y-20916064D01*
X10907039Y-20916064D01*
X10935610Y-20930350D01*
X10949896Y-20944636D01*
X10964182Y-20973207D01*
X10964182Y-21001779D01*
X10949896Y-21044636D01*
X10778468Y-21216064D01*
X10964182Y-21216064D01*
X11321325Y-21216064D02*
X11321325Y-20916064D01*
X11449896Y-21216064D02*
X11449896Y-21058921D01*
X11435610Y-21030350D01*
X11407039Y-21016064D01*
X11364182Y-21016064D01*
X11335610Y-21030350D01*
X11321325Y-21044636D01*
X11635610Y-21216064D02*
X11607039Y-21201779D01*
X11592753Y-21187493D01*
X11578468Y-21158921D01*
X11578468Y-21073207D01*
X11592753Y-21044636D01*
X11607039Y-21030350D01*
X11635610Y-21016064D01*
X11678468Y-21016064D01*
X11707039Y-21030350D01*
X11721325Y-21044636D01*
X11735610Y-21073207D01*
X11735610Y-21158921D01*
X11721325Y-21187493D01*
X11707039Y-21201779D01*
X11678468Y-21216064D01*
X11635610Y-21216064D01*
X11907039Y-21216064D02*
X11878468Y-21201779D01*
X11864182Y-21173207D01*
X11864182Y-20916064D01*
X12135610Y-21201779D02*
X12107039Y-21216064D01*
X12049896Y-21216064D01*
X12021325Y-21201779D01*
X12007039Y-21173207D01*
X12007039Y-21058921D01*
X12021325Y-21030350D01*
X12049896Y-21016064D01*
X12107039Y-21016064D01*
X12135610Y-21030350D01*
X12149896Y-21058921D01*
X12149896Y-21087493D01*
X12007039Y-21116064D01*
X12264182Y-21201779D02*
X12292753Y-21216064D01*
X12349896Y-21216064D01*
X12378468Y-21201779D01*
X12392753Y-21173207D01*
X12392753Y-21158921D01*
X12378468Y-21130350D01*
X12349896Y-21116064D01*
X12307039Y-21116064D01*
X12278468Y-21101779D01*
X12264182Y-21073207D01*
X12264182Y-21058921D01*
X12278468Y-21030350D01*
X12307039Y-21016064D01*
X12349896Y-21016064D01*
X12378468Y-21030350D01*
X12492753Y-21330350D02*
X12507039Y-21316064D01*
X12535610Y-21273207D01*
X12549896Y-21244636D01*
X12564182Y-21201779D01*
X12578468Y-21130350D01*
X12578468Y-21073207D01*
X12564182Y-21001779D01*
X12549896Y-20958921D01*
X12535610Y-20930350D01*
X12507039Y-20887493D01*
X12492753Y-20873207D01*
X13035610Y-21330350D02*
X13021325Y-21316064D01*
X12992753Y-21273207D01*
X12978468Y-21244636D01*
X12964182Y-21201779D01*
X12949896Y-21130350D01*
X12949896Y-21073207D01*
X12964182Y-21001779D01*
X12978468Y-20958921D01*
X12992753Y-20930350D01*
X13021325Y-20887493D01*
X13035610Y-20873207D01*
X13149896Y-21016064D02*
X13149896Y-21216064D01*
X13149896Y-21044636D02*
X13164182Y-21030350D01*
X13192753Y-21016064D01*
X13235610Y-21016064D01*
X13264182Y-21030350D01*
X13278468Y-21058921D01*
X13278468Y-21216064D01*
X13464182Y-21216064D02*
X13435610Y-21201779D01*
X13421325Y-21187493D01*
X13407039Y-21158921D01*
X13407039Y-21073207D01*
X13421325Y-21044636D01*
X13435610Y-21030350D01*
X13464182Y-21016064D01*
X13507039Y-21016064D01*
X13535610Y-21030350D01*
X13549896Y-21044636D01*
X13564182Y-21073207D01*
X13564182Y-21158921D01*
X13549896Y-21187493D01*
X13535610Y-21201779D01*
X13507039Y-21216064D01*
X13464182Y-21216064D01*
X13649896Y-21016064D02*
X13764182Y-21016064D01*
X13692753Y-20916064D02*
X13692753Y-21173207D01*
X13707039Y-21201779D01*
X13735610Y-21216064D01*
X13764182Y-21216064D01*
X14092753Y-21016064D02*
X14092753Y-21316064D01*
X14092753Y-21030350D02*
X14121325Y-21016064D01*
X14178468Y-21016064D01*
X14207039Y-21030350D01*
X14221325Y-21044636D01*
X14235610Y-21073207D01*
X14235610Y-21158921D01*
X14221325Y-21187493D01*
X14207039Y-21201779D01*
X14178468Y-21216064D01*
X14121325Y-21216064D01*
X14092753Y-21201779D01*
X14407039Y-21216064D02*
X14378468Y-21201779D01*
X14364182Y-21173207D01*
X14364182Y-20916064D01*
X14649896Y-21216064D02*
X14649896Y-21058921D01*
X14635610Y-21030350D01*
X14607039Y-21016064D01*
X14549896Y-21016064D01*
X14521325Y-21030350D01*
X14649896Y-21201779D02*
X14621325Y-21216064D01*
X14549896Y-21216064D01*
X14521325Y-21201779D01*
X14507039Y-21173207D01*
X14507039Y-21144636D01*
X14521325Y-21116064D01*
X14549896Y-21101779D01*
X14621325Y-21101779D01*
X14649896Y-21087493D01*
X14749896Y-21016064D02*
X14864182Y-21016064D01*
X14792753Y-20916064D02*
X14792753Y-21173207D01*
X14807039Y-21201779D01*
X14835610Y-21216064D01*
X14864182Y-21216064D01*
X15078468Y-21201779D02*
X15049896Y-21216064D01*
X14992753Y-21216064D01*
X14964182Y-21201779D01*
X14949896Y-21173207D01*
X14949896Y-21058921D01*
X14964182Y-21030350D01*
X14992753Y-21016064D01*
X15049896Y-21016064D01*
X15078468Y-21030350D01*
X15092753Y-21058921D01*
X15092753Y-21087493D01*
X14949896Y-21116064D01*
X15349896Y-21216064D02*
X15349896Y-20916064D01*
X15349896Y-21201779D02*
X15321325Y-21216064D01*
X15264182Y-21216064D01*
X15235610Y-21201779D01*
X15221325Y-21187493D01*
X15207039Y-21158921D01*
X15207039Y-21073207D01*
X15221325Y-21044636D01*
X15235610Y-21030350D01*
X15264182Y-21016064D01*
X15321325Y-21016064D01*
X15349896Y-21030350D01*
X15464182Y-21330350D02*
X15478468Y-21316064D01*
X15507039Y-21273207D01*
X15521325Y-21244636D01*
X15535610Y-21201779D01*
X15549896Y-21130350D01*
X15549896Y-21073207D01*
X15535610Y-21001779D01*
X15521325Y-20958921D01*
X15507039Y-20930350D01*
X15478468Y-20887493D01*
X15464182Y-20873207D01*
X5344896Y-21566350D02*
X5434896Y-21476350D01*
X5344896Y-21386350D01*
X5254896Y-21476350D01*
X5344896Y-21566350D01*
X5434896Y-21476350D02*
G75*
G03*
X5434896Y-21476350I-90000J0D01*
G01*
X5878468Y-21612064D02*
X5707039Y-21612064D01*
X5792753Y-21612064D02*
X5792753Y-21312064D01*
X5764182Y-21354921D01*
X5735610Y-21383493D01*
X5707039Y-21397779D01*
X6007039Y-21583493D02*
X6021325Y-21597779D01*
X6007039Y-21612064D01*
X5992753Y-21597779D01*
X6007039Y-21583493D01*
X6007039Y-21612064D01*
X6192753Y-21440636D02*
X6164182Y-21426350D01*
X6149896Y-21412064D01*
X6135610Y-21383493D01*
X6135610Y-21369207D01*
X6149896Y-21340636D01*
X6164182Y-21326350D01*
X6192753Y-21312064D01*
X6249896Y-21312064D01*
X6278468Y-21326350D01*
X6292753Y-21340636D01*
X6307039Y-21369207D01*
X6307039Y-21383493D01*
X6292753Y-21412064D01*
X6278468Y-21426350D01*
X6249896Y-21440636D01*
X6192753Y-21440636D01*
X6164182Y-21454921D01*
X6149896Y-21469207D01*
X6135610Y-21497779D01*
X6135610Y-21554921D01*
X6149896Y-21583493D01*
X6164182Y-21597779D01*
X6192753Y-21612064D01*
X6249896Y-21612064D01*
X6278468Y-21597779D01*
X6292753Y-21583493D01*
X6307039Y-21554921D01*
X6307039Y-21497779D01*
X6292753Y-21469207D01*
X6278468Y-21454921D01*
X6249896Y-21440636D01*
X6492753Y-21312064D02*
X6521325Y-21312064D01*
X6549896Y-21326350D01*
X6564182Y-21340636D01*
X6578468Y-21369207D01*
X6592753Y-21426350D01*
X6592753Y-21497779D01*
X6578468Y-21554921D01*
X6564182Y-21583493D01*
X6549896Y-21597779D01*
X6521325Y-21612064D01*
X6492753Y-21612064D01*
X6464182Y-21597779D01*
X6449896Y-21583493D01*
X6435610Y-21554921D01*
X6421325Y-21497779D01*
X6421325Y-21426350D01*
X6435610Y-21369207D01*
X6449896Y-21340636D01*
X6464182Y-21326350D01*
X6492753Y-21312064D01*
X6778468Y-21312064D02*
X6807039Y-21312064D01*
X6835610Y-21326350D01*
X6849896Y-21340636D01*
X6864182Y-21369207D01*
X6878468Y-21426350D01*
X6878468Y-21497779D01*
X6864182Y-21554921D01*
X6849896Y-21583493D01*
X6835610Y-21597779D01*
X6807039Y-21612064D01*
X6778468Y-21612064D01*
X6749896Y-21597779D01*
X6735610Y-21583493D01*
X6721325Y-21554921D01*
X6707039Y-21497779D01*
X6707039Y-21426350D01*
X6721325Y-21369207D01*
X6735610Y-21340636D01*
X6749896Y-21326350D01*
X6778468Y-21312064D01*
X7007039Y-21612064D02*
X7007039Y-21412064D01*
X7007039Y-21440636D02*
X7021325Y-21426350D01*
X7049896Y-21412064D01*
X7092753Y-21412064D01*
X7121325Y-21426350D01*
X7135610Y-21454921D01*
X7135610Y-21612064D01*
X7135610Y-21454921D02*
X7149896Y-21426350D01*
X7178468Y-21412064D01*
X7221325Y-21412064D01*
X7249896Y-21426350D01*
X7264182Y-21454921D01*
X7264182Y-21612064D01*
X7407039Y-21612064D02*
X7407039Y-21412064D01*
X7407039Y-21440636D02*
X7421325Y-21426350D01*
X7449896Y-21412064D01*
X7492753Y-21412064D01*
X7521325Y-21426350D01*
X7535610Y-21454921D01*
X7535610Y-21612064D01*
X7535610Y-21454921D02*
X7549896Y-21426350D01*
X7578468Y-21412064D01*
X7621325Y-21412064D01*
X7649896Y-21426350D01*
X7664182Y-21454921D01*
X7664182Y-21612064D01*
X8249896Y-21297779D02*
X7992753Y-21683493D01*
X8635610Y-21312064D02*
X8664182Y-21312064D01*
X8692753Y-21326350D01*
X8707039Y-21340636D01*
X8721325Y-21369207D01*
X8735610Y-21426350D01*
X8735610Y-21497779D01*
X8721325Y-21554921D01*
X8707039Y-21583493D01*
X8692753Y-21597779D01*
X8664182Y-21612064D01*
X8635610Y-21612064D01*
X8607039Y-21597779D01*
X8592753Y-21583493D01*
X8578468Y-21554921D01*
X8564182Y-21497779D01*
X8564182Y-21426350D01*
X8578468Y-21369207D01*
X8592753Y-21340636D01*
X8607039Y-21326350D01*
X8635610Y-21312064D01*
X8864182Y-21583493D02*
X8878468Y-21597779D01*
X8864182Y-21612064D01*
X8849896Y-21597779D01*
X8864182Y-21583493D01*
X8864182Y-21612064D01*
X9064182Y-21312064D02*
X9092753Y-21312064D01*
X9121325Y-21326350D01*
X9135610Y-21340636D01*
X9149896Y-21369207D01*
X9164182Y-21426350D01*
X9164182Y-21497779D01*
X9149896Y-21554921D01*
X9135610Y-21583493D01*
X9121325Y-21597779D01*
X9092753Y-21612064D01*
X9064182Y-21612064D01*
X9035610Y-21597779D01*
X9021325Y-21583493D01*
X9007039Y-21554921D01*
X8992753Y-21497779D01*
X8992753Y-21426350D01*
X9007039Y-21369207D01*
X9021325Y-21340636D01*
X9035610Y-21326350D01*
X9064182Y-21312064D01*
X9264182Y-21312064D02*
X9464182Y-21312064D01*
X9335610Y-21612064D01*
X9635610Y-21312064D02*
X9664182Y-21312064D01*
X9692753Y-21326350D01*
X9707039Y-21340636D01*
X9721325Y-21369207D01*
X9735610Y-21426350D01*
X9735610Y-21497779D01*
X9721325Y-21554921D01*
X9707039Y-21583493D01*
X9692753Y-21597779D01*
X9664182Y-21612064D01*
X9635610Y-21612064D01*
X9607039Y-21597779D01*
X9592753Y-21583493D01*
X9578468Y-21554921D01*
X9564182Y-21497779D01*
X9564182Y-21426350D01*
X9578468Y-21369207D01*
X9592753Y-21340636D01*
X9607039Y-21326350D01*
X9635610Y-21312064D01*
X9878468Y-21612064D02*
X9935610Y-21612064D01*
X9964182Y-21597779D01*
X9978468Y-21583493D01*
X10007039Y-21540636D01*
X10021325Y-21483493D01*
X10021325Y-21369207D01*
X10007039Y-21340636D01*
X9992753Y-21326350D01*
X9964182Y-21312064D01*
X9907039Y-21312064D01*
X9878468Y-21326350D01*
X9864182Y-21340636D01*
X9849896Y-21369207D01*
X9849896Y-21440636D01*
X9864182Y-21469207D01*
X9878468Y-21483493D01*
X9907039Y-21497779D01*
X9964182Y-21497779D01*
X9992753Y-21483493D01*
X10007039Y-21469207D01*
X10021325Y-21440636D01*
X10135610Y-21312064D02*
X10135610Y-21369207D01*
X10249896Y-21312064D02*
X10249896Y-21369207D01*
X10692753Y-21726350D02*
X10678468Y-21712064D01*
X10649896Y-21669207D01*
X10635610Y-21640636D01*
X10621325Y-21597779D01*
X10607039Y-21526350D01*
X10607039Y-21469207D01*
X10621325Y-21397779D01*
X10635610Y-21354921D01*
X10649896Y-21326350D01*
X10678468Y-21283493D01*
X10692753Y-21269207D01*
X10792753Y-21340636D02*
X10807039Y-21326350D01*
X10835610Y-21312064D01*
X10907039Y-21312064D01*
X10935610Y-21326350D01*
X10949896Y-21340636D01*
X10964182Y-21369207D01*
X10964182Y-21397779D01*
X10949896Y-21440636D01*
X10778468Y-21612064D01*
X10964182Y-21612064D01*
X11321325Y-21612064D02*
X11321325Y-21312064D01*
X11449896Y-21612064D02*
X11449896Y-21454921D01*
X11435610Y-21426350D01*
X11407039Y-21412064D01*
X11364182Y-21412064D01*
X11335610Y-21426350D01*
X11321325Y-21440636D01*
X11635610Y-21612064D02*
X11607039Y-21597779D01*
X11592753Y-21583493D01*
X11578468Y-21554921D01*
X11578468Y-21469207D01*
X11592753Y-21440636D01*
X11607039Y-21426350D01*
X11635610Y-21412064D01*
X11678468Y-21412064D01*
X11707039Y-21426350D01*
X11721325Y-21440636D01*
X11735610Y-21469207D01*
X11735610Y-21554921D01*
X11721325Y-21583493D01*
X11707039Y-21597779D01*
X11678468Y-21612064D01*
X11635610Y-21612064D01*
X11907039Y-21612064D02*
X11878468Y-21597779D01*
X11864182Y-21569207D01*
X11864182Y-21312064D01*
X12135610Y-21597779D02*
X12107039Y-21612064D01*
X12049896Y-21612064D01*
X12021325Y-21597779D01*
X12007039Y-21569207D01*
X12007039Y-21454921D01*
X12021325Y-21426350D01*
X12049896Y-21412064D01*
X12107039Y-21412064D01*
X12135610Y-21426350D01*
X12149896Y-21454921D01*
X12149896Y-21483493D01*
X12007039Y-21512064D01*
X12264182Y-21597779D02*
X12292753Y-21612064D01*
X12349896Y-21612064D01*
X12378468Y-21597779D01*
X12392753Y-21569207D01*
X12392753Y-21554921D01*
X12378468Y-21526350D01*
X12349896Y-21512064D01*
X12307039Y-21512064D01*
X12278468Y-21497779D01*
X12264182Y-21469207D01*
X12264182Y-21454921D01*
X12278468Y-21426350D01*
X12307039Y-21412064D01*
X12349896Y-21412064D01*
X12378468Y-21426350D01*
X12492753Y-21726350D02*
X12507039Y-21712064D01*
X12535610Y-21669207D01*
X12549896Y-21640636D01*
X12564182Y-21597779D01*
X12578468Y-21526350D01*
X12578468Y-21469207D01*
X12564182Y-21397779D01*
X12549896Y-21354921D01*
X12535610Y-21326350D01*
X12507039Y-21283493D01*
X12492753Y-21269207D01*
X13035610Y-21726350D02*
X13021325Y-21712064D01*
X12992753Y-21669207D01*
X12978468Y-21640636D01*
X12964182Y-21597779D01*
X12949896Y-21526350D01*
X12949896Y-21469207D01*
X12964182Y-21397779D01*
X12978468Y-21354921D01*
X12992753Y-21326350D01*
X13021325Y-21283493D01*
X13035610Y-21269207D01*
X13149896Y-21412064D02*
X13149896Y-21612064D01*
X13149896Y-21440636D02*
X13164182Y-21426350D01*
X13192753Y-21412064D01*
X13235610Y-21412064D01*
X13264182Y-21426350D01*
X13278468Y-21454921D01*
X13278468Y-21612064D01*
X13464182Y-21612064D02*
X13435610Y-21597779D01*
X13421325Y-21583493D01*
X13407039Y-21554921D01*
X13407039Y-21469207D01*
X13421325Y-21440636D01*
X13435610Y-21426350D01*
X13464182Y-21412064D01*
X13507039Y-21412064D01*
X13535610Y-21426350D01*
X13549896Y-21440636D01*
X13564182Y-21469207D01*
X13564182Y-21554921D01*
X13549896Y-21583493D01*
X13535610Y-21597779D01*
X13507039Y-21612064D01*
X13464182Y-21612064D01*
X13649896Y-21412064D02*
X13764182Y-21412064D01*
X13692753Y-21312064D02*
X13692753Y-21569207D01*
X13707039Y-21597779D01*
X13735610Y-21612064D01*
X13764182Y-21612064D01*
X14092753Y-21412064D02*
X14092753Y-21712064D01*
X14092753Y-21426350D02*
X14121325Y-21412064D01*
X14178468Y-21412064D01*
X14207039Y-21426350D01*
X14221325Y-21440636D01*
X14235610Y-21469207D01*
X14235610Y-21554921D01*
X14221325Y-21583493D01*
X14207039Y-21597779D01*
X14178468Y-21612064D01*
X14121325Y-21612064D01*
X14092753Y-21597779D01*
X14407039Y-21612064D02*
X14378468Y-21597779D01*
X14364182Y-21569207D01*
X14364182Y-21312064D01*
X14649896Y-21612064D02*
X14649896Y-21454921D01*
X14635610Y-21426350D01*
X14607039Y-21412064D01*
X14549896Y-21412064D01*
X14521325Y-21426350D01*
X14649896Y-21597779D02*
X14621325Y-21612064D01*
X14549896Y-21612064D01*
X14521325Y-21597779D01*
X14507039Y-21569207D01*
X14507039Y-21540636D01*
X14521325Y-21512064D01*
X14549896Y-21497779D01*
X14621325Y-21497779D01*
X14649896Y-21483493D01*
X14749896Y-21412064D02*
X14864182Y-21412064D01*
X14792753Y-21312064D02*
X14792753Y-21569207D01*
X14807039Y-21597779D01*
X14835610Y-21612064D01*
X14864182Y-21612064D01*
X15078468Y-21597779D02*
X15049896Y-21612064D01*
X14992753Y-21612064D01*
X14964182Y-21597779D01*
X14949896Y-21569207D01*
X14949896Y-21454921D01*
X14964182Y-21426350D01*
X14992753Y-21412064D01*
X15049896Y-21412064D01*
X15078468Y-21426350D01*
X15092753Y-21454921D01*
X15092753Y-21483493D01*
X14949896Y-21512064D01*
X15349896Y-21612064D02*
X15349896Y-21312064D01*
X15349896Y-21597779D02*
X15321325Y-21612064D01*
X15264182Y-21612064D01*
X15235610Y-21597779D01*
X15221325Y-21583493D01*
X15207039Y-21554921D01*
X15207039Y-21469207D01*
X15221325Y-21440636D01*
X15235610Y-21426350D01*
X15264182Y-21412064D01*
X15321325Y-21412064D01*
X15349896Y-21426350D01*
X15464182Y-21726350D02*
X15478468Y-21712064D01*
X15507039Y-21669207D01*
X15521325Y-21640636D01*
X15535610Y-21597779D01*
X15549896Y-21526350D01*
X15549896Y-21469207D01*
X15535610Y-21397779D01*
X15521325Y-21354921D01*
X15507039Y-21326350D01*
X15478468Y-21283493D01*
X15464182Y-21269207D01*
X5284896Y-21722350D02*
X5284896Y-22022350D01*
X5134896Y-21872350D02*
X5434896Y-21872350D01*
X5390963Y-21978417D02*
X5390963Y-21766283D01*
X5178829Y-21766283D01*
X5178829Y-21978417D01*
X5390963Y-21978417D01*
X5692753Y-21708064D02*
X5878468Y-21708064D01*
X5778468Y-21822350D01*
X5821325Y-21822350D01*
X5849896Y-21836636D01*
X5864182Y-21850921D01*
X5878468Y-21879493D01*
X5878468Y-21950921D01*
X5864182Y-21979493D01*
X5849896Y-21993779D01*
X5821325Y-22008064D01*
X5735610Y-22008064D01*
X5707039Y-21993779D01*
X5692753Y-21979493D01*
X6007039Y-21979493D02*
X6021325Y-21993779D01*
X6007039Y-22008064D01*
X5992753Y-21993779D01*
X6007039Y-21979493D01*
X6007039Y-22008064D01*
X6207039Y-21708064D02*
X6235610Y-21708064D01*
X6264182Y-21722350D01*
X6278468Y-21736636D01*
X6292753Y-21765207D01*
X6307039Y-21822350D01*
X6307039Y-21893779D01*
X6292753Y-21950921D01*
X6278468Y-21979493D01*
X6264182Y-21993779D01*
X6235610Y-22008064D01*
X6207039Y-22008064D01*
X6178468Y-21993779D01*
X6164182Y-21979493D01*
X6149896Y-21950921D01*
X6135610Y-21893779D01*
X6135610Y-21822350D01*
X6149896Y-21765207D01*
X6164182Y-21736636D01*
X6178468Y-21722350D01*
X6207039Y-21708064D01*
X6492753Y-21708064D02*
X6521325Y-21708064D01*
X6549896Y-21722350D01*
X6564182Y-21736636D01*
X6578468Y-21765207D01*
X6592753Y-21822350D01*
X6592753Y-21893779D01*
X6578468Y-21950921D01*
X6564182Y-21979493D01*
X6549896Y-21993779D01*
X6521325Y-22008064D01*
X6492753Y-22008064D01*
X6464182Y-21993779D01*
X6449896Y-21979493D01*
X6435610Y-21950921D01*
X6421325Y-21893779D01*
X6421325Y-21822350D01*
X6435610Y-21765207D01*
X6449896Y-21736636D01*
X6464182Y-21722350D01*
X6492753Y-21708064D01*
X6778468Y-21708064D02*
X6807039Y-21708064D01*
X6835610Y-21722350D01*
X6849896Y-21736636D01*
X6864182Y-21765207D01*
X6878468Y-21822350D01*
X6878468Y-21893779D01*
X6864182Y-21950921D01*
X6849896Y-21979493D01*
X6835610Y-21993779D01*
X6807039Y-22008064D01*
X6778468Y-22008064D01*
X6749896Y-21993779D01*
X6735610Y-21979493D01*
X6721325Y-21950921D01*
X6707039Y-21893779D01*
X6707039Y-21822350D01*
X6721325Y-21765207D01*
X6735610Y-21736636D01*
X6749896Y-21722350D01*
X6778468Y-21708064D01*
X7007039Y-22008064D02*
X7007039Y-21808064D01*
X7007039Y-21836636D02*
X7021325Y-21822350D01*
X7049896Y-21808064D01*
X7092753Y-21808064D01*
X7121325Y-21822350D01*
X7135610Y-21850921D01*
X7135610Y-22008064D01*
X7135610Y-21850921D02*
X7149896Y-21822350D01*
X7178468Y-21808064D01*
X7221325Y-21808064D01*
X7249896Y-21822350D01*
X7264182Y-21850921D01*
X7264182Y-22008064D01*
X7407039Y-22008064D02*
X7407039Y-21808064D01*
X7407039Y-21836636D02*
X7421325Y-21822350D01*
X7449896Y-21808064D01*
X7492753Y-21808064D01*
X7521325Y-21822350D01*
X7535610Y-21850921D01*
X7535610Y-22008064D01*
X7535610Y-21850921D02*
X7549896Y-21822350D01*
X7578468Y-21808064D01*
X7621325Y-21808064D01*
X7649896Y-21822350D01*
X7664182Y-21850921D01*
X7664182Y-22008064D01*
X8249896Y-21693779D02*
X7992753Y-22079493D01*
X8635610Y-21708064D02*
X8664182Y-21708064D01*
X8692753Y-21722350D01*
X8707039Y-21736636D01*
X8721325Y-21765207D01*
X8735610Y-21822350D01*
X8735610Y-21893779D01*
X8721325Y-21950921D01*
X8707039Y-21979493D01*
X8692753Y-21993779D01*
X8664182Y-22008064D01*
X8635610Y-22008064D01*
X8607039Y-21993779D01*
X8592753Y-21979493D01*
X8578468Y-21950921D01*
X8564182Y-21893779D01*
X8564182Y-21822350D01*
X8578468Y-21765207D01*
X8592753Y-21736636D01*
X8607039Y-21722350D01*
X8635610Y-21708064D01*
X8864182Y-21979493D02*
X8878468Y-21993779D01*
X8864182Y-22008064D01*
X8849896Y-21993779D01*
X8864182Y-21979493D01*
X8864182Y-22008064D01*
X9164182Y-22008064D02*
X8992753Y-22008064D01*
X9078468Y-22008064D02*
X9078468Y-21708064D01*
X9049896Y-21750921D01*
X9021325Y-21779493D01*
X8992753Y-21793779D01*
X9449896Y-22008064D02*
X9278468Y-22008064D01*
X9364182Y-22008064D02*
X9364182Y-21708064D01*
X9335610Y-21750921D01*
X9307039Y-21779493D01*
X9278468Y-21793779D01*
X9621325Y-21836636D02*
X9592753Y-21822350D01*
X9578468Y-21808064D01*
X9564182Y-21779493D01*
X9564182Y-21765207D01*
X9578468Y-21736636D01*
X9592753Y-21722350D01*
X9621325Y-21708064D01*
X9678468Y-21708064D01*
X9707039Y-21722350D01*
X9721325Y-21736636D01*
X9735610Y-21765207D01*
X9735610Y-21779493D01*
X9721325Y-21808064D01*
X9707039Y-21822350D01*
X9678468Y-21836636D01*
X9621325Y-21836636D01*
X9592753Y-21850921D01*
X9578468Y-21865207D01*
X9564182Y-21893779D01*
X9564182Y-21950921D01*
X9578468Y-21979493D01*
X9592753Y-21993779D01*
X9621325Y-22008064D01*
X9678468Y-22008064D01*
X9707039Y-21993779D01*
X9721325Y-21979493D01*
X9735610Y-21950921D01*
X9735610Y-21893779D01*
X9721325Y-21865207D01*
X9707039Y-21850921D01*
X9678468Y-21836636D01*
X10021325Y-22008064D02*
X9849896Y-22008064D01*
X9935610Y-22008064D02*
X9935610Y-21708064D01*
X9907039Y-21750921D01*
X9878468Y-21779493D01*
X9849896Y-21793779D01*
X10135610Y-21708064D02*
X10135610Y-21765207D01*
X10249896Y-21708064D02*
X10249896Y-21765207D01*
X10692753Y-22122350D02*
X10678468Y-22108064D01*
X10649896Y-22065207D01*
X10635610Y-22036636D01*
X10621325Y-21993779D01*
X10607039Y-21922350D01*
X10607039Y-21865207D01*
X10621325Y-21793779D01*
X10635610Y-21750921D01*
X10649896Y-21722350D01*
X10678468Y-21679493D01*
X10692753Y-21665207D01*
X10935610Y-21808064D02*
X10935610Y-22008064D01*
X10864182Y-21693779D02*
X10792753Y-21908064D01*
X10978468Y-21908064D01*
X11321325Y-22008064D02*
X11321325Y-21708064D01*
X11449896Y-22008064D02*
X11449896Y-21850921D01*
X11435610Y-21822350D01*
X11407039Y-21808064D01*
X11364182Y-21808064D01*
X11335610Y-21822350D01*
X11321325Y-21836636D01*
X11635610Y-22008064D02*
X11607039Y-21993779D01*
X11592753Y-21979493D01*
X11578468Y-21950921D01*
X11578468Y-21865207D01*
X11592753Y-21836636D01*
X11607039Y-21822350D01*
X11635610Y-21808064D01*
X11678468Y-21808064D01*
X11707039Y-21822350D01*
X11721325Y-21836636D01*
X11735610Y-21865207D01*
X11735610Y-21950921D01*
X11721325Y-21979493D01*
X11707039Y-21993779D01*
X11678468Y-22008064D01*
X11635610Y-22008064D01*
X11907039Y-22008064D02*
X11878468Y-21993779D01*
X11864182Y-21965207D01*
X11864182Y-21708064D01*
X12135610Y-21993779D02*
X12107039Y-22008064D01*
X12049896Y-22008064D01*
X12021325Y-21993779D01*
X12007039Y-21965207D01*
X12007039Y-21850921D01*
X12021325Y-21822350D01*
X12049896Y-21808064D01*
X12107039Y-21808064D01*
X12135610Y-21822350D01*
X12149896Y-21850921D01*
X12149896Y-21879493D01*
X12007039Y-21908064D01*
X12264182Y-21993779D02*
X12292753Y-22008064D01*
X12349896Y-22008064D01*
X12378468Y-21993779D01*
X12392753Y-21965207D01*
X12392753Y-21950921D01*
X12378468Y-21922350D01*
X12349896Y-21908064D01*
X12307039Y-21908064D01*
X12278468Y-21893779D01*
X12264182Y-21865207D01*
X12264182Y-21850921D01*
X12278468Y-21822350D01*
X12307039Y-21808064D01*
X12349896Y-21808064D01*
X12378468Y-21822350D01*
X12492753Y-22122350D02*
X12507039Y-22108064D01*
X12535610Y-22065207D01*
X12549896Y-22036636D01*
X12564182Y-21993779D01*
X12578468Y-21922350D01*
X12578468Y-21865207D01*
X12564182Y-21793779D01*
X12549896Y-21750921D01*
X12535610Y-21722350D01*
X12507039Y-21679493D01*
X12492753Y-21665207D01*
X13035610Y-22122350D02*
X13021325Y-22108064D01*
X12992753Y-22065207D01*
X12978468Y-22036636D01*
X12964182Y-21993779D01*
X12949896Y-21922350D01*
X12949896Y-21865207D01*
X12964182Y-21793779D01*
X12978468Y-21750921D01*
X12992753Y-21722350D01*
X13021325Y-21679493D01*
X13035610Y-21665207D01*
X13149896Y-21808064D02*
X13149896Y-22008064D01*
X13149896Y-21836636D02*
X13164182Y-21822350D01*
X13192753Y-21808064D01*
X13235610Y-21808064D01*
X13264182Y-21822350D01*
X13278468Y-21850921D01*
X13278468Y-22008064D01*
X13464182Y-22008064D02*
X13435610Y-21993779D01*
X13421325Y-21979493D01*
X13407039Y-21950921D01*
X13407039Y-21865207D01*
X13421325Y-21836636D01*
X13435610Y-21822350D01*
X13464182Y-21808064D01*
X13507039Y-21808064D01*
X13535610Y-21822350D01*
X13549896Y-21836636D01*
X13564182Y-21865207D01*
X13564182Y-21950921D01*
X13549896Y-21979493D01*
X13535610Y-21993779D01*
X13507039Y-22008064D01*
X13464182Y-22008064D01*
X13649896Y-21808064D02*
X13764182Y-21808064D01*
X13692753Y-21708064D02*
X13692753Y-21965207D01*
X13707039Y-21993779D01*
X13735610Y-22008064D01*
X13764182Y-22008064D01*
X14092753Y-21808064D02*
X14092753Y-22108064D01*
X14092753Y-21822350D02*
X14121325Y-21808064D01*
X14178468Y-21808064D01*
X14207039Y-21822350D01*
X14221325Y-21836636D01*
X14235610Y-21865207D01*
X14235610Y-21950921D01*
X14221325Y-21979493D01*
X14207039Y-21993779D01*
X14178468Y-22008064D01*
X14121325Y-22008064D01*
X14092753Y-21993779D01*
X14407039Y-22008064D02*
X14378468Y-21993779D01*
X14364182Y-21965207D01*
X14364182Y-21708064D01*
X14649896Y-22008064D02*
X14649896Y-21850921D01*
X14635610Y-21822350D01*
X14607039Y-21808064D01*
X14549896Y-21808064D01*
X14521325Y-21822350D01*
X14649896Y-21993779D02*
X14621325Y-22008064D01*
X14549896Y-22008064D01*
X14521325Y-21993779D01*
X14507039Y-21965207D01*
X14507039Y-21936636D01*
X14521325Y-21908064D01*
X14549896Y-21893779D01*
X14621325Y-21893779D01*
X14649896Y-21879493D01*
X14749896Y-21808064D02*
X14864182Y-21808064D01*
X14792753Y-21708064D02*
X14792753Y-21965207D01*
X14807039Y-21993779D01*
X14835610Y-22008064D01*
X14864182Y-22008064D01*
X15078468Y-21993779D02*
X15049896Y-22008064D01*
X14992753Y-22008064D01*
X14964182Y-21993779D01*
X14949896Y-21965207D01*
X14949896Y-21850921D01*
X14964182Y-21822350D01*
X14992753Y-21808064D01*
X15049896Y-21808064D01*
X15078468Y-21822350D01*
X15092753Y-21850921D01*
X15092753Y-21879493D01*
X14949896Y-21908064D01*
X15349896Y-22008064D02*
X15349896Y-21708064D01*
X15349896Y-21993779D02*
X15321325Y-22008064D01*
X15264182Y-22008064D01*
X15235610Y-21993779D01*
X15221325Y-21979493D01*
X15207039Y-21950921D01*
X15207039Y-21865207D01*
X15221325Y-21836636D01*
X15235610Y-21822350D01*
X15264182Y-21808064D01*
X15321325Y-21808064D01*
X15349896Y-21822350D01*
X15464182Y-22122350D02*
X15478468Y-22108064D01*
X15507039Y-22065207D01*
X15521325Y-22036636D01*
X15535610Y-21993779D01*
X15549896Y-21922350D01*
X15549896Y-21865207D01*
X15535610Y-21793779D01*
X15521325Y-21750921D01*
X15507039Y-21722350D01*
X15478468Y-21679493D01*
X15464182Y-21665207D01*
M02*
