%TF.GenerationSoftware,KiCad,Pcbnew,(5.1.10-1-10_14)*%
%TF.CreationDate,2021-10-16T18:52:24-04:00*%
%TF.ProjectId,CC_PCB_V1,43435f50-4342-45f5-9631-2e6b69636164,10/13/2021*%
%TF.SameCoordinates,Original*%
%TF.FileFunction,Copper,L1,Top*%
%TF.FilePolarity,Positive*%
%FSLAX46Y46*%
G04 Gerber Fmt 4.6, Leading zero omitted, Abs format (unit mm)*
G04 Created by KiCad (PCBNEW (5.1.10-1-10_14)) date 2021-10-16 18:52:24*
%MOMM*%
%LPD*%
G01*
G04 APERTURE LIST*
%TA.AperFunction,ComponentPad*%
%ADD10C,3.276000*%
%TD*%
%TA.AperFunction,ComponentPad*%
%ADD11C,1.428000*%
%TD*%
%TA.AperFunction,ComponentPad*%
%ADD12R,1.428000X1.428000*%
%TD*%
%TA.AperFunction,ComponentPad*%
%ADD13C,1.200000*%
%TD*%
%TA.AperFunction,ComponentPad*%
%ADD14R,1.200000X1.200000*%
%TD*%
%TA.AperFunction,ComponentPad*%
%ADD15C,3.000000*%
%TD*%
%TA.AperFunction,ComponentPad*%
%ADD16R,1.500000X1.050000*%
%TD*%
%TA.AperFunction,ComponentPad*%
%ADD17O,1.500000X1.050000*%
%TD*%
%TA.AperFunction,ComponentPad*%
%ADD18C,1.260000*%
%TD*%
%TA.AperFunction,ComponentPad*%
%ADD19R,1.260000X1.260000*%
%TD*%
%TA.AperFunction,ComponentPad*%
%ADD20O,1.700000X1.700000*%
%TD*%
%TA.AperFunction,ComponentPad*%
%ADD21R,1.700000X1.700000*%
%TD*%
%TA.AperFunction,ComponentPad*%
%ADD22C,1.650000*%
%TD*%
%TA.AperFunction,ComponentPad*%
%ADD23R,1.650000X1.650000*%
%TD*%
%TA.AperFunction,SMDPad,CuDef*%
%ADD24R,3.098800X1.600200*%
%TD*%
%TA.AperFunction,SMDPad,CuDef*%
%ADD25R,0.838200X1.600200*%
%TD*%
%TA.AperFunction,SMDPad,CuDef*%
%ADD26R,1.700000X3.500000*%
%TD*%
%TA.AperFunction,SMDPad,CuDef*%
%ADD27R,3.500000X1.700000*%
%TD*%
%TA.AperFunction,ComponentPad*%
%ADD28C,2.100000*%
%TD*%
%TA.AperFunction,ComponentPad*%
%ADD29R,2.100000X2.100000*%
%TD*%
%TA.AperFunction,ViaPad*%
%ADD30C,0.800000*%
%TD*%
%TA.AperFunction,Conductor*%
%ADD31C,0.250000*%
%TD*%
G04 APERTURE END LIST*
%TO.P,R6,2*%
%TO.N,GP12*%
%TA.AperFunction,SMDPad,CuDef*%
G36*
G01*
X137321300Y-115221200D02*
X136846300Y-115221200D01*
G75*
G02*
X136608800Y-114983700I0J237500D01*
G01*
X136608800Y-114483700D01*
G75*
G02*
X136846300Y-114246200I237500J0D01*
G01*
X137321300Y-114246200D01*
G75*
G02*
X137558800Y-114483700I0J-237500D01*
G01*
X137558800Y-114983700D01*
G75*
G02*
X137321300Y-115221200I-237500J0D01*
G01*
G37*
%TD.AperFunction*%
%TO.P,R6,1*%
%TO.N,Net-(D6-Pad2)*%
%TA.AperFunction,SMDPad,CuDef*%
G36*
G01*
X137321300Y-117046200D02*
X136846300Y-117046200D01*
G75*
G02*
X136608800Y-116808700I0J237500D01*
G01*
X136608800Y-116308700D01*
G75*
G02*
X136846300Y-116071200I237500J0D01*
G01*
X137321300Y-116071200D01*
G75*
G02*
X137558800Y-116308700I0J-237500D01*
G01*
X137558800Y-116808700D01*
G75*
G02*
X137321300Y-117046200I-237500J0D01*
G01*
G37*
%TD.AperFunction*%
%TD*%
%TO.P,R5,2*%
%TO.N,GP22*%
%TA.AperFunction,SMDPad,CuDef*%
G36*
G01*
X137346700Y-124007700D02*
X136871700Y-124007700D01*
G75*
G02*
X136634200Y-123770200I0J237500D01*
G01*
X136634200Y-123270200D01*
G75*
G02*
X136871700Y-123032700I237500J0D01*
G01*
X137346700Y-123032700D01*
G75*
G02*
X137584200Y-123270200I0J-237500D01*
G01*
X137584200Y-123770200D01*
G75*
G02*
X137346700Y-124007700I-237500J0D01*
G01*
G37*
%TD.AperFunction*%
%TO.P,R5,1*%
%TO.N,Net-(D5-Pad2)*%
%TA.AperFunction,SMDPad,CuDef*%
G36*
G01*
X137346700Y-125832700D02*
X136871700Y-125832700D01*
G75*
G02*
X136634200Y-125595200I0J237500D01*
G01*
X136634200Y-125095200D01*
G75*
G02*
X136871700Y-124857700I237500J0D01*
G01*
X137346700Y-124857700D01*
G75*
G02*
X137584200Y-125095200I0J-237500D01*
G01*
X137584200Y-125595200D01*
G75*
G02*
X137346700Y-125832700I-237500J0D01*
G01*
G37*
%TD.AperFunction*%
%TD*%
%TO.P,D6,2*%
%TO.N,Net-(D6-Pad2)*%
%TA.AperFunction,SMDPad,CuDef*%
G36*
G01*
X137796300Y-119872600D02*
X137796300Y-121122600D01*
G75*
G02*
X137546300Y-121372600I-250000J0D01*
G01*
X136621300Y-121372600D01*
G75*
G02*
X136371300Y-121122600I0J250000D01*
G01*
X136371300Y-119872600D01*
G75*
G02*
X136621300Y-119622600I250000J0D01*
G01*
X137546300Y-119622600D01*
G75*
G02*
X137796300Y-119872600I0J-250000D01*
G01*
G37*
%TD.AperFunction*%
%TO.P,D6,1*%
%TO.N,GND*%
%TA.AperFunction,SMDPad,CuDef*%
G36*
G01*
X140771300Y-119872600D02*
X140771300Y-121122600D01*
G75*
G02*
X140521300Y-121372600I-250000J0D01*
G01*
X139596300Y-121372600D01*
G75*
G02*
X139346300Y-121122600I0J250000D01*
G01*
X139346300Y-119872600D01*
G75*
G02*
X139596300Y-119622600I250000J0D01*
G01*
X140521300Y-119622600D01*
G75*
G02*
X140771300Y-119872600I0J-250000D01*
G01*
G37*
%TD.AperFunction*%
%TD*%
%TO.P,D5,2*%
%TO.N,Net-(D5-Pad2)*%
%TA.AperFunction,SMDPad,CuDef*%
G36*
G01*
X137807400Y-128280000D02*
X137807400Y-129530000D01*
G75*
G02*
X137557400Y-129780000I-250000J0D01*
G01*
X136632400Y-129780000D01*
G75*
G02*
X136382400Y-129530000I0J250000D01*
G01*
X136382400Y-128280000D01*
G75*
G02*
X136632400Y-128030000I250000J0D01*
G01*
X137557400Y-128030000D01*
G75*
G02*
X137807400Y-128280000I0J-250000D01*
G01*
G37*
%TD.AperFunction*%
%TO.P,D5,1*%
%TO.N,GND*%
%TA.AperFunction,SMDPad,CuDef*%
G36*
G01*
X140782400Y-128280000D02*
X140782400Y-129530000D01*
G75*
G02*
X140532400Y-129780000I-250000J0D01*
G01*
X139607400Y-129780000D01*
G75*
G02*
X139357400Y-129530000I0J250000D01*
G01*
X139357400Y-128280000D01*
G75*
G02*
X139607400Y-128030000I250000J0D01*
G01*
X140532400Y-128030000D01*
G75*
G02*
X140782400Y-128280000I0J-250000D01*
G01*
G37*
%TD.AperFunction*%
%TD*%
D10*
%TO.P,J3,S2*%
%TO.N,Net-(J3-PadS1)*%
X88307200Y-149618700D03*
%TO.P,J3,S1*%
X75167200Y-149618700D03*
D11*
%TO.P,J3,4*%
%TO.N,GND*%
X85237200Y-146908700D03*
%TO.P,J3,3*%
%TO.N,Net-(J3-Pad3)*%
X82737200Y-146908700D03*
%TO.P,J3,2*%
%TO.N,Net-(J3-Pad2)*%
X80737200Y-146908700D03*
D12*
%TO.P,J3,1*%
%TO.N,+5V*%
X78237200Y-146908700D03*
%TD*%
D13*
%TO.P,C2,2*%
%TO.N,GND*%
X124828300Y-136663300D03*
D14*
%TO.P,C2,1*%
%TO.N,+5V*%
X124828300Y-138163300D03*
%TD*%
D13*
%TO.P,C1,2*%
%TO.N,GND*%
X137021700Y-135851900D03*
D14*
%TO.P,C1,1*%
%TO.N,+3.3V*%
X135521700Y-135851900D03*
%TD*%
%TO.P,R4,2*%
%TO.N,Net-(Q2-Pad3)*%
%TA.AperFunction,SMDPad,CuDef*%
G36*
G01*
X84975000Y-63062500D02*
X84975000Y-63537500D01*
G75*
G02*
X84737500Y-63775000I-237500J0D01*
G01*
X84237500Y-63775000D01*
G75*
G02*
X84000000Y-63537500I0J237500D01*
G01*
X84000000Y-63062500D01*
G75*
G02*
X84237500Y-62825000I237500J0D01*
G01*
X84737500Y-62825000D01*
G75*
G02*
X84975000Y-63062500I0J-237500D01*
G01*
G37*
%TD.AperFunction*%
%TO.P,R4,1*%
%TO.N,Net-(Q4-Pad2)*%
%TA.AperFunction,SMDPad,CuDef*%
G36*
G01*
X86800000Y-63062500D02*
X86800000Y-63537500D01*
G75*
G02*
X86562500Y-63775000I-237500J0D01*
G01*
X86062500Y-63775000D01*
G75*
G02*
X85825000Y-63537500I0J237500D01*
G01*
X85825000Y-63062500D01*
G75*
G02*
X86062500Y-62825000I237500J0D01*
G01*
X86562500Y-62825000D01*
G75*
G02*
X86800000Y-63062500I0J-237500D01*
G01*
G37*
%TD.AperFunction*%
%TD*%
%TO.P,R3,2*%
%TO.N,Net-(Q1-Pad3)*%
%TA.AperFunction,SMDPad,CuDef*%
G36*
G01*
X96262000Y-31830000D02*
X96262000Y-32305000D01*
G75*
G02*
X96024500Y-32542500I-237500J0D01*
G01*
X95524500Y-32542500D01*
G75*
G02*
X95287000Y-32305000I0J237500D01*
G01*
X95287000Y-31830000D01*
G75*
G02*
X95524500Y-31592500I237500J0D01*
G01*
X96024500Y-31592500D01*
G75*
G02*
X96262000Y-31830000I0J-237500D01*
G01*
G37*
%TD.AperFunction*%
%TO.P,R3,1*%
%TO.N,Net-(Q3-Pad2)*%
%TA.AperFunction,SMDPad,CuDef*%
G36*
G01*
X98087000Y-31830000D02*
X98087000Y-32305000D01*
G75*
G02*
X97849500Y-32542500I-237500J0D01*
G01*
X97349500Y-32542500D01*
G75*
G02*
X97112000Y-32305000I0J237500D01*
G01*
X97112000Y-31830000D01*
G75*
G02*
X97349500Y-31592500I237500J0D01*
G01*
X97849500Y-31592500D01*
G75*
G02*
X98087000Y-31830000I0J-237500D01*
G01*
G37*
%TD.AperFunction*%
%TD*%
%TO.P,R2,2*%
%TO.N,Net-(Q2-Pad1)*%
%TA.AperFunction,SMDPad,CuDef*%
G36*
G01*
X89275000Y-63062500D02*
X89275000Y-63537500D01*
G75*
G02*
X89037500Y-63775000I-237500J0D01*
G01*
X88537500Y-63775000D01*
G75*
G02*
X88300000Y-63537500I0J237500D01*
G01*
X88300000Y-63062500D01*
G75*
G02*
X88537500Y-62825000I237500J0D01*
G01*
X89037500Y-62825000D01*
G75*
G02*
X89275000Y-63062500I0J-237500D01*
G01*
G37*
%TD.AperFunction*%
%TO.P,R2,1*%
%TO.N,+5V*%
%TA.AperFunction,SMDPad,CuDef*%
G36*
G01*
X91100000Y-63062500D02*
X91100000Y-63537500D01*
G75*
G02*
X90862500Y-63775000I-237500J0D01*
G01*
X90362500Y-63775000D01*
G75*
G02*
X90125000Y-63537500I0J237500D01*
G01*
X90125000Y-63062500D01*
G75*
G02*
X90362500Y-62825000I237500J0D01*
G01*
X90862500Y-62825000D01*
G75*
G02*
X91100000Y-63062500I0J-237500D01*
G01*
G37*
%TD.AperFunction*%
%TD*%
%TO.P,R1,2*%
%TO.N,Net-(Q1-Pad1)*%
%TA.AperFunction,SMDPad,CuDef*%
G36*
G01*
X84281000Y-26610500D02*
X84756000Y-26610500D01*
G75*
G02*
X84993500Y-26848000I0J-237500D01*
G01*
X84993500Y-27348000D01*
G75*
G02*
X84756000Y-27585500I-237500J0D01*
G01*
X84281000Y-27585500D01*
G75*
G02*
X84043500Y-27348000I0J237500D01*
G01*
X84043500Y-26848000D01*
G75*
G02*
X84281000Y-26610500I237500J0D01*
G01*
G37*
%TD.AperFunction*%
%TO.P,R1,1*%
%TO.N,+5V*%
%TA.AperFunction,SMDPad,CuDef*%
G36*
G01*
X84281000Y-24785500D02*
X84756000Y-24785500D01*
G75*
G02*
X84993500Y-25023000I0J-237500D01*
G01*
X84993500Y-25523000D01*
G75*
G02*
X84756000Y-25760500I-237500J0D01*
G01*
X84281000Y-25760500D01*
G75*
G02*
X84043500Y-25523000I0J237500D01*
G01*
X84043500Y-25023000D01*
G75*
G02*
X84281000Y-24785500I237500J0D01*
G01*
G37*
%TD.AperFunction*%
%TD*%
%TO.P,D4,2*%
%TO.N,Net-(D4-Pad2)*%
%TA.AperFunction,SMDPad,CuDef*%
G36*
G01*
X86038000Y-75388500D02*
X83888000Y-75388500D01*
G75*
G02*
X83638000Y-75138500I0J250000D01*
G01*
X83638000Y-74213500D01*
G75*
G02*
X83888000Y-73963500I250000J0D01*
G01*
X86038000Y-73963500D01*
G75*
G02*
X86288000Y-74213500I0J-250000D01*
G01*
X86288000Y-75138500D01*
G75*
G02*
X86038000Y-75388500I-250000J0D01*
G01*
G37*
%TD.AperFunction*%
%TO.P,D4,1*%
%TO.N,Net-(D4-Pad1)*%
%TA.AperFunction,SMDPad,CuDef*%
G36*
G01*
X86038000Y-78363500D02*
X83888000Y-78363500D01*
G75*
G02*
X83638000Y-78113500I0J250000D01*
G01*
X83638000Y-77188500D01*
G75*
G02*
X83888000Y-76938500I250000J0D01*
G01*
X86038000Y-76938500D01*
G75*
G02*
X86288000Y-77188500I0J-250000D01*
G01*
X86288000Y-78113500D01*
G75*
G02*
X86038000Y-78363500I-250000J0D01*
G01*
G37*
%TD.AperFunction*%
%TD*%
%TO.P,D3,2*%
%TO.N,Net-(D3-Pad2)*%
%TA.AperFunction,SMDPad,CuDef*%
G36*
G01*
X85784000Y-40246000D02*
X83634000Y-40246000D01*
G75*
G02*
X83384000Y-39996000I0J250000D01*
G01*
X83384000Y-39071000D01*
G75*
G02*
X83634000Y-38821000I250000J0D01*
G01*
X85784000Y-38821000D01*
G75*
G02*
X86034000Y-39071000I0J-250000D01*
G01*
X86034000Y-39996000D01*
G75*
G02*
X85784000Y-40246000I-250000J0D01*
G01*
G37*
%TD.AperFunction*%
%TO.P,D3,1*%
%TO.N,Net-(D3-Pad1)*%
%TA.AperFunction,SMDPad,CuDef*%
G36*
G01*
X85784000Y-43221000D02*
X83634000Y-43221000D01*
G75*
G02*
X83384000Y-42971000I0J250000D01*
G01*
X83384000Y-42046000D01*
G75*
G02*
X83634000Y-41796000I250000J0D01*
G01*
X85784000Y-41796000D01*
G75*
G02*
X86034000Y-42046000I0J-250000D01*
G01*
X86034000Y-42971000D01*
G75*
G02*
X85784000Y-43221000I-250000J0D01*
G01*
G37*
%TD.AperFunction*%
%TD*%
%TO.P,D2,2*%
%TO.N,Net-(D2-Pad2)*%
%TA.AperFunction,SMDPad,CuDef*%
G36*
G01*
X102225000Y-71742000D02*
X100975000Y-71742000D01*
G75*
G02*
X100725000Y-71492000I0J250000D01*
G01*
X100725000Y-70567000D01*
G75*
G02*
X100975000Y-70317000I250000J0D01*
G01*
X102225000Y-70317000D01*
G75*
G02*
X102475000Y-70567000I0J-250000D01*
G01*
X102475000Y-71492000D01*
G75*
G02*
X102225000Y-71742000I-250000J0D01*
G01*
G37*
%TD.AperFunction*%
%TO.P,D2,1*%
%TO.N,GP11*%
%TA.AperFunction,SMDPad,CuDef*%
G36*
G01*
X102225000Y-74717000D02*
X100975000Y-74717000D01*
G75*
G02*
X100725000Y-74467000I0J250000D01*
G01*
X100725000Y-73542000D01*
G75*
G02*
X100975000Y-73292000I250000J0D01*
G01*
X102225000Y-73292000D01*
G75*
G02*
X102475000Y-73542000I0J-250000D01*
G01*
X102475000Y-74467000D01*
G75*
G02*
X102225000Y-74717000I-250000J0D01*
G01*
G37*
%TD.AperFunction*%
%TD*%
%TO.P,D1,2*%
%TO.N,Net-(D1-Pad2)*%
%TA.AperFunction,SMDPad,CuDef*%
G36*
G01*
X95240000Y-39701500D02*
X93990000Y-39701500D01*
G75*
G02*
X93740000Y-39451500I0J250000D01*
G01*
X93740000Y-38526500D01*
G75*
G02*
X93990000Y-38276500I250000J0D01*
G01*
X95240000Y-38276500D01*
G75*
G02*
X95490000Y-38526500I0J-250000D01*
G01*
X95490000Y-39451500D01*
G75*
G02*
X95240000Y-39701500I-250000J0D01*
G01*
G37*
%TD.AperFunction*%
%TO.P,D1,1*%
%TO.N,GP10*%
%TA.AperFunction,SMDPad,CuDef*%
G36*
G01*
X95240000Y-42676500D02*
X93990000Y-42676500D01*
G75*
G02*
X93740000Y-42426500I0J250000D01*
G01*
X93740000Y-41501500D01*
G75*
G02*
X93990000Y-41251500I250000J0D01*
G01*
X95240000Y-41251500D01*
G75*
G02*
X95490000Y-41501500I0J-250000D01*
G01*
X95490000Y-42426500D01*
G75*
G02*
X95240000Y-42676500I-250000J0D01*
G01*
G37*
%TD.AperFunction*%
%TD*%
D15*
%TO.P,K2,11*%
%TO.N,Motor+*%
X78970000Y-73056000D03*
%TO.P,K2,A2*%
%TO.N,Net-(D4-Pad1)*%
X76970000Y-79056000D03*
%TO.P,K2,12*%
%TO.N,GND1*%
X64770000Y-79056000D03*
%TO.P,K2,14*%
%TO.N,+12V*%
X64770000Y-67056000D03*
%TO.P,K2,A1*%
%TO.N,Net-(D4-Pad2)*%
X76970000Y-67056000D03*
%TD*%
%TO.P,K1,11*%
%TO.N,Motor-*%
X78716000Y-36861000D03*
%TO.P,K1,A2*%
%TO.N,Net-(D3-Pad1)*%
X76716000Y-42861000D03*
%TO.P,K1,12*%
%TO.N,GND1*%
X64516000Y-42861000D03*
%TO.P,K1,14*%
%TO.N,+12V*%
X64516000Y-30861000D03*
%TO.P,K1,A1*%
%TO.N,Net-(D3-Pad2)*%
X76716000Y-30861000D03*
%TD*%
D16*
%TO.P,Q4,1*%
%TO.N,Net-(D4-Pad1)*%
X95377000Y-76962000D03*
D17*
%TO.P,Q4,3*%
%TO.N,GND*%
X95377000Y-74422000D03*
%TO.P,Q4,2*%
%TO.N,Net-(Q4-Pad2)*%
X95377000Y-75692000D03*
%TD*%
D16*
%TO.P,Q3,1*%
%TO.N,Net-(D3-Pad1)*%
X103949500Y-33210500D03*
D17*
%TO.P,Q3,3*%
%TO.N,GND*%
X103949500Y-30670500D03*
%TO.P,Q3,2*%
%TO.N,Net-(Q3-Pad2)*%
X103949500Y-31940500D03*
%TD*%
D18*
%TO.P,Q2,4*%
%TO.N,Net-(D4-Pad2)*%
X83947000Y-69596000D03*
%TO.P,Q2,3*%
%TO.N,Net-(Q2-Pad3)*%
X83947000Y-67056000D03*
%TO.P,Q2,2*%
%TO.N,Net-(D2-Pad2)*%
X91567000Y-67056000D03*
D19*
%TO.P,Q2,1*%
%TO.N,Net-(Q2-Pad1)*%
X91567000Y-69596000D03*
%TD*%
D18*
%TO.P,Q1,4*%
%TO.N,Net-(D3-Pad2)*%
X91948000Y-31242000D03*
%TO.P,Q1,3*%
%TO.N,Net-(Q1-Pad3)*%
X91948000Y-33782000D03*
%TO.P,Q1,2*%
%TO.N,Net-(D1-Pad2)*%
X84328000Y-33782000D03*
D19*
%TO.P,Q1,1*%
%TO.N,Net-(Q1-Pad1)*%
X84328000Y-31242000D03*
%TD*%
D20*
%TO.P,J9,2*%
%TO.N,+3.3V*%
X145948400Y-28816300D03*
D21*
%TO.P,J9,1*%
%TO.N,+3.3V_Pico*%
X148488400Y-28816300D03*
%TD*%
D22*
%TO.P,J8,2*%
%TO.N,Motor+*%
X67360800Y-154889200D03*
D23*
%TO.P,J8,1*%
%TO.N,Motor-*%
X62280800Y-154889200D03*
%TD*%
D22*
%TO.P,J7,2*%
%TO.N,+12V*%
X116471700Y-24244300D03*
D23*
%TO.P,J7,1*%
%TO.N,GND1*%
X121551700Y-24244300D03*
%TD*%
D20*
%TO.P,J6,2*%
%TO.N,+5V*%
X100685600Y-63080900D03*
D21*
%TO.P,J6,1*%
%TO.N,Net-(D4-Pad2)*%
X98145600Y-63080900D03*
%TD*%
D20*
%TO.P,J4,2*%
%TO.N,+5V*%
X94107000Y-25781000D03*
D21*
%TO.P,J4,1*%
%TO.N,Net-(D3-Pad2)*%
X96647000Y-25781000D03*
%TD*%
D20*
%TO.P,J5,6*%
%TO.N,+5V*%
X103000000Y-41300000D03*
%TO.P,J5,5*%
%TO.N,Net-(J5-Pad5)*%
X103000000Y-43840000D03*
%TO.P,J5,4*%
%TO.N,Net-(J5-Pad4)*%
X103000000Y-46380000D03*
%TO.P,J5,3*%
%TO.N,GP11*%
X103000000Y-48920000D03*
%TO.P,J5,2*%
%TO.N,GP10*%
X103000000Y-51460000D03*
D21*
%TO.P,J5,1*%
%TO.N,GND*%
X103000000Y-54000000D03*
%TD*%
D20*
%TO.P,J2,8*%
%TO.N,Net-(J2-Pad8)*%
X96460000Y-108380000D03*
%TO.P,J2,7*%
%TO.N,GP4*%
X99000000Y-108380000D03*
%TO.P,J2,6*%
%TO.N,GP7*%
X96460000Y-110920000D03*
%TO.P,J2,5*%
%TO.N,GP6*%
X99000000Y-110920000D03*
%TO.P,J2,4*%
%TO.N,GP14*%
X96460000Y-113460000D03*
%TO.P,J2,3*%
%TO.N,GP17*%
X99000000Y-113460000D03*
%TO.P,J2,2*%
%TO.N,+3.3V*%
X96460000Y-116000000D03*
D21*
%TO.P,J2,1*%
%TO.N,GND*%
X99000000Y-116000000D03*
%TD*%
D22*
%TO.P,Screw_Terminal2,2*%
%TO.N,GND*%
X152100000Y-145640000D03*
D23*
%TO.P,Screw_Terminal2,1*%
%TO.N,+3.3V*%
X152100000Y-140560000D03*
%TD*%
D24*
%TO.P,U2,4*%
%TO.N,N/C*%
X135458200Y-153835100D03*
D25*
%TO.P,U2,3*%
%TO.N,+5V*%
X133146800Y-147434300D03*
%TO.P,U2,2*%
%TO.N,+3.3V*%
X135458200Y-147434300D03*
%TO.P,U2,1*%
%TO.N,GND*%
X137769600Y-147434300D03*
%TD*%
D20*
%TO.P,U1,43*%
%TO.N,Net-(U1-Pad43)*%
X139540000Y-83400000D03*
D26*
X139540000Y-84300000D03*
D21*
%TO.P,U1,42*%
%TO.N,Net-(U1-Pad42)*%
X137000000Y-83400000D03*
D26*
X137000000Y-84300000D03*
D20*
%TO.P,U1,41*%
%TO.N,Net-(U1-Pad41)*%
X134460000Y-83400000D03*
D26*
X134460000Y-84300000D03*
D27*
%TO.P,U1,21*%
%TO.N,Net-(U1-Pad21)*%
X146790000Y-83630000D03*
%TO.P,U1,22*%
%TO.N,GP17*%
X146790000Y-81090000D03*
%TO.P,U1,23*%
%TO.N,Net-(U1-Pad23)*%
X146790000Y-78550000D03*
%TO.P,U1,24*%
%TO.N,Net-(U1-Pad24)*%
X146790000Y-76010000D03*
%TO.P,U1,25*%
%TO.N,Net-(U1-Pad25)*%
X146790000Y-73470000D03*
%TO.P,U1,26*%
%TO.N,Net-(U1-Pad26)*%
X146790000Y-70930000D03*
%TO.P,U1,27*%
%TO.N,GP21*%
X146790000Y-68390000D03*
%TO.P,U1,28*%
%TO.N,Net-(U1-Pad28)*%
X146790000Y-65850000D03*
%TO.P,U1,29*%
%TO.N,GP22*%
X146790000Y-63310000D03*
%TO.P,U1,30*%
%TO.N,Net-(U1-Pad30)*%
X146790000Y-60770000D03*
%TO.P,U1,31*%
%TO.N,GP26*%
X146790000Y-58230000D03*
%TO.P,U1,32*%
%TO.N,GP27*%
X146790000Y-55690000D03*
%TO.P,U1,33*%
%TO.N,Net-(U1-Pad33)*%
X146790000Y-53150000D03*
%TO.P,U1,34*%
%TO.N,GP28*%
X146790000Y-50610000D03*
%TO.P,U1,35*%
%TO.N,Net-(U1-Pad35)*%
X146790000Y-48070000D03*
%TO.P,U1,36*%
%TO.N,3.3V*%
X146790000Y-45530000D03*
%TO.P,U1,37*%
%TO.N,Net-(U1-Pad37)*%
X146790000Y-42990000D03*
%TO.P,U1,38*%
%TO.N,Net-(U1-Pad38)*%
X146790000Y-40450000D03*
%TO.P,U1,39*%
%TO.N,+3.3V_Pico*%
X146790000Y-37910000D03*
%TO.P,U1,40*%
%TO.N,Net-(U1-Pad40)*%
X146790000Y-35370000D03*
%TO.P,U1,20*%
%TO.N,Net-(U1-Pad20)*%
X127210000Y-83630000D03*
%TO.P,U1,19*%
%TO.N,GP14*%
X127210000Y-81090000D03*
%TO.P,U1,18*%
%TO.N,GND*%
X127210000Y-78550000D03*
%TO.P,U1,17*%
%TO.N,GP13*%
X127210000Y-76010000D03*
%TO.P,U1,16*%
%TO.N,GP12*%
X127210000Y-73470000D03*
%TO.P,U1,15*%
%TO.N,GP11*%
X127210000Y-70930000D03*
%TO.P,U1,14*%
%TO.N,GP10*%
X127210000Y-68390000D03*
%TO.P,U1,13*%
%TO.N,Net-(U1-Pad13)*%
X127210000Y-65850000D03*
%TO.P,U1,12*%
%TO.N,Net-(U1-Pad12)*%
X127210000Y-63310000D03*
%TO.P,U1,11*%
%TO.N,Net-(U1-Pad11)*%
X127210000Y-60770000D03*
%TO.P,U1,10*%
%TO.N,GP7*%
X127210000Y-58230000D03*
%TO.P,U1,9*%
%TO.N,GP6*%
X127210000Y-55690000D03*
%TO.P,U1,8*%
%TO.N,Net-(U1-Pad8)*%
X127210000Y-53150000D03*
%TO.P,U1,7*%
%TO.N,Net-(U1-Pad7)*%
X127210000Y-50610000D03*
%TO.P,U1,6*%
%TO.N,GP4*%
X127210000Y-48070000D03*
%TO.P,U1,5*%
%TO.N,Net-(U1-Pad5)*%
X127210000Y-45530000D03*
%TO.P,U1,4*%
%TO.N,Net-(U1-Pad4)*%
X127210000Y-42990000D03*
%TO.P,U1,3*%
%TO.N,Net-(U1-Pad3)*%
X127210000Y-40450000D03*
%TO.P,U1,2*%
%TO.N,Net-(U1-Pad2)*%
X127210000Y-37910000D03*
%TO.P,U1,1*%
%TO.N,Net-(U1-Pad1)*%
X127210000Y-35370000D03*
D20*
%TO.P,U1,40*%
%TO.N,Net-(U1-Pad40)*%
X145890000Y-35370000D03*
%TO.P,U1,39*%
%TO.N,+3.3V_Pico*%
X145890000Y-37910000D03*
D21*
%TO.P,U1,38*%
%TO.N,Net-(U1-Pad38)*%
X145890000Y-40450000D03*
D20*
%TO.P,U1,37*%
%TO.N,Net-(U1-Pad37)*%
X145890000Y-42990000D03*
%TO.P,U1,36*%
%TO.N,3.3V*%
X145890000Y-45530000D03*
%TO.P,U1,35*%
%TO.N,Net-(U1-Pad35)*%
X145890000Y-48070000D03*
%TO.P,U1,34*%
%TO.N,GP28*%
X145890000Y-50610000D03*
D21*
%TO.P,U1,33*%
%TO.N,Net-(U1-Pad33)*%
X145890000Y-53150000D03*
D20*
%TO.P,U1,32*%
%TO.N,GP27*%
X145890000Y-55690000D03*
%TO.P,U1,31*%
%TO.N,GP26*%
X145890000Y-58230000D03*
%TO.P,U1,30*%
%TO.N,Net-(U1-Pad30)*%
X145890000Y-60770000D03*
%TO.P,U1,29*%
%TO.N,GP22*%
X145890000Y-63310000D03*
D21*
%TO.P,U1,28*%
%TO.N,Net-(U1-Pad28)*%
X145890000Y-65850000D03*
D20*
%TO.P,U1,27*%
%TO.N,GP21*%
X145890000Y-68390000D03*
%TO.P,U1,26*%
%TO.N,Net-(U1-Pad26)*%
X145890000Y-70930000D03*
%TO.P,U1,25*%
%TO.N,Net-(U1-Pad25)*%
X145890000Y-73470000D03*
%TO.P,U1,24*%
%TO.N,Net-(U1-Pad24)*%
X145890000Y-76010000D03*
D21*
%TO.P,U1,23*%
%TO.N,Net-(U1-Pad23)*%
X145890000Y-78550000D03*
D20*
%TO.P,U1,22*%
%TO.N,GP17*%
X145890000Y-81090000D03*
%TO.P,U1,21*%
%TO.N,Net-(U1-Pad21)*%
X145890000Y-83630000D03*
%TO.P,U1,20*%
%TO.N,Net-(U1-Pad20)*%
X128110000Y-83630000D03*
%TO.P,U1,19*%
%TO.N,GP14*%
X128110000Y-81090000D03*
D21*
%TO.P,U1,18*%
%TO.N,GND*%
X128110000Y-78550000D03*
D20*
%TO.P,U1,17*%
%TO.N,GP13*%
X128110000Y-76010000D03*
%TO.P,U1,16*%
%TO.N,GP12*%
X128110000Y-73470000D03*
%TO.P,U1,15*%
%TO.N,GP11*%
X128110000Y-70930000D03*
%TO.P,U1,14*%
%TO.N,GP10*%
X128110000Y-68390000D03*
D21*
%TO.P,U1,13*%
%TO.N,Net-(U1-Pad13)*%
X128110000Y-65850000D03*
D20*
%TO.P,U1,12*%
%TO.N,Net-(U1-Pad12)*%
X128110000Y-63310000D03*
%TO.P,U1,11*%
%TO.N,Net-(U1-Pad11)*%
X128110000Y-60770000D03*
%TO.P,U1,10*%
%TO.N,GP7*%
X128110000Y-58230000D03*
%TO.P,U1,9*%
%TO.N,GP6*%
X128110000Y-55690000D03*
D21*
%TO.P,U1,8*%
%TO.N,Net-(U1-Pad8)*%
X128110000Y-53150000D03*
D20*
%TO.P,U1,7*%
%TO.N,Net-(U1-Pad7)*%
X128110000Y-50610000D03*
%TO.P,U1,6*%
%TO.N,GP4*%
X128110000Y-48070000D03*
%TO.P,U1,5*%
%TO.N,Net-(U1-Pad5)*%
X128110000Y-45530000D03*
%TO.P,U1,4*%
%TO.N,Net-(U1-Pad4)*%
X128110000Y-42990000D03*
D21*
%TO.P,U1,3*%
%TO.N,Net-(U1-Pad3)*%
X128110000Y-40450000D03*
D20*
%TO.P,U1,2*%
%TO.N,Net-(U1-Pad2)*%
X128110000Y-37910000D03*
%TO.P,U1,1*%
%TO.N,Net-(U1-Pad1)*%
X128110000Y-35370000D03*
%TD*%
D28*
%TO.P,J1,7*%
%TO.N,GP27*%
X152600000Y-133440000D03*
%TO.P,J1,6*%
%TO.N,GP26*%
X152600000Y-130900000D03*
%TO.P,J1,5*%
%TO.N,GP22*%
X152600000Y-128360000D03*
%TO.P,J1,4*%
%TO.N,GP21*%
X152600000Y-125820000D03*
%TO.P,J1,3*%
%TO.N,GP13*%
X152600000Y-123280000D03*
%TO.P,J1,2*%
%TO.N,GP12*%
X152600000Y-120740000D03*
D29*
%TO.P,J1,1*%
%TO.N,3.3V*%
X152600000Y-118200000D03*
%TD*%
D22*
%TO.P,Screw_Terminal1,2*%
%TO.N,GND*%
X60096400Y-133019800D03*
D23*
%TO.P,Screw_Terminal1,1*%
%TO.N,+5V*%
X60096400Y-127939800D03*
%TD*%
D30*
%TO.N,GP4*%
X117725000Y-65851485D03*
%TO.N,GP7*%
X117800000Y-93800000D03*
%TO.N,GP6*%
X116012653Y-59987347D03*
%TO.N,GP14*%
X98412653Y-117787347D03*
%TO.N,GND*%
X103000000Y-56000000D03*
X131000000Y-137000000D03*
X98000000Y-74300000D03*
X106700000Y-30400000D03*
X130200000Y-79600000D03*
X141706600Y-120497600D03*
X141732000Y-128905000D03*
%TO.N,GP17*%
X142800000Y-81000000D03*
%TO.N,GP22*%
X150444200Y-126204200D03*
X140462000Y-124485400D03*
%TO.N,GP21*%
X151725000Y-68400000D03*
%TO.N,GP12*%
X142500000Y-112109600D03*
%TO.N,GP10*%
X104987347Y-53012653D03*
X115000000Y-60000000D03*
X92800000Y-43175000D03*
%TD*%
D31*
%TO.N,GP4*%
X117600000Y-89780000D02*
X99000000Y-108380000D01*
X117600000Y-65976485D02*
X117600000Y-89780000D01*
X117725000Y-65851485D02*
X117600000Y-65976485D01*
%TO.N,GP7*%
X117800000Y-93800000D02*
X115900000Y-93800000D01*
X115900000Y-93800000D02*
X100100000Y-109600000D01*
X97780000Y-109600000D02*
X96460000Y-110920000D01*
X100100000Y-109600000D02*
X97780000Y-109600000D01*
%TO.N,GP6*%
X128110000Y-55690000D02*
X124290000Y-55690000D01*
X124290000Y-55690000D02*
X122800000Y-54200000D01*
X121800000Y-54200000D02*
X116012653Y-59987347D01*
X122800000Y-54200000D02*
X121800000Y-54200000D01*
%TO.N,GP14*%
X129490000Y-81090000D02*
X128110000Y-81090000D01*
X129800000Y-81400000D02*
X129490000Y-81090000D01*
X129800000Y-89400000D02*
X129800000Y-81400000D01*
X101412653Y-117787347D02*
X129800000Y-89400000D01*
X98412653Y-117787347D02*
X101412653Y-117787347D01*
%TO.N,GND*%
X103000000Y-54000000D02*
X103000000Y-56000000D01*
X60096400Y-133019800D02*
X61019800Y-133019800D01*
X130663300Y-136663300D02*
X131000000Y-137000000D01*
X124828300Y-136663300D02*
X130663300Y-136663300D01*
X137769600Y-136599800D02*
X137021700Y-135851900D01*
X137769600Y-147434300D02*
X137769600Y-136599800D01*
X97878000Y-74422000D02*
X98000000Y-74300000D01*
X95377000Y-74422000D02*
X97878000Y-74422000D01*
X106429500Y-30670500D02*
X106700000Y-30400000D01*
X103949500Y-30670500D02*
X106429500Y-30670500D01*
X129150000Y-78550000D02*
X130200000Y-79600000D01*
X128110000Y-78550000D02*
X129150000Y-78550000D01*
X140058800Y-120497600D02*
X141706600Y-120497600D01*
X141706600Y-120497600D02*
X141706600Y-120497600D01*
X141503400Y-128905000D02*
X141503400Y-128905000D01*
X140069900Y-128905000D02*
X141732000Y-128905000D01*
%TO.N,+5V*%
X124828300Y-138163300D02*
X124828300Y-139171700D01*
X124828300Y-139171700D02*
X119000000Y-145000000D01*
X80145900Y-145000000D02*
X78237200Y-146908700D01*
X119000000Y-145000000D02*
X80145900Y-145000000D01*
X78237200Y-146080600D02*
X60096400Y-127939800D01*
X78237200Y-146908700D02*
X78237200Y-146080600D01*
X133146800Y-146481800D02*
X124828300Y-138163300D01*
X133146800Y-147434300D02*
X133146800Y-146481800D01*
X60096400Y-127939800D02*
X60096400Y-65403600D01*
X63159500Y-62340500D02*
X90868500Y-62340500D01*
X60096400Y-65403600D02*
X63159500Y-62340500D01*
X94359500Y-62340500D02*
X95200000Y-61500000D01*
X99104700Y-61500000D02*
X100685600Y-63080900D01*
X93599000Y-25273000D02*
X94107000Y-25781000D01*
X84518500Y-25273000D02*
X93599000Y-25273000D01*
X90612500Y-62787500D02*
X91059500Y-62340500D01*
X90612500Y-63300000D02*
X90612500Y-62787500D01*
X91059500Y-62340500D02*
X94359500Y-62340500D01*
X90868500Y-62340500D02*
X91059500Y-62340500D01*
X95200000Y-61500000D02*
X99104700Y-61500000D01*
X100685600Y-43614400D02*
X103000000Y-41300000D01*
X100685600Y-63080900D02*
X100685600Y-43614400D01*
%TO.N,GP17*%
X99000000Y-114000000D02*
X124800000Y-88200000D01*
X124800000Y-75234998D02*
X125234998Y-74800000D01*
X124800000Y-88200000D02*
X124800000Y-75234998D01*
X125234998Y-74800000D02*
X129400000Y-74800000D01*
X129400000Y-74800000D02*
X130600000Y-74800000D01*
X136800000Y-81000000D02*
X142800000Y-81000000D01*
X130600000Y-74800000D02*
X136800000Y-81000000D01*
%TO.N,GP26*%
X148800001Y-84805001D02*
X148513800Y-84805001D01*
X148865001Y-84740001D02*
X148800001Y-84805001D01*
X148865001Y-82519999D02*
X148865001Y-84740001D01*
X148800001Y-82265001D02*
X148513800Y-82265001D01*
X148865001Y-79979999D02*
X148865001Y-82200001D01*
X148513800Y-79914999D02*
X148800001Y-79914999D01*
X148800001Y-79725001D02*
X148513800Y-79725001D01*
X148865001Y-79660001D02*
X148800001Y-79725001D01*
X148865001Y-77439999D02*
X148865001Y-79660001D01*
X148513800Y-77374999D02*
X148800001Y-77374999D01*
X148800001Y-61945001D02*
X148513800Y-61945001D01*
X148865001Y-74899999D02*
X148865001Y-77120001D01*
X148800001Y-74645001D02*
X148513800Y-74645001D01*
X148865001Y-74580001D02*
X148800001Y-74645001D01*
X148865001Y-72359999D02*
X148865001Y-74580001D01*
X148513800Y-72294999D02*
X148800001Y-72294999D01*
X148800001Y-72105001D02*
X148513800Y-72105001D01*
X148865001Y-72040001D02*
X148800001Y-72105001D01*
X148865001Y-69819999D02*
X148865001Y-72040001D01*
X148800001Y-69754999D02*
X148865001Y-69819999D01*
X148865001Y-77120001D02*
X148800001Y-77185001D01*
X148513800Y-69565001D02*
X148513800Y-69754999D01*
X148865001Y-69500001D02*
X148800001Y-69565001D01*
X148513800Y-84805001D02*
X148513800Y-126813800D01*
X148513800Y-82454999D02*
X148800001Y-82454999D01*
X148800001Y-77185001D02*
X148513800Y-77185001D01*
X148865001Y-67279999D02*
X148865001Y-69500001D01*
X148513800Y-74645001D02*
X148513800Y-74834999D01*
X148513800Y-126813800D02*
X152600000Y-130900000D01*
X148513800Y-67214999D02*
X148800001Y-67214999D01*
X148513800Y-67025001D02*
X148513800Y-67214999D01*
X148865001Y-59659999D02*
X148865001Y-61880001D01*
X148865001Y-66960001D02*
X148800001Y-67025001D01*
X148800001Y-79914999D02*
X148865001Y-79979999D01*
X148513800Y-74834999D02*
X148800001Y-74834999D01*
X148513800Y-64674999D02*
X148800001Y-64674999D01*
X148513800Y-77185001D02*
X148513800Y-77374999D01*
X148800001Y-67214999D02*
X148865001Y-67279999D01*
X148800001Y-59594999D02*
X148865001Y-59659999D01*
X145890000Y-58230000D02*
X147254999Y-59594999D01*
X148513800Y-61945001D02*
X148513800Y-62134999D01*
X148800001Y-67025001D02*
X148513800Y-67025001D01*
X148800001Y-69565001D02*
X148513800Y-69565001D01*
X148513800Y-64485001D02*
X148513800Y-64674999D01*
X144779999Y-64485001D02*
X148513800Y-64485001D01*
X144714999Y-62199999D02*
X144714999Y-64420001D01*
X148800001Y-77374999D02*
X148865001Y-77439999D01*
X144779999Y-62134999D02*
X144714999Y-62199999D01*
X148513800Y-62134999D02*
X144779999Y-62134999D01*
X148513800Y-72105001D02*
X148513800Y-72294999D01*
X148865001Y-82200001D02*
X148800001Y-82265001D01*
X144714999Y-64420001D02*
X144779999Y-64485001D01*
X148865001Y-64739999D02*
X148865001Y-66960001D01*
X148513800Y-79725001D02*
X148513800Y-79914999D01*
X148800001Y-74834999D02*
X148865001Y-74899999D01*
X148513800Y-82265001D02*
X148513800Y-82454999D01*
X148800001Y-64674999D02*
X148865001Y-64739999D01*
X148800001Y-82454999D02*
X148865001Y-82519999D01*
X148513800Y-69754999D02*
X148800001Y-69754999D01*
X148865001Y-61880001D02*
X148800001Y-61945001D01*
X148800001Y-72294999D02*
X148865001Y-72359999D01*
X147254999Y-59594999D02*
X148800001Y-59594999D01*
%TO.N,GP22*%
X151550001Y-127310001D02*
X152600000Y-128360000D01*
X150444200Y-126204200D02*
X150444200Y-126204200D01*
X150444200Y-65682787D02*
X150444200Y-126204200D01*
X148071413Y-63310000D02*
X150444200Y-65682787D01*
X145890000Y-63310000D02*
X148071413Y-63310000D01*
X150444200Y-126204200D02*
X151550001Y-127310001D01*
X140462000Y-124485400D02*
X139623800Y-123647200D01*
X137236200Y-123647200D02*
X137109200Y-123520200D01*
X139623800Y-123647200D02*
X137236200Y-123647200D01*
%TO.N,GP21*%
X154400000Y-124020000D02*
X152600000Y-125820000D01*
X154400000Y-71075000D02*
X154400000Y-124020000D01*
X151725000Y-68400000D02*
X154400000Y-71075000D01*
%TO.N,GP12*%
X152600000Y-120740000D02*
X153460000Y-120740000D01*
X139707900Y-112109600D02*
X137083800Y-114733700D01*
X142500000Y-112109600D02*
X139707900Y-112109600D01*
%TO.N,3.3V*%
X151000000Y-116600000D02*
X152600000Y-118200000D01*
X151000000Y-49094998D02*
X151000000Y-116600000D01*
X147435002Y-45530000D02*
X151000000Y-49094998D01*
X145890000Y-45530000D02*
X147435002Y-45530000D01*
%TO.N,+3.3V*%
X135458200Y-135915400D02*
X135521700Y-135851900D01*
X135458200Y-147434300D02*
X135458200Y-135915400D01*
X135521700Y-135821700D02*
X135521700Y-135851900D01*
X113557919Y-134300000D02*
X134000000Y-134300000D01*
X96460000Y-117202081D02*
X113557919Y-134300000D01*
X96460000Y-116000000D02*
X96460000Y-117202081D01*
X134000000Y-134300000D02*
X135521700Y-135821700D01*
X143525001Y-31239699D02*
X145948400Y-28816300D01*
X143525001Y-92874999D02*
X143525001Y-31239699D01*
X135521700Y-100878300D02*
X143525001Y-92874999D01*
X135521700Y-135851900D02*
X135521700Y-100878300D01*
%TO.N,GP11*%
X108195500Y-74004500D02*
X117600000Y-64600000D01*
X101600000Y-74004500D02*
X108195500Y-74004500D01*
X117600000Y-64600000D02*
X124000000Y-71000000D01*
X128040000Y-71000000D02*
X128110000Y-70930000D01*
X124000000Y-71000000D02*
X128040000Y-71000000D01*
X117600000Y-63673002D02*
X117600000Y-64600000D01*
X103000000Y-49073002D02*
X117600000Y-63673002D01*
X103000000Y-48920000D02*
X103000000Y-49073002D01*
%TO.N,GP10*%
X123390000Y-68390000D02*
X128110000Y-68390000D01*
X115000000Y-60000000D02*
X123390000Y-68390000D01*
X93404000Y-43175000D02*
X94615000Y-41964000D01*
X92800000Y-43175000D02*
X93404000Y-43175000D01*
X103434694Y-51460000D02*
X103000000Y-51460000D01*
X104987347Y-53012653D02*
X103434694Y-51460000D01*
%TO.N,Net-(J3-PadS1)*%
X75167200Y-149618700D02*
X88307200Y-149618700D01*
%TO.N,+3.3V_Pico*%
X145890000Y-37910000D02*
X145410000Y-37910000D01*
X145890000Y-37910000D02*
X148590000Y-37910000D01*
X148590000Y-37910000D02*
X149000000Y-37500000D01*
X149000000Y-29327900D02*
X148488400Y-28816300D01*
X149000000Y-37500000D02*
X149000000Y-29327900D01*
%TO.N,Net-(D3-Pad2)*%
X84709000Y-38854000D02*
X84709000Y-39533500D01*
X96647000Y-26543000D02*
X91948000Y-31242000D01*
X96647000Y-25781000D02*
X96647000Y-26543000D01*
X91948000Y-31242000D02*
X90590000Y-32600000D01*
X90590000Y-32600000D02*
X82700000Y-32600000D01*
X80577500Y-34722500D02*
X84709000Y-38854000D01*
X82700000Y-32600000D02*
X80577500Y-34722500D01*
X76716000Y-30861000D02*
X80577500Y-34722500D01*
%TO.N,Net-(D4-Pad2)*%
X84963000Y-70612000D02*
X83947000Y-69596000D01*
X84963000Y-74676000D02*
X84963000Y-70612000D01*
X76970000Y-67056000D02*
X78614000Y-68700000D01*
X83051000Y-68700000D02*
X83947000Y-69596000D01*
X78614000Y-68700000D02*
X83051000Y-68700000D01*
%TO.N,GND1*%
X121551700Y-24244300D02*
X121551700Y-23451700D01*
X121194299Y-23094299D02*
X79905701Y-23094299D01*
X121551700Y-23451700D02*
X121194299Y-23094299D01*
X64516000Y-38484000D02*
X64516000Y-42861000D01*
X79905701Y-23094299D02*
X64516000Y-38484000D01*
%TO.N,Net-(D3-Pad1)*%
X84356500Y-42861000D02*
X84709000Y-42508500D01*
X76716000Y-42861000D02*
X84356500Y-42861000D01*
X85202010Y-43001510D02*
X84709000Y-42508500D01*
X103949500Y-35450500D02*
X103949500Y-33210500D01*
X95500000Y-43900000D02*
X103949500Y-35450500D01*
X86100500Y-43900000D02*
X95500000Y-43900000D01*
X84709000Y-42508500D02*
X86100500Y-43900000D01*
%TO.N,Net-(D4-Pad1)*%
X78375000Y-77651000D02*
X76970000Y-79056000D01*
X84963000Y-77651000D02*
X78375000Y-77651000D01*
X94688000Y-77651000D02*
X95377000Y-76962000D01*
X84963000Y-77651000D02*
X94688000Y-77651000D01*
%TO.N,Net-(Q1-Pad3)*%
X94060000Y-33782000D02*
X95774500Y-32067500D01*
X91948000Y-33782000D02*
X94060000Y-33782000D01*
%TO.N,Net-(D1-Pad2)*%
X89408000Y-33782000D02*
X94615000Y-38989000D01*
X84328000Y-33782000D02*
X89408000Y-33782000D01*
%TO.N,Net-(Q1-Pad1)*%
X84328000Y-27288500D02*
X84518500Y-27098000D01*
X84328000Y-31242000D02*
X84328000Y-27288500D01*
%TO.N,Net-(Q2-Pad3)*%
X84487500Y-66515500D02*
X83947000Y-67056000D01*
X84487500Y-63300000D02*
X84487500Y-66515500D01*
%TO.N,Net-(D2-Pad2)*%
X95540500Y-71029500D02*
X91567000Y-67056000D01*
X101600000Y-71029500D02*
X95540500Y-71029500D01*
%TO.N,Net-(Q2-Pad1)*%
X88787500Y-66816500D02*
X91567000Y-69596000D01*
X88787500Y-63300000D02*
X88787500Y-66816500D01*
%TO.N,Net-(Q3-Pad2)*%
X97726500Y-31940500D02*
X97599500Y-32067500D01*
X103949500Y-31940500D02*
X97726500Y-31940500D01*
%TO.N,Net-(Q4-Pad2)*%
X94377000Y-75692000D02*
X95377000Y-75692000D01*
X86312500Y-67627500D02*
X94377000Y-75692000D01*
X86312500Y-63300000D02*
X86312500Y-67627500D01*
%TO.N,Net-(D5-Pad2)*%
X137109200Y-128890700D02*
X137094900Y-128905000D01*
X137109200Y-125345200D02*
X137109200Y-128890700D01*
%TO.N,Net-(D6-Pad2)*%
X137083800Y-116558700D02*
X137083800Y-120497600D01*
%TD*%
M02*
