%TF.GenerationSoftware,KiCad,Pcbnew,(5.1.10-1-10_14)*%
%TF.CreationDate,2021-10-16T18:52:24-04:00*%
%TF.ProjectId,CC_PCB_V1,43435f50-4342-45f5-9631-2e6b69636164,10/13/2021*%
%TF.SameCoordinates,Original*%
%TF.FileFunction,Soldermask,Top*%
%TF.FilePolarity,Negative*%
%FSLAX46Y46*%
G04 Gerber Fmt 4.6, Leading zero omitted, Abs format (unit mm)*
G04 Created by KiCad (PCBNEW (5.1.10-1-10_14)) date 2021-10-16 18:52:24*
%MOMM*%
%LPD*%
G01*
G04 APERTURE LIST*
%ADD10C,0.300000*%
%ADD11C,0.500000*%
%ADD12C,3.276000*%
%ADD13C,1.428000*%
%ADD14R,1.428000X1.428000*%
%ADD15C,1.200000*%
%ADD16R,1.200000X1.200000*%
%ADD17C,3.000000*%
%ADD18R,1.500000X1.050000*%
%ADD19O,1.500000X1.050000*%
%ADD20C,1.260000*%
%ADD21R,1.260000X1.260000*%
%ADD22O,1.700000X1.700000*%
%ADD23R,1.700000X1.700000*%
%ADD24C,1.650000*%
%ADD25R,1.650000X1.650000*%
%ADD26R,3.098800X1.600200*%
%ADD27R,0.838200X1.600200*%
%ADD28R,1.700000X3.500000*%
%ADD29O,1.500000X1.500000*%
%ADD30O,1.800000X1.800000*%
%ADD31R,3.500000X1.700000*%
%ADD32C,2.100000*%
%ADD33R,2.100000X2.100000*%
G04 APERTURE END LIST*
D10*
X82214285Y-19078571D02*
X82214285Y-17578571D01*
X82571428Y-17578571D01*
X82785714Y-17650000D01*
X82928571Y-17792857D01*
X83000000Y-17935714D01*
X83071428Y-18221428D01*
X83071428Y-18435714D01*
X83000000Y-18721428D01*
X82928571Y-18864285D01*
X82785714Y-19007142D01*
X82571428Y-19078571D01*
X82214285Y-19078571D01*
X84285714Y-19007142D02*
X84142857Y-19078571D01*
X83857142Y-19078571D01*
X83714285Y-19007142D01*
X83642857Y-18864285D01*
X83642857Y-18292857D01*
X83714285Y-18150000D01*
X83857142Y-18078571D01*
X84142857Y-18078571D01*
X84285714Y-18150000D01*
X84357142Y-18292857D01*
X84357142Y-18435714D01*
X83642857Y-18578571D01*
X84928571Y-19007142D02*
X85071428Y-19078571D01*
X85357142Y-19078571D01*
X85500000Y-19007142D01*
X85571428Y-18864285D01*
X85571428Y-18792857D01*
X85500000Y-18650000D01*
X85357142Y-18578571D01*
X85142857Y-18578571D01*
X85000000Y-18507142D01*
X84928571Y-18364285D01*
X84928571Y-18292857D01*
X85000000Y-18150000D01*
X85142857Y-18078571D01*
X85357142Y-18078571D01*
X85500000Y-18150000D01*
X86214285Y-19078571D02*
X86214285Y-18078571D01*
X86214285Y-17578571D02*
X86142857Y-17650000D01*
X86214285Y-17721428D01*
X86285714Y-17650000D01*
X86214285Y-17578571D01*
X86214285Y-17721428D01*
X87571428Y-18078571D02*
X87571428Y-19292857D01*
X87500000Y-19435714D01*
X87428571Y-19507142D01*
X87285714Y-19578571D01*
X87071428Y-19578571D01*
X86928571Y-19507142D01*
X87571428Y-19007142D02*
X87428571Y-19078571D01*
X87142857Y-19078571D01*
X87000000Y-19007142D01*
X86928571Y-18935714D01*
X86857142Y-18792857D01*
X86857142Y-18364285D01*
X86928571Y-18221428D01*
X87000000Y-18150000D01*
X87142857Y-18078571D01*
X87428571Y-18078571D01*
X87571428Y-18150000D01*
X88285714Y-18078571D02*
X88285714Y-19078571D01*
X88285714Y-18221428D02*
X88357142Y-18150000D01*
X88500000Y-18078571D01*
X88714285Y-18078571D01*
X88857142Y-18150000D01*
X88928571Y-18292857D01*
X88928571Y-19078571D01*
X90785714Y-19078571D02*
X90785714Y-17578571D01*
X90785714Y-18150000D02*
X90928571Y-18078571D01*
X91214285Y-18078571D01*
X91357142Y-18150000D01*
X91428571Y-18221428D01*
X91500000Y-18364285D01*
X91500000Y-18792857D01*
X91428571Y-18935714D01*
X91357142Y-19007142D01*
X91214285Y-19078571D01*
X90928571Y-19078571D01*
X90785714Y-19007142D01*
X92000000Y-18078571D02*
X92357142Y-19078571D01*
X92714285Y-18078571D02*
X92357142Y-19078571D01*
X92214285Y-19435714D01*
X92142857Y-19507142D01*
X92000000Y-19578571D01*
X93285714Y-18935714D02*
X93357142Y-19007142D01*
X93285714Y-19078571D01*
X93214285Y-19007142D01*
X93285714Y-18935714D01*
X93285714Y-19078571D01*
X93285714Y-18150000D02*
X93357142Y-18221428D01*
X93285714Y-18292857D01*
X93214285Y-18221428D01*
X93285714Y-18150000D01*
X93285714Y-18292857D01*
X95142857Y-19078571D02*
X95142857Y-17578571D01*
X95500000Y-17578571D01*
X95714285Y-17650000D01*
X95857142Y-17792857D01*
X95928571Y-17935714D01*
X96000000Y-18221428D01*
X96000000Y-18435714D01*
X95928571Y-18721428D01*
X95857142Y-18864285D01*
X95714285Y-19007142D01*
X95500000Y-19078571D01*
X95142857Y-19078571D01*
X96500000Y-18078571D02*
X96857142Y-19078571D01*
X97214285Y-18078571D02*
X96857142Y-19078571D01*
X96714285Y-19435714D01*
X96642857Y-19507142D01*
X96500000Y-19578571D01*
X98000000Y-19078571D02*
X97857142Y-19007142D01*
X97785714Y-18864285D01*
X97785714Y-17578571D01*
X99214285Y-19078571D02*
X99214285Y-18292857D01*
X99142857Y-18150000D01*
X99000000Y-18078571D01*
X98714285Y-18078571D01*
X98571428Y-18150000D01*
X99214285Y-19007142D02*
X99071428Y-19078571D01*
X98714285Y-19078571D01*
X98571428Y-19007142D01*
X98500000Y-18864285D01*
X98500000Y-18721428D01*
X98571428Y-18578571D01*
X98714285Y-18507142D01*
X99071428Y-18507142D01*
X99214285Y-18435714D01*
X99928571Y-18078571D02*
X99928571Y-19078571D01*
X99928571Y-18221428D02*
X100000000Y-18150000D01*
X100142857Y-18078571D01*
X100357142Y-18078571D01*
X100500000Y-18150000D01*
X100571428Y-18292857D01*
X100571428Y-19078571D01*
X102928571Y-18292857D02*
X103142857Y-18364285D01*
X103214285Y-18435714D01*
X103285714Y-18578571D01*
X103285714Y-18792857D01*
X103214285Y-18935714D01*
X103142857Y-19007142D01*
X103000000Y-19078571D01*
X102428571Y-19078571D01*
X102428571Y-17578571D01*
X102928571Y-17578571D01*
X103071428Y-17650000D01*
X103142857Y-17721428D01*
X103214285Y-17864285D01*
X103214285Y-18007142D01*
X103142857Y-18150000D01*
X103071428Y-18221428D01*
X102928571Y-18292857D01*
X102428571Y-18292857D01*
X104571428Y-19078571D02*
X104571428Y-18292857D01*
X104500000Y-18150000D01*
X104357142Y-18078571D01*
X104071428Y-18078571D01*
X103928571Y-18150000D01*
X104571428Y-19007142D02*
X104428571Y-19078571D01*
X104071428Y-19078571D01*
X103928571Y-19007142D01*
X103857142Y-18864285D01*
X103857142Y-18721428D01*
X103928571Y-18578571D01*
X104071428Y-18507142D01*
X104428571Y-18507142D01*
X104571428Y-18435714D01*
X105500000Y-19078571D02*
X105357142Y-19007142D01*
X105285714Y-18864285D01*
X105285714Y-17578571D01*
X106285714Y-19078571D02*
X106142857Y-19007142D01*
X106071428Y-18864285D01*
X106071428Y-17578571D01*
X106857142Y-19078571D02*
X106857142Y-17578571D01*
X106857142Y-18150000D02*
X107000000Y-18078571D01*
X107285714Y-18078571D01*
X107428571Y-18150000D01*
X107500000Y-18221428D01*
X107571428Y-18364285D01*
X107571428Y-18792857D01*
X107500000Y-18935714D01*
X107428571Y-19007142D01*
X107285714Y-19078571D01*
X107000000Y-19078571D01*
X106857142Y-19007142D01*
X108857142Y-19078571D02*
X108857142Y-18292857D01*
X108785714Y-18150000D01*
X108642857Y-18078571D01*
X108357142Y-18078571D01*
X108214285Y-18150000D01*
X108857142Y-19007142D02*
X108714285Y-19078571D01*
X108357142Y-19078571D01*
X108214285Y-19007142D01*
X108142857Y-18864285D01*
X108142857Y-18721428D01*
X108214285Y-18578571D01*
X108357142Y-18507142D01*
X108714285Y-18507142D01*
X108857142Y-18435714D01*
X110214285Y-19007142D02*
X110071428Y-19078571D01*
X109785714Y-19078571D01*
X109642857Y-19007142D01*
X109571428Y-18935714D01*
X109500000Y-18792857D01*
X109500000Y-18364285D01*
X109571428Y-18221428D01*
X109642857Y-18150000D01*
X109785714Y-18078571D01*
X110071428Y-18078571D01*
X110214285Y-18150000D01*
X110857142Y-19078571D02*
X110857142Y-17578571D01*
X111000000Y-18507142D02*
X111428571Y-19078571D01*
X111428571Y-18078571D02*
X110857142Y-18650000D01*
X112142857Y-19007142D02*
X112142857Y-19078571D01*
X112071428Y-19221428D01*
X112000000Y-19292857D01*
X114357142Y-17578571D02*
X114357142Y-18650000D01*
X114285714Y-18864285D01*
X114142857Y-19007142D01*
X113928571Y-19078571D01*
X113785714Y-19078571D01*
X115714285Y-19078571D02*
X115714285Y-18292857D01*
X115642857Y-18150000D01*
X115500000Y-18078571D01*
X115214285Y-18078571D01*
X115071428Y-18150000D01*
X115714285Y-19007142D02*
X115571428Y-19078571D01*
X115214285Y-19078571D01*
X115071428Y-19007142D01*
X115000000Y-18864285D01*
X115000000Y-18721428D01*
X115071428Y-18578571D01*
X115214285Y-18507142D01*
X115571428Y-18507142D01*
X115714285Y-18435714D01*
X117071428Y-19007142D02*
X116928571Y-19078571D01*
X116642857Y-19078571D01*
X116500000Y-19007142D01*
X116428571Y-18935714D01*
X116357142Y-18792857D01*
X116357142Y-18364285D01*
X116428571Y-18221428D01*
X116500000Y-18150000D01*
X116642857Y-18078571D01*
X116928571Y-18078571D01*
X117071428Y-18150000D01*
X117928571Y-19078571D02*
X117785714Y-19007142D01*
X117714285Y-18935714D01*
X117642857Y-18792857D01*
X117642857Y-18364285D01*
X117714285Y-18221428D01*
X117785714Y-18150000D01*
X117928571Y-18078571D01*
X118142857Y-18078571D01*
X118285714Y-18150000D01*
X118357142Y-18221428D01*
X118428571Y-18364285D01*
X118428571Y-18792857D01*
X118357142Y-18935714D01*
X118285714Y-19007142D01*
X118142857Y-19078571D01*
X117928571Y-19078571D01*
X119071428Y-19078571D02*
X119071428Y-17578571D01*
X119071428Y-18150000D02*
X119214285Y-18078571D01*
X119500000Y-18078571D01*
X119642857Y-18150000D01*
X119714285Y-18221428D01*
X119785714Y-18364285D01*
X119785714Y-18792857D01*
X119714285Y-18935714D01*
X119642857Y-19007142D01*
X119500000Y-19078571D01*
X119214285Y-19078571D01*
X119071428Y-19007142D01*
X122428571Y-19078571D02*
X121928571Y-18364285D01*
X121571428Y-19078571D02*
X121571428Y-17578571D01*
X122142857Y-17578571D01*
X122285714Y-17650000D01*
X122357142Y-17721428D01*
X122428571Y-17864285D01*
X122428571Y-18078571D01*
X122357142Y-18221428D01*
X122285714Y-18292857D01*
X122142857Y-18364285D01*
X121571428Y-18364285D01*
X123285714Y-19078571D02*
X123142857Y-19007142D01*
X123071428Y-18935714D01*
X123000000Y-18792857D01*
X123000000Y-18364285D01*
X123071428Y-18221428D01*
X123142857Y-18150000D01*
X123285714Y-18078571D01*
X123500000Y-18078571D01*
X123642857Y-18150000D01*
X123714285Y-18221428D01*
X123785714Y-18364285D01*
X123785714Y-18792857D01*
X123714285Y-18935714D01*
X123642857Y-19007142D01*
X123500000Y-19078571D01*
X123285714Y-19078571D01*
X124428571Y-19078571D02*
X124428571Y-18078571D01*
X124428571Y-18221428D02*
X124500000Y-18150000D01*
X124642857Y-18078571D01*
X124857142Y-18078571D01*
X125000000Y-18150000D01*
X125071428Y-18292857D01*
X125071428Y-19078571D01*
X125071428Y-18292857D02*
X125142857Y-18150000D01*
X125285714Y-18078571D01*
X125500000Y-18078571D01*
X125642857Y-18150000D01*
X125714285Y-18292857D01*
X125714285Y-19078571D01*
X127000000Y-19007142D02*
X126857142Y-19078571D01*
X126571428Y-19078571D01*
X126428571Y-19007142D01*
X126357142Y-18864285D01*
X126357142Y-18292857D01*
X126428571Y-18150000D01*
X126571428Y-18078571D01*
X126857142Y-18078571D01*
X127000000Y-18150000D01*
X127071428Y-18292857D01*
X127071428Y-18435714D01*
X126357142Y-18578571D01*
X127928571Y-19078571D02*
X127785714Y-19007142D01*
X127714285Y-18935714D01*
X127642857Y-18792857D01*
X127642857Y-18364285D01*
X127714285Y-18221428D01*
X127785714Y-18150000D01*
X127928571Y-18078571D01*
X128142857Y-18078571D01*
X128285714Y-18150000D01*
X128357142Y-18221428D01*
X128428571Y-18364285D01*
X128428571Y-18792857D01*
X128357142Y-18935714D01*
X128285714Y-19007142D01*
X128142857Y-19078571D01*
X127928571Y-19078571D01*
X129142857Y-19007142D02*
X129142857Y-19078571D01*
X129071428Y-19221428D01*
X129000000Y-19292857D01*
X130928571Y-19078571D02*
X130928571Y-17578571D01*
X131285714Y-17578571D01*
X131500000Y-17650000D01*
X131642857Y-17792857D01*
X131714285Y-17935714D01*
X131785714Y-18221428D01*
X131785714Y-18435714D01*
X131714285Y-18721428D01*
X131642857Y-18864285D01*
X131500000Y-19007142D01*
X131285714Y-19078571D01*
X130928571Y-19078571D01*
X133071428Y-19078571D02*
X133071428Y-18292857D01*
X133000000Y-18150000D01*
X132857142Y-18078571D01*
X132571428Y-18078571D01*
X132428571Y-18150000D01*
X133071428Y-19007142D02*
X132928571Y-19078571D01*
X132571428Y-19078571D01*
X132428571Y-19007142D01*
X132357142Y-18864285D01*
X132357142Y-18721428D01*
X132428571Y-18578571D01*
X132571428Y-18507142D01*
X132928571Y-18507142D01*
X133071428Y-18435714D01*
X133785714Y-18078571D02*
X133785714Y-19078571D01*
X133785714Y-18221428D02*
X133857142Y-18150000D01*
X134000000Y-18078571D01*
X134214285Y-18078571D01*
X134357142Y-18150000D01*
X134428571Y-18292857D01*
X134428571Y-19078571D01*
X135142857Y-19078571D02*
X135142857Y-18078571D01*
X135142857Y-17578571D02*
X135071428Y-17650000D01*
X135142857Y-17721428D01*
X135214285Y-17650000D01*
X135142857Y-17578571D01*
X135142857Y-17721428D01*
X136428571Y-19007142D02*
X136285714Y-19078571D01*
X136000000Y-19078571D01*
X135857142Y-19007142D01*
X135785714Y-18864285D01*
X135785714Y-18292857D01*
X135857142Y-18150000D01*
X136000000Y-18078571D01*
X136285714Y-18078571D01*
X136428571Y-18150000D01*
X136500000Y-18292857D01*
X136500000Y-18435714D01*
X135785714Y-18578571D01*
X137357142Y-19078571D02*
X137214285Y-19007142D01*
X137142857Y-18864285D01*
X137142857Y-17578571D01*
X138928571Y-17578571D02*
X139285714Y-19078571D01*
X139571428Y-18007142D01*
X139857142Y-19078571D01*
X140214285Y-17578571D01*
X140785714Y-19078571D02*
X140785714Y-18078571D01*
X140785714Y-17578571D02*
X140714285Y-17650000D01*
X140785714Y-17721428D01*
X140857142Y-17650000D01*
X140785714Y-17578571D01*
X140785714Y-17721428D01*
X141714285Y-19078571D02*
X141571428Y-19007142D01*
X141500000Y-18864285D01*
X141500000Y-17578571D01*
X142928571Y-19007142D02*
X142785714Y-19078571D01*
X142500000Y-19078571D01*
X142357142Y-19007142D01*
X142285714Y-18935714D01*
X142214285Y-18792857D01*
X142214285Y-18364285D01*
X142285714Y-18221428D01*
X142357142Y-18150000D01*
X142500000Y-18078571D01*
X142785714Y-18078571D01*
X142928571Y-18150000D01*
X143428571Y-18078571D02*
X144214285Y-18078571D01*
X143428571Y-19078571D01*
X144214285Y-19078571D01*
X145428571Y-19078571D02*
X145428571Y-18292857D01*
X145357142Y-18150000D01*
X145214285Y-18078571D01*
X144928571Y-18078571D01*
X144785714Y-18150000D01*
X145428571Y-19007142D02*
X145285714Y-19078571D01*
X144928571Y-19078571D01*
X144785714Y-19007142D01*
X144714285Y-18864285D01*
X144714285Y-18721428D01*
X144785714Y-18578571D01*
X144928571Y-18507142D01*
X145285714Y-18507142D01*
X145428571Y-18435714D01*
X146142857Y-19078571D02*
X146142857Y-17578571D01*
X146285714Y-18507142D02*
X146714285Y-19078571D01*
X146714285Y-18078571D02*
X146142857Y-18650000D01*
D11*
X92129666Y-158980733D02*
X93510619Y-158980733D01*
X91853476Y-159809304D02*
X92820142Y-156909304D01*
X93786809Y-159809304D01*
X95996333Y-157875971D02*
X95996333Y-159809304D01*
X94753476Y-157875971D02*
X94753476Y-159395019D01*
X94891571Y-159671209D01*
X95167761Y-159809304D01*
X95582047Y-159809304D01*
X95858238Y-159671209D01*
X95996333Y-159533114D01*
X96962999Y-157875971D02*
X98067761Y-157875971D01*
X97377285Y-156909304D02*
X97377285Y-159395019D01*
X97515380Y-159671209D01*
X97791571Y-159809304D01*
X98067761Y-159809304D01*
X99448714Y-159809304D02*
X99172523Y-159671209D01*
X99034428Y-159533114D01*
X98896333Y-159256923D01*
X98896333Y-158428352D01*
X99034428Y-158152161D01*
X99172523Y-158014066D01*
X99448714Y-157875971D01*
X99862999Y-157875971D01*
X100139190Y-158014066D01*
X100277285Y-158152161D01*
X100415380Y-158428352D01*
X100415380Y-159256923D01*
X100277285Y-159533114D01*
X100139190Y-159671209D01*
X99862999Y-159809304D01*
X99448714Y-159809304D01*
X101658238Y-157875971D02*
X101658238Y-159809304D01*
X101658238Y-158152161D02*
X101796333Y-158014066D01*
X102072523Y-157875971D01*
X102486809Y-157875971D01*
X102762999Y-158014066D01*
X102901095Y-158290257D01*
X102901095Y-159809304D01*
X104696333Y-159809304D02*
X104420142Y-159671209D01*
X104282047Y-159533114D01*
X104143952Y-159256923D01*
X104143952Y-158428352D01*
X104282047Y-158152161D01*
X104420142Y-158014066D01*
X104696333Y-157875971D01*
X105110619Y-157875971D01*
X105386809Y-158014066D01*
X105524904Y-158152161D01*
X105662999Y-158428352D01*
X105662999Y-159256923D01*
X105524904Y-159533114D01*
X105386809Y-159671209D01*
X105110619Y-159809304D01*
X104696333Y-159809304D01*
X106905857Y-159809304D02*
X106905857Y-157875971D01*
X106905857Y-158152161D02*
X107043952Y-158014066D01*
X107320142Y-157875971D01*
X107734428Y-157875971D01*
X108010619Y-158014066D01*
X108148714Y-158290257D01*
X108148714Y-159809304D01*
X108148714Y-158290257D02*
X108286809Y-158014066D01*
X108562999Y-157875971D01*
X108977285Y-157875971D01*
X109253476Y-158014066D01*
X109391571Y-158290257D01*
X109391571Y-159809304D01*
X111186809Y-159809304D02*
X110910619Y-159671209D01*
X110772523Y-159533114D01*
X110634428Y-159256923D01*
X110634428Y-158428352D01*
X110772523Y-158152161D01*
X110910619Y-158014066D01*
X111186809Y-157875971D01*
X111601095Y-157875971D01*
X111877285Y-158014066D01*
X112015380Y-158152161D01*
X112153476Y-158428352D01*
X112153476Y-159256923D01*
X112015380Y-159533114D01*
X111877285Y-159671209D01*
X111601095Y-159809304D01*
X111186809Y-159809304D01*
X114639190Y-157875971D02*
X114639190Y-159809304D01*
X113396333Y-157875971D02*
X113396333Y-159395019D01*
X113534428Y-159671209D01*
X113810619Y-159809304D01*
X114224904Y-159809304D01*
X114501095Y-159671209D01*
X114639190Y-159533114D01*
X115882047Y-159671209D02*
X116158238Y-159809304D01*
X116710619Y-159809304D01*
X116986809Y-159671209D01*
X117124904Y-159395019D01*
X117124904Y-159256923D01*
X116986809Y-158980733D01*
X116710619Y-158842638D01*
X116296333Y-158842638D01*
X116020142Y-158704542D01*
X115882047Y-158428352D01*
X115882047Y-158290257D01*
X116020142Y-158014066D01*
X116296333Y-157875971D01*
X116710619Y-157875971D01*
X116986809Y-158014066D01*
X122234428Y-159533114D02*
X122096333Y-159671209D01*
X121682047Y-159809304D01*
X121405857Y-159809304D01*
X120991571Y-159671209D01*
X120715380Y-159395019D01*
X120577285Y-159118828D01*
X120439190Y-158566447D01*
X120439190Y-158152161D01*
X120577285Y-157599780D01*
X120715380Y-157323590D01*
X120991571Y-157047400D01*
X121405857Y-156909304D01*
X121682047Y-156909304D01*
X122096333Y-157047400D01*
X122234428Y-157185495D01*
X123477285Y-159809304D02*
X123477285Y-157875971D01*
X123477285Y-158428352D02*
X123615380Y-158152161D01*
X123753476Y-158014066D01*
X124029666Y-157875971D01*
X124305857Y-157875971D01*
X126515380Y-159809304D02*
X126515380Y-158290257D01*
X126377285Y-158014066D01*
X126101095Y-157875971D01*
X125548714Y-157875971D01*
X125272523Y-158014066D01*
X126515380Y-159671209D02*
X126239190Y-159809304D01*
X125548714Y-159809304D01*
X125272523Y-159671209D01*
X125134428Y-159395019D01*
X125134428Y-159118828D01*
X125272523Y-158842638D01*
X125548714Y-158704542D01*
X126239190Y-158704542D01*
X126515380Y-158566447D01*
X127620142Y-157875971D02*
X129139190Y-157875971D01*
X127620142Y-159809304D01*
X129139190Y-159809304D01*
X129967761Y-157875971D02*
X130658238Y-159809304D01*
X131348714Y-157875971D02*
X130658238Y-159809304D01*
X130382047Y-160499780D01*
X130243952Y-160637876D01*
X129967761Y-160775971D01*
X136320142Y-159533114D02*
X136182047Y-159671209D01*
X135767761Y-159809304D01*
X135491571Y-159809304D01*
X135077285Y-159671209D01*
X134801095Y-159395019D01*
X134662999Y-159118828D01*
X134524904Y-158566447D01*
X134524904Y-158152161D01*
X134662999Y-157599780D01*
X134801095Y-157323590D01*
X135077285Y-157047400D01*
X135491571Y-156909304D01*
X135767761Y-156909304D01*
X136182047Y-157047400D01*
X136320142Y-157185495D01*
X138805857Y-159809304D02*
X138805857Y-158290257D01*
X138667761Y-158014066D01*
X138391571Y-157875971D01*
X137839190Y-157875971D01*
X137562999Y-158014066D01*
X138805857Y-159671209D02*
X138529666Y-159809304D01*
X137839190Y-159809304D01*
X137562999Y-159671209D01*
X137424904Y-159395019D01*
X137424904Y-159118828D01*
X137562999Y-158842638D01*
X137839190Y-158704542D01*
X138529666Y-158704542D01*
X138805857Y-158566447D01*
X140186809Y-159809304D02*
X140186809Y-157875971D01*
X140186809Y-158428352D02*
X140324904Y-158152161D01*
X140462999Y-158014066D01*
X140739190Y-157875971D01*
X141015380Y-157875971D01*
X141567761Y-157875971D02*
X142672523Y-157875971D01*
X141982047Y-156909304D02*
X141982047Y-159395019D01*
X142120142Y-159671209D01*
X142396333Y-159809304D01*
X142672523Y-159809304D01*
X145434428Y-156909304D02*
X146401095Y-159809304D01*
X147367761Y-156909304D01*
X149853476Y-159809304D02*
X148196333Y-159809304D01*
X149024904Y-159809304D02*
X149024904Y-156909304D01*
X148748714Y-157323590D01*
X148472523Y-157599780D01*
X148196333Y-157737876D01*
X151096333Y-159533114D02*
X151234428Y-159671209D01*
X151096333Y-159809304D01*
X150958238Y-159671209D01*
X151096333Y-159533114D01*
X151096333Y-159809304D01*
X153996333Y-159809304D02*
X152339190Y-159809304D01*
X153167761Y-159809304D02*
X153167761Y-156909304D01*
X152891571Y-157323590D01*
X152615380Y-157599780D01*
X152339190Y-157737876D01*
%TO.C,R6*%
G36*
G01*
X137321300Y-115221200D02*
X136846300Y-115221200D01*
G75*
G02*
X136608800Y-114983700I0J237500D01*
G01*
X136608800Y-114483700D01*
G75*
G02*
X136846300Y-114246200I237500J0D01*
G01*
X137321300Y-114246200D01*
G75*
G02*
X137558800Y-114483700I0J-237500D01*
G01*
X137558800Y-114983700D01*
G75*
G02*
X137321300Y-115221200I-237500J0D01*
G01*
G37*
G36*
G01*
X137321300Y-117046200D02*
X136846300Y-117046200D01*
G75*
G02*
X136608800Y-116808700I0J237500D01*
G01*
X136608800Y-116308700D01*
G75*
G02*
X136846300Y-116071200I237500J0D01*
G01*
X137321300Y-116071200D01*
G75*
G02*
X137558800Y-116308700I0J-237500D01*
G01*
X137558800Y-116808700D01*
G75*
G02*
X137321300Y-117046200I-237500J0D01*
G01*
G37*
%TD*%
%TO.C,R5*%
G36*
G01*
X137346700Y-124007700D02*
X136871700Y-124007700D01*
G75*
G02*
X136634200Y-123770200I0J237500D01*
G01*
X136634200Y-123270200D01*
G75*
G02*
X136871700Y-123032700I237500J0D01*
G01*
X137346700Y-123032700D01*
G75*
G02*
X137584200Y-123270200I0J-237500D01*
G01*
X137584200Y-123770200D01*
G75*
G02*
X137346700Y-124007700I-237500J0D01*
G01*
G37*
G36*
G01*
X137346700Y-125832700D02*
X136871700Y-125832700D01*
G75*
G02*
X136634200Y-125595200I0J237500D01*
G01*
X136634200Y-125095200D01*
G75*
G02*
X136871700Y-124857700I237500J0D01*
G01*
X137346700Y-124857700D01*
G75*
G02*
X137584200Y-125095200I0J-237500D01*
G01*
X137584200Y-125595200D01*
G75*
G02*
X137346700Y-125832700I-237500J0D01*
G01*
G37*
%TD*%
%TO.C,D6*%
G36*
G01*
X137796300Y-119872600D02*
X137796300Y-121122600D01*
G75*
G02*
X137546300Y-121372600I-250000J0D01*
G01*
X136621300Y-121372600D01*
G75*
G02*
X136371300Y-121122600I0J250000D01*
G01*
X136371300Y-119872600D01*
G75*
G02*
X136621300Y-119622600I250000J0D01*
G01*
X137546300Y-119622600D01*
G75*
G02*
X137796300Y-119872600I0J-250000D01*
G01*
G37*
G36*
G01*
X140771300Y-119872600D02*
X140771300Y-121122600D01*
G75*
G02*
X140521300Y-121372600I-250000J0D01*
G01*
X139596300Y-121372600D01*
G75*
G02*
X139346300Y-121122600I0J250000D01*
G01*
X139346300Y-119872600D01*
G75*
G02*
X139596300Y-119622600I250000J0D01*
G01*
X140521300Y-119622600D01*
G75*
G02*
X140771300Y-119872600I0J-250000D01*
G01*
G37*
%TD*%
%TO.C,D5*%
G36*
G01*
X137807400Y-128280000D02*
X137807400Y-129530000D01*
G75*
G02*
X137557400Y-129780000I-250000J0D01*
G01*
X136632400Y-129780000D01*
G75*
G02*
X136382400Y-129530000I0J250000D01*
G01*
X136382400Y-128280000D01*
G75*
G02*
X136632400Y-128030000I250000J0D01*
G01*
X137557400Y-128030000D01*
G75*
G02*
X137807400Y-128280000I0J-250000D01*
G01*
G37*
G36*
G01*
X140782400Y-128280000D02*
X140782400Y-129530000D01*
G75*
G02*
X140532400Y-129780000I-250000J0D01*
G01*
X139607400Y-129780000D01*
G75*
G02*
X139357400Y-129530000I0J250000D01*
G01*
X139357400Y-128280000D01*
G75*
G02*
X139607400Y-128030000I250000J0D01*
G01*
X140532400Y-128030000D01*
G75*
G02*
X140782400Y-128280000I0J-250000D01*
G01*
G37*
%TD*%
D12*
%TO.C,J3*%
X88307200Y-149618700D03*
X75167200Y-149618700D03*
D13*
X85237200Y-146908700D03*
X82737200Y-146908700D03*
X80737200Y-146908700D03*
D14*
X78237200Y-146908700D03*
%TD*%
D15*
%TO.C,C2*%
X124828300Y-136663300D03*
D16*
X124828300Y-138163300D03*
%TD*%
D15*
%TO.C,C1*%
X137021700Y-135851900D03*
D16*
X135521700Y-135851900D03*
%TD*%
%TO.C,R4*%
G36*
G01*
X84975000Y-63062500D02*
X84975000Y-63537500D01*
G75*
G02*
X84737500Y-63775000I-237500J0D01*
G01*
X84237500Y-63775000D01*
G75*
G02*
X84000000Y-63537500I0J237500D01*
G01*
X84000000Y-63062500D01*
G75*
G02*
X84237500Y-62825000I237500J0D01*
G01*
X84737500Y-62825000D01*
G75*
G02*
X84975000Y-63062500I0J-237500D01*
G01*
G37*
G36*
G01*
X86800000Y-63062500D02*
X86800000Y-63537500D01*
G75*
G02*
X86562500Y-63775000I-237500J0D01*
G01*
X86062500Y-63775000D01*
G75*
G02*
X85825000Y-63537500I0J237500D01*
G01*
X85825000Y-63062500D01*
G75*
G02*
X86062500Y-62825000I237500J0D01*
G01*
X86562500Y-62825000D01*
G75*
G02*
X86800000Y-63062500I0J-237500D01*
G01*
G37*
%TD*%
%TO.C,R3*%
G36*
G01*
X96262000Y-31830000D02*
X96262000Y-32305000D01*
G75*
G02*
X96024500Y-32542500I-237500J0D01*
G01*
X95524500Y-32542500D01*
G75*
G02*
X95287000Y-32305000I0J237500D01*
G01*
X95287000Y-31830000D01*
G75*
G02*
X95524500Y-31592500I237500J0D01*
G01*
X96024500Y-31592500D01*
G75*
G02*
X96262000Y-31830000I0J-237500D01*
G01*
G37*
G36*
G01*
X98087000Y-31830000D02*
X98087000Y-32305000D01*
G75*
G02*
X97849500Y-32542500I-237500J0D01*
G01*
X97349500Y-32542500D01*
G75*
G02*
X97112000Y-32305000I0J237500D01*
G01*
X97112000Y-31830000D01*
G75*
G02*
X97349500Y-31592500I237500J0D01*
G01*
X97849500Y-31592500D01*
G75*
G02*
X98087000Y-31830000I0J-237500D01*
G01*
G37*
%TD*%
%TO.C,R2*%
G36*
G01*
X89275000Y-63062500D02*
X89275000Y-63537500D01*
G75*
G02*
X89037500Y-63775000I-237500J0D01*
G01*
X88537500Y-63775000D01*
G75*
G02*
X88300000Y-63537500I0J237500D01*
G01*
X88300000Y-63062500D01*
G75*
G02*
X88537500Y-62825000I237500J0D01*
G01*
X89037500Y-62825000D01*
G75*
G02*
X89275000Y-63062500I0J-237500D01*
G01*
G37*
G36*
G01*
X91100000Y-63062500D02*
X91100000Y-63537500D01*
G75*
G02*
X90862500Y-63775000I-237500J0D01*
G01*
X90362500Y-63775000D01*
G75*
G02*
X90125000Y-63537500I0J237500D01*
G01*
X90125000Y-63062500D01*
G75*
G02*
X90362500Y-62825000I237500J0D01*
G01*
X90862500Y-62825000D01*
G75*
G02*
X91100000Y-63062500I0J-237500D01*
G01*
G37*
%TD*%
%TO.C,R1*%
G36*
G01*
X84281000Y-26610500D02*
X84756000Y-26610500D01*
G75*
G02*
X84993500Y-26848000I0J-237500D01*
G01*
X84993500Y-27348000D01*
G75*
G02*
X84756000Y-27585500I-237500J0D01*
G01*
X84281000Y-27585500D01*
G75*
G02*
X84043500Y-27348000I0J237500D01*
G01*
X84043500Y-26848000D01*
G75*
G02*
X84281000Y-26610500I237500J0D01*
G01*
G37*
G36*
G01*
X84281000Y-24785500D02*
X84756000Y-24785500D01*
G75*
G02*
X84993500Y-25023000I0J-237500D01*
G01*
X84993500Y-25523000D01*
G75*
G02*
X84756000Y-25760500I-237500J0D01*
G01*
X84281000Y-25760500D01*
G75*
G02*
X84043500Y-25523000I0J237500D01*
G01*
X84043500Y-25023000D01*
G75*
G02*
X84281000Y-24785500I237500J0D01*
G01*
G37*
%TD*%
%TO.C,D4*%
G36*
G01*
X86038000Y-75388500D02*
X83888000Y-75388500D01*
G75*
G02*
X83638000Y-75138500I0J250000D01*
G01*
X83638000Y-74213500D01*
G75*
G02*
X83888000Y-73963500I250000J0D01*
G01*
X86038000Y-73963500D01*
G75*
G02*
X86288000Y-74213500I0J-250000D01*
G01*
X86288000Y-75138500D01*
G75*
G02*
X86038000Y-75388500I-250000J0D01*
G01*
G37*
G36*
G01*
X86038000Y-78363500D02*
X83888000Y-78363500D01*
G75*
G02*
X83638000Y-78113500I0J250000D01*
G01*
X83638000Y-77188500D01*
G75*
G02*
X83888000Y-76938500I250000J0D01*
G01*
X86038000Y-76938500D01*
G75*
G02*
X86288000Y-77188500I0J-250000D01*
G01*
X86288000Y-78113500D01*
G75*
G02*
X86038000Y-78363500I-250000J0D01*
G01*
G37*
%TD*%
%TO.C,D3*%
G36*
G01*
X85784000Y-40246000D02*
X83634000Y-40246000D01*
G75*
G02*
X83384000Y-39996000I0J250000D01*
G01*
X83384000Y-39071000D01*
G75*
G02*
X83634000Y-38821000I250000J0D01*
G01*
X85784000Y-38821000D01*
G75*
G02*
X86034000Y-39071000I0J-250000D01*
G01*
X86034000Y-39996000D01*
G75*
G02*
X85784000Y-40246000I-250000J0D01*
G01*
G37*
G36*
G01*
X85784000Y-43221000D02*
X83634000Y-43221000D01*
G75*
G02*
X83384000Y-42971000I0J250000D01*
G01*
X83384000Y-42046000D01*
G75*
G02*
X83634000Y-41796000I250000J0D01*
G01*
X85784000Y-41796000D01*
G75*
G02*
X86034000Y-42046000I0J-250000D01*
G01*
X86034000Y-42971000D01*
G75*
G02*
X85784000Y-43221000I-250000J0D01*
G01*
G37*
%TD*%
%TO.C,D2*%
G36*
G01*
X102225000Y-71742000D02*
X100975000Y-71742000D01*
G75*
G02*
X100725000Y-71492000I0J250000D01*
G01*
X100725000Y-70567000D01*
G75*
G02*
X100975000Y-70317000I250000J0D01*
G01*
X102225000Y-70317000D01*
G75*
G02*
X102475000Y-70567000I0J-250000D01*
G01*
X102475000Y-71492000D01*
G75*
G02*
X102225000Y-71742000I-250000J0D01*
G01*
G37*
G36*
G01*
X102225000Y-74717000D02*
X100975000Y-74717000D01*
G75*
G02*
X100725000Y-74467000I0J250000D01*
G01*
X100725000Y-73542000D01*
G75*
G02*
X100975000Y-73292000I250000J0D01*
G01*
X102225000Y-73292000D01*
G75*
G02*
X102475000Y-73542000I0J-250000D01*
G01*
X102475000Y-74467000D01*
G75*
G02*
X102225000Y-74717000I-250000J0D01*
G01*
G37*
%TD*%
%TO.C,D1*%
G36*
G01*
X95240000Y-39701500D02*
X93990000Y-39701500D01*
G75*
G02*
X93740000Y-39451500I0J250000D01*
G01*
X93740000Y-38526500D01*
G75*
G02*
X93990000Y-38276500I250000J0D01*
G01*
X95240000Y-38276500D01*
G75*
G02*
X95490000Y-38526500I0J-250000D01*
G01*
X95490000Y-39451500D01*
G75*
G02*
X95240000Y-39701500I-250000J0D01*
G01*
G37*
G36*
G01*
X95240000Y-42676500D02*
X93990000Y-42676500D01*
G75*
G02*
X93740000Y-42426500I0J250000D01*
G01*
X93740000Y-41501500D01*
G75*
G02*
X93990000Y-41251500I250000J0D01*
G01*
X95240000Y-41251500D01*
G75*
G02*
X95490000Y-41501500I0J-250000D01*
G01*
X95490000Y-42426500D01*
G75*
G02*
X95240000Y-42676500I-250000J0D01*
G01*
G37*
%TD*%
D17*
%TO.C,K2*%
X78970000Y-73056000D03*
X76970000Y-79056000D03*
X64770000Y-79056000D03*
X64770000Y-67056000D03*
X76970000Y-67056000D03*
%TD*%
%TO.C,K1*%
X78716000Y-36861000D03*
X76716000Y-42861000D03*
X64516000Y-42861000D03*
X64516000Y-30861000D03*
X76716000Y-30861000D03*
%TD*%
D18*
%TO.C,Q4*%
X95377000Y-76962000D03*
D19*
X95377000Y-74422000D03*
X95377000Y-75692000D03*
%TD*%
D18*
%TO.C,Q3*%
X103949500Y-33210500D03*
D19*
X103949500Y-30670500D03*
X103949500Y-31940500D03*
%TD*%
D20*
%TO.C,Q2*%
X83947000Y-69596000D03*
X83947000Y-67056000D03*
X91567000Y-67056000D03*
D21*
X91567000Y-69596000D03*
%TD*%
D20*
%TO.C,Q1*%
X91948000Y-31242000D03*
X91948000Y-33782000D03*
X84328000Y-33782000D03*
D21*
X84328000Y-31242000D03*
%TD*%
D22*
%TO.C,J9*%
X145948400Y-28816300D03*
D23*
X148488400Y-28816300D03*
%TD*%
D24*
%TO.C,J8*%
X67360800Y-154889200D03*
D25*
X62280800Y-154889200D03*
%TD*%
D24*
%TO.C,J7*%
X116471700Y-24244300D03*
D25*
X121551700Y-24244300D03*
%TD*%
D22*
%TO.C,J6*%
X100685600Y-63080900D03*
D23*
X98145600Y-63080900D03*
%TD*%
D22*
%TO.C,J4*%
X94107000Y-25781000D03*
D23*
X96647000Y-25781000D03*
%TD*%
D22*
%TO.C,J5*%
X103000000Y-41300000D03*
X103000000Y-43840000D03*
X103000000Y-46380000D03*
X103000000Y-48920000D03*
X103000000Y-51460000D03*
D23*
X103000000Y-54000000D03*
%TD*%
D22*
%TO.C,J2*%
X96460000Y-108380000D03*
X99000000Y-108380000D03*
X96460000Y-110920000D03*
X99000000Y-110920000D03*
X96460000Y-113460000D03*
X99000000Y-113460000D03*
X96460000Y-116000000D03*
D23*
X99000000Y-116000000D03*
%TD*%
D17*
%TO.C,H4*%
X151200000Y-153900000D03*
%TD*%
%TO.C,H3*%
X60000000Y-22000000D03*
%TD*%
%TO.C,H2*%
X60000000Y-144000000D03*
%TD*%
%TO.C,H1*%
X154000000Y-22000000D03*
%TD*%
D24*
%TO.C,Screw_Terminal2*%
X152100000Y-145640000D03*
D25*
X152100000Y-140560000D03*
%TD*%
D26*
%TO.C,U2*%
X135458200Y-153835100D03*
D27*
X133146800Y-147434300D03*
X135458200Y-147434300D03*
X137769600Y-147434300D03*
%TD*%
D22*
%TO.C,U1*%
X139540000Y-83400000D03*
D28*
X139540000Y-84300000D03*
D23*
X137000000Y-83400000D03*
D28*
X137000000Y-84300000D03*
D22*
X134460000Y-83400000D03*
D28*
X134460000Y-84300000D03*
D29*
X139425000Y-38530000D03*
X134575000Y-38530000D03*
D30*
X139725000Y-35500000D03*
X134275000Y-35500000D03*
D31*
X146790000Y-83630000D03*
X146790000Y-81090000D03*
X146790000Y-78550000D03*
X146790000Y-76010000D03*
X146790000Y-73470000D03*
X146790000Y-70930000D03*
X146790000Y-68390000D03*
X146790000Y-65850000D03*
X146790000Y-63310000D03*
X146790000Y-60770000D03*
X146790000Y-58230000D03*
X146790000Y-55690000D03*
X146790000Y-53150000D03*
X146790000Y-50610000D03*
X146790000Y-48070000D03*
X146790000Y-45530000D03*
X146790000Y-42990000D03*
X146790000Y-40450000D03*
X146790000Y-37910000D03*
X146790000Y-35370000D03*
X127210000Y-83630000D03*
X127210000Y-81090000D03*
X127210000Y-78550000D03*
X127210000Y-76010000D03*
X127210000Y-73470000D03*
X127210000Y-70930000D03*
X127210000Y-68390000D03*
X127210000Y-65850000D03*
X127210000Y-63310000D03*
X127210000Y-60770000D03*
X127210000Y-58230000D03*
X127210000Y-55690000D03*
X127210000Y-53150000D03*
X127210000Y-50610000D03*
X127210000Y-48070000D03*
X127210000Y-45530000D03*
X127210000Y-42990000D03*
X127210000Y-40450000D03*
X127210000Y-37910000D03*
X127210000Y-35370000D03*
D22*
X145890000Y-35370000D03*
X145890000Y-37910000D03*
D23*
X145890000Y-40450000D03*
D22*
X145890000Y-42990000D03*
X145890000Y-45530000D03*
X145890000Y-48070000D03*
X145890000Y-50610000D03*
D23*
X145890000Y-53150000D03*
D22*
X145890000Y-55690000D03*
X145890000Y-58230000D03*
X145890000Y-60770000D03*
X145890000Y-63310000D03*
D23*
X145890000Y-65850000D03*
D22*
X145890000Y-68390000D03*
X145890000Y-70930000D03*
X145890000Y-73470000D03*
X145890000Y-76010000D03*
D23*
X145890000Y-78550000D03*
D22*
X145890000Y-81090000D03*
X145890000Y-83630000D03*
X128110000Y-83630000D03*
X128110000Y-81090000D03*
D23*
X128110000Y-78550000D03*
D22*
X128110000Y-76010000D03*
X128110000Y-73470000D03*
X128110000Y-70930000D03*
X128110000Y-68390000D03*
D23*
X128110000Y-65850000D03*
D22*
X128110000Y-63310000D03*
X128110000Y-60770000D03*
X128110000Y-58230000D03*
X128110000Y-55690000D03*
D23*
X128110000Y-53150000D03*
D22*
X128110000Y-50610000D03*
X128110000Y-48070000D03*
X128110000Y-45530000D03*
X128110000Y-42990000D03*
D23*
X128110000Y-40450000D03*
D22*
X128110000Y-37910000D03*
X128110000Y-35370000D03*
%TD*%
D32*
%TO.C,J1*%
X152600000Y-133440000D03*
X152600000Y-130900000D03*
X152600000Y-128360000D03*
X152600000Y-125820000D03*
X152600000Y-123280000D03*
X152600000Y-120740000D03*
D33*
X152600000Y-118200000D03*
%TD*%
D24*
%TO.C,Screw_Terminal1*%
X60096400Y-133019800D03*
D25*
X60096400Y-127939800D03*
%TD*%
M02*
