M48
INCH,TZ
T1C0.0157
T2C0.0236
T3C0.0295
T4C0.0335
T5C0.0362
T6C0.0394
T7C0.0402
T8C0.0433
T9C0.0512
T10C0.0890
T11C0.0591
T12C0.0709
T13C0.1181
%
G90
G05
T1
X36535Y-16998
X38583Y-29252
X38745Y-46373
X40551Y-22047
X41334Y-20871
X42008Y-11969
X45276Y-23622
X45674Y-23617
X46348Y-25926
X46378Y-36929
X51260Y-31339
X51575Y-53937
X55300Y-49010
X55790Y-47440
X55800Y-50750
X56102Y-44138
X56220Y-31890
X59230Y-49687
X59734Y-26929
T2
X49145Y-53804
X49145Y-54395
X53355Y-53485
X53946Y-53485
T3
X37550Y-29300
X37550Y-29800
X37550Y-30300
X40925Y-12075
X40925Y-12575
X40925Y-13075
T4
X33050Y-26400
X33050Y-27400
X33200Y-12300
X33200Y-13300
X36050Y-26400
X36050Y-27400
X36200Y-12300
X36200Y-13300
T5
X30802Y-57838
X31786Y-57838
X32574Y-57838
X33558Y-57838
T6
X37050Y-10150
X37976Y-42669
X37976Y-43669
X37976Y-44669
X37976Y-45669
X38050Y-10150
X38640Y-24835
X38976Y-42669
X38976Y-43669
X38976Y-44669
X38976Y-45669
X39640Y-24835
X40551Y-16260
X40551Y-17260
X40551Y-18260
X40551Y-19260
X40551Y-20260
X40551Y-21260
X57460Y-11345
X58460Y-11345
T7
X50437Y-13925
X50437Y-14925
X50437Y-15925
X50437Y-16925
X50437Y-17925
X50437Y-18925
X50437Y-19925
X50437Y-20925
X50437Y-21925
X50437Y-22925
X50437Y-23925
X50437Y-24925
X50437Y-25925
X50437Y-26925
X50437Y-27925
X50437Y-28925
X50437Y-29925
X50437Y-30925
X50437Y-31925
X50437Y-32925
X52937Y-32835
X53937Y-32835
X54937Y-32835
X57437Y-13925
X57437Y-14925
X57437Y-15925
X57437Y-16925
X57437Y-17925
X57437Y-18925
X57437Y-19925
X57437Y-20925
X57437Y-21925
X57437Y-22925
X57437Y-23925
X57437Y-24925
X57437Y-25925
X57437Y-26925
X57437Y-27925
X57437Y-28925
X57437Y-29925
X57437Y-30925
X57437Y-31925
X57437Y-32925
T8
X23660Y-50370
X23660Y-52370
X24520Y-60980
X26520Y-60980
X45855Y-9545
X47855Y-9545
X59882Y-55339
X59882Y-57339
X60079Y-46535
X60079Y-47535
X60079Y-48535
X60079Y-49535
X60079Y-50535
X60079Y-51535
X60079Y-52535
T9
X25400Y-12150
X25400Y-16874
X25500Y-26400
X25500Y-31124
X30203Y-12150
X30203Y-16874
X30303Y-26400
X30303Y-31124
X30991Y-14512
X31091Y-28762
T10
X29593Y-58905
X34767Y-58905
T11
X52982Y-15169
X54892Y-15169
T12
X52864Y-13976
X55010Y-13976
T13
X23622Y-8661
X23622Y-56693
X59528Y-60591
X60630Y-8661
T0
M30
