%TF.GenerationSoftware,KiCad,Pcbnew,6.0.7-f9a2dced07~116~ubuntu22.04.1*%
%TF.CreationDate,2022-09-19T14:52:07-04:00*%
%TF.ProjectId,Main_Controller_PCB V0.1,4d61696e-5f43-46f6-9e74-726f6c6c6572,rev?*%
%TF.SameCoordinates,Original*%
%TF.FileFunction,Drillmap*%
%TF.FilePolarity,Positive*%
%FSLAX45Y45*%
G04 Gerber Fmt 4.5, Leading zero omitted, Abs format (unit mm)*
G04 Created by KiCad (PCBNEW 6.0.7-f9a2dced07~116~ubuntu22.04.1) date 2022-09-19 14:52:07*
%MOMM*%
%LPD*%
G01*
G04 APERTURE LIST*
%ADD10C,0.100000*%
%ADD11C,0.200000*%
%ADD12C,0.040000*%
%ADD13C,0.090000*%
%ADD14C,0.110000*%
%ADD15C,0.160000*%
G04 APERTURE END LIST*
D10*
X19775000Y-7265000D02*
X19775000Y-12365000D01*
X19455000Y-12685000D02*
X12495000Y-12680000D01*
X12186274Y-7271274D02*
X12185000Y-12360000D01*
X12184999Y-12360000D02*
G75*
G03*
X12495000Y-12680000I320161J0D01*
G01*
X19455000Y-12685000D02*
G75*
G03*
X19775000Y-12365000I0J320000D01*
G01*
X19465000Y-6945000D02*
X12506274Y-6951274D01*
X19775001Y-7265000D02*
G75*
G03*
X19465000Y-6945000I-320161J0D01*
G01*
X12506274Y-6951274D02*
G75*
G03*
X12186274Y-7271274I-4J-319996D01*
G01*
D11*
D12*
X13650000Y-9520000D02*
X13690000Y-9560000D01*
X13690000Y-9520000D02*
X13650000Y-9560000D01*
X14050000Y-10820000D02*
X14090000Y-10860000D01*
X14090000Y-10820000D02*
X14050000Y-10860000D01*
X15510000Y-11830000D02*
X15550000Y-11870000D01*
X15550000Y-11830000D02*
X15510000Y-11870000D01*
X15930000Y-10687550D02*
X15970000Y-10727550D01*
X15970000Y-10687550D02*
X15930000Y-10727550D01*
X16050000Y-11080000D02*
X16090000Y-11120000D01*
X16090000Y-11080000D02*
X16050000Y-11120000D01*
X16850000Y-11430000D02*
X16890000Y-11470000D01*
X16890000Y-11430000D02*
X16850000Y-11470000D01*
X17310000Y-8000000D02*
X17350000Y-8040000D01*
X17350000Y-8000000D02*
X17310000Y-8040000D01*
X17400000Y-10760000D02*
X17440000Y-10800000D01*
X17440000Y-10760000D02*
X17400000Y-10800000D01*
X17410000Y-11460000D02*
X17450000Y-11500000D01*
X17450000Y-11460000D02*
X17410000Y-11500000D01*
X17580000Y-8160000D02*
X17620000Y-8200000D01*
X17620000Y-8160000D02*
X17580000Y-8200000D01*
X18320000Y-11910000D02*
X18360000Y-11950000D01*
X18360000Y-11910000D02*
X18320000Y-11950000D01*
X18440000Y-10230000D02*
X18480000Y-10270000D01*
X18480000Y-10230000D02*
X18440000Y-10270000D01*
D13*
X17995500Y-8180500D02*
G75*
G03*
X17995500Y-8180500I-45000J0D01*
G01*
X17995500Y-8434500D02*
G75*
G03*
X17995500Y-8434500I-45000J0D01*
G01*
X17995500Y-8688500D02*
G75*
G03*
X17995500Y-8688500I-45000J0D01*
G01*
X17995500Y-8942500D02*
G75*
G03*
X17995500Y-8942500I-45000J0D01*
G01*
X17995500Y-10455500D02*
G75*
G03*
X17995500Y-10455500I-45000J0D01*
G01*
X17995500Y-10709500D02*
G75*
G03*
X17995500Y-10709500I-45000J0D01*
G01*
X17995500Y-10963500D02*
G75*
G03*
X17995500Y-10963500I-45000J0D01*
G01*
X17995500Y-11217500D02*
G75*
G03*
X17995500Y-11217500I-45000J0D01*
G01*
X18249500Y-8307500D02*
G75*
G03*
X18249500Y-8307500I-45000J0D01*
G01*
X18249500Y-8561500D02*
G75*
G03*
X18249500Y-8561500I-45000J0D01*
G01*
X18249500Y-8815500D02*
G75*
G03*
X18249500Y-8815500I-45000J0D01*
G01*
X18249500Y-9069500D02*
G75*
G03*
X18249500Y-9069500I-45000J0D01*
G01*
X18249500Y-10582500D02*
G75*
G03*
X18249500Y-10582500I-45000J0D01*
G01*
X18249500Y-10836500D02*
G75*
G03*
X18249500Y-10836500I-45000J0D01*
G01*
X18249500Y-11090500D02*
G75*
G03*
X18249500Y-11090500I-45000J0D01*
G01*
X18249500Y-11344500D02*
G75*
G03*
X18249500Y-11344500I-45000J0D01*
G01*
D10*
X12535000Y-11109500D02*
X12535000Y-11209500D01*
X12485000Y-11159500D02*
X12585000Y-11159500D01*
X12535000Y-11363500D02*
X12535000Y-11463500D01*
X12485000Y-11413500D02*
X12585000Y-11413500D01*
X12535000Y-11617500D02*
X12535000Y-11717500D01*
X12485000Y-11667500D02*
X12585000Y-11667500D01*
X13009000Y-8964000D02*
X13009000Y-9064000D01*
X12959000Y-9014000D02*
X13059000Y-9014000D01*
X13009000Y-10488000D02*
X13009000Y-10588000D01*
X12959000Y-10538000D02*
X13059000Y-10538000D01*
X13263000Y-8964000D02*
X13263000Y-9064000D01*
X13213000Y-9014000D02*
X13313000Y-9014000D01*
X13263000Y-10488000D02*
X13263000Y-10588000D01*
X13213000Y-10538000D02*
X13313000Y-10538000D01*
X13517000Y-8964000D02*
X13517000Y-9064000D01*
X13467000Y-9014000D02*
X13567000Y-9014000D01*
X13517000Y-10488000D02*
X13517000Y-10588000D01*
X13467000Y-10538000D02*
X13567000Y-10538000D01*
X13711000Y-12340000D02*
X13711000Y-12440000D01*
X13661000Y-12390000D02*
X13761000Y-12390000D01*
X13771000Y-8964000D02*
X13771000Y-9064000D01*
X13721000Y-9014000D02*
X13821000Y-9014000D01*
X13771000Y-10488000D02*
X13771000Y-10588000D01*
X13721000Y-10538000D02*
X13821000Y-10538000D01*
X13965000Y-12340000D02*
X13965000Y-12440000D01*
X13915000Y-12390000D02*
X14015000Y-12390000D01*
X14025000Y-8964000D02*
X14025000Y-9064000D01*
X13975000Y-9014000D02*
X14075000Y-9014000D01*
X14025000Y-10488000D02*
X14025000Y-10588000D01*
X13975000Y-10538000D02*
X14075000Y-10538000D01*
X14279000Y-8964000D02*
X14279000Y-9064000D01*
X14229000Y-9014000D02*
X14329000Y-9014000D01*
X14279000Y-10488000D02*
X14279000Y-10588000D01*
X14229000Y-10538000D02*
X14329000Y-10538000D01*
X14533000Y-8964000D02*
X14533000Y-9064000D01*
X14483000Y-9014000D02*
X14583000Y-9014000D01*
X14533000Y-10488000D02*
X14533000Y-10588000D01*
X14483000Y-10538000D02*
X14583000Y-10538000D01*
X14787000Y-8964000D02*
X14787000Y-9064000D01*
X14737000Y-9014000D02*
X14837000Y-9014000D01*
X14787000Y-10488000D02*
X14787000Y-10588000D01*
X14737000Y-10538000D02*
X14837000Y-10538000D01*
X14802500Y-12355000D02*
X14802500Y-12455000D01*
X14752500Y-12405000D02*
X14852500Y-12405000D01*
X15041000Y-8964000D02*
X15041000Y-9064000D01*
X14991000Y-9014000D02*
X15091000Y-9014000D01*
X15041000Y-10488000D02*
X15041000Y-10588000D01*
X14991000Y-10538000D02*
X15091000Y-10538000D01*
X15056500Y-12355000D02*
X15056500Y-12455000D01*
X15006500Y-12405000D02*
X15106500Y-12405000D01*
X15295000Y-8964000D02*
X15295000Y-9064000D01*
X15245000Y-9014000D02*
X15345000Y-9014000D01*
X15295000Y-10488000D02*
X15295000Y-10588000D01*
X15245000Y-10538000D02*
X15345000Y-10538000D01*
X15310500Y-12355000D02*
X15310500Y-12455000D01*
X15260500Y-12405000D02*
X15360500Y-12405000D01*
X15549000Y-8964000D02*
X15549000Y-9064000D01*
X15499000Y-9014000D02*
X15599000Y-9014000D01*
X15549000Y-10488000D02*
X15549000Y-10588000D01*
X15499000Y-10538000D02*
X15599000Y-10538000D01*
X15803000Y-8964000D02*
X15803000Y-9064000D01*
X15753000Y-9014000D02*
X15853000Y-9014000D01*
X15803000Y-10488000D02*
X15803000Y-10588000D01*
X15753000Y-10538000D02*
X15853000Y-10538000D01*
X16057000Y-8964000D02*
X16057000Y-9064000D01*
X16007000Y-9014000D02*
X16107000Y-9014000D01*
X16057000Y-10488000D02*
X16057000Y-10588000D01*
X16007000Y-10538000D02*
X16107000Y-10538000D01*
X16311000Y-8964000D02*
X16311000Y-9064000D01*
X16261000Y-9014000D02*
X16361000Y-9014000D01*
X16311000Y-10488000D02*
X16311000Y-10588000D01*
X16261000Y-10538000D02*
X16361000Y-10538000D01*
X16565000Y-8964000D02*
X16565000Y-9064000D01*
X16515000Y-9014000D02*
X16615000Y-9014000D01*
X16565000Y-10488000D02*
X16565000Y-10588000D01*
X16515000Y-10538000D02*
X16615000Y-10538000D01*
X17185000Y-12330000D02*
X17185000Y-12430000D01*
X17135000Y-12380000D02*
X17235000Y-12380000D01*
X17195000Y-7205000D02*
X17195000Y-7305000D01*
X17145000Y-7255000D02*
X17245000Y-7255000D01*
X17439000Y-12330000D02*
X17439000Y-12430000D01*
X17389000Y-12380000D02*
X17489000Y-12380000D01*
X17449000Y-7205000D02*
X17449000Y-7305000D01*
X17399000Y-7255000D02*
X17499000Y-7255000D01*
X17693000Y-12330000D02*
X17693000Y-12430000D01*
X17643000Y-12380000D02*
X17743000Y-12380000D01*
X17703000Y-7205000D02*
X17703000Y-7305000D01*
X17653000Y-7255000D02*
X17753000Y-7255000D01*
X17947000Y-12330000D02*
X17947000Y-12430000D01*
X17897000Y-12380000D02*
X17997000Y-12380000D01*
X17957000Y-7205000D02*
X17957000Y-7305000D01*
X17907000Y-7255000D02*
X18007000Y-7255000D01*
X18201000Y-12330000D02*
X18201000Y-12430000D01*
X18151000Y-12380000D02*
X18251000Y-12380000D01*
X18211000Y-7205000D02*
X18211000Y-7305000D01*
X18161000Y-7255000D02*
X18261000Y-7255000D01*
X18455000Y-12330000D02*
X18455000Y-12430000D01*
X18405000Y-12380000D02*
X18505000Y-12380000D01*
X18465000Y-7205000D02*
X18465000Y-7305000D01*
X18415000Y-7255000D02*
X18515000Y-7255000D01*
D14*
X13569891Y-7513891D02*
X13569891Y-7436109D01*
X13492109Y-7436109D01*
X13492109Y-7513891D01*
X13569891Y-7513891D01*
X14077891Y-7513891D02*
X14077891Y-7436109D01*
X14000109Y-7436109D01*
X14000109Y-7513891D01*
X14077891Y-7513891D01*
D15*
X19144500Y-7928000D02*
X19224500Y-7848000D01*
X19144500Y-7768000D01*
X19064500Y-7848000D01*
X19144500Y-7928000D01*
X19144500Y-9482000D02*
X19224500Y-9402000D01*
X19144500Y-9322000D01*
X19064500Y-9402000D01*
X19144500Y-9482000D01*
X19144500Y-10203000D02*
X19224500Y-10123000D01*
X19144500Y-10043000D01*
X19064500Y-10123000D01*
X19144500Y-10203000D01*
X19144500Y-11757000D02*
X19224500Y-11677000D01*
X19144500Y-11597000D01*
X19064500Y-11677000D01*
X19144500Y-11757000D01*
D11*
X12437619Y-13000476D02*
X12437619Y-12800476D01*
X12485238Y-12800476D01*
X12513809Y-12810000D01*
X12532857Y-12829048D01*
X12542381Y-12848095D01*
X12551905Y-12886190D01*
X12551905Y-12914762D01*
X12542381Y-12952857D01*
X12532857Y-12971905D01*
X12513809Y-12990952D01*
X12485238Y-13000476D01*
X12437619Y-13000476D01*
X12637619Y-13000476D02*
X12637619Y-12867143D01*
X12637619Y-12905238D02*
X12647143Y-12886190D01*
X12656667Y-12876667D01*
X12675714Y-12867143D01*
X12694762Y-12867143D01*
X12761428Y-13000476D02*
X12761428Y-12867143D01*
X12761428Y-12800476D02*
X12751905Y-12810000D01*
X12761428Y-12819524D01*
X12770952Y-12810000D01*
X12761428Y-12800476D01*
X12761428Y-12819524D01*
X12885238Y-13000476D02*
X12866190Y-12990952D01*
X12856667Y-12971905D01*
X12856667Y-12800476D01*
X12990000Y-13000476D02*
X12970952Y-12990952D01*
X12961428Y-12971905D01*
X12961428Y-12800476D01*
X13218571Y-13000476D02*
X13218571Y-12800476D01*
X13285238Y-12943333D01*
X13351905Y-12800476D01*
X13351905Y-13000476D01*
X13532857Y-13000476D02*
X13532857Y-12895714D01*
X13523333Y-12876667D01*
X13504286Y-12867143D01*
X13466190Y-12867143D01*
X13447143Y-12876667D01*
X13532857Y-12990952D02*
X13513809Y-13000476D01*
X13466190Y-13000476D01*
X13447143Y-12990952D01*
X13437619Y-12971905D01*
X13437619Y-12952857D01*
X13447143Y-12933809D01*
X13466190Y-12924286D01*
X13513809Y-12924286D01*
X13532857Y-12914762D01*
X13628095Y-12867143D02*
X13628095Y-13067143D01*
X13628095Y-12876667D02*
X13647143Y-12867143D01*
X13685238Y-12867143D01*
X13704286Y-12876667D01*
X13713809Y-12886190D01*
X13723333Y-12905238D01*
X13723333Y-12962381D01*
X13713809Y-12981428D01*
X13704286Y-12990952D01*
X13685238Y-13000476D01*
X13647143Y-13000476D01*
X13628095Y-12990952D01*
X13809048Y-12981428D02*
X13818571Y-12990952D01*
X13809048Y-13000476D01*
X13799524Y-12990952D01*
X13809048Y-12981428D01*
X13809048Y-13000476D01*
X13809048Y-12876667D02*
X13818571Y-12886190D01*
X13809048Y-12895714D01*
X13799524Y-12886190D01*
X13809048Y-12876667D01*
X13809048Y-12895714D01*
D12*
X12140000Y-13310000D02*
X12180000Y-13350000D01*
X12180000Y-13310000D02*
X12140000Y-13350000D01*
D11*
X12475714Y-13220476D02*
X12494762Y-13220476D01*
X12513809Y-13230000D01*
X12523333Y-13239524D01*
X12532857Y-13258571D01*
X12542381Y-13296667D01*
X12542381Y-13344286D01*
X12532857Y-13382381D01*
X12523333Y-13401428D01*
X12513809Y-13410952D01*
X12494762Y-13420476D01*
X12475714Y-13420476D01*
X12456667Y-13410952D01*
X12447143Y-13401428D01*
X12437619Y-13382381D01*
X12428095Y-13344286D01*
X12428095Y-13296667D01*
X12437619Y-13258571D01*
X12447143Y-13239524D01*
X12456667Y-13230000D01*
X12475714Y-13220476D01*
X12628095Y-13401428D02*
X12637619Y-13410952D01*
X12628095Y-13420476D01*
X12618571Y-13410952D01*
X12628095Y-13401428D01*
X12628095Y-13420476D01*
X12809048Y-13287143D02*
X12809048Y-13420476D01*
X12761428Y-13210952D02*
X12713809Y-13353809D01*
X12837619Y-13353809D01*
X12951905Y-13220476D02*
X12970952Y-13220476D01*
X12990000Y-13230000D01*
X12999524Y-13239524D01*
X13009048Y-13258571D01*
X13018571Y-13296667D01*
X13018571Y-13344286D01*
X13009048Y-13382381D01*
X12999524Y-13401428D01*
X12990000Y-13410952D01*
X12970952Y-13420476D01*
X12951905Y-13420476D01*
X12932857Y-13410952D01*
X12923333Y-13401428D01*
X12913809Y-13382381D01*
X12904286Y-13344286D01*
X12904286Y-13296667D01*
X12913809Y-13258571D01*
X12923333Y-13239524D01*
X12932857Y-13230000D01*
X12951905Y-13220476D01*
X13142381Y-13220476D02*
X13161428Y-13220476D01*
X13180476Y-13230000D01*
X13190000Y-13239524D01*
X13199524Y-13258571D01*
X13209048Y-13296667D01*
X13209048Y-13344286D01*
X13199524Y-13382381D01*
X13190000Y-13401428D01*
X13180476Y-13410952D01*
X13161428Y-13420476D01*
X13142381Y-13420476D01*
X13123333Y-13410952D01*
X13113809Y-13401428D01*
X13104286Y-13382381D01*
X13094762Y-13344286D01*
X13094762Y-13296667D01*
X13104286Y-13258571D01*
X13113809Y-13239524D01*
X13123333Y-13230000D01*
X13142381Y-13220476D01*
X13294762Y-13420476D02*
X13294762Y-13287143D01*
X13294762Y-13306190D02*
X13304286Y-13296667D01*
X13323333Y-13287143D01*
X13351905Y-13287143D01*
X13370952Y-13296667D01*
X13380476Y-13315714D01*
X13380476Y-13420476D01*
X13380476Y-13315714D02*
X13390000Y-13296667D01*
X13409048Y-13287143D01*
X13437619Y-13287143D01*
X13456667Y-13296667D01*
X13466190Y-13315714D01*
X13466190Y-13420476D01*
X13561428Y-13420476D02*
X13561428Y-13287143D01*
X13561428Y-13306190D02*
X13570952Y-13296667D01*
X13590000Y-13287143D01*
X13618571Y-13287143D01*
X13637619Y-13296667D01*
X13647143Y-13315714D01*
X13647143Y-13420476D01*
X13647143Y-13315714D02*
X13656667Y-13296667D01*
X13675714Y-13287143D01*
X13704286Y-13287143D01*
X13723333Y-13296667D01*
X13732857Y-13315714D01*
X13732857Y-13420476D01*
X14123333Y-13210952D02*
X13951905Y-13468095D01*
X14380476Y-13220476D02*
X14399524Y-13220476D01*
X14418571Y-13230000D01*
X14428095Y-13239524D01*
X14437619Y-13258571D01*
X14447143Y-13296667D01*
X14447143Y-13344286D01*
X14437619Y-13382381D01*
X14428095Y-13401428D01*
X14418571Y-13410952D01*
X14399524Y-13420476D01*
X14380476Y-13420476D01*
X14361428Y-13410952D01*
X14351905Y-13401428D01*
X14342381Y-13382381D01*
X14332857Y-13344286D01*
X14332857Y-13296667D01*
X14342381Y-13258571D01*
X14351905Y-13239524D01*
X14361428Y-13230000D01*
X14380476Y-13220476D01*
X14532857Y-13401428D02*
X14542381Y-13410952D01*
X14532857Y-13420476D01*
X14523333Y-13410952D01*
X14532857Y-13401428D01*
X14532857Y-13420476D01*
X14666190Y-13220476D02*
X14685238Y-13220476D01*
X14704286Y-13230000D01*
X14713809Y-13239524D01*
X14723333Y-13258571D01*
X14732857Y-13296667D01*
X14732857Y-13344286D01*
X14723333Y-13382381D01*
X14713809Y-13401428D01*
X14704286Y-13410952D01*
X14685238Y-13420476D01*
X14666190Y-13420476D01*
X14647143Y-13410952D01*
X14637619Y-13401428D01*
X14628095Y-13382381D01*
X14618571Y-13344286D01*
X14618571Y-13296667D01*
X14628095Y-13258571D01*
X14637619Y-13239524D01*
X14647143Y-13230000D01*
X14666190Y-13220476D01*
X14923333Y-13420476D02*
X14809048Y-13420476D01*
X14866190Y-13420476D02*
X14866190Y-13220476D01*
X14847143Y-13249048D01*
X14828095Y-13268095D01*
X14809048Y-13277619D01*
X15104286Y-13220476D02*
X15009048Y-13220476D01*
X14999524Y-13315714D01*
X15009048Y-13306190D01*
X15028095Y-13296667D01*
X15075714Y-13296667D01*
X15094762Y-13306190D01*
X15104286Y-13315714D01*
X15113809Y-13334762D01*
X15113809Y-13382381D01*
X15104286Y-13401428D01*
X15094762Y-13410952D01*
X15075714Y-13420476D01*
X15028095Y-13420476D01*
X15009048Y-13410952D01*
X14999524Y-13401428D01*
X15180476Y-13220476D02*
X15313809Y-13220476D01*
X15228095Y-13420476D01*
X15380476Y-13220476D02*
X15380476Y-13258571D01*
X15456667Y-13220476D02*
X15456667Y-13258571D01*
X15751905Y-13496667D02*
X15742381Y-13487143D01*
X15723333Y-13458571D01*
X15713809Y-13439524D01*
X15704286Y-13410952D01*
X15694762Y-13363333D01*
X15694762Y-13325238D01*
X15704286Y-13277619D01*
X15713809Y-13249048D01*
X15723333Y-13230000D01*
X15742381Y-13201428D01*
X15751905Y-13191905D01*
X15932857Y-13420476D02*
X15818571Y-13420476D01*
X15875714Y-13420476D02*
X15875714Y-13220476D01*
X15856667Y-13249048D01*
X15837619Y-13268095D01*
X15818571Y-13277619D01*
X16009048Y-13239524D02*
X16018571Y-13230000D01*
X16037619Y-13220476D01*
X16085238Y-13220476D01*
X16104286Y-13230000D01*
X16113809Y-13239524D01*
X16123333Y-13258571D01*
X16123333Y-13277619D01*
X16113809Y-13306190D01*
X15999524Y-13420476D01*
X16123333Y-13420476D01*
X16361428Y-13420476D02*
X16361428Y-13220476D01*
X16447143Y-13420476D02*
X16447143Y-13315714D01*
X16437619Y-13296667D01*
X16418571Y-13287143D01*
X16390000Y-13287143D01*
X16370952Y-13296667D01*
X16361428Y-13306190D01*
X16570952Y-13420476D02*
X16551905Y-13410952D01*
X16542381Y-13401428D01*
X16532857Y-13382381D01*
X16532857Y-13325238D01*
X16542381Y-13306190D01*
X16551905Y-13296667D01*
X16570952Y-13287143D01*
X16599524Y-13287143D01*
X16618571Y-13296667D01*
X16628095Y-13306190D01*
X16637619Y-13325238D01*
X16637619Y-13382381D01*
X16628095Y-13401428D01*
X16618571Y-13410952D01*
X16599524Y-13420476D01*
X16570952Y-13420476D01*
X16751905Y-13420476D02*
X16732857Y-13410952D01*
X16723333Y-13391905D01*
X16723333Y-13220476D01*
X16904286Y-13410952D02*
X16885238Y-13420476D01*
X16847143Y-13420476D01*
X16828095Y-13410952D01*
X16818571Y-13391905D01*
X16818571Y-13315714D01*
X16828095Y-13296667D01*
X16847143Y-13287143D01*
X16885238Y-13287143D01*
X16904286Y-13296667D01*
X16913810Y-13315714D01*
X16913810Y-13334762D01*
X16818571Y-13353809D01*
X16990000Y-13410952D02*
X17009048Y-13420476D01*
X17047143Y-13420476D01*
X17066190Y-13410952D01*
X17075714Y-13391905D01*
X17075714Y-13382381D01*
X17066190Y-13363333D01*
X17047143Y-13353809D01*
X17018571Y-13353809D01*
X16999524Y-13344286D01*
X16990000Y-13325238D01*
X16990000Y-13315714D01*
X16999524Y-13296667D01*
X17018571Y-13287143D01*
X17047143Y-13287143D01*
X17066190Y-13296667D01*
X17142381Y-13496667D02*
X17151905Y-13487143D01*
X17170952Y-13458571D01*
X17180476Y-13439524D01*
X17190000Y-13410952D01*
X17199524Y-13363333D01*
X17199524Y-13325238D01*
X17190000Y-13277619D01*
X17180476Y-13249048D01*
X17170952Y-13230000D01*
X17151905Y-13201428D01*
X17142381Y-13191905D01*
D13*
X12180000Y-13594000D02*
G75*
G03*
X12180000Y-13594000I-45000J0D01*
G01*
D11*
X12475714Y-13484476D02*
X12494762Y-13484476D01*
X12513809Y-13494000D01*
X12523333Y-13503524D01*
X12532857Y-13522571D01*
X12542381Y-13560667D01*
X12542381Y-13608286D01*
X12532857Y-13646381D01*
X12523333Y-13665428D01*
X12513809Y-13674952D01*
X12494762Y-13684476D01*
X12475714Y-13684476D01*
X12456667Y-13674952D01*
X12447143Y-13665428D01*
X12437619Y-13646381D01*
X12428095Y-13608286D01*
X12428095Y-13560667D01*
X12437619Y-13522571D01*
X12447143Y-13503524D01*
X12456667Y-13494000D01*
X12475714Y-13484476D01*
X12628095Y-13665428D02*
X12637619Y-13674952D01*
X12628095Y-13684476D01*
X12618571Y-13674952D01*
X12628095Y-13665428D01*
X12628095Y-13684476D01*
X12732857Y-13684476D02*
X12770952Y-13684476D01*
X12790000Y-13674952D01*
X12799524Y-13665428D01*
X12818571Y-13636857D01*
X12828095Y-13598762D01*
X12828095Y-13522571D01*
X12818571Y-13503524D01*
X12809048Y-13494000D01*
X12790000Y-13484476D01*
X12751905Y-13484476D01*
X12732857Y-13494000D01*
X12723333Y-13503524D01*
X12713809Y-13522571D01*
X12713809Y-13570190D01*
X12723333Y-13589238D01*
X12732857Y-13598762D01*
X12751905Y-13608286D01*
X12790000Y-13608286D01*
X12809048Y-13598762D01*
X12818571Y-13589238D01*
X12828095Y-13570190D01*
X12951905Y-13484476D02*
X12970952Y-13484476D01*
X12990000Y-13494000D01*
X12999524Y-13503524D01*
X13009048Y-13522571D01*
X13018571Y-13560667D01*
X13018571Y-13608286D01*
X13009048Y-13646381D01*
X12999524Y-13665428D01*
X12990000Y-13674952D01*
X12970952Y-13684476D01*
X12951905Y-13684476D01*
X12932857Y-13674952D01*
X12923333Y-13665428D01*
X12913809Y-13646381D01*
X12904286Y-13608286D01*
X12904286Y-13560667D01*
X12913809Y-13522571D01*
X12923333Y-13503524D01*
X12932857Y-13494000D01*
X12951905Y-13484476D01*
X13142381Y-13484476D02*
X13161428Y-13484476D01*
X13180476Y-13494000D01*
X13190000Y-13503524D01*
X13199524Y-13522571D01*
X13209048Y-13560667D01*
X13209048Y-13608286D01*
X13199524Y-13646381D01*
X13190000Y-13665428D01*
X13180476Y-13674952D01*
X13161428Y-13684476D01*
X13142381Y-13684476D01*
X13123333Y-13674952D01*
X13113809Y-13665428D01*
X13104286Y-13646381D01*
X13094762Y-13608286D01*
X13094762Y-13560667D01*
X13104286Y-13522571D01*
X13113809Y-13503524D01*
X13123333Y-13494000D01*
X13142381Y-13484476D01*
X13294762Y-13684476D02*
X13294762Y-13551143D01*
X13294762Y-13570190D02*
X13304286Y-13560667D01*
X13323333Y-13551143D01*
X13351905Y-13551143D01*
X13370952Y-13560667D01*
X13380476Y-13579714D01*
X13380476Y-13684476D01*
X13380476Y-13579714D02*
X13390000Y-13560667D01*
X13409048Y-13551143D01*
X13437619Y-13551143D01*
X13456667Y-13560667D01*
X13466190Y-13579714D01*
X13466190Y-13684476D01*
X13561428Y-13684476D02*
X13561428Y-13551143D01*
X13561428Y-13570190D02*
X13570952Y-13560667D01*
X13590000Y-13551143D01*
X13618571Y-13551143D01*
X13637619Y-13560667D01*
X13647143Y-13579714D01*
X13647143Y-13684476D01*
X13647143Y-13579714D02*
X13656667Y-13560667D01*
X13675714Y-13551143D01*
X13704286Y-13551143D01*
X13723333Y-13560667D01*
X13732857Y-13579714D01*
X13732857Y-13684476D01*
X14123333Y-13474952D02*
X13951905Y-13732095D01*
X14380476Y-13484476D02*
X14399524Y-13484476D01*
X14418571Y-13494000D01*
X14428095Y-13503524D01*
X14437619Y-13522571D01*
X14447143Y-13560667D01*
X14447143Y-13608286D01*
X14437619Y-13646381D01*
X14428095Y-13665428D01*
X14418571Y-13674952D01*
X14399524Y-13684476D01*
X14380476Y-13684476D01*
X14361428Y-13674952D01*
X14351905Y-13665428D01*
X14342381Y-13646381D01*
X14332857Y-13608286D01*
X14332857Y-13560667D01*
X14342381Y-13522571D01*
X14351905Y-13503524D01*
X14361428Y-13494000D01*
X14380476Y-13484476D01*
X14532857Y-13665428D02*
X14542381Y-13674952D01*
X14532857Y-13684476D01*
X14523333Y-13674952D01*
X14532857Y-13665428D01*
X14532857Y-13684476D01*
X14666190Y-13484476D02*
X14685238Y-13484476D01*
X14704286Y-13494000D01*
X14713809Y-13503524D01*
X14723333Y-13522571D01*
X14732857Y-13560667D01*
X14732857Y-13608286D01*
X14723333Y-13646381D01*
X14713809Y-13665428D01*
X14704286Y-13674952D01*
X14685238Y-13684476D01*
X14666190Y-13684476D01*
X14647143Y-13674952D01*
X14637619Y-13665428D01*
X14628095Y-13646381D01*
X14618571Y-13608286D01*
X14618571Y-13560667D01*
X14628095Y-13522571D01*
X14637619Y-13503524D01*
X14647143Y-13494000D01*
X14666190Y-13484476D01*
X14799524Y-13484476D02*
X14923333Y-13484476D01*
X14856667Y-13560667D01*
X14885238Y-13560667D01*
X14904286Y-13570190D01*
X14913809Y-13579714D01*
X14923333Y-13598762D01*
X14923333Y-13646381D01*
X14913809Y-13665428D01*
X14904286Y-13674952D01*
X14885238Y-13684476D01*
X14828095Y-13684476D01*
X14809048Y-13674952D01*
X14799524Y-13665428D01*
X15104286Y-13484476D02*
X15009048Y-13484476D01*
X14999524Y-13579714D01*
X15009048Y-13570190D01*
X15028095Y-13560667D01*
X15075714Y-13560667D01*
X15094762Y-13570190D01*
X15104286Y-13579714D01*
X15113809Y-13598762D01*
X15113809Y-13646381D01*
X15104286Y-13665428D01*
X15094762Y-13674952D01*
X15075714Y-13684476D01*
X15028095Y-13684476D01*
X15009048Y-13674952D01*
X14999524Y-13665428D01*
X15285238Y-13551143D02*
X15285238Y-13684476D01*
X15237619Y-13474952D02*
X15190000Y-13617809D01*
X15313809Y-13617809D01*
X15380476Y-13484476D02*
X15380476Y-13522571D01*
X15456667Y-13484476D02*
X15456667Y-13522571D01*
X15751905Y-13760667D02*
X15742381Y-13751143D01*
X15723333Y-13722571D01*
X15713809Y-13703524D01*
X15704286Y-13674952D01*
X15694762Y-13627333D01*
X15694762Y-13589238D01*
X15704286Y-13541619D01*
X15713809Y-13513048D01*
X15723333Y-13494000D01*
X15742381Y-13465428D01*
X15751905Y-13455905D01*
X15932857Y-13684476D02*
X15818571Y-13684476D01*
X15875714Y-13684476D02*
X15875714Y-13484476D01*
X15856667Y-13513048D01*
X15837619Y-13532095D01*
X15818571Y-13541619D01*
X16104286Y-13484476D02*
X16066190Y-13484476D01*
X16047143Y-13494000D01*
X16037619Y-13503524D01*
X16018571Y-13532095D01*
X16009048Y-13570190D01*
X16009048Y-13646381D01*
X16018571Y-13665428D01*
X16028095Y-13674952D01*
X16047143Y-13684476D01*
X16085238Y-13684476D01*
X16104286Y-13674952D01*
X16113809Y-13665428D01*
X16123333Y-13646381D01*
X16123333Y-13598762D01*
X16113809Y-13579714D01*
X16104286Y-13570190D01*
X16085238Y-13560667D01*
X16047143Y-13560667D01*
X16028095Y-13570190D01*
X16018571Y-13579714D01*
X16009048Y-13598762D01*
X16361428Y-13684476D02*
X16361428Y-13484476D01*
X16447143Y-13684476D02*
X16447143Y-13579714D01*
X16437619Y-13560667D01*
X16418571Y-13551143D01*
X16390000Y-13551143D01*
X16370952Y-13560667D01*
X16361428Y-13570190D01*
X16570952Y-13684476D02*
X16551905Y-13674952D01*
X16542381Y-13665428D01*
X16532857Y-13646381D01*
X16532857Y-13589238D01*
X16542381Y-13570190D01*
X16551905Y-13560667D01*
X16570952Y-13551143D01*
X16599524Y-13551143D01*
X16618571Y-13560667D01*
X16628095Y-13570190D01*
X16637619Y-13589238D01*
X16637619Y-13646381D01*
X16628095Y-13665428D01*
X16618571Y-13674952D01*
X16599524Y-13684476D01*
X16570952Y-13684476D01*
X16751905Y-13684476D02*
X16732857Y-13674952D01*
X16723333Y-13655905D01*
X16723333Y-13484476D01*
X16904286Y-13674952D02*
X16885238Y-13684476D01*
X16847143Y-13684476D01*
X16828095Y-13674952D01*
X16818571Y-13655905D01*
X16818571Y-13579714D01*
X16828095Y-13560667D01*
X16847143Y-13551143D01*
X16885238Y-13551143D01*
X16904286Y-13560667D01*
X16913810Y-13579714D01*
X16913810Y-13598762D01*
X16818571Y-13617809D01*
X16990000Y-13674952D02*
X17009048Y-13684476D01*
X17047143Y-13684476D01*
X17066190Y-13674952D01*
X17075714Y-13655905D01*
X17075714Y-13646381D01*
X17066190Y-13627333D01*
X17047143Y-13617809D01*
X17018571Y-13617809D01*
X16999524Y-13608286D01*
X16990000Y-13589238D01*
X16990000Y-13579714D01*
X16999524Y-13560667D01*
X17018571Y-13551143D01*
X17047143Y-13551143D01*
X17066190Y-13560667D01*
X17142381Y-13760667D02*
X17151905Y-13751143D01*
X17170952Y-13722571D01*
X17180476Y-13703524D01*
X17190000Y-13674952D01*
X17199524Y-13627333D01*
X17199524Y-13589238D01*
X17190000Y-13541619D01*
X17180476Y-13513048D01*
X17170952Y-13494000D01*
X17151905Y-13465428D01*
X17142381Y-13455905D01*
D10*
X12130000Y-13808000D02*
X12130000Y-13908000D01*
X12080000Y-13858000D02*
X12180000Y-13858000D01*
D11*
X12542381Y-13948476D02*
X12428095Y-13948476D01*
X12485238Y-13948476D02*
X12485238Y-13748476D01*
X12466190Y-13777048D01*
X12447143Y-13796095D01*
X12428095Y-13805619D01*
X12628095Y-13929428D02*
X12637619Y-13938952D01*
X12628095Y-13948476D01*
X12618571Y-13938952D01*
X12628095Y-13929428D01*
X12628095Y-13948476D01*
X12761428Y-13748476D02*
X12780476Y-13748476D01*
X12799524Y-13758000D01*
X12809048Y-13767524D01*
X12818571Y-13786571D01*
X12828095Y-13824667D01*
X12828095Y-13872286D01*
X12818571Y-13910381D01*
X12809048Y-13929428D01*
X12799524Y-13938952D01*
X12780476Y-13948476D01*
X12761428Y-13948476D01*
X12742381Y-13938952D01*
X12732857Y-13929428D01*
X12723333Y-13910381D01*
X12713809Y-13872286D01*
X12713809Y-13824667D01*
X12723333Y-13786571D01*
X12732857Y-13767524D01*
X12742381Y-13758000D01*
X12761428Y-13748476D01*
X12951905Y-13748476D02*
X12970952Y-13748476D01*
X12990000Y-13758000D01*
X12999524Y-13767524D01*
X13009048Y-13786571D01*
X13018571Y-13824667D01*
X13018571Y-13872286D01*
X13009048Y-13910381D01*
X12999524Y-13929428D01*
X12990000Y-13938952D01*
X12970952Y-13948476D01*
X12951905Y-13948476D01*
X12932857Y-13938952D01*
X12923333Y-13929428D01*
X12913809Y-13910381D01*
X12904286Y-13872286D01*
X12904286Y-13824667D01*
X12913809Y-13786571D01*
X12923333Y-13767524D01*
X12932857Y-13758000D01*
X12951905Y-13748476D01*
X13142381Y-13748476D02*
X13161428Y-13748476D01*
X13180476Y-13758000D01*
X13190000Y-13767524D01*
X13199524Y-13786571D01*
X13209048Y-13824667D01*
X13209048Y-13872286D01*
X13199524Y-13910381D01*
X13190000Y-13929428D01*
X13180476Y-13938952D01*
X13161428Y-13948476D01*
X13142381Y-13948476D01*
X13123333Y-13938952D01*
X13113809Y-13929428D01*
X13104286Y-13910381D01*
X13094762Y-13872286D01*
X13094762Y-13824667D01*
X13104286Y-13786571D01*
X13113809Y-13767524D01*
X13123333Y-13758000D01*
X13142381Y-13748476D01*
X13294762Y-13948476D02*
X13294762Y-13815143D01*
X13294762Y-13834190D02*
X13304286Y-13824667D01*
X13323333Y-13815143D01*
X13351905Y-13815143D01*
X13370952Y-13824667D01*
X13380476Y-13843714D01*
X13380476Y-13948476D01*
X13380476Y-13843714D02*
X13390000Y-13824667D01*
X13409048Y-13815143D01*
X13437619Y-13815143D01*
X13456667Y-13824667D01*
X13466190Y-13843714D01*
X13466190Y-13948476D01*
X13561428Y-13948476D02*
X13561428Y-13815143D01*
X13561428Y-13834190D02*
X13570952Y-13824667D01*
X13590000Y-13815143D01*
X13618571Y-13815143D01*
X13637619Y-13824667D01*
X13647143Y-13843714D01*
X13647143Y-13948476D01*
X13647143Y-13843714D02*
X13656667Y-13824667D01*
X13675714Y-13815143D01*
X13704286Y-13815143D01*
X13723333Y-13824667D01*
X13732857Y-13843714D01*
X13732857Y-13948476D01*
X14123333Y-13738952D02*
X13951905Y-13996095D01*
X14380476Y-13748476D02*
X14399524Y-13748476D01*
X14418571Y-13758000D01*
X14428095Y-13767524D01*
X14437619Y-13786571D01*
X14447143Y-13824667D01*
X14447143Y-13872286D01*
X14437619Y-13910381D01*
X14428095Y-13929428D01*
X14418571Y-13938952D01*
X14399524Y-13948476D01*
X14380476Y-13948476D01*
X14361428Y-13938952D01*
X14351905Y-13929428D01*
X14342381Y-13910381D01*
X14332857Y-13872286D01*
X14332857Y-13824667D01*
X14342381Y-13786571D01*
X14351905Y-13767524D01*
X14361428Y-13758000D01*
X14380476Y-13748476D01*
X14532857Y-13929428D02*
X14542381Y-13938952D01*
X14532857Y-13948476D01*
X14523333Y-13938952D01*
X14532857Y-13929428D01*
X14532857Y-13948476D01*
X14666190Y-13748476D02*
X14685238Y-13748476D01*
X14704286Y-13758000D01*
X14713809Y-13767524D01*
X14723333Y-13786571D01*
X14732857Y-13824667D01*
X14732857Y-13872286D01*
X14723333Y-13910381D01*
X14713809Y-13929428D01*
X14704286Y-13938952D01*
X14685238Y-13948476D01*
X14666190Y-13948476D01*
X14647143Y-13938952D01*
X14637619Y-13929428D01*
X14628095Y-13910381D01*
X14618571Y-13872286D01*
X14618571Y-13824667D01*
X14628095Y-13786571D01*
X14637619Y-13767524D01*
X14647143Y-13758000D01*
X14666190Y-13748476D01*
X14799524Y-13748476D02*
X14923333Y-13748476D01*
X14856667Y-13824667D01*
X14885238Y-13824667D01*
X14904286Y-13834190D01*
X14913809Y-13843714D01*
X14923333Y-13862762D01*
X14923333Y-13910381D01*
X14913809Y-13929428D01*
X14904286Y-13938952D01*
X14885238Y-13948476D01*
X14828095Y-13948476D01*
X14809048Y-13938952D01*
X14799524Y-13929428D01*
X15018571Y-13948476D02*
X15056667Y-13948476D01*
X15075714Y-13938952D01*
X15085238Y-13929428D01*
X15104286Y-13900857D01*
X15113809Y-13862762D01*
X15113809Y-13786571D01*
X15104286Y-13767524D01*
X15094762Y-13758000D01*
X15075714Y-13748476D01*
X15037619Y-13748476D01*
X15018571Y-13758000D01*
X15009048Y-13767524D01*
X14999524Y-13786571D01*
X14999524Y-13834190D01*
X15009048Y-13853238D01*
X15018571Y-13862762D01*
X15037619Y-13872286D01*
X15075714Y-13872286D01*
X15094762Y-13862762D01*
X15104286Y-13853238D01*
X15113809Y-13834190D01*
X15285238Y-13815143D02*
X15285238Y-13948476D01*
X15237619Y-13738952D02*
X15190000Y-13881809D01*
X15313809Y-13881809D01*
X15380476Y-13748476D02*
X15380476Y-13786571D01*
X15456667Y-13748476D02*
X15456667Y-13786571D01*
X15751905Y-14024667D02*
X15742381Y-14015143D01*
X15723333Y-13986571D01*
X15713809Y-13967524D01*
X15704286Y-13938952D01*
X15694762Y-13891333D01*
X15694762Y-13853238D01*
X15704286Y-13805619D01*
X15713809Y-13777048D01*
X15723333Y-13758000D01*
X15742381Y-13729428D01*
X15751905Y-13719905D01*
X15923333Y-13748476D02*
X15828095Y-13748476D01*
X15818571Y-13843714D01*
X15828095Y-13834190D01*
X15847143Y-13824667D01*
X15894762Y-13824667D01*
X15913809Y-13834190D01*
X15923333Y-13843714D01*
X15932857Y-13862762D01*
X15932857Y-13910381D01*
X15923333Y-13929428D01*
X15913809Y-13938952D01*
X15894762Y-13948476D01*
X15847143Y-13948476D01*
X15828095Y-13938952D01*
X15818571Y-13929428D01*
X16056667Y-13748476D02*
X16075714Y-13748476D01*
X16094762Y-13758000D01*
X16104286Y-13767524D01*
X16113809Y-13786571D01*
X16123333Y-13824667D01*
X16123333Y-13872286D01*
X16113809Y-13910381D01*
X16104286Y-13929428D01*
X16094762Y-13938952D01*
X16075714Y-13948476D01*
X16056667Y-13948476D01*
X16037619Y-13938952D01*
X16028095Y-13929428D01*
X16018571Y-13910381D01*
X16009048Y-13872286D01*
X16009048Y-13824667D01*
X16018571Y-13786571D01*
X16028095Y-13767524D01*
X16037619Y-13758000D01*
X16056667Y-13748476D01*
X16361428Y-13948476D02*
X16361428Y-13748476D01*
X16447143Y-13948476D02*
X16447143Y-13843714D01*
X16437619Y-13824667D01*
X16418571Y-13815143D01*
X16390000Y-13815143D01*
X16370952Y-13824667D01*
X16361428Y-13834190D01*
X16570952Y-13948476D02*
X16551905Y-13938952D01*
X16542381Y-13929428D01*
X16532857Y-13910381D01*
X16532857Y-13853238D01*
X16542381Y-13834190D01*
X16551905Y-13824667D01*
X16570952Y-13815143D01*
X16599524Y-13815143D01*
X16618571Y-13824667D01*
X16628095Y-13834190D01*
X16637619Y-13853238D01*
X16637619Y-13910381D01*
X16628095Y-13929428D01*
X16618571Y-13938952D01*
X16599524Y-13948476D01*
X16570952Y-13948476D01*
X16751905Y-13948476D02*
X16732857Y-13938952D01*
X16723333Y-13919905D01*
X16723333Y-13748476D01*
X16904286Y-13938952D02*
X16885238Y-13948476D01*
X16847143Y-13948476D01*
X16828095Y-13938952D01*
X16818571Y-13919905D01*
X16818571Y-13843714D01*
X16828095Y-13824667D01*
X16847143Y-13815143D01*
X16885238Y-13815143D01*
X16904286Y-13824667D01*
X16913810Y-13843714D01*
X16913810Y-13862762D01*
X16818571Y-13881809D01*
X16990000Y-13938952D02*
X17009048Y-13948476D01*
X17047143Y-13948476D01*
X17066190Y-13938952D01*
X17075714Y-13919905D01*
X17075714Y-13910381D01*
X17066190Y-13891333D01*
X17047143Y-13881809D01*
X17018571Y-13881809D01*
X16999524Y-13872286D01*
X16990000Y-13853238D01*
X16990000Y-13843714D01*
X16999524Y-13824667D01*
X17018571Y-13815143D01*
X17047143Y-13815143D01*
X17066190Y-13824667D01*
X17142381Y-14024667D02*
X17151905Y-14015143D01*
X17170952Y-13986571D01*
X17180476Y-13967524D01*
X17190000Y-13938952D01*
X17199524Y-13891333D01*
X17199524Y-13853238D01*
X17190000Y-13805619D01*
X17180476Y-13777048D01*
X17170952Y-13758000D01*
X17151905Y-13729428D01*
X17142381Y-13719905D01*
D14*
X12163891Y-14160891D02*
X12163891Y-14083109D01*
X12086109Y-14083109D01*
X12086109Y-14160891D01*
X12163891Y-14160891D01*
D11*
X12542381Y-14212476D02*
X12428095Y-14212476D01*
X12485238Y-14212476D02*
X12485238Y-14012476D01*
X12466190Y-14041048D01*
X12447143Y-14060095D01*
X12428095Y-14069619D01*
X12628095Y-14193428D02*
X12637619Y-14202952D01*
X12628095Y-14212476D01*
X12618571Y-14202952D01*
X12628095Y-14193428D01*
X12628095Y-14212476D01*
X12828095Y-14212476D02*
X12713809Y-14212476D01*
X12770952Y-14212476D02*
X12770952Y-14012476D01*
X12751905Y-14041048D01*
X12732857Y-14060095D01*
X12713809Y-14069619D01*
X12951905Y-14012476D02*
X12970952Y-14012476D01*
X12990000Y-14022000D01*
X12999524Y-14031524D01*
X13009048Y-14050571D01*
X13018571Y-14088667D01*
X13018571Y-14136286D01*
X13009048Y-14174381D01*
X12999524Y-14193428D01*
X12990000Y-14202952D01*
X12970952Y-14212476D01*
X12951905Y-14212476D01*
X12932857Y-14202952D01*
X12923333Y-14193428D01*
X12913809Y-14174381D01*
X12904286Y-14136286D01*
X12904286Y-14088667D01*
X12913809Y-14050571D01*
X12923333Y-14031524D01*
X12932857Y-14022000D01*
X12951905Y-14012476D01*
X13142381Y-14012476D02*
X13161428Y-14012476D01*
X13180476Y-14022000D01*
X13190000Y-14031524D01*
X13199524Y-14050571D01*
X13209048Y-14088667D01*
X13209048Y-14136286D01*
X13199524Y-14174381D01*
X13190000Y-14193428D01*
X13180476Y-14202952D01*
X13161428Y-14212476D01*
X13142381Y-14212476D01*
X13123333Y-14202952D01*
X13113809Y-14193428D01*
X13104286Y-14174381D01*
X13094762Y-14136286D01*
X13094762Y-14088667D01*
X13104286Y-14050571D01*
X13113809Y-14031524D01*
X13123333Y-14022000D01*
X13142381Y-14012476D01*
X13294762Y-14212476D02*
X13294762Y-14079143D01*
X13294762Y-14098190D02*
X13304286Y-14088667D01*
X13323333Y-14079143D01*
X13351905Y-14079143D01*
X13370952Y-14088667D01*
X13380476Y-14107714D01*
X13380476Y-14212476D01*
X13380476Y-14107714D02*
X13390000Y-14088667D01*
X13409048Y-14079143D01*
X13437619Y-14079143D01*
X13456667Y-14088667D01*
X13466190Y-14107714D01*
X13466190Y-14212476D01*
X13561428Y-14212476D02*
X13561428Y-14079143D01*
X13561428Y-14098190D02*
X13570952Y-14088667D01*
X13590000Y-14079143D01*
X13618571Y-14079143D01*
X13637619Y-14088667D01*
X13647143Y-14107714D01*
X13647143Y-14212476D01*
X13647143Y-14107714D02*
X13656667Y-14088667D01*
X13675714Y-14079143D01*
X13704286Y-14079143D01*
X13723333Y-14088667D01*
X13732857Y-14107714D01*
X13732857Y-14212476D01*
X14123333Y-14002952D02*
X13951905Y-14260095D01*
X14380476Y-14012476D02*
X14399524Y-14012476D01*
X14418571Y-14022000D01*
X14428095Y-14031524D01*
X14437619Y-14050571D01*
X14447143Y-14088667D01*
X14447143Y-14136286D01*
X14437619Y-14174381D01*
X14428095Y-14193428D01*
X14418571Y-14202952D01*
X14399524Y-14212476D01*
X14380476Y-14212476D01*
X14361428Y-14202952D01*
X14351905Y-14193428D01*
X14342381Y-14174381D01*
X14332857Y-14136286D01*
X14332857Y-14088667D01*
X14342381Y-14050571D01*
X14351905Y-14031524D01*
X14361428Y-14022000D01*
X14380476Y-14012476D01*
X14532857Y-14193428D02*
X14542381Y-14202952D01*
X14532857Y-14212476D01*
X14523333Y-14202952D01*
X14532857Y-14193428D01*
X14532857Y-14212476D01*
X14666190Y-14012476D02*
X14685238Y-14012476D01*
X14704286Y-14022000D01*
X14713809Y-14031524D01*
X14723333Y-14050571D01*
X14732857Y-14088667D01*
X14732857Y-14136286D01*
X14723333Y-14174381D01*
X14713809Y-14193428D01*
X14704286Y-14202952D01*
X14685238Y-14212476D01*
X14666190Y-14212476D01*
X14647143Y-14202952D01*
X14637619Y-14193428D01*
X14628095Y-14174381D01*
X14618571Y-14136286D01*
X14618571Y-14088667D01*
X14628095Y-14050571D01*
X14637619Y-14031524D01*
X14647143Y-14022000D01*
X14666190Y-14012476D01*
X14904286Y-14079143D02*
X14904286Y-14212476D01*
X14856667Y-14002952D02*
X14809048Y-14145809D01*
X14932857Y-14145809D01*
X14990000Y-14012476D02*
X15113809Y-14012476D01*
X15047143Y-14088667D01*
X15075714Y-14088667D01*
X15094762Y-14098190D01*
X15104286Y-14107714D01*
X15113809Y-14126762D01*
X15113809Y-14174381D01*
X15104286Y-14193428D01*
X15094762Y-14202952D01*
X15075714Y-14212476D01*
X15018571Y-14212476D01*
X14999524Y-14202952D01*
X14990000Y-14193428D01*
X15180476Y-14012476D02*
X15304286Y-14012476D01*
X15237619Y-14088667D01*
X15266190Y-14088667D01*
X15285238Y-14098190D01*
X15294762Y-14107714D01*
X15304286Y-14126762D01*
X15304286Y-14174381D01*
X15294762Y-14193428D01*
X15285238Y-14202952D01*
X15266190Y-14212476D01*
X15209048Y-14212476D01*
X15190000Y-14202952D01*
X15180476Y-14193428D01*
X15380476Y-14012476D02*
X15380476Y-14050571D01*
X15456667Y-14012476D02*
X15456667Y-14050571D01*
X15751905Y-14288667D02*
X15742381Y-14279143D01*
X15723333Y-14250571D01*
X15713809Y-14231524D01*
X15704286Y-14202952D01*
X15694762Y-14155333D01*
X15694762Y-14117238D01*
X15704286Y-14069619D01*
X15713809Y-14041048D01*
X15723333Y-14022000D01*
X15742381Y-13993428D01*
X15751905Y-13983905D01*
X15818571Y-14031524D02*
X15828095Y-14022000D01*
X15847143Y-14012476D01*
X15894762Y-14012476D01*
X15913809Y-14022000D01*
X15923333Y-14031524D01*
X15932857Y-14050571D01*
X15932857Y-14069619D01*
X15923333Y-14098190D01*
X15809048Y-14212476D01*
X15932857Y-14212476D01*
X16170952Y-14212476D02*
X16170952Y-14012476D01*
X16256667Y-14212476D02*
X16256667Y-14107714D01*
X16247143Y-14088667D01*
X16228095Y-14079143D01*
X16199524Y-14079143D01*
X16180476Y-14088667D01*
X16170952Y-14098190D01*
X16380476Y-14212476D02*
X16361428Y-14202952D01*
X16351905Y-14193428D01*
X16342381Y-14174381D01*
X16342381Y-14117238D01*
X16351905Y-14098190D01*
X16361428Y-14088667D01*
X16380476Y-14079143D01*
X16409048Y-14079143D01*
X16428095Y-14088667D01*
X16437619Y-14098190D01*
X16447143Y-14117238D01*
X16447143Y-14174381D01*
X16437619Y-14193428D01*
X16428095Y-14202952D01*
X16409048Y-14212476D01*
X16380476Y-14212476D01*
X16561428Y-14212476D02*
X16542381Y-14202952D01*
X16532857Y-14183905D01*
X16532857Y-14012476D01*
X16713809Y-14202952D02*
X16694762Y-14212476D01*
X16656667Y-14212476D01*
X16637619Y-14202952D01*
X16628095Y-14183905D01*
X16628095Y-14107714D01*
X16637619Y-14088667D01*
X16656667Y-14079143D01*
X16694762Y-14079143D01*
X16713809Y-14088667D01*
X16723333Y-14107714D01*
X16723333Y-14126762D01*
X16628095Y-14145809D01*
X16799524Y-14202952D02*
X16818571Y-14212476D01*
X16856667Y-14212476D01*
X16875714Y-14202952D01*
X16885238Y-14183905D01*
X16885238Y-14174381D01*
X16875714Y-14155333D01*
X16856667Y-14145809D01*
X16828095Y-14145809D01*
X16809048Y-14136286D01*
X16799524Y-14117238D01*
X16799524Y-14107714D01*
X16809048Y-14088667D01*
X16828095Y-14079143D01*
X16856667Y-14079143D01*
X16875714Y-14088667D01*
X16951905Y-14288667D02*
X16961429Y-14279143D01*
X16980476Y-14250571D01*
X16990000Y-14231524D01*
X16999524Y-14202952D01*
X17009048Y-14155333D01*
X17009048Y-14117238D01*
X16999524Y-14069619D01*
X16990000Y-14041048D01*
X16980476Y-14022000D01*
X16961429Y-13993428D01*
X16951905Y-13983905D01*
D15*
X12100000Y-14466000D02*
X12180000Y-14386000D01*
X12100000Y-14306000D01*
X12020000Y-14386000D01*
X12100000Y-14466000D01*
D11*
X12542381Y-14476476D02*
X12428095Y-14476476D01*
X12485238Y-14476476D02*
X12485238Y-14276476D01*
X12466190Y-14305048D01*
X12447143Y-14324095D01*
X12428095Y-14333619D01*
X12628095Y-14457428D02*
X12637619Y-14466952D01*
X12628095Y-14476476D01*
X12618571Y-14466952D01*
X12628095Y-14457428D01*
X12628095Y-14476476D01*
X12809048Y-14276476D02*
X12770952Y-14276476D01*
X12751905Y-14286000D01*
X12742381Y-14295524D01*
X12723333Y-14324095D01*
X12713809Y-14362190D01*
X12713809Y-14438381D01*
X12723333Y-14457428D01*
X12732857Y-14466952D01*
X12751905Y-14476476D01*
X12790000Y-14476476D01*
X12809048Y-14466952D01*
X12818571Y-14457428D01*
X12828095Y-14438381D01*
X12828095Y-14390762D01*
X12818571Y-14371714D01*
X12809048Y-14362190D01*
X12790000Y-14352667D01*
X12751905Y-14352667D01*
X12732857Y-14362190D01*
X12723333Y-14371714D01*
X12713809Y-14390762D01*
X12951905Y-14276476D02*
X12970952Y-14276476D01*
X12990000Y-14286000D01*
X12999524Y-14295524D01*
X13009048Y-14314571D01*
X13018571Y-14352667D01*
X13018571Y-14400286D01*
X13009048Y-14438381D01*
X12999524Y-14457428D01*
X12990000Y-14466952D01*
X12970952Y-14476476D01*
X12951905Y-14476476D01*
X12932857Y-14466952D01*
X12923333Y-14457428D01*
X12913809Y-14438381D01*
X12904286Y-14400286D01*
X12904286Y-14352667D01*
X12913809Y-14314571D01*
X12923333Y-14295524D01*
X12932857Y-14286000D01*
X12951905Y-14276476D01*
X13142381Y-14276476D02*
X13161428Y-14276476D01*
X13180476Y-14286000D01*
X13190000Y-14295524D01*
X13199524Y-14314571D01*
X13209048Y-14352667D01*
X13209048Y-14400286D01*
X13199524Y-14438381D01*
X13190000Y-14457428D01*
X13180476Y-14466952D01*
X13161428Y-14476476D01*
X13142381Y-14476476D01*
X13123333Y-14466952D01*
X13113809Y-14457428D01*
X13104286Y-14438381D01*
X13094762Y-14400286D01*
X13094762Y-14352667D01*
X13104286Y-14314571D01*
X13113809Y-14295524D01*
X13123333Y-14286000D01*
X13142381Y-14276476D01*
X13294762Y-14476476D02*
X13294762Y-14343143D01*
X13294762Y-14362190D02*
X13304286Y-14352667D01*
X13323333Y-14343143D01*
X13351905Y-14343143D01*
X13370952Y-14352667D01*
X13380476Y-14371714D01*
X13380476Y-14476476D01*
X13380476Y-14371714D02*
X13390000Y-14352667D01*
X13409048Y-14343143D01*
X13437619Y-14343143D01*
X13456667Y-14352667D01*
X13466190Y-14371714D01*
X13466190Y-14476476D01*
X13561428Y-14476476D02*
X13561428Y-14343143D01*
X13561428Y-14362190D02*
X13570952Y-14352667D01*
X13590000Y-14343143D01*
X13618571Y-14343143D01*
X13637619Y-14352667D01*
X13647143Y-14371714D01*
X13647143Y-14476476D01*
X13647143Y-14371714D02*
X13656667Y-14352667D01*
X13675714Y-14343143D01*
X13704286Y-14343143D01*
X13723333Y-14352667D01*
X13732857Y-14371714D01*
X13732857Y-14476476D01*
X14123333Y-14266952D02*
X13951905Y-14524095D01*
X14380476Y-14276476D02*
X14399524Y-14276476D01*
X14418571Y-14286000D01*
X14428095Y-14295524D01*
X14437619Y-14314571D01*
X14447143Y-14352667D01*
X14447143Y-14400286D01*
X14437619Y-14438381D01*
X14428095Y-14457428D01*
X14418571Y-14466952D01*
X14399524Y-14476476D01*
X14380476Y-14476476D01*
X14361428Y-14466952D01*
X14351905Y-14457428D01*
X14342381Y-14438381D01*
X14332857Y-14400286D01*
X14332857Y-14352667D01*
X14342381Y-14314571D01*
X14351905Y-14295524D01*
X14361428Y-14286000D01*
X14380476Y-14276476D01*
X14532857Y-14457428D02*
X14542381Y-14466952D01*
X14532857Y-14476476D01*
X14523333Y-14466952D01*
X14532857Y-14457428D01*
X14532857Y-14476476D01*
X14666190Y-14276476D02*
X14685238Y-14276476D01*
X14704286Y-14286000D01*
X14713809Y-14295524D01*
X14723333Y-14314571D01*
X14732857Y-14352667D01*
X14732857Y-14400286D01*
X14723333Y-14438381D01*
X14713809Y-14457428D01*
X14704286Y-14466952D01*
X14685238Y-14476476D01*
X14666190Y-14476476D01*
X14647143Y-14466952D01*
X14637619Y-14457428D01*
X14628095Y-14438381D01*
X14618571Y-14400286D01*
X14618571Y-14352667D01*
X14628095Y-14314571D01*
X14637619Y-14295524D01*
X14647143Y-14286000D01*
X14666190Y-14276476D01*
X14904286Y-14276476D02*
X14866190Y-14276476D01*
X14847143Y-14286000D01*
X14837619Y-14295524D01*
X14818571Y-14324095D01*
X14809048Y-14362190D01*
X14809048Y-14438381D01*
X14818571Y-14457428D01*
X14828095Y-14466952D01*
X14847143Y-14476476D01*
X14885238Y-14476476D01*
X14904286Y-14466952D01*
X14913809Y-14457428D01*
X14923333Y-14438381D01*
X14923333Y-14390762D01*
X14913809Y-14371714D01*
X14904286Y-14362190D01*
X14885238Y-14352667D01*
X14847143Y-14352667D01*
X14828095Y-14362190D01*
X14818571Y-14371714D01*
X14809048Y-14390762D01*
X14990000Y-14276476D02*
X15113809Y-14276476D01*
X15047143Y-14352667D01*
X15075714Y-14352667D01*
X15094762Y-14362190D01*
X15104286Y-14371714D01*
X15113809Y-14390762D01*
X15113809Y-14438381D01*
X15104286Y-14457428D01*
X15094762Y-14466952D01*
X15075714Y-14476476D01*
X15018571Y-14476476D01*
X14999524Y-14466952D01*
X14990000Y-14457428D01*
X15237619Y-14276476D02*
X15256667Y-14276476D01*
X15275714Y-14286000D01*
X15285238Y-14295524D01*
X15294762Y-14314571D01*
X15304286Y-14352667D01*
X15304286Y-14400286D01*
X15294762Y-14438381D01*
X15285238Y-14457428D01*
X15275714Y-14466952D01*
X15256667Y-14476476D01*
X15237619Y-14476476D01*
X15218571Y-14466952D01*
X15209048Y-14457428D01*
X15199524Y-14438381D01*
X15190000Y-14400286D01*
X15190000Y-14352667D01*
X15199524Y-14314571D01*
X15209048Y-14295524D01*
X15218571Y-14286000D01*
X15237619Y-14276476D01*
X15380476Y-14276476D02*
X15380476Y-14314571D01*
X15456667Y-14276476D02*
X15456667Y-14314571D01*
X15751905Y-14552667D02*
X15742381Y-14543143D01*
X15723333Y-14514571D01*
X15713809Y-14495524D01*
X15704286Y-14466952D01*
X15694762Y-14419333D01*
X15694762Y-14381238D01*
X15704286Y-14333619D01*
X15713809Y-14305048D01*
X15723333Y-14286000D01*
X15742381Y-14257428D01*
X15751905Y-14247905D01*
X15913809Y-14343143D02*
X15913809Y-14476476D01*
X15866190Y-14266952D02*
X15818571Y-14409809D01*
X15942381Y-14409809D01*
X16170952Y-14476476D02*
X16170952Y-14276476D01*
X16256667Y-14476476D02*
X16256667Y-14371714D01*
X16247143Y-14352667D01*
X16228095Y-14343143D01*
X16199524Y-14343143D01*
X16180476Y-14352667D01*
X16170952Y-14362190D01*
X16380476Y-14476476D02*
X16361428Y-14466952D01*
X16351905Y-14457428D01*
X16342381Y-14438381D01*
X16342381Y-14381238D01*
X16351905Y-14362190D01*
X16361428Y-14352667D01*
X16380476Y-14343143D01*
X16409048Y-14343143D01*
X16428095Y-14352667D01*
X16437619Y-14362190D01*
X16447143Y-14381238D01*
X16447143Y-14438381D01*
X16437619Y-14457428D01*
X16428095Y-14466952D01*
X16409048Y-14476476D01*
X16380476Y-14476476D01*
X16561428Y-14476476D02*
X16542381Y-14466952D01*
X16532857Y-14447905D01*
X16532857Y-14276476D01*
X16713809Y-14466952D02*
X16694762Y-14476476D01*
X16656667Y-14476476D01*
X16637619Y-14466952D01*
X16628095Y-14447905D01*
X16628095Y-14371714D01*
X16637619Y-14352667D01*
X16656667Y-14343143D01*
X16694762Y-14343143D01*
X16713809Y-14352667D01*
X16723333Y-14371714D01*
X16723333Y-14390762D01*
X16628095Y-14409809D01*
X16799524Y-14466952D02*
X16818571Y-14476476D01*
X16856667Y-14476476D01*
X16875714Y-14466952D01*
X16885238Y-14447905D01*
X16885238Y-14438381D01*
X16875714Y-14419333D01*
X16856667Y-14409809D01*
X16828095Y-14409809D01*
X16809048Y-14400286D01*
X16799524Y-14381238D01*
X16799524Y-14371714D01*
X16809048Y-14352667D01*
X16828095Y-14343143D01*
X16856667Y-14343143D01*
X16875714Y-14352667D01*
X16951905Y-14552667D02*
X16961429Y-14543143D01*
X16980476Y-14514571D01*
X16990000Y-14495524D01*
X16999524Y-14466952D01*
X17009048Y-14419333D01*
X17009048Y-14381238D01*
X16999524Y-14333619D01*
X16990000Y-14305048D01*
X16980476Y-14286000D01*
X16961429Y-14257428D01*
X16951905Y-14247905D01*
M02*
