%TF.GenerationSoftware,KiCad,Pcbnew,6.0.7-f9a2dced07~116~ubuntu22.04.1*%
%TF.CreationDate,2022-09-19T14:52:07-04:00*%
%TF.ProjectId,Main_Controller_PCB V0.1,4d61696e-5f43-46f6-9e74-726f6c6c6572,rev?*%
%TF.SameCoordinates,Original*%
%TF.FileFunction,Drillmap*%
%TF.FilePolarity,Positive*%
%FSLAX45Y45*%
G04 Gerber Fmt 4.5, Leading zero omitted, Abs format (unit mm)*
G04 Created by KiCad (PCBNEW 6.0.7-f9a2dced07~116~ubuntu22.04.1) date 2022-09-19 14:52:07*
%MOMM*%
%LPD*%
G01*
G04 APERTURE LIST*
%ADD10C,0.100000*%
%ADD11C,0.200000*%
%ADD12C,0.220000*%
%ADD13C,0.325000*%
G04 APERTURE END LIST*
D10*
X19775000Y-7265000D02*
X19775000Y-12365000D01*
X19455000Y-12685000D02*
X12495000Y-12680000D01*
X12186274Y-7271274D02*
X12185000Y-12360000D01*
X12184999Y-12360000D02*
G75*
G03*
X12495000Y-12680000I320161J0D01*
G01*
X19455000Y-12685000D02*
G75*
G03*
X19775000Y-12365000I0J320000D01*
G01*
X19465000Y-6945000D02*
X12506274Y-6951274D01*
X19775001Y-7265000D02*
G75*
G03*
X19465000Y-6945000I-320161J0D01*
G01*
X12506274Y-6951274D02*
G75*
G03*
X12186274Y-7271274I-4J-319996D01*
G01*
D11*
D12*
X12400000Y-7150000D02*
X12620000Y-7370000D01*
X12620000Y-7150000D02*
X12400000Y-7370000D01*
X12425000Y-12245000D02*
X12645000Y-12465000D01*
X12645000Y-12245000D02*
X12425000Y-12465000D01*
X19275000Y-7150000D02*
X19495000Y-7370000D01*
X19495000Y-7150000D02*
X19275000Y-7370000D01*
X19280000Y-12260000D02*
X19500000Y-12480000D01*
X19500000Y-12260000D02*
X19280000Y-12480000D01*
D13*
X19002000Y-8053500D02*
G75*
G03*
X19002000Y-8053500I-162500J0D01*
G01*
X19002000Y-9196500D02*
G75*
G03*
X19002000Y-9196500I-162500J0D01*
G01*
X19002000Y-10328500D02*
G75*
G03*
X19002000Y-10328500I-162500J0D01*
G01*
X19002000Y-11471500D02*
G75*
G03*
X19002000Y-11471500I-162500J0D01*
G01*
D11*
X12437619Y-13000476D02*
X12437619Y-12800476D01*
X12485238Y-12800476D01*
X12513809Y-12810000D01*
X12532857Y-12829048D01*
X12542381Y-12848095D01*
X12551905Y-12886190D01*
X12551905Y-12914762D01*
X12542381Y-12952857D01*
X12532857Y-12971905D01*
X12513809Y-12990952D01*
X12485238Y-13000476D01*
X12437619Y-13000476D01*
X12637619Y-13000476D02*
X12637619Y-12867143D01*
X12637619Y-12905238D02*
X12647143Y-12886190D01*
X12656667Y-12876667D01*
X12675714Y-12867143D01*
X12694762Y-12867143D01*
X12761428Y-13000476D02*
X12761428Y-12867143D01*
X12761428Y-12800476D02*
X12751905Y-12810000D01*
X12761428Y-12819524D01*
X12770952Y-12810000D01*
X12761428Y-12800476D01*
X12761428Y-12819524D01*
X12885238Y-13000476D02*
X12866190Y-12990952D01*
X12856667Y-12971905D01*
X12856667Y-12800476D01*
X12990000Y-13000476D02*
X12970952Y-12990952D01*
X12961428Y-12971905D01*
X12961428Y-12800476D01*
X13218571Y-13000476D02*
X13218571Y-12800476D01*
X13285238Y-12943333D01*
X13351905Y-12800476D01*
X13351905Y-13000476D01*
X13532857Y-13000476D02*
X13532857Y-12895714D01*
X13523333Y-12876667D01*
X13504286Y-12867143D01*
X13466190Y-12867143D01*
X13447143Y-12876667D01*
X13532857Y-12990952D02*
X13513809Y-13000476D01*
X13466190Y-13000476D01*
X13447143Y-12990952D01*
X13437619Y-12971905D01*
X13437619Y-12952857D01*
X13447143Y-12933809D01*
X13466190Y-12924286D01*
X13513809Y-12924286D01*
X13532857Y-12914762D01*
X13628095Y-12867143D02*
X13628095Y-13067143D01*
X13628095Y-12876667D02*
X13647143Y-12867143D01*
X13685238Y-12867143D01*
X13704286Y-12876667D01*
X13713809Y-12886190D01*
X13723333Y-12905238D01*
X13723333Y-12962381D01*
X13713809Y-12981428D01*
X13704286Y-12990952D01*
X13685238Y-13000476D01*
X13647143Y-13000476D01*
X13628095Y-12990952D01*
X13809048Y-12981428D02*
X13818571Y-12990952D01*
X13809048Y-13000476D01*
X13799524Y-12990952D01*
X13809048Y-12981428D01*
X13809048Y-13000476D01*
X13809048Y-12876667D02*
X13818571Y-12886190D01*
X13809048Y-12895714D01*
X13799524Y-12886190D01*
X13809048Y-12876667D01*
X13809048Y-12895714D01*
X11980000Y-13230000D02*
X12180000Y-13430000D01*
X12180000Y-13230000D02*
X11980000Y-13430000D01*
X12428095Y-13239524D02*
X12437619Y-13230000D01*
X12456667Y-13220476D01*
X12504286Y-13220476D01*
X12523333Y-13230000D01*
X12532857Y-13239524D01*
X12542381Y-13258571D01*
X12542381Y-13277619D01*
X12532857Y-13306190D01*
X12418571Y-13420476D01*
X12542381Y-13420476D01*
X12628095Y-13401428D02*
X12637619Y-13410952D01*
X12628095Y-13420476D01*
X12618571Y-13410952D01*
X12628095Y-13401428D01*
X12628095Y-13420476D01*
X12713809Y-13239524D02*
X12723333Y-13230000D01*
X12742381Y-13220476D01*
X12790000Y-13220476D01*
X12809048Y-13230000D01*
X12818571Y-13239524D01*
X12828095Y-13258571D01*
X12828095Y-13277619D01*
X12818571Y-13306190D01*
X12704286Y-13420476D01*
X12828095Y-13420476D01*
X12951905Y-13220476D02*
X12970952Y-13220476D01*
X12990000Y-13230000D01*
X12999524Y-13239524D01*
X13009048Y-13258571D01*
X13018571Y-13296667D01*
X13018571Y-13344286D01*
X13009048Y-13382381D01*
X12999524Y-13401428D01*
X12990000Y-13410952D01*
X12970952Y-13420476D01*
X12951905Y-13420476D01*
X12932857Y-13410952D01*
X12923333Y-13401428D01*
X12913809Y-13382381D01*
X12904286Y-13344286D01*
X12904286Y-13296667D01*
X12913809Y-13258571D01*
X12923333Y-13239524D01*
X12932857Y-13230000D01*
X12951905Y-13220476D01*
X13142381Y-13220476D02*
X13161428Y-13220476D01*
X13180476Y-13230000D01*
X13190000Y-13239524D01*
X13199524Y-13258571D01*
X13209048Y-13296667D01*
X13209048Y-13344286D01*
X13199524Y-13382381D01*
X13190000Y-13401428D01*
X13180476Y-13410952D01*
X13161428Y-13420476D01*
X13142381Y-13420476D01*
X13123333Y-13410952D01*
X13113809Y-13401428D01*
X13104286Y-13382381D01*
X13094762Y-13344286D01*
X13094762Y-13296667D01*
X13104286Y-13258571D01*
X13113809Y-13239524D01*
X13123333Y-13230000D01*
X13142381Y-13220476D01*
X13294762Y-13420476D02*
X13294762Y-13287143D01*
X13294762Y-13306190D02*
X13304286Y-13296667D01*
X13323333Y-13287143D01*
X13351905Y-13287143D01*
X13370952Y-13296667D01*
X13380476Y-13315714D01*
X13380476Y-13420476D01*
X13380476Y-13315714D02*
X13390000Y-13296667D01*
X13409048Y-13287143D01*
X13437619Y-13287143D01*
X13456667Y-13296667D01*
X13466190Y-13315714D01*
X13466190Y-13420476D01*
X13561428Y-13420476D02*
X13561428Y-13287143D01*
X13561428Y-13306190D02*
X13570952Y-13296667D01*
X13590000Y-13287143D01*
X13618571Y-13287143D01*
X13637619Y-13296667D01*
X13647143Y-13315714D01*
X13647143Y-13420476D01*
X13647143Y-13315714D02*
X13656667Y-13296667D01*
X13675714Y-13287143D01*
X13704286Y-13287143D01*
X13723333Y-13296667D01*
X13732857Y-13315714D01*
X13732857Y-13420476D01*
X14123333Y-13210952D02*
X13951905Y-13468095D01*
X14380476Y-13220476D02*
X14399524Y-13220476D01*
X14418571Y-13230000D01*
X14428095Y-13239524D01*
X14437619Y-13258571D01*
X14447143Y-13296667D01*
X14447143Y-13344286D01*
X14437619Y-13382381D01*
X14428095Y-13401428D01*
X14418571Y-13410952D01*
X14399524Y-13420476D01*
X14380476Y-13420476D01*
X14361428Y-13410952D01*
X14351905Y-13401428D01*
X14342381Y-13382381D01*
X14332857Y-13344286D01*
X14332857Y-13296667D01*
X14342381Y-13258571D01*
X14351905Y-13239524D01*
X14361428Y-13230000D01*
X14380476Y-13220476D01*
X14532857Y-13401428D02*
X14542381Y-13410952D01*
X14532857Y-13420476D01*
X14523333Y-13410952D01*
X14532857Y-13401428D01*
X14532857Y-13420476D01*
X14666190Y-13220476D02*
X14685238Y-13220476D01*
X14704286Y-13230000D01*
X14713809Y-13239524D01*
X14723333Y-13258571D01*
X14732857Y-13296667D01*
X14732857Y-13344286D01*
X14723333Y-13382381D01*
X14713809Y-13401428D01*
X14704286Y-13410952D01*
X14685238Y-13420476D01*
X14666190Y-13420476D01*
X14647143Y-13410952D01*
X14637619Y-13401428D01*
X14628095Y-13382381D01*
X14618571Y-13344286D01*
X14618571Y-13296667D01*
X14628095Y-13258571D01*
X14637619Y-13239524D01*
X14647143Y-13230000D01*
X14666190Y-13220476D01*
X14847143Y-13306190D02*
X14828095Y-13296667D01*
X14818571Y-13287143D01*
X14809048Y-13268095D01*
X14809048Y-13258571D01*
X14818571Y-13239524D01*
X14828095Y-13230000D01*
X14847143Y-13220476D01*
X14885238Y-13220476D01*
X14904286Y-13230000D01*
X14913809Y-13239524D01*
X14923333Y-13258571D01*
X14923333Y-13268095D01*
X14913809Y-13287143D01*
X14904286Y-13296667D01*
X14885238Y-13306190D01*
X14847143Y-13306190D01*
X14828095Y-13315714D01*
X14818571Y-13325238D01*
X14809048Y-13344286D01*
X14809048Y-13382381D01*
X14818571Y-13401428D01*
X14828095Y-13410952D01*
X14847143Y-13420476D01*
X14885238Y-13420476D01*
X14904286Y-13410952D01*
X14913809Y-13401428D01*
X14923333Y-13382381D01*
X14923333Y-13344286D01*
X14913809Y-13325238D01*
X14904286Y-13315714D01*
X14885238Y-13306190D01*
X15094762Y-13220476D02*
X15056667Y-13220476D01*
X15037619Y-13230000D01*
X15028095Y-13239524D01*
X15009048Y-13268095D01*
X14999524Y-13306190D01*
X14999524Y-13382381D01*
X15009048Y-13401428D01*
X15018571Y-13410952D01*
X15037619Y-13420476D01*
X15075714Y-13420476D01*
X15094762Y-13410952D01*
X15104286Y-13401428D01*
X15113809Y-13382381D01*
X15113809Y-13334762D01*
X15104286Y-13315714D01*
X15094762Y-13306190D01*
X15075714Y-13296667D01*
X15037619Y-13296667D01*
X15018571Y-13306190D01*
X15009048Y-13315714D01*
X14999524Y-13334762D01*
X15285238Y-13220476D02*
X15247143Y-13220476D01*
X15228095Y-13230000D01*
X15218571Y-13239524D01*
X15199524Y-13268095D01*
X15190000Y-13306190D01*
X15190000Y-13382381D01*
X15199524Y-13401428D01*
X15209048Y-13410952D01*
X15228095Y-13420476D01*
X15266190Y-13420476D01*
X15285238Y-13410952D01*
X15294762Y-13401428D01*
X15304286Y-13382381D01*
X15304286Y-13334762D01*
X15294762Y-13315714D01*
X15285238Y-13306190D01*
X15266190Y-13296667D01*
X15228095Y-13296667D01*
X15209048Y-13306190D01*
X15199524Y-13315714D01*
X15190000Y-13334762D01*
X15380476Y-13220476D02*
X15380476Y-13258571D01*
X15456667Y-13220476D02*
X15456667Y-13258571D01*
X15751905Y-13496667D02*
X15742381Y-13487143D01*
X15723333Y-13458571D01*
X15713809Y-13439524D01*
X15704286Y-13410952D01*
X15694762Y-13363333D01*
X15694762Y-13325238D01*
X15704286Y-13277619D01*
X15713809Y-13249048D01*
X15723333Y-13230000D01*
X15742381Y-13201428D01*
X15751905Y-13191905D01*
X15913809Y-13287143D02*
X15913809Y-13420476D01*
X15866190Y-13210952D02*
X15818571Y-13353809D01*
X15942381Y-13353809D01*
X16170952Y-13420476D02*
X16170952Y-13220476D01*
X16256667Y-13420476D02*
X16256667Y-13315714D01*
X16247143Y-13296667D01*
X16228095Y-13287143D01*
X16199524Y-13287143D01*
X16180476Y-13296667D01*
X16170952Y-13306190D01*
X16380476Y-13420476D02*
X16361428Y-13410952D01*
X16351905Y-13401428D01*
X16342381Y-13382381D01*
X16342381Y-13325238D01*
X16351905Y-13306190D01*
X16361428Y-13296667D01*
X16380476Y-13287143D01*
X16409048Y-13287143D01*
X16428095Y-13296667D01*
X16437619Y-13306190D01*
X16447143Y-13325238D01*
X16447143Y-13382381D01*
X16437619Y-13401428D01*
X16428095Y-13410952D01*
X16409048Y-13420476D01*
X16380476Y-13420476D01*
X16561428Y-13420476D02*
X16542381Y-13410952D01*
X16532857Y-13391905D01*
X16532857Y-13220476D01*
X16713809Y-13410952D02*
X16694762Y-13420476D01*
X16656667Y-13420476D01*
X16637619Y-13410952D01*
X16628095Y-13391905D01*
X16628095Y-13315714D01*
X16637619Y-13296667D01*
X16656667Y-13287143D01*
X16694762Y-13287143D01*
X16713809Y-13296667D01*
X16723333Y-13315714D01*
X16723333Y-13334762D01*
X16628095Y-13353809D01*
X16799524Y-13410952D02*
X16818571Y-13420476D01*
X16856667Y-13420476D01*
X16875714Y-13410952D01*
X16885238Y-13391905D01*
X16885238Y-13382381D01*
X16875714Y-13363333D01*
X16856667Y-13353809D01*
X16828095Y-13353809D01*
X16809048Y-13344286D01*
X16799524Y-13325238D01*
X16799524Y-13315714D01*
X16809048Y-13296667D01*
X16828095Y-13287143D01*
X16856667Y-13287143D01*
X16875714Y-13296667D01*
X16951905Y-13496667D02*
X16961429Y-13487143D01*
X16980476Y-13458571D01*
X16990000Y-13439524D01*
X16999524Y-13410952D01*
X17009048Y-13363333D01*
X17009048Y-13325238D01*
X16999524Y-13277619D01*
X16990000Y-13249048D01*
X16980476Y-13230000D01*
X16961429Y-13201428D01*
X16951905Y-13191905D01*
X17313810Y-13496667D02*
X17304286Y-13487143D01*
X17285238Y-13458571D01*
X17275714Y-13439524D01*
X17266190Y-13410952D01*
X17256667Y-13363333D01*
X17256667Y-13325238D01*
X17266190Y-13277619D01*
X17275714Y-13249048D01*
X17285238Y-13230000D01*
X17304286Y-13201428D01*
X17313810Y-13191905D01*
X17390000Y-13287143D02*
X17390000Y-13420476D01*
X17390000Y-13306190D02*
X17399524Y-13296667D01*
X17418571Y-13287143D01*
X17447143Y-13287143D01*
X17466190Y-13296667D01*
X17475714Y-13315714D01*
X17475714Y-13420476D01*
X17599524Y-13420476D02*
X17580476Y-13410952D01*
X17570952Y-13401428D01*
X17561429Y-13382381D01*
X17561429Y-13325238D01*
X17570952Y-13306190D01*
X17580476Y-13296667D01*
X17599524Y-13287143D01*
X17628095Y-13287143D01*
X17647143Y-13296667D01*
X17656667Y-13306190D01*
X17666190Y-13325238D01*
X17666190Y-13382381D01*
X17656667Y-13401428D01*
X17647143Y-13410952D01*
X17628095Y-13420476D01*
X17599524Y-13420476D01*
X17723333Y-13287143D02*
X17799524Y-13287143D01*
X17751905Y-13220476D02*
X17751905Y-13391905D01*
X17761429Y-13410952D01*
X17780476Y-13420476D01*
X17799524Y-13420476D01*
X18018571Y-13287143D02*
X18018571Y-13487143D01*
X18018571Y-13296667D02*
X18037619Y-13287143D01*
X18075714Y-13287143D01*
X18094762Y-13296667D01*
X18104286Y-13306190D01*
X18113810Y-13325238D01*
X18113810Y-13382381D01*
X18104286Y-13401428D01*
X18094762Y-13410952D01*
X18075714Y-13420476D01*
X18037619Y-13420476D01*
X18018571Y-13410952D01*
X18228095Y-13420476D02*
X18209048Y-13410952D01*
X18199524Y-13391905D01*
X18199524Y-13220476D01*
X18390000Y-13420476D02*
X18390000Y-13315714D01*
X18380476Y-13296667D01*
X18361429Y-13287143D01*
X18323333Y-13287143D01*
X18304286Y-13296667D01*
X18390000Y-13410952D02*
X18370952Y-13420476D01*
X18323333Y-13420476D01*
X18304286Y-13410952D01*
X18294762Y-13391905D01*
X18294762Y-13372857D01*
X18304286Y-13353809D01*
X18323333Y-13344286D01*
X18370952Y-13344286D01*
X18390000Y-13334762D01*
X18456667Y-13287143D02*
X18532857Y-13287143D01*
X18485238Y-13220476D02*
X18485238Y-13391905D01*
X18494762Y-13410952D01*
X18513810Y-13420476D01*
X18532857Y-13420476D01*
X18675714Y-13410952D02*
X18656667Y-13420476D01*
X18618571Y-13420476D01*
X18599524Y-13410952D01*
X18590000Y-13391905D01*
X18590000Y-13315714D01*
X18599524Y-13296667D01*
X18618571Y-13287143D01*
X18656667Y-13287143D01*
X18675714Y-13296667D01*
X18685238Y-13315714D01*
X18685238Y-13334762D01*
X18590000Y-13353809D01*
X18856667Y-13420476D02*
X18856667Y-13220476D01*
X18856667Y-13410952D02*
X18837619Y-13420476D01*
X18799524Y-13420476D01*
X18780476Y-13410952D01*
X18770952Y-13401428D01*
X18761429Y-13382381D01*
X18761429Y-13325238D01*
X18770952Y-13306190D01*
X18780476Y-13296667D01*
X18799524Y-13287143D01*
X18837619Y-13287143D01*
X18856667Y-13296667D01*
X18932857Y-13496667D02*
X18942381Y-13487143D01*
X18961429Y-13458571D01*
X18970952Y-13439524D01*
X18980476Y-13410952D01*
X18990000Y-13363333D01*
X18990000Y-13325238D01*
X18980476Y-13277619D01*
X18970952Y-13249048D01*
X18961429Y-13230000D01*
X18942381Y-13201428D01*
X18932857Y-13191905D01*
X12180000Y-13650000D02*
G75*
G03*
X12180000Y-13650000I-100000J0D01*
G01*
X12418571Y-13540476D02*
X12542381Y-13540476D01*
X12475714Y-13616667D01*
X12504286Y-13616667D01*
X12523333Y-13626190D01*
X12532857Y-13635714D01*
X12542381Y-13654762D01*
X12542381Y-13702381D01*
X12532857Y-13721428D01*
X12523333Y-13730952D01*
X12504286Y-13740476D01*
X12447143Y-13740476D01*
X12428095Y-13730952D01*
X12418571Y-13721428D01*
X12628095Y-13721428D02*
X12637619Y-13730952D01*
X12628095Y-13740476D01*
X12618571Y-13730952D01*
X12628095Y-13721428D01*
X12628095Y-13740476D01*
X12713809Y-13559524D02*
X12723333Y-13550000D01*
X12742381Y-13540476D01*
X12790000Y-13540476D01*
X12809048Y-13550000D01*
X12818571Y-13559524D01*
X12828095Y-13578571D01*
X12828095Y-13597619D01*
X12818571Y-13626190D01*
X12704286Y-13740476D01*
X12828095Y-13740476D01*
X13009048Y-13540476D02*
X12913809Y-13540476D01*
X12904286Y-13635714D01*
X12913809Y-13626190D01*
X12932857Y-13616667D01*
X12980476Y-13616667D01*
X12999524Y-13626190D01*
X13009048Y-13635714D01*
X13018571Y-13654762D01*
X13018571Y-13702381D01*
X13009048Y-13721428D01*
X12999524Y-13730952D01*
X12980476Y-13740476D01*
X12932857Y-13740476D01*
X12913809Y-13730952D01*
X12904286Y-13721428D01*
X13142381Y-13540476D02*
X13161428Y-13540476D01*
X13180476Y-13550000D01*
X13190000Y-13559524D01*
X13199524Y-13578571D01*
X13209048Y-13616667D01*
X13209048Y-13664286D01*
X13199524Y-13702381D01*
X13190000Y-13721428D01*
X13180476Y-13730952D01*
X13161428Y-13740476D01*
X13142381Y-13740476D01*
X13123333Y-13730952D01*
X13113809Y-13721428D01*
X13104286Y-13702381D01*
X13094762Y-13664286D01*
X13094762Y-13616667D01*
X13104286Y-13578571D01*
X13113809Y-13559524D01*
X13123333Y-13550000D01*
X13142381Y-13540476D01*
X13294762Y-13740476D02*
X13294762Y-13607143D01*
X13294762Y-13626190D02*
X13304286Y-13616667D01*
X13323333Y-13607143D01*
X13351905Y-13607143D01*
X13370952Y-13616667D01*
X13380476Y-13635714D01*
X13380476Y-13740476D01*
X13380476Y-13635714D02*
X13390000Y-13616667D01*
X13409048Y-13607143D01*
X13437619Y-13607143D01*
X13456667Y-13616667D01*
X13466190Y-13635714D01*
X13466190Y-13740476D01*
X13561428Y-13740476D02*
X13561428Y-13607143D01*
X13561428Y-13626190D02*
X13570952Y-13616667D01*
X13590000Y-13607143D01*
X13618571Y-13607143D01*
X13637619Y-13616667D01*
X13647143Y-13635714D01*
X13647143Y-13740476D01*
X13647143Y-13635714D02*
X13656667Y-13616667D01*
X13675714Y-13607143D01*
X13704286Y-13607143D01*
X13723333Y-13616667D01*
X13732857Y-13635714D01*
X13732857Y-13740476D01*
X14123333Y-13530952D02*
X13951905Y-13788095D01*
X14380476Y-13540476D02*
X14399524Y-13540476D01*
X14418571Y-13550000D01*
X14428095Y-13559524D01*
X14437619Y-13578571D01*
X14447143Y-13616667D01*
X14447143Y-13664286D01*
X14437619Y-13702381D01*
X14428095Y-13721428D01*
X14418571Y-13730952D01*
X14399524Y-13740476D01*
X14380476Y-13740476D01*
X14361428Y-13730952D01*
X14351905Y-13721428D01*
X14342381Y-13702381D01*
X14332857Y-13664286D01*
X14332857Y-13616667D01*
X14342381Y-13578571D01*
X14351905Y-13559524D01*
X14361428Y-13550000D01*
X14380476Y-13540476D01*
X14532857Y-13721428D02*
X14542381Y-13730952D01*
X14532857Y-13740476D01*
X14523333Y-13730952D01*
X14532857Y-13721428D01*
X14532857Y-13740476D01*
X14732857Y-13740476D02*
X14618571Y-13740476D01*
X14675714Y-13740476D02*
X14675714Y-13540476D01*
X14656667Y-13569048D01*
X14637619Y-13588095D01*
X14618571Y-13597619D01*
X14809048Y-13559524D02*
X14818571Y-13550000D01*
X14837619Y-13540476D01*
X14885238Y-13540476D01*
X14904286Y-13550000D01*
X14913809Y-13559524D01*
X14923333Y-13578571D01*
X14923333Y-13597619D01*
X14913809Y-13626190D01*
X14799524Y-13740476D01*
X14923333Y-13740476D01*
X15037619Y-13626190D02*
X15018571Y-13616667D01*
X15009048Y-13607143D01*
X14999524Y-13588095D01*
X14999524Y-13578571D01*
X15009048Y-13559524D01*
X15018571Y-13550000D01*
X15037619Y-13540476D01*
X15075714Y-13540476D01*
X15094762Y-13550000D01*
X15104286Y-13559524D01*
X15113809Y-13578571D01*
X15113809Y-13588095D01*
X15104286Y-13607143D01*
X15094762Y-13616667D01*
X15075714Y-13626190D01*
X15037619Y-13626190D01*
X15018571Y-13635714D01*
X15009048Y-13645238D01*
X14999524Y-13664286D01*
X14999524Y-13702381D01*
X15009048Y-13721428D01*
X15018571Y-13730952D01*
X15037619Y-13740476D01*
X15075714Y-13740476D01*
X15094762Y-13730952D01*
X15104286Y-13721428D01*
X15113809Y-13702381D01*
X15113809Y-13664286D01*
X15104286Y-13645238D01*
X15094762Y-13635714D01*
X15075714Y-13626190D01*
X15237619Y-13540476D02*
X15256667Y-13540476D01*
X15275714Y-13550000D01*
X15285238Y-13559524D01*
X15294762Y-13578571D01*
X15304286Y-13616667D01*
X15304286Y-13664286D01*
X15294762Y-13702381D01*
X15285238Y-13721428D01*
X15275714Y-13730952D01*
X15256667Y-13740476D01*
X15237619Y-13740476D01*
X15218571Y-13730952D01*
X15209048Y-13721428D01*
X15199524Y-13702381D01*
X15190000Y-13664286D01*
X15190000Y-13616667D01*
X15199524Y-13578571D01*
X15209048Y-13559524D01*
X15218571Y-13550000D01*
X15237619Y-13540476D01*
X15380476Y-13540476D02*
X15380476Y-13578571D01*
X15456667Y-13540476D02*
X15456667Y-13578571D01*
X15751905Y-13816667D02*
X15742381Y-13807143D01*
X15723333Y-13778571D01*
X15713809Y-13759524D01*
X15704286Y-13730952D01*
X15694762Y-13683333D01*
X15694762Y-13645238D01*
X15704286Y-13597619D01*
X15713809Y-13569048D01*
X15723333Y-13550000D01*
X15742381Y-13521428D01*
X15751905Y-13511905D01*
X15913809Y-13607143D02*
X15913809Y-13740476D01*
X15866190Y-13530952D02*
X15818571Y-13673809D01*
X15942381Y-13673809D01*
X16170952Y-13740476D02*
X16170952Y-13540476D01*
X16256667Y-13740476D02*
X16256667Y-13635714D01*
X16247143Y-13616667D01*
X16228095Y-13607143D01*
X16199524Y-13607143D01*
X16180476Y-13616667D01*
X16170952Y-13626190D01*
X16380476Y-13740476D02*
X16361428Y-13730952D01*
X16351905Y-13721428D01*
X16342381Y-13702381D01*
X16342381Y-13645238D01*
X16351905Y-13626190D01*
X16361428Y-13616667D01*
X16380476Y-13607143D01*
X16409048Y-13607143D01*
X16428095Y-13616667D01*
X16437619Y-13626190D01*
X16447143Y-13645238D01*
X16447143Y-13702381D01*
X16437619Y-13721428D01*
X16428095Y-13730952D01*
X16409048Y-13740476D01*
X16380476Y-13740476D01*
X16561428Y-13740476D02*
X16542381Y-13730952D01*
X16532857Y-13711905D01*
X16532857Y-13540476D01*
X16713809Y-13730952D02*
X16694762Y-13740476D01*
X16656667Y-13740476D01*
X16637619Y-13730952D01*
X16628095Y-13711905D01*
X16628095Y-13635714D01*
X16637619Y-13616667D01*
X16656667Y-13607143D01*
X16694762Y-13607143D01*
X16713809Y-13616667D01*
X16723333Y-13635714D01*
X16723333Y-13654762D01*
X16628095Y-13673809D01*
X16799524Y-13730952D02*
X16818571Y-13740476D01*
X16856667Y-13740476D01*
X16875714Y-13730952D01*
X16885238Y-13711905D01*
X16885238Y-13702381D01*
X16875714Y-13683333D01*
X16856667Y-13673809D01*
X16828095Y-13673809D01*
X16809048Y-13664286D01*
X16799524Y-13645238D01*
X16799524Y-13635714D01*
X16809048Y-13616667D01*
X16828095Y-13607143D01*
X16856667Y-13607143D01*
X16875714Y-13616667D01*
X16951905Y-13816667D02*
X16961429Y-13807143D01*
X16980476Y-13778571D01*
X16990000Y-13759524D01*
X16999524Y-13730952D01*
X17009048Y-13683333D01*
X17009048Y-13645238D01*
X16999524Y-13597619D01*
X16990000Y-13569048D01*
X16980476Y-13550000D01*
X16961429Y-13521428D01*
X16951905Y-13511905D01*
X17313810Y-13816667D02*
X17304286Y-13807143D01*
X17285238Y-13778571D01*
X17275714Y-13759524D01*
X17266190Y-13730952D01*
X17256667Y-13683333D01*
X17256667Y-13645238D01*
X17266190Y-13597619D01*
X17275714Y-13569048D01*
X17285238Y-13550000D01*
X17304286Y-13521428D01*
X17313810Y-13511905D01*
X17390000Y-13607143D02*
X17390000Y-13740476D01*
X17390000Y-13626190D02*
X17399524Y-13616667D01*
X17418571Y-13607143D01*
X17447143Y-13607143D01*
X17466190Y-13616667D01*
X17475714Y-13635714D01*
X17475714Y-13740476D01*
X17599524Y-13740476D02*
X17580476Y-13730952D01*
X17570952Y-13721428D01*
X17561429Y-13702381D01*
X17561429Y-13645238D01*
X17570952Y-13626190D01*
X17580476Y-13616667D01*
X17599524Y-13607143D01*
X17628095Y-13607143D01*
X17647143Y-13616667D01*
X17656667Y-13626190D01*
X17666190Y-13645238D01*
X17666190Y-13702381D01*
X17656667Y-13721428D01*
X17647143Y-13730952D01*
X17628095Y-13740476D01*
X17599524Y-13740476D01*
X17723333Y-13607143D02*
X17799524Y-13607143D01*
X17751905Y-13540476D02*
X17751905Y-13711905D01*
X17761429Y-13730952D01*
X17780476Y-13740476D01*
X17799524Y-13740476D01*
X18018571Y-13607143D02*
X18018571Y-13807143D01*
X18018571Y-13616667D02*
X18037619Y-13607143D01*
X18075714Y-13607143D01*
X18094762Y-13616667D01*
X18104286Y-13626190D01*
X18113810Y-13645238D01*
X18113810Y-13702381D01*
X18104286Y-13721428D01*
X18094762Y-13730952D01*
X18075714Y-13740476D01*
X18037619Y-13740476D01*
X18018571Y-13730952D01*
X18228095Y-13740476D02*
X18209048Y-13730952D01*
X18199524Y-13711905D01*
X18199524Y-13540476D01*
X18390000Y-13740476D02*
X18390000Y-13635714D01*
X18380476Y-13616667D01*
X18361429Y-13607143D01*
X18323333Y-13607143D01*
X18304286Y-13616667D01*
X18390000Y-13730952D02*
X18370952Y-13740476D01*
X18323333Y-13740476D01*
X18304286Y-13730952D01*
X18294762Y-13711905D01*
X18294762Y-13692857D01*
X18304286Y-13673809D01*
X18323333Y-13664286D01*
X18370952Y-13664286D01*
X18390000Y-13654762D01*
X18456667Y-13607143D02*
X18532857Y-13607143D01*
X18485238Y-13540476D02*
X18485238Y-13711905D01*
X18494762Y-13730952D01*
X18513810Y-13740476D01*
X18532857Y-13740476D01*
X18675714Y-13730952D02*
X18656667Y-13740476D01*
X18618571Y-13740476D01*
X18599524Y-13730952D01*
X18590000Y-13711905D01*
X18590000Y-13635714D01*
X18599524Y-13616667D01*
X18618571Y-13607143D01*
X18656667Y-13607143D01*
X18675714Y-13616667D01*
X18685238Y-13635714D01*
X18685238Y-13654762D01*
X18590000Y-13673809D01*
X18856667Y-13740476D02*
X18856667Y-13540476D01*
X18856667Y-13730952D02*
X18837619Y-13740476D01*
X18799524Y-13740476D01*
X18780476Y-13730952D01*
X18770952Y-13721428D01*
X18761429Y-13702381D01*
X18761429Y-13645238D01*
X18770952Y-13626190D01*
X18780476Y-13616667D01*
X18799524Y-13607143D01*
X18837619Y-13607143D01*
X18856667Y-13616667D01*
X18932857Y-13816667D02*
X18942381Y-13807143D01*
X18961429Y-13778571D01*
X18970952Y-13759524D01*
X18980476Y-13730952D01*
X18990000Y-13683333D01*
X18990000Y-13645238D01*
X18980476Y-13597619D01*
X18970952Y-13569048D01*
X18961429Y-13550000D01*
X18942381Y-13521428D01*
X18932857Y-13511905D01*
M02*
