M48
; DRILL file {KiCad 6.0.7-f9a2dced07~116~ubuntu22.04.1} date Mon 19 Sep 2022 02:52:08 PM EDT
; FORMAT={-:-/ absolute / inch / decimal}
; #@! TF.CreationDate,2022-09-19T14:52:08-04:00
; #@! TF.GenerationSoftware,Kicad,Pcbnew,6.0.7-f9a2dced07~116~ubuntu22.04.1
; #@! TF.FileFunction,Plated,1,2,PTH
FMAT,2
INCH
; #@! TA.AperFunction,Plated,PTH,ViaDrill
T1C0.0157
; #@! TA.AperFunction,Plated,PTH,ComponentDrill
T2C0.0354
; #@! TA.AperFunction,Plated,PTH,ComponentDrill
T3C0.0394
; #@! TA.AperFunction,Plated,PTH,ComponentDrill
T4C0.0433
; #@! TA.AperFunction,Plated,PTH,ComponentDrill
T5C0.0630
%
G90
G05
T1
X5.3819Y-3.7559
X5.5394Y-4.2677
X6.1142Y-4.6654
X6.2795Y-4.2156
X6.3268Y-4.3701
X6.6417Y-4.5079
X6.8228Y-3.1575
X6.8583Y-4.2441
X6.8622Y-4.5197
X6.9291Y-3.2205
X7.2205Y-4.6969
X7.2677Y-4.0354
T2
X7.0671Y-3.2207
X7.0671Y-3.3207
X7.0671Y-3.4207
X7.0671Y-3.5207
X7.0671Y-4.1163
X7.0671Y-4.2163
X7.0671Y-4.3163
X7.0671Y-4.4163
X7.1671Y-3.2707
X7.1671Y-3.3707
X7.1671Y-3.4707
X7.1671Y-3.5707
X7.1671Y-4.1663
X7.1671Y-4.2663
X7.1671Y-4.3663
X7.1671Y-4.4663
T3
X4.935Y-4.3935
X4.935Y-4.4935
X4.935Y-4.5935
X5.1217Y-3.5488
X5.1217Y-4.1488
X5.2217Y-3.5488
X5.2217Y-4.1488
X5.3217Y-3.5488
X5.3217Y-4.1488
X5.398Y-4.878
X5.4217Y-3.5488
X5.4217Y-4.1488
X5.498Y-4.878
X5.5217Y-3.5488
X5.5217Y-4.1488
X5.6217Y-3.5488
X5.6217Y-4.1488
X5.7217Y-3.5488
X5.7217Y-4.1488
X5.8217Y-3.5488
X5.8217Y-4.1488
X5.8278Y-4.8839
X5.9217Y-3.5488
X5.9217Y-4.1488
X5.9278Y-4.8839
X6.0217Y-3.5488
X6.0217Y-4.1488
X6.0278Y-4.8839
X6.1217Y-3.5488
X6.1217Y-4.1488
X6.2217Y-3.5488
X6.2217Y-4.1488
X6.3217Y-3.5488
X6.3217Y-4.1488
X6.4217Y-3.5488
X6.4217Y-4.1488
X6.5217Y-3.5488
X6.5217Y-4.1488
X6.7657Y-4.874
X6.7697Y-2.8563
X6.8657Y-4.874
X6.8697Y-2.8563
X6.9657Y-4.874
X6.9697Y-2.8563
X7.0657Y-4.874
X7.0697Y-2.8563
X7.1657Y-4.874
X7.1697Y-2.8563
X7.2657Y-4.874
X7.2697Y-2.8563
T4
X5.3272Y-2.9429
X5.5272Y-2.9429
T5
X7.5372Y-3.0898
X7.5372Y-3.7016
X7.5372Y-3.9854
X7.5372Y-4.5972
T0
M30
