%TF.GenerationSoftware,KiCad,Pcbnew,6.0.7-f9a2dced07~116~ubuntu22.04.1*%
%TF.CreationDate,2022-09-19T14:52:12-04:00*%
%TF.ProjectId,Main_Controller_PCB V0.1,4d61696e-5f43-46f6-9e74-726f6c6c6572,rev?*%
%TF.SameCoordinates,Original*%
%TF.FileFunction,Soldermask,Bot*%
%TF.FilePolarity,Negative*%
%FSLAX46Y46*%
G04 Gerber Fmt 4.6, Leading zero omitted, Abs format (unit mm)*
G04 Created by KiCad (PCBNEW 6.0.7-f9a2dced07~116~ubuntu22.04.1) date 2022-09-19 14:52:12*
%MOMM*%
%LPD*%
G01*
G04 APERTURE LIST*
%ADD10R,1.700000X1.700000*%
%ADD11O,1.700000X1.700000*%
%ADD12C,2.200000*%
%ADD13C,3.250000*%
%ADD14R,1.500000X1.500000*%
%ADD15C,1.500000*%
%ADD16C,3.000000*%
%ADD17R,1.600000X1.600000*%
%ADD18O,1.600000X1.600000*%
%ADD19R,1.650000X1.650000*%
%ADD20C,1.650000*%
G04 APERTURE END LIST*
D10*
%TO.C,J2*%
X171850000Y-123800000D03*
D11*
X174390000Y-123800000D03*
X176930000Y-123800000D03*
X179470000Y-123800000D03*
X182010000Y-123800000D03*
X184550000Y-123800000D03*
%TD*%
D12*
%TO.C,H3*%
X193900000Y-123700000D03*
%TD*%
D10*
%TO.C,J1*%
X171950000Y-72550000D03*
D11*
X174490000Y-72550000D03*
X177030000Y-72550000D03*
X179570000Y-72550000D03*
X182110000Y-72550000D03*
X184650000Y-72550000D03*
%TD*%
D12*
%TO.C,H4*%
X125100000Y-72600000D03*
%TD*%
D13*
%TO.C,J7*%
X188395000Y-103285000D03*
X188395000Y-114715000D03*
D14*
X182045000Y-113445000D03*
D15*
X179505000Y-112175000D03*
X182045000Y-110905000D03*
X179505000Y-109635000D03*
X182045000Y-108365000D03*
X179505000Y-107095000D03*
X182045000Y-105825000D03*
X179505000Y-104555000D03*
D16*
X191445000Y-101230000D03*
X191445000Y-116770000D03*
%TD*%
D10*
%TO.C,J5*%
X137110000Y-123900000D03*
D11*
X139650000Y-123900000D03*
%TD*%
D13*
%TO.C,J8*%
X188395000Y-80535000D03*
X188395000Y-91965000D03*
D14*
X182045000Y-90695000D03*
D15*
X179505000Y-89425000D03*
X182045000Y-88155000D03*
X179505000Y-86885000D03*
X182045000Y-85615000D03*
X179505000Y-84345000D03*
X182045000Y-83075000D03*
X179505000Y-81805000D03*
D16*
X191445000Y-78480000D03*
X191445000Y-94020000D03*
%TD*%
D10*
%TO.C,J4*%
X148025000Y-124050000D03*
D11*
X150565000Y-124050000D03*
X153105000Y-124050000D03*
%TD*%
D17*
%TO.C,A1*%
X165650000Y-90140000D03*
D18*
X163110000Y-90140000D03*
X160570000Y-90140000D03*
X158030000Y-90140000D03*
X155490000Y-90140000D03*
X152950000Y-90140000D03*
X150410000Y-90140000D03*
X147870000Y-90140000D03*
X145330000Y-90140000D03*
X142790000Y-90140000D03*
X140250000Y-90140000D03*
X137710000Y-90140000D03*
X135170000Y-90140000D03*
X132630000Y-90140000D03*
X130090000Y-90140000D03*
X130090000Y-105380000D03*
X132630000Y-105380000D03*
X135170000Y-105380000D03*
X137710000Y-105380000D03*
X140250000Y-105380000D03*
X142790000Y-105380000D03*
X145330000Y-105380000D03*
X147870000Y-105380000D03*
X150410000Y-105380000D03*
X152950000Y-105380000D03*
X155490000Y-105380000D03*
X158030000Y-105380000D03*
X160570000Y-105380000D03*
X163110000Y-105380000D03*
X165650000Y-105380000D03*
%TD*%
D10*
%TO.C,J3*%
X125350000Y-116675000D03*
D11*
X125350000Y-114135000D03*
X125350000Y-111595000D03*
%TD*%
D19*
%TO.C,J6*%
X135310000Y-74750000D03*
D20*
X140390000Y-74750000D03*
%TD*%
D12*
%TO.C,H1*%
X193850000Y-72600000D03*
%TD*%
%TO.C,H2*%
X125350000Y-123550000D03*
%TD*%
M02*
