M48
; DRILL file {KiCad (5.1.10-1-10_14)} date Monday, September 27, 2021 at 01:26:08 PM
; FORMAT={-:-/ absolute / inch / decimal}
; #@! TF.CreationDate,2021-09-27T13:26:08-04:00
; #@! TF.GenerationSoftware,Kicad,Pcbnew,(5.1.10-1-10_14)
FMAT,2
INCH
T1C0.0157
T2C0.0276
T3C0.0315
T4C0.0350
T5C0.0354
T6C0.0362
T7C0.0394
T8C0.0402
T9C0.0512
T10C0.0550
T11C0.0890
T12C0.0591
T13C0.0709
T14C0.1260
%
G90
G05
T1
X5.8Y-3.9
X7.4Y-2.95
X7.45Y-2.9
X7.475Y-3.1
X8.45Y-2.725
T2
X5.725Y-3.1
X6.025Y-3.1
X7.725Y-3.125
X8.025Y-3.125
T3
X5.55Y-4.65
X5.55Y-4.7484
X5.55Y-5.0
X5.55Y-5.0984
T4
X4.35Y-3.575
X4.35Y-3.675
X4.35Y-3.775
X4.65Y-3.275
X4.75Y-3.275
X4.85Y-3.275
X8.275Y-3.475
X8.275Y-3.575
X8.275Y-3.675
X8.575Y-3.175
X8.675Y-3.175
X8.775Y-3.175
T5
X5.05Y-3.55
X5.05Y-3.8
X5.25Y-3.55
X5.25Y-3.8
X5.85Y-2.2
X5.95Y-2.2
X7.85Y-2.2
X7.95Y-2.2
X8.975Y-3.45
X8.975Y-3.7
X9.175Y-3.45
X9.175Y-3.7
T6
X8.6285Y-2.5817
X8.727Y-2.5817
X8.8057Y-2.5817
X8.9041Y-2.5817
T7
X6.725Y-2.875
X6.725Y-2.975
X6.825Y-2.875
X6.825Y-2.975
X6.925Y-2.875
X6.925Y-2.975
X7.025Y-2.875
X7.025Y-2.975
T8
X6.525Y-3.325
X6.525Y-3.425
X6.525Y-3.525
X6.525Y-3.625
X6.525Y-3.725
X6.525Y-3.825
X6.525Y-3.925
X6.525Y-4.025
X6.525Y-4.125
X6.525Y-4.225
X6.525Y-4.325
X6.525Y-4.425
X6.525Y-4.525
X6.525Y-4.625
X6.525Y-4.725
X6.525Y-4.825
X6.525Y-4.925
X6.525Y-5.025
X6.525Y-5.125
X6.525Y-5.225
X6.775Y-3.3341
X6.875Y-3.3341
X6.975Y-3.3341
X7.225Y-3.325
X7.225Y-3.425
X7.225Y-3.525
X7.225Y-3.625
X7.225Y-3.725
X7.225Y-3.825
X7.225Y-3.925
X7.225Y-4.025
X7.225Y-4.125
X7.225Y-4.225
X7.225Y-4.325
X7.225Y-4.425
X7.225Y-4.525
X7.225Y-4.625
X7.225Y-4.725
X7.225Y-4.825
X7.225Y-4.925
X7.225Y-5.025
X7.225Y-5.125
X7.225Y-5.225
T9
X5.6329Y-2.5781
X5.6329Y-2.775
X6.125Y-2.5781
X6.125Y-2.775
X7.6329Y-2.575
X7.6329Y-2.7719
X8.125Y-2.575
X8.125Y-2.7719
T10
X4.4875Y-3.375
X4.4875Y-3.975
X5.0125Y-3.375
X5.0125Y-3.975
X8.4125Y-3.275
X8.4125Y-3.875
X8.9375Y-3.275
X8.9375Y-3.875
T11
X8.5077Y-2.475
X9.025Y-2.475
T12
X6.7795Y-5.1006
X6.9705Y-5.1006
T13
X6.7677Y-5.2199
X6.9823Y-5.2199
T14
X4.175Y-2.25
X4.225Y-5.225
X9.275Y-5.2
X9.3Y-2.275
T0
M30
