%TF.GenerationSoftware,KiCad,Pcbnew,(5.1.10-1-10_14)*%
%TF.CreationDate,2021-09-27T13:26:11-04:00*%
%TF.ProjectId,Controller_V1,436f6e74-726f-46c6-9c65-725f56312e6b,rev?*%
%TF.SameCoordinates,Original*%
%TF.FileFunction,Copper,L1,Top*%
%TF.FilePolarity,Positive*%
%FSLAX46Y46*%
G04 Gerber Fmt 4.6, Leading zero omitted, Abs format (unit mm)*
G04 Created by KiCad (PCBNEW (5.1.10-1-10_14)) date 2021-09-27 13:26:11*
%MOMM*%
%LPD*%
G01*
G04 APERTURE LIST*
%TA.AperFunction,ComponentPad*%
%ADD10O,3.048000X1.850000*%
%TD*%
%TA.AperFunction,ComponentPad*%
%ADD11O,1.400000X1.400000*%
%TD*%
%TA.AperFunction,ComponentPad*%
%ADD12C,1.400000*%
%TD*%
%TA.AperFunction,ComponentPad*%
%ADD13C,3.276000*%
%TD*%
%TA.AperFunction,ComponentPad*%
%ADD14C,1.428000*%
%TD*%
%TA.AperFunction,ComponentPad*%
%ADD15R,1.428000X1.428000*%
%TD*%
%TA.AperFunction,ComponentPad*%
%ADD16C,1.800000*%
%TD*%
%TA.AperFunction,ComponentPad*%
%ADD17R,1.800000X1.800000*%
%TD*%
%TA.AperFunction,ComponentPad*%
%ADD18O,1.700000X1.700000*%
%TD*%
%TA.AperFunction,SMDPad,CuDef*%
%ADD19R,1.700000X3.500000*%
%TD*%
%TA.AperFunction,ComponentPad*%
%ADD20R,1.700000X1.700000*%
%TD*%
%TA.AperFunction,SMDPad,CuDef*%
%ADD21R,3.500000X1.700000*%
%TD*%
%TA.AperFunction,SMDPad,CuDef*%
%ADD22R,3.098800X1.600200*%
%TD*%
%TA.AperFunction,SMDPad,CuDef*%
%ADD23R,0.838200X1.600200*%
%TD*%
%TA.AperFunction,ComponentPad*%
%ADD24C,1.600000*%
%TD*%
%TA.AperFunction,ComponentPad*%
%ADD25R,1.600000X1.600000*%
%TD*%
%TA.AperFunction,ComponentPad*%
%ADD26C,1.778000*%
%TD*%
%TA.AperFunction,ComponentPad*%
%ADD27C,2.286000*%
%TD*%
%TA.AperFunction,ViaPad*%
%ADD28C,0.800000*%
%TD*%
%TA.AperFunction,Conductor*%
%ADD29C,0.250000*%
%TD*%
G04 APERTURE END LIST*
D10*
%TO.P,SW2,2*%
%TO.N,GND*%
X193875000Y-70405000D03*
%TO.P,SW2,1*%
%TO.N,GP16*%
X193875000Y-65405000D03*
%TO.P,SW2,2*%
%TO.N,GND*%
X206375000Y-70405000D03*
%TO.P,SW2,1*%
%TO.N,GP16*%
X206375000Y-65405000D03*
%TD*%
%TO.P,SW1,2*%
%TO.N,GND*%
X143075000Y-70485000D03*
%TO.P,SW1,1*%
%TO.N,GP15*%
X143075000Y-65485000D03*
%TO.P,SW1,2*%
%TO.N,GND*%
X155575000Y-70485000D03*
%TO.P,SW1,1*%
%TO.N,GP15*%
X155575000Y-65485000D03*
%TD*%
D11*
%TO.P,R2,2*%
%TO.N,GP09*%
X196215000Y-79375000D03*
D12*
%TO.P,R2,1*%
%TO.N,Net-(D2-Pad2)*%
X203835000Y-79375000D03*
%TD*%
D11*
%TO.P,R1,2*%
%TO.N,GP10*%
X153035000Y-78740000D03*
D12*
%TO.P,R1,1*%
%TO.N,Net-(D1-Pad2)*%
X145415000Y-78740000D03*
%TD*%
D13*
%TO.P,J2,S2*%
%TO.N,Net-(J2-PadS1)*%
X216095000Y-62865000D03*
%TO.P,J2,S1*%
X229235000Y-62865000D03*
D14*
%TO.P,J2,4*%
%TO.N,GND*%
X219165000Y-65575000D03*
%TO.P,J2,3*%
%TO.N,Net-(J2-Pad3)*%
X221665000Y-65575000D03*
%TO.P,J2,2*%
%TO.N,Net-(J2-Pad2)*%
X223665000Y-65575000D03*
D15*
%TO.P,J2,1*%
%TO.N,+5V*%
X226165000Y-65575000D03*
%TD*%
D16*
%TO.P,D2,2*%
%TO.N,Net-(D2-Pad2)*%
X201930000Y-55880000D03*
D17*
%TO.P,D2,1*%
%TO.N,GND*%
X199390000Y-55880000D03*
%TD*%
D16*
%TO.P,D1,2*%
%TO.N,Net-(D1-Pad2)*%
X151130000Y-55880000D03*
D17*
%TO.P,D1,1*%
%TO.N,GND*%
X148590000Y-55880000D03*
%TD*%
D18*
%TO.P,U2,43*%
%TO.N,Net-(U2-Pad43)*%
X172085000Y-84685000D03*
D19*
X172085000Y-83785000D03*
D20*
%TO.P,U2,42*%
%TO.N,Net-(U2-Pad42)*%
X174625000Y-84685000D03*
D19*
X174625000Y-83785000D03*
D18*
%TO.P,U2,41*%
%TO.N,Net-(U2-Pad41)*%
X177165000Y-84685000D03*
D19*
X177165000Y-83785000D03*
D21*
%TO.P,U2,21*%
%TO.N,GP16*%
X164835000Y-84455000D03*
%TO.P,U2,22*%
%TO.N,GP17*%
X164835000Y-86995000D03*
%TO.P,U2,23*%
%TO.N,Net-(U2-Pad23)*%
X164835000Y-89535000D03*
%TO.P,U2,24*%
%TO.N,Net-(U2-Pad24)*%
X164835000Y-92075000D03*
%TO.P,U2,25*%
%TO.N,Net-(U2-Pad25)*%
X164835000Y-94615000D03*
%TO.P,U2,26*%
%TO.N,Net-(U2-Pad26)*%
X164835000Y-97155000D03*
%TO.P,U2,27*%
%TO.N,Net-(U2-Pad27)*%
X164835000Y-99695000D03*
%TO.P,U2,28*%
%TO.N,Net-(U2-Pad28)*%
X164835000Y-102235000D03*
%TO.P,U2,29*%
%TO.N,Net-(U2-Pad29)*%
X164835000Y-104775000D03*
%TO.P,U2,30*%
%TO.N,Net-(U2-Pad30)*%
X164835000Y-107315000D03*
%TO.P,U2,31*%
%TO.N,GP26*%
X164835000Y-109855000D03*
%TO.P,U2,32*%
%TO.N,GP27*%
X164835000Y-112395000D03*
%TO.P,U2,33*%
%TO.N,Net-(U2-Pad33)*%
X164835000Y-114935000D03*
%TO.P,U2,34*%
%TO.N,GP28*%
X164835000Y-117475000D03*
%TO.P,U2,35*%
%TO.N,Net-(U2-Pad35)*%
X164835000Y-120015000D03*
%TO.P,U2,36*%
%TO.N,Net-(U2-Pad36)*%
X164835000Y-122555000D03*
%TO.P,U2,37*%
%TO.N,Net-(U2-Pad37)*%
X164835000Y-125095000D03*
%TO.P,U2,38*%
%TO.N,GND*%
X164835000Y-127635000D03*
%TO.P,U2,39*%
%TO.N,+3V3*%
X164835000Y-130175000D03*
%TO.P,U2,40*%
%TO.N,Net-(U2-Pad40)*%
X164835000Y-132715000D03*
%TO.P,U2,20*%
%TO.N,GP15*%
X184415000Y-84455000D03*
%TO.P,U2,19*%
%TO.N,GP14*%
X184415000Y-86995000D03*
%TO.P,U2,18*%
%TO.N,Net-(U2-Pad18)*%
X184415000Y-89535000D03*
%TO.P,U2,17*%
%TO.N,Net-(U2-Pad17)*%
X184415000Y-92075000D03*
%TO.P,U2,16*%
%TO.N,Net-(U2-Pad16)*%
X184415000Y-94615000D03*
%TO.P,U2,15*%
%TO.N,Net-(U2-Pad15)*%
X184415000Y-97155000D03*
%TO.P,U2,14*%
%TO.N,GP10*%
X184415000Y-99695000D03*
%TO.P,U2,13*%
%TO.N,Net-(U2-Pad13)*%
X184415000Y-102235000D03*
%TO.P,U2,12*%
%TO.N,GP09*%
X184415000Y-104775000D03*
%TO.P,U2,11*%
%TO.N,Net-(U2-Pad11)*%
X184415000Y-107315000D03*
%TO.P,U2,10*%
%TO.N,GP07*%
X184415000Y-109855000D03*
%TO.P,U2,9*%
%TO.N,GP06*%
X184415000Y-112395000D03*
%TO.P,U2,8*%
%TO.N,Net-(U2-Pad8)*%
X184415000Y-114935000D03*
%TO.P,U2,7*%
%TO.N,Net-(U2-Pad7)*%
X184415000Y-117475000D03*
%TO.P,U2,6*%
%TO.N,GP04*%
X184415000Y-120015000D03*
%TO.P,U2,5*%
%TO.N,Net-(U2-Pad5)*%
X184415000Y-122555000D03*
%TO.P,U2,4*%
%TO.N,Net-(U2-Pad4)*%
X184415000Y-125095000D03*
%TO.P,U2,3*%
%TO.N,Net-(U2-Pad3)*%
X184415000Y-127635000D03*
%TO.P,U2,2*%
%TO.N,Net-(U2-Pad2)*%
X184415000Y-130175000D03*
%TO.P,U2,1*%
%TO.N,Net-(U2-Pad1)*%
X184415000Y-132715000D03*
D18*
%TO.P,U2,40*%
%TO.N,Net-(U2-Pad40)*%
X165735000Y-132715000D03*
%TO.P,U2,39*%
%TO.N,+3V3*%
X165735000Y-130175000D03*
D20*
%TO.P,U2,38*%
%TO.N,GND*%
X165735000Y-127635000D03*
D18*
%TO.P,U2,37*%
%TO.N,Net-(U2-Pad37)*%
X165735000Y-125095000D03*
%TO.P,U2,36*%
%TO.N,Net-(U2-Pad36)*%
X165735000Y-122555000D03*
%TO.P,U2,35*%
%TO.N,Net-(U2-Pad35)*%
X165735000Y-120015000D03*
%TO.P,U2,34*%
%TO.N,GP28*%
X165735000Y-117475000D03*
D20*
%TO.P,U2,33*%
%TO.N,Net-(U2-Pad33)*%
X165735000Y-114935000D03*
D18*
%TO.P,U2,32*%
%TO.N,GP27*%
X165735000Y-112395000D03*
%TO.P,U2,31*%
%TO.N,GP26*%
X165735000Y-109855000D03*
%TO.P,U2,30*%
%TO.N,Net-(U2-Pad30)*%
X165735000Y-107315000D03*
%TO.P,U2,29*%
%TO.N,Net-(U2-Pad29)*%
X165735000Y-104775000D03*
D20*
%TO.P,U2,28*%
%TO.N,Net-(U2-Pad28)*%
X165735000Y-102235000D03*
D18*
%TO.P,U2,27*%
%TO.N,Net-(U2-Pad27)*%
X165735000Y-99695000D03*
%TO.P,U2,26*%
%TO.N,Net-(U2-Pad26)*%
X165735000Y-97155000D03*
%TO.P,U2,25*%
%TO.N,Net-(U2-Pad25)*%
X165735000Y-94615000D03*
%TO.P,U2,24*%
%TO.N,Net-(U2-Pad24)*%
X165735000Y-92075000D03*
D20*
%TO.P,U2,23*%
%TO.N,Net-(U2-Pad23)*%
X165735000Y-89535000D03*
D18*
%TO.P,U2,22*%
%TO.N,GP17*%
X165735000Y-86995000D03*
%TO.P,U2,21*%
%TO.N,GP16*%
X165735000Y-84455000D03*
%TO.P,U2,20*%
%TO.N,GP15*%
X183515000Y-84455000D03*
%TO.P,U2,19*%
%TO.N,GP14*%
X183515000Y-86995000D03*
D20*
%TO.P,U2,18*%
%TO.N,Net-(U2-Pad18)*%
X183515000Y-89535000D03*
D18*
%TO.P,U2,17*%
%TO.N,Net-(U2-Pad17)*%
X183515000Y-92075000D03*
%TO.P,U2,16*%
%TO.N,Net-(U2-Pad16)*%
X183515000Y-94615000D03*
%TO.P,U2,15*%
%TO.N,Net-(U2-Pad15)*%
X183515000Y-97155000D03*
%TO.P,U2,14*%
%TO.N,GP10*%
X183515000Y-99695000D03*
D20*
%TO.P,U2,13*%
%TO.N,Net-(U2-Pad13)*%
X183515000Y-102235000D03*
D18*
%TO.P,U2,12*%
%TO.N,GP09*%
X183515000Y-104775000D03*
%TO.P,U2,11*%
%TO.N,Net-(U2-Pad11)*%
X183515000Y-107315000D03*
%TO.P,U2,10*%
%TO.N,GP07*%
X183515000Y-109855000D03*
%TO.P,U2,9*%
%TO.N,GP06*%
X183515000Y-112395000D03*
D20*
%TO.P,U2,8*%
%TO.N,Net-(U2-Pad8)*%
X183515000Y-114935000D03*
D18*
%TO.P,U2,7*%
%TO.N,Net-(U2-Pad7)*%
X183515000Y-117475000D03*
%TO.P,U2,6*%
%TO.N,GP04*%
X183515000Y-120015000D03*
%TO.P,U2,5*%
%TO.N,Net-(U2-Pad5)*%
X183515000Y-122555000D03*
%TO.P,U2,4*%
%TO.N,Net-(U2-Pad4)*%
X183515000Y-125095000D03*
D20*
%TO.P,U2,3*%
%TO.N,Net-(U2-Pad3)*%
X183515000Y-127635000D03*
D18*
%TO.P,U2,2*%
%TO.N,Net-(U2-Pad2)*%
X183515000Y-130175000D03*
%TO.P,U2,1*%
%TO.N,Net-(U2-Pad1)*%
X183515000Y-132715000D03*
%TD*%
D22*
%TO.P,VR1,4*%
%TO.N,N/C*%
X128879600Y-127660400D03*
D23*
%TO.P,VR1,3*%
%TO.N,+5V*%
X126568200Y-121259600D03*
%TO.P,VR1,2*%
%TO.N,+3V3*%
X128879600Y-121259600D03*
%TO.P,VR1,1*%
%TO.N,GND*%
X131191000Y-121259600D03*
%TD*%
D24*
%TO.P,C2,2*%
%TO.N,GND*%
X140970000Y-120610000D03*
D25*
%TO.P,C2,1*%
%TO.N,+3V3*%
X140970000Y-118110000D03*
%TD*%
D24*
%TO.P,C1,2*%
%TO.N,GND*%
X140970000Y-129500000D03*
D25*
%TO.P,C1,1*%
%TO.N,+5V*%
X140970000Y-127000000D03*
%TD*%
D26*
%TO.P,U3,V3*%
%TO.N,GND*%
X217805000Y-80645000D03*
%TO.P,U3,V2*%
%TO.N,GP27*%
X220345000Y-80645000D03*
%TO.P,U3,V1*%
%TO.N,+3V3*%
X222885000Y-80645000D03*
D27*
%TO.P,U3,S4*%
%TO.N,Net-(U3-PadS1)*%
X227012500Y-98425000D03*
%TO.P,U3,S3*%
X213677500Y-98425000D03*
%TO.P,U3,S2*%
X213677500Y-83185000D03*
%TO.P,U3,S1*%
X227012500Y-83185000D03*
D26*
%TO.P,U3,H3*%
%TO.N,GND*%
X210185000Y-93345000D03*
%TO.P,U3,H2*%
%TO.N,GP26*%
X210185000Y-90805000D03*
%TO.P,U3,H1*%
%TO.N,+3V3*%
X210185000Y-88265000D03*
%TO.P,U3,B2B*%
%TO.N,N/C*%
X227965000Y-93980000D03*
%TO.P,U3,B2A*%
%TO.N,Net-(U3-PadB2A)*%
X227965000Y-87630000D03*
%TO.P,U3,B1B*%
%TO.N,N/C*%
X233045000Y-93980000D03*
%TO.P,U3,B1A*%
%TO.N,Net-(U3-PadB1A)*%
X233045000Y-87630000D03*
%TD*%
%TO.P,U1,V3*%
%TO.N,GND*%
X118110000Y-83185000D03*
%TO.P,U1,V2*%
%TO.N,GP28*%
X120650000Y-83185000D03*
%TO.P,U1,V1*%
%TO.N,+3V3*%
X123190000Y-83185000D03*
D27*
%TO.P,U1,S4*%
%TO.N,Net-(U1-PadS1)*%
X127317500Y-100965000D03*
%TO.P,U1,S3*%
X113982500Y-100965000D03*
%TO.P,U1,S2*%
X113982500Y-85725000D03*
%TO.P,U1,S1*%
X127317500Y-85725000D03*
D26*
%TO.P,U1,H3*%
%TO.N,Net-(U1-PadH3)*%
X110490000Y-95885000D03*
%TO.P,U1,H2*%
%TO.N,Net-(U1-PadH2)*%
X110490000Y-93345000D03*
%TO.P,U1,H1*%
%TO.N,Net-(U1-PadH1)*%
X110490000Y-90805000D03*
%TO.P,U1,B2B*%
%TO.N,N/C*%
X128270000Y-96520000D03*
%TO.P,U1,B2A*%
%TO.N,Net-(U1-PadB2A)*%
X128270000Y-90170000D03*
%TO.P,U1,B1B*%
%TO.N,N/C*%
X133350000Y-96520000D03*
%TO.P,U1,B1A*%
%TO.N,Net-(U1-PadB1A)*%
X133350000Y-90170000D03*
%TD*%
D18*
%TO.P,J1,8*%
%TO.N,Net-(J1-Pad8)*%
X178435000Y-73025000D03*
%TO.P,J1,7*%
%TO.N,GP07*%
X178435000Y-75565000D03*
%TO.P,J1,6*%
%TO.N,GP04*%
X175895000Y-73025000D03*
%TO.P,J1,5*%
%TO.N,GP06*%
X175895000Y-75565000D03*
%TO.P,J1,4*%
%TO.N,GP14*%
X173355000Y-73025000D03*
%TO.P,J1,3*%
%TO.N,GP17*%
X173355000Y-75565000D03*
%TO.P,J1,2*%
%TO.N,+3V3*%
X170815000Y-73025000D03*
D20*
%TO.P,J1,1*%
%TO.N,GND*%
X170815000Y-75565000D03*
%TD*%
D28*
%TO.N,GP07*%
X187960000Y-74930000D03*
%TO.N,GP04*%
X189230000Y-73660000D03*
%TO.N,GP06*%
X189865010Y-78740000D03*
%TO.N,+3V3*%
X147320000Y-99060000D03*
X214630000Y-69215000D03*
%TD*%
D29*
%TO.N,GP07*%
X183515000Y-75565000D02*
X178435000Y-75565000D01*
X184150000Y-74930000D02*
X183515000Y-75565000D01*
X187960000Y-74930000D02*
X184150000Y-74930000D01*
%TO.N,GP04*%
X176530000Y-71755000D02*
X175895000Y-72390000D01*
X183515000Y-71755000D02*
X176530000Y-71755000D01*
X185420000Y-73660000D02*
X183515000Y-71755000D01*
X175895000Y-72390000D02*
X175895000Y-73025000D01*
X189230000Y-73660000D02*
X185420000Y-73660000D01*
%TO.N,GP06*%
X187960000Y-76835000D02*
X189865000Y-78740000D01*
X176530000Y-76835000D02*
X187960000Y-76835000D01*
X189865000Y-78740000D02*
X189865010Y-78740000D01*
X175895000Y-76200000D02*
X176530000Y-76835000D01*
X175895000Y-75565000D02*
X175895000Y-76200000D01*
%TO.N,GP14*%
X174625000Y-76201411D02*
X174625000Y-74295000D01*
X183515000Y-86995000D02*
X186055000Y-86995000D01*
X186055000Y-86995000D02*
X186690000Y-86360000D01*
X180615002Y-77470000D02*
X175893589Y-77470000D01*
X186690000Y-86360000D02*
X186690000Y-83544998D01*
X186690000Y-83544998D02*
X180615002Y-77470000D01*
X175893589Y-77470000D02*
X174625000Y-76201411D01*
X174625000Y-74295000D02*
X173355000Y-73025000D01*
%TO.N,+3V3*%
X128879600Y-121259600D02*
X128879600Y-119405400D01*
X130175000Y-118110000D02*
X140970000Y-118110000D01*
X128879600Y-119405400D02*
X130175000Y-118110000D01*
X140970000Y-118110000D02*
X147320000Y-118110000D01*
X159385000Y-130175000D02*
X165735000Y-130175000D01*
X147320000Y-118110000D02*
X159385000Y-130175000D01*
X123190000Y-83185000D02*
X131445000Y-83185000D01*
X147320000Y-99060000D02*
X147320000Y-118110000D01*
X131445000Y-83185000D02*
X147320000Y-99060000D01*
X147320000Y-99060000D02*
X147320000Y-99060000D01*
X214630000Y-69215000D02*
X215900000Y-69215000D01*
X222885000Y-76200000D02*
X222885000Y-80645000D01*
X215900000Y-69215000D02*
X222885000Y-76200000D01*
%TO.N,GND*%
X140320400Y-121259600D02*
X140970000Y-120610000D01*
X131191000Y-121259600D02*
X140320400Y-121259600D01*
%TO.N,GP28*%
X164189998Y-117475000D02*
X165735000Y-117475000D01*
X129540000Y-79375000D02*
X159385000Y-109220000D01*
X159385000Y-109220000D02*
X159385000Y-112670002D01*
X122555000Y-79375000D02*
X129540000Y-79375000D01*
X159385000Y-112670002D02*
X164189998Y-117475000D01*
X120650000Y-81280000D02*
X122555000Y-79375000D01*
X120650000Y-83185000D02*
X120650000Y-81280000D01*
%TO.N,GP27*%
X220345000Y-86360000D02*
X220345000Y-80645000D01*
X195580000Y-111125000D02*
X220345000Y-86360000D01*
X182245000Y-111125000D02*
X195580000Y-111125000D01*
X180975000Y-112395000D02*
X182245000Y-111125000D01*
X165735000Y-112395000D02*
X180975000Y-112395000D01*
%TO.N,GP26*%
X187325000Y-108585000D02*
X168464998Y-108585000D01*
X205105000Y-90805000D02*
X187325000Y-108585000D01*
X167194998Y-109855000D02*
X165735000Y-109855000D01*
X168464998Y-108585000D02*
X167194998Y-109855000D01*
X210185000Y-90805000D02*
X205105000Y-90805000D01*
%TO.N,+5V*%
X135890000Y-129540000D02*
X138430000Y-127000000D01*
X121920000Y-128270000D02*
X123190000Y-129540000D01*
X123190000Y-129540000D02*
X135890000Y-129540000D01*
X138430000Y-127000000D02*
X140970000Y-127000000D01*
X121920000Y-123190000D02*
X121920000Y-128270000D01*
X123850400Y-121259600D02*
X121920000Y-123190000D01*
X126568200Y-121259600D02*
X123850400Y-121259600D01*
%TO.N,GP15*%
X183515000Y-84455000D02*
X183515000Y-82550000D01*
X183515000Y-82550000D02*
X180340000Y-79375000D01*
X180340000Y-79375000D02*
X161925000Y-79375000D01*
X161925000Y-79375000D02*
X159385000Y-76835000D01*
X159385000Y-69295000D02*
X155575000Y-65485000D01*
X159385000Y-76835000D02*
X159385000Y-69295000D01*
%TO.N,GP10*%
X156845000Y-82550000D02*
X153035000Y-78740000D01*
X166370000Y-82550000D02*
X156845000Y-82550000D01*
X183515000Y-99695000D02*
X166370000Y-82550000D01*
%TO.N,GP09*%
X196215000Y-95885000D02*
X196215000Y-79375000D01*
X187325000Y-104775000D02*
X196215000Y-95885000D01*
X183515000Y-104775000D02*
X187325000Y-104775000D01*
%TO.N,Net-(D1-Pad2)*%
X145415000Y-78740000D02*
X145415000Y-72390000D01*
X151130000Y-66675000D02*
X151130000Y-55880000D01*
X145415000Y-72390000D02*
X151130000Y-66675000D01*
%TO.N,Net-(D2-Pad2)*%
X203835000Y-57785000D02*
X201930000Y-55880000D01*
X203835000Y-79375000D02*
X203835000Y-57785000D01*
%TD*%
M02*
