%TF.GenerationSoftware,KiCad,Pcbnew,(5.1.10-1-10_14)*%
%TF.CreationDate,2021-09-27T13:26:11-04:00*%
%TF.ProjectId,Controller_V1,436f6e74-726f-46c6-9c65-725f56312e6b,rev?*%
%TF.SameCoordinates,Original*%
%TF.FileFunction,Legend,Top*%
%TF.FilePolarity,Positive*%
%FSLAX46Y46*%
G04 Gerber Fmt 4.6, Leading zero omitted, Abs format (unit mm)*
G04 Created by KiCad (PCBNEW (5.1.10-1-10_14)) date 2021-09-27 13:26:11*
%MOMM*%
%LPD*%
G01*
G04 APERTURE LIST*
%ADD10C,0.300000*%
%ADD11C,2.000000*%
%ADD12C,0.250000*%
%ADD13C,0.120000*%
%ADD14C,0.200000*%
%ADD15C,0.152400*%
%ADD16C,0.127000*%
%ADD17C,0.150000*%
G04 APERTURE END LIST*
D10*
X113094285Y-55145714D02*
X113022857Y-55217142D01*
X112808571Y-55288571D01*
X112665714Y-55288571D01*
X112451428Y-55217142D01*
X112308571Y-55074285D01*
X112237142Y-54931428D01*
X112165714Y-54645714D01*
X112165714Y-54431428D01*
X112237142Y-54145714D01*
X112308571Y-54002857D01*
X112451428Y-53860000D01*
X112665714Y-53788571D01*
X112808571Y-53788571D01*
X113022857Y-53860000D01*
X113094285Y-53931428D01*
X113951428Y-55288571D02*
X113808571Y-55217142D01*
X113737142Y-55145714D01*
X113665714Y-55002857D01*
X113665714Y-54574285D01*
X113737142Y-54431428D01*
X113808571Y-54360000D01*
X113951428Y-54288571D01*
X114165714Y-54288571D01*
X114308571Y-54360000D01*
X114380000Y-54431428D01*
X114451428Y-54574285D01*
X114451428Y-55002857D01*
X114380000Y-55145714D01*
X114308571Y-55217142D01*
X114165714Y-55288571D01*
X113951428Y-55288571D01*
X115094285Y-54288571D02*
X115094285Y-55288571D01*
X115094285Y-54431428D02*
X115165714Y-54360000D01*
X115308571Y-54288571D01*
X115522857Y-54288571D01*
X115665714Y-54360000D01*
X115737142Y-54502857D01*
X115737142Y-55288571D01*
X116237142Y-54288571D02*
X116808571Y-54288571D01*
X116451428Y-53788571D02*
X116451428Y-55074285D01*
X116522857Y-55217142D01*
X116665714Y-55288571D01*
X116808571Y-55288571D01*
X117308571Y-55288571D02*
X117308571Y-54288571D01*
X117308571Y-54574285D02*
X117380000Y-54431428D01*
X117451428Y-54360000D01*
X117594285Y-54288571D01*
X117737142Y-54288571D01*
X118451428Y-55288571D02*
X118308571Y-55217142D01*
X118237142Y-55145714D01*
X118165714Y-55002857D01*
X118165714Y-54574285D01*
X118237142Y-54431428D01*
X118308571Y-54360000D01*
X118451428Y-54288571D01*
X118665714Y-54288571D01*
X118808571Y-54360000D01*
X118880000Y-54431428D01*
X118951428Y-54574285D01*
X118951428Y-55002857D01*
X118880000Y-55145714D01*
X118808571Y-55217142D01*
X118665714Y-55288571D01*
X118451428Y-55288571D01*
X119808571Y-55288571D02*
X119665714Y-55217142D01*
X119594285Y-55074285D01*
X119594285Y-53788571D01*
X120594285Y-55288571D02*
X120451428Y-55217142D01*
X120380000Y-55074285D01*
X120380000Y-53788571D01*
X121737142Y-55217142D02*
X121594285Y-55288571D01*
X121308571Y-55288571D01*
X121165714Y-55217142D01*
X121094285Y-55074285D01*
X121094285Y-54502857D01*
X121165714Y-54360000D01*
X121308571Y-54288571D01*
X121594285Y-54288571D01*
X121737142Y-54360000D01*
X121808571Y-54502857D01*
X121808571Y-54645714D01*
X121094285Y-54788571D01*
X122451428Y-55288571D02*
X122451428Y-54288571D01*
X122451428Y-54574285D02*
X122522857Y-54431428D01*
X122594285Y-54360000D01*
X122737142Y-54288571D01*
X122880000Y-54288571D01*
X124308571Y-53788571D02*
X124808571Y-55288571D01*
X125308571Y-53788571D01*
X126594285Y-55288571D02*
X125737142Y-55288571D01*
X126165714Y-55288571D02*
X126165714Y-53788571D01*
X126022857Y-54002857D01*
X125880000Y-54145714D01*
X125737142Y-54217142D01*
X197134285Y-126257857D02*
X197634285Y-126257857D01*
X197848571Y-127043571D02*
X197134285Y-127043571D01*
X197134285Y-125543571D01*
X197848571Y-125543571D01*
X198491428Y-126043571D02*
X198491428Y-127043571D01*
X198491428Y-126186428D02*
X198562857Y-126115000D01*
X198705714Y-126043571D01*
X198920000Y-126043571D01*
X199062857Y-126115000D01*
X199134285Y-126257857D01*
X199134285Y-127043571D01*
X200491428Y-126043571D02*
X200491428Y-127257857D01*
X200420000Y-127400714D01*
X200348571Y-127472142D01*
X200205714Y-127543571D01*
X199991428Y-127543571D01*
X199848571Y-127472142D01*
X200491428Y-126972142D02*
X200348571Y-127043571D01*
X200062857Y-127043571D01*
X199920000Y-126972142D01*
X199848571Y-126900714D01*
X199777142Y-126757857D01*
X199777142Y-126329285D01*
X199848571Y-126186428D01*
X199920000Y-126115000D01*
X200062857Y-126043571D01*
X200348571Y-126043571D01*
X200491428Y-126115000D01*
X201205714Y-127043571D02*
X201205714Y-126043571D01*
X201205714Y-125543571D02*
X201134285Y-125615000D01*
X201205714Y-125686428D01*
X201277142Y-125615000D01*
X201205714Y-125543571D01*
X201205714Y-125686428D01*
X201920000Y-126043571D02*
X201920000Y-127043571D01*
X201920000Y-126186428D02*
X201991428Y-126115000D01*
X202134285Y-126043571D01*
X202348571Y-126043571D01*
X202491428Y-126115000D01*
X202562857Y-126257857D01*
X202562857Y-127043571D01*
X203848571Y-126972142D02*
X203705714Y-127043571D01*
X203420000Y-127043571D01*
X203277142Y-126972142D01*
X203205714Y-126829285D01*
X203205714Y-126257857D01*
X203277142Y-126115000D01*
X203420000Y-126043571D01*
X203705714Y-126043571D01*
X203848571Y-126115000D01*
X203920000Y-126257857D01*
X203920000Y-126400714D01*
X203205714Y-126543571D01*
X205134285Y-126972142D02*
X204991428Y-127043571D01*
X204705714Y-127043571D01*
X204562857Y-126972142D01*
X204491428Y-126829285D01*
X204491428Y-126257857D01*
X204562857Y-126115000D01*
X204705714Y-126043571D01*
X204991428Y-126043571D01*
X205134285Y-126115000D01*
X205205714Y-126257857D01*
X205205714Y-126400714D01*
X204491428Y-126543571D01*
X205848571Y-127043571D02*
X205848571Y-126043571D01*
X205848571Y-126329285D02*
X205920000Y-126186428D01*
X205991428Y-126115000D01*
X206134285Y-126043571D01*
X206277142Y-126043571D01*
X206777142Y-127043571D02*
X206777142Y-126043571D01*
X206777142Y-125543571D02*
X206705714Y-125615000D01*
X206777142Y-125686428D01*
X206848571Y-125615000D01*
X206777142Y-125543571D01*
X206777142Y-125686428D01*
X207491428Y-126043571D02*
X207491428Y-127043571D01*
X207491428Y-126186428D02*
X207562857Y-126115000D01*
X207705714Y-126043571D01*
X207920000Y-126043571D01*
X208062857Y-126115000D01*
X208134285Y-126257857D01*
X208134285Y-127043571D01*
X209491428Y-126043571D02*
X209491428Y-127257857D01*
X209420000Y-127400714D01*
X209348571Y-127472142D01*
X209205714Y-127543571D01*
X208991428Y-127543571D01*
X208848571Y-127472142D01*
X209491428Y-126972142D02*
X209348571Y-127043571D01*
X209062857Y-127043571D01*
X208920000Y-126972142D01*
X208848571Y-126900714D01*
X208777142Y-126757857D01*
X208777142Y-126329285D01*
X208848571Y-126186428D01*
X208920000Y-126115000D01*
X209062857Y-126043571D01*
X209348571Y-126043571D01*
X209491428Y-126115000D01*
X211348571Y-127043571D02*
X211348571Y-125543571D01*
X211920000Y-125543571D01*
X212062857Y-125615000D01*
X212134285Y-125686428D01*
X212205714Y-125829285D01*
X212205714Y-126043571D01*
X212134285Y-126186428D01*
X212062857Y-126257857D01*
X211920000Y-126329285D01*
X211348571Y-126329285D01*
X212848571Y-127043571D02*
X212848571Y-125543571D01*
X213491428Y-127043571D02*
X213491428Y-126257857D01*
X213420000Y-126115000D01*
X213277142Y-126043571D01*
X213062857Y-126043571D01*
X212920000Y-126115000D01*
X212848571Y-126186428D01*
X214062857Y-126043571D02*
X214420000Y-127043571D01*
X214777142Y-126043571D02*
X214420000Y-127043571D01*
X214277142Y-127400714D01*
X214205714Y-127472142D01*
X214062857Y-127543571D01*
X215277142Y-126972142D02*
X215420000Y-127043571D01*
X215705714Y-127043571D01*
X215848571Y-126972142D01*
X215920000Y-126829285D01*
X215920000Y-126757857D01*
X215848571Y-126615000D01*
X215705714Y-126543571D01*
X215491428Y-126543571D01*
X215348571Y-126472142D01*
X215277142Y-126329285D01*
X215277142Y-126257857D01*
X215348571Y-126115000D01*
X215491428Y-126043571D01*
X215705714Y-126043571D01*
X215848571Y-126115000D01*
X216562857Y-127043571D02*
X216562857Y-126043571D01*
X216562857Y-125543571D02*
X216491428Y-125615000D01*
X216562857Y-125686428D01*
X216634285Y-125615000D01*
X216562857Y-125543571D01*
X216562857Y-125686428D01*
X217920000Y-126972142D02*
X217777142Y-127043571D01*
X217491428Y-127043571D01*
X217348571Y-126972142D01*
X217277142Y-126900714D01*
X217205714Y-126757857D01*
X217205714Y-126329285D01*
X217277142Y-126186428D01*
X217348571Y-126115000D01*
X217491428Y-126043571D01*
X217777142Y-126043571D01*
X217920000Y-126115000D01*
X218491428Y-126972142D02*
X218634285Y-127043571D01*
X218920000Y-127043571D01*
X219062857Y-126972142D01*
X219134285Y-126829285D01*
X219134285Y-126757857D01*
X219062857Y-126615000D01*
X218920000Y-126543571D01*
X218705714Y-126543571D01*
X218562857Y-126472142D01*
X218491428Y-126329285D01*
X218491428Y-126257857D01*
X218562857Y-126115000D01*
X218705714Y-126043571D01*
X218920000Y-126043571D01*
X219062857Y-126115000D01*
X220920000Y-127043571D02*
X220920000Y-125543571D01*
X221491428Y-125543571D01*
X221634285Y-125615000D01*
X221705714Y-125686428D01*
X221777142Y-125829285D01*
X221777142Y-126043571D01*
X221705714Y-126186428D01*
X221634285Y-126257857D01*
X221491428Y-126329285D01*
X220920000Y-126329285D01*
X222420000Y-127043571D02*
X222420000Y-126043571D01*
X222420000Y-126329285D02*
X222491428Y-126186428D01*
X222562857Y-126115000D01*
X222705714Y-126043571D01*
X222848571Y-126043571D01*
X223562857Y-127043571D02*
X223420000Y-126972142D01*
X223348571Y-126900714D01*
X223277142Y-126757857D01*
X223277142Y-126329285D01*
X223348571Y-126186428D01*
X223420000Y-126115000D01*
X223562857Y-126043571D01*
X223777142Y-126043571D01*
X223920000Y-126115000D01*
X223991428Y-126186428D01*
X224062857Y-126329285D01*
X224062857Y-126757857D01*
X223991428Y-126900714D01*
X223920000Y-126972142D01*
X223777142Y-127043571D01*
X223562857Y-127043571D01*
X224705714Y-126043571D02*
X224705714Y-127543571D01*
X224705714Y-126115000D02*
X224848571Y-126043571D01*
X225134285Y-126043571D01*
X225277142Y-126115000D01*
X225348571Y-126186428D01*
X225420000Y-126329285D01*
X225420000Y-126757857D01*
X225348571Y-126900714D01*
X225277142Y-126972142D01*
X225134285Y-127043571D01*
X224848571Y-127043571D01*
X224705714Y-126972142D01*
X226705714Y-126043571D02*
X226705714Y-127043571D01*
X226062857Y-126043571D02*
X226062857Y-126829285D01*
X226134285Y-126972142D01*
X226277142Y-127043571D01*
X226491428Y-127043571D01*
X226634285Y-126972142D01*
X226705714Y-126900714D01*
X227634285Y-127043571D02*
X227491428Y-126972142D01*
X227420000Y-126829285D01*
X227420000Y-125543571D01*
X228134285Y-126972142D02*
X228277142Y-127043571D01*
X228562857Y-127043571D01*
X228705714Y-126972142D01*
X228777142Y-126829285D01*
X228777142Y-126757857D01*
X228705714Y-126615000D01*
X228562857Y-126543571D01*
X228348571Y-126543571D01*
X228205714Y-126472142D01*
X228134285Y-126329285D01*
X228134285Y-126257857D01*
X228205714Y-126115000D01*
X228348571Y-126043571D01*
X228562857Y-126043571D01*
X228705714Y-126115000D01*
X229420000Y-127043571D02*
X229420000Y-126043571D01*
X229420000Y-125543571D02*
X229348571Y-125615000D01*
X229420000Y-125686428D01*
X229491428Y-125615000D01*
X229420000Y-125543571D01*
X229420000Y-125686428D01*
X230348571Y-127043571D02*
X230205714Y-126972142D01*
X230134285Y-126900714D01*
X230062857Y-126757857D01*
X230062857Y-126329285D01*
X230134285Y-126186428D01*
X230205714Y-126115000D01*
X230348571Y-126043571D01*
X230562857Y-126043571D01*
X230705714Y-126115000D01*
X230777142Y-126186428D01*
X230848571Y-126329285D01*
X230848571Y-126757857D01*
X230777142Y-126900714D01*
X230705714Y-126972142D01*
X230562857Y-127043571D01*
X230348571Y-127043571D01*
X231491428Y-126043571D02*
X231491428Y-127043571D01*
X231491428Y-126186428D02*
X231562857Y-126115000D01*
X231705714Y-126043571D01*
X231920000Y-126043571D01*
X232062857Y-126115000D01*
X232134285Y-126257857D01*
X232134285Y-127043571D01*
X234705714Y-127043571D02*
X233991428Y-127043571D01*
X233991428Y-125543571D01*
X235848571Y-127043571D02*
X235848571Y-126257857D01*
X235777142Y-126115000D01*
X235634285Y-126043571D01*
X235348571Y-126043571D01*
X235205714Y-126115000D01*
X235848571Y-126972142D02*
X235705714Y-127043571D01*
X235348571Y-127043571D01*
X235205714Y-126972142D01*
X235134285Y-126829285D01*
X235134285Y-126686428D01*
X235205714Y-126543571D01*
X235348571Y-126472142D01*
X235705714Y-126472142D01*
X235848571Y-126400714D01*
X236562857Y-127043571D02*
X236562857Y-125543571D01*
X236562857Y-126115000D02*
X236705714Y-126043571D01*
X236991428Y-126043571D01*
X237134285Y-126115000D01*
X237205714Y-126186428D01*
X237277142Y-126329285D01*
X237277142Y-126757857D01*
X237205714Y-126900714D01*
X237134285Y-126972142D01*
X236991428Y-127043571D01*
X236705714Y-127043571D01*
X236562857Y-126972142D01*
D11*
X204852619Y-118173571D02*
X207519285Y-118173571D01*
X208662142Y-122364047D02*
X204852619Y-122364047D01*
X204852619Y-114364047D01*
X208662142Y-114364047D01*
X212090714Y-122364047D02*
X212090714Y-114364047D01*
X215138333Y-114364047D01*
X215900238Y-114745000D01*
X216281190Y-115125952D01*
X216662142Y-115887857D01*
X216662142Y-117030714D01*
X216281190Y-117792619D01*
X215900238Y-118173571D01*
X215138333Y-118554523D01*
X212090714Y-118554523D01*
X220090714Y-122364047D02*
X220090714Y-114364047D01*
X223138333Y-114364047D01*
X223900238Y-114745000D01*
X224281190Y-115125952D01*
X224662142Y-115887857D01*
X224662142Y-117030714D01*
X224281190Y-117792619D01*
X223900238Y-118173571D01*
X223138333Y-118554523D01*
X220090714Y-118554523D01*
X231900238Y-122364047D02*
X228090714Y-122364047D01*
X228090714Y-114364047D01*
D12*
X194562142Y-133413571D02*
X194562142Y-131913571D01*
X194919285Y-131913571D01*
X195133571Y-131985000D01*
X195276428Y-132127857D01*
X195347857Y-132270714D01*
X195419285Y-132556428D01*
X195419285Y-132770714D01*
X195347857Y-133056428D01*
X195276428Y-133199285D01*
X195133571Y-133342142D01*
X194919285Y-133413571D01*
X194562142Y-133413571D01*
X196633571Y-133342142D02*
X196490714Y-133413571D01*
X196205000Y-133413571D01*
X196062142Y-133342142D01*
X195990714Y-133199285D01*
X195990714Y-132627857D01*
X196062142Y-132485000D01*
X196205000Y-132413571D01*
X196490714Y-132413571D01*
X196633571Y-132485000D01*
X196705000Y-132627857D01*
X196705000Y-132770714D01*
X195990714Y-132913571D01*
X197276428Y-133342142D02*
X197419285Y-133413571D01*
X197705000Y-133413571D01*
X197847857Y-133342142D01*
X197919285Y-133199285D01*
X197919285Y-133127857D01*
X197847857Y-132985000D01*
X197705000Y-132913571D01*
X197490714Y-132913571D01*
X197347857Y-132842142D01*
X197276428Y-132699285D01*
X197276428Y-132627857D01*
X197347857Y-132485000D01*
X197490714Y-132413571D01*
X197705000Y-132413571D01*
X197847857Y-132485000D01*
X198562142Y-133413571D02*
X198562142Y-132413571D01*
X198562142Y-131913571D02*
X198490714Y-131985000D01*
X198562142Y-132056428D01*
X198633571Y-131985000D01*
X198562142Y-131913571D01*
X198562142Y-132056428D01*
X199919285Y-132413571D02*
X199919285Y-133627857D01*
X199847857Y-133770714D01*
X199776428Y-133842142D01*
X199633571Y-133913571D01*
X199419285Y-133913571D01*
X199276428Y-133842142D01*
X199919285Y-133342142D02*
X199776428Y-133413571D01*
X199490714Y-133413571D01*
X199347857Y-133342142D01*
X199276428Y-133270714D01*
X199205000Y-133127857D01*
X199205000Y-132699285D01*
X199276428Y-132556428D01*
X199347857Y-132485000D01*
X199490714Y-132413571D01*
X199776428Y-132413571D01*
X199919285Y-132485000D01*
X200633571Y-132413571D02*
X200633571Y-133413571D01*
X200633571Y-132556428D02*
X200705000Y-132485000D01*
X200847857Y-132413571D01*
X201062142Y-132413571D01*
X201205000Y-132485000D01*
X201276428Y-132627857D01*
X201276428Y-133413571D01*
X202562142Y-133342142D02*
X202419285Y-133413571D01*
X202133571Y-133413571D01*
X201990714Y-133342142D01*
X201919285Y-133199285D01*
X201919285Y-132627857D01*
X201990714Y-132485000D01*
X202133571Y-132413571D01*
X202419285Y-132413571D01*
X202562142Y-132485000D01*
X202633571Y-132627857D01*
X202633571Y-132770714D01*
X201919285Y-132913571D01*
X203919285Y-133413571D02*
X203919285Y-131913571D01*
X203919285Y-133342142D02*
X203776428Y-133413571D01*
X203490714Y-133413571D01*
X203347857Y-133342142D01*
X203276428Y-133270714D01*
X203205000Y-133127857D01*
X203205000Y-132699285D01*
X203276428Y-132556428D01*
X203347857Y-132485000D01*
X203490714Y-132413571D01*
X203776428Y-132413571D01*
X203919285Y-132485000D01*
X206276428Y-132627857D02*
X206490714Y-132699285D01*
X206562142Y-132770714D01*
X206633571Y-132913571D01*
X206633571Y-133127857D01*
X206562142Y-133270714D01*
X206490714Y-133342142D01*
X206347857Y-133413571D01*
X205776428Y-133413571D01*
X205776428Y-131913571D01*
X206276428Y-131913571D01*
X206419285Y-131985000D01*
X206490714Y-132056428D01*
X206562142Y-132199285D01*
X206562142Y-132342142D01*
X206490714Y-132485000D01*
X206419285Y-132556428D01*
X206276428Y-132627857D01*
X205776428Y-132627857D01*
X207133571Y-132413571D02*
X207490714Y-133413571D01*
X207847857Y-132413571D02*
X207490714Y-133413571D01*
X207347857Y-133770714D01*
X207276428Y-133842142D01*
X207133571Y-133913571D01*
X208419285Y-133270714D02*
X208490714Y-133342142D01*
X208419285Y-133413571D01*
X208347857Y-133342142D01*
X208419285Y-133270714D01*
X208419285Y-133413571D01*
X208419285Y-132485000D02*
X208490714Y-132556428D01*
X208419285Y-132627857D01*
X208347857Y-132556428D01*
X208419285Y-132485000D01*
X208419285Y-132627857D01*
X210276428Y-133413571D02*
X210276428Y-131913571D01*
X210633571Y-131913571D01*
X210847857Y-131985000D01*
X210990714Y-132127857D01*
X211062142Y-132270714D01*
X211133571Y-132556428D01*
X211133571Y-132770714D01*
X211062142Y-133056428D01*
X210990714Y-133199285D01*
X210847857Y-133342142D01*
X210633571Y-133413571D01*
X210276428Y-133413571D01*
X211633571Y-132413571D02*
X211990714Y-133413571D01*
X212347857Y-132413571D02*
X211990714Y-133413571D01*
X211847857Y-133770714D01*
X211776428Y-133842142D01*
X211633571Y-133913571D01*
X213133571Y-133413571D02*
X212990714Y-133342142D01*
X212919285Y-133199285D01*
X212919285Y-131913571D01*
X214347857Y-133413571D02*
X214347857Y-132627857D01*
X214276428Y-132485000D01*
X214133571Y-132413571D01*
X213847857Y-132413571D01*
X213705000Y-132485000D01*
X214347857Y-133342142D02*
X214205000Y-133413571D01*
X213847857Y-133413571D01*
X213705000Y-133342142D01*
X213633571Y-133199285D01*
X213633571Y-133056428D01*
X213705000Y-132913571D01*
X213847857Y-132842142D01*
X214205000Y-132842142D01*
X214347857Y-132770714D01*
X215062142Y-132413571D02*
X215062142Y-133413571D01*
X215062142Y-132556428D02*
X215133571Y-132485000D01*
X215276428Y-132413571D01*
X215490714Y-132413571D01*
X215633571Y-132485000D01*
X215705000Y-132627857D01*
X215705000Y-133413571D01*
X218062142Y-132627857D02*
X218276428Y-132699285D01*
X218347857Y-132770714D01*
X218419285Y-132913571D01*
X218419285Y-133127857D01*
X218347857Y-133270714D01*
X218276428Y-133342142D01*
X218133571Y-133413571D01*
X217562142Y-133413571D01*
X217562142Y-131913571D01*
X218062142Y-131913571D01*
X218205000Y-131985000D01*
X218276428Y-132056428D01*
X218347857Y-132199285D01*
X218347857Y-132342142D01*
X218276428Y-132485000D01*
X218205000Y-132556428D01*
X218062142Y-132627857D01*
X217562142Y-132627857D01*
X219705000Y-133413571D02*
X219705000Y-132627857D01*
X219633571Y-132485000D01*
X219490714Y-132413571D01*
X219205000Y-132413571D01*
X219062142Y-132485000D01*
X219705000Y-133342142D02*
X219562142Y-133413571D01*
X219205000Y-133413571D01*
X219062142Y-133342142D01*
X218990714Y-133199285D01*
X218990714Y-133056428D01*
X219062142Y-132913571D01*
X219205000Y-132842142D01*
X219562142Y-132842142D01*
X219705000Y-132770714D01*
X220633571Y-133413571D02*
X220490714Y-133342142D01*
X220419285Y-133199285D01*
X220419285Y-131913571D01*
X221419285Y-133413571D02*
X221276428Y-133342142D01*
X221205000Y-133199285D01*
X221205000Y-131913571D01*
X221990714Y-133413571D02*
X221990714Y-131913571D01*
X221990714Y-132485000D02*
X222133571Y-132413571D01*
X222419285Y-132413571D01*
X222562142Y-132485000D01*
X222633571Y-132556428D01*
X222705000Y-132699285D01*
X222705000Y-133127857D01*
X222633571Y-133270714D01*
X222562142Y-133342142D01*
X222419285Y-133413571D01*
X222133571Y-133413571D01*
X221990714Y-133342142D01*
X223990714Y-133413571D02*
X223990714Y-132627857D01*
X223919285Y-132485000D01*
X223776428Y-132413571D01*
X223490714Y-132413571D01*
X223347857Y-132485000D01*
X223990714Y-133342142D02*
X223847857Y-133413571D01*
X223490714Y-133413571D01*
X223347857Y-133342142D01*
X223276428Y-133199285D01*
X223276428Y-133056428D01*
X223347857Y-132913571D01*
X223490714Y-132842142D01*
X223847857Y-132842142D01*
X223990714Y-132770714D01*
X225347857Y-133342142D02*
X225205000Y-133413571D01*
X224919285Y-133413571D01*
X224776428Y-133342142D01*
X224705000Y-133270714D01*
X224633571Y-133127857D01*
X224633571Y-132699285D01*
X224705000Y-132556428D01*
X224776428Y-132485000D01*
X224919285Y-132413571D01*
X225205000Y-132413571D01*
X225347857Y-132485000D01*
X225990714Y-133413571D02*
X225990714Y-131913571D01*
X226133571Y-132842142D02*
X226562142Y-133413571D01*
X226562142Y-132413571D02*
X225990714Y-132985000D01*
X227276428Y-133342142D02*
X227276428Y-133413571D01*
X227205000Y-133556428D01*
X227133571Y-133627857D01*
X195526428Y-134413571D02*
X195526428Y-135485000D01*
X195454999Y-135699285D01*
X195312142Y-135842142D01*
X195097857Y-135913571D01*
X194954999Y-135913571D01*
X196883571Y-135913571D02*
X196883571Y-135127857D01*
X196812142Y-134985000D01*
X196669285Y-134913571D01*
X196383571Y-134913571D01*
X196240714Y-134985000D01*
X196883571Y-135842142D02*
X196740714Y-135913571D01*
X196383571Y-135913571D01*
X196240714Y-135842142D01*
X196169285Y-135699285D01*
X196169285Y-135556428D01*
X196240714Y-135413571D01*
X196383571Y-135342142D01*
X196740714Y-135342142D01*
X196883571Y-135270714D01*
X198240714Y-135842142D02*
X198097857Y-135913571D01*
X197812142Y-135913571D01*
X197669285Y-135842142D01*
X197597857Y-135770714D01*
X197526428Y-135627857D01*
X197526428Y-135199285D01*
X197597857Y-135056428D01*
X197669285Y-134985000D01*
X197812142Y-134913571D01*
X198097857Y-134913571D01*
X198240714Y-134985000D01*
X199097857Y-135913571D02*
X198954999Y-135842142D01*
X198883571Y-135770714D01*
X198812142Y-135627857D01*
X198812142Y-135199285D01*
X198883571Y-135056428D01*
X198954999Y-134985000D01*
X199097857Y-134913571D01*
X199312142Y-134913571D01*
X199454999Y-134985000D01*
X199526428Y-135056428D01*
X199597857Y-135199285D01*
X199597857Y-135627857D01*
X199526428Y-135770714D01*
X199454999Y-135842142D01*
X199312142Y-135913571D01*
X199097857Y-135913571D01*
X200240714Y-135913571D02*
X200240714Y-134413571D01*
X200240714Y-134985000D02*
X200383571Y-134913571D01*
X200669285Y-134913571D01*
X200812142Y-134985000D01*
X200883571Y-135056428D01*
X200954999Y-135199285D01*
X200954999Y-135627857D01*
X200883571Y-135770714D01*
X200812142Y-135842142D01*
X200669285Y-135913571D01*
X200383571Y-135913571D01*
X200240714Y-135842142D01*
X203597857Y-135913571D02*
X203097857Y-135199285D01*
X202740714Y-135913571D02*
X202740714Y-134413571D01*
X203312142Y-134413571D01*
X203454999Y-134485000D01*
X203526428Y-134556428D01*
X203597857Y-134699285D01*
X203597857Y-134913571D01*
X203526428Y-135056428D01*
X203454999Y-135127857D01*
X203312142Y-135199285D01*
X202740714Y-135199285D01*
X204454999Y-135913571D02*
X204312142Y-135842142D01*
X204240714Y-135770714D01*
X204169285Y-135627857D01*
X204169285Y-135199285D01*
X204240714Y-135056428D01*
X204312142Y-134985000D01*
X204454999Y-134913571D01*
X204669285Y-134913571D01*
X204812142Y-134985000D01*
X204883571Y-135056428D01*
X204954999Y-135199285D01*
X204954999Y-135627857D01*
X204883571Y-135770714D01*
X204812142Y-135842142D01*
X204669285Y-135913571D01*
X204454999Y-135913571D01*
X205597857Y-135913571D02*
X205597857Y-134913571D01*
X205597857Y-135056428D02*
X205669285Y-134985000D01*
X205812142Y-134913571D01*
X206026428Y-134913571D01*
X206169285Y-134985000D01*
X206240714Y-135127857D01*
X206240714Y-135913571D01*
X206240714Y-135127857D02*
X206312142Y-134985000D01*
X206454999Y-134913571D01*
X206669285Y-134913571D01*
X206812142Y-134985000D01*
X206883571Y-135127857D01*
X206883571Y-135913571D01*
X208169285Y-135842142D02*
X208026428Y-135913571D01*
X207740714Y-135913571D01*
X207597857Y-135842142D01*
X207526428Y-135699285D01*
X207526428Y-135127857D01*
X207597857Y-134985000D01*
X207740714Y-134913571D01*
X208026428Y-134913571D01*
X208169285Y-134985000D01*
X208240714Y-135127857D01*
X208240714Y-135270714D01*
X207526428Y-135413571D01*
X209097857Y-135913571D02*
X208954999Y-135842142D01*
X208883571Y-135770714D01*
X208812142Y-135627857D01*
X208812142Y-135199285D01*
X208883571Y-135056428D01*
X208954999Y-134985000D01*
X209097857Y-134913571D01*
X209312142Y-134913571D01*
X209454999Y-134985000D01*
X209526428Y-135056428D01*
X209597857Y-135199285D01*
X209597857Y-135627857D01*
X209526428Y-135770714D01*
X209454999Y-135842142D01*
X209312142Y-135913571D01*
X209097857Y-135913571D01*
X210312142Y-135842142D02*
X210312142Y-135913571D01*
X210240714Y-136056428D01*
X210169285Y-136127857D01*
X212097857Y-135913571D02*
X212097857Y-134413571D01*
X212454999Y-134413571D01*
X212669285Y-134485000D01*
X212812142Y-134627857D01*
X212883571Y-134770714D01*
X212954999Y-135056428D01*
X212954999Y-135270714D01*
X212883571Y-135556428D01*
X212812142Y-135699285D01*
X212669285Y-135842142D01*
X212454999Y-135913571D01*
X212097857Y-135913571D01*
X214240714Y-135913571D02*
X214240714Y-135127857D01*
X214169285Y-134985000D01*
X214026428Y-134913571D01*
X213740714Y-134913571D01*
X213597857Y-134985000D01*
X214240714Y-135842142D02*
X214097857Y-135913571D01*
X213740714Y-135913571D01*
X213597857Y-135842142D01*
X213526428Y-135699285D01*
X213526428Y-135556428D01*
X213597857Y-135413571D01*
X213740714Y-135342142D01*
X214097857Y-135342142D01*
X214240714Y-135270714D01*
X214954999Y-134913571D02*
X214954999Y-135913571D01*
X214954999Y-135056428D02*
X215026428Y-134985000D01*
X215169285Y-134913571D01*
X215383571Y-134913571D01*
X215526428Y-134985000D01*
X215597857Y-135127857D01*
X215597857Y-135913571D01*
X216312142Y-135913571D02*
X216312142Y-134913571D01*
X216312142Y-134413571D02*
X216240714Y-134485000D01*
X216312142Y-134556428D01*
X216383571Y-134485000D01*
X216312142Y-134413571D01*
X216312142Y-134556428D01*
X217597857Y-135842142D02*
X217454999Y-135913571D01*
X217169285Y-135913571D01*
X217026428Y-135842142D01*
X216954999Y-135699285D01*
X216954999Y-135127857D01*
X217026428Y-134985000D01*
X217169285Y-134913571D01*
X217454999Y-134913571D01*
X217597857Y-134985000D01*
X217669285Y-135127857D01*
X217669285Y-135270714D01*
X216954999Y-135413571D01*
X218526428Y-135913571D02*
X218383571Y-135842142D01*
X218312142Y-135699285D01*
X218312142Y-134413571D01*
X220097857Y-134413571D02*
X220454999Y-135913571D01*
X220740714Y-134842142D01*
X221026428Y-135913571D01*
X221383571Y-134413571D01*
X221954999Y-135913571D02*
X221954999Y-134913571D01*
X221954999Y-134413571D02*
X221883571Y-134485000D01*
X221954999Y-134556428D01*
X222026428Y-134485000D01*
X221954999Y-134413571D01*
X221954999Y-134556428D01*
X222883571Y-135913571D02*
X222740714Y-135842142D01*
X222669285Y-135699285D01*
X222669285Y-134413571D01*
X223312142Y-134913571D02*
X224097857Y-134913571D01*
X223312142Y-135913571D01*
X224097857Y-135913571D01*
X225312142Y-135842142D02*
X225169285Y-135913571D01*
X224883571Y-135913571D01*
X224740714Y-135842142D01*
X224669285Y-135770714D01*
X224597857Y-135627857D01*
X224597857Y-135199285D01*
X224669285Y-135056428D01*
X224740714Y-134985000D01*
X224883571Y-134913571D01*
X225169285Y-134913571D01*
X225312142Y-134985000D01*
X226597857Y-135913571D02*
X226597857Y-135127857D01*
X226526428Y-134985000D01*
X226383571Y-134913571D01*
X226097857Y-134913571D01*
X225954999Y-134985000D01*
X226597857Y-135842142D02*
X226454999Y-135913571D01*
X226097857Y-135913571D01*
X225954999Y-135842142D01*
X225883571Y-135699285D01*
X225883571Y-135556428D01*
X225954999Y-135413571D01*
X226097857Y-135342142D01*
X226454999Y-135342142D01*
X226597857Y-135270714D01*
X227312142Y-135913571D02*
X227312142Y-134413571D01*
X227454999Y-135342142D02*
X227883571Y-135913571D01*
X227883571Y-134913571D02*
X227312142Y-135485000D01*
D13*
%TO.C,SW2*%
X193975000Y-61755000D02*
X206275000Y-61755000D01*
X206275000Y-66335000D02*
X206275000Y-69475000D01*
X206275000Y-74055000D02*
X193975000Y-74055000D01*
X193975000Y-64475000D02*
X193975000Y-61755000D01*
X204804050Y-67945000D02*
G75*
G03*
X204804050Y-67945000I-4579050J0D01*
G01*
X193975000Y-74055000D02*
X193975000Y-71335000D01*
X193975000Y-69475000D02*
X193975000Y-66335000D01*
X206275000Y-71335000D02*
X206275000Y-74055000D01*
X206275000Y-61755000D02*
X206275000Y-64475000D01*
%TO.C,SW1*%
X143175000Y-61835000D02*
X155475000Y-61835000D01*
X155475000Y-66415000D02*
X155475000Y-69555000D01*
X155475000Y-74135000D02*
X143175000Y-74135000D01*
X143175000Y-64555000D02*
X143175000Y-61835000D01*
X154004050Y-68025000D02*
G75*
G03*
X154004050Y-68025000I-4579050J0D01*
G01*
X143175000Y-74135000D02*
X143175000Y-71415000D01*
X143175000Y-69555000D02*
X143175000Y-66415000D01*
X155475000Y-71415000D02*
X155475000Y-74135000D01*
X155475000Y-61835000D02*
X155475000Y-64555000D01*
%TO.C,R2*%
X201945000Y-80295000D02*
X201945000Y-78455000D01*
X201945000Y-78455000D02*
X198105000Y-78455000D01*
X198105000Y-78455000D02*
X198105000Y-80295000D01*
X198105000Y-80295000D02*
X201945000Y-80295000D01*
X202895000Y-79375000D02*
X201945000Y-79375000D01*
X197155000Y-79375000D02*
X198105000Y-79375000D01*
%TO.C,R1*%
X147305000Y-77820000D02*
X147305000Y-79660000D01*
X147305000Y-79660000D02*
X151145000Y-79660000D01*
X151145000Y-79660000D02*
X151145000Y-77820000D01*
X151145000Y-77820000D02*
X147305000Y-77820000D01*
X146355000Y-78740000D02*
X147305000Y-78740000D01*
X152095000Y-78740000D02*
X151145000Y-78740000D01*
D14*
%TO.C,J2*%
X226365000Y-67265000D02*
G75*
G03*
X226365000Y-67265000I-100000J0D01*
G01*
X215765000Y-66745000D02*
X229565000Y-66745000D01*
X229565000Y-52585000D02*
X215765000Y-52585000D01*
X229565000Y-66745000D02*
X229565000Y-65085000D01*
X229565000Y-60495000D02*
X229565000Y-52585000D01*
X215765000Y-66745000D02*
X215765000Y-65085000D01*
X215765000Y-60495000D02*
X215765000Y-52585000D01*
D13*
%TO.C,D2*%
X199100000Y-54644000D02*
X199100000Y-54800000D01*
X199100000Y-56960000D02*
X199100000Y-57116000D01*
X201701130Y-56959837D02*
G75*
G02*
X199619039Y-56960000I-1041130J1079837D01*
G01*
X201701130Y-54800163D02*
G75*
G03*
X199619039Y-54800000I-1041130J-1079837D01*
G01*
X202332335Y-56958608D02*
G75*
G02*
X199100000Y-57115516I-1672335J1078608D01*
G01*
X202332335Y-54801392D02*
G75*
G03*
X199100000Y-54644484I-1672335J-1078608D01*
G01*
%TO.C,D1*%
X148300000Y-54644000D02*
X148300000Y-54800000D01*
X148300000Y-56960000D02*
X148300000Y-57116000D01*
X150901130Y-56959837D02*
G75*
G02*
X148819039Y-56960000I-1041130J1079837D01*
G01*
X150901130Y-54800163D02*
G75*
G03*
X148819039Y-54800000I-1041130J-1079837D01*
G01*
X151532335Y-56958608D02*
G75*
G02*
X148300000Y-57115516I-1672335J1078608D01*
G01*
X151532335Y-54801392D02*
G75*
G03*
X148300000Y-54644484I-1672335J-1078608D01*
G01*
%TO.C,U2*%
X185125000Y-134085000D02*
X164125000Y-134085000D01*
X178325000Y-83085000D02*
X185125000Y-83085000D01*
X185125000Y-131418000D02*
X182118000Y-131418000D01*
X182118000Y-131418000D02*
X182118000Y-134085000D01*
X185125000Y-134085000D02*
X185125000Y-133785000D01*
X185125000Y-131685000D02*
X185125000Y-131285000D01*
X185125000Y-129085000D02*
X185125000Y-128685000D01*
X185125000Y-126585000D02*
X185125000Y-126185000D01*
X185125000Y-123985000D02*
X185125000Y-123585000D01*
X185125000Y-121485000D02*
X185125000Y-121085000D01*
X185125000Y-118985000D02*
X185125000Y-118585000D01*
X185125000Y-116385000D02*
X185125000Y-115985000D01*
X185125000Y-113885000D02*
X185125000Y-113485000D01*
X185125000Y-111285000D02*
X185125000Y-110885000D01*
X185125000Y-108785000D02*
X185125000Y-108385000D01*
X185125000Y-106285000D02*
X185125000Y-105885000D01*
X185125000Y-103685000D02*
X185125000Y-103285000D01*
X185125000Y-101185000D02*
X185125000Y-100785000D01*
X185125000Y-98585000D02*
X185125000Y-98185000D01*
X185125000Y-96085000D02*
X185125000Y-95685000D01*
X185125000Y-93485000D02*
X185125000Y-93085000D01*
X185125000Y-90985000D02*
X185125000Y-90585000D01*
X185125000Y-88485000D02*
X185125000Y-88085000D01*
X185125000Y-85885000D02*
X185125000Y-85485000D01*
X164125000Y-118985000D02*
X164125000Y-118585000D01*
X164125000Y-113885000D02*
X164125000Y-113485000D01*
X164125000Y-106285000D02*
X164125000Y-105885000D01*
X164125000Y-98585000D02*
X164125000Y-98185000D01*
X164125000Y-129085000D02*
X164125000Y-128685000D01*
X164125000Y-131685000D02*
X164125000Y-131285000D01*
X164125000Y-123985000D02*
X164125000Y-123585000D01*
X164125000Y-90985000D02*
X164125000Y-90585000D01*
X164125000Y-85885000D02*
X164125000Y-85485000D01*
X164125000Y-88485000D02*
X164125000Y-88085000D01*
X164125000Y-103685000D02*
X164125000Y-103285000D01*
X164125000Y-108785000D02*
X164125000Y-108385000D01*
X164125000Y-121485000D02*
X164125000Y-121085000D01*
X164125000Y-116385000D02*
X164125000Y-115985000D01*
X164125000Y-96085000D02*
X164125000Y-95685000D01*
X164125000Y-111285000D02*
X164125000Y-110885000D01*
X164125000Y-134085000D02*
X164125000Y-133785000D01*
X164125000Y-126585000D02*
X164125000Y-126185000D01*
X164125000Y-101185000D02*
X164125000Y-100785000D01*
X164125000Y-93485000D02*
X164125000Y-93085000D01*
X164125000Y-83085000D02*
X170925000Y-83085000D01*
X176125000Y-83085000D02*
X175725000Y-83085000D01*
X173525000Y-83085000D02*
X173125000Y-83085000D01*
D15*
%TO.C,VR1*%
X125526800Y-122605800D02*
X125526800Y-126314200D01*
X125526800Y-126314200D02*
X132232400Y-126314200D01*
X132232400Y-126314200D02*
X132232400Y-122605800D01*
X132232400Y-122605800D02*
X125526800Y-122605800D01*
D13*
%TO.C,C2*%
X143590000Y-119360000D02*
G75*
G03*
X143590000Y-119360000I-2620000J0D01*
G01*
X143550000Y-119360000D02*
X138390000Y-119360000D01*
X143550000Y-119400000D02*
X138390000Y-119400000D01*
X143549000Y-119440000D02*
X138391000Y-119440000D01*
X143548000Y-119480000D02*
X138392000Y-119480000D01*
X143546000Y-119520000D02*
X138394000Y-119520000D01*
X143543000Y-119560000D02*
X138397000Y-119560000D01*
X143539000Y-119600000D02*
X142010000Y-119600000D01*
X139930000Y-119600000D02*
X138401000Y-119600000D01*
X143535000Y-119640000D02*
X142010000Y-119640000D01*
X139930000Y-119640000D02*
X138405000Y-119640000D01*
X143531000Y-119680000D02*
X142010000Y-119680000D01*
X139930000Y-119680000D02*
X138409000Y-119680000D01*
X143526000Y-119720000D02*
X142010000Y-119720000D01*
X139930000Y-119720000D02*
X138414000Y-119720000D01*
X143520000Y-119760000D02*
X142010000Y-119760000D01*
X139930000Y-119760000D02*
X138420000Y-119760000D01*
X143513000Y-119800000D02*
X142010000Y-119800000D01*
X139930000Y-119800000D02*
X138427000Y-119800000D01*
X143506000Y-119840000D02*
X142010000Y-119840000D01*
X139930000Y-119840000D02*
X138434000Y-119840000D01*
X143498000Y-119880000D02*
X142010000Y-119880000D01*
X139930000Y-119880000D02*
X138442000Y-119880000D01*
X143490000Y-119920000D02*
X142010000Y-119920000D01*
X139930000Y-119920000D02*
X138450000Y-119920000D01*
X143481000Y-119960000D02*
X142010000Y-119960000D01*
X139930000Y-119960000D02*
X138459000Y-119960000D01*
X143471000Y-120000000D02*
X142010000Y-120000000D01*
X139930000Y-120000000D02*
X138469000Y-120000000D01*
X143461000Y-120040000D02*
X142010000Y-120040000D01*
X139930000Y-120040000D02*
X138479000Y-120040000D01*
X143450000Y-120081000D02*
X142010000Y-120081000D01*
X139930000Y-120081000D02*
X138490000Y-120081000D01*
X143438000Y-120121000D02*
X142010000Y-120121000D01*
X139930000Y-120121000D02*
X138502000Y-120121000D01*
X143425000Y-120161000D02*
X142010000Y-120161000D01*
X139930000Y-120161000D02*
X138515000Y-120161000D01*
X143412000Y-120201000D02*
X142010000Y-120201000D01*
X139930000Y-120201000D02*
X138528000Y-120201000D01*
X143398000Y-120241000D02*
X142010000Y-120241000D01*
X139930000Y-120241000D02*
X138542000Y-120241000D01*
X143384000Y-120281000D02*
X142010000Y-120281000D01*
X139930000Y-120281000D02*
X138556000Y-120281000D01*
X143368000Y-120321000D02*
X142010000Y-120321000D01*
X139930000Y-120321000D02*
X138572000Y-120321000D01*
X143352000Y-120361000D02*
X142010000Y-120361000D01*
X139930000Y-120361000D02*
X138588000Y-120361000D01*
X143335000Y-120401000D02*
X142010000Y-120401000D01*
X139930000Y-120401000D02*
X138605000Y-120401000D01*
X143318000Y-120441000D02*
X142010000Y-120441000D01*
X139930000Y-120441000D02*
X138622000Y-120441000D01*
X143299000Y-120481000D02*
X142010000Y-120481000D01*
X139930000Y-120481000D02*
X138641000Y-120481000D01*
X143280000Y-120521000D02*
X142010000Y-120521000D01*
X139930000Y-120521000D02*
X138660000Y-120521000D01*
X143260000Y-120561000D02*
X142010000Y-120561000D01*
X139930000Y-120561000D02*
X138680000Y-120561000D01*
X143238000Y-120601000D02*
X142010000Y-120601000D01*
X139930000Y-120601000D02*
X138702000Y-120601000D01*
X143217000Y-120641000D02*
X142010000Y-120641000D01*
X139930000Y-120641000D02*
X138723000Y-120641000D01*
X143194000Y-120681000D02*
X142010000Y-120681000D01*
X139930000Y-120681000D02*
X138746000Y-120681000D01*
X143170000Y-120721000D02*
X142010000Y-120721000D01*
X139930000Y-120721000D02*
X138770000Y-120721000D01*
X143145000Y-120761000D02*
X142010000Y-120761000D01*
X139930000Y-120761000D02*
X138795000Y-120761000D01*
X143119000Y-120801000D02*
X142010000Y-120801000D01*
X139930000Y-120801000D02*
X138821000Y-120801000D01*
X143092000Y-120841000D02*
X142010000Y-120841000D01*
X139930000Y-120841000D02*
X138848000Y-120841000D01*
X143065000Y-120881000D02*
X142010000Y-120881000D01*
X139930000Y-120881000D02*
X138875000Y-120881000D01*
X143035000Y-120921000D02*
X142010000Y-120921000D01*
X139930000Y-120921000D02*
X138905000Y-120921000D01*
X143005000Y-120961000D02*
X142010000Y-120961000D01*
X139930000Y-120961000D02*
X138935000Y-120961000D01*
X142974000Y-121001000D02*
X142010000Y-121001000D01*
X139930000Y-121001000D02*
X138966000Y-121001000D01*
X142941000Y-121041000D02*
X142010000Y-121041000D01*
X139930000Y-121041000D02*
X138999000Y-121041000D01*
X142907000Y-121081000D02*
X142010000Y-121081000D01*
X139930000Y-121081000D02*
X139033000Y-121081000D01*
X142871000Y-121121000D02*
X142010000Y-121121000D01*
X139930000Y-121121000D02*
X139069000Y-121121000D01*
X142834000Y-121161000D02*
X142010000Y-121161000D01*
X139930000Y-121161000D02*
X139106000Y-121161000D01*
X142796000Y-121201000D02*
X142010000Y-121201000D01*
X139930000Y-121201000D02*
X139144000Y-121201000D01*
X142755000Y-121241000D02*
X142010000Y-121241000D01*
X139930000Y-121241000D02*
X139185000Y-121241000D01*
X142713000Y-121281000D02*
X142010000Y-121281000D01*
X139930000Y-121281000D02*
X139227000Y-121281000D01*
X142669000Y-121321000D02*
X142010000Y-121321000D01*
X139930000Y-121321000D02*
X139271000Y-121321000D01*
X142623000Y-121361000D02*
X142010000Y-121361000D01*
X139930000Y-121361000D02*
X139317000Y-121361000D01*
X142575000Y-121401000D02*
X142010000Y-121401000D01*
X139930000Y-121401000D02*
X139365000Y-121401000D01*
X142524000Y-121441000D02*
X142010000Y-121441000D01*
X139930000Y-121441000D02*
X139416000Y-121441000D01*
X142470000Y-121481000D02*
X142010000Y-121481000D01*
X139930000Y-121481000D02*
X139470000Y-121481000D01*
X142413000Y-121521000D02*
X142010000Y-121521000D01*
X139930000Y-121521000D02*
X139527000Y-121521000D01*
X142353000Y-121561000D02*
X142010000Y-121561000D01*
X139930000Y-121561000D02*
X139587000Y-121561000D01*
X142289000Y-121601000D02*
X142010000Y-121601000D01*
X139930000Y-121601000D02*
X139651000Y-121601000D01*
X142221000Y-121641000D02*
X142010000Y-121641000D01*
X139930000Y-121641000D02*
X139719000Y-121641000D01*
X142148000Y-121681000D02*
X139792000Y-121681000D01*
X142068000Y-121721000D02*
X139872000Y-121721000D01*
X141981000Y-121761000D02*
X139959000Y-121761000D01*
X141885000Y-121801000D02*
X140055000Y-121801000D01*
X141775000Y-121841000D02*
X140165000Y-121841000D01*
X141647000Y-121881000D02*
X140293000Y-121881000D01*
X141488000Y-121921000D02*
X140452000Y-121921000D01*
X141254000Y-121961000D02*
X140686000Y-121961000D01*
X142445000Y-116555225D02*
X142445000Y-117055225D01*
X142695000Y-116805225D02*
X142195000Y-116805225D01*
%TO.C,C1*%
X143590000Y-128250000D02*
G75*
G03*
X143590000Y-128250000I-2620000J0D01*
G01*
X143550000Y-128250000D02*
X138390000Y-128250000D01*
X143550000Y-128290000D02*
X138390000Y-128290000D01*
X143549000Y-128330000D02*
X138391000Y-128330000D01*
X143548000Y-128370000D02*
X138392000Y-128370000D01*
X143546000Y-128410000D02*
X138394000Y-128410000D01*
X143543000Y-128450000D02*
X138397000Y-128450000D01*
X143539000Y-128490000D02*
X142010000Y-128490000D01*
X139930000Y-128490000D02*
X138401000Y-128490000D01*
X143535000Y-128530000D02*
X142010000Y-128530000D01*
X139930000Y-128530000D02*
X138405000Y-128530000D01*
X143531000Y-128570000D02*
X142010000Y-128570000D01*
X139930000Y-128570000D02*
X138409000Y-128570000D01*
X143526000Y-128610000D02*
X142010000Y-128610000D01*
X139930000Y-128610000D02*
X138414000Y-128610000D01*
X143520000Y-128650000D02*
X142010000Y-128650000D01*
X139930000Y-128650000D02*
X138420000Y-128650000D01*
X143513000Y-128690000D02*
X142010000Y-128690000D01*
X139930000Y-128690000D02*
X138427000Y-128690000D01*
X143506000Y-128730000D02*
X142010000Y-128730000D01*
X139930000Y-128730000D02*
X138434000Y-128730000D01*
X143498000Y-128770000D02*
X142010000Y-128770000D01*
X139930000Y-128770000D02*
X138442000Y-128770000D01*
X143490000Y-128810000D02*
X142010000Y-128810000D01*
X139930000Y-128810000D02*
X138450000Y-128810000D01*
X143481000Y-128850000D02*
X142010000Y-128850000D01*
X139930000Y-128850000D02*
X138459000Y-128850000D01*
X143471000Y-128890000D02*
X142010000Y-128890000D01*
X139930000Y-128890000D02*
X138469000Y-128890000D01*
X143461000Y-128930000D02*
X142010000Y-128930000D01*
X139930000Y-128930000D02*
X138479000Y-128930000D01*
X143450000Y-128971000D02*
X142010000Y-128971000D01*
X139930000Y-128971000D02*
X138490000Y-128971000D01*
X143438000Y-129011000D02*
X142010000Y-129011000D01*
X139930000Y-129011000D02*
X138502000Y-129011000D01*
X143425000Y-129051000D02*
X142010000Y-129051000D01*
X139930000Y-129051000D02*
X138515000Y-129051000D01*
X143412000Y-129091000D02*
X142010000Y-129091000D01*
X139930000Y-129091000D02*
X138528000Y-129091000D01*
X143398000Y-129131000D02*
X142010000Y-129131000D01*
X139930000Y-129131000D02*
X138542000Y-129131000D01*
X143384000Y-129171000D02*
X142010000Y-129171000D01*
X139930000Y-129171000D02*
X138556000Y-129171000D01*
X143368000Y-129211000D02*
X142010000Y-129211000D01*
X139930000Y-129211000D02*
X138572000Y-129211000D01*
X143352000Y-129251000D02*
X142010000Y-129251000D01*
X139930000Y-129251000D02*
X138588000Y-129251000D01*
X143335000Y-129291000D02*
X142010000Y-129291000D01*
X139930000Y-129291000D02*
X138605000Y-129291000D01*
X143318000Y-129331000D02*
X142010000Y-129331000D01*
X139930000Y-129331000D02*
X138622000Y-129331000D01*
X143299000Y-129371000D02*
X142010000Y-129371000D01*
X139930000Y-129371000D02*
X138641000Y-129371000D01*
X143280000Y-129411000D02*
X142010000Y-129411000D01*
X139930000Y-129411000D02*
X138660000Y-129411000D01*
X143260000Y-129451000D02*
X142010000Y-129451000D01*
X139930000Y-129451000D02*
X138680000Y-129451000D01*
X143238000Y-129491000D02*
X142010000Y-129491000D01*
X139930000Y-129491000D02*
X138702000Y-129491000D01*
X143217000Y-129531000D02*
X142010000Y-129531000D01*
X139930000Y-129531000D02*
X138723000Y-129531000D01*
X143194000Y-129571000D02*
X142010000Y-129571000D01*
X139930000Y-129571000D02*
X138746000Y-129571000D01*
X143170000Y-129611000D02*
X142010000Y-129611000D01*
X139930000Y-129611000D02*
X138770000Y-129611000D01*
X143145000Y-129651000D02*
X142010000Y-129651000D01*
X139930000Y-129651000D02*
X138795000Y-129651000D01*
X143119000Y-129691000D02*
X142010000Y-129691000D01*
X139930000Y-129691000D02*
X138821000Y-129691000D01*
X143092000Y-129731000D02*
X142010000Y-129731000D01*
X139930000Y-129731000D02*
X138848000Y-129731000D01*
X143065000Y-129771000D02*
X142010000Y-129771000D01*
X139930000Y-129771000D02*
X138875000Y-129771000D01*
X143035000Y-129811000D02*
X142010000Y-129811000D01*
X139930000Y-129811000D02*
X138905000Y-129811000D01*
X143005000Y-129851000D02*
X142010000Y-129851000D01*
X139930000Y-129851000D02*
X138935000Y-129851000D01*
X142974000Y-129891000D02*
X142010000Y-129891000D01*
X139930000Y-129891000D02*
X138966000Y-129891000D01*
X142941000Y-129931000D02*
X142010000Y-129931000D01*
X139930000Y-129931000D02*
X138999000Y-129931000D01*
X142907000Y-129971000D02*
X142010000Y-129971000D01*
X139930000Y-129971000D02*
X139033000Y-129971000D01*
X142871000Y-130011000D02*
X142010000Y-130011000D01*
X139930000Y-130011000D02*
X139069000Y-130011000D01*
X142834000Y-130051000D02*
X142010000Y-130051000D01*
X139930000Y-130051000D02*
X139106000Y-130051000D01*
X142796000Y-130091000D02*
X142010000Y-130091000D01*
X139930000Y-130091000D02*
X139144000Y-130091000D01*
X142755000Y-130131000D02*
X142010000Y-130131000D01*
X139930000Y-130131000D02*
X139185000Y-130131000D01*
X142713000Y-130171000D02*
X142010000Y-130171000D01*
X139930000Y-130171000D02*
X139227000Y-130171000D01*
X142669000Y-130211000D02*
X142010000Y-130211000D01*
X139930000Y-130211000D02*
X139271000Y-130211000D01*
X142623000Y-130251000D02*
X142010000Y-130251000D01*
X139930000Y-130251000D02*
X139317000Y-130251000D01*
X142575000Y-130291000D02*
X142010000Y-130291000D01*
X139930000Y-130291000D02*
X139365000Y-130291000D01*
X142524000Y-130331000D02*
X142010000Y-130331000D01*
X139930000Y-130331000D02*
X139416000Y-130331000D01*
X142470000Y-130371000D02*
X142010000Y-130371000D01*
X139930000Y-130371000D02*
X139470000Y-130371000D01*
X142413000Y-130411000D02*
X142010000Y-130411000D01*
X139930000Y-130411000D02*
X139527000Y-130411000D01*
X142353000Y-130451000D02*
X142010000Y-130451000D01*
X139930000Y-130451000D02*
X139587000Y-130451000D01*
X142289000Y-130491000D02*
X142010000Y-130491000D01*
X139930000Y-130491000D02*
X139651000Y-130491000D01*
X142221000Y-130531000D02*
X142010000Y-130531000D01*
X139930000Y-130531000D02*
X139719000Y-130531000D01*
X142148000Y-130571000D02*
X139792000Y-130571000D01*
X142068000Y-130611000D02*
X139872000Y-130611000D01*
X141981000Y-130651000D02*
X139959000Y-130651000D01*
X141885000Y-130691000D02*
X140055000Y-130691000D01*
X141775000Y-130731000D02*
X140165000Y-130731000D01*
X141647000Y-130771000D02*
X140293000Y-130771000D01*
X141488000Y-130811000D02*
X140452000Y-130811000D01*
X141254000Y-130851000D02*
X140686000Y-130851000D01*
X142445000Y-125445225D02*
X142445000Y-125945225D01*
X142695000Y-125695225D02*
X142195000Y-125695225D01*
D14*
%TO.C,U3*%
X233795000Y-84755000D02*
G75*
G03*
X233795000Y-84755000I-100000J0D01*
G01*
D16*
X225245000Y-79705000D02*
X225245000Y-82855000D01*
X215445000Y-79705000D02*
X225245000Y-79705000D01*
X215445000Y-82855000D02*
X215445000Y-79705000D01*
X215175000Y-82855000D02*
X215445000Y-82855000D01*
X212445000Y-85955000D02*
X212445000Y-84735000D01*
X209245000Y-85955000D02*
X212445000Y-85955000D01*
X212445000Y-95655000D02*
X209245000Y-95655000D01*
X212445000Y-96885000D02*
X212445000Y-95655000D01*
X216345000Y-98755000D02*
X215225000Y-98755000D01*
X216345000Y-100305000D02*
X216345000Y-98755000D01*
X224445000Y-100305000D02*
X216345000Y-100305000D01*
X224445000Y-98755000D02*
X224445000Y-100305000D01*
X228345000Y-96255000D02*
X228345000Y-96885000D01*
X234645000Y-96255000D02*
X228345000Y-96255000D01*
X234645000Y-85355000D02*
X234645000Y-96255000D01*
X228345000Y-85355000D02*
X234645000Y-85355000D01*
X228345000Y-84735000D02*
X228345000Y-85355000D01*
D14*
%TO.C,U1*%
X134100000Y-87295000D02*
G75*
G03*
X134100000Y-87295000I-100000J0D01*
G01*
D16*
X125550000Y-82245000D02*
X125550000Y-85395000D01*
X115750000Y-82245000D02*
X125550000Y-82245000D01*
X115750000Y-85395000D02*
X115750000Y-82245000D01*
X115480000Y-85395000D02*
X115750000Y-85395000D01*
X112750000Y-88495000D02*
X112750000Y-87275000D01*
X109550000Y-88495000D02*
X112750000Y-88495000D01*
X112750000Y-98195000D02*
X109550000Y-98195000D01*
X112750000Y-99425000D02*
X112750000Y-98195000D01*
X116650000Y-101295000D02*
X115530000Y-101295000D01*
X116650000Y-102845000D02*
X116650000Y-101295000D01*
X124750000Y-102845000D02*
X116650000Y-102845000D01*
X124750000Y-101295000D02*
X124750000Y-102845000D01*
X128650000Y-98795000D02*
X128650000Y-99425000D01*
X134950000Y-98795000D02*
X128650000Y-98795000D01*
X134950000Y-87895000D02*
X134950000Y-98795000D01*
X128650000Y-87895000D02*
X134950000Y-87895000D01*
X128650000Y-87275000D02*
X128650000Y-87895000D01*
D13*
%TO.C,J1*%
X169485000Y-76895000D02*
X169485000Y-75565000D01*
X170815000Y-76895000D02*
X169485000Y-76895000D01*
X169485000Y-74295000D02*
X169485000Y-71695000D01*
X172085000Y-74295000D02*
X169485000Y-74295000D01*
X172085000Y-76895000D02*
X172085000Y-74295000D01*
X169485000Y-71695000D02*
X179765000Y-71695000D01*
X172085000Y-76895000D02*
X179765000Y-76895000D01*
X179765000Y-76895000D02*
X179765000Y-71695000D01*
%TO.C,SW2*%
D17*
X198621666Y-61149761D02*
X198764523Y-61197380D01*
X199002619Y-61197380D01*
X199097857Y-61149761D01*
X199145476Y-61102142D01*
X199193095Y-61006904D01*
X199193095Y-60911666D01*
X199145476Y-60816428D01*
X199097857Y-60768809D01*
X199002619Y-60721190D01*
X198812142Y-60673571D01*
X198716904Y-60625952D01*
X198669285Y-60578333D01*
X198621666Y-60483095D01*
X198621666Y-60387857D01*
X198669285Y-60292619D01*
X198716904Y-60245000D01*
X198812142Y-60197380D01*
X199050238Y-60197380D01*
X199193095Y-60245000D01*
X199526428Y-60197380D02*
X199764523Y-61197380D01*
X199955000Y-60483095D01*
X200145476Y-61197380D01*
X200383571Y-60197380D01*
X200716904Y-60292619D02*
X200764523Y-60245000D01*
X200859761Y-60197380D01*
X201097857Y-60197380D01*
X201193095Y-60245000D01*
X201240714Y-60292619D01*
X201288333Y-60387857D01*
X201288333Y-60483095D01*
X201240714Y-60625952D01*
X200669285Y-61197380D01*
X201288333Y-61197380D01*
%TO.C,SW1*%
X147821666Y-61229761D02*
X147964523Y-61277380D01*
X148202619Y-61277380D01*
X148297857Y-61229761D01*
X148345476Y-61182142D01*
X148393095Y-61086904D01*
X148393095Y-60991666D01*
X148345476Y-60896428D01*
X148297857Y-60848809D01*
X148202619Y-60801190D01*
X148012142Y-60753571D01*
X147916904Y-60705952D01*
X147869285Y-60658333D01*
X147821666Y-60563095D01*
X147821666Y-60467857D01*
X147869285Y-60372619D01*
X147916904Y-60325000D01*
X148012142Y-60277380D01*
X148250238Y-60277380D01*
X148393095Y-60325000D01*
X148726428Y-60277380D02*
X148964523Y-61277380D01*
X149155000Y-60563095D01*
X149345476Y-61277380D01*
X149583571Y-60277380D01*
X150488333Y-61277380D02*
X149916904Y-61277380D01*
X150202619Y-61277380D02*
X150202619Y-60277380D01*
X150107380Y-60420238D01*
X150012142Y-60515476D01*
X149916904Y-60563095D01*
%TO.C,R2*%
X199858333Y-81747380D02*
X199525000Y-81271190D01*
X199286904Y-81747380D02*
X199286904Y-80747380D01*
X199667857Y-80747380D01*
X199763095Y-80795000D01*
X199810714Y-80842619D01*
X199858333Y-80937857D01*
X199858333Y-81080714D01*
X199810714Y-81175952D01*
X199763095Y-81223571D01*
X199667857Y-81271190D01*
X199286904Y-81271190D01*
X200239285Y-80842619D02*
X200286904Y-80795000D01*
X200382142Y-80747380D01*
X200620238Y-80747380D01*
X200715476Y-80795000D01*
X200763095Y-80842619D01*
X200810714Y-80937857D01*
X200810714Y-81033095D01*
X200763095Y-81175952D01*
X200191666Y-81747380D01*
X200810714Y-81747380D01*
%TO.C,R1*%
X149058333Y-77272380D02*
X148725000Y-76796190D01*
X148486904Y-77272380D02*
X148486904Y-76272380D01*
X148867857Y-76272380D01*
X148963095Y-76320000D01*
X149010714Y-76367619D01*
X149058333Y-76462857D01*
X149058333Y-76605714D01*
X149010714Y-76700952D01*
X148963095Y-76748571D01*
X148867857Y-76796190D01*
X148486904Y-76796190D01*
X150010714Y-77272380D02*
X149439285Y-77272380D01*
X149725000Y-77272380D02*
X149725000Y-76272380D01*
X149629761Y-76415238D01*
X149534523Y-76510476D01*
X149439285Y-76558095D01*
%TO.C,J2*%
X226258333Y-68934904D02*
X226258333Y-69506333D01*
X226220238Y-69620619D01*
X226144047Y-69696809D01*
X226029761Y-69734904D01*
X225953571Y-69734904D01*
X226601190Y-69011095D02*
X226639285Y-68973000D01*
X226715476Y-68934904D01*
X226905952Y-68934904D01*
X226982142Y-68973000D01*
X227020238Y-69011095D01*
X227058333Y-69087285D01*
X227058333Y-69163476D01*
X227020238Y-69277761D01*
X226563095Y-69734904D01*
X227058333Y-69734904D01*
%TO.C,D2*%
X199921904Y-53372380D02*
X199921904Y-52372380D01*
X200160000Y-52372380D01*
X200302857Y-52420000D01*
X200398095Y-52515238D01*
X200445714Y-52610476D01*
X200493333Y-52800952D01*
X200493333Y-52943809D01*
X200445714Y-53134285D01*
X200398095Y-53229523D01*
X200302857Y-53324761D01*
X200160000Y-53372380D01*
X199921904Y-53372380D01*
X200874285Y-52467619D02*
X200921904Y-52420000D01*
X201017142Y-52372380D01*
X201255238Y-52372380D01*
X201350476Y-52420000D01*
X201398095Y-52467619D01*
X201445714Y-52562857D01*
X201445714Y-52658095D01*
X201398095Y-52800952D01*
X200826666Y-53372380D01*
X201445714Y-53372380D01*
%TO.C,D1*%
X149121904Y-53372380D02*
X149121904Y-52372380D01*
X149360000Y-52372380D01*
X149502857Y-52420000D01*
X149598095Y-52515238D01*
X149645714Y-52610476D01*
X149693333Y-52800952D01*
X149693333Y-52943809D01*
X149645714Y-53134285D01*
X149598095Y-53229523D01*
X149502857Y-53324761D01*
X149360000Y-53372380D01*
X149121904Y-53372380D01*
X150645714Y-53372380D02*
X150074285Y-53372380D01*
X150360000Y-53372380D02*
X150360000Y-52372380D01*
X150264761Y-52515238D01*
X150169523Y-52610476D01*
X150074285Y-52658095D01*
%TO.C,U2*%
X173863095Y-108037380D02*
X173863095Y-108846904D01*
X173910714Y-108942142D01*
X173958333Y-108989761D01*
X174053571Y-109037380D01*
X174244047Y-109037380D01*
X174339285Y-108989761D01*
X174386904Y-108942142D01*
X174434523Y-108846904D01*
X174434523Y-108037380D01*
X174863095Y-108132619D02*
X174910714Y-108085000D01*
X175005952Y-108037380D01*
X175244047Y-108037380D01*
X175339285Y-108085000D01*
X175386904Y-108132619D01*
X175434523Y-108227857D01*
X175434523Y-108323095D01*
X175386904Y-108465952D01*
X174815476Y-109037380D01*
X175434523Y-109037380D01*
X167329761Y-82708809D02*
X167444047Y-82746904D01*
X167634523Y-82746904D01*
X167710714Y-82708809D01*
X167748809Y-82670714D01*
X167786904Y-82594523D01*
X167786904Y-82518333D01*
X167748809Y-82442142D01*
X167710714Y-82404047D01*
X167634523Y-82365952D01*
X167482142Y-82327857D01*
X167405952Y-82289761D01*
X167367857Y-82251666D01*
X167329761Y-82175476D01*
X167329761Y-82099285D01*
X167367857Y-82023095D01*
X167405952Y-81985000D01*
X167482142Y-81946904D01*
X167672619Y-81946904D01*
X167786904Y-81985000D01*
X168053571Y-81946904D02*
X168244047Y-82746904D01*
X168396428Y-82175476D01*
X168548809Y-82746904D01*
X168739285Y-81946904D01*
X169044047Y-82746904D02*
X169044047Y-81946904D01*
X169234523Y-81946904D01*
X169348809Y-81985000D01*
X169425000Y-82061190D01*
X169463095Y-82137380D01*
X169501190Y-82289761D01*
X169501190Y-82404047D01*
X169463095Y-82556428D01*
X169425000Y-82632619D01*
X169348809Y-82708809D01*
X169234523Y-82746904D01*
X169044047Y-82746904D01*
X169844047Y-82746904D02*
X169844047Y-81946904D01*
X170377380Y-81946904D02*
X170529761Y-81946904D01*
X170605952Y-81985000D01*
X170682142Y-82061190D01*
X170720238Y-82213571D01*
X170720238Y-82480238D01*
X170682142Y-82632619D01*
X170605952Y-82708809D01*
X170529761Y-82746904D01*
X170377380Y-82746904D01*
X170301190Y-82708809D01*
X170225000Y-82632619D01*
X170186904Y-82480238D01*
X170186904Y-82213571D01*
X170225000Y-82061190D01*
X170301190Y-81985000D01*
X170377380Y-81946904D01*
X178515476Y-82708809D02*
X178629761Y-82746904D01*
X178820238Y-82746904D01*
X178896428Y-82708809D01*
X178934523Y-82670714D01*
X178972619Y-82594523D01*
X178972619Y-82518333D01*
X178934523Y-82442142D01*
X178896428Y-82404047D01*
X178820238Y-82365952D01*
X178667857Y-82327857D01*
X178591666Y-82289761D01*
X178553571Y-82251666D01*
X178515476Y-82175476D01*
X178515476Y-82099285D01*
X178553571Y-82023095D01*
X178591666Y-81985000D01*
X178667857Y-81946904D01*
X178858333Y-81946904D01*
X178972619Y-81985000D01*
X179239285Y-81946904D02*
X179429761Y-82746904D01*
X179582142Y-82175476D01*
X179734523Y-82746904D01*
X179925000Y-81946904D01*
X180686904Y-82670714D02*
X180648809Y-82708809D01*
X180534523Y-82746904D01*
X180458333Y-82746904D01*
X180344047Y-82708809D01*
X180267857Y-82632619D01*
X180229761Y-82556428D01*
X180191666Y-82404047D01*
X180191666Y-82289761D01*
X180229761Y-82137380D01*
X180267857Y-82061190D01*
X180344047Y-81985000D01*
X180458333Y-81946904D01*
X180534523Y-81946904D01*
X180648809Y-81985000D01*
X180686904Y-82023095D01*
X181410714Y-82746904D02*
X181029761Y-82746904D01*
X181029761Y-81946904D01*
X181677380Y-82746904D02*
X181677380Y-81946904D01*
X182134523Y-82746904D02*
X181791666Y-82289761D01*
X182134523Y-81946904D02*
X181677380Y-82404047D01*
X160668597Y-116025964D02*
X160937971Y-115756590D01*
X160776346Y-116241463D02*
X160399223Y-115487216D01*
X161153470Y-115864340D01*
X161099595Y-114840719D02*
X161018783Y-114867656D01*
X160937971Y-114948468D01*
X160884096Y-115056218D01*
X160884096Y-115163967D01*
X160911033Y-115244780D01*
X160991845Y-115379467D01*
X161072658Y-115460279D01*
X161207345Y-115541091D01*
X161288157Y-115568028D01*
X161395906Y-115568028D01*
X161503656Y-115514154D01*
X161557531Y-115460279D01*
X161611406Y-115352529D01*
X161611406Y-115298654D01*
X161422844Y-115110093D01*
X161315094Y-115217842D01*
X161907717Y-115110093D02*
X161342032Y-114544407D01*
X162230966Y-114786844D01*
X161665280Y-114221158D01*
X162500340Y-114517470D02*
X161934654Y-113951784D01*
X162069341Y-113817097D01*
X162177091Y-113763223D01*
X162284841Y-113763223D01*
X162365653Y-113790160D01*
X162500340Y-113870972D01*
X162581152Y-113951784D01*
X162661964Y-114086471D01*
X162688902Y-114167284D01*
X162688902Y-114275033D01*
X162635027Y-114382783D01*
X162500340Y-114517470D01*
X161111158Y-127783155D02*
X161030346Y-127810093D01*
X160949534Y-127890905D01*
X160895659Y-127998654D01*
X160895659Y-128106404D01*
X160922597Y-128187216D01*
X161003409Y-128321903D01*
X161084221Y-128402715D01*
X161218908Y-128483528D01*
X161299720Y-128510465D01*
X161407470Y-128510465D01*
X161515219Y-128456590D01*
X161569094Y-128402715D01*
X161622969Y-128294966D01*
X161622969Y-128241091D01*
X161434407Y-128052529D01*
X161326658Y-128160279D01*
X161919280Y-128052529D02*
X161353595Y-127486844D01*
X162242529Y-127729280D01*
X161676844Y-127163595D01*
X162511903Y-127459906D02*
X161946218Y-126894221D01*
X162080905Y-126759534D01*
X162188654Y-126705659D01*
X162296404Y-126705659D01*
X162377216Y-126732597D01*
X162511903Y-126813409D01*
X162592715Y-126894221D01*
X162673528Y-127028908D01*
X162700465Y-127109720D01*
X162700465Y-127217470D01*
X162646590Y-127325219D01*
X162511903Y-127459906D01*
X161111158Y-102383155D02*
X161030346Y-102410093D01*
X160949534Y-102490905D01*
X160895659Y-102598654D01*
X160895659Y-102706404D01*
X160922597Y-102787216D01*
X161003409Y-102921903D01*
X161084221Y-103002715D01*
X161218908Y-103083528D01*
X161299720Y-103110465D01*
X161407470Y-103110465D01*
X161515219Y-103056590D01*
X161569094Y-103002715D01*
X161622969Y-102894966D01*
X161622969Y-102841091D01*
X161434407Y-102652529D01*
X161326658Y-102760279D01*
X161919280Y-102652529D02*
X161353595Y-102086844D01*
X162242529Y-102329280D01*
X161676844Y-101763595D01*
X162511903Y-102059906D02*
X161946218Y-101494221D01*
X162080905Y-101359534D01*
X162188654Y-101305659D01*
X162296404Y-101305659D01*
X162377216Y-101332597D01*
X162511903Y-101413409D01*
X162592715Y-101494221D01*
X162673528Y-101628908D01*
X162700465Y-101709720D01*
X162700465Y-101817470D01*
X162646590Y-101925219D01*
X162511903Y-102059906D01*
X161111158Y-89683155D02*
X161030346Y-89710093D01*
X160949534Y-89790905D01*
X160895659Y-89898654D01*
X160895659Y-90006404D01*
X160922597Y-90087216D01*
X161003409Y-90221903D01*
X161084221Y-90302715D01*
X161218908Y-90383528D01*
X161299720Y-90410465D01*
X161407470Y-90410465D01*
X161515219Y-90356590D01*
X161569094Y-90302715D01*
X161622969Y-90194966D01*
X161622969Y-90141091D01*
X161434407Y-89952529D01*
X161326658Y-90060279D01*
X161919280Y-89952529D02*
X161353595Y-89386844D01*
X162242529Y-89629280D01*
X161676844Y-89063595D01*
X162511903Y-89359906D02*
X161946218Y-88794221D01*
X162080905Y-88659534D01*
X162188654Y-88605659D01*
X162296404Y-88605659D01*
X162377216Y-88632597D01*
X162511903Y-88713409D01*
X162592715Y-88794221D01*
X162673528Y-88928908D01*
X162700465Y-89009720D01*
X162700465Y-89117470D01*
X162646590Y-89225219D01*
X162511903Y-89359906D01*
X186711158Y-89683155D02*
X186630346Y-89710093D01*
X186549534Y-89790905D01*
X186495659Y-89898654D01*
X186495659Y-90006404D01*
X186522597Y-90087216D01*
X186603409Y-90221903D01*
X186684221Y-90302715D01*
X186818908Y-90383528D01*
X186899720Y-90410465D01*
X187007470Y-90410465D01*
X187115219Y-90356590D01*
X187169094Y-90302715D01*
X187222969Y-90194966D01*
X187222969Y-90141091D01*
X187034407Y-89952529D01*
X186926658Y-90060279D01*
X187519280Y-89952529D02*
X186953595Y-89386844D01*
X187842529Y-89629280D01*
X187276844Y-89063595D01*
X188111903Y-89359906D02*
X187546218Y-88794221D01*
X187680905Y-88659534D01*
X187788654Y-88605659D01*
X187896404Y-88605659D01*
X187977216Y-88632597D01*
X188111903Y-88713409D01*
X188192715Y-88794221D01*
X188273528Y-88928908D01*
X188300465Y-89009720D01*
X188300465Y-89117470D01*
X188246590Y-89225219D01*
X188111903Y-89359906D01*
X186711158Y-102383155D02*
X186630346Y-102410093D01*
X186549534Y-102490905D01*
X186495659Y-102598654D01*
X186495659Y-102706404D01*
X186522597Y-102787216D01*
X186603409Y-102921903D01*
X186684221Y-103002715D01*
X186818908Y-103083528D01*
X186899720Y-103110465D01*
X187007470Y-103110465D01*
X187115219Y-103056590D01*
X187169094Y-103002715D01*
X187222969Y-102894966D01*
X187222969Y-102841091D01*
X187034407Y-102652529D01*
X186926658Y-102760279D01*
X187519280Y-102652529D02*
X186953595Y-102086844D01*
X187842529Y-102329280D01*
X187276844Y-101763595D01*
X188111903Y-102059906D02*
X187546218Y-101494221D01*
X187680905Y-101359534D01*
X187788654Y-101305659D01*
X187896404Y-101305659D01*
X187977216Y-101332597D01*
X188111903Y-101413409D01*
X188192715Y-101494221D01*
X188273528Y-101628908D01*
X188300465Y-101709720D01*
X188300465Y-101817470D01*
X188246590Y-101925219D01*
X188111903Y-102059906D01*
X186711158Y-115083155D02*
X186630346Y-115110093D01*
X186549534Y-115190905D01*
X186495659Y-115298654D01*
X186495659Y-115406404D01*
X186522597Y-115487216D01*
X186603409Y-115621903D01*
X186684221Y-115702715D01*
X186818908Y-115783528D01*
X186899720Y-115810465D01*
X187007470Y-115810465D01*
X187115219Y-115756590D01*
X187169094Y-115702715D01*
X187222969Y-115594966D01*
X187222969Y-115541091D01*
X187034407Y-115352529D01*
X186926658Y-115460279D01*
X187519280Y-115352529D02*
X186953595Y-114786844D01*
X187842529Y-115029280D01*
X187276844Y-114463595D01*
X188111903Y-114759906D02*
X187546218Y-114194221D01*
X187680905Y-114059534D01*
X187788654Y-114005659D01*
X187896404Y-114005659D01*
X187977216Y-114032597D01*
X188111903Y-114113409D01*
X188192715Y-114194221D01*
X188273528Y-114328908D01*
X188300465Y-114409720D01*
X188300465Y-114517470D01*
X188246590Y-114625219D01*
X188111903Y-114759906D01*
X186711158Y-127783155D02*
X186630346Y-127810093D01*
X186549534Y-127890905D01*
X186495659Y-127998654D01*
X186495659Y-128106404D01*
X186522597Y-128187216D01*
X186603409Y-128321903D01*
X186684221Y-128402715D01*
X186818908Y-128483528D01*
X186899720Y-128510465D01*
X187007470Y-128510465D01*
X187115219Y-128456590D01*
X187169094Y-128402715D01*
X187222969Y-128294966D01*
X187222969Y-128241091D01*
X187034407Y-128052529D01*
X186926658Y-128160279D01*
X187519280Y-128052529D02*
X186953595Y-127486844D01*
X187842529Y-127729280D01*
X187276844Y-127163595D01*
X188111903Y-127459906D02*
X187546218Y-126894221D01*
X187680905Y-126759534D01*
X187788654Y-126705659D01*
X187896404Y-126705659D01*
X187977216Y-126732597D01*
X188111903Y-126813409D01*
X188192715Y-126894221D01*
X188273528Y-127028908D01*
X188300465Y-127109720D01*
X188300465Y-127217470D01*
X188246590Y-127325219D01*
X188111903Y-127459906D01*
X159978129Y-133512309D02*
X160732377Y-133889433D01*
X160355253Y-133135186D01*
X161001751Y-133027436D02*
X161109500Y-132973561D01*
X161163375Y-132973561D01*
X161244187Y-133000499D01*
X161325000Y-133081311D01*
X161351937Y-133162123D01*
X161351937Y-133215998D01*
X161325000Y-133296810D01*
X161109500Y-133512309D01*
X160543815Y-132946624D01*
X160732377Y-132758062D01*
X160813189Y-132731125D01*
X160867064Y-132731125D01*
X160947876Y-132758062D01*
X161001751Y-132811937D01*
X161028688Y-132892749D01*
X161028688Y-132946624D01*
X161001751Y-133027436D01*
X160813189Y-133215998D01*
X161109500Y-132380938D02*
X161567436Y-132838874D01*
X161648248Y-132865812D01*
X161702123Y-132865812D01*
X161782935Y-132838874D01*
X161890685Y-132731125D01*
X161917622Y-132650312D01*
X161917622Y-132596438D01*
X161890685Y-132515625D01*
X161432749Y-132057690D01*
X162213934Y-132354001D02*
X162321683Y-132300126D01*
X162456370Y-132165439D01*
X162483308Y-132084627D01*
X162483308Y-132030752D01*
X162456370Y-131949940D01*
X162402496Y-131896065D01*
X162321683Y-131869128D01*
X162267809Y-131869128D01*
X162186996Y-131896065D01*
X162052309Y-131976877D01*
X161971497Y-132003815D01*
X161917622Y-132003815D01*
X161836810Y-131976877D01*
X161782935Y-131923003D01*
X161755998Y-131842190D01*
X161755998Y-131788316D01*
X161782935Y-131707503D01*
X161917622Y-131572816D01*
X162025372Y-131518942D01*
X160145473Y-130834966D02*
X160899720Y-131212089D01*
X160522597Y-130457842D01*
X161222969Y-130834966D02*
X161330719Y-130781091D01*
X161465406Y-130646404D01*
X161492343Y-130565592D01*
X161492343Y-130511717D01*
X161465406Y-130430905D01*
X161411531Y-130377030D01*
X161330719Y-130350093D01*
X161276844Y-130350093D01*
X161196032Y-130377030D01*
X161061345Y-130457842D01*
X160980532Y-130484780D01*
X160926658Y-130484780D01*
X160845845Y-130457842D01*
X160791971Y-130403967D01*
X160765033Y-130323155D01*
X160765033Y-130269280D01*
X160791971Y-130188468D01*
X160926658Y-130053781D01*
X161034407Y-129999906D01*
X161653967Y-129919094D02*
X161923341Y-130188468D01*
X161169094Y-129811345D02*
X161653967Y-129919094D01*
X161546218Y-129434221D01*
X162246590Y-129811345D02*
X162354340Y-129757470D01*
X162489027Y-129622783D01*
X162515964Y-129541971D01*
X162515964Y-129488096D01*
X162489027Y-129407284D01*
X162435152Y-129353409D01*
X162354340Y-129326471D01*
X162300465Y-129326471D01*
X162219653Y-129353409D01*
X162084966Y-129434221D01*
X162004154Y-129461158D01*
X161950279Y-129461158D01*
X161869467Y-129434221D01*
X161815592Y-129380346D01*
X161788654Y-129299534D01*
X161788654Y-129245659D01*
X161815592Y-129164847D01*
X161950279Y-129030160D01*
X162058028Y-128976285D01*
X159147131Y-126943308D02*
X159497317Y-126593122D01*
X159524255Y-126997183D01*
X159605067Y-126916370D01*
X159685879Y-126889433D01*
X159739754Y-126889433D01*
X159820566Y-126916370D01*
X159955253Y-127051057D01*
X159982190Y-127131870D01*
X159982190Y-127185744D01*
X159955253Y-127266557D01*
X159793629Y-127428181D01*
X159712816Y-127455118D01*
X159658942Y-127455118D01*
X159658942Y-126431497D02*
X160413189Y-126808621D01*
X160036065Y-126054374D01*
X160170752Y-125919687D02*
X160520938Y-125569500D01*
X160547876Y-125973561D01*
X160628688Y-125892749D01*
X160709500Y-125865812D01*
X160763375Y-125865812D01*
X160844187Y-125892749D01*
X160978874Y-126027436D01*
X161005812Y-126108248D01*
X161005812Y-126162123D01*
X160978874Y-126242935D01*
X160817250Y-126404560D01*
X160736438Y-126431497D01*
X160682563Y-126431497D01*
X161248248Y-126081311D02*
X161679247Y-125650312D01*
X161463748Y-125165439D02*
X161652309Y-124976877D01*
X162029433Y-125192377D02*
X161760059Y-125461751D01*
X161194374Y-124896065D01*
X161463748Y-124626691D01*
X162271870Y-124949940D02*
X161706184Y-124384255D01*
X162595118Y-124626691D01*
X162029433Y-124061006D01*
X160714847Y-122875592D02*
X161065033Y-122525406D01*
X161091971Y-122929467D01*
X161172783Y-122848654D01*
X161253595Y-122821717D01*
X161307470Y-122821717D01*
X161388282Y-122848654D01*
X161522969Y-122983341D01*
X161549906Y-123064154D01*
X161549906Y-123118028D01*
X161522969Y-123198841D01*
X161361345Y-123360465D01*
X161280532Y-123387402D01*
X161226658Y-123387402D01*
X161226658Y-122363781D02*
X161980905Y-122740905D01*
X161603781Y-121986658D01*
X161738468Y-121851971D02*
X162088654Y-121501784D01*
X162115592Y-121905845D01*
X162196404Y-121825033D01*
X162277216Y-121798096D01*
X162331091Y-121798096D01*
X162411903Y-121825033D01*
X162546590Y-121959720D01*
X162573528Y-122040532D01*
X162573528Y-122094407D01*
X162546590Y-122175219D01*
X162384966Y-122336844D01*
X162304154Y-122363781D01*
X162250279Y-122363781D01*
X158779788Y-123118773D02*
X159049162Y-122849399D01*
X158887537Y-123334272D02*
X158510414Y-122580025D01*
X159264661Y-122957149D01*
X159453223Y-122768587D02*
X158887537Y-122202902D01*
X159022224Y-122068215D01*
X159129974Y-122014340D01*
X159237723Y-122014340D01*
X159318536Y-122041277D01*
X159453223Y-122122089D01*
X159534035Y-122202902D01*
X159614847Y-122337589D01*
X159641784Y-122418401D01*
X159641784Y-122526150D01*
X159587910Y-122633900D01*
X159453223Y-122768587D01*
X160288282Y-121825778D02*
X160288282Y-121879653D01*
X160234407Y-121987402D01*
X160180532Y-122041277D01*
X160072783Y-122095152D01*
X159965033Y-122095152D01*
X159884221Y-122068215D01*
X159749534Y-121987402D01*
X159668722Y-121906590D01*
X159587910Y-121771903D01*
X159560972Y-121691091D01*
X159560972Y-121583341D01*
X159614847Y-121475592D01*
X159668722Y-121421717D01*
X159776471Y-121367842D01*
X159830346Y-121367842D01*
X160503781Y-121825778D02*
X160934780Y-121394780D01*
X160369094Y-120721345D02*
X161123341Y-121098468D01*
X160746218Y-120344221D01*
X161823714Y-120398096D02*
X161365778Y-120317284D01*
X161500465Y-120721345D02*
X160934780Y-120155659D01*
X161150279Y-119940160D01*
X161231091Y-119913223D01*
X161284966Y-119913223D01*
X161365778Y-119940160D01*
X161446590Y-120020972D01*
X161473528Y-120101784D01*
X161473528Y-120155659D01*
X161446590Y-120236471D01*
X161231091Y-120451971D01*
X161769839Y-119859348D02*
X161958401Y-119670786D01*
X162335524Y-119886285D02*
X162066150Y-120155659D01*
X161500465Y-119589974D01*
X161769839Y-119320600D01*
X162470211Y-119158975D02*
X162281650Y-119347537D01*
X162577961Y-119643849D02*
X162012276Y-119078163D01*
X162281650Y-118808789D01*
X160614722Y-118119592D02*
X160533910Y-118146529D01*
X160453097Y-118227341D01*
X160399223Y-118335091D01*
X160399223Y-118442841D01*
X160426160Y-118523653D01*
X160506972Y-118658340D01*
X160587784Y-118739152D01*
X160722471Y-118819964D01*
X160803284Y-118846902D01*
X160911033Y-118846902D01*
X161018783Y-118793027D01*
X161072658Y-118739152D01*
X161126532Y-118631402D01*
X161126532Y-118577528D01*
X160937971Y-118388966D01*
X160830221Y-118496715D01*
X161422844Y-118388966D02*
X160857158Y-117823280D01*
X161072658Y-117607781D01*
X161153470Y-117580844D01*
X161207345Y-117580844D01*
X161288157Y-117607781D01*
X161368969Y-117688593D01*
X161395906Y-117769406D01*
X161395906Y-117823280D01*
X161368969Y-117904093D01*
X161153470Y-118119592D01*
X161449781Y-117338407D02*
X161449781Y-117284532D01*
X161476719Y-117203720D01*
X161611406Y-117069033D01*
X161692218Y-117042096D01*
X161746093Y-117042096D01*
X161826905Y-117069033D01*
X161880780Y-117122908D01*
X161934654Y-117230658D01*
X161934654Y-117877155D01*
X162284841Y-117526969D01*
X162284841Y-116880471D02*
X162204028Y-116907409D01*
X162150154Y-116907409D01*
X162069341Y-116880471D01*
X162042404Y-116853534D01*
X162015467Y-116772722D01*
X162015467Y-116718847D01*
X162042404Y-116638035D01*
X162150154Y-116530285D01*
X162230966Y-116503348D01*
X162284841Y-116503348D01*
X162365653Y-116530285D01*
X162392590Y-116557223D01*
X162419528Y-116638035D01*
X162419528Y-116691910D01*
X162392590Y-116772722D01*
X162284841Y-116880471D01*
X162257903Y-116961284D01*
X162257903Y-117015158D01*
X162284841Y-117095971D01*
X162392590Y-117203720D01*
X162473402Y-117230658D01*
X162527277Y-117230658D01*
X162608089Y-117203720D01*
X162715839Y-117095971D01*
X162742776Y-117015158D01*
X162742776Y-116961284D01*
X162715839Y-116880471D01*
X162608089Y-116772722D01*
X162527277Y-116745784D01*
X162473402Y-116745784D01*
X162392590Y-116772722D01*
X160614722Y-112775592D02*
X160533910Y-112802529D01*
X160453097Y-112883341D01*
X160399223Y-112991091D01*
X160399223Y-113098841D01*
X160426160Y-113179653D01*
X160506972Y-113314340D01*
X160587784Y-113395152D01*
X160722471Y-113475964D01*
X160803284Y-113502902D01*
X160911033Y-113502902D01*
X161018783Y-113449027D01*
X161072658Y-113395152D01*
X161126532Y-113287402D01*
X161126532Y-113233528D01*
X160937971Y-113044966D01*
X160830221Y-113152715D01*
X161422844Y-113044966D02*
X160857158Y-112479280D01*
X161072658Y-112263781D01*
X161153470Y-112236844D01*
X161207345Y-112236844D01*
X161288157Y-112263781D01*
X161368969Y-112344593D01*
X161395906Y-112425406D01*
X161395906Y-112479280D01*
X161368969Y-112560093D01*
X161153470Y-112775592D01*
X161449781Y-111994407D02*
X161449781Y-111940532D01*
X161476719Y-111859720D01*
X161611406Y-111725033D01*
X161692218Y-111698096D01*
X161746093Y-111698096D01*
X161826905Y-111725033D01*
X161880780Y-111778908D01*
X161934654Y-111886658D01*
X161934654Y-112533155D01*
X162284841Y-112182969D01*
X161907717Y-111428722D02*
X162284841Y-111051598D01*
X162608089Y-111859720D01*
X160614722Y-110245592D02*
X160533910Y-110272529D01*
X160453097Y-110353341D01*
X160399223Y-110461091D01*
X160399223Y-110568841D01*
X160426160Y-110649653D01*
X160506972Y-110784340D01*
X160587784Y-110865152D01*
X160722471Y-110945964D01*
X160803284Y-110972902D01*
X160911033Y-110972902D01*
X161018783Y-110919027D01*
X161072658Y-110865152D01*
X161126532Y-110757402D01*
X161126532Y-110703528D01*
X160937971Y-110514966D01*
X160830221Y-110622715D01*
X161422844Y-110514966D02*
X160857158Y-109949280D01*
X161072658Y-109733781D01*
X161153470Y-109706844D01*
X161207345Y-109706844D01*
X161288157Y-109733781D01*
X161368969Y-109814593D01*
X161395906Y-109895406D01*
X161395906Y-109949280D01*
X161368969Y-110030093D01*
X161153470Y-110245592D01*
X161449781Y-109464407D02*
X161449781Y-109410532D01*
X161476719Y-109329720D01*
X161611406Y-109195033D01*
X161692218Y-109168096D01*
X161746093Y-109168096D01*
X161826905Y-109195033D01*
X161880780Y-109248908D01*
X161934654Y-109356658D01*
X161934654Y-110003155D01*
X162284841Y-109652969D01*
X162204028Y-108602410D02*
X162096279Y-108710160D01*
X162069341Y-108790972D01*
X162069341Y-108844847D01*
X162096279Y-108979534D01*
X162177091Y-109114221D01*
X162392590Y-109329720D01*
X162473402Y-109356658D01*
X162527277Y-109356658D01*
X162608089Y-109329720D01*
X162715839Y-109221971D01*
X162742776Y-109141158D01*
X162742776Y-109087284D01*
X162715839Y-109006471D01*
X162581152Y-108871784D01*
X162500340Y-108844847D01*
X162446465Y-108844847D01*
X162365653Y-108871784D01*
X162257903Y-108979534D01*
X162230966Y-109060346D01*
X162230966Y-109114221D01*
X162257903Y-109195033D01*
X161463375Y-107988435D02*
X161005439Y-107907622D01*
X161140126Y-108311683D02*
X160574441Y-107745998D01*
X160789940Y-107530499D01*
X160870752Y-107503561D01*
X160924627Y-107503561D01*
X161005439Y-107530499D01*
X161086251Y-107611311D01*
X161113189Y-107692123D01*
X161113189Y-107745998D01*
X161086251Y-107826810D01*
X160870752Y-108042309D01*
X161140126Y-107180312D02*
X161598062Y-107638248D01*
X161678874Y-107665186D01*
X161732749Y-107665186D01*
X161813561Y-107638248D01*
X161921311Y-107530499D01*
X161948248Y-107449687D01*
X161948248Y-107395812D01*
X161921311Y-107314999D01*
X161463375Y-106857064D01*
X162298435Y-107153375D02*
X161732749Y-106587690D01*
X162621683Y-106830126D01*
X162055998Y-106264441D01*
X160614722Y-105165592D02*
X160533910Y-105192529D01*
X160453097Y-105273341D01*
X160399223Y-105381091D01*
X160399223Y-105488841D01*
X160426160Y-105569653D01*
X160506972Y-105704340D01*
X160587784Y-105785152D01*
X160722471Y-105865964D01*
X160803284Y-105892902D01*
X160911033Y-105892902D01*
X161018783Y-105839027D01*
X161072658Y-105785152D01*
X161126532Y-105677402D01*
X161126532Y-105623528D01*
X160937971Y-105434966D01*
X160830221Y-105542715D01*
X161422844Y-105434966D02*
X160857158Y-104869280D01*
X161072658Y-104653781D01*
X161153470Y-104626844D01*
X161207345Y-104626844D01*
X161288157Y-104653781D01*
X161368969Y-104734593D01*
X161395906Y-104815406D01*
X161395906Y-104869280D01*
X161368969Y-104950093D01*
X161153470Y-105165592D01*
X161449781Y-104384407D02*
X161449781Y-104330532D01*
X161476719Y-104249720D01*
X161611406Y-104115033D01*
X161692218Y-104088096D01*
X161746093Y-104088096D01*
X161826905Y-104115033D01*
X161880780Y-104168908D01*
X161934654Y-104276658D01*
X161934654Y-104923155D01*
X162284841Y-104572969D01*
X161988529Y-103845659D02*
X161988529Y-103791784D01*
X162015467Y-103710972D01*
X162150154Y-103576285D01*
X162230966Y-103549348D01*
X162284841Y-103549348D01*
X162365653Y-103576285D01*
X162419528Y-103630160D01*
X162473402Y-103737910D01*
X162473402Y-104384407D01*
X162823589Y-104034221D01*
X160614722Y-100075592D02*
X160533910Y-100102529D01*
X160453097Y-100183341D01*
X160399223Y-100291091D01*
X160399223Y-100398841D01*
X160426160Y-100479653D01*
X160506972Y-100614340D01*
X160587784Y-100695152D01*
X160722471Y-100775964D01*
X160803284Y-100802902D01*
X160911033Y-100802902D01*
X161018783Y-100749027D01*
X161072658Y-100695152D01*
X161126532Y-100587402D01*
X161126532Y-100533528D01*
X160937971Y-100344966D01*
X160830221Y-100452715D01*
X161422844Y-100344966D02*
X160857158Y-99779280D01*
X161072658Y-99563781D01*
X161153470Y-99536844D01*
X161207345Y-99536844D01*
X161288157Y-99563781D01*
X161368969Y-99644593D01*
X161395906Y-99725406D01*
X161395906Y-99779280D01*
X161368969Y-99860093D01*
X161153470Y-100075592D01*
X161449781Y-99294407D02*
X161449781Y-99240532D01*
X161476719Y-99159720D01*
X161611406Y-99025033D01*
X161692218Y-98998096D01*
X161746093Y-98998096D01*
X161826905Y-99025033D01*
X161880780Y-99078908D01*
X161934654Y-99186658D01*
X161934654Y-99833155D01*
X162284841Y-99482969D01*
X162823589Y-98944221D02*
X162500340Y-99267470D01*
X162661964Y-99105845D02*
X162096279Y-98540160D01*
X162123216Y-98674847D01*
X162123216Y-98782597D01*
X162096279Y-98863409D01*
X160614722Y-97545592D02*
X160533910Y-97572529D01*
X160453097Y-97653341D01*
X160399223Y-97761091D01*
X160399223Y-97868841D01*
X160426160Y-97949653D01*
X160506972Y-98084340D01*
X160587784Y-98165152D01*
X160722471Y-98245964D01*
X160803284Y-98272902D01*
X160911033Y-98272902D01*
X161018783Y-98219027D01*
X161072658Y-98165152D01*
X161126532Y-98057402D01*
X161126532Y-98003528D01*
X160937971Y-97814966D01*
X160830221Y-97922715D01*
X161422844Y-97814966D02*
X160857158Y-97249280D01*
X161072658Y-97033781D01*
X161153470Y-97006844D01*
X161207345Y-97006844D01*
X161288157Y-97033781D01*
X161368969Y-97114593D01*
X161395906Y-97195406D01*
X161395906Y-97249280D01*
X161368969Y-97330093D01*
X161153470Y-97545592D01*
X161449781Y-96764407D02*
X161449781Y-96710532D01*
X161476719Y-96629720D01*
X161611406Y-96495033D01*
X161692218Y-96468096D01*
X161746093Y-96468096D01*
X161826905Y-96495033D01*
X161880780Y-96548908D01*
X161934654Y-96656658D01*
X161934654Y-97303155D01*
X162284841Y-96952969D01*
X162069341Y-96037097D02*
X162123216Y-95983223D01*
X162204028Y-95956285D01*
X162257903Y-95956285D01*
X162338715Y-95983223D01*
X162473402Y-96064035D01*
X162608089Y-96198722D01*
X162688902Y-96333409D01*
X162715839Y-96414221D01*
X162715839Y-96468096D01*
X162688902Y-96548908D01*
X162635027Y-96602783D01*
X162554215Y-96629720D01*
X162500340Y-96629720D01*
X162419528Y-96602783D01*
X162284841Y-96521971D01*
X162150154Y-96387284D01*
X162069341Y-96252597D01*
X162042404Y-96171784D01*
X162042404Y-96117910D01*
X162069341Y-96037097D01*
X160614722Y-95005592D02*
X160533910Y-95032529D01*
X160453097Y-95113341D01*
X160399223Y-95221091D01*
X160399223Y-95328841D01*
X160426160Y-95409653D01*
X160506972Y-95544340D01*
X160587784Y-95625152D01*
X160722471Y-95705964D01*
X160803284Y-95732902D01*
X160911033Y-95732902D01*
X161018783Y-95679027D01*
X161072658Y-95625152D01*
X161126532Y-95517402D01*
X161126532Y-95463528D01*
X160937971Y-95274966D01*
X160830221Y-95382715D01*
X161422844Y-95274966D02*
X160857158Y-94709280D01*
X161072658Y-94493781D01*
X161153470Y-94466844D01*
X161207345Y-94466844D01*
X161288157Y-94493781D01*
X161368969Y-94574593D01*
X161395906Y-94655406D01*
X161395906Y-94709280D01*
X161368969Y-94790093D01*
X161153470Y-95005592D01*
X162284841Y-94412969D02*
X161961592Y-94736218D01*
X162123216Y-94574593D02*
X161557531Y-94008908D01*
X161584468Y-94143595D01*
X161584468Y-94251345D01*
X161557531Y-94332157D01*
X162554215Y-94143595D02*
X162661964Y-94035845D01*
X162688902Y-93955033D01*
X162688902Y-93901158D01*
X162661964Y-93766471D01*
X162581152Y-93631784D01*
X162365653Y-93416285D01*
X162284841Y-93389348D01*
X162230966Y-93389348D01*
X162150154Y-93416285D01*
X162042404Y-93524035D01*
X162015467Y-93604847D01*
X162015467Y-93658722D01*
X162042404Y-93739534D01*
X162177091Y-93874221D01*
X162257903Y-93901158D01*
X162311778Y-93901158D01*
X162392590Y-93874221D01*
X162500340Y-93766471D01*
X162527277Y-93685659D01*
X162527277Y-93631784D01*
X162500340Y-93550972D01*
X160614722Y-92465592D02*
X160533910Y-92492529D01*
X160453097Y-92573341D01*
X160399223Y-92681091D01*
X160399223Y-92788841D01*
X160426160Y-92869653D01*
X160506972Y-93004340D01*
X160587784Y-93085152D01*
X160722471Y-93165964D01*
X160803284Y-93192902D01*
X160911033Y-93192902D01*
X161018783Y-93139027D01*
X161072658Y-93085152D01*
X161126532Y-92977402D01*
X161126532Y-92923528D01*
X160937971Y-92734966D01*
X160830221Y-92842715D01*
X161422844Y-92734966D02*
X160857158Y-92169280D01*
X161072658Y-91953781D01*
X161153470Y-91926844D01*
X161207345Y-91926844D01*
X161288157Y-91953781D01*
X161368969Y-92034593D01*
X161395906Y-92115406D01*
X161395906Y-92169280D01*
X161368969Y-92250093D01*
X161153470Y-92465592D01*
X162284841Y-91872969D02*
X161961592Y-92196218D01*
X162123216Y-92034593D02*
X161557531Y-91468908D01*
X161584468Y-91603595D01*
X161584468Y-91711345D01*
X161557531Y-91792157D01*
X162284841Y-91226471D02*
X162204028Y-91253409D01*
X162150154Y-91253409D01*
X162069341Y-91226471D01*
X162042404Y-91199534D01*
X162015467Y-91118722D01*
X162015467Y-91064847D01*
X162042404Y-90984035D01*
X162150154Y-90876285D01*
X162230966Y-90849348D01*
X162284841Y-90849348D01*
X162365653Y-90876285D01*
X162392590Y-90903223D01*
X162419528Y-90984035D01*
X162419528Y-91037910D01*
X162392590Y-91118722D01*
X162284841Y-91226471D01*
X162257903Y-91307284D01*
X162257903Y-91361158D01*
X162284841Y-91441971D01*
X162392590Y-91549720D01*
X162473402Y-91576658D01*
X162527277Y-91576658D01*
X162608089Y-91549720D01*
X162715839Y-91441971D01*
X162742776Y-91361158D01*
X162742776Y-91307284D01*
X162715839Y-91226471D01*
X162608089Y-91118722D01*
X162527277Y-91091784D01*
X162473402Y-91091784D01*
X162392590Y-91118722D01*
X160614722Y-87385592D02*
X160533910Y-87412529D01*
X160453097Y-87493341D01*
X160399223Y-87601091D01*
X160399223Y-87708841D01*
X160426160Y-87789653D01*
X160506972Y-87924340D01*
X160587784Y-88005152D01*
X160722471Y-88085964D01*
X160803284Y-88112902D01*
X160911033Y-88112902D01*
X161018783Y-88059027D01*
X161072658Y-88005152D01*
X161126532Y-87897402D01*
X161126532Y-87843528D01*
X160937971Y-87654966D01*
X160830221Y-87762715D01*
X161422844Y-87654966D02*
X160857158Y-87089280D01*
X161072658Y-86873781D01*
X161153470Y-86846844D01*
X161207345Y-86846844D01*
X161288157Y-86873781D01*
X161368969Y-86954593D01*
X161395906Y-87035406D01*
X161395906Y-87089280D01*
X161368969Y-87170093D01*
X161153470Y-87385592D01*
X162284841Y-86792969D02*
X161961592Y-87116218D01*
X162123216Y-86954593D02*
X161557531Y-86388908D01*
X161584468Y-86523595D01*
X161584468Y-86631345D01*
X161557531Y-86712157D01*
X161907717Y-86038722D02*
X162284841Y-85661598D01*
X162608089Y-86469720D01*
X160614722Y-84845592D02*
X160533910Y-84872529D01*
X160453097Y-84953341D01*
X160399223Y-85061091D01*
X160399223Y-85168841D01*
X160426160Y-85249653D01*
X160506972Y-85384340D01*
X160587784Y-85465152D01*
X160722471Y-85545964D01*
X160803284Y-85572902D01*
X160911033Y-85572902D01*
X161018783Y-85519027D01*
X161072658Y-85465152D01*
X161126532Y-85357402D01*
X161126532Y-85303528D01*
X160937971Y-85114966D01*
X160830221Y-85222715D01*
X161422844Y-85114966D02*
X160857158Y-84549280D01*
X161072658Y-84333781D01*
X161153470Y-84306844D01*
X161207345Y-84306844D01*
X161288157Y-84333781D01*
X161368969Y-84414593D01*
X161395906Y-84495406D01*
X161395906Y-84549280D01*
X161368969Y-84630093D01*
X161153470Y-84845592D01*
X162284841Y-84252969D02*
X161961592Y-84576218D01*
X162123216Y-84414593D02*
X161557531Y-83848908D01*
X161584468Y-83983595D01*
X161584468Y-84091345D01*
X161557531Y-84172157D01*
X162204028Y-83202410D02*
X162096279Y-83310160D01*
X162069341Y-83390972D01*
X162069341Y-83444847D01*
X162096279Y-83579534D01*
X162177091Y-83714221D01*
X162392590Y-83929720D01*
X162473402Y-83956658D01*
X162527277Y-83956658D01*
X162608089Y-83929720D01*
X162715839Y-83821971D01*
X162742776Y-83741158D01*
X162742776Y-83687284D01*
X162715839Y-83606471D01*
X162581152Y-83471784D01*
X162500340Y-83444847D01*
X162446465Y-83444847D01*
X162365653Y-83471784D01*
X162257903Y-83579534D01*
X162230966Y-83660346D01*
X162230966Y-83714221D01*
X162257903Y-83795033D01*
X186722722Y-84845592D02*
X186641910Y-84872529D01*
X186561097Y-84953341D01*
X186507223Y-85061091D01*
X186507223Y-85168841D01*
X186534160Y-85249653D01*
X186614972Y-85384340D01*
X186695784Y-85465152D01*
X186830471Y-85545964D01*
X186911284Y-85572902D01*
X187019033Y-85572902D01*
X187126783Y-85519027D01*
X187180658Y-85465152D01*
X187234532Y-85357402D01*
X187234532Y-85303528D01*
X187045971Y-85114966D01*
X186938221Y-85222715D01*
X187530844Y-85114966D02*
X186965158Y-84549280D01*
X187180658Y-84333781D01*
X187261470Y-84306844D01*
X187315345Y-84306844D01*
X187396157Y-84333781D01*
X187476969Y-84414593D01*
X187503906Y-84495406D01*
X187503906Y-84549280D01*
X187476969Y-84630093D01*
X187261470Y-84845592D01*
X188392841Y-84252969D02*
X188069592Y-84576218D01*
X188231216Y-84414593D02*
X187665531Y-83848908D01*
X187692468Y-83983595D01*
X187692468Y-84091345D01*
X187665531Y-84172157D01*
X188338966Y-83175473D02*
X188069592Y-83444847D01*
X188312028Y-83741158D01*
X188312028Y-83687284D01*
X188338966Y-83606471D01*
X188473653Y-83471784D01*
X188554465Y-83444847D01*
X188608340Y-83444847D01*
X188689152Y-83471784D01*
X188823839Y-83606471D01*
X188850776Y-83687284D01*
X188850776Y-83741158D01*
X188823839Y-83821971D01*
X188689152Y-83956658D01*
X188608340Y-83983595D01*
X188554465Y-83983595D01*
X186768722Y-87385592D02*
X186687910Y-87412529D01*
X186607097Y-87493341D01*
X186553223Y-87601091D01*
X186553223Y-87708841D01*
X186580160Y-87789653D01*
X186660972Y-87924340D01*
X186741784Y-88005152D01*
X186876471Y-88085964D01*
X186957284Y-88112902D01*
X187065033Y-88112902D01*
X187172783Y-88059027D01*
X187226658Y-88005152D01*
X187280532Y-87897402D01*
X187280532Y-87843528D01*
X187091971Y-87654966D01*
X186984221Y-87762715D01*
X187576844Y-87654966D02*
X187011158Y-87089280D01*
X187226658Y-86873781D01*
X187307470Y-86846844D01*
X187361345Y-86846844D01*
X187442157Y-86873781D01*
X187522969Y-86954593D01*
X187549906Y-87035406D01*
X187549906Y-87089280D01*
X187522969Y-87170093D01*
X187307470Y-87385592D01*
X188438841Y-86792969D02*
X188115592Y-87116218D01*
X188277216Y-86954593D02*
X187711531Y-86388908D01*
X187738468Y-86523595D01*
X187738468Y-86631345D01*
X187711531Y-86712157D01*
X188546590Y-85930972D02*
X188923714Y-86308096D01*
X188196404Y-85850160D02*
X188465778Y-86388908D01*
X188815964Y-86038722D01*
X186722722Y-92465592D02*
X186641910Y-92492529D01*
X186561097Y-92573341D01*
X186507223Y-92681091D01*
X186507223Y-92788841D01*
X186534160Y-92869653D01*
X186614972Y-93004340D01*
X186695784Y-93085152D01*
X186830471Y-93165964D01*
X186911284Y-93192902D01*
X187019033Y-93192902D01*
X187126783Y-93139027D01*
X187180658Y-93085152D01*
X187234532Y-92977402D01*
X187234532Y-92923528D01*
X187045971Y-92734966D01*
X186938221Y-92842715D01*
X187530844Y-92734966D02*
X186965158Y-92169280D01*
X187180658Y-91953781D01*
X187261470Y-91926844D01*
X187315345Y-91926844D01*
X187396157Y-91953781D01*
X187476969Y-92034593D01*
X187503906Y-92115406D01*
X187503906Y-92169280D01*
X187476969Y-92250093D01*
X187261470Y-92465592D01*
X188392841Y-91872969D02*
X188069592Y-92196218D01*
X188231216Y-92034593D02*
X187665531Y-91468908D01*
X187692468Y-91603595D01*
X187692468Y-91711345D01*
X187665531Y-91792157D01*
X188015717Y-91118722D02*
X188365903Y-90768536D01*
X188392841Y-91172597D01*
X188473653Y-91091784D01*
X188554465Y-91064847D01*
X188608340Y-91064847D01*
X188689152Y-91091784D01*
X188823839Y-91226471D01*
X188850776Y-91307284D01*
X188850776Y-91361158D01*
X188823839Y-91441971D01*
X188662215Y-91603595D01*
X188581402Y-91630532D01*
X188527528Y-91630532D01*
X186868722Y-95005592D02*
X186787910Y-95032529D01*
X186707097Y-95113341D01*
X186653223Y-95221091D01*
X186653223Y-95328841D01*
X186680160Y-95409653D01*
X186760972Y-95544340D01*
X186841784Y-95625152D01*
X186976471Y-95705964D01*
X187057284Y-95732902D01*
X187165033Y-95732902D01*
X187272783Y-95679027D01*
X187326658Y-95625152D01*
X187380532Y-95517402D01*
X187380532Y-95463528D01*
X187191971Y-95274966D01*
X187084221Y-95382715D01*
X187676844Y-95274966D02*
X187111158Y-94709280D01*
X187326658Y-94493781D01*
X187407470Y-94466844D01*
X187461345Y-94466844D01*
X187542157Y-94493781D01*
X187622969Y-94574593D01*
X187649906Y-94655406D01*
X187649906Y-94709280D01*
X187622969Y-94790093D01*
X187407470Y-95005592D01*
X188538841Y-94412969D02*
X188215592Y-94736218D01*
X188377216Y-94574593D02*
X187811531Y-94008908D01*
X187838468Y-94143595D01*
X187838468Y-94251345D01*
X187811531Y-94332157D01*
X188242529Y-93685659D02*
X188242529Y-93631784D01*
X188269467Y-93550972D01*
X188404154Y-93416285D01*
X188484966Y-93389348D01*
X188538841Y-93389348D01*
X188619653Y-93416285D01*
X188673528Y-93470160D01*
X188727402Y-93577910D01*
X188727402Y-94224407D01*
X189077589Y-93874221D01*
X186868722Y-97545592D02*
X186787910Y-97572529D01*
X186707097Y-97653341D01*
X186653223Y-97761091D01*
X186653223Y-97868841D01*
X186680160Y-97949653D01*
X186760972Y-98084340D01*
X186841784Y-98165152D01*
X186976471Y-98245964D01*
X187057284Y-98272902D01*
X187165033Y-98272902D01*
X187272783Y-98219027D01*
X187326658Y-98165152D01*
X187380532Y-98057402D01*
X187380532Y-98003528D01*
X187191971Y-97814966D01*
X187084221Y-97922715D01*
X187676844Y-97814966D02*
X187111158Y-97249280D01*
X187326658Y-97033781D01*
X187407470Y-97006844D01*
X187461345Y-97006844D01*
X187542157Y-97033781D01*
X187622969Y-97114593D01*
X187649906Y-97195406D01*
X187649906Y-97249280D01*
X187622969Y-97330093D01*
X187407470Y-97545592D01*
X188538841Y-96952969D02*
X188215592Y-97276218D01*
X188377216Y-97114593D02*
X187811531Y-96548908D01*
X187838468Y-96683595D01*
X187838468Y-96791345D01*
X187811531Y-96872157D01*
X189077589Y-96414221D02*
X188754340Y-96737470D01*
X188915964Y-96575845D02*
X188350279Y-96010160D01*
X188377216Y-96144847D01*
X188377216Y-96252597D01*
X188350279Y-96333409D01*
X186722722Y-100085592D02*
X186641910Y-100112529D01*
X186561097Y-100193341D01*
X186507223Y-100301091D01*
X186507223Y-100408841D01*
X186534160Y-100489653D01*
X186614972Y-100624340D01*
X186695784Y-100705152D01*
X186830471Y-100785964D01*
X186911284Y-100812902D01*
X187019033Y-100812902D01*
X187126783Y-100759027D01*
X187180658Y-100705152D01*
X187234532Y-100597402D01*
X187234532Y-100543528D01*
X187045971Y-100354966D01*
X186938221Y-100462715D01*
X187530844Y-100354966D02*
X186965158Y-99789280D01*
X187180658Y-99573781D01*
X187261470Y-99546844D01*
X187315345Y-99546844D01*
X187396157Y-99573781D01*
X187476969Y-99654593D01*
X187503906Y-99735406D01*
X187503906Y-99789280D01*
X187476969Y-99870093D01*
X187261470Y-100085592D01*
X188392841Y-99492969D02*
X188069592Y-99816218D01*
X188231216Y-99654593D02*
X187665531Y-99088908D01*
X187692468Y-99223595D01*
X187692468Y-99331345D01*
X187665531Y-99412157D01*
X188177341Y-98577097D02*
X188231216Y-98523223D01*
X188312028Y-98496285D01*
X188365903Y-98496285D01*
X188446715Y-98523223D01*
X188581402Y-98604035D01*
X188716089Y-98738722D01*
X188796902Y-98873409D01*
X188823839Y-98954221D01*
X188823839Y-99008096D01*
X188796902Y-99088908D01*
X188743027Y-99142783D01*
X188662215Y-99169720D01*
X188608340Y-99169720D01*
X188527528Y-99142783D01*
X188392841Y-99061971D01*
X188258154Y-98927284D01*
X188177341Y-98792597D01*
X188150404Y-98711784D01*
X188150404Y-98657910D01*
X188177341Y-98577097D01*
X186738096Y-104896218D02*
X186657284Y-104923155D01*
X186576471Y-105003967D01*
X186522597Y-105111717D01*
X186522597Y-105219467D01*
X186549534Y-105300279D01*
X186630346Y-105434966D01*
X186711158Y-105515778D01*
X186845845Y-105596590D01*
X186926658Y-105623528D01*
X187034407Y-105623528D01*
X187142157Y-105569653D01*
X187196032Y-105515778D01*
X187249906Y-105408028D01*
X187249906Y-105354154D01*
X187061345Y-105165592D01*
X186953595Y-105273341D01*
X187546218Y-105165592D02*
X186980532Y-104599906D01*
X187196032Y-104384407D01*
X187276844Y-104357470D01*
X187330719Y-104357470D01*
X187411531Y-104384407D01*
X187492343Y-104465219D01*
X187519280Y-104546032D01*
X187519280Y-104599906D01*
X187492343Y-104680719D01*
X187276844Y-104896218D01*
X188138841Y-104572969D02*
X188246590Y-104465219D01*
X188273528Y-104384407D01*
X188273528Y-104330532D01*
X188246590Y-104195845D01*
X188165778Y-104061158D01*
X187950279Y-103845659D01*
X187869467Y-103818722D01*
X187815592Y-103818722D01*
X187734780Y-103845659D01*
X187627030Y-103953409D01*
X187600093Y-104034221D01*
X187600093Y-104088096D01*
X187627030Y-104168908D01*
X187761717Y-104303595D01*
X187842529Y-104330532D01*
X187896404Y-104330532D01*
X187977216Y-104303595D01*
X188084966Y-104195845D01*
X188111903Y-104115033D01*
X188111903Y-104061158D01*
X188084966Y-103980346D01*
X186738096Y-107436218D02*
X186657284Y-107463155D01*
X186576471Y-107543967D01*
X186522597Y-107651717D01*
X186522597Y-107759467D01*
X186549534Y-107840279D01*
X186630346Y-107974966D01*
X186711158Y-108055778D01*
X186845845Y-108136590D01*
X186926658Y-108163528D01*
X187034407Y-108163528D01*
X187142157Y-108109653D01*
X187196032Y-108055778D01*
X187249906Y-107948028D01*
X187249906Y-107894154D01*
X187061345Y-107705592D01*
X186953595Y-107813341D01*
X187546218Y-107705592D02*
X186980532Y-107139906D01*
X187196032Y-106924407D01*
X187276844Y-106897470D01*
X187330719Y-106897470D01*
X187411531Y-106924407D01*
X187492343Y-107005219D01*
X187519280Y-107086032D01*
X187519280Y-107139906D01*
X187492343Y-107220719D01*
X187276844Y-107436218D01*
X187869467Y-106735845D02*
X187788654Y-106762783D01*
X187734780Y-106762783D01*
X187653967Y-106735845D01*
X187627030Y-106708908D01*
X187600093Y-106628096D01*
X187600093Y-106574221D01*
X187627030Y-106493409D01*
X187734780Y-106385659D01*
X187815592Y-106358722D01*
X187869467Y-106358722D01*
X187950279Y-106385659D01*
X187977216Y-106412597D01*
X188004154Y-106493409D01*
X188004154Y-106547284D01*
X187977216Y-106628096D01*
X187869467Y-106735845D01*
X187842529Y-106816658D01*
X187842529Y-106870532D01*
X187869467Y-106951345D01*
X187977216Y-107059094D01*
X188058028Y-107086032D01*
X188111903Y-107086032D01*
X188192715Y-107059094D01*
X188300465Y-106951345D01*
X188327402Y-106870532D01*
X188327402Y-106816658D01*
X188300465Y-106735845D01*
X188192715Y-106628096D01*
X188111903Y-106601158D01*
X188058028Y-106601158D01*
X187977216Y-106628096D01*
X186638096Y-110006218D02*
X186557284Y-110033155D01*
X186476471Y-110113967D01*
X186422597Y-110221717D01*
X186422597Y-110329467D01*
X186449534Y-110410279D01*
X186530346Y-110544966D01*
X186611158Y-110625778D01*
X186745845Y-110706590D01*
X186826658Y-110733528D01*
X186934407Y-110733528D01*
X187042157Y-110679653D01*
X187096032Y-110625778D01*
X187149906Y-110518028D01*
X187149906Y-110464154D01*
X186961345Y-110275592D01*
X186853595Y-110383341D01*
X187446218Y-110275592D02*
X186880532Y-109709906D01*
X187096032Y-109494407D01*
X187176844Y-109467470D01*
X187230719Y-109467470D01*
X187311531Y-109494407D01*
X187392343Y-109575219D01*
X187419280Y-109656032D01*
X187419280Y-109709906D01*
X187392343Y-109790719D01*
X187176844Y-110006218D01*
X187392343Y-109198096D02*
X187769467Y-108820972D01*
X188092715Y-109629094D01*
X186738096Y-112516218D02*
X186657284Y-112543155D01*
X186576471Y-112623967D01*
X186522597Y-112731717D01*
X186522597Y-112839467D01*
X186549534Y-112920279D01*
X186630346Y-113054966D01*
X186711158Y-113135778D01*
X186845845Y-113216590D01*
X186926658Y-113243528D01*
X187034407Y-113243528D01*
X187142157Y-113189653D01*
X187196032Y-113135778D01*
X187249906Y-113028028D01*
X187249906Y-112974154D01*
X187061345Y-112785592D01*
X186953595Y-112893341D01*
X187546218Y-112785592D02*
X186980532Y-112219906D01*
X187196032Y-112004407D01*
X187276844Y-111977470D01*
X187330719Y-111977470D01*
X187411531Y-112004407D01*
X187492343Y-112085219D01*
X187519280Y-112166032D01*
X187519280Y-112219906D01*
X187492343Y-112300719D01*
X187276844Y-112516218D01*
X187788654Y-111411784D02*
X187680905Y-111519534D01*
X187653967Y-111600346D01*
X187653967Y-111654221D01*
X187680905Y-111788908D01*
X187761717Y-111923595D01*
X187977216Y-112139094D01*
X188058028Y-112166032D01*
X188111903Y-112166032D01*
X188192715Y-112139094D01*
X188300465Y-112031345D01*
X188327402Y-111950532D01*
X188327402Y-111896658D01*
X188300465Y-111815845D01*
X188165778Y-111681158D01*
X188084966Y-111654221D01*
X188031091Y-111654221D01*
X187950279Y-111681158D01*
X187842529Y-111788908D01*
X187815592Y-111869720D01*
X187815592Y-111923595D01*
X187842529Y-112004407D01*
X186738096Y-117596218D02*
X186657284Y-117623155D01*
X186576471Y-117703967D01*
X186522597Y-117811717D01*
X186522597Y-117919467D01*
X186549534Y-118000279D01*
X186630346Y-118134966D01*
X186711158Y-118215778D01*
X186845845Y-118296590D01*
X186926658Y-118323528D01*
X187034407Y-118323528D01*
X187142157Y-118269653D01*
X187196032Y-118215778D01*
X187249906Y-118108028D01*
X187249906Y-118054154D01*
X187061345Y-117865592D01*
X186953595Y-117973341D01*
X187546218Y-117865592D02*
X186980532Y-117299906D01*
X187196032Y-117084407D01*
X187276844Y-117057470D01*
X187330719Y-117057470D01*
X187411531Y-117084407D01*
X187492343Y-117165219D01*
X187519280Y-117246032D01*
X187519280Y-117299906D01*
X187492343Y-117380719D01*
X187276844Y-117596218D01*
X187815592Y-116464847D02*
X187546218Y-116734221D01*
X187788654Y-117030532D01*
X187788654Y-116976658D01*
X187815592Y-116895845D01*
X187950279Y-116761158D01*
X188031091Y-116734221D01*
X188084966Y-116734221D01*
X188165778Y-116761158D01*
X188300465Y-116895845D01*
X188327402Y-116976658D01*
X188327402Y-117030532D01*
X188300465Y-117111345D01*
X188165778Y-117246032D01*
X188084966Y-117272969D01*
X188031091Y-117272969D01*
X186738096Y-120136218D02*
X186657284Y-120163155D01*
X186576471Y-120243967D01*
X186522597Y-120351717D01*
X186522597Y-120459467D01*
X186549534Y-120540279D01*
X186630346Y-120674966D01*
X186711158Y-120755778D01*
X186845845Y-120836590D01*
X186926658Y-120863528D01*
X187034407Y-120863528D01*
X187142157Y-120809653D01*
X187196032Y-120755778D01*
X187249906Y-120648028D01*
X187249906Y-120594154D01*
X187061345Y-120405592D01*
X186953595Y-120513341D01*
X187546218Y-120405592D02*
X186980532Y-119839906D01*
X187196032Y-119624407D01*
X187276844Y-119597470D01*
X187330719Y-119597470D01*
X187411531Y-119624407D01*
X187492343Y-119705219D01*
X187519280Y-119786032D01*
X187519280Y-119839906D01*
X187492343Y-119920719D01*
X187276844Y-120136218D01*
X187977216Y-119220346D02*
X188354340Y-119597470D01*
X187627030Y-119139534D02*
X187896404Y-119678282D01*
X188246590Y-119328096D01*
X186738096Y-122676218D02*
X186657284Y-122703155D01*
X186576471Y-122783967D01*
X186522597Y-122891717D01*
X186522597Y-122999467D01*
X186549534Y-123080279D01*
X186630346Y-123214966D01*
X186711158Y-123295778D01*
X186845845Y-123376590D01*
X186926658Y-123403528D01*
X187034407Y-123403528D01*
X187142157Y-123349653D01*
X187196032Y-123295778D01*
X187249906Y-123188028D01*
X187249906Y-123134154D01*
X187061345Y-122945592D01*
X186953595Y-123053341D01*
X187546218Y-122945592D02*
X186980532Y-122379906D01*
X187196032Y-122164407D01*
X187276844Y-122137470D01*
X187330719Y-122137470D01*
X187411531Y-122164407D01*
X187492343Y-122245219D01*
X187519280Y-122326032D01*
X187519280Y-122379906D01*
X187492343Y-122460719D01*
X187276844Y-122676218D01*
X187492343Y-121868096D02*
X187842529Y-121517910D01*
X187869467Y-121921971D01*
X187950279Y-121841158D01*
X188031091Y-121814221D01*
X188084966Y-121814221D01*
X188165778Y-121841158D01*
X188300465Y-121975845D01*
X188327402Y-122056658D01*
X188327402Y-122110532D01*
X188300465Y-122191345D01*
X188138841Y-122352969D01*
X188058028Y-122379906D01*
X188004154Y-122379906D01*
X186738096Y-132836218D02*
X186657284Y-132863155D01*
X186576471Y-132943967D01*
X186522597Y-133051717D01*
X186522597Y-133159467D01*
X186549534Y-133240279D01*
X186630346Y-133374966D01*
X186711158Y-133455778D01*
X186845845Y-133536590D01*
X186926658Y-133563528D01*
X187034407Y-133563528D01*
X187142157Y-133509653D01*
X187196032Y-133455778D01*
X187249906Y-133348028D01*
X187249906Y-133294154D01*
X187061345Y-133105592D01*
X186953595Y-133213341D01*
X187546218Y-133105592D02*
X186980532Y-132539906D01*
X187196032Y-132324407D01*
X187276844Y-132297470D01*
X187330719Y-132297470D01*
X187411531Y-132324407D01*
X187492343Y-132405219D01*
X187519280Y-132486032D01*
X187519280Y-132539906D01*
X187492343Y-132620719D01*
X187276844Y-132836218D01*
X187653967Y-131866471D02*
X187707842Y-131812597D01*
X187788654Y-131785659D01*
X187842529Y-131785659D01*
X187923341Y-131812597D01*
X188058028Y-131893409D01*
X188192715Y-132028096D01*
X188273528Y-132162783D01*
X188300465Y-132243595D01*
X188300465Y-132297470D01*
X188273528Y-132378282D01*
X188219653Y-132432157D01*
X188138841Y-132459094D01*
X188084966Y-132459094D01*
X188004154Y-132432157D01*
X187869467Y-132351345D01*
X187734780Y-132216658D01*
X187653967Y-132081971D01*
X187627030Y-132001158D01*
X187627030Y-131947284D01*
X187653967Y-131866471D01*
X186838096Y-125216218D02*
X186757284Y-125243155D01*
X186676471Y-125323967D01*
X186622597Y-125431717D01*
X186622597Y-125539467D01*
X186649534Y-125620279D01*
X186730346Y-125754966D01*
X186811158Y-125835778D01*
X186945845Y-125916590D01*
X187026658Y-125943528D01*
X187134407Y-125943528D01*
X187242157Y-125889653D01*
X187296032Y-125835778D01*
X187349906Y-125728028D01*
X187349906Y-125674154D01*
X187161345Y-125485592D01*
X187053595Y-125593341D01*
X187646218Y-125485592D02*
X187080532Y-124919906D01*
X187296032Y-124704407D01*
X187376844Y-124677470D01*
X187430719Y-124677470D01*
X187511531Y-124704407D01*
X187592343Y-124785219D01*
X187619280Y-124866032D01*
X187619280Y-124919906D01*
X187592343Y-125000719D01*
X187376844Y-125216218D01*
X187673155Y-124435033D02*
X187673155Y-124381158D01*
X187700093Y-124300346D01*
X187834780Y-124165659D01*
X187915592Y-124138722D01*
X187969467Y-124138722D01*
X188050279Y-124165659D01*
X188104154Y-124219534D01*
X188158028Y-124327284D01*
X188158028Y-124973781D01*
X188508215Y-124623595D01*
X186838096Y-130306218D02*
X186757284Y-130333155D01*
X186676471Y-130413967D01*
X186622597Y-130521717D01*
X186622597Y-130629467D01*
X186649534Y-130710279D01*
X186730346Y-130844966D01*
X186811158Y-130925778D01*
X186945845Y-131006590D01*
X187026658Y-131033528D01*
X187134407Y-131033528D01*
X187242157Y-130979653D01*
X187296032Y-130925778D01*
X187349906Y-130818028D01*
X187349906Y-130764154D01*
X187161345Y-130575592D01*
X187053595Y-130683341D01*
X187646218Y-130575592D02*
X187080532Y-130009906D01*
X187296032Y-129794407D01*
X187376844Y-129767470D01*
X187430719Y-129767470D01*
X187511531Y-129794407D01*
X187592343Y-129875219D01*
X187619280Y-129956032D01*
X187619280Y-130009906D01*
X187592343Y-130090719D01*
X187376844Y-130306218D01*
X188508215Y-129713595D02*
X188184966Y-130036844D01*
X188346590Y-129875219D02*
X187780905Y-129309534D01*
X187807842Y-129444221D01*
X187807842Y-129551971D01*
X187780905Y-129632783D01*
%TO.C,VR1*%
X132629943Y-127166587D02*
X134270045Y-126619886D01*
X132629943Y-126073186D01*
X134270045Y-124589284D02*
X133489044Y-125135985D01*
X134270045Y-125526485D02*
X132629943Y-125526485D01*
X132629943Y-124901684D01*
X132708044Y-124745484D01*
X132786144Y-124667384D01*
X132942344Y-124589284D01*
X133176644Y-124589284D01*
X133332844Y-124667384D01*
X133410944Y-124745484D01*
X133489044Y-124901684D01*
X133489044Y-125526485D01*
X134270045Y-123027282D02*
X134270045Y-123964483D01*
X134270045Y-123495883D02*
X132629943Y-123495883D01*
X132864244Y-123652083D01*
X133020444Y-123808283D01*
X133098544Y-123964483D01*
%TO.C,C2*%
X145077142Y-119526666D02*
X145124761Y-119574285D01*
X145172380Y-119717142D01*
X145172380Y-119812380D01*
X145124761Y-119955238D01*
X145029523Y-120050476D01*
X144934285Y-120098095D01*
X144743809Y-120145714D01*
X144600952Y-120145714D01*
X144410476Y-120098095D01*
X144315238Y-120050476D01*
X144220000Y-119955238D01*
X144172380Y-119812380D01*
X144172380Y-119717142D01*
X144220000Y-119574285D01*
X144267619Y-119526666D01*
X144267619Y-119145714D02*
X144220000Y-119098095D01*
X144172380Y-119002857D01*
X144172380Y-118764761D01*
X144220000Y-118669523D01*
X144267619Y-118621904D01*
X144362857Y-118574285D01*
X144458095Y-118574285D01*
X144600952Y-118621904D01*
X145172380Y-119193333D01*
X145172380Y-118574285D01*
%TO.C,C1*%
X145077142Y-128416666D02*
X145124761Y-128464285D01*
X145172380Y-128607142D01*
X145172380Y-128702380D01*
X145124761Y-128845238D01*
X145029523Y-128940476D01*
X144934285Y-128988095D01*
X144743809Y-129035714D01*
X144600952Y-129035714D01*
X144410476Y-128988095D01*
X144315238Y-128940476D01*
X144220000Y-128845238D01*
X144172380Y-128702380D01*
X144172380Y-128607142D01*
X144220000Y-128464285D01*
X144267619Y-128416666D01*
X145172380Y-127464285D02*
X145172380Y-128035714D01*
X145172380Y-127750000D02*
X144172380Y-127750000D01*
X144315238Y-127845238D01*
X144410476Y-127940476D01*
X144458095Y-128035714D01*
%TO.C,U3*%
X235032380Y-88941904D02*
X235841904Y-88941904D01*
X235937142Y-88894285D01*
X235984761Y-88846666D01*
X236032380Y-88751428D01*
X236032380Y-88560952D01*
X235984761Y-88465714D01*
X235937142Y-88418095D01*
X235841904Y-88370476D01*
X235032380Y-88370476D01*
X235032380Y-87989523D02*
X235032380Y-87370476D01*
X235413333Y-87703809D01*
X235413333Y-87560952D01*
X235460952Y-87465714D01*
X235508571Y-87418095D01*
X235603809Y-87370476D01*
X235841904Y-87370476D01*
X235937142Y-87418095D01*
X235984761Y-87465714D01*
X236032380Y-87560952D01*
X236032380Y-87846666D01*
X235984761Y-87941904D01*
X235937142Y-87989523D01*
%TO.C,U1*%
X135337380Y-91481904D02*
X136146904Y-91481904D01*
X136242142Y-91434285D01*
X136289761Y-91386666D01*
X136337380Y-91291428D01*
X136337380Y-91100952D01*
X136289761Y-91005714D01*
X136242142Y-90958095D01*
X136146904Y-90910476D01*
X135337380Y-90910476D01*
X136337380Y-89910476D02*
X136337380Y-90481904D01*
X136337380Y-90196190D02*
X135337380Y-90196190D01*
X135480238Y-90291428D01*
X135575476Y-90386666D01*
X135623095Y-90481904D01*
%TO.C,J1*%
X167937380Y-74628333D02*
X168651666Y-74628333D01*
X168794523Y-74675952D01*
X168889761Y-74771190D01*
X168937380Y-74914047D01*
X168937380Y-75009285D01*
X168937380Y-73628333D02*
X168937380Y-74199761D01*
X168937380Y-73914047D02*
X167937380Y-73914047D01*
X168080238Y-74009285D01*
X168175476Y-74104523D01*
X168223095Y-74199761D01*
%TD*%
M02*
