%FSLAX45Y45*%
G04 Gerber Fmt 4.5, Leading zero omitted, Abs format (unit mm)*
G04 Created by KiCad (PCBNEW (5.1.10-1-10_14)) date 2021-10-16 18:12:27*
%MOMM*%
%LPD*%
G01*
G04 APERTURE LIST*
%TA.AperFunction,Profile*%
%ADD10C,0.050000*%
%TD*%
%ADD11C,0.200000*%
%ADD12C,0.300000*%
G04 APERTURE END LIST*
D10*
X23431500Y-5080000D02*
G75*
G02*
X24257000Y-5905500I0J-825500D01*
G01*
X9969500Y-5905500D02*
G75*
G02*
X10795000Y-5080000I825500J0D01*
G01*
X10795000Y-13843000D02*
G75*
G02*
X9969500Y-13017500I0J825500D01*
G01*
X24257000Y-13017500D02*
G75*
G02*
X23431500Y-13843000I-825500J0D01*
G01*
X9969500Y-13017500D02*
X9969500Y-5905500D01*
X23431500Y-13843000D02*
X10795000Y-13843000D01*
X24257000Y-5905500D02*
X24257000Y-13017500D01*
X10795000Y-5080000D02*
X23431500Y-5080000D01*
D11*
X14712000Y-9886000D02*
X14752000Y-9926000D01*
X14752000Y-9886000D02*
X14712000Y-9926000D01*
X14713270Y-11792270D02*
X14753270Y-11832270D01*
X14753270Y-11792270D02*
X14713270Y-11832270D01*
X18776000Y-7473000D02*
X18816000Y-7513000D01*
X18816000Y-7473000D02*
X18776000Y-7513000D01*
X18966501Y-7561901D02*
X19006501Y-7601901D01*
X19006501Y-7561901D02*
X18966501Y-7601901D01*
X18966501Y-7854000D02*
X19006501Y-7894000D01*
X19006501Y-7854000D02*
X18966501Y-7894000D01*
X21443000Y-6901500D02*
X21483000Y-6941500D01*
X21483000Y-6901500D02*
X21443000Y-6941500D01*
X14576500Y-7874000D02*
G75*
G03*
X14576500Y-7874000I-35000J0D01*
G01*
X15338500Y-7874000D02*
G75*
G03*
X15338500Y-7874000I-35000J0D01*
G01*
X19656500Y-7937500D02*
G75*
G03*
X19656500Y-7937500I-35000J0D01*
G01*
X20418500Y-7937500D02*
G75*
G03*
X20418500Y-7937500I-35000J0D01*
G01*
X14097000Y-11771000D02*
X14097000Y-11851000D01*
X14057000Y-11811000D02*
X14137000Y-11811000D01*
X14097000Y-12021000D02*
X14097000Y-12101000D01*
X14057000Y-12061000D02*
X14137000Y-12061000D01*
X14097000Y-12660000D02*
X14097000Y-12740000D01*
X14057000Y-12700000D02*
X14137000Y-12700000D01*
X14097000Y-12910000D02*
X14097000Y-12990000D01*
X14057000Y-12950000D02*
X14137000Y-12950000D01*
X11080431Y-9111931D02*
X11080431Y-9049069D01*
X11017569Y-9049069D01*
X11017569Y-9111931D01*
X11080431Y-9111931D01*
X11080431Y-9365931D02*
X11080431Y-9303069D01*
X11017569Y-9303069D01*
X11017569Y-9365931D01*
X11080431Y-9365931D01*
X11080431Y-9619931D02*
X11080431Y-9557069D01*
X11017569Y-9557069D01*
X11017569Y-9619931D01*
X11080431Y-9619931D01*
X11842431Y-8349931D02*
X11842431Y-8287069D01*
X11779569Y-8287069D01*
X11779569Y-8349931D01*
X11842431Y-8349931D01*
X12096431Y-8349931D02*
X12096431Y-8287069D01*
X12033569Y-8287069D01*
X12033569Y-8349931D01*
X12096431Y-8349931D01*
X12350431Y-8349931D02*
X12350431Y-8287069D01*
X12287569Y-8287069D01*
X12287569Y-8349931D01*
X12350431Y-8349931D01*
X21049931Y-8857931D02*
X21049931Y-8795069D01*
X20987069Y-8795069D01*
X20987069Y-8857931D01*
X21049931Y-8857931D01*
X21049931Y-9111931D02*
X21049931Y-9049069D01*
X20987069Y-9049069D01*
X20987069Y-9111931D01*
X21049931Y-9111931D01*
X21049931Y-9365931D02*
X21049931Y-9303069D01*
X20987069Y-9303069D01*
X20987069Y-9365931D01*
X21049931Y-9365931D01*
X21811931Y-8095931D02*
X21811931Y-8033069D01*
X21749069Y-8033069D01*
X21749069Y-8095931D01*
X21811931Y-8095931D01*
X22065931Y-8095931D02*
X22065931Y-8033069D01*
X22003069Y-8033069D01*
X22003069Y-8095931D01*
X22065931Y-8095931D01*
X22319931Y-8095931D02*
X22319931Y-8033069D01*
X22257069Y-8033069D01*
X22257069Y-8095931D01*
X22319931Y-8095931D01*
X12827000Y-9062000D02*
X12872000Y-9017000D01*
X12827000Y-8972000D01*
X12782000Y-9017000D01*
X12827000Y-9062000D01*
X12827000Y-9697000D02*
X12872000Y-9652000D01*
X12827000Y-9607000D01*
X12782000Y-9652000D01*
X12827000Y-9697000D01*
X13335000Y-9062000D02*
X13380000Y-9017000D01*
X13335000Y-8972000D01*
X13290000Y-9017000D01*
X13335000Y-9062000D01*
X13335000Y-9697000D02*
X13380000Y-9652000D01*
X13335000Y-9607000D01*
X13290000Y-9652000D01*
X13335000Y-9697000D01*
X14859000Y-5633000D02*
X14904000Y-5588000D01*
X14859000Y-5543000D01*
X14814000Y-5588000D01*
X14859000Y-5633000D01*
X15113000Y-5633000D02*
X15158000Y-5588000D01*
X15113000Y-5543000D01*
X15068000Y-5588000D01*
X15113000Y-5633000D01*
X19939000Y-5633000D02*
X19984000Y-5588000D01*
X19939000Y-5543000D01*
X19894000Y-5588000D01*
X19939000Y-5633000D01*
X20193000Y-5633000D02*
X20238000Y-5588000D01*
X20193000Y-5543000D01*
X20148000Y-5588000D01*
X20193000Y-5633000D01*
X22796500Y-8808000D02*
X22841500Y-8763000D01*
X22796500Y-8718000D01*
X22751500Y-8763000D01*
X22796500Y-8808000D01*
X22796500Y-9443000D02*
X22841500Y-9398000D01*
X22796500Y-9353000D01*
X22751500Y-9398000D01*
X22796500Y-9443000D01*
X23304500Y-8808000D02*
X23349500Y-8763000D01*
X23304500Y-8718000D01*
X23259500Y-8763000D01*
X23304500Y-8808000D01*
X23304500Y-9443000D02*
X23349500Y-9398000D01*
X23304500Y-9353000D01*
X23259500Y-9398000D01*
X23304500Y-9443000D01*
X21669840Y-6503880D02*
X21761840Y-6595880D01*
X21761840Y-6503880D02*
X21669840Y-6595880D01*
X21761840Y-6549880D02*
G75*
G03*
X21761840Y-6549880I-46000J0D01*
G01*
X21919840Y-6503880D02*
X22011840Y-6595880D01*
X22011840Y-6503880D02*
X21919840Y-6595880D01*
X22011840Y-6549880D02*
G75*
G03*
X22011840Y-6549880I-46000J0D01*
G01*
X22119840Y-6503880D02*
X22211840Y-6595880D01*
X22211840Y-6503880D02*
X22119840Y-6595880D01*
X22211840Y-6549880D02*
G75*
G03*
X22211840Y-6549880I-46000J0D01*
G01*
X22369840Y-6503880D02*
X22461840Y-6595880D01*
X22461840Y-6503880D02*
X22369840Y-6595880D01*
X22461840Y-6549880D02*
G75*
G03*
X22461840Y-6549880I-46000J0D01*
G01*
X17031500Y-7252500D02*
X17131500Y-7352500D01*
X17131500Y-7252500D02*
X17031500Y-7352500D01*
X17081500Y-7252500D02*
X17081500Y-7352500D01*
X17031500Y-7302500D02*
X17131500Y-7302500D01*
X17031500Y-7506500D02*
X17131500Y-7606500D01*
X17131500Y-7506500D02*
X17031500Y-7606500D01*
X17081500Y-7506500D02*
X17081500Y-7606500D01*
X17031500Y-7556500D02*
X17131500Y-7556500D01*
X17285500Y-7252500D02*
X17385500Y-7352500D01*
X17385500Y-7252500D02*
X17285500Y-7352500D01*
X17335500Y-7252500D02*
X17335500Y-7352500D01*
X17285500Y-7302500D02*
X17385500Y-7302500D01*
X17285500Y-7506500D02*
X17385500Y-7606500D01*
X17385500Y-7506500D02*
X17285500Y-7606500D01*
X17335500Y-7506500D02*
X17335500Y-7606500D01*
X17285500Y-7556500D02*
X17385500Y-7556500D01*
X17539500Y-7252500D02*
X17639500Y-7352500D01*
X17639500Y-7252500D02*
X17539500Y-7352500D01*
X17589500Y-7252500D02*
X17589500Y-7352500D01*
X17539500Y-7302500D02*
X17639500Y-7302500D01*
X17539500Y-7506500D02*
X17639500Y-7606500D01*
X17639500Y-7506500D02*
X17539500Y-7606500D01*
X17589500Y-7506500D02*
X17589500Y-7606500D01*
X17539500Y-7556500D02*
X17639500Y-7556500D01*
X17793500Y-7252500D02*
X17893500Y-7352500D01*
X17893500Y-7252500D02*
X17793500Y-7352500D01*
X17843500Y-7252500D02*
X17843500Y-7352500D01*
X17793500Y-7302500D02*
X17893500Y-7302500D01*
X17793500Y-7506500D02*
X17893500Y-7606500D01*
X17893500Y-7506500D02*
X17793500Y-7606500D01*
X17843500Y-7506500D02*
X17843500Y-7606500D01*
X17793500Y-7556500D02*
X17893500Y-7556500D01*
X16522500Y-8394500D02*
X16624500Y-8496500D01*
X16624500Y-8394500D02*
X16522500Y-8496500D01*
X16609563Y-8481563D02*
X16609563Y-8409437D01*
X16537437Y-8409437D01*
X16537437Y-8481563D01*
X16609563Y-8481563D01*
X16522500Y-8648500D02*
X16624500Y-8750500D01*
X16624500Y-8648500D02*
X16522500Y-8750500D01*
X16609563Y-8735563D02*
X16609563Y-8663437D01*
X16537437Y-8663437D01*
X16537437Y-8735563D01*
X16609563Y-8735563D01*
X16522500Y-8902500D02*
X16624500Y-9004500D01*
X16624500Y-8902500D02*
X16522500Y-9004500D01*
X16609563Y-8989563D02*
X16609563Y-8917437D01*
X16537437Y-8917437D01*
X16537437Y-8989563D01*
X16609563Y-8989563D01*
X16522500Y-9156500D02*
X16624500Y-9258500D01*
X16624500Y-9156500D02*
X16522500Y-9258500D01*
X16609563Y-9243563D02*
X16609563Y-9171437D01*
X16537437Y-9171437D01*
X16537437Y-9243563D01*
X16609563Y-9243563D01*
X16522500Y-9410500D02*
X16624500Y-9512500D01*
X16624500Y-9410500D02*
X16522500Y-9512500D01*
X16609563Y-9497563D02*
X16609563Y-9425437D01*
X16537437Y-9425437D01*
X16537437Y-9497563D01*
X16609563Y-9497563D01*
X16522500Y-9664500D02*
X16624500Y-9766500D01*
X16624500Y-9664500D02*
X16522500Y-9766500D01*
X16609563Y-9751563D02*
X16609563Y-9679437D01*
X16537437Y-9679437D01*
X16537437Y-9751563D01*
X16609563Y-9751563D01*
X16522500Y-9918500D02*
X16624500Y-10020500D01*
X16624500Y-9918500D02*
X16522500Y-10020500D01*
X16609563Y-10005563D02*
X16609563Y-9933437D01*
X16537437Y-9933437D01*
X16537437Y-10005563D01*
X16609563Y-10005563D01*
X16522500Y-10172500D02*
X16624500Y-10274500D01*
X16624500Y-10172500D02*
X16522500Y-10274500D01*
X16609563Y-10259563D02*
X16609563Y-10187437D01*
X16537437Y-10187437D01*
X16537437Y-10259563D01*
X16609563Y-10259563D01*
X16522500Y-10426500D02*
X16624500Y-10528500D01*
X16624500Y-10426500D02*
X16522500Y-10528500D01*
X16609563Y-10513563D02*
X16609563Y-10441437D01*
X16537437Y-10441437D01*
X16537437Y-10513563D01*
X16609563Y-10513563D01*
X16522500Y-10680500D02*
X16624500Y-10782500D01*
X16624500Y-10680500D02*
X16522500Y-10782500D01*
X16609563Y-10767563D02*
X16609563Y-10695437D01*
X16537437Y-10695437D01*
X16537437Y-10767563D01*
X16609563Y-10767563D01*
X16522500Y-10934500D02*
X16624500Y-11036500D01*
X16624500Y-10934500D02*
X16522500Y-11036500D01*
X16609563Y-11021563D02*
X16609563Y-10949437D01*
X16537437Y-10949437D01*
X16537437Y-11021563D01*
X16609563Y-11021563D01*
X16522500Y-11188500D02*
X16624500Y-11290500D01*
X16624500Y-11188500D02*
X16522500Y-11290500D01*
X16609563Y-11275563D02*
X16609563Y-11203437D01*
X16537437Y-11203437D01*
X16537437Y-11275563D01*
X16609563Y-11275563D01*
X16522500Y-11442500D02*
X16624500Y-11544500D01*
X16624500Y-11442500D02*
X16522500Y-11544500D01*
X16609563Y-11529563D02*
X16609563Y-11457437D01*
X16537437Y-11457437D01*
X16537437Y-11529563D01*
X16609563Y-11529563D01*
X16522500Y-11696500D02*
X16624500Y-11798500D01*
X16624500Y-11696500D02*
X16522500Y-11798500D01*
X16609563Y-11783563D02*
X16609563Y-11711437D01*
X16537437Y-11711437D01*
X16537437Y-11783563D01*
X16609563Y-11783563D01*
X16522500Y-11950500D02*
X16624500Y-12052500D01*
X16624500Y-11950500D02*
X16522500Y-12052500D01*
X16609563Y-12037563D02*
X16609563Y-11965437D01*
X16537437Y-11965437D01*
X16537437Y-12037563D01*
X16609563Y-12037563D01*
X16522500Y-12204500D02*
X16624500Y-12306500D01*
X16624500Y-12204500D02*
X16522500Y-12306500D01*
X16609563Y-12291563D02*
X16609563Y-12219437D01*
X16537437Y-12219437D01*
X16537437Y-12291563D01*
X16609563Y-12291563D01*
X16522500Y-12458500D02*
X16624500Y-12560500D01*
X16624500Y-12458500D02*
X16522500Y-12560500D01*
X16609563Y-12545563D02*
X16609563Y-12473437D01*
X16537437Y-12473437D01*
X16537437Y-12545563D01*
X16609563Y-12545563D01*
X16522500Y-12712500D02*
X16624500Y-12814500D01*
X16624500Y-12712500D02*
X16522500Y-12814500D01*
X16609563Y-12799563D02*
X16609563Y-12727437D01*
X16537437Y-12727437D01*
X16537437Y-12799563D01*
X16609563Y-12799563D01*
X16522500Y-12966500D02*
X16624500Y-13068500D01*
X16624500Y-12966500D02*
X16522500Y-13068500D01*
X16609563Y-13053563D02*
X16609563Y-12981437D01*
X16537437Y-12981437D01*
X16537437Y-13053563D01*
X16609563Y-13053563D01*
X16522500Y-13220500D02*
X16624500Y-13322500D01*
X16624500Y-13220500D02*
X16522500Y-13322500D01*
X16609563Y-13307563D02*
X16609563Y-13235437D01*
X16537437Y-13235437D01*
X16537437Y-13307563D01*
X16609563Y-13307563D01*
X17157500Y-8417500D02*
X17259500Y-8519500D01*
X17259500Y-8417500D02*
X17157500Y-8519500D01*
X17244563Y-8504563D02*
X17244563Y-8432437D01*
X17172437Y-8432437D01*
X17172437Y-8504563D01*
X17244563Y-8504563D01*
X17411500Y-8417500D02*
X17513500Y-8519500D01*
X17513500Y-8417500D02*
X17411500Y-8519500D01*
X17498563Y-8504563D02*
X17498563Y-8432437D01*
X17426437Y-8432437D01*
X17426437Y-8504563D01*
X17498563Y-8504563D01*
X17665500Y-8417500D02*
X17767500Y-8519500D01*
X17767500Y-8417500D02*
X17665500Y-8519500D01*
X17752563Y-8504563D02*
X17752563Y-8432437D01*
X17680437Y-8432437D01*
X17680437Y-8504563D01*
X17752563Y-8504563D01*
X18300500Y-8394500D02*
X18402500Y-8496500D01*
X18402500Y-8394500D02*
X18300500Y-8496500D01*
X18387563Y-8481563D02*
X18387563Y-8409437D01*
X18315437Y-8409437D01*
X18315437Y-8481563D01*
X18387563Y-8481563D01*
X18300500Y-8648500D02*
X18402500Y-8750500D01*
X18402500Y-8648500D02*
X18300500Y-8750500D01*
X18387563Y-8735563D02*
X18387563Y-8663437D01*
X18315437Y-8663437D01*
X18315437Y-8735563D01*
X18387563Y-8735563D01*
X18300500Y-8902500D02*
X18402500Y-9004500D01*
X18402500Y-8902500D02*
X18300500Y-9004500D01*
X18387563Y-8989563D02*
X18387563Y-8917437D01*
X18315437Y-8917437D01*
X18315437Y-8989563D01*
X18387563Y-8989563D01*
X18300500Y-9156500D02*
X18402500Y-9258500D01*
X18402500Y-9156500D02*
X18300500Y-9258500D01*
X18387563Y-9243563D02*
X18387563Y-9171437D01*
X18315437Y-9171437D01*
X18315437Y-9243563D01*
X18387563Y-9243563D01*
X18300500Y-9410500D02*
X18402500Y-9512500D01*
X18402500Y-9410500D02*
X18300500Y-9512500D01*
X18387563Y-9497563D02*
X18387563Y-9425437D01*
X18315437Y-9425437D01*
X18315437Y-9497563D01*
X18387563Y-9497563D01*
X18300500Y-9664500D02*
X18402500Y-9766500D01*
X18402500Y-9664500D02*
X18300500Y-9766500D01*
X18387563Y-9751563D02*
X18387563Y-9679437D01*
X18315437Y-9679437D01*
X18315437Y-9751563D01*
X18387563Y-9751563D01*
X18300500Y-9918500D02*
X18402500Y-10020500D01*
X18402500Y-9918500D02*
X18300500Y-10020500D01*
X18387563Y-10005563D02*
X18387563Y-9933437D01*
X18315437Y-9933437D01*
X18315437Y-10005563D01*
X18387563Y-10005563D01*
X18300500Y-10172500D02*
X18402500Y-10274500D01*
X18402500Y-10172500D02*
X18300500Y-10274500D01*
X18387563Y-10259563D02*
X18387563Y-10187437D01*
X18315437Y-10187437D01*
X18315437Y-10259563D01*
X18387563Y-10259563D01*
X18300500Y-10426500D02*
X18402500Y-10528500D01*
X18402500Y-10426500D02*
X18300500Y-10528500D01*
X18387563Y-10513563D02*
X18387563Y-10441437D01*
X18315437Y-10441437D01*
X18315437Y-10513563D01*
X18387563Y-10513563D01*
X18300500Y-10680500D02*
X18402500Y-10782500D01*
X18402500Y-10680500D02*
X18300500Y-10782500D01*
X18387563Y-10767563D02*
X18387563Y-10695437D01*
X18315437Y-10695437D01*
X18315437Y-10767563D01*
X18387563Y-10767563D01*
X18300500Y-10934500D02*
X18402500Y-11036500D01*
X18402500Y-10934500D02*
X18300500Y-11036500D01*
X18387563Y-11021563D02*
X18387563Y-10949437D01*
X18315437Y-10949437D01*
X18315437Y-11021563D01*
X18387563Y-11021563D01*
X18300500Y-11188500D02*
X18402500Y-11290500D01*
X18402500Y-11188500D02*
X18300500Y-11290500D01*
X18387563Y-11275563D02*
X18387563Y-11203437D01*
X18315437Y-11203437D01*
X18315437Y-11275563D01*
X18387563Y-11275563D01*
X18300500Y-11442500D02*
X18402500Y-11544500D01*
X18402500Y-11442500D02*
X18300500Y-11544500D01*
X18387563Y-11529563D02*
X18387563Y-11457437D01*
X18315437Y-11457437D01*
X18315437Y-11529563D01*
X18387563Y-11529563D01*
X18300500Y-11696500D02*
X18402500Y-11798500D01*
X18402500Y-11696500D02*
X18300500Y-11798500D01*
X18387563Y-11783563D02*
X18387563Y-11711437D01*
X18315437Y-11711437D01*
X18315437Y-11783563D01*
X18387563Y-11783563D01*
X18300500Y-11950500D02*
X18402500Y-12052500D01*
X18402500Y-11950500D02*
X18300500Y-12052500D01*
X18387563Y-12037563D02*
X18387563Y-11965437D01*
X18315437Y-11965437D01*
X18315437Y-12037563D01*
X18387563Y-12037563D01*
X18300500Y-12204500D02*
X18402500Y-12306500D01*
X18402500Y-12204500D02*
X18300500Y-12306500D01*
X18387563Y-12291563D02*
X18387563Y-12219437D01*
X18315437Y-12219437D01*
X18315437Y-12291563D01*
X18387563Y-12291563D01*
X18300500Y-12458500D02*
X18402500Y-12560500D01*
X18402500Y-12458500D02*
X18300500Y-12560500D01*
X18387563Y-12545563D02*
X18387563Y-12473437D01*
X18315437Y-12473437D01*
X18315437Y-12545563D01*
X18387563Y-12545563D01*
X18300500Y-12712500D02*
X18402500Y-12814500D01*
X18402500Y-12712500D02*
X18300500Y-12814500D01*
X18387563Y-12799563D02*
X18387563Y-12727437D01*
X18315437Y-12727437D01*
X18315437Y-12799563D01*
X18387563Y-12799563D01*
X18300500Y-12966500D02*
X18402500Y-13068500D01*
X18402500Y-12966500D02*
X18300500Y-13068500D01*
X18387563Y-13053563D02*
X18387563Y-12981437D01*
X18315437Y-12981437D01*
X18315437Y-13053563D01*
X18387563Y-13053563D01*
X18300500Y-13220500D02*
X18402500Y-13322500D01*
X18402500Y-13220500D02*
X18300500Y-13322500D01*
X18387563Y-13307563D02*
X18387563Y-13235437D01*
X18315437Y-13235437D01*
X18315437Y-13307563D01*
X18387563Y-13307563D01*
X14242500Y-6483500D02*
X14372500Y-6613500D01*
X14372500Y-6483500D02*
X14242500Y-6613500D01*
X14307500Y-6613500D02*
X14372500Y-6548500D01*
X14307500Y-6483500D01*
X14242500Y-6548500D01*
X14307500Y-6613500D01*
X14242500Y-6983500D02*
X14372500Y-7113500D01*
X14372500Y-6983500D02*
X14242500Y-7113500D01*
X14307500Y-7113500D02*
X14372500Y-7048500D01*
X14307500Y-6983500D01*
X14242500Y-7048500D01*
X14307500Y-7113500D01*
X15492500Y-6483500D02*
X15622500Y-6613500D01*
X15622500Y-6483500D02*
X15492500Y-6613500D01*
X15557500Y-6613500D02*
X15622500Y-6548500D01*
X15557500Y-6483500D01*
X15492500Y-6548500D01*
X15557500Y-6613500D01*
X15492500Y-6983500D02*
X15622500Y-7113500D01*
X15622500Y-6983500D02*
X15492500Y-7113500D01*
X15557500Y-7113500D02*
X15622500Y-7048500D01*
X15557500Y-6983500D01*
X15492500Y-7048500D01*
X15557500Y-7113500D01*
X19322500Y-6475500D02*
X19452500Y-6605500D01*
X19452500Y-6475500D02*
X19322500Y-6605500D01*
X19387500Y-6605500D02*
X19452500Y-6540500D01*
X19387500Y-6475500D01*
X19322500Y-6540500D01*
X19387500Y-6605500D01*
X19322500Y-6975500D02*
X19452500Y-7105500D01*
X19452500Y-6975500D02*
X19322500Y-7105500D01*
X19387500Y-7105500D02*
X19452500Y-7040500D01*
X19387500Y-6975500D01*
X19322500Y-7040500D01*
X19387500Y-7105500D01*
X20572500Y-6475500D02*
X20702500Y-6605500D01*
X20702500Y-6475500D02*
X20572500Y-6605500D01*
X20637500Y-6605500D02*
X20702500Y-6540500D01*
X20637500Y-6475500D01*
X20572500Y-6540500D01*
X20637500Y-6605500D01*
X20572500Y-6975500D02*
X20702500Y-7105500D01*
X20702500Y-6975500D02*
X20572500Y-7105500D01*
X20637500Y-7105500D02*
X20702500Y-7040500D01*
X20637500Y-6975500D01*
X20572500Y-7040500D01*
X20637500Y-7105500D01*
X11398250Y-8502650D02*
X11398250Y-8642350D01*
X11328400Y-8572500D02*
X11468100Y-8572500D01*
X11468100Y-8572500D02*
G75*
G03*
X11468100Y-8572500I-69850J0D01*
G01*
X11398250Y-10026650D02*
X11398250Y-10166350D01*
X11328400Y-10096500D02*
X11468100Y-10096500D01*
X11468100Y-10096500D02*
G75*
G03*
X11468100Y-10096500I-69850J0D01*
G01*
X12731750Y-8502650D02*
X12731750Y-8642350D01*
X12661900Y-8572500D02*
X12801600Y-8572500D01*
X12801600Y-8572500D02*
G75*
G03*
X12801600Y-8572500I-69850J0D01*
G01*
X12731750Y-10026650D02*
X12731750Y-10166350D01*
X12661900Y-10096500D02*
X12801600Y-10096500D01*
X12801600Y-10096500D02*
G75*
G03*
X12801600Y-10096500I-69850J0D01*
G01*
X21367750Y-8248650D02*
X21367750Y-8388350D01*
X21297900Y-8318500D02*
X21437600Y-8318500D01*
X21437600Y-8318500D02*
G75*
G03*
X21437600Y-8318500I-69850J0D01*
G01*
X21367750Y-9772650D02*
X21367750Y-9912350D01*
X21297900Y-9842500D02*
X21437600Y-9842500D01*
X21437600Y-9842500D02*
G75*
G03*
X21437600Y-9842500I-69850J0D01*
G01*
X22701250Y-8248650D02*
X22701250Y-8388350D01*
X22631400Y-8318500D02*
X22771100Y-8318500D01*
X22771100Y-8318500D02*
G75*
G03*
X22771100Y-8318500I-69850J0D01*
G01*
X22701250Y-9772650D02*
X22701250Y-9912350D01*
X22631400Y-9842500D02*
X22771100Y-9842500D01*
X22771100Y-9842500D02*
G75*
G03*
X22771100Y-9842500I-69850J0D01*
G01*
X10692443Y-5825802D02*
X10692443Y-5670237D01*
X10536878Y-5670237D01*
X10536878Y-5825802D01*
X10692443Y-5825802D01*
X10724660Y-5748020D02*
G75*
G03*
X10724660Y-5748020I-110000J0D01*
G01*
X10697523Y-13364522D02*
X10697523Y-13208957D01*
X10541958Y-13208957D01*
X10541958Y-13364522D01*
X10697523Y-13364522D01*
X10729740Y-13286740D02*
G75*
G03*
X10729740Y-13286740I-110000J0D01*
G01*
X23709942Y-5848662D02*
X23709942Y-5693097D01*
X23554377Y-5693097D01*
X23554377Y-5848662D01*
X23709942Y-5848662D01*
X23742160Y-5770880D02*
G75*
G03*
X23742160Y-5770880I-110000J0D01*
G01*
X23709942Y-13369602D02*
X23709942Y-13214037D01*
X23554377Y-13214037D01*
X23554377Y-13369602D01*
X23709942Y-13369602D01*
X23742160Y-13291820D02*
G75*
G03*
X23742160Y-13291820I-110000J0D01*
G01*
X21408840Y-6391880D02*
X21521840Y-6278880D01*
X21408840Y-6165880D01*
X21295840Y-6278880D01*
X21408840Y-6391880D01*
X21521840Y-6278880D02*
G75*
G03*
X21521840Y-6278880I-113000J0D01*
G01*
X22722840Y-6391880D02*
X22835840Y-6278880D01*
X22722840Y-6165880D01*
X22609840Y-6278880D01*
X22722840Y-6391880D01*
X22835840Y-6278880D02*
G75*
G03*
X22835840Y-6278880I-113000J0D01*
G01*
X17220000Y-12880500D02*
X17220000Y-13030500D01*
X17145000Y-12955500D02*
X17295000Y-12955500D01*
X17273034Y-13008533D02*
X17273034Y-12902466D01*
X17166967Y-12902466D01*
X17166967Y-13008533D01*
X17273034Y-13008533D01*
X17705000Y-12880500D02*
X17705000Y-13030500D01*
X17630000Y-12955500D02*
X17780000Y-12955500D01*
X17758034Y-13008533D02*
X17758034Y-12902466D01*
X17651967Y-12902466D01*
X17651967Y-13008533D01*
X17758034Y-13008533D01*
X17190000Y-13168500D02*
X17190000Y-13348500D01*
X17100000Y-13258500D02*
X17280000Y-13258500D01*
X17190000Y-13348500D02*
X17280000Y-13258500D01*
X17190000Y-13168500D01*
X17100000Y-13258500D01*
X17190000Y-13348500D01*
X17735000Y-13168500D02*
X17735000Y-13348500D01*
X17645000Y-13258500D02*
X17825000Y-13258500D01*
X17735000Y-13348500D02*
X17825000Y-13258500D01*
X17735000Y-13168500D01*
X17645000Y-13258500D01*
X17735000Y-13348500D01*
D12*
X10253428Y-14311214D02*
X10253428Y-14011214D01*
X10324857Y-14011214D01*
X10367714Y-14025500D01*
X10396286Y-14054071D01*
X10410571Y-14082643D01*
X10424857Y-14139786D01*
X10424857Y-14182643D01*
X10410571Y-14239786D01*
X10396286Y-14268357D01*
X10367714Y-14296929D01*
X10324857Y-14311214D01*
X10253428Y-14311214D01*
X10553428Y-14311214D02*
X10553428Y-14111214D01*
X10553428Y-14168357D02*
X10567714Y-14139786D01*
X10582000Y-14125500D01*
X10610571Y-14111214D01*
X10639143Y-14111214D01*
X10739143Y-14311214D02*
X10739143Y-14111214D01*
X10739143Y-14011214D02*
X10724857Y-14025500D01*
X10739143Y-14039786D01*
X10753428Y-14025500D01*
X10739143Y-14011214D01*
X10739143Y-14039786D01*
X10924857Y-14311214D02*
X10896286Y-14296929D01*
X10882000Y-14268357D01*
X10882000Y-14011214D01*
X11082000Y-14311214D02*
X11053428Y-14296929D01*
X11039143Y-14268357D01*
X11039143Y-14011214D01*
X11424857Y-14311214D02*
X11424857Y-14011214D01*
X11524857Y-14225500D01*
X11624857Y-14011214D01*
X11624857Y-14311214D01*
X11896286Y-14311214D02*
X11896286Y-14154071D01*
X11882000Y-14125500D01*
X11853428Y-14111214D01*
X11796286Y-14111214D01*
X11767714Y-14125500D01*
X11896286Y-14296929D02*
X11867714Y-14311214D01*
X11796286Y-14311214D01*
X11767714Y-14296929D01*
X11753428Y-14268357D01*
X11753428Y-14239786D01*
X11767714Y-14211214D01*
X11796286Y-14196929D01*
X11867714Y-14196929D01*
X11896286Y-14182643D01*
X12039143Y-14111214D02*
X12039143Y-14411214D01*
X12039143Y-14125500D02*
X12067714Y-14111214D01*
X12124857Y-14111214D01*
X12153428Y-14125500D01*
X12167714Y-14139786D01*
X12182000Y-14168357D01*
X12182000Y-14254071D01*
X12167714Y-14282643D01*
X12153428Y-14296929D01*
X12124857Y-14311214D01*
X12067714Y-14311214D01*
X12039143Y-14296929D01*
X12310571Y-14282643D02*
X12324857Y-14296929D01*
X12310571Y-14311214D01*
X12296286Y-14296929D01*
X12310571Y-14282643D01*
X12310571Y-14311214D01*
X12310571Y-14125500D02*
X12324857Y-14139786D01*
X12310571Y-14154071D01*
X12296286Y-14139786D01*
X12310571Y-14125500D01*
X12310571Y-14154071D01*
X9927000Y-14785500D02*
X9967000Y-14825500D01*
X9967000Y-14785500D02*
X9927000Y-14825500D01*
X10310571Y-14641214D02*
X10339143Y-14641214D01*
X10367714Y-14655500D01*
X10382000Y-14669786D01*
X10396286Y-14698357D01*
X10410571Y-14755500D01*
X10410571Y-14826929D01*
X10396286Y-14884071D01*
X10382000Y-14912643D01*
X10367714Y-14926929D01*
X10339143Y-14941214D01*
X10310571Y-14941214D01*
X10282000Y-14926929D01*
X10267714Y-14912643D01*
X10253428Y-14884071D01*
X10239143Y-14826929D01*
X10239143Y-14755500D01*
X10253428Y-14698357D01*
X10267714Y-14669786D01*
X10282000Y-14655500D01*
X10310571Y-14641214D01*
X10539143Y-14912643D02*
X10553428Y-14926929D01*
X10539143Y-14941214D01*
X10524857Y-14926929D01*
X10539143Y-14912643D01*
X10539143Y-14941214D01*
X10810571Y-14741214D02*
X10810571Y-14941214D01*
X10739143Y-14626929D02*
X10667714Y-14841214D01*
X10853428Y-14841214D01*
X11024857Y-14641214D02*
X11053428Y-14641214D01*
X11082000Y-14655500D01*
X11096286Y-14669786D01*
X11110571Y-14698357D01*
X11124857Y-14755500D01*
X11124857Y-14826929D01*
X11110571Y-14884071D01*
X11096286Y-14912643D01*
X11082000Y-14926929D01*
X11053428Y-14941214D01*
X11024857Y-14941214D01*
X10996286Y-14926929D01*
X10982000Y-14912643D01*
X10967714Y-14884071D01*
X10953428Y-14826929D01*
X10953428Y-14755500D01*
X10967714Y-14698357D01*
X10982000Y-14669786D01*
X10996286Y-14655500D01*
X11024857Y-14641214D01*
X11310571Y-14641214D02*
X11339143Y-14641214D01*
X11367714Y-14655500D01*
X11382000Y-14669786D01*
X11396286Y-14698357D01*
X11410571Y-14755500D01*
X11410571Y-14826929D01*
X11396286Y-14884071D01*
X11382000Y-14912643D01*
X11367714Y-14926929D01*
X11339143Y-14941214D01*
X11310571Y-14941214D01*
X11282000Y-14926929D01*
X11267714Y-14912643D01*
X11253428Y-14884071D01*
X11239143Y-14826929D01*
X11239143Y-14755500D01*
X11253428Y-14698357D01*
X11267714Y-14669786D01*
X11282000Y-14655500D01*
X11310571Y-14641214D01*
X11539143Y-14941214D02*
X11539143Y-14741214D01*
X11539143Y-14769786D02*
X11553428Y-14755500D01*
X11582000Y-14741214D01*
X11624857Y-14741214D01*
X11653428Y-14755500D01*
X11667714Y-14784071D01*
X11667714Y-14941214D01*
X11667714Y-14784071D02*
X11682000Y-14755500D01*
X11710571Y-14741214D01*
X11753428Y-14741214D01*
X11782000Y-14755500D01*
X11796286Y-14784071D01*
X11796286Y-14941214D01*
X11939143Y-14941214D02*
X11939143Y-14741214D01*
X11939143Y-14769786D02*
X11953428Y-14755500D01*
X11982000Y-14741214D01*
X12024857Y-14741214D01*
X12053428Y-14755500D01*
X12067714Y-14784071D01*
X12067714Y-14941214D01*
X12067714Y-14784071D02*
X12082000Y-14755500D01*
X12110571Y-14741214D01*
X12153428Y-14741214D01*
X12182000Y-14755500D01*
X12196286Y-14784071D01*
X12196286Y-14941214D01*
X12782000Y-14626929D02*
X12524857Y-15012643D01*
X13167714Y-14641214D02*
X13196286Y-14641214D01*
X13224857Y-14655500D01*
X13239143Y-14669786D01*
X13253428Y-14698357D01*
X13267714Y-14755500D01*
X13267714Y-14826929D01*
X13253428Y-14884071D01*
X13239143Y-14912643D01*
X13224857Y-14926929D01*
X13196286Y-14941214D01*
X13167714Y-14941214D01*
X13139143Y-14926929D01*
X13124857Y-14912643D01*
X13110571Y-14884071D01*
X13096286Y-14826929D01*
X13096286Y-14755500D01*
X13110571Y-14698357D01*
X13124857Y-14669786D01*
X13139143Y-14655500D01*
X13167714Y-14641214D01*
X13396286Y-14912643D02*
X13410571Y-14926929D01*
X13396286Y-14941214D01*
X13382000Y-14926929D01*
X13396286Y-14912643D01*
X13396286Y-14941214D01*
X13596286Y-14641214D02*
X13624857Y-14641214D01*
X13653428Y-14655500D01*
X13667714Y-14669786D01*
X13682000Y-14698357D01*
X13696286Y-14755500D01*
X13696286Y-14826929D01*
X13682000Y-14884071D01*
X13667714Y-14912643D01*
X13653428Y-14926929D01*
X13624857Y-14941214D01*
X13596286Y-14941214D01*
X13567714Y-14926929D01*
X13553428Y-14912643D01*
X13539143Y-14884071D01*
X13524857Y-14826929D01*
X13524857Y-14755500D01*
X13539143Y-14698357D01*
X13553428Y-14669786D01*
X13567714Y-14655500D01*
X13596286Y-14641214D01*
X13982000Y-14941214D02*
X13810571Y-14941214D01*
X13896286Y-14941214D02*
X13896286Y-14641214D01*
X13867714Y-14684071D01*
X13839143Y-14712643D01*
X13810571Y-14726929D01*
X14253428Y-14641214D02*
X14110571Y-14641214D01*
X14096286Y-14784071D01*
X14110571Y-14769786D01*
X14139143Y-14755500D01*
X14210571Y-14755500D01*
X14239143Y-14769786D01*
X14253428Y-14784071D01*
X14267714Y-14812643D01*
X14267714Y-14884071D01*
X14253428Y-14912643D01*
X14239143Y-14926929D01*
X14210571Y-14941214D01*
X14139143Y-14941214D01*
X14110571Y-14926929D01*
X14096286Y-14912643D01*
X14367714Y-14641214D02*
X14567714Y-14641214D01*
X14439143Y-14941214D01*
X14667714Y-14641214D02*
X14667714Y-14698357D01*
X14782000Y-14641214D02*
X14782000Y-14698357D01*
X15224857Y-15055500D02*
X15210571Y-15041214D01*
X15182000Y-14998357D01*
X15167714Y-14969786D01*
X15153428Y-14926929D01*
X15139143Y-14855500D01*
X15139143Y-14798357D01*
X15153428Y-14726929D01*
X15167714Y-14684071D01*
X15182000Y-14655500D01*
X15210571Y-14612643D01*
X15224857Y-14598357D01*
X15467714Y-14641214D02*
X15410571Y-14641214D01*
X15382000Y-14655500D01*
X15367714Y-14669786D01*
X15339143Y-14712643D01*
X15324857Y-14769786D01*
X15324857Y-14884071D01*
X15339143Y-14912643D01*
X15353428Y-14926929D01*
X15382000Y-14941214D01*
X15439143Y-14941214D01*
X15467714Y-14926929D01*
X15482000Y-14912643D01*
X15496286Y-14884071D01*
X15496286Y-14812643D01*
X15482000Y-14784071D01*
X15467714Y-14769786D01*
X15439143Y-14755500D01*
X15382000Y-14755500D01*
X15353428Y-14769786D01*
X15339143Y-14784071D01*
X15324857Y-14812643D01*
X15853428Y-14941214D02*
X15853428Y-14641214D01*
X15982000Y-14941214D02*
X15982000Y-14784071D01*
X15967714Y-14755500D01*
X15939143Y-14741214D01*
X15896286Y-14741214D01*
X15867714Y-14755500D01*
X15853428Y-14769786D01*
X16167714Y-14941214D02*
X16139143Y-14926929D01*
X16124857Y-14912643D01*
X16110571Y-14884071D01*
X16110571Y-14798357D01*
X16124857Y-14769786D01*
X16139143Y-14755500D01*
X16167714Y-14741214D01*
X16210571Y-14741214D01*
X16239143Y-14755500D01*
X16253428Y-14769786D01*
X16267714Y-14798357D01*
X16267714Y-14884071D01*
X16253428Y-14912643D01*
X16239143Y-14926929D01*
X16210571Y-14941214D01*
X16167714Y-14941214D01*
X16439143Y-14941214D02*
X16410571Y-14926929D01*
X16396286Y-14898357D01*
X16396286Y-14641214D01*
X16667714Y-14926929D02*
X16639143Y-14941214D01*
X16582000Y-14941214D01*
X16553428Y-14926929D01*
X16539143Y-14898357D01*
X16539143Y-14784071D01*
X16553428Y-14755500D01*
X16582000Y-14741214D01*
X16639143Y-14741214D01*
X16667714Y-14755500D01*
X16682000Y-14784071D01*
X16682000Y-14812643D01*
X16539143Y-14841214D01*
X16796286Y-14926929D02*
X16824857Y-14941214D01*
X16882000Y-14941214D01*
X16910571Y-14926929D01*
X16924857Y-14898357D01*
X16924857Y-14884071D01*
X16910571Y-14855500D01*
X16882000Y-14841214D01*
X16839143Y-14841214D01*
X16810571Y-14826929D01*
X16796286Y-14798357D01*
X16796286Y-14784071D01*
X16810571Y-14755500D01*
X16839143Y-14741214D01*
X16882000Y-14741214D01*
X16910571Y-14755500D01*
X17024857Y-15055500D02*
X17039143Y-15041214D01*
X17067714Y-14998357D01*
X17082000Y-14969786D01*
X17096286Y-14926929D01*
X17110571Y-14855500D01*
X17110571Y-14798357D01*
X17096286Y-14726929D01*
X17082000Y-14684071D01*
X17067714Y-14655500D01*
X17039143Y-14612643D01*
X17024857Y-14598357D01*
X9967000Y-15201500D02*
G75*
G03*
X9967000Y-15201500I-35000J0D01*
G01*
X10310571Y-15037214D02*
X10339143Y-15037214D01*
X10367714Y-15051500D01*
X10382000Y-15065786D01*
X10396286Y-15094357D01*
X10410571Y-15151500D01*
X10410571Y-15222929D01*
X10396286Y-15280071D01*
X10382000Y-15308643D01*
X10367714Y-15322929D01*
X10339143Y-15337214D01*
X10310571Y-15337214D01*
X10282000Y-15322929D01*
X10267714Y-15308643D01*
X10253428Y-15280071D01*
X10239143Y-15222929D01*
X10239143Y-15151500D01*
X10253428Y-15094357D01*
X10267714Y-15065786D01*
X10282000Y-15051500D01*
X10310571Y-15037214D01*
X10539143Y-15308643D02*
X10553428Y-15322929D01*
X10539143Y-15337214D01*
X10524857Y-15322929D01*
X10539143Y-15308643D01*
X10539143Y-15337214D01*
X10653428Y-15037214D02*
X10853428Y-15037214D01*
X10724857Y-15337214D01*
X11024857Y-15037214D02*
X11053428Y-15037214D01*
X11082000Y-15051500D01*
X11096286Y-15065786D01*
X11110571Y-15094357D01*
X11124857Y-15151500D01*
X11124857Y-15222929D01*
X11110571Y-15280071D01*
X11096286Y-15308643D01*
X11082000Y-15322929D01*
X11053428Y-15337214D01*
X11024857Y-15337214D01*
X10996286Y-15322929D01*
X10982000Y-15308643D01*
X10967714Y-15280071D01*
X10953428Y-15222929D01*
X10953428Y-15151500D01*
X10967714Y-15094357D01*
X10982000Y-15065786D01*
X10996286Y-15051500D01*
X11024857Y-15037214D01*
X11310571Y-15037214D02*
X11339143Y-15037214D01*
X11367714Y-15051500D01*
X11382000Y-15065786D01*
X11396286Y-15094357D01*
X11410571Y-15151500D01*
X11410571Y-15222929D01*
X11396286Y-15280071D01*
X11382000Y-15308643D01*
X11367714Y-15322929D01*
X11339143Y-15337214D01*
X11310571Y-15337214D01*
X11282000Y-15322929D01*
X11267714Y-15308643D01*
X11253428Y-15280071D01*
X11239143Y-15222929D01*
X11239143Y-15151500D01*
X11253428Y-15094357D01*
X11267714Y-15065786D01*
X11282000Y-15051500D01*
X11310571Y-15037214D01*
X11539143Y-15337214D02*
X11539143Y-15137214D01*
X11539143Y-15165786D02*
X11553428Y-15151500D01*
X11582000Y-15137214D01*
X11624857Y-15137214D01*
X11653428Y-15151500D01*
X11667714Y-15180071D01*
X11667714Y-15337214D01*
X11667714Y-15180071D02*
X11682000Y-15151500D01*
X11710571Y-15137214D01*
X11753428Y-15137214D01*
X11782000Y-15151500D01*
X11796286Y-15180071D01*
X11796286Y-15337214D01*
X11939143Y-15337214D02*
X11939143Y-15137214D01*
X11939143Y-15165786D02*
X11953428Y-15151500D01*
X11982000Y-15137214D01*
X12024857Y-15137214D01*
X12053428Y-15151500D01*
X12067714Y-15180071D01*
X12067714Y-15337214D01*
X12067714Y-15180071D02*
X12082000Y-15151500D01*
X12110571Y-15137214D01*
X12153428Y-15137214D01*
X12182000Y-15151500D01*
X12196286Y-15180071D01*
X12196286Y-15337214D01*
X12782000Y-15022929D02*
X12524857Y-15408643D01*
X13167714Y-15037214D02*
X13196286Y-15037214D01*
X13224857Y-15051500D01*
X13239143Y-15065786D01*
X13253428Y-15094357D01*
X13267714Y-15151500D01*
X13267714Y-15222929D01*
X13253428Y-15280071D01*
X13239143Y-15308643D01*
X13224857Y-15322929D01*
X13196286Y-15337214D01*
X13167714Y-15337214D01*
X13139143Y-15322929D01*
X13124857Y-15308643D01*
X13110571Y-15280071D01*
X13096286Y-15222929D01*
X13096286Y-15151500D01*
X13110571Y-15094357D01*
X13124857Y-15065786D01*
X13139143Y-15051500D01*
X13167714Y-15037214D01*
X13396286Y-15308643D02*
X13410571Y-15322929D01*
X13396286Y-15337214D01*
X13382000Y-15322929D01*
X13396286Y-15308643D01*
X13396286Y-15337214D01*
X13596286Y-15037214D02*
X13624857Y-15037214D01*
X13653428Y-15051500D01*
X13667714Y-15065786D01*
X13682000Y-15094357D01*
X13696286Y-15151500D01*
X13696286Y-15222929D01*
X13682000Y-15280071D01*
X13667714Y-15308643D01*
X13653428Y-15322929D01*
X13624857Y-15337214D01*
X13596286Y-15337214D01*
X13567714Y-15322929D01*
X13553428Y-15308643D01*
X13539143Y-15280071D01*
X13524857Y-15222929D01*
X13524857Y-15151500D01*
X13539143Y-15094357D01*
X13553428Y-15065786D01*
X13567714Y-15051500D01*
X13596286Y-15037214D01*
X13810571Y-15065786D02*
X13824857Y-15051500D01*
X13853428Y-15037214D01*
X13924857Y-15037214D01*
X13953428Y-15051500D01*
X13967714Y-15065786D01*
X13982000Y-15094357D01*
X13982000Y-15122929D01*
X13967714Y-15165786D01*
X13796286Y-15337214D01*
X13982000Y-15337214D01*
X14082000Y-15037214D02*
X14282000Y-15037214D01*
X14153428Y-15337214D01*
X14524857Y-15037214D02*
X14467714Y-15037214D01*
X14439143Y-15051500D01*
X14424857Y-15065786D01*
X14396286Y-15108643D01*
X14382000Y-15165786D01*
X14382000Y-15280071D01*
X14396286Y-15308643D01*
X14410571Y-15322929D01*
X14439143Y-15337214D01*
X14496286Y-15337214D01*
X14524857Y-15322929D01*
X14539143Y-15308643D01*
X14553428Y-15280071D01*
X14553428Y-15208643D01*
X14539143Y-15180071D01*
X14524857Y-15165786D01*
X14496286Y-15151500D01*
X14439143Y-15151500D01*
X14410571Y-15165786D01*
X14396286Y-15180071D01*
X14382000Y-15208643D01*
X14667714Y-15037214D02*
X14667714Y-15094357D01*
X14782000Y-15037214D02*
X14782000Y-15094357D01*
X15224857Y-15451500D02*
X15210571Y-15437214D01*
X15182000Y-15394357D01*
X15167714Y-15365786D01*
X15153428Y-15322929D01*
X15139143Y-15251500D01*
X15139143Y-15194357D01*
X15153428Y-15122929D01*
X15167714Y-15080071D01*
X15182000Y-15051500D01*
X15210571Y-15008643D01*
X15224857Y-14994357D01*
X15467714Y-15137214D02*
X15467714Y-15337214D01*
X15396286Y-15022929D02*
X15324857Y-15237214D01*
X15510571Y-15237214D01*
X15853428Y-15337214D02*
X15853428Y-15037214D01*
X15982000Y-15337214D02*
X15982000Y-15180071D01*
X15967714Y-15151500D01*
X15939143Y-15137214D01*
X15896286Y-15137214D01*
X15867714Y-15151500D01*
X15853428Y-15165786D01*
X16167714Y-15337214D02*
X16139143Y-15322929D01*
X16124857Y-15308643D01*
X16110571Y-15280071D01*
X16110571Y-15194357D01*
X16124857Y-15165786D01*
X16139143Y-15151500D01*
X16167714Y-15137214D01*
X16210571Y-15137214D01*
X16239143Y-15151500D01*
X16253428Y-15165786D01*
X16267714Y-15194357D01*
X16267714Y-15280071D01*
X16253428Y-15308643D01*
X16239143Y-15322929D01*
X16210571Y-15337214D01*
X16167714Y-15337214D01*
X16439143Y-15337214D02*
X16410571Y-15322929D01*
X16396286Y-15294357D01*
X16396286Y-15037214D01*
X16667714Y-15322929D02*
X16639143Y-15337214D01*
X16582000Y-15337214D01*
X16553428Y-15322929D01*
X16539143Y-15294357D01*
X16539143Y-15180071D01*
X16553428Y-15151500D01*
X16582000Y-15137214D01*
X16639143Y-15137214D01*
X16667714Y-15151500D01*
X16682000Y-15180071D01*
X16682000Y-15208643D01*
X16539143Y-15237214D01*
X16796286Y-15322929D02*
X16824857Y-15337214D01*
X16882000Y-15337214D01*
X16910571Y-15322929D01*
X16924857Y-15294357D01*
X16924857Y-15280071D01*
X16910571Y-15251500D01*
X16882000Y-15237214D01*
X16839143Y-15237214D01*
X16810571Y-15222929D01*
X16796286Y-15194357D01*
X16796286Y-15180071D01*
X16810571Y-15151500D01*
X16839143Y-15137214D01*
X16882000Y-15137214D01*
X16910571Y-15151500D01*
X17024857Y-15451500D02*
X17039143Y-15437214D01*
X17067714Y-15394357D01*
X17082000Y-15365786D01*
X17096286Y-15322929D01*
X17110571Y-15251500D01*
X17110571Y-15194357D01*
X17096286Y-15122929D01*
X17082000Y-15080071D01*
X17067714Y-15051500D01*
X17039143Y-15008643D01*
X17024857Y-14994357D01*
X9927000Y-15557500D02*
X9927000Y-15637500D01*
X9887000Y-15597500D02*
X9967000Y-15597500D01*
X10310571Y-15433214D02*
X10339143Y-15433214D01*
X10367714Y-15447500D01*
X10382000Y-15461786D01*
X10396286Y-15490357D01*
X10410571Y-15547500D01*
X10410571Y-15618929D01*
X10396286Y-15676071D01*
X10382000Y-15704643D01*
X10367714Y-15718929D01*
X10339143Y-15733214D01*
X10310571Y-15733214D01*
X10282000Y-15718929D01*
X10267714Y-15704643D01*
X10253428Y-15676071D01*
X10239143Y-15618929D01*
X10239143Y-15547500D01*
X10253428Y-15490357D01*
X10267714Y-15461786D01*
X10282000Y-15447500D01*
X10310571Y-15433214D01*
X10539143Y-15704643D02*
X10553428Y-15718929D01*
X10539143Y-15733214D01*
X10524857Y-15718929D01*
X10539143Y-15704643D01*
X10539143Y-15733214D01*
X10724857Y-15561786D02*
X10696286Y-15547500D01*
X10682000Y-15533214D01*
X10667714Y-15504643D01*
X10667714Y-15490357D01*
X10682000Y-15461786D01*
X10696286Y-15447500D01*
X10724857Y-15433214D01*
X10782000Y-15433214D01*
X10810571Y-15447500D01*
X10824857Y-15461786D01*
X10839143Y-15490357D01*
X10839143Y-15504643D01*
X10824857Y-15533214D01*
X10810571Y-15547500D01*
X10782000Y-15561786D01*
X10724857Y-15561786D01*
X10696286Y-15576071D01*
X10682000Y-15590357D01*
X10667714Y-15618929D01*
X10667714Y-15676071D01*
X10682000Y-15704643D01*
X10696286Y-15718929D01*
X10724857Y-15733214D01*
X10782000Y-15733214D01*
X10810571Y-15718929D01*
X10824857Y-15704643D01*
X10839143Y-15676071D01*
X10839143Y-15618929D01*
X10824857Y-15590357D01*
X10810571Y-15576071D01*
X10782000Y-15561786D01*
X11024857Y-15433214D02*
X11053428Y-15433214D01*
X11082000Y-15447500D01*
X11096286Y-15461786D01*
X11110571Y-15490357D01*
X11124857Y-15547500D01*
X11124857Y-15618929D01*
X11110571Y-15676071D01*
X11096286Y-15704643D01*
X11082000Y-15718929D01*
X11053428Y-15733214D01*
X11024857Y-15733214D01*
X10996286Y-15718929D01*
X10982000Y-15704643D01*
X10967714Y-15676071D01*
X10953428Y-15618929D01*
X10953428Y-15547500D01*
X10967714Y-15490357D01*
X10982000Y-15461786D01*
X10996286Y-15447500D01*
X11024857Y-15433214D01*
X11310571Y-15433214D02*
X11339143Y-15433214D01*
X11367714Y-15447500D01*
X11382000Y-15461786D01*
X11396286Y-15490357D01*
X11410571Y-15547500D01*
X11410571Y-15618929D01*
X11396286Y-15676071D01*
X11382000Y-15704643D01*
X11367714Y-15718929D01*
X11339143Y-15733214D01*
X11310571Y-15733214D01*
X11282000Y-15718929D01*
X11267714Y-15704643D01*
X11253428Y-15676071D01*
X11239143Y-15618929D01*
X11239143Y-15547500D01*
X11253428Y-15490357D01*
X11267714Y-15461786D01*
X11282000Y-15447500D01*
X11310571Y-15433214D01*
X11539143Y-15733214D02*
X11539143Y-15533214D01*
X11539143Y-15561786D02*
X11553428Y-15547500D01*
X11582000Y-15533214D01*
X11624857Y-15533214D01*
X11653428Y-15547500D01*
X11667714Y-15576071D01*
X11667714Y-15733214D01*
X11667714Y-15576071D02*
X11682000Y-15547500D01*
X11710571Y-15533214D01*
X11753428Y-15533214D01*
X11782000Y-15547500D01*
X11796286Y-15576071D01*
X11796286Y-15733214D01*
X11939143Y-15733214D02*
X11939143Y-15533214D01*
X11939143Y-15561786D02*
X11953428Y-15547500D01*
X11982000Y-15533214D01*
X12024857Y-15533214D01*
X12053428Y-15547500D01*
X12067714Y-15576071D01*
X12067714Y-15733214D01*
X12067714Y-15576071D02*
X12082000Y-15547500D01*
X12110571Y-15533214D01*
X12153428Y-15533214D01*
X12182000Y-15547500D01*
X12196286Y-15576071D01*
X12196286Y-15733214D01*
X12782000Y-15418929D02*
X12524857Y-15804643D01*
X13167714Y-15433214D02*
X13196286Y-15433214D01*
X13224857Y-15447500D01*
X13239143Y-15461786D01*
X13253428Y-15490357D01*
X13267714Y-15547500D01*
X13267714Y-15618929D01*
X13253428Y-15676071D01*
X13239143Y-15704643D01*
X13224857Y-15718929D01*
X13196286Y-15733214D01*
X13167714Y-15733214D01*
X13139143Y-15718929D01*
X13124857Y-15704643D01*
X13110571Y-15676071D01*
X13096286Y-15618929D01*
X13096286Y-15547500D01*
X13110571Y-15490357D01*
X13124857Y-15461786D01*
X13139143Y-15447500D01*
X13167714Y-15433214D01*
X13396286Y-15704643D02*
X13410571Y-15718929D01*
X13396286Y-15733214D01*
X13382000Y-15718929D01*
X13396286Y-15704643D01*
X13396286Y-15733214D01*
X13596286Y-15433214D02*
X13624857Y-15433214D01*
X13653428Y-15447500D01*
X13667714Y-15461786D01*
X13682000Y-15490357D01*
X13696286Y-15547500D01*
X13696286Y-15618929D01*
X13682000Y-15676071D01*
X13667714Y-15704643D01*
X13653428Y-15718929D01*
X13624857Y-15733214D01*
X13596286Y-15733214D01*
X13567714Y-15718929D01*
X13553428Y-15704643D01*
X13539143Y-15676071D01*
X13524857Y-15618929D01*
X13524857Y-15547500D01*
X13539143Y-15490357D01*
X13553428Y-15461786D01*
X13567714Y-15447500D01*
X13596286Y-15433214D01*
X13796286Y-15433214D02*
X13982000Y-15433214D01*
X13882000Y-15547500D01*
X13924857Y-15547500D01*
X13953428Y-15561786D01*
X13967714Y-15576071D01*
X13982000Y-15604643D01*
X13982000Y-15676071D01*
X13967714Y-15704643D01*
X13953428Y-15718929D01*
X13924857Y-15733214D01*
X13839143Y-15733214D01*
X13810571Y-15718929D01*
X13796286Y-15704643D01*
X14267714Y-15733214D02*
X14096286Y-15733214D01*
X14182000Y-15733214D02*
X14182000Y-15433214D01*
X14153428Y-15476071D01*
X14124857Y-15504643D01*
X14096286Y-15518929D01*
X14539143Y-15433214D02*
X14396286Y-15433214D01*
X14382000Y-15576071D01*
X14396286Y-15561786D01*
X14424857Y-15547500D01*
X14496286Y-15547500D01*
X14524857Y-15561786D01*
X14539143Y-15576071D01*
X14553428Y-15604643D01*
X14553428Y-15676071D01*
X14539143Y-15704643D01*
X14524857Y-15718929D01*
X14496286Y-15733214D01*
X14424857Y-15733214D01*
X14396286Y-15718929D01*
X14382000Y-15704643D01*
X14667714Y-15433214D02*
X14667714Y-15490357D01*
X14782000Y-15433214D02*
X14782000Y-15490357D01*
X15224857Y-15847500D02*
X15210571Y-15833214D01*
X15182000Y-15790357D01*
X15167714Y-15761786D01*
X15153428Y-15718929D01*
X15139143Y-15647500D01*
X15139143Y-15590357D01*
X15153428Y-15518929D01*
X15167714Y-15476071D01*
X15182000Y-15447500D01*
X15210571Y-15404643D01*
X15224857Y-15390357D01*
X15467714Y-15533214D02*
X15467714Y-15733214D01*
X15396286Y-15418929D02*
X15324857Y-15633214D01*
X15510571Y-15633214D01*
X15853428Y-15733214D02*
X15853428Y-15433214D01*
X15982000Y-15733214D02*
X15982000Y-15576071D01*
X15967714Y-15547500D01*
X15939143Y-15533214D01*
X15896286Y-15533214D01*
X15867714Y-15547500D01*
X15853428Y-15561786D01*
X16167714Y-15733214D02*
X16139143Y-15718929D01*
X16124857Y-15704643D01*
X16110571Y-15676071D01*
X16110571Y-15590357D01*
X16124857Y-15561786D01*
X16139143Y-15547500D01*
X16167714Y-15533214D01*
X16210571Y-15533214D01*
X16239143Y-15547500D01*
X16253428Y-15561786D01*
X16267714Y-15590357D01*
X16267714Y-15676071D01*
X16253428Y-15704643D01*
X16239143Y-15718929D01*
X16210571Y-15733214D01*
X16167714Y-15733214D01*
X16439143Y-15733214D02*
X16410571Y-15718929D01*
X16396286Y-15690357D01*
X16396286Y-15433214D01*
X16667714Y-15718929D02*
X16639143Y-15733214D01*
X16582000Y-15733214D01*
X16553428Y-15718929D01*
X16539143Y-15690357D01*
X16539143Y-15576071D01*
X16553428Y-15547500D01*
X16582000Y-15533214D01*
X16639143Y-15533214D01*
X16667714Y-15547500D01*
X16682000Y-15576071D01*
X16682000Y-15604643D01*
X16539143Y-15633214D01*
X16796286Y-15718929D02*
X16824857Y-15733214D01*
X16882000Y-15733214D01*
X16910571Y-15718929D01*
X16924857Y-15690357D01*
X16924857Y-15676071D01*
X16910571Y-15647500D01*
X16882000Y-15633214D01*
X16839143Y-15633214D01*
X16810571Y-15618929D01*
X16796286Y-15590357D01*
X16796286Y-15576071D01*
X16810571Y-15547500D01*
X16839143Y-15533214D01*
X16882000Y-15533214D01*
X16910571Y-15547500D01*
X17024857Y-15847500D02*
X17039143Y-15833214D01*
X17067714Y-15790357D01*
X17082000Y-15761786D01*
X17096286Y-15718929D01*
X17110571Y-15647500D01*
X17110571Y-15590357D01*
X17096286Y-15518929D01*
X17082000Y-15476071D01*
X17067714Y-15447500D01*
X17039143Y-15404643D01*
X17024857Y-15390357D01*
X9953981Y-16024931D02*
X9953981Y-15962069D01*
X9891119Y-15962069D01*
X9891119Y-16024931D01*
X9953981Y-16024931D01*
X10310571Y-15829214D02*
X10339143Y-15829214D01*
X10367714Y-15843500D01*
X10382000Y-15857786D01*
X10396286Y-15886357D01*
X10410571Y-15943500D01*
X10410571Y-16014929D01*
X10396286Y-16072071D01*
X10382000Y-16100643D01*
X10367714Y-16114929D01*
X10339143Y-16129214D01*
X10310571Y-16129214D01*
X10282000Y-16114929D01*
X10267714Y-16100643D01*
X10253428Y-16072071D01*
X10239143Y-16014929D01*
X10239143Y-15943500D01*
X10253428Y-15886357D01*
X10267714Y-15857786D01*
X10282000Y-15843500D01*
X10310571Y-15829214D01*
X10539143Y-16100643D02*
X10553428Y-16114929D01*
X10539143Y-16129214D01*
X10524857Y-16114929D01*
X10539143Y-16100643D01*
X10539143Y-16129214D01*
X10724857Y-15957786D02*
X10696286Y-15943500D01*
X10682000Y-15929214D01*
X10667714Y-15900643D01*
X10667714Y-15886357D01*
X10682000Y-15857786D01*
X10696286Y-15843500D01*
X10724857Y-15829214D01*
X10782000Y-15829214D01*
X10810571Y-15843500D01*
X10824857Y-15857786D01*
X10839143Y-15886357D01*
X10839143Y-15900643D01*
X10824857Y-15929214D01*
X10810571Y-15943500D01*
X10782000Y-15957786D01*
X10724857Y-15957786D01*
X10696286Y-15972071D01*
X10682000Y-15986357D01*
X10667714Y-16014929D01*
X10667714Y-16072071D01*
X10682000Y-16100643D01*
X10696286Y-16114929D01*
X10724857Y-16129214D01*
X10782000Y-16129214D01*
X10810571Y-16114929D01*
X10824857Y-16100643D01*
X10839143Y-16072071D01*
X10839143Y-16014929D01*
X10824857Y-15986357D01*
X10810571Y-15972071D01*
X10782000Y-15957786D01*
X11010571Y-15957786D02*
X10982000Y-15943500D01*
X10967714Y-15929214D01*
X10953428Y-15900643D01*
X10953428Y-15886357D01*
X10967714Y-15857786D01*
X10982000Y-15843500D01*
X11010571Y-15829214D01*
X11067714Y-15829214D01*
X11096286Y-15843500D01*
X11110571Y-15857786D01*
X11124857Y-15886357D01*
X11124857Y-15900643D01*
X11110571Y-15929214D01*
X11096286Y-15943500D01*
X11067714Y-15957786D01*
X11010571Y-15957786D01*
X10982000Y-15972071D01*
X10967714Y-15986357D01*
X10953428Y-16014929D01*
X10953428Y-16072071D01*
X10967714Y-16100643D01*
X10982000Y-16114929D01*
X11010571Y-16129214D01*
X11067714Y-16129214D01*
X11096286Y-16114929D01*
X11110571Y-16100643D01*
X11124857Y-16072071D01*
X11124857Y-16014929D01*
X11110571Y-15986357D01*
X11096286Y-15972071D01*
X11067714Y-15957786D01*
X11267714Y-16129214D02*
X11324857Y-16129214D01*
X11353428Y-16114929D01*
X11367714Y-16100643D01*
X11396286Y-16057786D01*
X11410571Y-16000643D01*
X11410571Y-15886357D01*
X11396286Y-15857786D01*
X11382000Y-15843500D01*
X11353428Y-15829214D01*
X11296286Y-15829214D01*
X11267714Y-15843500D01*
X11253428Y-15857786D01*
X11239143Y-15886357D01*
X11239143Y-15957786D01*
X11253428Y-15986357D01*
X11267714Y-16000643D01*
X11296286Y-16014929D01*
X11353428Y-16014929D01*
X11382000Y-16000643D01*
X11396286Y-15986357D01*
X11410571Y-15957786D01*
X11539143Y-16129214D02*
X11539143Y-15929214D01*
X11539143Y-15957786D02*
X11553428Y-15943500D01*
X11582000Y-15929214D01*
X11624857Y-15929214D01*
X11653428Y-15943500D01*
X11667714Y-15972071D01*
X11667714Y-16129214D01*
X11667714Y-15972071D02*
X11682000Y-15943500D01*
X11710571Y-15929214D01*
X11753428Y-15929214D01*
X11782000Y-15943500D01*
X11796286Y-15972071D01*
X11796286Y-16129214D01*
X11939143Y-16129214D02*
X11939143Y-15929214D01*
X11939143Y-15957786D02*
X11953428Y-15943500D01*
X11982000Y-15929214D01*
X12024857Y-15929214D01*
X12053428Y-15943500D01*
X12067714Y-15972071D01*
X12067714Y-16129214D01*
X12067714Y-15972071D02*
X12082000Y-15943500D01*
X12110571Y-15929214D01*
X12153428Y-15929214D01*
X12182000Y-15943500D01*
X12196286Y-15972071D01*
X12196286Y-16129214D01*
X12782000Y-15814929D02*
X12524857Y-16200643D01*
X13167714Y-15829214D02*
X13196286Y-15829214D01*
X13224857Y-15843500D01*
X13239143Y-15857786D01*
X13253428Y-15886357D01*
X13267714Y-15943500D01*
X13267714Y-16014929D01*
X13253428Y-16072071D01*
X13239143Y-16100643D01*
X13224857Y-16114929D01*
X13196286Y-16129214D01*
X13167714Y-16129214D01*
X13139143Y-16114929D01*
X13124857Y-16100643D01*
X13110571Y-16072071D01*
X13096286Y-16014929D01*
X13096286Y-15943500D01*
X13110571Y-15886357D01*
X13124857Y-15857786D01*
X13139143Y-15843500D01*
X13167714Y-15829214D01*
X13396286Y-16100643D02*
X13410571Y-16114929D01*
X13396286Y-16129214D01*
X13382000Y-16114929D01*
X13396286Y-16100643D01*
X13396286Y-16129214D01*
X13596286Y-15829214D02*
X13624857Y-15829214D01*
X13653428Y-15843500D01*
X13667714Y-15857786D01*
X13682000Y-15886357D01*
X13696286Y-15943500D01*
X13696286Y-16014929D01*
X13682000Y-16072071D01*
X13667714Y-16100643D01*
X13653428Y-16114929D01*
X13624857Y-16129214D01*
X13596286Y-16129214D01*
X13567714Y-16114929D01*
X13553428Y-16100643D01*
X13539143Y-16072071D01*
X13524857Y-16014929D01*
X13524857Y-15943500D01*
X13539143Y-15886357D01*
X13553428Y-15857786D01*
X13567714Y-15843500D01*
X13596286Y-15829214D01*
X13796286Y-15829214D02*
X13982000Y-15829214D01*
X13882000Y-15943500D01*
X13924857Y-15943500D01*
X13953428Y-15957786D01*
X13967714Y-15972071D01*
X13982000Y-16000643D01*
X13982000Y-16072071D01*
X13967714Y-16100643D01*
X13953428Y-16114929D01*
X13924857Y-16129214D01*
X13839143Y-16129214D01*
X13810571Y-16114929D01*
X13796286Y-16100643D01*
X14253428Y-15829214D02*
X14110571Y-15829214D01*
X14096286Y-15972071D01*
X14110571Y-15957786D01*
X14139143Y-15943500D01*
X14210571Y-15943500D01*
X14239143Y-15957786D01*
X14253428Y-15972071D01*
X14267714Y-16000643D01*
X14267714Y-16072071D01*
X14253428Y-16100643D01*
X14239143Y-16114929D01*
X14210571Y-16129214D01*
X14139143Y-16129214D01*
X14110571Y-16114929D01*
X14096286Y-16100643D01*
X14453428Y-15829214D02*
X14482000Y-15829214D01*
X14510571Y-15843500D01*
X14524857Y-15857786D01*
X14539143Y-15886357D01*
X14553428Y-15943500D01*
X14553428Y-16014929D01*
X14539143Y-16072071D01*
X14524857Y-16100643D01*
X14510571Y-16114929D01*
X14482000Y-16129214D01*
X14453428Y-16129214D01*
X14424857Y-16114929D01*
X14410571Y-16100643D01*
X14396286Y-16072071D01*
X14382000Y-16014929D01*
X14382000Y-15943500D01*
X14396286Y-15886357D01*
X14410571Y-15857786D01*
X14424857Y-15843500D01*
X14453428Y-15829214D01*
X14667714Y-15829214D02*
X14667714Y-15886357D01*
X14782000Y-15829214D02*
X14782000Y-15886357D01*
X15224857Y-16243500D02*
X15210571Y-16229214D01*
X15182000Y-16186357D01*
X15167714Y-16157786D01*
X15153428Y-16114929D01*
X15139143Y-16043500D01*
X15139143Y-15986357D01*
X15153428Y-15914929D01*
X15167714Y-15872071D01*
X15182000Y-15843500D01*
X15210571Y-15800643D01*
X15224857Y-15786357D01*
X15496286Y-16129214D02*
X15324857Y-16129214D01*
X15410571Y-16129214D02*
X15410571Y-15829214D01*
X15382000Y-15872071D01*
X15353428Y-15900643D01*
X15324857Y-15914929D01*
X15610571Y-15857786D02*
X15624857Y-15843500D01*
X15653428Y-15829214D01*
X15724857Y-15829214D01*
X15753428Y-15843500D01*
X15767714Y-15857786D01*
X15782000Y-15886357D01*
X15782000Y-15914929D01*
X15767714Y-15957786D01*
X15596286Y-16129214D01*
X15782000Y-16129214D01*
X16139143Y-16129214D02*
X16139143Y-15829214D01*
X16267714Y-16129214D02*
X16267714Y-15972071D01*
X16253428Y-15943500D01*
X16224857Y-15929214D01*
X16182000Y-15929214D01*
X16153428Y-15943500D01*
X16139143Y-15957786D01*
X16453428Y-16129214D02*
X16424857Y-16114929D01*
X16410571Y-16100643D01*
X16396286Y-16072071D01*
X16396286Y-15986357D01*
X16410571Y-15957786D01*
X16424857Y-15943500D01*
X16453428Y-15929214D01*
X16496286Y-15929214D01*
X16524857Y-15943500D01*
X16539143Y-15957786D01*
X16553428Y-15986357D01*
X16553428Y-16072071D01*
X16539143Y-16100643D01*
X16524857Y-16114929D01*
X16496286Y-16129214D01*
X16453428Y-16129214D01*
X16724857Y-16129214D02*
X16696286Y-16114929D01*
X16682000Y-16086357D01*
X16682000Y-15829214D01*
X16953428Y-16114929D02*
X16924857Y-16129214D01*
X16867714Y-16129214D01*
X16839143Y-16114929D01*
X16824857Y-16086357D01*
X16824857Y-15972071D01*
X16839143Y-15943500D01*
X16867714Y-15929214D01*
X16924857Y-15929214D01*
X16953428Y-15943500D01*
X16967714Y-15972071D01*
X16967714Y-16000643D01*
X16824857Y-16029214D01*
X17082000Y-16114929D02*
X17110571Y-16129214D01*
X17167714Y-16129214D01*
X17196286Y-16114929D01*
X17210571Y-16086357D01*
X17210571Y-16072071D01*
X17196286Y-16043500D01*
X17167714Y-16029214D01*
X17124857Y-16029214D01*
X17096286Y-16014929D01*
X17082000Y-15986357D01*
X17082000Y-15972071D01*
X17096286Y-15943500D01*
X17124857Y-15929214D01*
X17167714Y-15929214D01*
X17196286Y-15943500D01*
X17310571Y-16243500D02*
X17324857Y-16229214D01*
X17353428Y-16186357D01*
X17367714Y-16157786D01*
X17382000Y-16114929D01*
X17396286Y-16043500D01*
X17396286Y-15986357D01*
X17382000Y-15914929D01*
X17367714Y-15872071D01*
X17353428Y-15843500D01*
X17324857Y-15800643D01*
X17310571Y-15786357D01*
X9922000Y-16434500D02*
X9967000Y-16389500D01*
X9922000Y-16344500D01*
X9877000Y-16389500D01*
X9922000Y-16434500D01*
X10310571Y-16225214D02*
X10339143Y-16225214D01*
X10367714Y-16239500D01*
X10382000Y-16253786D01*
X10396286Y-16282357D01*
X10410571Y-16339500D01*
X10410571Y-16410929D01*
X10396286Y-16468071D01*
X10382000Y-16496643D01*
X10367714Y-16510929D01*
X10339143Y-16525214D01*
X10310571Y-16525214D01*
X10282000Y-16510929D01*
X10267714Y-16496643D01*
X10253428Y-16468071D01*
X10239143Y-16410929D01*
X10239143Y-16339500D01*
X10253428Y-16282357D01*
X10267714Y-16253786D01*
X10282000Y-16239500D01*
X10310571Y-16225214D01*
X10539143Y-16496643D02*
X10553428Y-16510929D01*
X10539143Y-16525214D01*
X10524857Y-16510929D01*
X10539143Y-16496643D01*
X10539143Y-16525214D01*
X10696286Y-16525214D02*
X10753428Y-16525214D01*
X10782000Y-16510929D01*
X10796286Y-16496643D01*
X10824857Y-16453786D01*
X10839143Y-16396643D01*
X10839143Y-16282357D01*
X10824857Y-16253786D01*
X10810571Y-16239500D01*
X10782000Y-16225214D01*
X10724857Y-16225214D01*
X10696286Y-16239500D01*
X10682000Y-16253786D01*
X10667714Y-16282357D01*
X10667714Y-16353786D01*
X10682000Y-16382357D01*
X10696286Y-16396643D01*
X10724857Y-16410929D01*
X10782000Y-16410929D01*
X10810571Y-16396643D01*
X10824857Y-16382357D01*
X10839143Y-16353786D01*
X11024857Y-16225214D02*
X11053428Y-16225214D01*
X11082000Y-16239500D01*
X11096286Y-16253786D01*
X11110571Y-16282357D01*
X11124857Y-16339500D01*
X11124857Y-16410929D01*
X11110571Y-16468071D01*
X11096286Y-16496643D01*
X11082000Y-16510929D01*
X11053428Y-16525214D01*
X11024857Y-16525214D01*
X10996286Y-16510929D01*
X10982000Y-16496643D01*
X10967714Y-16468071D01*
X10953428Y-16410929D01*
X10953428Y-16339500D01*
X10967714Y-16282357D01*
X10982000Y-16253786D01*
X10996286Y-16239500D01*
X11024857Y-16225214D01*
X11310571Y-16225214D02*
X11339143Y-16225214D01*
X11367714Y-16239500D01*
X11382000Y-16253786D01*
X11396286Y-16282357D01*
X11410571Y-16339500D01*
X11410571Y-16410929D01*
X11396286Y-16468071D01*
X11382000Y-16496643D01*
X11367714Y-16510929D01*
X11339143Y-16525214D01*
X11310571Y-16525214D01*
X11282000Y-16510929D01*
X11267714Y-16496643D01*
X11253428Y-16468071D01*
X11239143Y-16410929D01*
X11239143Y-16339500D01*
X11253428Y-16282357D01*
X11267714Y-16253786D01*
X11282000Y-16239500D01*
X11310571Y-16225214D01*
X11539143Y-16525214D02*
X11539143Y-16325214D01*
X11539143Y-16353786D02*
X11553428Y-16339500D01*
X11582000Y-16325214D01*
X11624857Y-16325214D01*
X11653428Y-16339500D01*
X11667714Y-16368071D01*
X11667714Y-16525214D01*
X11667714Y-16368071D02*
X11682000Y-16339500D01*
X11710571Y-16325214D01*
X11753428Y-16325214D01*
X11782000Y-16339500D01*
X11796286Y-16368071D01*
X11796286Y-16525214D01*
X11939143Y-16525214D02*
X11939143Y-16325214D01*
X11939143Y-16353786D02*
X11953428Y-16339500D01*
X11982000Y-16325214D01*
X12024857Y-16325214D01*
X12053428Y-16339500D01*
X12067714Y-16368071D01*
X12067714Y-16525214D01*
X12067714Y-16368071D02*
X12082000Y-16339500D01*
X12110571Y-16325214D01*
X12153428Y-16325214D01*
X12182000Y-16339500D01*
X12196286Y-16368071D01*
X12196286Y-16525214D01*
X12782000Y-16210929D02*
X12524857Y-16596643D01*
X13167714Y-16225214D02*
X13196286Y-16225214D01*
X13224857Y-16239500D01*
X13239143Y-16253786D01*
X13253428Y-16282357D01*
X13267714Y-16339500D01*
X13267714Y-16410929D01*
X13253428Y-16468071D01*
X13239143Y-16496643D01*
X13224857Y-16510929D01*
X13196286Y-16525214D01*
X13167714Y-16525214D01*
X13139143Y-16510929D01*
X13124857Y-16496643D01*
X13110571Y-16468071D01*
X13096286Y-16410929D01*
X13096286Y-16339500D01*
X13110571Y-16282357D01*
X13124857Y-16253786D01*
X13139143Y-16239500D01*
X13167714Y-16225214D01*
X13396286Y-16496643D02*
X13410571Y-16510929D01*
X13396286Y-16525214D01*
X13382000Y-16510929D01*
X13396286Y-16496643D01*
X13396286Y-16525214D01*
X13596286Y-16225214D02*
X13624857Y-16225214D01*
X13653428Y-16239500D01*
X13667714Y-16253786D01*
X13682000Y-16282357D01*
X13696286Y-16339500D01*
X13696286Y-16410929D01*
X13682000Y-16468071D01*
X13667714Y-16496643D01*
X13653428Y-16510929D01*
X13624857Y-16525214D01*
X13596286Y-16525214D01*
X13567714Y-16510929D01*
X13553428Y-16496643D01*
X13539143Y-16468071D01*
X13524857Y-16410929D01*
X13524857Y-16339500D01*
X13539143Y-16282357D01*
X13553428Y-16253786D01*
X13567714Y-16239500D01*
X13596286Y-16225214D01*
X13796286Y-16225214D02*
X13982000Y-16225214D01*
X13882000Y-16339500D01*
X13924857Y-16339500D01*
X13953428Y-16353786D01*
X13967714Y-16368071D01*
X13982000Y-16396643D01*
X13982000Y-16468071D01*
X13967714Y-16496643D01*
X13953428Y-16510929D01*
X13924857Y-16525214D01*
X13839143Y-16525214D01*
X13810571Y-16510929D01*
X13796286Y-16496643D01*
X14253428Y-16225214D02*
X14110571Y-16225214D01*
X14096286Y-16368071D01*
X14110571Y-16353786D01*
X14139143Y-16339500D01*
X14210571Y-16339500D01*
X14239143Y-16353786D01*
X14253428Y-16368071D01*
X14267714Y-16396643D01*
X14267714Y-16468071D01*
X14253428Y-16496643D01*
X14239143Y-16510929D01*
X14210571Y-16525214D01*
X14139143Y-16525214D01*
X14110571Y-16510929D01*
X14096286Y-16496643D01*
X14524857Y-16325214D02*
X14524857Y-16525214D01*
X14453428Y-16210929D02*
X14382000Y-16425214D01*
X14567714Y-16425214D01*
X14667714Y-16225214D02*
X14667714Y-16282357D01*
X14782000Y-16225214D02*
X14782000Y-16282357D01*
X15224857Y-16639500D02*
X15210571Y-16625214D01*
X15182000Y-16582357D01*
X15167714Y-16553786D01*
X15153428Y-16510929D01*
X15139143Y-16439500D01*
X15139143Y-16382357D01*
X15153428Y-16310929D01*
X15167714Y-16268071D01*
X15182000Y-16239500D01*
X15210571Y-16196643D01*
X15224857Y-16182357D01*
X15496286Y-16525214D02*
X15324857Y-16525214D01*
X15410571Y-16525214D02*
X15410571Y-16225214D01*
X15382000Y-16268071D01*
X15353428Y-16296643D01*
X15324857Y-16310929D01*
X15610571Y-16253786D02*
X15624857Y-16239500D01*
X15653428Y-16225214D01*
X15724857Y-16225214D01*
X15753428Y-16239500D01*
X15767714Y-16253786D01*
X15782000Y-16282357D01*
X15782000Y-16310929D01*
X15767714Y-16353786D01*
X15596286Y-16525214D01*
X15782000Y-16525214D01*
X16139143Y-16525214D02*
X16139143Y-16225214D01*
X16267714Y-16525214D02*
X16267714Y-16368071D01*
X16253428Y-16339500D01*
X16224857Y-16325214D01*
X16182000Y-16325214D01*
X16153428Y-16339500D01*
X16139143Y-16353786D01*
X16453428Y-16525214D02*
X16424857Y-16510929D01*
X16410571Y-16496643D01*
X16396286Y-16468071D01*
X16396286Y-16382357D01*
X16410571Y-16353786D01*
X16424857Y-16339500D01*
X16453428Y-16325214D01*
X16496286Y-16325214D01*
X16524857Y-16339500D01*
X16539143Y-16353786D01*
X16553428Y-16382357D01*
X16553428Y-16468071D01*
X16539143Y-16496643D01*
X16524857Y-16510929D01*
X16496286Y-16525214D01*
X16453428Y-16525214D01*
X16724857Y-16525214D02*
X16696286Y-16510929D01*
X16682000Y-16482357D01*
X16682000Y-16225214D01*
X16953428Y-16510929D02*
X16924857Y-16525214D01*
X16867714Y-16525214D01*
X16839143Y-16510929D01*
X16824857Y-16482357D01*
X16824857Y-16368071D01*
X16839143Y-16339500D01*
X16867714Y-16325214D01*
X16924857Y-16325214D01*
X16953428Y-16339500D01*
X16967714Y-16368071D01*
X16967714Y-16396643D01*
X16824857Y-16425214D01*
X17082000Y-16510929D02*
X17110571Y-16525214D01*
X17167714Y-16525214D01*
X17196286Y-16510929D01*
X17210571Y-16482357D01*
X17210571Y-16468071D01*
X17196286Y-16439500D01*
X17167714Y-16425214D01*
X17124857Y-16425214D01*
X17096286Y-16410929D01*
X17082000Y-16382357D01*
X17082000Y-16368071D01*
X17096286Y-16339500D01*
X17124857Y-16325214D01*
X17167714Y-16325214D01*
X17196286Y-16339500D01*
X17310571Y-16639500D02*
X17324857Y-16625214D01*
X17353428Y-16582357D01*
X17367714Y-16553786D01*
X17382000Y-16510929D01*
X17396286Y-16439500D01*
X17396286Y-16382357D01*
X17382000Y-16310929D01*
X17367714Y-16268071D01*
X17353428Y-16239500D01*
X17324857Y-16196643D01*
X17310571Y-16182357D01*
X9875000Y-16739500D02*
X9967000Y-16831500D01*
X9967000Y-16739500D02*
X9875000Y-16831500D01*
X9967000Y-16785500D02*
G75*
G03*
X9967000Y-16785500I-46000J0D01*
G01*
X10310571Y-16621214D02*
X10339143Y-16621214D01*
X10367714Y-16635500D01*
X10382000Y-16649786D01*
X10396286Y-16678357D01*
X10410571Y-16735500D01*
X10410571Y-16806929D01*
X10396286Y-16864072D01*
X10382000Y-16892643D01*
X10367714Y-16906929D01*
X10339143Y-16921214D01*
X10310571Y-16921214D01*
X10282000Y-16906929D01*
X10267714Y-16892643D01*
X10253428Y-16864072D01*
X10239143Y-16806929D01*
X10239143Y-16735500D01*
X10253428Y-16678357D01*
X10267714Y-16649786D01*
X10282000Y-16635500D01*
X10310571Y-16621214D01*
X10539143Y-16892643D02*
X10553428Y-16906929D01*
X10539143Y-16921214D01*
X10524857Y-16906929D01*
X10539143Y-16892643D01*
X10539143Y-16921214D01*
X10696286Y-16921214D02*
X10753428Y-16921214D01*
X10782000Y-16906929D01*
X10796286Y-16892643D01*
X10824857Y-16849786D01*
X10839143Y-16792643D01*
X10839143Y-16678357D01*
X10824857Y-16649786D01*
X10810571Y-16635500D01*
X10782000Y-16621214D01*
X10724857Y-16621214D01*
X10696286Y-16635500D01*
X10682000Y-16649786D01*
X10667714Y-16678357D01*
X10667714Y-16749786D01*
X10682000Y-16778357D01*
X10696286Y-16792643D01*
X10724857Y-16806929D01*
X10782000Y-16806929D01*
X10810571Y-16792643D01*
X10824857Y-16778357D01*
X10839143Y-16749786D01*
X10953428Y-16649786D02*
X10967714Y-16635500D01*
X10996286Y-16621214D01*
X11067714Y-16621214D01*
X11096286Y-16635500D01*
X11110571Y-16649786D01*
X11124857Y-16678357D01*
X11124857Y-16706929D01*
X11110571Y-16749786D01*
X10939143Y-16921214D01*
X11124857Y-16921214D01*
X11310571Y-16621214D02*
X11339143Y-16621214D01*
X11367714Y-16635500D01*
X11382000Y-16649786D01*
X11396286Y-16678357D01*
X11410571Y-16735500D01*
X11410571Y-16806929D01*
X11396286Y-16864072D01*
X11382000Y-16892643D01*
X11367714Y-16906929D01*
X11339143Y-16921214D01*
X11310571Y-16921214D01*
X11282000Y-16906929D01*
X11267714Y-16892643D01*
X11253428Y-16864072D01*
X11239143Y-16806929D01*
X11239143Y-16735500D01*
X11253428Y-16678357D01*
X11267714Y-16649786D01*
X11282000Y-16635500D01*
X11310571Y-16621214D01*
X11539143Y-16921214D02*
X11539143Y-16721214D01*
X11539143Y-16749786D02*
X11553428Y-16735500D01*
X11582000Y-16721214D01*
X11624857Y-16721214D01*
X11653428Y-16735500D01*
X11667714Y-16764071D01*
X11667714Y-16921214D01*
X11667714Y-16764071D02*
X11682000Y-16735500D01*
X11710571Y-16721214D01*
X11753428Y-16721214D01*
X11782000Y-16735500D01*
X11796286Y-16764071D01*
X11796286Y-16921214D01*
X11939143Y-16921214D02*
X11939143Y-16721214D01*
X11939143Y-16749786D02*
X11953428Y-16735500D01*
X11982000Y-16721214D01*
X12024857Y-16721214D01*
X12053428Y-16735500D01*
X12067714Y-16764071D01*
X12067714Y-16921214D01*
X12067714Y-16764071D02*
X12082000Y-16735500D01*
X12110571Y-16721214D01*
X12153428Y-16721214D01*
X12182000Y-16735500D01*
X12196286Y-16764071D01*
X12196286Y-16921214D01*
X12782000Y-16606929D02*
X12524857Y-16992643D01*
X13167714Y-16621214D02*
X13196286Y-16621214D01*
X13224857Y-16635500D01*
X13239143Y-16649786D01*
X13253428Y-16678357D01*
X13267714Y-16735500D01*
X13267714Y-16806929D01*
X13253428Y-16864072D01*
X13239143Y-16892643D01*
X13224857Y-16906929D01*
X13196286Y-16921214D01*
X13167714Y-16921214D01*
X13139143Y-16906929D01*
X13124857Y-16892643D01*
X13110571Y-16864072D01*
X13096286Y-16806929D01*
X13096286Y-16735500D01*
X13110571Y-16678357D01*
X13124857Y-16649786D01*
X13139143Y-16635500D01*
X13167714Y-16621214D01*
X13396286Y-16892643D02*
X13410571Y-16906929D01*
X13396286Y-16921214D01*
X13382000Y-16906929D01*
X13396286Y-16892643D01*
X13396286Y-16921214D01*
X13596286Y-16621214D02*
X13624857Y-16621214D01*
X13653428Y-16635500D01*
X13667714Y-16649786D01*
X13682000Y-16678357D01*
X13696286Y-16735500D01*
X13696286Y-16806929D01*
X13682000Y-16864072D01*
X13667714Y-16892643D01*
X13653428Y-16906929D01*
X13624857Y-16921214D01*
X13596286Y-16921214D01*
X13567714Y-16906929D01*
X13553428Y-16892643D01*
X13539143Y-16864072D01*
X13524857Y-16806929D01*
X13524857Y-16735500D01*
X13539143Y-16678357D01*
X13553428Y-16649786D01*
X13567714Y-16635500D01*
X13596286Y-16621214D01*
X13796286Y-16621214D02*
X13982000Y-16621214D01*
X13882000Y-16735500D01*
X13924857Y-16735500D01*
X13953428Y-16749786D01*
X13967714Y-16764071D01*
X13982000Y-16792643D01*
X13982000Y-16864072D01*
X13967714Y-16892643D01*
X13953428Y-16906929D01*
X13924857Y-16921214D01*
X13839143Y-16921214D01*
X13810571Y-16906929D01*
X13796286Y-16892643D01*
X14239143Y-16621214D02*
X14182000Y-16621214D01*
X14153428Y-16635500D01*
X14139143Y-16649786D01*
X14110571Y-16692643D01*
X14096286Y-16749786D01*
X14096286Y-16864072D01*
X14110571Y-16892643D01*
X14124857Y-16906929D01*
X14153428Y-16921214D01*
X14210571Y-16921214D01*
X14239143Y-16906929D01*
X14253428Y-16892643D01*
X14267714Y-16864072D01*
X14267714Y-16792643D01*
X14253428Y-16764071D01*
X14239143Y-16749786D01*
X14210571Y-16735500D01*
X14153428Y-16735500D01*
X14124857Y-16749786D01*
X14110571Y-16764071D01*
X14096286Y-16792643D01*
X14382000Y-16649786D02*
X14396286Y-16635500D01*
X14424857Y-16621214D01*
X14496286Y-16621214D01*
X14524857Y-16635500D01*
X14539143Y-16649786D01*
X14553428Y-16678357D01*
X14553428Y-16706929D01*
X14539143Y-16749786D01*
X14367714Y-16921214D01*
X14553428Y-16921214D01*
X14667714Y-16621214D02*
X14667714Y-16678357D01*
X14782000Y-16621214D02*
X14782000Y-16678357D01*
X15224857Y-17035500D02*
X15210571Y-17021214D01*
X15182000Y-16978357D01*
X15167714Y-16949786D01*
X15153428Y-16906929D01*
X15139143Y-16835500D01*
X15139143Y-16778357D01*
X15153428Y-16706929D01*
X15167714Y-16664071D01*
X15182000Y-16635500D01*
X15210571Y-16592643D01*
X15224857Y-16578357D01*
X15467714Y-16721214D02*
X15467714Y-16921214D01*
X15396286Y-16606929D02*
X15324857Y-16821214D01*
X15510571Y-16821214D01*
X15853428Y-16921214D02*
X15853428Y-16621214D01*
X15982000Y-16921214D02*
X15982000Y-16764071D01*
X15967714Y-16735500D01*
X15939143Y-16721214D01*
X15896286Y-16721214D01*
X15867714Y-16735500D01*
X15853428Y-16749786D01*
X16167714Y-16921214D02*
X16139143Y-16906929D01*
X16124857Y-16892643D01*
X16110571Y-16864072D01*
X16110571Y-16778357D01*
X16124857Y-16749786D01*
X16139143Y-16735500D01*
X16167714Y-16721214D01*
X16210571Y-16721214D01*
X16239143Y-16735500D01*
X16253428Y-16749786D01*
X16267714Y-16778357D01*
X16267714Y-16864072D01*
X16253428Y-16892643D01*
X16239143Y-16906929D01*
X16210571Y-16921214D01*
X16167714Y-16921214D01*
X16439143Y-16921214D02*
X16410571Y-16906929D01*
X16396286Y-16878357D01*
X16396286Y-16621214D01*
X16667714Y-16906929D02*
X16639143Y-16921214D01*
X16582000Y-16921214D01*
X16553428Y-16906929D01*
X16539143Y-16878357D01*
X16539143Y-16764071D01*
X16553428Y-16735500D01*
X16582000Y-16721214D01*
X16639143Y-16721214D01*
X16667714Y-16735500D01*
X16682000Y-16764071D01*
X16682000Y-16792643D01*
X16539143Y-16821214D01*
X16796286Y-16906929D02*
X16824857Y-16921214D01*
X16882000Y-16921214D01*
X16910571Y-16906929D01*
X16924857Y-16878357D01*
X16924857Y-16864072D01*
X16910571Y-16835500D01*
X16882000Y-16821214D01*
X16839143Y-16821214D01*
X16810571Y-16806929D01*
X16796286Y-16778357D01*
X16796286Y-16764071D01*
X16810571Y-16735500D01*
X16839143Y-16721214D01*
X16882000Y-16721214D01*
X16910571Y-16735500D01*
X17024857Y-17035500D02*
X17039143Y-17021214D01*
X17067714Y-16978357D01*
X17082000Y-16949786D01*
X17096286Y-16906929D01*
X17110571Y-16835500D01*
X17110571Y-16778357D01*
X17096286Y-16706929D01*
X17082000Y-16664071D01*
X17067714Y-16635500D01*
X17039143Y-16592643D01*
X17024857Y-16578357D01*
X9867000Y-17131500D02*
X9967000Y-17231500D01*
X9967000Y-17131500D02*
X9867000Y-17231500D01*
X9917000Y-17131500D02*
X9917000Y-17231500D01*
X9867000Y-17181500D02*
X9967000Y-17181500D01*
X10410571Y-17317214D02*
X10239143Y-17317214D01*
X10324857Y-17317214D02*
X10324857Y-17017214D01*
X10296286Y-17060072D01*
X10267714Y-17088643D01*
X10239143Y-17102929D01*
X10539143Y-17288643D02*
X10553428Y-17302929D01*
X10539143Y-17317214D01*
X10524857Y-17302929D01*
X10539143Y-17288643D01*
X10539143Y-17317214D01*
X10739143Y-17017214D02*
X10767714Y-17017214D01*
X10796286Y-17031500D01*
X10810571Y-17045786D01*
X10824857Y-17074357D01*
X10839143Y-17131500D01*
X10839143Y-17202929D01*
X10824857Y-17260072D01*
X10810571Y-17288643D01*
X10796286Y-17302929D01*
X10767714Y-17317214D01*
X10739143Y-17317214D01*
X10710571Y-17302929D01*
X10696286Y-17288643D01*
X10682000Y-17260072D01*
X10667714Y-17202929D01*
X10667714Y-17131500D01*
X10682000Y-17074357D01*
X10696286Y-17045786D01*
X10710571Y-17031500D01*
X10739143Y-17017214D01*
X11024857Y-17017214D02*
X11053428Y-17017214D01*
X11082000Y-17031500D01*
X11096286Y-17045786D01*
X11110571Y-17074357D01*
X11124857Y-17131500D01*
X11124857Y-17202929D01*
X11110571Y-17260072D01*
X11096286Y-17288643D01*
X11082000Y-17302929D01*
X11053428Y-17317214D01*
X11024857Y-17317214D01*
X10996286Y-17302929D01*
X10982000Y-17288643D01*
X10967714Y-17260072D01*
X10953428Y-17202929D01*
X10953428Y-17131500D01*
X10967714Y-17074357D01*
X10982000Y-17045786D01*
X10996286Y-17031500D01*
X11024857Y-17017214D01*
X11310571Y-17017214D02*
X11339143Y-17017214D01*
X11367714Y-17031500D01*
X11382000Y-17045786D01*
X11396286Y-17074357D01*
X11410571Y-17131500D01*
X11410571Y-17202929D01*
X11396286Y-17260072D01*
X11382000Y-17288643D01*
X11367714Y-17302929D01*
X11339143Y-17317214D01*
X11310571Y-17317214D01*
X11282000Y-17302929D01*
X11267714Y-17288643D01*
X11253428Y-17260072D01*
X11239143Y-17202929D01*
X11239143Y-17131500D01*
X11253428Y-17074357D01*
X11267714Y-17045786D01*
X11282000Y-17031500D01*
X11310571Y-17017214D01*
X11539143Y-17317214D02*
X11539143Y-17117214D01*
X11539143Y-17145786D02*
X11553428Y-17131500D01*
X11582000Y-17117214D01*
X11624857Y-17117214D01*
X11653428Y-17131500D01*
X11667714Y-17160072D01*
X11667714Y-17317214D01*
X11667714Y-17160072D02*
X11682000Y-17131500D01*
X11710571Y-17117214D01*
X11753428Y-17117214D01*
X11782000Y-17131500D01*
X11796286Y-17160072D01*
X11796286Y-17317214D01*
X11939143Y-17317214D02*
X11939143Y-17117214D01*
X11939143Y-17145786D02*
X11953428Y-17131500D01*
X11982000Y-17117214D01*
X12024857Y-17117214D01*
X12053428Y-17131500D01*
X12067714Y-17160072D01*
X12067714Y-17317214D01*
X12067714Y-17160072D02*
X12082000Y-17131500D01*
X12110571Y-17117214D01*
X12153428Y-17117214D01*
X12182000Y-17131500D01*
X12196286Y-17160072D01*
X12196286Y-17317214D01*
X12782000Y-17002929D02*
X12524857Y-17388643D01*
X13167714Y-17017214D02*
X13196286Y-17017214D01*
X13224857Y-17031500D01*
X13239143Y-17045786D01*
X13253428Y-17074357D01*
X13267714Y-17131500D01*
X13267714Y-17202929D01*
X13253428Y-17260072D01*
X13239143Y-17288643D01*
X13224857Y-17302929D01*
X13196286Y-17317214D01*
X13167714Y-17317214D01*
X13139143Y-17302929D01*
X13124857Y-17288643D01*
X13110571Y-17260072D01*
X13096286Y-17202929D01*
X13096286Y-17131500D01*
X13110571Y-17074357D01*
X13124857Y-17045786D01*
X13139143Y-17031500D01*
X13167714Y-17017214D01*
X13396286Y-17288643D02*
X13410571Y-17302929D01*
X13396286Y-17317214D01*
X13382000Y-17302929D01*
X13396286Y-17288643D01*
X13396286Y-17317214D01*
X13596286Y-17017214D02*
X13624857Y-17017214D01*
X13653428Y-17031500D01*
X13667714Y-17045786D01*
X13682000Y-17074357D01*
X13696286Y-17131500D01*
X13696286Y-17202929D01*
X13682000Y-17260072D01*
X13667714Y-17288643D01*
X13653428Y-17302929D01*
X13624857Y-17317214D01*
X13596286Y-17317214D01*
X13567714Y-17302929D01*
X13553428Y-17288643D01*
X13539143Y-17260072D01*
X13524857Y-17202929D01*
X13524857Y-17131500D01*
X13539143Y-17074357D01*
X13553428Y-17045786D01*
X13567714Y-17031500D01*
X13596286Y-17017214D01*
X13796286Y-17017214D02*
X13982000Y-17017214D01*
X13882000Y-17131500D01*
X13924857Y-17131500D01*
X13953428Y-17145786D01*
X13967714Y-17160072D01*
X13982000Y-17188643D01*
X13982000Y-17260072D01*
X13967714Y-17288643D01*
X13953428Y-17302929D01*
X13924857Y-17317214D01*
X13839143Y-17317214D01*
X13810571Y-17302929D01*
X13796286Y-17288643D01*
X14124857Y-17317214D02*
X14182000Y-17317214D01*
X14210571Y-17302929D01*
X14224857Y-17288643D01*
X14253428Y-17245786D01*
X14267714Y-17188643D01*
X14267714Y-17074357D01*
X14253428Y-17045786D01*
X14239143Y-17031500D01*
X14210571Y-17017214D01*
X14153428Y-17017214D01*
X14124857Y-17031500D01*
X14110571Y-17045786D01*
X14096286Y-17074357D01*
X14096286Y-17145786D01*
X14110571Y-17174357D01*
X14124857Y-17188643D01*
X14153428Y-17202929D01*
X14210571Y-17202929D01*
X14239143Y-17188643D01*
X14253428Y-17174357D01*
X14267714Y-17145786D01*
X14524857Y-17117214D02*
X14524857Y-17317214D01*
X14453428Y-17002929D02*
X14382000Y-17217214D01*
X14567714Y-17217214D01*
X14667714Y-17017214D02*
X14667714Y-17074357D01*
X14782000Y-17017214D02*
X14782000Y-17074357D01*
X15224857Y-17431500D02*
X15210571Y-17417214D01*
X15182000Y-17374357D01*
X15167714Y-17345786D01*
X15153428Y-17302929D01*
X15139143Y-17231500D01*
X15139143Y-17174357D01*
X15153428Y-17102929D01*
X15167714Y-17060072D01*
X15182000Y-17031500D01*
X15210571Y-16988643D01*
X15224857Y-16974357D01*
X15382000Y-17145786D02*
X15353428Y-17131500D01*
X15339143Y-17117214D01*
X15324857Y-17088643D01*
X15324857Y-17074357D01*
X15339143Y-17045786D01*
X15353428Y-17031500D01*
X15382000Y-17017214D01*
X15439143Y-17017214D01*
X15467714Y-17031500D01*
X15482000Y-17045786D01*
X15496286Y-17074357D01*
X15496286Y-17088643D01*
X15482000Y-17117214D01*
X15467714Y-17131500D01*
X15439143Y-17145786D01*
X15382000Y-17145786D01*
X15353428Y-17160072D01*
X15339143Y-17174357D01*
X15324857Y-17202929D01*
X15324857Y-17260072D01*
X15339143Y-17288643D01*
X15353428Y-17302929D01*
X15382000Y-17317214D01*
X15439143Y-17317214D01*
X15467714Y-17302929D01*
X15482000Y-17288643D01*
X15496286Y-17260072D01*
X15496286Y-17202929D01*
X15482000Y-17174357D01*
X15467714Y-17160072D01*
X15439143Y-17145786D01*
X15853428Y-17317214D02*
X15853428Y-17017214D01*
X15982000Y-17317214D02*
X15982000Y-17160072D01*
X15967714Y-17131500D01*
X15939143Y-17117214D01*
X15896286Y-17117214D01*
X15867714Y-17131500D01*
X15853428Y-17145786D01*
X16167714Y-17317214D02*
X16139143Y-17302929D01*
X16124857Y-17288643D01*
X16110571Y-17260072D01*
X16110571Y-17174357D01*
X16124857Y-17145786D01*
X16139143Y-17131500D01*
X16167714Y-17117214D01*
X16210571Y-17117214D01*
X16239143Y-17131500D01*
X16253428Y-17145786D01*
X16267714Y-17174357D01*
X16267714Y-17260072D01*
X16253428Y-17288643D01*
X16239143Y-17302929D01*
X16210571Y-17317214D01*
X16167714Y-17317214D01*
X16439143Y-17317214D02*
X16410571Y-17302929D01*
X16396286Y-17274357D01*
X16396286Y-17017214D01*
X16667714Y-17302929D02*
X16639143Y-17317214D01*
X16582000Y-17317214D01*
X16553428Y-17302929D01*
X16539143Y-17274357D01*
X16539143Y-17160072D01*
X16553428Y-17131500D01*
X16582000Y-17117214D01*
X16639143Y-17117214D01*
X16667714Y-17131500D01*
X16682000Y-17160072D01*
X16682000Y-17188643D01*
X16539143Y-17217214D01*
X16796286Y-17302929D02*
X16824857Y-17317214D01*
X16882000Y-17317214D01*
X16910571Y-17302929D01*
X16924857Y-17274357D01*
X16924857Y-17260072D01*
X16910571Y-17231500D01*
X16882000Y-17217214D01*
X16839143Y-17217214D01*
X16810571Y-17202929D01*
X16796286Y-17174357D01*
X16796286Y-17160072D01*
X16810571Y-17131500D01*
X16839143Y-17117214D01*
X16882000Y-17117214D01*
X16910571Y-17131500D01*
X17024857Y-17431500D02*
X17039143Y-17417214D01*
X17067714Y-17374357D01*
X17082000Y-17345786D01*
X17096286Y-17302929D01*
X17110571Y-17231500D01*
X17110571Y-17174357D01*
X17096286Y-17102929D01*
X17082000Y-17060072D01*
X17067714Y-17031500D01*
X17039143Y-16988643D01*
X17024857Y-16974357D01*
X9865000Y-17526500D02*
X9967000Y-17628500D01*
X9967000Y-17526500D02*
X9865000Y-17628500D01*
X9952063Y-17613563D02*
X9952063Y-17541437D01*
X9879937Y-17541437D01*
X9879937Y-17613563D01*
X9952063Y-17613563D01*
X10410571Y-17713214D02*
X10239143Y-17713214D01*
X10324857Y-17713214D02*
X10324857Y-17413214D01*
X10296286Y-17456072D01*
X10267714Y-17484643D01*
X10239143Y-17498929D01*
X10539143Y-17684643D02*
X10553428Y-17698929D01*
X10539143Y-17713214D01*
X10524857Y-17698929D01*
X10539143Y-17684643D01*
X10539143Y-17713214D01*
X10739143Y-17413214D02*
X10767714Y-17413214D01*
X10796286Y-17427500D01*
X10810571Y-17441786D01*
X10824857Y-17470357D01*
X10839143Y-17527500D01*
X10839143Y-17598929D01*
X10824857Y-17656072D01*
X10810571Y-17684643D01*
X10796286Y-17698929D01*
X10767714Y-17713214D01*
X10739143Y-17713214D01*
X10710571Y-17698929D01*
X10696286Y-17684643D01*
X10682000Y-17656072D01*
X10667714Y-17598929D01*
X10667714Y-17527500D01*
X10682000Y-17470357D01*
X10696286Y-17441786D01*
X10710571Y-17427500D01*
X10739143Y-17413214D01*
X10953428Y-17441786D02*
X10967714Y-17427500D01*
X10996286Y-17413214D01*
X11067714Y-17413214D01*
X11096286Y-17427500D01*
X11110571Y-17441786D01*
X11124857Y-17470357D01*
X11124857Y-17498929D01*
X11110571Y-17541786D01*
X10939143Y-17713214D01*
X11124857Y-17713214D01*
X11310571Y-17413214D02*
X11339143Y-17413214D01*
X11367714Y-17427500D01*
X11382000Y-17441786D01*
X11396286Y-17470357D01*
X11410571Y-17527500D01*
X11410571Y-17598929D01*
X11396286Y-17656072D01*
X11382000Y-17684643D01*
X11367714Y-17698929D01*
X11339143Y-17713214D01*
X11310571Y-17713214D01*
X11282000Y-17698929D01*
X11267714Y-17684643D01*
X11253428Y-17656072D01*
X11239143Y-17598929D01*
X11239143Y-17527500D01*
X11253428Y-17470357D01*
X11267714Y-17441786D01*
X11282000Y-17427500D01*
X11310571Y-17413214D01*
X11539143Y-17713214D02*
X11539143Y-17513214D01*
X11539143Y-17541786D02*
X11553428Y-17527500D01*
X11582000Y-17513214D01*
X11624857Y-17513214D01*
X11653428Y-17527500D01*
X11667714Y-17556072D01*
X11667714Y-17713214D01*
X11667714Y-17556072D02*
X11682000Y-17527500D01*
X11710571Y-17513214D01*
X11753428Y-17513214D01*
X11782000Y-17527500D01*
X11796286Y-17556072D01*
X11796286Y-17713214D01*
X11939143Y-17713214D02*
X11939143Y-17513214D01*
X11939143Y-17541786D02*
X11953428Y-17527500D01*
X11982000Y-17513214D01*
X12024857Y-17513214D01*
X12053428Y-17527500D01*
X12067714Y-17556072D01*
X12067714Y-17713214D01*
X12067714Y-17556072D02*
X12082000Y-17527500D01*
X12110571Y-17513214D01*
X12153428Y-17513214D01*
X12182000Y-17527500D01*
X12196286Y-17556072D01*
X12196286Y-17713214D01*
X12782000Y-17398929D02*
X12524857Y-17784643D01*
X13167714Y-17413214D02*
X13196286Y-17413214D01*
X13224857Y-17427500D01*
X13239143Y-17441786D01*
X13253428Y-17470357D01*
X13267714Y-17527500D01*
X13267714Y-17598929D01*
X13253428Y-17656072D01*
X13239143Y-17684643D01*
X13224857Y-17698929D01*
X13196286Y-17713214D01*
X13167714Y-17713214D01*
X13139143Y-17698929D01*
X13124857Y-17684643D01*
X13110571Y-17656072D01*
X13096286Y-17598929D01*
X13096286Y-17527500D01*
X13110571Y-17470357D01*
X13124857Y-17441786D01*
X13139143Y-17427500D01*
X13167714Y-17413214D01*
X13396286Y-17684643D02*
X13410571Y-17698929D01*
X13396286Y-17713214D01*
X13382000Y-17698929D01*
X13396286Y-17684643D01*
X13396286Y-17713214D01*
X13596286Y-17413214D02*
X13624857Y-17413214D01*
X13653428Y-17427500D01*
X13667714Y-17441786D01*
X13682000Y-17470357D01*
X13696286Y-17527500D01*
X13696286Y-17598929D01*
X13682000Y-17656072D01*
X13667714Y-17684643D01*
X13653428Y-17698929D01*
X13624857Y-17713214D01*
X13596286Y-17713214D01*
X13567714Y-17698929D01*
X13553428Y-17684643D01*
X13539143Y-17656072D01*
X13524857Y-17598929D01*
X13524857Y-17527500D01*
X13539143Y-17470357D01*
X13553428Y-17441786D01*
X13567714Y-17427500D01*
X13596286Y-17413214D01*
X13953428Y-17513214D02*
X13953428Y-17713214D01*
X13882000Y-17398929D02*
X13810571Y-17613214D01*
X13996286Y-17613214D01*
X14167714Y-17413214D02*
X14196286Y-17413214D01*
X14224857Y-17427500D01*
X14239143Y-17441786D01*
X14253428Y-17470357D01*
X14267714Y-17527500D01*
X14267714Y-17598929D01*
X14253428Y-17656072D01*
X14239143Y-17684643D01*
X14224857Y-17698929D01*
X14196286Y-17713214D01*
X14167714Y-17713214D01*
X14139143Y-17698929D01*
X14124857Y-17684643D01*
X14110571Y-17656072D01*
X14096286Y-17598929D01*
X14096286Y-17527500D01*
X14110571Y-17470357D01*
X14124857Y-17441786D01*
X14139143Y-17427500D01*
X14167714Y-17413214D01*
X14382000Y-17441786D02*
X14396286Y-17427500D01*
X14424857Y-17413214D01*
X14496286Y-17413214D01*
X14524857Y-17427500D01*
X14539143Y-17441786D01*
X14553428Y-17470357D01*
X14553428Y-17498929D01*
X14539143Y-17541786D01*
X14367714Y-17713214D01*
X14553428Y-17713214D01*
X14667714Y-17413214D02*
X14667714Y-17470357D01*
X14782000Y-17413214D02*
X14782000Y-17470357D01*
X15224857Y-17827500D02*
X15210571Y-17813214D01*
X15182000Y-17770357D01*
X15167714Y-17741786D01*
X15153428Y-17698929D01*
X15139143Y-17627500D01*
X15139143Y-17570357D01*
X15153428Y-17498929D01*
X15167714Y-17456072D01*
X15182000Y-17427500D01*
X15210571Y-17384643D01*
X15224857Y-17370357D01*
X15467714Y-17513214D02*
X15467714Y-17713214D01*
X15396286Y-17398929D02*
X15324857Y-17613214D01*
X15510571Y-17613214D01*
X15596286Y-17413214D02*
X15782000Y-17413214D01*
X15682000Y-17527500D01*
X15724857Y-17527500D01*
X15753428Y-17541786D01*
X15767714Y-17556072D01*
X15782000Y-17584643D01*
X15782000Y-17656072D01*
X15767714Y-17684643D01*
X15753428Y-17698929D01*
X15724857Y-17713214D01*
X15639143Y-17713214D01*
X15610571Y-17698929D01*
X15596286Y-17684643D01*
X16139143Y-17713214D02*
X16139143Y-17413214D01*
X16267714Y-17713214D02*
X16267714Y-17556072D01*
X16253428Y-17527500D01*
X16224857Y-17513214D01*
X16182000Y-17513214D01*
X16153428Y-17527500D01*
X16139143Y-17541786D01*
X16453428Y-17713214D02*
X16424857Y-17698929D01*
X16410571Y-17684643D01*
X16396286Y-17656072D01*
X16396286Y-17570357D01*
X16410571Y-17541786D01*
X16424857Y-17527500D01*
X16453428Y-17513214D01*
X16496286Y-17513214D01*
X16524857Y-17527500D01*
X16539143Y-17541786D01*
X16553428Y-17570357D01*
X16553428Y-17656072D01*
X16539143Y-17684643D01*
X16524857Y-17698929D01*
X16496286Y-17713214D01*
X16453428Y-17713214D01*
X16724857Y-17713214D02*
X16696286Y-17698929D01*
X16682000Y-17670357D01*
X16682000Y-17413214D01*
X16953428Y-17698929D02*
X16924857Y-17713214D01*
X16867714Y-17713214D01*
X16839143Y-17698929D01*
X16824857Y-17670357D01*
X16824857Y-17556072D01*
X16839143Y-17527500D01*
X16867714Y-17513214D01*
X16924857Y-17513214D01*
X16953428Y-17527500D01*
X16967714Y-17556072D01*
X16967714Y-17584643D01*
X16824857Y-17613214D01*
X17082000Y-17698929D02*
X17110571Y-17713214D01*
X17167714Y-17713214D01*
X17196286Y-17698929D01*
X17210571Y-17670357D01*
X17210571Y-17656072D01*
X17196286Y-17627500D01*
X17167714Y-17613214D01*
X17124857Y-17613214D01*
X17096286Y-17598929D01*
X17082000Y-17570357D01*
X17082000Y-17556072D01*
X17096286Y-17527500D01*
X17124857Y-17513214D01*
X17167714Y-17513214D01*
X17196286Y-17527500D01*
X17310571Y-17827500D02*
X17324857Y-17813214D01*
X17353428Y-17770357D01*
X17367714Y-17741786D01*
X17382000Y-17698929D01*
X17396286Y-17627500D01*
X17396286Y-17570357D01*
X17382000Y-17498929D01*
X17367714Y-17456072D01*
X17353428Y-17427500D01*
X17324857Y-17384643D01*
X17310571Y-17370357D01*
X9837000Y-17908500D02*
X9967000Y-18038500D01*
X9967000Y-17908500D02*
X9837000Y-18038500D01*
X9902000Y-18038500D02*
X9967000Y-17973500D01*
X9902000Y-17908500D01*
X9837000Y-17973500D01*
X9902000Y-18038500D01*
X10410571Y-18109214D02*
X10239143Y-18109214D01*
X10324857Y-18109214D02*
X10324857Y-17809214D01*
X10296286Y-17852072D01*
X10267714Y-17880643D01*
X10239143Y-17894929D01*
X10539143Y-18080643D02*
X10553428Y-18094929D01*
X10539143Y-18109214D01*
X10524857Y-18094929D01*
X10539143Y-18080643D01*
X10539143Y-18109214D01*
X10653428Y-17809214D02*
X10839143Y-17809214D01*
X10739143Y-17923500D01*
X10782000Y-17923500D01*
X10810571Y-17937786D01*
X10824857Y-17952072D01*
X10839143Y-17980643D01*
X10839143Y-18052072D01*
X10824857Y-18080643D01*
X10810571Y-18094929D01*
X10782000Y-18109214D01*
X10696286Y-18109214D01*
X10667714Y-18094929D01*
X10653428Y-18080643D01*
X11024857Y-17809214D02*
X11053428Y-17809214D01*
X11082000Y-17823500D01*
X11096286Y-17837786D01*
X11110571Y-17866357D01*
X11124857Y-17923500D01*
X11124857Y-17994929D01*
X11110571Y-18052072D01*
X11096286Y-18080643D01*
X11082000Y-18094929D01*
X11053428Y-18109214D01*
X11024857Y-18109214D01*
X10996286Y-18094929D01*
X10982000Y-18080643D01*
X10967714Y-18052072D01*
X10953428Y-17994929D01*
X10953428Y-17923500D01*
X10967714Y-17866357D01*
X10982000Y-17837786D01*
X10996286Y-17823500D01*
X11024857Y-17809214D01*
X11310571Y-17809214D02*
X11339143Y-17809214D01*
X11367714Y-17823500D01*
X11382000Y-17837786D01*
X11396286Y-17866357D01*
X11410571Y-17923500D01*
X11410571Y-17994929D01*
X11396286Y-18052072D01*
X11382000Y-18080643D01*
X11367714Y-18094929D01*
X11339143Y-18109214D01*
X11310571Y-18109214D01*
X11282000Y-18094929D01*
X11267714Y-18080643D01*
X11253428Y-18052072D01*
X11239143Y-17994929D01*
X11239143Y-17923500D01*
X11253428Y-17866357D01*
X11267714Y-17837786D01*
X11282000Y-17823500D01*
X11310571Y-17809214D01*
X11539143Y-18109214D02*
X11539143Y-17909214D01*
X11539143Y-17937786D02*
X11553428Y-17923500D01*
X11582000Y-17909214D01*
X11624857Y-17909214D01*
X11653428Y-17923500D01*
X11667714Y-17952072D01*
X11667714Y-18109214D01*
X11667714Y-17952072D02*
X11682000Y-17923500D01*
X11710571Y-17909214D01*
X11753428Y-17909214D01*
X11782000Y-17923500D01*
X11796286Y-17952072D01*
X11796286Y-18109214D01*
X11939143Y-18109214D02*
X11939143Y-17909214D01*
X11939143Y-17937786D02*
X11953428Y-17923500D01*
X11982000Y-17909214D01*
X12024857Y-17909214D01*
X12053428Y-17923500D01*
X12067714Y-17952072D01*
X12067714Y-18109214D01*
X12067714Y-17952072D02*
X12082000Y-17923500D01*
X12110571Y-17909214D01*
X12153428Y-17909214D01*
X12182000Y-17923500D01*
X12196286Y-17952072D01*
X12196286Y-18109214D01*
X12782000Y-17794929D02*
X12524857Y-18180643D01*
X13167714Y-17809214D02*
X13196286Y-17809214D01*
X13224857Y-17823500D01*
X13239143Y-17837786D01*
X13253428Y-17866357D01*
X13267714Y-17923500D01*
X13267714Y-17994929D01*
X13253428Y-18052072D01*
X13239143Y-18080643D01*
X13224857Y-18094929D01*
X13196286Y-18109214D01*
X13167714Y-18109214D01*
X13139143Y-18094929D01*
X13124857Y-18080643D01*
X13110571Y-18052072D01*
X13096286Y-17994929D01*
X13096286Y-17923500D01*
X13110571Y-17866357D01*
X13124857Y-17837786D01*
X13139143Y-17823500D01*
X13167714Y-17809214D01*
X13396286Y-18080643D02*
X13410571Y-18094929D01*
X13396286Y-18109214D01*
X13382000Y-18094929D01*
X13396286Y-18080643D01*
X13396286Y-18109214D01*
X13596286Y-17809214D02*
X13624857Y-17809214D01*
X13653428Y-17823500D01*
X13667714Y-17837786D01*
X13682000Y-17866357D01*
X13696286Y-17923500D01*
X13696286Y-17994929D01*
X13682000Y-18052072D01*
X13667714Y-18080643D01*
X13653428Y-18094929D01*
X13624857Y-18109214D01*
X13596286Y-18109214D01*
X13567714Y-18094929D01*
X13553428Y-18080643D01*
X13539143Y-18052072D01*
X13524857Y-17994929D01*
X13524857Y-17923500D01*
X13539143Y-17866357D01*
X13553428Y-17837786D01*
X13567714Y-17823500D01*
X13596286Y-17809214D01*
X13967714Y-17809214D02*
X13824857Y-17809214D01*
X13810571Y-17952072D01*
X13824857Y-17937786D01*
X13853428Y-17923500D01*
X13924857Y-17923500D01*
X13953428Y-17937786D01*
X13967714Y-17952072D01*
X13982000Y-17980643D01*
X13982000Y-18052072D01*
X13967714Y-18080643D01*
X13953428Y-18094929D01*
X13924857Y-18109214D01*
X13853428Y-18109214D01*
X13824857Y-18094929D01*
X13810571Y-18080643D01*
X14267714Y-18109214D02*
X14096286Y-18109214D01*
X14182000Y-18109214D02*
X14182000Y-17809214D01*
X14153428Y-17852072D01*
X14124857Y-17880643D01*
X14096286Y-17894929D01*
X14382000Y-17837786D02*
X14396286Y-17823500D01*
X14424857Y-17809214D01*
X14496286Y-17809214D01*
X14524857Y-17823500D01*
X14539143Y-17837786D01*
X14553428Y-17866357D01*
X14553428Y-17894929D01*
X14539143Y-17937786D01*
X14367714Y-18109214D01*
X14553428Y-18109214D01*
X14667714Y-17809214D02*
X14667714Y-17866357D01*
X14782000Y-17809214D02*
X14782000Y-17866357D01*
X15224857Y-18223500D02*
X15210571Y-18209214D01*
X15182000Y-18166357D01*
X15167714Y-18137786D01*
X15153428Y-18094929D01*
X15139143Y-18023500D01*
X15139143Y-17966357D01*
X15153428Y-17894929D01*
X15167714Y-17852072D01*
X15182000Y-17823500D01*
X15210571Y-17780643D01*
X15224857Y-17766357D01*
X15382000Y-17937786D02*
X15353428Y-17923500D01*
X15339143Y-17909214D01*
X15324857Y-17880643D01*
X15324857Y-17866357D01*
X15339143Y-17837786D01*
X15353428Y-17823500D01*
X15382000Y-17809214D01*
X15439143Y-17809214D01*
X15467714Y-17823500D01*
X15482000Y-17837786D01*
X15496286Y-17866357D01*
X15496286Y-17880643D01*
X15482000Y-17909214D01*
X15467714Y-17923500D01*
X15439143Y-17937786D01*
X15382000Y-17937786D01*
X15353428Y-17952072D01*
X15339143Y-17966357D01*
X15324857Y-17994929D01*
X15324857Y-18052072D01*
X15339143Y-18080643D01*
X15353428Y-18094929D01*
X15382000Y-18109214D01*
X15439143Y-18109214D01*
X15467714Y-18094929D01*
X15482000Y-18080643D01*
X15496286Y-18052072D01*
X15496286Y-17994929D01*
X15482000Y-17966357D01*
X15467714Y-17952072D01*
X15439143Y-17937786D01*
X15853428Y-18109214D02*
X15853428Y-17809214D01*
X15982000Y-18109214D02*
X15982000Y-17952072D01*
X15967714Y-17923500D01*
X15939143Y-17909214D01*
X15896286Y-17909214D01*
X15867714Y-17923500D01*
X15853428Y-17937786D01*
X16167714Y-18109214D02*
X16139143Y-18094929D01*
X16124857Y-18080643D01*
X16110571Y-18052072D01*
X16110571Y-17966357D01*
X16124857Y-17937786D01*
X16139143Y-17923500D01*
X16167714Y-17909214D01*
X16210571Y-17909214D01*
X16239143Y-17923500D01*
X16253428Y-17937786D01*
X16267714Y-17966357D01*
X16267714Y-18052072D01*
X16253428Y-18080643D01*
X16239143Y-18094929D01*
X16210571Y-18109214D01*
X16167714Y-18109214D01*
X16439143Y-18109214D02*
X16410571Y-18094929D01*
X16396286Y-18066357D01*
X16396286Y-17809214D01*
X16667714Y-18094929D02*
X16639143Y-18109214D01*
X16582000Y-18109214D01*
X16553428Y-18094929D01*
X16539143Y-18066357D01*
X16539143Y-17952072D01*
X16553428Y-17923500D01*
X16582000Y-17909214D01*
X16639143Y-17909214D01*
X16667714Y-17923500D01*
X16682000Y-17952072D01*
X16682000Y-17980643D01*
X16539143Y-18009214D01*
X16796286Y-18094929D02*
X16824857Y-18109214D01*
X16882000Y-18109214D01*
X16910571Y-18094929D01*
X16924857Y-18066357D01*
X16924857Y-18052072D01*
X16910571Y-18023500D01*
X16882000Y-18009214D01*
X16839143Y-18009214D01*
X16810571Y-17994929D01*
X16796286Y-17966357D01*
X16796286Y-17952072D01*
X16810571Y-17923500D01*
X16839143Y-17909214D01*
X16882000Y-17909214D01*
X16910571Y-17923500D01*
X17024857Y-18223500D02*
X17039143Y-18209214D01*
X17067714Y-18166357D01*
X17082000Y-18137786D01*
X17096286Y-18094929D01*
X17110571Y-18023500D01*
X17110571Y-17966357D01*
X17096286Y-17894929D01*
X17082000Y-17852072D01*
X17067714Y-17823500D01*
X17039143Y-17780643D01*
X17024857Y-17766357D01*
X9897150Y-18299650D02*
X9897150Y-18439350D01*
X9827300Y-18369500D02*
X9967000Y-18369500D01*
X9967000Y-18369500D02*
G75*
G03*
X9967000Y-18369500I-69850J0D01*
G01*
X10410571Y-18505214D02*
X10239143Y-18505214D01*
X10324857Y-18505214D02*
X10324857Y-18205214D01*
X10296286Y-18248072D01*
X10267714Y-18276643D01*
X10239143Y-18290929D01*
X10539143Y-18476643D02*
X10553428Y-18490929D01*
X10539143Y-18505214D01*
X10524857Y-18490929D01*
X10539143Y-18476643D01*
X10539143Y-18505214D01*
X10653428Y-18205214D02*
X10839143Y-18205214D01*
X10739143Y-18319500D01*
X10782000Y-18319500D01*
X10810571Y-18333786D01*
X10824857Y-18348072D01*
X10839143Y-18376643D01*
X10839143Y-18448072D01*
X10824857Y-18476643D01*
X10810571Y-18490929D01*
X10782000Y-18505214D01*
X10696286Y-18505214D01*
X10667714Y-18490929D01*
X10653428Y-18476643D01*
X10982000Y-18505214D02*
X11039143Y-18505214D01*
X11067714Y-18490929D01*
X11082000Y-18476643D01*
X11110571Y-18433786D01*
X11124857Y-18376643D01*
X11124857Y-18262357D01*
X11110571Y-18233786D01*
X11096286Y-18219500D01*
X11067714Y-18205214D01*
X11010571Y-18205214D01*
X10982000Y-18219500D01*
X10967714Y-18233786D01*
X10953428Y-18262357D01*
X10953428Y-18333786D01*
X10967714Y-18362357D01*
X10982000Y-18376643D01*
X11010571Y-18390929D01*
X11067714Y-18390929D01*
X11096286Y-18376643D01*
X11110571Y-18362357D01*
X11124857Y-18333786D01*
X11224857Y-18205214D02*
X11424857Y-18205214D01*
X11296286Y-18505214D01*
X11539143Y-18505214D02*
X11539143Y-18305214D01*
X11539143Y-18333786D02*
X11553428Y-18319500D01*
X11582000Y-18305214D01*
X11624857Y-18305214D01*
X11653428Y-18319500D01*
X11667714Y-18348072D01*
X11667714Y-18505214D01*
X11667714Y-18348072D02*
X11682000Y-18319500D01*
X11710571Y-18305214D01*
X11753428Y-18305214D01*
X11782000Y-18319500D01*
X11796286Y-18348072D01*
X11796286Y-18505214D01*
X11939143Y-18505214D02*
X11939143Y-18305214D01*
X11939143Y-18333786D02*
X11953428Y-18319500D01*
X11982000Y-18305214D01*
X12024857Y-18305214D01*
X12053428Y-18319500D01*
X12067714Y-18348072D01*
X12067714Y-18505214D01*
X12067714Y-18348072D02*
X12082000Y-18319500D01*
X12110571Y-18305214D01*
X12153428Y-18305214D01*
X12182000Y-18319500D01*
X12196286Y-18348072D01*
X12196286Y-18505214D01*
X12782000Y-18190929D02*
X12524857Y-18576643D01*
X13167714Y-18205214D02*
X13196286Y-18205214D01*
X13224857Y-18219500D01*
X13239143Y-18233786D01*
X13253428Y-18262357D01*
X13267714Y-18319500D01*
X13267714Y-18390929D01*
X13253428Y-18448072D01*
X13239143Y-18476643D01*
X13224857Y-18490929D01*
X13196286Y-18505214D01*
X13167714Y-18505214D01*
X13139143Y-18490929D01*
X13124857Y-18476643D01*
X13110571Y-18448072D01*
X13096286Y-18390929D01*
X13096286Y-18319500D01*
X13110571Y-18262357D01*
X13124857Y-18233786D01*
X13139143Y-18219500D01*
X13167714Y-18205214D01*
X13396286Y-18476643D02*
X13410571Y-18490929D01*
X13396286Y-18505214D01*
X13382000Y-18490929D01*
X13396286Y-18476643D01*
X13396286Y-18505214D01*
X13596286Y-18205214D02*
X13624857Y-18205214D01*
X13653428Y-18219500D01*
X13667714Y-18233786D01*
X13682000Y-18262357D01*
X13696286Y-18319500D01*
X13696286Y-18390929D01*
X13682000Y-18448072D01*
X13667714Y-18476643D01*
X13653428Y-18490929D01*
X13624857Y-18505214D01*
X13596286Y-18505214D01*
X13567714Y-18490929D01*
X13553428Y-18476643D01*
X13539143Y-18448072D01*
X13524857Y-18390929D01*
X13524857Y-18319500D01*
X13539143Y-18262357D01*
X13553428Y-18233786D01*
X13567714Y-18219500D01*
X13596286Y-18205214D01*
X13967714Y-18205214D02*
X13824857Y-18205214D01*
X13810571Y-18348072D01*
X13824857Y-18333786D01*
X13853428Y-18319500D01*
X13924857Y-18319500D01*
X13953428Y-18333786D01*
X13967714Y-18348072D01*
X13982000Y-18376643D01*
X13982000Y-18448072D01*
X13967714Y-18476643D01*
X13953428Y-18490929D01*
X13924857Y-18505214D01*
X13853428Y-18505214D01*
X13824857Y-18490929D01*
X13810571Y-18476643D01*
X14253428Y-18205214D02*
X14110571Y-18205214D01*
X14096286Y-18348072D01*
X14110571Y-18333786D01*
X14139143Y-18319500D01*
X14210571Y-18319500D01*
X14239143Y-18333786D01*
X14253428Y-18348072D01*
X14267714Y-18376643D01*
X14267714Y-18448072D01*
X14253428Y-18476643D01*
X14239143Y-18490929D01*
X14210571Y-18505214D01*
X14139143Y-18505214D01*
X14110571Y-18490929D01*
X14096286Y-18476643D01*
X14453428Y-18205214D02*
X14482000Y-18205214D01*
X14510571Y-18219500D01*
X14524857Y-18233786D01*
X14539143Y-18262357D01*
X14553428Y-18319500D01*
X14553428Y-18390929D01*
X14539143Y-18448072D01*
X14524857Y-18476643D01*
X14510571Y-18490929D01*
X14482000Y-18505214D01*
X14453428Y-18505214D01*
X14424857Y-18490929D01*
X14410571Y-18476643D01*
X14396286Y-18448072D01*
X14382000Y-18390929D01*
X14382000Y-18319500D01*
X14396286Y-18262357D01*
X14410571Y-18233786D01*
X14424857Y-18219500D01*
X14453428Y-18205214D01*
X14667714Y-18205214D02*
X14667714Y-18262357D01*
X14782000Y-18205214D02*
X14782000Y-18262357D01*
X15224857Y-18619500D02*
X15210571Y-18605214D01*
X15182000Y-18562357D01*
X15167714Y-18533786D01*
X15153428Y-18490929D01*
X15139143Y-18419500D01*
X15139143Y-18362357D01*
X15153428Y-18290929D01*
X15167714Y-18248072D01*
X15182000Y-18219500D01*
X15210571Y-18176643D01*
X15224857Y-18162357D01*
X15382000Y-18333786D02*
X15353428Y-18319500D01*
X15339143Y-18305214D01*
X15324857Y-18276643D01*
X15324857Y-18262357D01*
X15339143Y-18233786D01*
X15353428Y-18219500D01*
X15382000Y-18205214D01*
X15439143Y-18205214D01*
X15467714Y-18219500D01*
X15482000Y-18233786D01*
X15496286Y-18262357D01*
X15496286Y-18276643D01*
X15482000Y-18305214D01*
X15467714Y-18319500D01*
X15439143Y-18333786D01*
X15382000Y-18333786D01*
X15353428Y-18348072D01*
X15339143Y-18362357D01*
X15324857Y-18390929D01*
X15324857Y-18448072D01*
X15339143Y-18476643D01*
X15353428Y-18490929D01*
X15382000Y-18505214D01*
X15439143Y-18505214D01*
X15467714Y-18490929D01*
X15482000Y-18476643D01*
X15496286Y-18448072D01*
X15496286Y-18390929D01*
X15482000Y-18362357D01*
X15467714Y-18348072D01*
X15439143Y-18333786D01*
X15853428Y-18505214D02*
X15853428Y-18205214D01*
X15982000Y-18505214D02*
X15982000Y-18348072D01*
X15967714Y-18319500D01*
X15939143Y-18305214D01*
X15896286Y-18305214D01*
X15867714Y-18319500D01*
X15853428Y-18333786D01*
X16167714Y-18505214D02*
X16139143Y-18490929D01*
X16124857Y-18476643D01*
X16110571Y-18448072D01*
X16110571Y-18362357D01*
X16124857Y-18333786D01*
X16139143Y-18319500D01*
X16167714Y-18305214D01*
X16210571Y-18305214D01*
X16239143Y-18319500D01*
X16253428Y-18333786D01*
X16267714Y-18362357D01*
X16267714Y-18448072D01*
X16253428Y-18476643D01*
X16239143Y-18490929D01*
X16210571Y-18505214D01*
X16167714Y-18505214D01*
X16439143Y-18505214D02*
X16410571Y-18490929D01*
X16396286Y-18462357D01*
X16396286Y-18205214D01*
X16667714Y-18490929D02*
X16639143Y-18505214D01*
X16582000Y-18505214D01*
X16553428Y-18490929D01*
X16539143Y-18462357D01*
X16539143Y-18348072D01*
X16553428Y-18319500D01*
X16582000Y-18305214D01*
X16639143Y-18305214D01*
X16667714Y-18319500D01*
X16682000Y-18348072D01*
X16682000Y-18376643D01*
X16539143Y-18405214D01*
X16796286Y-18490929D02*
X16824857Y-18505214D01*
X16882000Y-18505214D01*
X16910571Y-18490929D01*
X16924857Y-18462357D01*
X16924857Y-18448072D01*
X16910571Y-18419500D01*
X16882000Y-18405214D01*
X16839143Y-18405214D01*
X16810571Y-18390929D01*
X16796286Y-18362357D01*
X16796286Y-18348072D01*
X16810571Y-18319500D01*
X16839143Y-18305214D01*
X16882000Y-18305214D01*
X16910571Y-18319500D01*
X17024857Y-18619500D02*
X17039143Y-18605214D01*
X17067714Y-18562357D01*
X17082000Y-18533786D01*
X17096286Y-18490929D01*
X17110571Y-18419500D01*
X17110571Y-18362357D01*
X17096286Y-18290929D01*
X17082000Y-18248072D01*
X17067714Y-18219500D01*
X17039143Y-18176643D01*
X17024857Y-18162357D01*
X9934782Y-18843283D02*
X9934782Y-18687718D01*
X9779217Y-18687718D01*
X9779217Y-18843283D01*
X9934782Y-18843283D01*
X9967000Y-18765500D02*
G75*
G03*
X9967000Y-18765500I-110000J0D01*
G01*
X10239143Y-18629786D02*
X10253428Y-18615500D01*
X10282000Y-18601214D01*
X10353428Y-18601214D01*
X10382000Y-18615500D01*
X10396286Y-18629786D01*
X10410571Y-18658357D01*
X10410571Y-18686929D01*
X10396286Y-18729786D01*
X10224857Y-18901214D01*
X10410571Y-18901214D01*
X10539143Y-18872643D02*
X10553428Y-18886929D01*
X10539143Y-18901214D01*
X10524857Y-18886929D01*
X10539143Y-18872643D01*
X10539143Y-18901214D01*
X10667714Y-18629786D02*
X10682000Y-18615500D01*
X10710571Y-18601214D01*
X10782000Y-18601214D01*
X10810571Y-18615500D01*
X10824857Y-18629786D01*
X10839143Y-18658357D01*
X10839143Y-18686929D01*
X10824857Y-18729786D01*
X10653428Y-18901214D01*
X10839143Y-18901214D01*
X11024857Y-18601214D02*
X11053428Y-18601214D01*
X11082000Y-18615500D01*
X11096286Y-18629786D01*
X11110571Y-18658357D01*
X11124857Y-18715500D01*
X11124857Y-18786929D01*
X11110571Y-18844072D01*
X11096286Y-18872643D01*
X11082000Y-18886929D01*
X11053428Y-18901214D01*
X11024857Y-18901214D01*
X10996286Y-18886929D01*
X10982000Y-18872643D01*
X10967714Y-18844072D01*
X10953428Y-18786929D01*
X10953428Y-18715500D01*
X10967714Y-18658357D01*
X10982000Y-18629786D01*
X10996286Y-18615500D01*
X11024857Y-18601214D01*
X11310571Y-18601214D02*
X11339143Y-18601214D01*
X11367714Y-18615500D01*
X11382000Y-18629786D01*
X11396286Y-18658357D01*
X11410571Y-18715500D01*
X11410571Y-18786929D01*
X11396286Y-18844072D01*
X11382000Y-18872643D01*
X11367714Y-18886929D01*
X11339143Y-18901214D01*
X11310571Y-18901214D01*
X11282000Y-18886929D01*
X11267714Y-18872643D01*
X11253428Y-18844072D01*
X11239143Y-18786929D01*
X11239143Y-18715500D01*
X11253428Y-18658357D01*
X11267714Y-18629786D01*
X11282000Y-18615500D01*
X11310571Y-18601214D01*
X11539143Y-18901214D02*
X11539143Y-18701214D01*
X11539143Y-18729786D02*
X11553428Y-18715500D01*
X11582000Y-18701214D01*
X11624857Y-18701214D01*
X11653428Y-18715500D01*
X11667714Y-18744072D01*
X11667714Y-18901214D01*
X11667714Y-18744072D02*
X11682000Y-18715500D01*
X11710571Y-18701214D01*
X11753428Y-18701214D01*
X11782000Y-18715500D01*
X11796286Y-18744072D01*
X11796286Y-18901214D01*
X11939143Y-18901214D02*
X11939143Y-18701214D01*
X11939143Y-18729786D02*
X11953428Y-18715500D01*
X11982000Y-18701214D01*
X12024857Y-18701214D01*
X12053428Y-18715500D01*
X12067714Y-18744072D01*
X12067714Y-18901214D01*
X12067714Y-18744072D02*
X12082000Y-18715500D01*
X12110571Y-18701214D01*
X12153428Y-18701214D01*
X12182000Y-18715500D01*
X12196286Y-18744072D01*
X12196286Y-18901214D01*
X12782000Y-18586929D02*
X12524857Y-18972643D01*
X13167714Y-18601214D02*
X13196286Y-18601214D01*
X13224857Y-18615500D01*
X13239143Y-18629786D01*
X13253428Y-18658357D01*
X13267714Y-18715500D01*
X13267714Y-18786929D01*
X13253428Y-18844072D01*
X13239143Y-18872643D01*
X13224857Y-18886929D01*
X13196286Y-18901214D01*
X13167714Y-18901214D01*
X13139143Y-18886929D01*
X13124857Y-18872643D01*
X13110571Y-18844072D01*
X13096286Y-18786929D01*
X13096286Y-18715500D01*
X13110571Y-18658357D01*
X13124857Y-18629786D01*
X13139143Y-18615500D01*
X13167714Y-18601214D01*
X13396286Y-18872643D02*
X13410571Y-18886929D01*
X13396286Y-18901214D01*
X13382000Y-18886929D01*
X13396286Y-18872643D01*
X13396286Y-18901214D01*
X13596286Y-18601214D02*
X13624857Y-18601214D01*
X13653428Y-18615500D01*
X13667714Y-18629786D01*
X13682000Y-18658357D01*
X13696286Y-18715500D01*
X13696286Y-18786929D01*
X13682000Y-18844072D01*
X13667714Y-18872643D01*
X13653428Y-18886929D01*
X13624857Y-18901214D01*
X13596286Y-18901214D01*
X13567714Y-18886929D01*
X13553428Y-18872643D01*
X13539143Y-18844072D01*
X13524857Y-18786929D01*
X13524857Y-18715500D01*
X13539143Y-18658357D01*
X13553428Y-18629786D01*
X13567714Y-18615500D01*
X13596286Y-18601214D01*
X13867714Y-18729786D02*
X13839143Y-18715500D01*
X13824857Y-18701214D01*
X13810571Y-18672643D01*
X13810571Y-18658357D01*
X13824857Y-18629786D01*
X13839143Y-18615500D01*
X13867714Y-18601214D01*
X13924857Y-18601214D01*
X13953428Y-18615500D01*
X13967714Y-18629786D01*
X13982000Y-18658357D01*
X13982000Y-18672643D01*
X13967714Y-18701214D01*
X13953428Y-18715500D01*
X13924857Y-18729786D01*
X13867714Y-18729786D01*
X13839143Y-18744072D01*
X13824857Y-18758357D01*
X13810571Y-18786929D01*
X13810571Y-18844072D01*
X13824857Y-18872643D01*
X13839143Y-18886929D01*
X13867714Y-18901214D01*
X13924857Y-18901214D01*
X13953428Y-18886929D01*
X13967714Y-18872643D01*
X13982000Y-18844072D01*
X13982000Y-18786929D01*
X13967714Y-18758357D01*
X13953428Y-18744072D01*
X13924857Y-18729786D01*
X14239143Y-18601214D02*
X14182000Y-18601214D01*
X14153428Y-18615500D01*
X14139143Y-18629786D01*
X14110571Y-18672643D01*
X14096286Y-18729786D01*
X14096286Y-18844072D01*
X14110571Y-18872643D01*
X14124857Y-18886929D01*
X14153428Y-18901214D01*
X14210571Y-18901214D01*
X14239143Y-18886929D01*
X14253428Y-18872643D01*
X14267714Y-18844072D01*
X14267714Y-18772643D01*
X14253428Y-18744072D01*
X14239143Y-18729786D01*
X14210571Y-18715500D01*
X14153428Y-18715500D01*
X14124857Y-18729786D01*
X14110571Y-18744072D01*
X14096286Y-18772643D01*
X14524857Y-18601214D02*
X14467714Y-18601214D01*
X14439143Y-18615500D01*
X14424857Y-18629786D01*
X14396286Y-18672643D01*
X14382000Y-18729786D01*
X14382000Y-18844072D01*
X14396286Y-18872643D01*
X14410571Y-18886929D01*
X14439143Y-18901214D01*
X14496286Y-18901214D01*
X14524857Y-18886929D01*
X14539143Y-18872643D01*
X14553428Y-18844072D01*
X14553428Y-18772643D01*
X14539143Y-18744072D01*
X14524857Y-18729786D01*
X14496286Y-18715500D01*
X14439143Y-18715500D01*
X14410571Y-18729786D01*
X14396286Y-18744072D01*
X14382000Y-18772643D01*
X14667714Y-18601214D02*
X14667714Y-18658357D01*
X14782000Y-18601214D02*
X14782000Y-18658357D01*
X15224857Y-19015500D02*
X15210571Y-19001214D01*
X15182000Y-18958357D01*
X15167714Y-18929786D01*
X15153428Y-18886929D01*
X15139143Y-18815500D01*
X15139143Y-18758357D01*
X15153428Y-18686929D01*
X15167714Y-18644072D01*
X15182000Y-18615500D01*
X15210571Y-18572643D01*
X15224857Y-18558357D01*
X15467714Y-18701214D02*
X15467714Y-18901214D01*
X15396286Y-18586929D02*
X15324857Y-18801214D01*
X15510571Y-18801214D01*
X15853428Y-18901214D02*
X15853428Y-18601214D01*
X15982000Y-18901214D02*
X15982000Y-18744072D01*
X15967714Y-18715500D01*
X15939143Y-18701214D01*
X15896286Y-18701214D01*
X15867714Y-18715500D01*
X15853428Y-18729786D01*
X16167714Y-18901214D02*
X16139143Y-18886929D01*
X16124857Y-18872643D01*
X16110571Y-18844072D01*
X16110571Y-18758357D01*
X16124857Y-18729786D01*
X16139143Y-18715500D01*
X16167714Y-18701214D01*
X16210571Y-18701214D01*
X16239143Y-18715500D01*
X16253428Y-18729786D01*
X16267714Y-18758357D01*
X16267714Y-18844072D01*
X16253428Y-18872643D01*
X16239143Y-18886929D01*
X16210571Y-18901214D01*
X16167714Y-18901214D01*
X16439143Y-18901214D02*
X16410571Y-18886929D01*
X16396286Y-18858357D01*
X16396286Y-18601214D01*
X16667714Y-18886929D02*
X16639143Y-18901214D01*
X16582000Y-18901214D01*
X16553428Y-18886929D01*
X16539143Y-18858357D01*
X16539143Y-18744072D01*
X16553428Y-18715500D01*
X16582000Y-18701214D01*
X16639143Y-18701214D01*
X16667714Y-18715500D01*
X16682000Y-18744072D01*
X16682000Y-18772643D01*
X16539143Y-18801214D01*
X16796286Y-18886929D02*
X16824857Y-18901214D01*
X16882000Y-18901214D01*
X16910571Y-18886929D01*
X16924857Y-18858357D01*
X16924857Y-18844072D01*
X16910571Y-18815500D01*
X16882000Y-18801214D01*
X16839143Y-18801214D01*
X16810571Y-18786929D01*
X16796286Y-18758357D01*
X16796286Y-18744072D01*
X16810571Y-18715500D01*
X16839143Y-18701214D01*
X16882000Y-18701214D01*
X16910571Y-18715500D01*
X17024857Y-19015500D02*
X17039143Y-19001214D01*
X17067714Y-18958357D01*
X17082000Y-18929786D01*
X17096286Y-18886929D01*
X17110571Y-18815500D01*
X17110571Y-18758357D01*
X17096286Y-18686929D01*
X17082000Y-18644072D01*
X17067714Y-18615500D01*
X17039143Y-18572643D01*
X17024857Y-18558357D01*
X9854000Y-19274500D02*
X9967000Y-19161500D01*
X9854000Y-19048500D01*
X9741000Y-19161500D01*
X9854000Y-19274500D01*
X9967000Y-19161500D02*
G75*
G03*
X9967000Y-19161500I-113000J0D01*
G01*
X10239143Y-19025786D02*
X10253428Y-19011500D01*
X10282000Y-18997214D01*
X10353428Y-18997214D01*
X10382000Y-19011500D01*
X10396286Y-19025786D01*
X10410571Y-19054357D01*
X10410571Y-19082929D01*
X10396286Y-19125786D01*
X10224857Y-19297214D01*
X10410571Y-19297214D01*
X10539143Y-19268643D02*
X10553428Y-19282929D01*
X10539143Y-19297214D01*
X10524857Y-19282929D01*
X10539143Y-19268643D01*
X10539143Y-19297214D01*
X10667714Y-19025786D02*
X10682000Y-19011500D01*
X10710571Y-18997214D01*
X10782000Y-18997214D01*
X10810571Y-19011500D01*
X10824857Y-19025786D01*
X10839143Y-19054357D01*
X10839143Y-19082929D01*
X10824857Y-19125786D01*
X10653428Y-19297214D01*
X10839143Y-19297214D01*
X11096286Y-18997214D02*
X11039143Y-18997214D01*
X11010571Y-19011500D01*
X10996286Y-19025786D01*
X10967714Y-19068643D01*
X10953428Y-19125786D01*
X10953428Y-19240072D01*
X10967714Y-19268643D01*
X10982000Y-19282929D01*
X11010571Y-19297214D01*
X11067714Y-19297214D01*
X11096286Y-19282929D01*
X11110571Y-19268643D01*
X11124857Y-19240072D01*
X11124857Y-19168643D01*
X11110571Y-19140072D01*
X11096286Y-19125786D01*
X11067714Y-19111500D01*
X11010571Y-19111500D01*
X10982000Y-19125786D01*
X10967714Y-19140072D01*
X10953428Y-19168643D01*
X11310571Y-18997214D02*
X11339143Y-18997214D01*
X11367714Y-19011500D01*
X11382000Y-19025786D01*
X11396286Y-19054357D01*
X11410571Y-19111500D01*
X11410571Y-19182929D01*
X11396286Y-19240072D01*
X11382000Y-19268643D01*
X11367714Y-19282929D01*
X11339143Y-19297214D01*
X11310571Y-19297214D01*
X11282000Y-19282929D01*
X11267714Y-19268643D01*
X11253428Y-19240072D01*
X11239143Y-19182929D01*
X11239143Y-19111500D01*
X11253428Y-19054357D01*
X11267714Y-19025786D01*
X11282000Y-19011500D01*
X11310571Y-18997214D01*
X11539143Y-19297214D02*
X11539143Y-19097214D01*
X11539143Y-19125786D02*
X11553428Y-19111500D01*
X11582000Y-19097214D01*
X11624857Y-19097214D01*
X11653428Y-19111500D01*
X11667714Y-19140072D01*
X11667714Y-19297214D01*
X11667714Y-19140072D02*
X11682000Y-19111500D01*
X11710571Y-19097214D01*
X11753428Y-19097214D01*
X11782000Y-19111500D01*
X11796286Y-19140072D01*
X11796286Y-19297214D01*
X11939143Y-19297214D02*
X11939143Y-19097214D01*
X11939143Y-19125786D02*
X11953428Y-19111500D01*
X11982000Y-19097214D01*
X12024857Y-19097214D01*
X12053428Y-19111500D01*
X12067714Y-19140072D01*
X12067714Y-19297214D01*
X12067714Y-19140072D02*
X12082000Y-19111500D01*
X12110571Y-19097214D01*
X12153428Y-19097214D01*
X12182000Y-19111500D01*
X12196286Y-19140072D01*
X12196286Y-19297214D01*
X12782000Y-18982929D02*
X12524857Y-19368643D01*
X13167714Y-18997214D02*
X13196286Y-18997214D01*
X13224857Y-19011500D01*
X13239143Y-19025786D01*
X13253428Y-19054357D01*
X13267714Y-19111500D01*
X13267714Y-19182929D01*
X13253428Y-19240072D01*
X13239143Y-19268643D01*
X13224857Y-19282929D01*
X13196286Y-19297214D01*
X13167714Y-19297214D01*
X13139143Y-19282929D01*
X13124857Y-19268643D01*
X13110571Y-19240072D01*
X13096286Y-19182929D01*
X13096286Y-19111500D01*
X13110571Y-19054357D01*
X13124857Y-19025786D01*
X13139143Y-19011500D01*
X13167714Y-18997214D01*
X13396286Y-19268643D02*
X13410571Y-19282929D01*
X13396286Y-19297214D01*
X13382000Y-19282929D01*
X13396286Y-19268643D01*
X13396286Y-19297214D01*
X13596286Y-18997214D02*
X13624857Y-18997214D01*
X13653428Y-19011500D01*
X13667714Y-19025786D01*
X13682000Y-19054357D01*
X13696286Y-19111500D01*
X13696286Y-19182929D01*
X13682000Y-19240072D01*
X13667714Y-19268643D01*
X13653428Y-19282929D01*
X13624857Y-19297214D01*
X13596286Y-19297214D01*
X13567714Y-19282929D01*
X13553428Y-19268643D01*
X13539143Y-19240072D01*
X13524857Y-19182929D01*
X13524857Y-19111500D01*
X13539143Y-19054357D01*
X13553428Y-19025786D01*
X13567714Y-19011500D01*
X13596286Y-18997214D01*
X13867714Y-19125786D02*
X13839143Y-19111500D01*
X13824857Y-19097214D01*
X13810571Y-19068643D01*
X13810571Y-19054357D01*
X13824857Y-19025786D01*
X13839143Y-19011500D01*
X13867714Y-18997214D01*
X13924857Y-18997214D01*
X13953428Y-19011500D01*
X13967714Y-19025786D01*
X13982000Y-19054357D01*
X13982000Y-19068643D01*
X13967714Y-19097214D01*
X13953428Y-19111500D01*
X13924857Y-19125786D01*
X13867714Y-19125786D01*
X13839143Y-19140072D01*
X13824857Y-19154357D01*
X13810571Y-19182929D01*
X13810571Y-19240072D01*
X13824857Y-19268643D01*
X13839143Y-19282929D01*
X13867714Y-19297214D01*
X13924857Y-19297214D01*
X13953428Y-19282929D01*
X13967714Y-19268643D01*
X13982000Y-19240072D01*
X13982000Y-19182929D01*
X13967714Y-19154357D01*
X13953428Y-19140072D01*
X13924857Y-19125786D01*
X14124857Y-19297214D02*
X14182000Y-19297214D01*
X14210571Y-19282929D01*
X14224857Y-19268643D01*
X14253428Y-19225786D01*
X14267714Y-19168643D01*
X14267714Y-19054357D01*
X14253428Y-19025786D01*
X14239143Y-19011500D01*
X14210571Y-18997214D01*
X14153428Y-18997214D01*
X14124857Y-19011500D01*
X14110571Y-19025786D01*
X14096286Y-19054357D01*
X14096286Y-19125786D01*
X14110571Y-19154357D01*
X14124857Y-19168643D01*
X14153428Y-19182929D01*
X14210571Y-19182929D01*
X14239143Y-19168643D01*
X14253428Y-19154357D01*
X14267714Y-19125786D01*
X14453428Y-18997214D02*
X14482000Y-18997214D01*
X14510571Y-19011500D01*
X14524857Y-19025786D01*
X14539143Y-19054357D01*
X14553428Y-19111500D01*
X14553428Y-19182929D01*
X14539143Y-19240072D01*
X14524857Y-19268643D01*
X14510571Y-19282929D01*
X14482000Y-19297214D01*
X14453428Y-19297214D01*
X14424857Y-19282929D01*
X14410571Y-19268643D01*
X14396286Y-19240072D01*
X14382000Y-19182929D01*
X14382000Y-19111500D01*
X14396286Y-19054357D01*
X14410571Y-19025786D01*
X14424857Y-19011500D01*
X14453428Y-18997214D01*
X14667714Y-18997214D02*
X14667714Y-19054357D01*
X14782000Y-18997214D02*
X14782000Y-19054357D01*
X15224857Y-19411500D02*
X15210571Y-19397214D01*
X15182000Y-19354357D01*
X15167714Y-19325786D01*
X15153428Y-19282929D01*
X15139143Y-19211500D01*
X15139143Y-19154357D01*
X15153428Y-19082929D01*
X15167714Y-19040072D01*
X15182000Y-19011500D01*
X15210571Y-18968643D01*
X15224857Y-18954357D01*
X15324857Y-19025786D02*
X15339143Y-19011500D01*
X15367714Y-18997214D01*
X15439143Y-18997214D01*
X15467714Y-19011500D01*
X15482000Y-19025786D01*
X15496286Y-19054357D01*
X15496286Y-19082929D01*
X15482000Y-19125786D01*
X15310571Y-19297214D01*
X15496286Y-19297214D01*
X15853428Y-19297214D02*
X15853428Y-18997214D01*
X15982000Y-19297214D02*
X15982000Y-19140072D01*
X15967714Y-19111500D01*
X15939143Y-19097214D01*
X15896286Y-19097214D01*
X15867714Y-19111500D01*
X15853428Y-19125786D01*
X16167714Y-19297214D02*
X16139143Y-19282929D01*
X16124857Y-19268643D01*
X16110571Y-19240072D01*
X16110571Y-19154357D01*
X16124857Y-19125786D01*
X16139143Y-19111500D01*
X16167714Y-19097214D01*
X16210571Y-19097214D01*
X16239143Y-19111500D01*
X16253428Y-19125786D01*
X16267714Y-19154357D01*
X16267714Y-19240072D01*
X16253428Y-19268643D01*
X16239143Y-19282929D01*
X16210571Y-19297214D01*
X16167714Y-19297214D01*
X16439143Y-19297214D02*
X16410571Y-19282929D01*
X16396286Y-19254357D01*
X16396286Y-18997214D01*
X16667714Y-19282929D02*
X16639143Y-19297214D01*
X16582000Y-19297214D01*
X16553428Y-19282929D01*
X16539143Y-19254357D01*
X16539143Y-19140072D01*
X16553428Y-19111500D01*
X16582000Y-19097214D01*
X16639143Y-19097214D01*
X16667714Y-19111500D01*
X16682000Y-19140072D01*
X16682000Y-19168643D01*
X16539143Y-19197214D01*
X16796286Y-19282929D02*
X16824857Y-19297214D01*
X16882000Y-19297214D01*
X16910571Y-19282929D01*
X16924857Y-19254357D01*
X16924857Y-19240072D01*
X16910571Y-19211500D01*
X16882000Y-19197214D01*
X16839143Y-19197214D01*
X16810571Y-19182929D01*
X16796286Y-19154357D01*
X16796286Y-19140072D01*
X16810571Y-19111500D01*
X16839143Y-19097214D01*
X16882000Y-19097214D01*
X16910571Y-19111500D01*
X17024857Y-19411500D02*
X17039143Y-19397214D01*
X17067714Y-19354357D01*
X17082000Y-19325786D01*
X17096286Y-19282929D01*
X17110571Y-19211500D01*
X17110571Y-19154357D01*
X17096286Y-19082929D01*
X17082000Y-19040072D01*
X17067714Y-19011500D01*
X17039143Y-18968643D01*
X17024857Y-18954357D01*
X9892000Y-19482500D02*
X9892000Y-19632500D01*
X9817000Y-19557500D02*
X9967000Y-19557500D01*
X9945033Y-19610534D02*
X9945033Y-19504467D01*
X9838966Y-19504467D01*
X9838966Y-19610534D01*
X9945033Y-19610534D01*
X10410571Y-19693214D02*
X10239143Y-19693214D01*
X10324857Y-19693214D02*
X10324857Y-19393214D01*
X10296286Y-19436072D01*
X10267714Y-19464643D01*
X10239143Y-19478929D01*
X10539143Y-19664643D02*
X10553428Y-19678929D01*
X10539143Y-19693214D01*
X10524857Y-19678929D01*
X10539143Y-19664643D01*
X10539143Y-19693214D01*
X10824857Y-19393214D02*
X10682000Y-19393214D01*
X10667714Y-19536072D01*
X10682000Y-19521786D01*
X10710571Y-19507500D01*
X10782000Y-19507500D01*
X10810571Y-19521786D01*
X10824857Y-19536072D01*
X10839143Y-19564643D01*
X10839143Y-19636072D01*
X10824857Y-19664643D01*
X10810571Y-19678929D01*
X10782000Y-19693214D01*
X10710571Y-19693214D01*
X10682000Y-19678929D01*
X10667714Y-19664643D01*
X11024857Y-19393214D02*
X11053428Y-19393214D01*
X11082000Y-19407500D01*
X11096286Y-19421786D01*
X11110571Y-19450357D01*
X11124857Y-19507500D01*
X11124857Y-19578929D01*
X11110571Y-19636072D01*
X11096286Y-19664643D01*
X11082000Y-19678929D01*
X11053428Y-19693214D01*
X11024857Y-19693214D01*
X10996286Y-19678929D01*
X10982000Y-19664643D01*
X10967714Y-19636072D01*
X10953428Y-19578929D01*
X10953428Y-19507500D01*
X10967714Y-19450357D01*
X10982000Y-19421786D01*
X10996286Y-19407500D01*
X11024857Y-19393214D01*
X11310571Y-19393214D02*
X11339143Y-19393214D01*
X11367714Y-19407500D01*
X11382000Y-19421786D01*
X11396286Y-19450357D01*
X11410571Y-19507500D01*
X11410571Y-19578929D01*
X11396286Y-19636072D01*
X11382000Y-19664643D01*
X11367714Y-19678929D01*
X11339143Y-19693214D01*
X11310571Y-19693214D01*
X11282000Y-19678929D01*
X11267714Y-19664643D01*
X11253428Y-19636072D01*
X11239143Y-19578929D01*
X11239143Y-19507500D01*
X11253428Y-19450357D01*
X11267714Y-19421786D01*
X11282000Y-19407500D01*
X11310571Y-19393214D01*
X11539143Y-19693214D02*
X11539143Y-19493214D01*
X11539143Y-19521786D02*
X11553428Y-19507500D01*
X11582000Y-19493214D01*
X11624857Y-19493214D01*
X11653428Y-19507500D01*
X11667714Y-19536072D01*
X11667714Y-19693214D01*
X11667714Y-19536072D02*
X11682000Y-19507500D01*
X11710571Y-19493214D01*
X11753428Y-19493214D01*
X11782000Y-19507500D01*
X11796286Y-19536072D01*
X11796286Y-19693214D01*
X11939143Y-19693214D02*
X11939143Y-19493214D01*
X11939143Y-19521786D02*
X11953428Y-19507500D01*
X11982000Y-19493214D01*
X12024857Y-19493214D01*
X12053428Y-19507500D01*
X12067714Y-19536072D01*
X12067714Y-19693214D01*
X12067714Y-19536072D02*
X12082000Y-19507500D01*
X12110571Y-19493214D01*
X12153428Y-19493214D01*
X12182000Y-19507500D01*
X12196286Y-19536072D01*
X12196286Y-19693214D01*
X12782000Y-19378929D02*
X12524857Y-19764643D01*
X13167714Y-19393214D02*
X13196286Y-19393214D01*
X13224857Y-19407500D01*
X13239143Y-19421786D01*
X13253428Y-19450357D01*
X13267714Y-19507500D01*
X13267714Y-19578929D01*
X13253428Y-19636072D01*
X13239143Y-19664643D01*
X13224857Y-19678929D01*
X13196286Y-19693214D01*
X13167714Y-19693214D01*
X13139143Y-19678929D01*
X13124857Y-19664643D01*
X13110571Y-19636072D01*
X13096286Y-19578929D01*
X13096286Y-19507500D01*
X13110571Y-19450357D01*
X13124857Y-19421786D01*
X13139143Y-19407500D01*
X13167714Y-19393214D01*
X13396286Y-19664643D02*
X13410571Y-19678929D01*
X13396286Y-19693214D01*
X13382000Y-19678929D01*
X13396286Y-19664643D01*
X13396286Y-19693214D01*
X13596286Y-19393214D02*
X13624857Y-19393214D01*
X13653428Y-19407500D01*
X13667714Y-19421786D01*
X13682000Y-19450357D01*
X13696286Y-19507500D01*
X13696286Y-19578929D01*
X13682000Y-19636072D01*
X13667714Y-19664643D01*
X13653428Y-19678929D01*
X13624857Y-19693214D01*
X13596286Y-19693214D01*
X13567714Y-19678929D01*
X13553428Y-19664643D01*
X13539143Y-19636072D01*
X13524857Y-19578929D01*
X13524857Y-19507500D01*
X13539143Y-19450357D01*
X13553428Y-19421786D01*
X13567714Y-19407500D01*
X13596286Y-19393214D01*
X13967714Y-19393214D02*
X13824857Y-19393214D01*
X13810571Y-19536072D01*
X13824857Y-19521786D01*
X13853428Y-19507500D01*
X13924857Y-19507500D01*
X13953428Y-19521786D01*
X13967714Y-19536072D01*
X13982000Y-19564643D01*
X13982000Y-19636072D01*
X13967714Y-19664643D01*
X13953428Y-19678929D01*
X13924857Y-19693214D01*
X13853428Y-19693214D01*
X13824857Y-19678929D01*
X13810571Y-19664643D01*
X14124857Y-19693214D02*
X14182000Y-19693214D01*
X14210571Y-19678929D01*
X14224857Y-19664643D01*
X14253428Y-19621786D01*
X14267714Y-19564643D01*
X14267714Y-19450357D01*
X14253428Y-19421786D01*
X14239143Y-19407500D01*
X14210571Y-19393214D01*
X14153428Y-19393214D01*
X14124857Y-19407500D01*
X14110571Y-19421786D01*
X14096286Y-19450357D01*
X14096286Y-19521786D01*
X14110571Y-19550357D01*
X14124857Y-19564643D01*
X14153428Y-19578929D01*
X14210571Y-19578929D01*
X14239143Y-19564643D01*
X14253428Y-19550357D01*
X14267714Y-19521786D01*
X14553428Y-19693214D02*
X14382000Y-19693214D01*
X14467714Y-19693214D02*
X14467714Y-19393214D01*
X14439143Y-19436072D01*
X14410571Y-19464643D01*
X14382000Y-19478929D01*
X14667714Y-19393214D02*
X14667714Y-19450357D01*
X14782000Y-19393214D02*
X14782000Y-19450357D01*
X15224857Y-19807500D02*
X15210571Y-19793214D01*
X15182000Y-19750357D01*
X15167714Y-19721786D01*
X15153428Y-19678929D01*
X15139143Y-19607500D01*
X15139143Y-19550357D01*
X15153428Y-19478929D01*
X15167714Y-19436072D01*
X15182000Y-19407500D01*
X15210571Y-19364643D01*
X15224857Y-19350357D01*
X15324857Y-19421786D02*
X15339143Y-19407500D01*
X15367714Y-19393214D01*
X15439143Y-19393214D01*
X15467714Y-19407500D01*
X15482000Y-19421786D01*
X15496286Y-19450357D01*
X15496286Y-19478929D01*
X15482000Y-19521786D01*
X15310571Y-19693214D01*
X15496286Y-19693214D01*
X15853428Y-19693214D02*
X15853428Y-19393214D01*
X15982000Y-19693214D02*
X15982000Y-19536072D01*
X15967714Y-19507500D01*
X15939143Y-19493214D01*
X15896286Y-19493214D01*
X15867714Y-19507500D01*
X15853428Y-19521786D01*
X16167714Y-19693214D02*
X16139143Y-19678929D01*
X16124857Y-19664643D01*
X16110571Y-19636072D01*
X16110571Y-19550357D01*
X16124857Y-19521786D01*
X16139143Y-19507500D01*
X16167714Y-19493214D01*
X16210571Y-19493214D01*
X16239143Y-19507500D01*
X16253428Y-19521786D01*
X16267714Y-19550357D01*
X16267714Y-19636072D01*
X16253428Y-19664643D01*
X16239143Y-19678929D01*
X16210571Y-19693214D01*
X16167714Y-19693214D01*
X16439143Y-19693214D02*
X16410571Y-19678929D01*
X16396286Y-19650357D01*
X16396286Y-19393214D01*
X16667714Y-19678929D02*
X16639143Y-19693214D01*
X16582000Y-19693214D01*
X16553428Y-19678929D01*
X16539143Y-19650357D01*
X16539143Y-19536072D01*
X16553428Y-19507500D01*
X16582000Y-19493214D01*
X16639143Y-19493214D01*
X16667714Y-19507500D01*
X16682000Y-19536072D01*
X16682000Y-19564643D01*
X16539143Y-19593214D01*
X16796286Y-19678929D02*
X16824857Y-19693214D01*
X16882000Y-19693214D01*
X16910571Y-19678929D01*
X16924857Y-19650357D01*
X16924857Y-19636072D01*
X16910571Y-19607500D01*
X16882000Y-19593214D01*
X16839143Y-19593214D01*
X16810571Y-19578929D01*
X16796286Y-19550357D01*
X16796286Y-19536072D01*
X16810571Y-19507500D01*
X16839143Y-19493214D01*
X16882000Y-19493214D01*
X16910571Y-19507500D01*
X17024857Y-19807500D02*
X17039143Y-19793214D01*
X17067714Y-19750357D01*
X17082000Y-19721786D01*
X17096286Y-19678929D01*
X17110571Y-19607500D01*
X17110571Y-19550357D01*
X17096286Y-19478929D01*
X17082000Y-19436072D01*
X17067714Y-19407500D01*
X17039143Y-19364643D01*
X17024857Y-19350357D01*
X17567714Y-19807500D02*
X17553428Y-19793214D01*
X17524857Y-19750357D01*
X17510571Y-19721786D01*
X17496286Y-19678929D01*
X17482000Y-19607500D01*
X17482000Y-19550357D01*
X17496286Y-19478929D01*
X17510571Y-19436072D01*
X17524857Y-19407500D01*
X17553428Y-19364643D01*
X17567714Y-19350357D01*
X17682000Y-19493214D02*
X17682000Y-19693214D01*
X17682000Y-19521786D02*
X17696286Y-19507500D01*
X17724857Y-19493214D01*
X17767714Y-19493214D01*
X17796286Y-19507500D01*
X17810571Y-19536072D01*
X17810571Y-19693214D01*
X17996286Y-19693214D02*
X17967714Y-19678929D01*
X17953428Y-19664643D01*
X17939143Y-19636072D01*
X17939143Y-19550357D01*
X17953428Y-19521786D01*
X17967714Y-19507500D01*
X17996286Y-19493214D01*
X18039143Y-19493214D01*
X18067714Y-19507500D01*
X18082000Y-19521786D01*
X18096286Y-19550357D01*
X18096286Y-19636072D01*
X18082000Y-19664643D01*
X18067714Y-19678929D01*
X18039143Y-19693214D01*
X17996286Y-19693214D01*
X18182000Y-19493214D02*
X18296286Y-19493214D01*
X18224857Y-19393214D02*
X18224857Y-19650357D01*
X18239143Y-19678929D01*
X18267714Y-19693214D01*
X18296286Y-19693214D01*
X18624857Y-19493214D02*
X18624857Y-19793214D01*
X18624857Y-19507500D02*
X18653428Y-19493214D01*
X18710571Y-19493214D01*
X18739143Y-19507500D01*
X18753428Y-19521786D01*
X18767714Y-19550357D01*
X18767714Y-19636072D01*
X18753428Y-19664643D01*
X18739143Y-19678929D01*
X18710571Y-19693214D01*
X18653428Y-19693214D01*
X18624857Y-19678929D01*
X18939143Y-19693214D02*
X18910571Y-19678929D01*
X18896286Y-19650357D01*
X18896286Y-19393214D01*
X19182000Y-19693214D02*
X19182000Y-19536072D01*
X19167714Y-19507500D01*
X19139143Y-19493214D01*
X19082000Y-19493214D01*
X19053428Y-19507500D01*
X19182000Y-19678929D02*
X19153428Y-19693214D01*
X19082000Y-19693214D01*
X19053428Y-19678929D01*
X19039143Y-19650357D01*
X19039143Y-19621786D01*
X19053428Y-19593214D01*
X19082000Y-19578929D01*
X19153428Y-19578929D01*
X19182000Y-19564643D01*
X19282000Y-19493214D02*
X19396286Y-19493214D01*
X19324857Y-19393214D02*
X19324857Y-19650357D01*
X19339143Y-19678929D01*
X19367714Y-19693214D01*
X19396286Y-19693214D01*
X19610571Y-19678929D02*
X19582000Y-19693214D01*
X19524857Y-19693214D01*
X19496286Y-19678929D01*
X19482000Y-19650357D01*
X19482000Y-19536072D01*
X19496286Y-19507500D01*
X19524857Y-19493214D01*
X19582000Y-19493214D01*
X19610571Y-19507500D01*
X19624857Y-19536072D01*
X19624857Y-19564643D01*
X19482000Y-19593214D01*
X19882000Y-19693214D02*
X19882000Y-19393214D01*
X19882000Y-19678929D02*
X19853428Y-19693214D01*
X19796286Y-19693214D01*
X19767714Y-19678929D01*
X19753428Y-19664643D01*
X19739143Y-19636072D01*
X19739143Y-19550357D01*
X19753428Y-19521786D01*
X19767714Y-19507500D01*
X19796286Y-19493214D01*
X19853428Y-19493214D01*
X19882000Y-19507500D01*
X19996286Y-19807500D02*
X20010571Y-19793214D01*
X20039143Y-19750357D01*
X20053428Y-19721786D01*
X20067714Y-19678929D01*
X20082000Y-19607500D01*
X20082000Y-19550357D01*
X20067714Y-19478929D01*
X20053428Y-19436072D01*
X20039143Y-19407500D01*
X20010571Y-19364643D01*
X19996286Y-19350357D01*
X9877000Y-19863500D02*
X9877000Y-20043500D01*
X9787000Y-19953500D02*
X9967000Y-19953500D01*
X9877000Y-20043500D02*
X9967000Y-19953500D01*
X9877000Y-19863500D01*
X9787000Y-19953500D01*
X9877000Y-20043500D01*
X10410571Y-20089214D02*
X10239143Y-20089214D01*
X10324857Y-20089214D02*
X10324857Y-19789214D01*
X10296286Y-19832072D01*
X10267714Y-19860643D01*
X10239143Y-19874929D01*
X10539143Y-20060643D02*
X10553428Y-20074929D01*
X10539143Y-20089214D01*
X10524857Y-20074929D01*
X10539143Y-20060643D01*
X10539143Y-20089214D01*
X10724857Y-19917786D02*
X10696286Y-19903500D01*
X10682000Y-19889214D01*
X10667714Y-19860643D01*
X10667714Y-19846357D01*
X10682000Y-19817786D01*
X10696286Y-19803500D01*
X10724857Y-19789214D01*
X10782000Y-19789214D01*
X10810571Y-19803500D01*
X10824857Y-19817786D01*
X10839143Y-19846357D01*
X10839143Y-19860643D01*
X10824857Y-19889214D01*
X10810571Y-19903500D01*
X10782000Y-19917786D01*
X10724857Y-19917786D01*
X10696286Y-19932072D01*
X10682000Y-19946357D01*
X10667714Y-19974929D01*
X10667714Y-20032072D01*
X10682000Y-20060643D01*
X10696286Y-20074929D01*
X10724857Y-20089214D01*
X10782000Y-20089214D01*
X10810571Y-20074929D01*
X10824857Y-20060643D01*
X10839143Y-20032072D01*
X10839143Y-19974929D01*
X10824857Y-19946357D01*
X10810571Y-19932072D01*
X10782000Y-19917786D01*
X11024857Y-19789214D02*
X11053428Y-19789214D01*
X11082000Y-19803500D01*
X11096286Y-19817786D01*
X11110571Y-19846357D01*
X11124857Y-19903500D01*
X11124857Y-19974929D01*
X11110571Y-20032072D01*
X11096286Y-20060643D01*
X11082000Y-20074929D01*
X11053428Y-20089214D01*
X11024857Y-20089214D01*
X10996286Y-20074929D01*
X10982000Y-20060643D01*
X10967714Y-20032072D01*
X10953428Y-19974929D01*
X10953428Y-19903500D01*
X10967714Y-19846357D01*
X10982000Y-19817786D01*
X10996286Y-19803500D01*
X11024857Y-19789214D01*
X11310571Y-19789214D02*
X11339143Y-19789214D01*
X11367714Y-19803500D01*
X11382000Y-19817786D01*
X11396286Y-19846357D01*
X11410571Y-19903500D01*
X11410571Y-19974929D01*
X11396286Y-20032072D01*
X11382000Y-20060643D01*
X11367714Y-20074929D01*
X11339143Y-20089214D01*
X11310571Y-20089214D01*
X11282000Y-20074929D01*
X11267714Y-20060643D01*
X11253428Y-20032072D01*
X11239143Y-19974929D01*
X11239143Y-19903500D01*
X11253428Y-19846357D01*
X11267714Y-19817786D01*
X11282000Y-19803500D01*
X11310571Y-19789214D01*
X11539143Y-20089214D02*
X11539143Y-19889214D01*
X11539143Y-19917786D02*
X11553428Y-19903500D01*
X11582000Y-19889214D01*
X11624857Y-19889214D01*
X11653428Y-19903500D01*
X11667714Y-19932072D01*
X11667714Y-20089214D01*
X11667714Y-19932072D02*
X11682000Y-19903500D01*
X11710571Y-19889214D01*
X11753428Y-19889214D01*
X11782000Y-19903500D01*
X11796286Y-19932072D01*
X11796286Y-20089214D01*
X11939143Y-20089214D02*
X11939143Y-19889214D01*
X11939143Y-19917786D02*
X11953428Y-19903500D01*
X11982000Y-19889214D01*
X12024857Y-19889214D01*
X12053428Y-19903500D01*
X12067714Y-19932072D01*
X12067714Y-20089214D01*
X12067714Y-19932072D02*
X12082000Y-19903500D01*
X12110571Y-19889214D01*
X12153428Y-19889214D01*
X12182000Y-19903500D01*
X12196286Y-19932072D01*
X12196286Y-20089214D01*
X12782000Y-19774929D02*
X12524857Y-20160643D01*
X13167714Y-19789214D02*
X13196286Y-19789214D01*
X13224857Y-19803500D01*
X13239143Y-19817786D01*
X13253428Y-19846357D01*
X13267714Y-19903500D01*
X13267714Y-19974929D01*
X13253428Y-20032072D01*
X13239143Y-20060643D01*
X13224857Y-20074929D01*
X13196286Y-20089214D01*
X13167714Y-20089214D01*
X13139143Y-20074929D01*
X13124857Y-20060643D01*
X13110571Y-20032072D01*
X13096286Y-19974929D01*
X13096286Y-19903500D01*
X13110571Y-19846357D01*
X13124857Y-19817786D01*
X13139143Y-19803500D01*
X13167714Y-19789214D01*
X13396286Y-20060643D02*
X13410571Y-20074929D01*
X13396286Y-20089214D01*
X13382000Y-20074929D01*
X13396286Y-20060643D01*
X13396286Y-20089214D01*
X13596286Y-19789214D02*
X13624857Y-19789214D01*
X13653428Y-19803500D01*
X13667714Y-19817786D01*
X13682000Y-19846357D01*
X13696286Y-19903500D01*
X13696286Y-19974929D01*
X13682000Y-20032072D01*
X13667714Y-20060643D01*
X13653428Y-20074929D01*
X13624857Y-20089214D01*
X13596286Y-20089214D01*
X13567714Y-20074929D01*
X13553428Y-20060643D01*
X13539143Y-20032072D01*
X13524857Y-19974929D01*
X13524857Y-19903500D01*
X13539143Y-19846357D01*
X13553428Y-19817786D01*
X13567714Y-19803500D01*
X13596286Y-19789214D01*
X13796286Y-19789214D02*
X13996286Y-19789214D01*
X13867714Y-20089214D01*
X14167714Y-19789214D02*
X14196286Y-19789214D01*
X14224857Y-19803500D01*
X14239143Y-19817786D01*
X14253428Y-19846357D01*
X14267714Y-19903500D01*
X14267714Y-19974929D01*
X14253428Y-20032072D01*
X14239143Y-20060643D01*
X14224857Y-20074929D01*
X14196286Y-20089214D01*
X14167714Y-20089214D01*
X14139143Y-20074929D01*
X14124857Y-20060643D01*
X14110571Y-20032072D01*
X14096286Y-19974929D01*
X14096286Y-19903500D01*
X14110571Y-19846357D01*
X14124857Y-19817786D01*
X14139143Y-19803500D01*
X14167714Y-19789214D01*
X14410571Y-20089214D02*
X14467714Y-20089214D01*
X14496286Y-20074929D01*
X14510571Y-20060643D01*
X14539143Y-20017786D01*
X14553428Y-19960643D01*
X14553428Y-19846357D01*
X14539143Y-19817786D01*
X14524857Y-19803500D01*
X14496286Y-19789214D01*
X14439143Y-19789214D01*
X14410571Y-19803500D01*
X14396286Y-19817786D01*
X14382000Y-19846357D01*
X14382000Y-19917786D01*
X14396286Y-19946357D01*
X14410571Y-19960643D01*
X14439143Y-19974929D01*
X14496286Y-19974929D01*
X14524857Y-19960643D01*
X14539143Y-19946357D01*
X14553428Y-19917786D01*
X14667714Y-19789214D02*
X14667714Y-19846357D01*
X14782000Y-19789214D02*
X14782000Y-19846357D01*
X15224857Y-20203500D02*
X15210571Y-20189214D01*
X15182000Y-20146357D01*
X15167714Y-20117786D01*
X15153428Y-20074929D01*
X15139143Y-20003500D01*
X15139143Y-19946357D01*
X15153428Y-19874929D01*
X15167714Y-19832072D01*
X15182000Y-19803500D01*
X15210571Y-19760643D01*
X15224857Y-19746357D01*
X15324857Y-19817786D02*
X15339143Y-19803500D01*
X15367714Y-19789214D01*
X15439143Y-19789214D01*
X15467714Y-19803500D01*
X15482000Y-19817786D01*
X15496286Y-19846357D01*
X15496286Y-19874929D01*
X15482000Y-19917786D01*
X15310571Y-20089214D01*
X15496286Y-20089214D01*
X15853428Y-20089214D02*
X15853428Y-19789214D01*
X15982000Y-20089214D02*
X15982000Y-19932072D01*
X15967714Y-19903500D01*
X15939143Y-19889214D01*
X15896286Y-19889214D01*
X15867714Y-19903500D01*
X15853428Y-19917786D01*
X16167714Y-20089214D02*
X16139143Y-20074929D01*
X16124857Y-20060643D01*
X16110571Y-20032072D01*
X16110571Y-19946357D01*
X16124857Y-19917786D01*
X16139143Y-19903500D01*
X16167714Y-19889214D01*
X16210571Y-19889214D01*
X16239143Y-19903500D01*
X16253428Y-19917786D01*
X16267714Y-19946357D01*
X16267714Y-20032072D01*
X16253428Y-20060643D01*
X16239143Y-20074929D01*
X16210571Y-20089214D01*
X16167714Y-20089214D01*
X16439143Y-20089214D02*
X16410571Y-20074929D01*
X16396286Y-20046357D01*
X16396286Y-19789214D01*
X16667714Y-20074929D02*
X16639143Y-20089214D01*
X16582000Y-20089214D01*
X16553428Y-20074929D01*
X16539143Y-20046357D01*
X16539143Y-19932072D01*
X16553428Y-19903500D01*
X16582000Y-19889214D01*
X16639143Y-19889214D01*
X16667714Y-19903500D01*
X16682000Y-19932072D01*
X16682000Y-19960643D01*
X16539143Y-19989214D01*
X16796286Y-20074929D02*
X16824857Y-20089214D01*
X16882000Y-20089214D01*
X16910571Y-20074929D01*
X16924857Y-20046357D01*
X16924857Y-20032072D01*
X16910571Y-20003500D01*
X16882000Y-19989214D01*
X16839143Y-19989214D01*
X16810571Y-19974929D01*
X16796286Y-19946357D01*
X16796286Y-19932072D01*
X16810571Y-19903500D01*
X16839143Y-19889214D01*
X16882000Y-19889214D01*
X16910571Y-19903500D01*
X17024857Y-20203500D02*
X17039143Y-20189214D01*
X17067714Y-20146357D01*
X17082000Y-20117786D01*
X17096286Y-20074929D01*
X17110571Y-20003500D01*
X17110571Y-19946357D01*
X17096286Y-19874929D01*
X17082000Y-19832072D01*
X17067714Y-19803500D01*
X17039143Y-19760643D01*
X17024857Y-19746357D01*
X17567714Y-20203500D02*
X17553428Y-20189214D01*
X17524857Y-20146357D01*
X17510571Y-20117786D01*
X17496286Y-20074929D01*
X17482000Y-20003500D01*
X17482000Y-19946357D01*
X17496286Y-19874929D01*
X17510571Y-19832072D01*
X17524857Y-19803500D01*
X17553428Y-19760643D01*
X17567714Y-19746357D01*
X17682000Y-19889214D02*
X17682000Y-20089214D01*
X17682000Y-19917786D02*
X17696286Y-19903500D01*
X17724857Y-19889214D01*
X17767714Y-19889214D01*
X17796286Y-19903500D01*
X17810571Y-19932072D01*
X17810571Y-20089214D01*
X17996286Y-20089214D02*
X17967714Y-20074929D01*
X17953428Y-20060643D01*
X17939143Y-20032072D01*
X17939143Y-19946357D01*
X17953428Y-19917786D01*
X17967714Y-19903500D01*
X17996286Y-19889214D01*
X18039143Y-19889214D01*
X18067714Y-19903500D01*
X18082000Y-19917786D01*
X18096286Y-19946357D01*
X18096286Y-20032072D01*
X18082000Y-20060643D01*
X18067714Y-20074929D01*
X18039143Y-20089214D01*
X17996286Y-20089214D01*
X18182000Y-19889214D02*
X18296286Y-19889214D01*
X18224857Y-19789214D02*
X18224857Y-20046357D01*
X18239143Y-20074929D01*
X18267714Y-20089214D01*
X18296286Y-20089214D01*
X18624857Y-19889214D02*
X18624857Y-20189214D01*
X18624857Y-19903500D02*
X18653428Y-19889214D01*
X18710571Y-19889214D01*
X18739143Y-19903500D01*
X18753428Y-19917786D01*
X18767714Y-19946357D01*
X18767714Y-20032072D01*
X18753428Y-20060643D01*
X18739143Y-20074929D01*
X18710571Y-20089214D01*
X18653428Y-20089214D01*
X18624857Y-20074929D01*
X18939143Y-20089214D02*
X18910571Y-20074929D01*
X18896286Y-20046357D01*
X18896286Y-19789214D01*
X19182000Y-20089214D02*
X19182000Y-19932072D01*
X19167714Y-19903500D01*
X19139143Y-19889214D01*
X19082000Y-19889214D01*
X19053428Y-19903500D01*
X19182000Y-20074929D02*
X19153428Y-20089214D01*
X19082000Y-20089214D01*
X19053428Y-20074929D01*
X19039143Y-20046357D01*
X19039143Y-20017786D01*
X19053428Y-19989214D01*
X19082000Y-19974929D01*
X19153428Y-19974929D01*
X19182000Y-19960643D01*
X19282000Y-19889214D02*
X19396286Y-19889214D01*
X19324857Y-19789214D02*
X19324857Y-20046357D01*
X19339143Y-20074929D01*
X19367714Y-20089214D01*
X19396286Y-20089214D01*
X19610571Y-20074929D02*
X19582000Y-20089214D01*
X19524857Y-20089214D01*
X19496286Y-20074929D01*
X19482000Y-20046357D01*
X19482000Y-19932072D01*
X19496286Y-19903500D01*
X19524857Y-19889214D01*
X19582000Y-19889214D01*
X19610571Y-19903500D01*
X19624857Y-19932072D01*
X19624857Y-19960643D01*
X19482000Y-19989214D01*
X19882000Y-20089214D02*
X19882000Y-19789214D01*
X19882000Y-20074929D02*
X19853428Y-20089214D01*
X19796286Y-20089214D01*
X19767714Y-20074929D01*
X19753428Y-20060643D01*
X19739143Y-20032072D01*
X19739143Y-19946357D01*
X19753428Y-19917786D01*
X19767714Y-19903500D01*
X19796286Y-19889214D01*
X19853428Y-19889214D01*
X19882000Y-19903500D01*
X19996286Y-20203500D02*
X20010571Y-20189214D01*
X20039143Y-20146357D01*
X20053428Y-20117786D01*
X20067714Y-20074929D01*
X20082000Y-20003500D01*
X20082000Y-19946357D01*
X20067714Y-19874929D01*
X20053428Y-19832072D01*
X20039143Y-19803500D01*
X20010571Y-19760643D01*
X19996286Y-19746357D01*
M02*
