%TF.GenerationSoftware,KiCad,Pcbnew,(5.1.10-1-10_14)*%
%TF.CreationDate,2021-10-16T18:12:32-04:00*%
%TF.ProjectId,Controller_V1,436f6e74-726f-46c6-9c65-725f56312e6b,rev?*%
%TF.SameCoordinates,Original*%
%TF.FileFunction,Soldermask,Bot*%
%TF.FilePolarity,Negative*%
%FSLAX46Y46*%
G04 Gerber Fmt 4.6, Leading zero omitted, Abs format (unit mm)*
G04 Created by KiCad (PCBNEW (5.1.10-1-10_14)) date 2021-10-16 18:12:32*
%MOMM*%
%LPD*%
G01*
G04 APERTURE LIST*
%ADD10C,4.400000*%
%ADD11O,3.048000X1.850000*%
%ADD12O,1.400000X1.400000*%
%ADD13C,1.400000*%
%ADD14C,3.276000*%
%ADD15C,1.428000*%
%ADD16R,1.428000X1.428000*%
%ADD17C,1.800000*%
%ADD18R,1.800000X1.800000*%
%ADD19O,1.700000X1.700000*%
%ADD20R,1.700000X1.700000*%
%ADD21O,1.500000X1.500000*%
%ADD22O,1.800000X1.800000*%
%ADD23C,1.600000*%
%ADD24R,1.600000X1.600000*%
%ADD25C,1.778000*%
%ADD26C,2.286000*%
G04 APERTURE END LIST*
D10*
%TO.C,H4*%
X106197400Y-132867400D03*
%TD*%
%TO.C,e*%
X106146600Y-57480200D03*
%TD*%
%TO.C,He*%
X236321600Y-132918200D03*
%TD*%
%TO.C,He*%
X236321600Y-57708800D03*
%TD*%
D11*
%TO.C,SW2*%
X193875000Y-70405000D03*
X193875000Y-65405000D03*
X206375000Y-70405000D03*
X206375000Y-65405000D03*
%TD*%
%TO.C,SW1*%
X143075000Y-70485000D03*
X143075000Y-65485000D03*
X155575000Y-70485000D03*
X155575000Y-65485000D03*
%TD*%
D12*
%TO.C,R2*%
X196215000Y-79375000D03*
D13*
X203835000Y-79375000D03*
%TD*%
D12*
%TO.C,R1*%
X153035000Y-78740000D03*
D13*
X145415000Y-78740000D03*
%TD*%
D14*
%TO.C,J2*%
X214088400Y-62788800D03*
X227228400Y-62788800D03*
D15*
X217158400Y-65498800D03*
X219658400Y-65498800D03*
X221658400Y-65498800D03*
D16*
X224158400Y-65498800D03*
%TD*%
D17*
%TO.C,D2*%
X201930000Y-55880000D03*
D18*
X199390000Y-55880000D03*
%TD*%
D17*
%TO.C,D1*%
X151130000Y-55880000D03*
D18*
X148590000Y-55880000D03*
%TD*%
D19*
%TO.C,U2*%
X172085000Y-84685000D03*
D20*
X174625000Y-84685000D03*
D19*
X177165000Y-84685000D03*
D21*
X172200000Y-129555000D03*
X177050000Y-129555000D03*
D22*
X171900000Y-132585000D03*
X177350000Y-132585000D03*
D19*
X165735000Y-132715000D03*
X165735000Y-130175000D03*
D20*
X165735000Y-127635000D03*
D19*
X165735000Y-125095000D03*
X165735000Y-122555000D03*
X165735000Y-120015000D03*
X165735000Y-117475000D03*
D20*
X165735000Y-114935000D03*
D19*
X165735000Y-112395000D03*
X165735000Y-109855000D03*
X165735000Y-107315000D03*
X165735000Y-104775000D03*
D20*
X165735000Y-102235000D03*
D19*
X165735000Y-99695000D03*
X165735000Y-97155000D03*
X165735000Y-94615000D03*
X165735000Y-92075000D03*
D20*
X165735000Y-89535000D03*
D19*
X165735000Y-86995000D03*
X165735000Y-84455000D03*
X183515000Y-84455000D03*
X183515000Y-86995000D03*
D20*
X183515000Y-89535000D03*
D19*
X183515000Y-92075000D03*
X183515000Y-94615000D03*
X183515000Y-97155000D03*
X183515000Y-99695000D03*
D20*
X183515000Y-102235000D03*
D19*
X183515000Y-104775000D03*
X183515000Y-107315000D03*
X183515000Y-109855000D03*
X183515000Y-112395000D03*
D20*
X183515000Y-114935000D03*
D19*
X183515000Y-117475000D03*
X183515000Y-120015000D03*
X183515000Y-122555000D03*
X183515000Y-125095000D03*
D20*
X183515000Y-127635000D03*
D19*
X183515000Y-130175000D03*
X183515000Y-132715000D03*
%TD*%
D23*
%TO.C,C2*%
X140970000Y-120610000D03*
D24*
X140970000Y-118110000D03*
%TD*%
D23*
%TO.C,C1*%
X140970000Y-129500000D03*
D24*
X140970000Y-127000000D03*
%TD*%
D25*
%TO.C,U3*%
X217805000Y-80645000D03*
X220345000Y-80645000D03*
X222885000Y-80645000D03*
D26*
X227012500Y-98425000D03*
X213677500Y-98425000D03*
X213677500Y-83185000D03*
X227012500Y-83185000D03*
D25*
X210185000Y-93345000D03*
X210185000Y-90805000D03*
X210185000Y-88265000D03*
X227965000Y-93980000D03*
X227965000Y-87630000D03*
X233045000Y-93980000D03*
X233045000Y-87630000D03*
%TD*%
%TO.C,U1*%
X118110000Y-83185000D03*
X120650000Y-83185000D03*
X123190000Y-83185000D03*
D26*
X127317500Y-100965000D03*
X113982500Y-100965000D03*
X113982500Y-85725000D03*
X127317500Y-85725000D03*
D25*
X110490000Y-95885000D03*
X110490000Y-93345000D03*
X110490000Y-90805000D03*
X128270000Y-96520000D03*
X128270000Y-90170000D03*
X133350000Y-96520000D03*
X133350000Y-90170000D03*
%TD*%
D19*
%TO.C,J1*%
X178435000Y-73025000D03*
X178435000Y-75565000D03*
X175895000Y-73025000D03*
X175895000Y-75565000D03*
X173355000Y-73025000D03*
X173355000Y-75565000D03*
X170815000Y-73025000D03*
D20*
X170815000Y-75565000D03*
%TD*%
M02*
