M48
INCH,TZ
T1C0.0157
T2C0.0276
T3C0.0315
T4C0.0350
T5C0.0354
T6C0.0362
T7C0.0394
T8C0.0402
T9C0.0512
T10C0.0550
T11C0.0866
T12C0.0890
T13C0.0591
T14C0.0709
%
G90
G05
T1
X58000Y-39000
X58005Y-46505
X74000Y-29500
X74750Y-29850
X74750Y-31000
X84500Y-27250
T2
X57250Y-31000
X60250Y-31000
X77250Y-31250
X80250Y-31250
T3
X55500Y-46500
X55500Y-47484
X55500Y-50000
X55500Y-50984
T4
X43500Y-35750
X43500Y-36750
X43500Y-37750
X46500Y-32750
X47500Y-32750
X48500Y-32750
X82750Y-34750
X82750Y-35750
X82750Y-36750
X85750Y-31750
X86750Y-31750
X87750Y-31750
T5
X50500Y-35500
X50500Y-38000
X52500Y-35500
X52500Y-38000
X58500Y-22000
X59500Y-22000
X78500Y-22000
X79500Y-22000
X89750Y-34500
X89750Y-37000
X91750Y-34500
X91750Y-37000
T6
X85495Y-25787
X86480Y-25787
X87267Y-25787
X88251Y-25787
T7
X67250Y-28750
X67250Y-29750
X68250Y-28750
X68250Y-29750
X69250Y-28750
X69250Y-29750
X70250Y-28750
X70250Y-29750
T8
X65250Y-33250
X65250Y-34250
X65250Y-35250
X65250Y-36250
X65250Y-37250
X65250Y-38250
X65250Y-39250
X65250Y-40250
X65250Y-41250
X65250Y-42250
X65250Y-43250
X65250Y-44250
X65250Y-45250
X65250Y-46250
X65250Y-47250
X65250Y-48250
X65250Y-49250
X65250Y-50250
X65250Y-51250
X65250Y-52250
X67750Y-33341
X68750Y-33341
X69750Y-33341
X72250Y-33250
X72250Y-34250
X72250Y-35250
X72250Y-36250
X72250Y-37250
X72250Y-38250
X72250Y-39250
X72250Y-40250
X72250Y-41250
X72250Y-42250
X72250Y-43250
X72250Y-44250
X72250Y-45250
X72250Y-46250
X72250Y-47250
X72250Y-48250
X72250Y-49250
X72250Y-50250
X72250Y-51250
X72250Y-52250
T9
X56329Y-25781
X56329Y-27750
X61250Y-25781
X61250Y-27750
X76329Y-25750
X76329Y-27719
X81250Y-25750
X81250Y-27719
T10
X44875Y-33750
X44875Y-39750
X50125Y-33750
X50125Y-39750
X84125Y-32750
X84125Y-38750
X89375Y-32750
X89375Y-38750
T11
X41790Y-22630
X41810Y-52310
X93040Y-22720
X93040Y-52330
T12
X84287Y-24720
X89460Y-24720
T13
X67795Y-51006
X69705Y-51006
T14
X67677Y-52199
X69823Y-52199
T0
M30
