M48
; DRILL file {KiCad (6.0.5-0)} date Monday, February 05, 2024 at 04:25:52 PM
; FORMAT={-:-/ absolute / metric / decimal}
; #@! TF.CreationDate,2024-02-05T16:25:52-05:00
; #@! TF.GenerationSoftware,Kicad,Pcbnew,(6.0.5-0)
; #@! TF.FileFunction,Plated,1,2,PTH
FMAT,2
METRIC
; #@! TA.AperFunction,Plated,PTH,ViaDrill
T1C0.400
; #@! TA.AperFunction,Plated,PTH,ComponentDrill
T2C0.600
; #@! TA.AperFunction,Plated,PTH,ComponentDrill
T3C0.750
; #@! TA.AperFunction,Plated,PTH,ComponentDrill
T4C0.850
; #@! TA.AperFunction,Plated,PTH,ComponentDrill
T5C1.000
; #@! TA.AperFunction,Plated,PTH,ComponentDrill
T6C1.016
; #@! TA.AperFunction,Plated,PTH,ComponentDrill
T7C1.020
; #@! TA.AperFunction,Plated,PTH,ComponentDrill
T8C1.100
; #@! TA.AperFunction,Plated,PTH,ComponentDrill
T9C1.300
; #@! TA.AperFunction,Plated,PTH,ComponentDrill
T10C1.850
; #@! TA.AperFunction,Plated,PTH,ComponentDrill
T11C2.700
%
G90
G05
T1
X171.45Y-76.9
X188.95Y-122.15
X202.95Y-107.55
X203.15Y-51.95
X207.306Y-77.094
X209.3Y-53.4
X209.35Y-50.45
X219.05Y-114.0
X255.55Y-47.45
T3
X159.41Y-138.2
X160.19Y-160.36
X160.68Y-138.2
X161.46Y-160.36
X161.95Y-138.2
X162.35Y-91.05
X162.35Y-92.32
X162.35Y-93.59
X162.73Y-160.36
X204.13Y-123.79
X204.25Y-166.85
X204.38Y-145.9
X205.4Y-123.79
X205.52Y-166.85
X205.65Y-145.9
X206.67Y-123.79
X206.79Y-166.85
X206.92Y-145.9
X241.74Y-146.88
X241.74Y-148.15
X241.74Y-149.42
X264.7Y-146.125
X264.7Y-147.395
X264.7Y-148.665
X286.84Y-147.055
X286.84Y-148.325
X286.84Y-149.595
X302.01Y-87.73
X302.01Y-89.0
X302.01Y-90.27
T4
X152.04Y-80.38
X152.04Y-82.92
X159.66Y-80.38
X159.66Y-82.92
X170.54Y-126.957
X170.54Y-134.577
X170.84Y-150.04
X170.84Y-157.66
X173.08Y-126.957
X173.08Y-134.577
X173.38Y-150.04
X173.38Y-157.66
X191.78Y-148.873
X191.78Y-156.493
X191.88Y-127.29
X191.88Y-134.91
X192.73Y-170.472
X192.73Y-178.093
X194.32Y-148.873
X194.32Y-156.493
X194.42Y-127.29
X194.42Y-134.91
X195.27Y-170.472
X195.27Y-178.093
X245.322Y-157.28
X245.322Y-159.82
X252.942Y-157.28
X252.942Y-159.82
X267.89Y-156.455
X267.89Y-158.995
X275.51Y-156.455
X275.51Y-158.995
X290.44Y-158.105
X290.44Y-160.645
X291.09Y-77.98
X291.09Y-80.52
X298.06Y-158.105
X298.06Y-160.645
X298.71Y-77.98
X298.71Y-80.52
T5
X124.7Y-75.975
X124.7Y-78.515
X139.07Y-58.6
X141.61Y-58.6
X144.15Y-58.6
X146.69Y-58.6
X148.45Y-89.01
X148.45Y-91.55
X156.53Y-46.41
X156.53Y-48.95
X159.07Y-46.41
X159.07Y-48.95
X159.26Y-147.05
X159.435Y-124.9
X161.61Y-46.41
X161.61Y-48.95
X161.8Y-147.05
X161.975Y-124.9
X164.15Y-46.41
X164.15Y-48.95
X166.69Y-46.41
X166.69Y-48.95
X169.23Y-46.41
X169.23Y-48.95
X174.9Y-107.325
X174.9Y-109.865
X174.9Y-112.405
X178.825Y-171.45
X178.825Y-173.99
X201.65Y-158.75
X202.1Y-137.5
X202.235Y-180.35
X204.19Y-158.75
X204.64Y-137.5
X204.775Y-180.35
X206.625Y-46.5
X209.165Y-46.5
X211.705Y-46.5
X215.56Y-67.68
X215.56Y-108.32
X233.34Y-67.68
X233.34Y-108.32
X239.74Y-46.4
X239.74Y-48.94
X242.28Y-46.4
X242.28Y-48.94
X244.82Y-46.4
X244.82Y-48.94
X247.36Y-46.4
X247.36Y-48.94
X249.9Y-46.4
X249.9Y-48.94
X252.44Y-46.4
X252.44Y-48.94
X255.0Y-107.81
X255.0Y-110.35
X255.0Y-112.89
X255.0Y-148.525
X255.0Y-151.065
X267.25Y-177.575
X269.79Y-177.575
X272.33Y-177.575
X274.87Y-177.575
X277.85Y-147.85
X277.85Y-150.39
X288.55Y-87.425
X288.55Y-89.965
X300.2Y-148.05
X300.2Y-150.59
T6
X158.07Y-55.5
X158.07Y-58.04
X158.07Y-60.58
X158.07Y-63.12
X158.07Y-65.66
X158.07Y-68.2
X168.23Y-55.5
X168.23Y-58.04
X168.23Y-60.58
X168.23Y-63.12
X168.23Y-65.66
X168.23Y-68.2
X183.4Y-104.62
X183.4Y-114.78
X185.94Y-104.62
X185.94Y-114.78
X188.48Y-104.62
X188.48Y-114.78
X191.02Y-104.62
X191.02Y-114.78
X193.56Y-104.62
X193.56Y-114.78
X196.1Y-104.62
X196.1Y-114.78
X240.67Y-55.0
X240.67Y-57.54
X240.67Y-60.08
X240.67Y-62.62
X240.67Y-65.16
X240.67Y-67.7
X250.83Y-55.0
X250.83Y-57.54
X250.83Y-60.08
X250.83Y-62.62
X250.83Y-65.16
X250.83Y-67.7
X263.15Y-105.82
X263.15Y-115.98
X265.69Y-105.82
X265.69Y-115.98
X268.23Y-105.82
X268.23Y-115.98
X270.77Y-105.82
X270.77Y-115.98
X273.31Y-105.82
X273.31Y-115.98
X275.85Y-105.82
X275.85Y-115.98
T7
X178.36Y-46.42
X178.36Y-48.96
X178.36Y-51.5
X178.36Y-54.04
X178.36Y-56.58
X178.36Y-59.12
X178.36Y-61.66
X178.36Y-64.2
X178.36Y-66.74
X178.36Y-69.28
X178.36Y-71.82
X178.36Y-74.36
X178.36Y-76.9
X178.36Y-79.44
X178.36Y-81.98
X178.36Y-84.52
X178.36Y-87.06
X178.36Y-89.6
X178.36Y-92.14
X178.36Y-94.68
X184.71Y-94.45
X187.25Y-94.45
X189.79Y-94.45
X196.14Y-46.42
X196.14Y-48.96
X196.14Y-51.5
X196.14Y-54.04
X196.14Y-56.58
X196.14Y-59.12
X196.14Y-61.66
X196.14Y-64.2
X196.14Y-66.74
X196.14Y-69.28
X196.14Y-71.82
X196.14Y-74.36
X196.14Y-76.9
X196.14Y-79.44
X196.14Y-81.98
X196.14Y-84.52
X196.14Y-87.06
X196.14Y-89.6
X196.14Y-92.14
X196.14Y-94.68
X260.41Y-46.825
X260.41Y-49.365
X260.41Y-51.905
X260.41Y-54.445
X260.41Y-56.985
X260.41Y-59.525
X260.41Y-62.065
X260.41Y-64.605
X260.41Y-67.145
X260.41Y-69.685
X260.41Y-72.225
X260.41Y-74.765
X260.41Y-77.305
X260.41Y-79.845
X260.41Y-82.385
X260.41Y-84.925
X260.41Y-87.465
X260.41Y-90.005
X260.41Y-92.545
X260.41Y-95.085
X266.76Y-94.855
X269.3Y-94.855
X271.84Y-94.855
X278.19Y-46.825
X278.19Y-49.365
X278.19Y-51.905
X278.19Y-54.445
X278.19Y-56.985
X278.19Y-59.525
X278.19Y-62.065
X278.19Y-64.605
X278.19Y-67.145
X278.19Y-69.685
X278.19Y-72.225
X278.19Y-74.765
X278.19Y-77.305
X278.19Y-79.845
X278.19Y-82.385
X278.19Y-84.925
X278.19Y-87.465
X278.19Y-90.005
X278.19Y-92.545
X278.19Y-95.085
T8
X126.8Y-95.71
X126.8Y-100.79
X126.9Y-141.46
X126.9Y-146.54
T9
X138.06Y-125.2
X138.06Y-137.2
X138.06Y-147.85
X138.06Y-159.85
X150.2Y-102.5
X150.2Y-114.7
X150.26Y-125.2
X150.26Y-137.2
X150.26Y-147.85
X150.26Y-159.85
X152.26Y-131.2
X152.26Y-153.85
X156.2Y-100.5
X162.2Y-102.5
X162.2Y-114.7
X213.9Y-131.1
X213.9Y-152.35
X214.25Y-174.2
X215.9Y-125.1
X215.9Y-137.1
X215.9Y-146.35
X215.9Y-158.35
X216.25Y-168.2
X216.25Y-180.2
X228.1Y-125.1
X228.1Y-137.1
X228.1Y-146.35
X228.1Y-158.35
X228.45Y-168.2
X228.45Y-180.2
X242.9Y-126.6
X242.9Y-138.8
X248.9Y-140.8
X254.9Y-126.6
X254.9Y-138.8
X265.75Y-126.325
X265.75Y-138.525
X271.75Y-140.525
X277.75Y-126.325
X277.75Y-138.525
X288.25Y-126.325
X288.25Y-138.525
X289.15Y-101.95
X289.15Y-114.15
X294.25Y-140.525
X295.15Y-99.95
X300.25Y-126.325
X300.25Y-138.525
X301.15Y-101.95
X301.15Y-114.15
T10
X124.7Y-65.75
X129.4Y-65.75
X134.1Y-65.75
T11
X222.5Y-61.266
X229.7Y-61.266
T2
X219.35Y-54.716G85X219.35Y-55.816
G05
X232.85Y-54.716G85X232.85Y-55.816
G05
T0
M30
