%TF.GenerationSoftware,KiCad,Pcbnew,(6.0.5-0)*%
%TF.CreationDate,2024-02-05T16:25:51-05:00*%
%TF.ProjectId,Autonomous Drift Cart PCB,4175746f-6e6f-46d6-9f75-732044726966,rev?*%
%TF.SameCoordinates,Original*%
%TF.FileFunction,Soldermask,Bot*%
%TF.FilePolarity,Negative*%
%FSLAX46Y46*%
G04 Gerber Fmt 4.6, Leading zero omitted, Abs format (unit mm)*
G04 Created by KiCad (PCBNEW (6.0.5-0)) date 2024-02-05 16:25:51*
%MOMM*%
%LPD*%
G01*
G04 APERTURE LIST*
G04 Aperture macros list*
%AMRoundRect*
0 Rectangle with rounded corners*
0 $1 Rounding radius*
0 $2 $3 $4 $5 $6 $7 $8 $9 X,Y pos of 4 corners*
0 Add a 4 corners polygon primitive as box body*
4,1,4,$2,$3,$4,$5,$6,$7,$8,$9,$2,$3,0*
0 Add four circle primitives for the rounded corners*
1,1,$1+$1,$2,$3*
1,1,$1+$1,$4,$5*
1,1,$1+$1,$6,$7*
1,1,$1+$1,$8,$9*
0 Add four rect primitives between the rounded corners*
20,1,$1+$1,$2,$3,$4,$5,0*
20,1,$1+$1,$4,$5,$6,$7,0*
20,1,$1+$1,$6,$7,$8,$9,0*
20,1,$1+$1,$8,$9,$2,$3,0*%
G04 Aperture macros list end*
%ADD10R,3.716000X3.716000*%
%ADD11C,3.716000*%
%ADD12O,1.200000X2.400000*%
%ADD13R,1.700000X1.700000*%
%ADD14O,1.700000X1.700000*%
%ADD15R,1.260000X1.260000*%
%ADD16C,1.260000*%
%ADD17C,3.000000*%
%ADD18R,1.050000X1.500000*%
%ADD19O,1.050000X1.500000*%
%ADD20R,1.650000X1.650000*%
%ADD21C,1.650000*%
%ADD22R,1.500000X1.050000*%
%ADD23O,1.500000X1.050000*%
%ADD24C,1.524000*%
%ADD25R,1.524000X1.524000*%
%ADD26O,1.500000X1.500000*%
%ADD27O,1.800000X1.800000*%
%ADD28C,5.300000*%
%ADD29R,2.540000X2.540000*%
%ADD30C,2.540000*%
%ADD31RoundRect,0.102000X1.387500X1.387500X-1.387500X1.387500X-1.387500X-1.387500X1.387500X-1.387500X0*%
%ADD32C,2.979000*%
G04 APERTURE END LIST*
D10*
%TO.C,J25*%
X222500000Y-61265700D03*
D11*
X229700000Y-61265700D03*
D12*
X219350000Y-55265700D03*
X232850000Y-55265700D03*
%TD*%
D13*
%TO.C,J8*%
X267250000Y-177575000D03*
D14*
X269790000Y-177575000D03*
X272330000Y-177575000D03*
X274870000Y-177575000D03*
%TD*%
D13*
%TO.C,J1*%
X169230000Y-48950000D03*
D14*
X169230000Y-46410000D03*
X166690000Y-48950000D03*
X166690000Y-46410000D03*
X164150000Y-48950000D03*
X164150000Y-46410000D03*
X161610000Y-48950000D03*
X161610000Y-46410000D03*
X159070000Y-48950000D03*
X159070000Y-46410000D03*
X156530000Y-48950000D03*
X156530000Y-46410000D03*
%TD*%
D15*
%TO.C,Q1*%
X245322500Y-157280000D03*
D16*
X245322500Y-159820000D03*
X252942500Y-159820000D03*
X252942500Y-157280000D03*
%TD*%
D17*
%TO.C,K10*%
X216250000Y-168200000D03*
X216250000Y-180200000D03*
X228450000Y-180200000D03*
X228450000Y-168200000D03*
X214250000Y-174200000D03*
%TD*%
D13*
%TO.C,J16*%
X148450000Y-91550000D03*
D14*
X148450000Y-89010000D03*
%TD*%
D13*
%TO.C,J15*%
X204640000Y-137500000D03*
D14*
X202100000Y-137500000D03*
%TD*%
D18*
%TO.C,Q9*%
X206920000Y-145900000D03*
D19*
X205650000Y-145900000D03*
X204380000Y-145900000D03*
%TD*%
D13*
%TO.C,J14*%
X204190000Y-158750000D03*
D14*
X201650000Y-158750000D03*
%TD*%
D16*
%TO.C,Q21*%
X195270000Y-178092500D03*
X192730000Y-178092500D03*
X192730000Y-170472500D03*
D15*
X195270000Y-170472500D03*
%TD*%
D14*
%TO.C,J30*%
X124700000Y-78515000D03*
D13*
X124700000Y-75975000D03*
%TD*%
%TO.C,J3*%
X139070000Y-58600000D03*
D14*
X141610000Y-58600000D03*
X144150000Y-58600000D03*
X146690000Y-58600000D03*
%TD*%
D20*
%TO.C,J10*%
X126900000Y-146540000D03*
D21*
X126900000Y-141460000D03*
%TD*%
D22*
%TO.C,Q7*%
X264700000Y-146125000D03*
D23*
X264700000Y-147395000D03*
X264700000Y-148665000D03*
%TD*%
D15*
%TO.C,Q3*%
X290440000Y-158105000D03*
D16*
X290440000Y-160645000D03*
X298060000Y-160645000D03*
X298060000Y-158105000D03*
%TD*%
D24*
%TO.C,U2*%
X188480000Y-114780000D03*
X188480000Y-104620000D03*
X191020000Y-114780000D03*
D25*
X196100000Y-114780000D03*
D24*
X193560000Y-114780000D03*
X185940000Y-114780000D03*
X183400000Y-114780000D03*
X191020000Y-104620000D03*
D25*
X196100000Y-104620000D03*
D24*
X193560000Y-104620000D03*
X185940000Y-104620000D03*
X183400000Y-104620000D03*
%TD*%
D19*
%TO.C,Q18*%
X162730000Y-160360000D03*
X161460000Y-160360000D03*
D18*
X160190000Y-160360000D03*
%TD*%
D17*
%TO.C,K2*%
X271750000Y-140525000D03*
X265750000Y-126325000D03*
X277750000Y-126325000D03*
X277750000Y-138525000D03*
X265750000Y-138525000D03*
%TD*%
%TO.C,K5*%
X213900000Y-131100000D03*
X228100000Y-125100000D03*
X228100000Y-137100000D03*
X215900000Y-137100000D03*
X215900000Y-125100000D03*
%TD*%
%TO.C,K9*%
X152260000Y-153850000D03*
X138060000Y-159850000D03*
X138060000Y-147850000D03*
X150260000Y-147850000D03*
X150260000Y-159850000D03*
%TD*%
D14*
%TO.C,U3*%
X189790000Y-94450000D03*
D13*
X187250000Y-94450000D03*
D14*
X184710000Y-94450000D03*
X196140000Y-46420000D03*
X196140000Y-48960000D03*
D13*
X196140000Y-51500000D03*
D14*
X196140000Y-54040000D03*
X196140000Y-56580000D03*
X196140000Y-59120000D03*
X196140000Y-61660000D03*
D13*
X196140000Y-64200000D03*
D14*
X196140000Y-66740000D03*
X196140000Y-69280000D03*
X196140000Y-71820000D03*
X196140000Y-74360000D03*
D13*
X196140000Y-76900000D03*
D14*
X196140000Y-79440000D03*
X196140000Y-81980000D03*
X196140000Y-84520000D03*
X196140000Y-87060000D03*
D13*
X196140000Y-89600000D03*
D14*
X196140000Y-92140000D03*
X196140000Y-94680000D03*
X178360000Y-94680000D03*
X178360000Y-92140000D03*
D13*
X178360000Y-89600000D03*
D14*
X178360000Y-87060000D03*
X178360000Y-84520000D03*
X178360000Y-81980000D03*
X178360000Y-79440000D03*
D13*
X178360000Y-76900000D03*
D14*
X178360000Y-74360000D03*
X178360000Y-71820000D03*
X178360000Y-69280000D03*
X178360000Y-66740000D03*
D13*
X178360000Y-64200000D03*
D14*
X178360000Y-61660000D03*
X178360000Y-59120000D03*
X178360000Y-56580000D03*
X178360000Y-54040000D03*
D13*
X178360000Y-51500000D03*
D14*
X178360000Y-48960000D03*
X178360000Y-46420000D03*
D26*
X189675000Y-49580000D03*
D27*
X184525000Y-46550000D03*
D26*
X184825000Y-49580000D03*
D27*
X189975000Y-46550000D03*
%TD*%
D21*
%TO.C,J20*%
X126800000Y-95710000D03*
D20*
X126800000Y-100790000D03*
%TD*%
D14*
%TO.C,J9*%
X202235000Y-180350000D03*
D13*
X204775000Y-180350000D03*
%TD*%
D18*
%TO.C,Q10*%
X206670000Y-123790000D03*
D19*
X205400000Y-123790000D03*
X204130000Y-123790000D03*
%TD*%
D15*
%TO.C,Q19*%
X298710000Y-80520000D03*
D16*
X298710000Y-77980000D03*
X291090000Y-77980000D03*
X291090000Y-80520000D03*
%TD*%
D13*
%TO.C,J19*%
X159260000Y-147050000D03*
D14*
X161800000Y-147050000D03*
%TD*%
D22*
%TO.C,Q15*%
X162350000Y-93590000D03*
D23*
X162350000Y-92320000D03*
X162350000Y-91050000D03*
%TD*%
D17*
%TO.C,K7*%
X152260000Y-131200000D03*
X138060000Y-137200000D03*
X138060000Y-125200000D03*
X150260000Y-125200000D03*
X150260000Y-137200000D03*
%TD*%
D14*
%TO.C,U4*%
X271840000Y-94855000D03*
D13*
X269300000Y-94855000D03*
D14*
X266760000Y-94855000D03*
X278190000Y-46825000D03*
X278190000Y-49365000D03*
D13*
X278190000Y-51905000D03*
D14*
X278190000Y-54445000D03*
X278190000Y-56985000D03*
X278190000Y-59525000D03*
X278190000Y-62065000D03*
D13*
X278190000Y-64605000D03*
D14*
X278190000Y-67145000D03*
X278190000Y-69685000D03*
X278190000Y-72225000D03*
X278190000Y-74765000D03*
D13*
X278190000Y-77305000D03*
D14*
X278190000Y-79845000D03*
X278190000Y-82385000D03*
X278190000Y-84925000D03*
X278190000Y-87465000D03*
D13*
X278190000Y-90005000D03*
D14*
X278190000Y-92545000D03*
X278190000Y-95085000D03*
X260410000Y-95085000D03*
X260410000Y-92545000D03*
D13*
X260410000Y-90005000D03*
D14*
X260410000Y-87465000D03*
X260410000Y-84925000D03*
X260410000Y-82385000D03*
X260410000Y-79845000D03*
D13*
X260410000Y-77305000D03*
D14*
X260410000Y-74765000D03*
X260410000Y-72225000D03*
X260410000Y-69685000D03*
X260410000Y-67145000D03*
D13*
X260410000Y-64605000D03*
D14*
X260410000Y-62065000D03*
X260410000Y-59525000D03*
X260410000Y-56985000D03*
X260410000Y-54445000D03*
D13*
X260410000Y-51905000D03*
D14*
X260410000Y-49365000D03*
X260410000Y-46825000D03*
D27*
X266575000Y-46955000D03*
X272025000Y-46955000D03*
D26*
X266875000Y-49985000D03*
X271725000Y-49985000D03*
%TD*%
D17*
%TO.C,K4*%
X213900000Y-152350000D03*
X228100000Y-146350000D03*
X228100000Y-158350000D03*
X215900000Y-158350000D03*
X215900000Y-146350000D03*
%TD*%
D13*
%TO.C,J2*%
X174900000Y-107325000D03*
D14*
X174900000Y-109865000D03*
X174900000Y-112405000D03*
%TD*%
D13*
%TO.C,J4*%
X255000000Y-107810000D03*
D14*
X255000000Y-110350000D03*
X255000000Y-112890000D03*
%TD*%
D15*
%TO.C,Q12*%
X170540000Y-134577500D03*
D16*
X173080000Y-134577500D03*
X173080000Y-126957500D03*
X170540000Y-126957500D03*
%TD*%
D14*
%TO.C,J5*%
X178825000Y-173990000D03*
D13*
X178825000Y-171450000D03*
%TD*%
D28*
%TO.C,H1*%
X128450000Y-51500000D03*
%TD*%
D13*
%TO.C,J12*%
X277850000Y-147850000D03*
D14*
X277850000Y-150390000D03*
%TD*%
D24*
%TO.C,U5*%
X268230000Y-115980000D03*
X268230000Y-105820000D03*
X270770000Y-115980000D03*
D25*
X275850000Y-115980000D03*
D24*
X273310000Y-115980000D03*
X265690000Y-115980000D03*
X263150000Y-115980000D03*
X270770000Y-105820000D03*
D25*
X275850000Y-105820000D03*
D24*
X273310000Y-105820000D03*
X265690000Y-105820000D03*
X263150000Y-105820000D03*
%TD*%
D29*
%TO.C,U6*%
X233340000Y-67680000D03*
D30*
X215560000Y-67680000D03*
X215560000Y-108320000D03*
X233340000Y-108320000D03*
%TD*%
D31*
%TO.C,S2*%
X134100000Y-65750000D03*
D32*
X129400000Y-65750000D03*
X124700000Y-65750000D03*
%TD*%
D14*
%TO.C,J7*%
X239740000Y-46400000D03*
X239740000Y-48940000D03*
X242280000Y-46400000D03*
X242280000Y-48940000D03*
X244820000Y-46400000D03*
X244820000Y-48940000D03*
X247360000Y-46400000D03*
X247360000Y-48940000D03*
X249900000Y-46400000D03*
X249900000Y-48940000D03*
X252440000Y-46400000D03*
D13*
X252440000Y-48940000D03*
%TD*%
D15*
%TO.C,Q11*%
X159660000Y-82920000D03*
D16*
X159660000Y-80380000D03*
X152040000Y-80380000D03*
X152040000Y-82920000D03*
%TD*%
D15*
%TO.C,Q5*%
X194420000Y-127290000D03*
D16*
X191880000Y-127290000D03*
X191880000Y-134910000D03*
X194420000Y-134910000D03*
%TD*%
D15*
%TO.C,Q4*%
X194320000Y-148872500D03*
D16*
X191780000Y-148872500D03*
X191780000Y-156492500D03*
X194320000Y-156492500D03*
%TD*%
D28*
%TO.C,H3*%
X297150000Y-51500000D03*
%TD*%
D13*
%TO.C,J13*%
X300200000Y-148050000D03*
D14*
X300200000Y-150590000D03*
%TD*%
D17*
%TO.C,K11*%
X295150000Y-99950000D03*
X301150000Y-114150000D03*
X289150000Y-114150000D03*
X289150000Y-101950000D03*
X301150000Y-101950000D03*
%TD*%
D28*
%TO.C,H2*%
X128450000Y-177200000D03*
%TD*%
D18*
%TO.C,Q16*%
X159410000Y-138200000D03*
D19*
X160680000Y-138200000D03*
X161950000Y-138200000D03*
%TD*%
D13*
%TO.C,J29*%
X288550000Y-87425000D03*
D14*
X288550000Y-89965000D03*
%TD*%
D23*
%TO.C,Q8*%
X286840000Y-149595000D03*
X286840000Y-148325000D03*
D22*
X286840000Y-147055000D03*
%TD*%
D28*
%TO.C,H4*%
X297200000Y-177200000D03*
%TD*%
D17*
%TO.C,K1*%
X248900000Y-140800000D03*
X242900000Y-126600000D03*
X254900000Y-126600000D03*
X254900000Y-138800000D03*
X242900000Y-138800000D03*
%TD*%
D15*
%TO.C,Q2*%
X267890000Y-156455000D03*
D16*
X267890000Y-158995000D03*
X275510000Y-158995000D03*
X275510000Y-156455000D03*
%TD*%
D13*
%TO.C,J11*%
X255000000Y-148525000D03*
D14*
X255000000Y-151065000D03*
%TD*%
D22*
%TO.C,Q20*%
X302010000Y-90270000D03*
D23*
X302010000Y-89000000D03*
X302010000Y-87730000D03*
%TD*%
D17*
%TO.C,K6*%
X156200000Y-100500000D03*
X162200000Y-114700000D03*
X150200000Y-114700000D03*
X150200000Y-102500000D03*
X162200000Y-102500000D03*
%TD*%
D19*
%TO.C,Q22*%
X204250000Y-166850000D03*
X205520000Y-166850000D03*
D18*
X206790000Y-166850000D03*
%TD*%
D24*
%TO.C,U1*%
X158070000Y-60580000D03*
X168230000Y-60580000D03*
X158070000Y-63120000D03*
D25*
X158070000Y-68200000D03*
D24*
X158070000Y-65660000D03*
X158070000Y-58040000D03*
X158070000Y-55500000D03*
X168230000Y-63120000D03*
D25*
X168230000Y-68200000D03*
D24*
X168230000Y-65660000D03*
X168230000Y-58040000D03*
X168230000Y-55500000D03*
%TD*%
D17*
%TO.C,K3*%
X294250000Y-140525000D03*
X288250000Y-126325000D03*
X300250000Y-126325000D03*
X300250000Y-138525000D03*
X288250000Y-138525000D03*
%TD*%
D24*
%TO.C,U8*%
X250830000Y-55000000D03*
X250830000Y-57540000D03*
X250830000Y-65160000D03*
D25*
X250830000Y-67700000D03*
D24*
X250830000Y-62620000D03*
X240670000Y-55000000D03*
X240670000Y-57540000D03*
X240670000Y-65160000D03*
D25*
X240670000Y-67700000D03*
D24*
X240670000Y-62620000D03*
X250830000Y-60080000D03*
X240670000Y-60080000D03*
%TD*%
D22*
%TO.C,Q6*%
X241740000Y-146880000D03*
D23*
X241740000Y-148150000D03*
X241740000Y-149420000D03*
%TD*%
D16*
%TO.C,Q14*%
X170840000Y-150040000D03*
X173380000Y-150040000D03*
X173380000Y-157660000D03*
D15*
X170840000Y-157660000D03*
%TD*%
D13*
%TO.C,J6*%
X206625000Y-46500000D03*
D14*
X209165000Y-46500000D03*
X211705000Y-46500000D03*
%TD*%
D13*
%TO.C,J17*%
X159435000Y-124900000D03*
D14*
X161975000Y-124900000D03*
%TD*%
M02*
