G04 #@! TF.GenerationSoftware,KiCad,Pcbnew,(5.1.10-1-10_14)*
G04 #@! TF.CreationDate,2021-10-13T16:24:28-04:00*
G04 #@! TF.ProjectId,CC_PCB_V1,43435f50-4342-45f5-9631-2e6b69636164,10/13/2021*
G04 #@! TF.SameCoordinates,Original*
G04 #@! TF.FileFunction,Copper,L2,Bot*
G04 #@! TF.FilePolarity,Positive*
%FSLAX46Y46*%
G04 Gerber Fmt 4.6, Leading zero omitted, Abs format (unit mm)*
G04 Created by KiCad (PCBNEW (5.1.10-1-10_14)) date 2021-10-13 16:24:28*
%MOMM*%
%LPD*%
G01*
G04 APERTURE LIST*
G04 #@! TA.AperFunction,ComponentPad*
%ADD10C,3.276000*%
G04 #@! TD*
G04 #@! TA.AperFunction,ComponentPad*
%ADD11C,1.428000*%
G04 #@! TD*
G04 #@! TA.AperFunction,ComponentPad*
%ADD12R,1.428000X1.428000*%
G04 #@! TD*
G04 #@! TA.AperFunction,ComponentPad*
%ADD13C,1.200000*%
G04 #@! TD*
G04 #@! TA.AperFunction,ComponentPad*
%ADD14R,1.200000X1.200000*%
G04 #@! TD*
G04 #@! TA.AperFunction,ComponentPad*
%ADD15C,3.000000*%
G04 #@! TD*
G04 #@! TA.AperFunction,ComponentPad*
%ADD16R,1.500000X1.050000*%
G04 #@! TD*
G04 #@! TA.AperFunction,ComponentPad*
%ADD17O,1.500000X1.050000*%
G04 #@! TD*
G04 #@! TA.AperFunction,ComponentPad*
%ADD18C,1.260000*%
G04 #@! TD*
G04 #@! TA.AperFunction,ComponentPad*
%ADD19R,1.260000X1.260000*%
G04 #@! TD*
G04 #@! TA.AperFunction,ComponentPad*
%ADD20O,1.700000X1.700000*%
G04 #@! TD*
G04 #@! TA.AperFunction,ComponentPad*
%ADD21R,1.700000X1.700000*%
G04 #@! TD*
G04 #@! TA.AperFunction,ComponentPad*
%ADD22C,1.650000*%
G04 #@! TD*
G04 #@! TA.AperFunction,ComponentPad*
%ADD23R,1.650000X1.650000*%
G04 #@! TD*
G04 #@! TA.AperFunction,ComponentPad*
%ADD24C,2.100000*%
G04 #@! TD*
G04 #@! TA.AperFunction,ComponentPad*
%ADD25R,2.100000X2.100000*%
G04 #@! TD*
G04 #@! TA.AperFunction,ViaPad*
%ADD26C,0.800000*%
G04 #@! TD*
G04 #@! TA.AperFunction,Conductor*
%ADD27C,0.250000*%
G04 #@! TD*
G04 #@! TA.AperFunction,Conductor*
%ADD28C,0.254000*%
G04 #@! TD*
G04 #@! TA.AperFunction,Conductor*
%ADD29C,0.100000*%
G04 #@! TD*
G04 APERTURE END LIST*
G04 #@! TA.AperFunction,SMDPad,CuDef*
G36*
G01*
X147262500Y-114025000D02*
X147737500Y-114025000D01*
G75*
G02*
X147975000Y-114262500I0J-237500D01*
G01*
X147975000Y-114762500D01*
G75*
G02*
X147737500Y-115000000I-237500J0D01*
G01*
X147262500Y-115000000D01*
G75*
G02*
X147025000Y-114762500I0J237500D01*
G01*
X147025000Y-114262500D01*
G75*
G02*
X147262500Y-114025000I237500J0D01*
G01*
G37*
G04 #@! TD.AperFunction*
G04 #@! TA.AperFunction,SMDPad,CuDef*
G36*
G01*
X147262500Y-112200000D02*
X147737500Y-112200000D01*
G75*
G02*
X147975000Y-112437500I0J-237500D01*
G01*
X147975000Y-112937500D01*
G75*
G02*
X147737500Y-113175000I-237500J0D01*
G01*
X147262500Y-113175000D01*
G75*
G02*
X147025000Y-112937500I0J237500D01*
G01*
X147025000Y-112437500D01*
G75*
G02*
X147262500Y-112200000I237500J0D01*
G01*
G37*
G04 #@! TD.AperFunction*
G04 #@! TA.AperFunction,SMDPad,CuDef*
G36*
G01*
X147737500Y-122375000D02*
X147262500Y-122375000D01*
G75*
G02*
X147025000Y-122137500I0J237500D01*
G01*
X147025000Y-121637500D01*
G75*
G02*
X147262500Y-121400000I237500J0D01*
G01*
X147737500Y-121400000D01*
G75*
G02*
X147975000Y-121637500I0J-237500D01*
G01*
X147975000Y-122137500D01*
G75*
G02*
X147737500Y-122375000I-237500J0D01*
G01*
G37*
G04 #@! TD.AperFunction*
G04 #@! TA.AperFunction,SMDPad,CuDef*
G36*
G01*
X147737500Y-124200000D02*
X147262500Y-124200000D01*
G75*
G02*
X147025000Y-123962500I0J237500D01*
G01*
X147025000Y-123462500D01*
G75*
G02*
X147262500Y-123225000I237500J0D01*
G01*
X147737500Y-123225000D01*
G75*
G02*
X147975000Y-123462500I0J-237500D01*
G01*
X147975000Y-123962500D01*
G75*
G02*
X147737500Y-124200000I-237500J0D01*
G01*
G37*
G04 #@! TD.AperFunction*
D10*
X88307200Y-149618700D03*
X75167200Y-149618700D03*
D11*
X85237200Y-146908700D03*
X82737200Y-146908700D03*
X80737200Y-146908700D03*
D12*
X78237200Y-146908700D03*
D13*
X124828300Y-136663300D03*
D14*
X124828300Y-138163300D03*
D13*
X137021700Y-135851900D03*
D14*
X135521700Y-135851900D03*
D15*
X78970000Y-73056000D03*
X76970000Y-79056000D03*
X64770000Y-79056000D03*
X64770000Y-67056000D03*
X76970000Y-67056000D03*
X78716000Y-36861000D03*
X76716000Y-42861000D03*
X64516000Y-42861000D03*
X64516000Y-30861000D03*
X76716000Y-30861000D03*
D16*
X95377000Y-76962000D03*
D17*
X95377000Y-74422000D03*
X95377000Y-75692000D03*
D16*
X103949500Y-33210500D03*
D17*
X103949500Y-30670500D03*
X103949500Y-31940500D03*
D18*
X83947000Y-69596000D03*
X83947000Y-67056000D03*
X91567000Y-67056000D03*
D19*
X91567000Y-69596000D03*
D18*
X91948000Y-31242000D03*
X91948000Y-33782000D03*
X84328000Y-33782000D03*
D19*
X84328000Y-31242000D03*
D20*
X145948400Y-28816300D03*
D21*
X148488400Y-28816300D03*
D22*
X67360800Y-154889200D03*
D23*
X62280800Y-154889200D03*
D22*
X116471700Y-24244300D03*
D23*
X121551700Y-24244300D03*
D20*
X100685600Y-63080900D03*
D21*
X98145600Y-63080900D03*
D20*
X94107000Y-25781000D03*
D21*
X96647000Y-25781000D03*
D20*
X103000000Y-41300000D03*
X103000000Y-43840000D03*
X103000000Y-46380000D03*
X103000000Y-48920000D03*
X103000000Y-51460000D03*
D21*
X103000000Y-54000000D03*
D20*
X96460000Y-108380000D03*
X99000000Y-108380000D03*
X96460000Y-110920000D03*
X99000000Y-110920000D03*
X96460000Y-113460000D03*
X99000000Y-113460000D03*
X96460000Y-116000000D03*
D21*
X99000000Y-116000000D03*
D22*
X152100000Y-145640000D03*
D23*
X152100000Y-140560000D03*
D20*
X139540000Y-83400000D03*
D21*
X137000000Y-83400000D03*
D20*
X134460000Y-83400000D03*
X145890000Y-35370000D03*
X145890000Y-37910000D03*
D21*
X145890000Y-40450000D03*
D20*
X145890000Y-42990000D03*
X145890000Y-45530000D03*
X145890000Y-48070000D03*
X145890000Y-50610000D03*
D21*
X145890000Y-53150000D03*
D20*
X145890000Y-55690000D03*
X145890000Y-58230000D03*
X145890000Y-60770000D03*
X145890000Y-63310000D03*
D21*
X145890000Y-65850000D03*
D20*
X145890000Y-68390000D03*
X145890000Y-70930000D03*
X145890000Y-73470000D03*
X145890000Y-76010000D03*
D21*
X145890000Y-78550000D03*
D20*
X145890000Y-81090000D03*
X145890000Y-83630000D03*
X128110000Y-83630000D03*
X128110000Y-81090000D03*
D21*
X128110000Y-78550000D03*
D20*
X128110000Y-76010000D03*
X128110000Y-73470000D03*
X128110000Y-70930000D03*
X128110000Y-68390000D03*
D21*
X128110000Y-65850000D03*
D20*
X128110000Y-63310000D03*
X128110000Y-60770000D03*
X128110000Y-58230000D03*
X128110000Y-55690000D03*
D21*
X128110000Y-53150000D03*
D20*
X128110000Y-50610000D03*
X128110000Y-48070000D03*
X128110000Y-45530000D03*
X128110000Y-42990000D03*
D21*
X128110000Y-40450000D03*
D20*
X128110000Y-37910000D03*
X128110000Y-35370000D03*
D24*
X152600000Y-133440000D03*
X152600000Y-130900000D03*
X152600000Y-128360000D03*
X152600000Y-125820000D03*
X152600000Y-123280000D03*
X152600000Y-120740000D03*
D25*
X152600000Y-118200000D03*
D22*
X60096400Y-133019800D03*
D23*
X60096400Y-127939800D03*
D26*
X117725000Y-65851485D03*
X117800000Y-93800000D03*
X116012653Y-59987347D03*
X98412653Y-117787347D03*
X154200000Y-145300000D03*
X103000000Y-56000000D03*
X102000000Y-116000000D03*
X87000000Y-147000000D03*
X62000000Y-134000000D03*
X131000000Y-137000000D03*
X98000000Y-74300000D03*
X106700000Y-30400000D03*
X130200000Y-79600000D03*
X142800000Y-81000000D03*
X151725000Y-68400000D03*
X104987347Y-53012653D03*
X115000000Y-60000000D03*
X92800000Y-43175000D03*
X144300000Y-124000000D03*
X143225000Y-111603660D03*
D27*
X122000000Y-61576485D02*
X117725000Y-65851485D01*
X122000000Y-51000000D02*
X122000000Y-61576485D01*
X124930000Y-48070000D02*
X122000000Y-51000000D01*
X128110000Y-48070000D02*
X124930000Y-48070000D01*
X124770000Y-60230000D02*
X117800000Y-67200000D01*
X124770000Y-58230000D02*
X124770000Y-60230000D01*
X117800000Y-67200000D02*
X117800000Y-93800000D01*
X128110000Y-58230000D02*
X124770000Y-58230000D01*
X100380000Y-110920000D02*
X99000000Y-110920000D01*
X116000000Y-95300000D02*
X100380000Y-110920000D01*
X116000000Y-60565685D02*
X116000000Y-95300000D01*
X116012653Y-60553032D02*
X116000000Y-60565685D01*
X116012653Y-59987347D02*
X116012653Y-60553032D01*
X98412653Y-117787347D02*
X95087347Y-117787347D01*
X95087347Y-117787347D02*
X94600000Y-117300000D01*
X94600000Y-115320000D02*
X96460000Y-113460000D01*
X94600000Y-117300000D02*
X94600000Y-115320000D01*
X99000000Y-116000000D02*
X102000000Y-116000000D01*
X137021700Y-136136902D02*
X137021700Y-135851900D01*
X136158602Y-137000000D02*
X137021700Y-136136902D01*
X131000000Y-137000000D02*
X136158602Y-137000000D01*
X94107000Y-32407000D02*
X103000000Y-41300000D01*
X94107000Y-25781000D02*
X94107000Y-32407000D01*
X145800000Y-81000000D02*
X145890000Y-81090000D01*
X142800000Y-81000000D02*
X145800000Y-81000000D01*
X157200000Y-128840000D02*
X152600000Y-133440000D01*
X157200000Y-117600000D02*
X157200000Y-128840000D01*
X152800000Y-113200000D02*
X157200000Y-117600000D01*
X152800000Y-59800000D02*
X152800000Y-113200000D01*
X148690000Y-55690000D02*
X152800000Y-59800000D01*
X145890000Y-55690000D02*
X148690000Y-55690000D01*
X147500000Y-121887500D02*
X147500000Y-122200000D01*
X147500000Y-122200000D02*
X150900000Y-125600000D01*
X150900000Y-126660000D02*
X152600000Y-128360000D01*
X150900000Y-125600000D02*
X150900000Y-126660000D01*
X145900000Y-68400000D02*
X145890000Y-68390000D01*
X151725000Y-68400000D02*
X145900000Y-68400000D01*
X128110000Y-76010000D02*
X132700000Y-80600000D01*
X132700000Y-103380000D02*
X152600000Y-123280000D01*
X132700000Y-80600000D02*
X132700000Y-103380000D01*
X128110000Y-73470000D02*
X128110000Y-73510000D01*
X131870000Y-73470000D02*
X128110000Y-73470000D01*
X132970000Y-73470000D02*
X131870000Y-73470000D01*
X142500000Y-83000000D02*
X132970000Y-73470000D01*
X142500000Y-112124924D02*
X142500000Y-83000000D01*
X152600000Y-120740000D02*
X151115076Y-120740000D01*
X144937538Y-114562462D02*
X142500000Y-112124924D01*
X145287500Y-114512500D02*
X145087538Y-114712462D01*
X147500000Y-114512500D02*
X145287500Y-114512500D01*
X145087538Y-114712462D02*
X144937538Y-114562462D01*
X151115076Y-120740000D02*
X145087538Y-114712462D01*
X152100000Y-140560000D02*
X145360000Y-140560000D01*
X139726899Y-134926899D02*
X139626899Y-134926899D01*
X145360000Y-140560000D02*
X139726899Y-134926899D01*
X139626899Y-134926899D02*
X139000000Y-134300000D01*
X137073600Y-134300000D02*
X135521700Y-135851900D01*
X139000000Y-134300000D02*
X137073600Y-134300000D01*
X108012653Y-53012653D02*
X115000000Y-60000000D01*
X104987347Y-53012653D02*
X108012653Y-53012653D01*
X101085000Y-51460000D02*
X92800000Y-43175000D01*
X103000000Y-51460000D02*
X101085000Y-51460000D01*
X98145600Y-63080900D02*
X93419100Y-63080900D01*
X86904000Y-69596000D02*
X83947000Y-69596000D01*
X93419100Y-63080900D02*
X86904000Y-69596000D01*
X64770000Y-67056000D02*
X64770000Y-45930000D01*
X64770000Y-45930000D02*
X66700000Y-44000000D01*
X66700000Y-33045000D02*
X64516000Y-30861000D01*
X66700000Y-44000000D02*
X66700000Y-33045000D01*
X116471700Y-24244300D02*
X115600000Y-23372600D01*
X76372400Y-23372600D02*
X66700000Y-33045000D01*
X115600000Y-23372600D02*
X76372400Y-23372600D01*
X64770000Y-79056000D02*
X61100000Y-75386000D01*
X61100000Y-46277000D02*
X64516000Y-42861000D01*
X61100000Y-75386000D02*
X61100000Y-46277000D01*
X121551700Y-24244300D02*
X121551700Y-24051700D01*
X67360800Y-154889200D02*
X67360800Y-144639200D01*
X67360800Y-144639200D02*
X73000000Y-139000000D01*
X73000000Y-79026000D02*
X78970000Y-73056000D01*
X73000000Y-139000000D02*
X73000000Y-79026000D01*
X62280800Y-154889200D02*
X62280800Y-147719200D01*
X62280800Y-147719200D02*
X72000000Y-138000000D01*
X72000000Y-43577000D02*
X78716000Y-36861000D01*
X72000000Y-138000000D02*
X72000000Y-43577000D01*
X144587500Y-123712500D02*
X144300000Y-124000000D01*
X147500000Y-123712500D02*
X144587500Y-123712500D01*
X144308840Y-112687500D02*
X143225000Y-111603660D01*
X147500000Y-112687500D02*
X144308840Y-112687500D01*
D28*
X153549086Y-17384999D02*
X154348063Y-17477217D01*
X155093462Y-17699203D01*
X155788984Y-18047252D01*
X156413506Y-18510791D01*
X156948042Y-19075731D01*
X157376359Y-19724912D01*
X157511928Y-20037952D01*
X157876716Y-57871701D01*
X157811413Y-117147015D01*
X157740001Y-117059999D01*
X157711004Y-117036202D01*
X153560000Y-112885199D01*
X153560000Y-59837325D01*
X153563676Y-59800000D01*
X153560000Y-59762675D01*
X153560000Y-59762667D01*
X153549003Y-59651014D01*
X153505546Y-59507753D01*
X153434974Y-59375724D01*
X153340001Y-59259999D01*
X153311004Y-59236202D01*
X149253804Y-55179003D01*
X149230001Y-55149999D01*
X149114276Y-55055026D01*
X148982247Y-54984454D01*
X148838986Y-54940997D01*
X148727333Y-54930000D01*
X148727322Y-54930000D01*
X148690000Y-54926324D01*
X148652678Y-54930000D01*
X147168178Y-54930000D01*
X147043475Y-54743368D01*
X146911620Y-54611513D01*
X146984180Y-54589502D01*
X147094494Y-54530537D01*
X147191185Y-54451185D01*
X147270537Y-54354494D01*
X147329502Y-54244180D01*
X147365812Y-54124482D01*
X147378072Y-54000000D01*
X147378072Y-52300000D01*
X147365812Y-52175518D01*
X147329502Y-52055820D01*
X147270537Y-51945506D01*
X147191185Y-51848815D01*
X147094494Y-51769463D01*
X146984180Y-51710498D01*
X146911620Y-51688487D01*
X147043475Y-51556632D01*
X147205990Y-51313411D01*
X147317932Y-51043158D01*
X147375000Y-50756260D01*
X147375000Y-50463740D01*
X147317932Y-50176842D01*
X147205990Y-49906589D01*
X147043475Y-49663368D01*
X146836632Y-49456525D01*
X146662240Y-49340000D01*
X146836632Y-49223475D01*
X147043475Y-49016632D01*
X147205990Y-48773411D01*
X147317932Y-48503158D01*
X147375000Y-48216260D01*
X147375000Y-47923740D01*
X147317932Y-47636842D01*
X147205990Y-47366589D01*
X147043475Y-47123368D01*
X146836632Y-46916525D01*
X146662240Y-46800000D01*
X146836632Y-46683475D01*
X147043475Y-46476632D01*
X147205990Y-46233411D01*
X147317932Y-45963158D01*
X147375000Y-45676260D01*
X147375000Y-45383740D01*
X147317932Y-45096842D01*
X147205990Y-44826589D01*
X147043475Y-44583368D01*
X146836632Y-44376525D01*
X146662240Y-44260000D01*
X146836632Y-44143475D01*
X147043475Y-43936632D01*
X147205990Y-43693411D01*
X147317932Y-43423158D01*
X147375000Y-43136260D01*
X147375000Y-42843740D01*
X147317932Y-42556842D01*
X147205990Y-42286589D01*
X147043475Y-42043368D01*
X146911620Y-41911513D01*
X146984180Y-41889502D01*
X147094494Y-41830537D01*
X147191185Y-41751185D01*
X147270537Y-41654494D01*
X147329502Y-41544180D01*
X147365812Y-41424482D01*
X147378072Y-41300000D01*
X147378072Y-39600000D01*
X147365812Y-39475518D01*
X147329502Y-39355820D01*
X147270537Y-39245506D01*
X147191185Y-39148815D01*
X147094494Y-39069463D01*
X146984180Y-39010498D01*
X146911620Y-38988487D01*
X147043475Y-38856632D01*
X147205990Y-38613411D01*
X147317932Y-38343158D01*
X147375000Y-38056260D01*
X147375000Y-37763740D01*
X147317932Y-37476842D01*
X147205990Y-37206589D01*
X147043475Y-36963368D01*
X146836632Y-36756525D01*
X146662240Y-36640000D01*
X146836632Y-36523475D01*
X147043475Y-36316632D01*
X147205990Y-36073411D01*
X147317932Y-35803158D01*
X147375000Y-35516260D01*
X147375000Y-35223740D01*
X147317932Y-34936842D01*
X147205990Y-34666589D01*
X147043475Y-34423368D01*
X146836632Y-34216525D01*
X146593411Y-34054010D01*
X146323158Y-33942068D01*
X146036260Y-33885000D01*
X145743740Y-33885000D01*
X145456842Y-33942068D01*
X145186589Y-34054010D01*
X144943368Y-34216525D01*
X144736525Y-34423368D01*
X144574010Y-34666589D01*
X144462068Y-34936842D01*
X144405000Y-35223740D01*
X144405000Y-35516260D01*
X144462068Y-35803158D01*
X144574010Y-36073411D01*
X144736525Y-36316632D01*
X144943368Y-36523475D01*
X145117760Y-36640000D01*
X144943368Y-36756525D01*
X144736525Y-36963368D01*
X144574010Y-37206589D01*
X144462068Y-37476842D01*
X144405000Y-37763740D01*
X144405000Y-38056260D01*
X144462068Y-38343158D01*
X144574010Y-38613411D01*
X144736525Y-38856632D01*
X144868380Y-38988487D01*
X144795820Y-39010498D01*
X144685506Y-39069463D01*
X144588815Y-39148815D01*
X144509463Y-39245506D01*
X144450498Y-39355820D01*
X144414188Y-39475518D01*
X144401928Y-39600000D01*
X144401928Y-41300000D01*
X144414188Y-41424482D01*
X144450498Y-41544180D01*
X144509463Y-41654494D01*
X144588815Y-41751185D01*
X144685506Y-41830537D01*
X144795820Y-41889502D01*
X144868380Y-41911513D01*
X144736525Y-42043368D01*
X144574010Y-42286589D01*
X144462068Y-42556842D01*
X144405000Y-42843740D01*
X144405000Y-43136260D01*
X144462068Y-43423158D01*
X144574010Y-43693411D01*
X144736525Y-43936632D01*
X144943368Y-44143475D01*
X145117760Y-44260000D01*
X144943368Y-44376525D01*
X144736525Y-44583368D01*
X144574010Y-44826589D01*
X144462068Y-45096842D01*
X144405000Y-45383740D01*
X144405000Y-45676260D01*
X144462068Y-45963158D01*
X144574010Y-46233411D01*
X144736525Y-46476632D01*
X144943368Y-46683475D01*
X145117760Y-46800000D01*
X144943368Y-46916525D01*
X144736525Y-47123368D01*
X144574010Y-47366589D01*
X144462068Y-47636842D01*
X144405000Y-47923740D01*
X144405000Y-48216260D01*
X144462068Y-48503158D01*
X144574010Y-48773411D01*
X144736525Y-49016632D01*
X144943368Y-49223475D01*
X145117760Y-49340000D01*
X144943368Y-49456525D01*
X144736525Y-49663368D01*
X144574010Y-49906589D01*
X144462068Y-50176842D01*
X144405000Y-50463740D01*
X144405000Y-50756260D01*
X144462068Y-51043158D01*
X144574010Y-51313411D01*
X144736525Y-51556632D01*
X144868380Y-51688487D01*
X144795820Y-51710498D01*
X144685506Y-51769463D01*
X144588815Y-51848815D01*
X144509463Y-51945506D01*
X144450498Y-52055820D01*
X144414188Y-52175518D01*
X144401928Y-52300000D01*
X144401928Y-54000000D01*
X144414188Y-54124482D01*
X144450498Y-54244180D01*
X144509463Y-54354494D01*
X144588815Y-54451185D01*
X144685506Y-54530537D01*
X144795820Y-54589502D01*
X144868380Y-54611513D01*
X144736525Y-54743368D01*
X144574010Y-54986589D01*
X144462068Y-55256842D01*
X144405000Y-55543740D01*
X144405000Y-55836260D01*
X144462068Y-56123158D01*
X144574010Y-56393411D01*
X144736525Y-56636632D01*
X144943368Y-56843475D01*
X145117760Y-56960000D01*
X144943368Y-57076525D01*
X144736525Y-57283368D01*
X144574010Y-57526589D01*
X144462068Y-57796842D01*
X144405000Y-58083740D01*
X144405000Y-58376260D01*
X144462068Y-58663158D01*
X144574010Y-58933411D01*
X144736525Y-59176632D01*
X144943368Y-59383475D01*
X145117760Y-59500000D01*
X144943368Y-59616525D01*
X144736525Y-59823368D01*
X144574010Y-60066589D01*
X144462068Y-60336842D01*
X144405000Y-60623740D01*
X144405000Y-60916260D01*
X144462068Y-61203158D01*
X144574010Y-61473411D01*
X144736525Y-61716632D01*
X144943368Y-61923475D01*
X145117760Y-62040000D01*
X144943368Y-62156525D01*
X144736525Y-62363368D01*
X144574010Y-62606589D01*
X144462068Y-62876842D01*
X144405000Y-63163740D01*
X144405000Y-63456260D01*
X144462068Y-63743158D01*
X144574010Y-64013411D01*
X144736525Y-64256632D01*
X144868380Y-64388487D01*
X144795820Y-64410498D01*
X144685506Y-64469463D01*
X144588815Y-64548815D01*
X144509463Y-64645506D01*
X144450498Y-64755820D01*
X144414188Y-64875518D01*
X144401928Y-65000000D01*
X144401928Y-66700000D01*
X144414188Y-66824482D01*
X144450498Y-66944180D01*
X144509463Y-67054494D01*
X144588815Y-67151185D01*
X144685506Y-67230537D01*
X144795820Y-67289502D01*
X144868380Y-67311513D01*
X144736525Y-67443368D01*
X144574010Y-67686589D01*
X144462068Y-67956842D01*
X144405000Y-68243740D01*
X144405000Y-68536260D01*
X144462068Y-68823158D01*
X144574010Y-69093411D01*
X144736525Y-69336632D01*
X144943368Y-69543475D01*
X145117760Y-69660000D01*
X144943368Y-69776525D01*
X144736525Y-69983368D01*
X144574010Y-70226589D01*
X144462068Y-70496842D01*
X144405000Y-70783740D01*
X144405000Y-71076260D01*
X144462068Y-71363158D01*
X144574010Y-71633411D01*
X144736525Y-71876632D01*
X144943368Y-72083475D01*
X145117760Y-72200000D01*
X144943368Y-72316525D01*
X144736525Y-72523368D01*
X144574010Y-72766589D01*
X144462068Y-73036842D01*
X144405000Y-73323740D01*
X144405000Y-73616260D01*
X144462068Y-73903158D01*
X144574010Y-74173411D01*
X144736525Y-74416632D01*
X144943368Y-74623475D01*
X145117760Y-74740000D01*
X144943368Y-74856525D01*
X144736525Y-75063368D01*
X144574010Y-75306589D01*
X144462068Y-75576842D01*
X144405000Y-75863740D01*
X144405000Y-76156260D01*
X144462068Y-76443158D01*
X144574010Y-76713411D01*
X144736525Y-76956632D01*
X144868380Y-77088487D01*
X144795820Y-77110498D01*
X144685506Y-77169463D01*
X144588815Y-77248815D01*
X144509463Y-77345506D01*
X144450498Y-77455820D01*
X144414188Y-77575518D01*
X144401928Y-77700000D01*
X144401928Y-79400000D01*
X144414188Y-79524482D01*
X144450498Y-79644180D01*
X144509463Y-79754494D01*
X144588815Y-79851185D01*
X144685506Y-79930537D01*
X144795820Y-79989502D01*
X144868380Y-80011513D01*
X144736525Y-80143368D01*
X144671958Y-80240000D01*
X143503711Y-80240000D01*
X143459774Y-80196063D01*
X143290256Y-80082795D01*
X143101898Y-80004774D01*
X142901939Y-79965000D01*
X142698061Y-79965000D01*
X142498102Y-80004774D01*
X142309744Y-80082795D01*
X142140226Y-80196063D01*
X141996063Y-80340226D01*
X141882795Y-80509744D01*
X141804774Y-80698102D01*
X141765000Y-80898061D01*
X141765000Y-81101939D01*
X141786915Y-81212113D01*
X133533804Y-72959003D01*
X133510001Y-72929999D01*
X133394276Y-72835026D01*
X133262247Y-72764454D01*
X133118986Y-72720997D01*
X133007333Y-72710000D01*
X133007322Y-72710000D01*
X132970000Y-72706324D01*
X132932678Y-72710000D01*
X129388178Y-72710000D01*
X129263475Y-72523368D01*
X129056632Y-72316525D01*
X128882240Y-72200000D01*
X129056632Y-72083475D01*
X129263475Y-71876632D01*
X129425990Y-71633411D01*
X129537932Y-71363158D01*
X129595000Y-71076260D01*
X129595000Y-70783740D01*
X129537932Y-70496842D01*
X129425990Y-70226589D01*
X129263475Y-69983368D01*
X129056632Y-69776525D01*
X128882240Y-69660000D01*
X129056632Y-69543475D01*
X129263475Y-69336632D01*
X129425990Y-69093411D01*
X129537932Y-68823158D01*
X129595000Y-68536260D01*
X129595000Y-68243740D01*
X129537932Y-67956842D01*
X129425990Y-67686589D01*
X129263475Y-67443368D01*
X129131620Y-67311513D01*
X129204180Y-67289502D01*
X129314494Y-67230537D01*
X129411185Y-67151185D01*
X129490537Y-67054494D01*
X129549502Y-66944180D01*
X129585812Y-66824482D01*
X129598072Y-66700000D01*
X129598072Y-65000000D01*
X129585812Y-64875518D01*
X129549502Y-64755820D01*
X129490537Y-64645506D01*
X129411185Y-64548815D01*
X129314494Y-64469463D01*
X129204180Y-64410498D01*
X129131620Y-64388487D01*
X129263475Y-64256632D01*
X129425990Y-64013411D01*
X129537932Y-63743158D01*
X129595000Y-63456260D01*
X129595000Y-63163740D01*
X129537932Y-62876842D01*
X129425990Y-62606589D01*
X129263475Y-62363368D01*
X129056632Y-62156525D01*
X128882240Y-62040000D01*
X129056632Y-61923475D01*
X129263475Y-61716632D01*
X129425990Y-61473411D01*
X129537932Y-61203158D01*
X129595000Y-60916260D01*
X129595000Y-60623740D01*
X129537932Y-60336842D01*
X129425990Y-60066589D01*
X129263475Y-59823368D01*
X129056632Y-59616525D01*
X128882240Y-59500000D01*
X129056632Y-59383475D01*
X129263475Y-59176632D01*
X129425990Y-58933411D01*
X129537932Y-58663158D01*
X129595000Y-58376260D01*
X129595000Y-58083740D01*
X129537932Y-57796842D01*
X129425990Y-57526589D01*
X129263475Y-57283368D01*
X129056632Y-57076525D01*
X128882240Y-56960000D01*
X129056632Y-56843475D01*
X129263475Y-56636632D01*
X129425990Y-56393411D01*
X129537932Y-56123158D01*
X129595000Y-55836260D01*
X129595000Y-55543740D01*
X129537932Y-55256842D01*
X129425990Y-54986589D01*
X129263475Y-54743368D01*
X129131620Y-54611513D01*
X129204180Y-54589502D01*
X129314494Y-54530537D01*
X129411185Y-54451185D01*
X129490537Y-54354494D01*
X129549502Y-54244180D01*
X129585812Y-54124482D01*
X129598072Y-54000000D01*
X129598072Y-52300000D01*
X129585812Y-52175518D01*
X129549502Y-52055820D01*
X129490537Y-51945506D01*
X129411185Y-51848815D01*
X129314494Y-51769463D01*
X129204180Y-51710498D01*
X129131620Y-51688487D01*
X129263475Y-51556632D01*
X129425990Y-51313411D01*
X129537932Y-51043158D01*
X129595000Y-50756260D01*
X129595000Y-50463740D01*
X129537932Y-50176842D01*
X129425990Y-49906589D01*
X129263475Y-49663368D01*
X129056632Y-49456525D01*
X128882240Y-49340000D01*
X129056632Y-49223475D01*
X129263475Y-49016632D01*
X129425990Y-48773411D01*
X129537932Y-48503158D01*
X129595000Y-48216260D01*
X129595000Y-47923740D01*
X129537932Y-47636842D01*
X129425990Y-47366589D01*
X129263475Y-47123368D01*
X129056632Y-46916525D01*
X128882240Y-46800000D01*
X129056632Y-46683475D01*
X129263475Y-46476632D01*
X129425990Y-46233411D01*
X129537932Y-45963158D01*
X129595000Y-45676260D01*
X129595000Y-45383740D01*
X129537932Y-45096842D01*
X129425990Y-44826589D01*
X129263475Y-44583368D01*
X129056632Y-44376525D01*
X128882240Y-44260000D01*
X129056632Y-44143475D01*
X129263475Y-43936632D01*
X129425990Y-43693411D01*
X129537932Y-43423158D01*
X129595000Y-43136260D01*
X129595000Y-42843740D01*
X129537932Y-42556842D01*
X129425990Y-42286589D01*
X129263475Y-42043368D01*
X129131620Y-41911513D01*
X129204180Y-41889502D01*
X129314494Y-41830537D01*
X129411185Y-41751185D01*
X129490537Y-41654494D01*
X129549502Y-41544180D01*
X129585812Y-41424482D01*
X129598072Y-41300000D01*
X129598072Y-39600000D01*
X129585812Y-39475518D01*
X129549502Y-39355820D01*
X129490537Y-39245506D01*
X129411185Y-39148815D01*
X129314494Y-39069463D01*
X129204180Y-39010498D01*
X129131620Y-38988487D01*
X129263475Y-38856632D01*
X129425990Y-38613411D01*
X129517042Y-38393589D01*
X133190000Y-38393589D01*
X133190000Y-38666411D01*
X133243225Y-38933989D01*
X133347629Y-39186043D01*
X133499201Y-39412886D01*
X133692114Y-39605799D01*
X133918957Y-39757371D01*
X134171011Y-39861775D01*
X134438589Y-39915000D01*
X134711411Y-39915000D01*
X134978989Y-39861775D01*
X135231043Y-39757371D01*
X135457886Y-39605799D01*
X135650799Y-39412886D01*
X135802371Y-39186043D01*
X135906775Y-38933989D01*
X135960000Y-38666411D01*
X135960000Y-38393589D01*
X138040000Y-38393589D01*
X138040000Y-38666411D01*
X138093225Y-38933989D01*
X138197629Y-39186043D01*
X138349201Y-39412886D01*
X138542114Y-39605799D01*
X138768957Y-39757371D01*
X139021011Y-39861775D01*
X139288589Y-39915000D01*
X139561411Y-39915000D01*
X139828989Y-39861775D01*
X140081043Y-39757371D01*
X140307886Y-39605799D01*
X140500799Y-39412886D01*
X140652371Y-39186043D01*
X140756775Y-38933989D01*
X140810000Y-38666411D01*
X140810000Y-38393589D01*
X140756775Y-38126011D01*
X140652371Y-37873957D01*
X140500799Y-37647114D01*
X140307886Y-37454201D01*
X140081043Y-37302629D01*
X139828989Y-37198225D01*
X139561411Y-37145000D01*
X139288589Y-37145000D01*
X139021011Y-37198225D01*
X138768957Y-37302629D01*
X138542114Y-37454201D01*
X138349201Y-37647114D01*
X138197629Y-37873957D01*
X138093225Y-38126011D01*
X138040000Y-38393589D01*
X135960000Y-38393589D01*
X135906775Y-38126011D01*
X135802371Y-37873957D01*
X135650799Y-37647114D01*
X135457886Y-37454201D01*
X135231043Y-37302629D01*
X134978989Y-37198225D01*
X134711411Y-37145000D01*
X134438589Y-37145000D01*
X134171011Y-37198225D01*
X133918957Y-37302629D01*
X133692114Y-37454201D01*
X133499201Y-37647114D01*
X133347629Y-37873957D01*
X133243225Y-38126011D01*
X133190000Y-38393589D01*
X129517042Y-38393589D01*
X129537932Y-38343158D01*
X129595000Y-38056260D01*
X129595000Y-37763740D01*
X129537932Y-37476842D01*
X129425990Y-37206589D01*
X129263475Y-36963368D01*
X129056632Y-36756525D01*
X128882240Y-36640000D01*
X129056632Y-36523475D01*
X129263475Y-36316632D01*
X129425990Y-36073411D01*
X129537932Y-35803158D01*
X129595000Y-35516260D01*
X129595000Y-35348816D01*
X132740000Y-35348816D01*
X132740000Y-35651184D01*
X132798989Y-35947743D01*
X132914701Y-36227095D01*
X133082688Y-36478505D01*
X133296495Y-36692312D01*
X133547905Y-36860299D01*
X133827257Y-36976011D01*
X134123816Y-37035000D01*
X134426184Y-37035000D01*
X134722743Y-36976011D01*
X135002095Y-36860299D01*
X135253505Y-36692312D01*
X135467312Y-36478505D01*
X135635299Y-36227095D01*
X135751011Y-35947743D01*
X135810000Y-35651184D01*
X135810000Y-35348816D01*
X138190000Y-35348816D01*
X138190000Y-35651184D01*
X138248989Y-35947743D01*
X138364701Y-36227095D01*
X138532688Y-36478505D01*
X138746495Y-36692312D01*
X138997905Y-36860299D01*
X139277257Y-36976011D01*
X139573816Y-37035000D01*
X139876184Y-37035000D01*
X140172743Y-36976011D01*
X140452095Y-36860299D01*
X140703505Y-36692312D01*
X140917312Y-36478505D01*
X141085299Y-36227095D01*
X141201011Y-35947743D01*
X141260000Y-35651184D01*
X141260000Y-35348816D01*
X141201011Y-35052257D01*
X141085299Y-34772905D01*
X140917312Y-34521495D01*
X140703505Y-34307688D01*
X140452095Y-34139701D01*
X140172743Y-34023989D01*
X139876184Y-33965000D01*
X139573816Y-33965000D01*
X139277257Y-34023989D01*
X138997905Y-34139701D01*
X138746495Y-34307688D01*
X138532688Y-34521495D01*
X138364701Y-34772905D01*
X138248989Y-35052257D01*
X138190000Y-35348816D01*
X135810000Y-35348816D01*
X135751011Y-35052257D01*
X135635299Y-34772905D01*
X135467312Y-34521495D01*
X135253505Y-34307688D01*
X135002095Y-34139701D01*
X134722743Y-34023989D01*
X134426184Y-33965000D01*
X134123816Y-33965000D01*
X133827257Y-34023989D01*
X133547905Y-34139701D01*
X133296495Y-34307688D01*
X133082688Y-34521495D01*
X132914701Y-34772905D01*
X132798989Y-35052257D01*
X132740000Y-35348816D01*
X129595000Y-35348816D01*
X129595000Y-35223740D01*
X129537932Y-34936842D01*
X129425990Y-34666589D01*
X129263475Y-34423368D01*
X129056632Y-34216525D01*
X128813411Y-34054010D01*
X128543158Y-33942068D01*
X128256260Y-33885000D01*
X127963740Y-33885000D01*
X127676842Y-33942068D01*
X127406589Y-34054010D01*
X127163368Y-34216525D01*
X126956525Y-34423368D01*
X126794010Y-34666589D01*
X126682068Y-34936842D01*
X126625000Y-35223740D01*
X126625000Y-35516260D01*
X126682068Y-35803158D01*
X126794010Y-36073411D01*
X126956525Y-36316632D01*
X127163368Y-36523475D01*
X127337760Y-36640000D01*
X127163368Y-36756525D01*
X126956525Y-36963368D01*
X126794010Y-37206589D01*
X126682068Y-37476842D01*
X126625000Y-37763740D01*
X126625000Y-38056260D01*
X126682068Y-38343158D01*
X126794010Y-38613411D01*
X126956525Y-38856632D01*
X127088380Y-38988487D01*
X127015820Y-39010498D01*
X126905506Y-39069463D01*
X126808815Y-39148815D01*
X126729463Y-39245506D01*
X126670498Y-39355820D01*
X126634188Y-39475518D01*
X126621928Y-39600000D01*
X126621928Y-41300000D01*
X126634188Y-41424482D01*
X126670498Y-41544180D01*
X126729463Y-41654494D01*
X126808815Y-41751185D01*
X126905506Y-41830537D01*
X127015820Y-41889502D01*
X127088380Y-41911513D01*
X126956525Y-42043368D01*
X126794010Y-42286589D01*
X126682068Y-42556842D01*
X126625000Y-42843740D01*
X126625000Y-43136260D01*
X126682068Y-43423158D01*
X126794010Y-43693411D01*
X126956525Y-43936632D01*
X127163368Y-44143475D01*
X127337760Y-44260000D01*
X127163368Y-44376525D01*
X126956525Y-44583368D01*
X126794010Y-44826589D01*
X126682068Y-45096842D01*
X126625000Y-45383740D01*
X126625000Y-45676260D01*
X126682068Y-45963158D01*
X126794010Y-46233411D01*
X126956525Y-46476632D01*
X127163368Y-46683475D01*
X127337760Y-46800000D01*
X127163368Y-46916525D01*
X126956525Y-47123368D01*
X126831822Y-47310000D01*
X124967325Y-47310000D01*
X124930000Y-47306324D01*
X124892675Y-47310000D01*
X124892667Y-47310000D01*
X124781014Y-47320997D01*
X124637753Y-47364454D01*
X124505724Y-47435026D01*
X124389999Y-47529999D01*
X124366201Y-47558997D01*
X121489003Y-50436196D01*
X121459999Y-50459999D01*
X121416201Y-50513368D01*
X121365026Y-50575724D01*
X121298599Y-50700000D01*
X121294454Y-50707754D01*
X121250997Y-50851015D01*
X121240000Y-50962668D01*
X121240000Y-50962678D01*
X121236324Y-51000000D01*
X121240000Y-51037322D01*
X121240001Y-61261682D01*
X117685199Y-64816485D01*
X117623061Y-64816485D01*
X117423102Y-64856259D01*
X117234744Y-64934280D01*
X117065226Y-65047548D01*
X116921063Y-65191711D01*
X116807795Y-65361229D01*
X116760000Y-65476616D01*
X116760000Y-60707477D01*
X116761640Y-60702071D01*
X116816590Y-60647121D01*
X116929858Y-60477603D01*
X117007879Y-60289245D01*
X117047653Y-60089286D01*
X117047653Y-59885408D01*
X117007879Y-59685449D01*
X116929858Y-59497091D01*
X116816590Y-59327573D01*
X116672427Y-59183410D01*
X116502909Y-59070142D01*
X116314551Y-58992121D01*
X116114592Y-58952347D01*
X115910714Y-58952347D01*
X115710755Y-58992121D01*
X115522397Y-59070142D01*
X115496858Y-59087206D01*
X115490256Y-59082795D01*
X115301898Y-59004774D01*
X115101939Y-58965000D01*
X115039802Y-58965000D01*
X108576457Y-52501656D01*
X108552654Y-52472652D01*
X108436929Y-52377679D01*
X108304900Y-52307107D01*
X108161639Y-52263650D01*
X108049986Y-52252653D01*
X108049975Y-52252653D01*
X108012653Y-52248977D01*
X107975331Y-52252653D01*
X105691058Y-52252653D01*
X105647121Y-52208716D01*
X105477603Y-52095448D01*
X105289245Y-52017427D01*
X105089286Y-51977653D01*
X104885408Y-51977653D01*
X104685449Y-52017427D01*
X104497091Y-52095448D01*
X104327573Y-52208716D01*
X104201437Y-52334852D01*
X104315990Y-52163411D01*
X104427932Y-51893158D01*
X104485000Y-51606260D01*
X104485000Y-51313740D01*
X104427932Y-51026842D01*
X104315990Y-50756589D01*
X104153475Y-50513368D01*
X103946632Y-50306525D01*
X103772240Y-50190000D01*
X103946632Y-50073475D01*
X104153475Y-49866632D01*
X104315990Y-49623411D01*
X104427932Y-49353158D01*
X104485000Y-49066260D01*
X104485000Y-48773740D01*
X104427932Y-48486842D01*
X104315990Y-48216589D01*
X104153475Y-47973368D01*
X103946632Y-47766525D01*
X103772240Y-47650000D01*
X103946632Y-47533475D01*
X104153475Y-47326632D01*
X104315990Y-47083411D01*
X104427932Y-46813158D01*
X104485000Y-46526260D01*
X104485000Y-46233740D01*
X104427932Y-45946842D01*
X104315990Y-45676589D01*
X104153475Y-45433368D01*
X103946632Y-45226525D01*
X103772240Y-45110000D01*
X103946632Y-44993475D01*
X104153475Y-44786632D01*
X104315990Y-44543411D01*
X104427932Y-44273158D01*
X104485000Y-43986260D01*
X104485000Y-43693740D01*
X104427932Y-43406842D01*
X104315990Y-43136589D01*
X104153475Y-42893368D01*
X103946632Y-42686525D01*
X103772240Y-42570000D01*
X103946632Y-42453475D01*
X104153475Y-42246632D01*
X104315990Y-42003411D01*
X104427932Y-41733158D01*
X104485000Y-41446260D01*
X104485000Y-41153740D01*
X104427932Y-40866842D01*
X104315990Y-40596589D01*
X104153475Y-40353368D01*
X103946632Y-40146525D01*
X103703411Y-39984010D01*
X103433158Y-39872068D01*
X103146260Y-39815000D01*
X102853740Y-39815000D01*
X102633592Y-39858790D01*
X94867000Y-32092199D01*
X94867000Y-31940500D01*
X102558888Y-31940500D01*
X102581285Y-32167900D01*
X102644593Y-32376598D01*
X102609998Y-32441320D01*
X102573688Y-32561018D01*
X102561428Y-32685500D01*
X102561428Y-33735500D01*
X102573688Y-33859982D01*
X102609998Y-33979680D01*
X102668963Y-34089994D01*
X102748315Y-34186685D01*
X102845006Y-34266037D01*
X102955320Y-34325002D01*
X103075018Y-34361312D01*
X103199500Y-34373572D01*
X104699500Y-34373572D01*
X104823982Y-34361312D01*
X104943680Y-34325002D01*
X105053994Y-34266037D01*
X105150685Y-34186685D01*
X105230037Y-34089994D01*
X105289002Y-33979680D01*
X105325312Y-33859982D01*
X105337572Y-33735500D01*
X105337572Y-32685500D01*
X105325312Y-32561018D01*
X105289002Y-32441320D01*
X105254407Y-32376598D01*
X105317715Y-32167900D01*
X105340112Y-31940500D01*
X105317715Y-31713100D01*
X105251385Y-31494440D01*
X105150571Y-31305831D01*
X105191775Y-31247382D01*
X105284772Y-31037837D01*
X105293464Y-30976310D01*
X105167663Y-30797500D01*
X104402609Y-30797500D01*
X104401900Y-30797285D01*
X104231479Y-30780500D01*
X103667521Y-30780500D01*
X103497100Y-30797285D01*
X103496391Y-30797500D01*
X102731337Y-30797500D01*
X102605536Y-30976310D01*
X102614228Y-31037837D01*
X102707225Y-31247382D01*
X102748429Y-31305831D01*
X102647615Y-31494440D01*
X102581285Y-31713100D01*
X102558888Y-31940500D01*
X94867000Y-31940500D01*
X94867000Y-30364690D01*
X102605536Y-30364690D01*
X102731337Y-30543500D01*
X103822500Y-30543500D01*
X103822500Y-29663902D01*
X104076500Y-29663902D01*
X104076500Y-30543500D01*
X105167663Y-30543500D01*
X105293464Y-30364690D01*
X105284772Y-30303163D01*
X105191775Y-30093618D01*
X105059684Y-29906242D01*
X104893576Y-29748236D01*
X104699834Y-29625672D01*
X104485904Y-29543261D01*
X104260007Y-29504169D01*
X104076500Y-29663902D01*
X103822500Y-29663902D01*
X103638993Y-29504169D01*
X103413096Y-29543261D01*
X103199166Y-29625672D01*
X103005424Y-29748236D01*
X102839316Y-29906242D01*
X102707225Y-30093618D01*
X102614228Y-30303163D01*
X102605536Y-30364690D01*
X94867000Y-30364690D01*
X94867000Y-28670040D01*
X144463400Y-28670040D01*
X144463400Y-28962560D01*
X144520468Y-29249458D01*
X144632410Y-29519711D01*
X144794925Y-29762932D01*
X145001768Y-29969775D01*
X145244989Y-30132290D01*
X145515242Y-30244232D01*
X145802140Y-30301300D01*
X146094660Y-30301300D01*
X146381558Y-30244232D01*
X146651811Y-30132290D01*
X146895032Y-29969775D01*
X147026887Y-29837920D01*
X147048898Y-29910480D01*
X147107863Y-30020794D01*
X147187215Y-30117485D01*
X147283906Y-30196837D01*
X147394220Y-30255802D01*
X147513918Y-30292112D01*
X147638400Y-30304372D01*
X149338400Y-30304372D01*
X149462882Y-30292112D01*
X149582580Y-30255802D01*
X149692894Y-30196837D01*
X149789585Y-30117485D01*
X149868937Y-30020794D01*
X149927902Y-29910480D01*
X149964212Y-29790782D01*
X149976472Y-29666300D01*
X149976472Y-27966300D01*
X149964212Y-27841818D01*
X149927902Y-27722120D01*
X149868937Y-27611806D01*
X149789585Y-27515115D01*
X149692894Y-27435763D01*
X149582580Y-27376798D01*
X149462882Y-27340488D01*
X149338400Y-27328228D01*
X147638400Y-27328228D01*
X147513918Y-27340488D01*
X147394220Y-27376798D01*
X147283906Y-27435763D01*
X147187215Y-27515115D01*
X147107863Y-27611806D01*
X147048898Y-27722120D01*
X147026887Y-27794680D01*
X146895032Y-27662825D01*
X146651811Y-27500310D01*
X146381558Y-27388368D01*
X146094660Y-27331300D01*
X145802140Y-27331300D01*
X145515242Y-27388368D01*
X145244989Y-27500310D01*
X145001768Y-27662825D01*
X144794925Y-27869668D01*
X144632410Y-28112889D01*
X144520468Y-28383142D01*
X144463400Y-28670040D01*
X94867000Y-28670040D01*
X94867000Y-27059178D01*
X95053632Y-26934475D01*
X95185487Y-26802620D01*
X95207498Y-26875180D01*
X95266463Y-26985494D01*
X95345815Y-27082185D01*
X95442506Y-27161537D01*
X95552820Y-27220502D01*
X95672518Y-27256812D01*
X95797000Y-27269072D01*
X97497000Y-27269072D01*
X97621482Y-27256812D01*
X97741180Y-27220502D01*
X97851494Y-27161537D01*
X97948185Y-27082185D01*
X98027537Y-26985494D01*
X98086502Y-26875180D01*
X98122812Y-26755482D01*
X98135072Y-26631000D01*
X98135072Y-24931000D01*
X98122812Y-24806518D01*
X98086502Y-24686820D01*
X98027537Y-24576506D01*
X97948185Y-24479815D01*
X97851494Y-24400463D01*
X97741180Y-24341498D01*
X97621482Y-24305188D01*
X97497000Y-24292928D01*
X95797000Y-24292928D01*
X95672518Y-24305188D01*
X95552820Y-24341498D01*
X95442506Y-24400463D01*
X95345815Y-24479815D01*
X95266463Y-24576506D01*
X95207498Y-24686820D01*
X95185487Y-24759380D01*
X95053632Y-24627525D01*
X94810411Y-24465010D01*
X94540158Y-24353068D01*
X94253260Y-24296000D01*
X93960740Y-24296000D01*
X93673842Y-24353068D01*
X93403589Y-24465010D01*
X93160368Y-24627525D01*
X92953525Y-24834368D01*
X92791010Y-25077589D01*
X92679068Y-25347842D01*
X92622000Y-25634740D01*
X92622000Y-25927260D01*
X92679068Y-26214158D01*
X92791010Y-26484411D01*
X92953525Y-26727632D01*
X93160368Y-26934475D01*
X93347000Y-27059179D01*
X93347001Y-32369668D01*
X93343324Y-32407000D01*
X93347001Y-32444333D01*
X93357998Y-32555986D01*
X93367733Y-32588079D01*
X93401454Y-32699246D01*
X93472026Y-32831276D01*
X93525155Y-32896013D01*
X93567000Y-32947001D01*
X93595998Y-32970799D01*
X101558790Y-40933592D01*
X101515000Y-41153740D01*
X101515000Y-41446260D01*
X101572068Y-41733158D01*
X101684010Y-42003411D01*
X101846525Y-42246632D01*
X102053368Y-42453475D01*
X102227760Y-42570000D01*
X102053368Y-42686525D01*
X101846525Y-42893368D01*
X101684010Y-43136589D01*
X101572068Y-43406842D01*
X101515000Y-43693740D01*
X101515000Y-43986260D01*
X101572068Y-44273158D01*
X101684010Y-44543411D01*
X101846525Y-44786632D01*
X102053368Y-44993475D01*
X102227760Y-45110000D01*
X102053368Y-45226525D01*
X101846525Y-45433368D01*
X101684010Y-45676589D01*
X101572068Y-45946842D01*
X101515000Y-46233740D01*
X101515000Y-46526260D01*
X101572068Y-46813158D01*
X101684010Y-47083411D01*
X101846525Y-47326632D01*
X102053368Y-47533475D01*
X102227760Y-47650000D01*
X102053368Y-47766525D01*
X101846525Y-47973368D01*
X101684010Y-48216589D01*
X101572068Y-48486842D01*
X101515000Y-48773740D01*
X101515000Y-49066260D01*
X101572068Y-49353158D01*
X101684010Y-49623411D01*
X101846525Y-49866632D01*
X102053368Y-50073475D01*
X102227760Y-50190000D01*
X102053368Y-50306525D01*
X101846525Y-50513368D01*
X101721822Y-50700000D01*
X101399802Y-50700000D01*
X93835000Y-43135199D01*
X93835000Y-43073061D01*
X93795226Y-42873102D01*
X93717205Y-42684744D01*
X93603937Y-42515226D01*
X93459774Y-42371063D01*
X93290256Y-42257795D01*
X93101898Y-42179774D01*
X92901939Y-42140000D01*
X92698061Y-42140000D01*
X92498102Y-42179774D01*
X92309744Y-42257795D01*
X92140226Y-42371063D01*
X91996063Y-42515226D01*
X91882795Y-42684744D01*
X91804774Y-42873102D01*
X91765000Y-43073061D01*
X91765000Y-43276939D01*
X91804774Y-43476898D01*
X91882795Y-43665256D01*
X91996063Y-43834774D01*
X92140226Y-43978937D01*
X92309744Y-44092205D01*
X92498102Y-44170226D01*
X92698061Y-44210000D01*
X92760199Y-44210000D01*
X100521201Y-51971003D01*
X100544999Y-52000001D01*
X100660724Y-52094974D01*
X100792753Y-52165546D01*
X100936014Y-52209003D01*
X101047667Y-52220000D01*
X101047676Y-52220000D01*
X101084999Y-52223676D01*
X101122322Y-52220000D01*
X101721822Y-52220000D01*
X101846525Y-52406632D01*
X101978380Y-52538487D01*
X101905820Y-52560498D01*
X101795506Y-52619463D01*
X101698815Y-52698815D01*
X101619463Y-52795506D01*
X101560498Y-52905820D01*
X101524188Y-53025518D01*
X101511928Y-53150000D01*
X101515000Y-53714250D01*
X101673750Y-53873000D01*
X102873000Y-53873000D01*
X102873000Y-53853000D01*
X103127000Y-53853000D01*
X103127000Y-53873000D01*
X104326250Y-53873000D01*
X104360595Y-53838655D01*
X104497091Y-53929858D01*
X104685449Y-54007879D01*
X104885408Y-54047653D01*
X105089286Y-54047653D01*
X105289245Y-54007879D01*
X105477603Y-53929858D01*
X105647121Y-53816590D01*
X105691058Y-53772653D01*
X107697852Y-53772653D01*
X113965000Y-60039802D01*
X113965000Y-60101939D01*
X114004774Y-60301898D01*
X114082795Y-60490256D01*
X114196063Y-60659774D01*
X114340226Y-60803937D01*
X114509744Y-60917205D01*
X114698102Y-60995226D01*
X114898061Y-61035000D01*
X115101939Y-61035000D01*
X115240000Y-61007538D01*
X115240001Y-94985197D01*
X100192871Y-110032328D01*
X100153475Y-109973368D01*
X99946632Y-109766525D01*
X99772240Y-109650000D01*
X99946632Y-109533475D01*
X100153475Y-109326632D01*
X100315990Y-109083411D01*
X100427932Y-108813158D01*
X100485000Y-108526260D01*
X100485000Y-108233740D01*
X100427932Y-107946842D01*
X100315990Y-107676589D01*
X100153475Y-107433368D01*
X99946632Y-107226525D01*
X99703411Y-107064010D01*
X99433158Y-106952068D01*
X99146260Y-106895000D01*
X98853740Y-106895000D01*
X98566842Y-106952068D01*
X98296589Y-107064010D01*
X98053368Y-107226525D01*
X97846525Y-107433368D01*
X97730000Y-107607760D01*
X97613475Y-107433368D01*
X97406632Y-107226525D01*
X97163411Y-107064010D01*
X96893158Y-106952068D01*
X96606260Y-106895000D01*
X96313740Y-106895000D01*
X96026842Y-106952068D01*
X95756589Y-107064010D01*
X95513368Y-107226525D01*
X95306525Y-107433368D01*
X95144010Y-107676589D01*
X95032068Y-107946842D01*
X94975000Y-108233740D01*
X94975000Y-108526260D01*
X95032068Y-108813158D01*
X95144010Y-109083411D01*
X95306525Y-109326632D01*
X95513368Y-109533475D01*
X95687760Y-109650000D01*
X95513368Y-109766525D01*
X95306525Y-109973368D01*
X95144010Y-110216589D01*
X95032068Y-110486842D01*
X94975000Y-110773740D01*
X94975000Y-111066260D01*
X95032068Y-111353158D01*
X95144010Y-111623411D01*
X95306525Y-111866632D01*
X95513368Y-112073475D01*
X95687760Y-112190000D01*
X95513368Y-112306525D01*
X95306525Y-112513368D01*
X95144010Y-112756589D01*
X95032068Y-113026842D01*
X94975000Y-113313740D01*
X94975000Y-113606260D01*
X95018790Y-113826408D01*
X94088998Y-114756201D01*
X94060000Y-114779999D01*
X94036202Y-114808997D01*
X94036201Y-114808998D01*
X93965026Y-114895724D01*
X93894454Y-115027754D01*
X93864573Y-115126261D01*
X93850998Y-115171014D01*
X93841445Y-115268007D01*
X93836324Y-115320000D01*
X93840001Y-115357332D01*
X93840000Y-117262677D01*
X93836324Y-117300000D01*
X93840000Y-117337322D01*
X93840000Y-117337332D01*
X93850997Y-117448985D01*
X93885482Y-117562668D01*
X93894454Y-117592246D01*
X93965026Y-117724276D01*
X94004871Y-117772826D01*
X94059999Y-117840001D01*
X94089003Y-117863804D01*
X94523543Y-118298344D01*
X94547346Y-118327348D01*
X94663071Y-118422321D01*
X94795100Y-118492893D01*
X94938361Y-118536350D01*
X95050014Y-118547347D01*
X95050022Y-118547347D01*
X95087347Y-118551023D01*
X95124672Y-118547347D01*
X97708942Y-118547347D01*
X97752879Y-118591284D01*
X97922397Y-118704552D01*
X98110755Y-118782573D01*
X98310714Y-118822347D01*
X98514592Y-118822347D01*
X98714551Y-118782573D01*
X98902909Y-118704552D01*
X99072427Y-118591284D01*
X99216590Y-118447121D01*
X99329858Y-118277603D01*
X99407879Y-118089245D01*
X99447653Y-117889286D01*
X99447653Y-117685408D01*
X99407922Y-117485665D01*
X99850000Y-117488072D01*
X99974482Y-117475812D01*
X100094180Y-117439502D01*
X100204494Y-117380537D01*
X100301185Y-117301185D01*
X100380537Y-117204494D01*
X100439502Y-117094180D01*
X100475812Y-116974482D01*
X100488072Y-116850000D01*
X100485000Y-116285750D01*
X100326250Y-116127000D01*
X99127000Y-116127000D01*
X99127000Y-116147000D01*
X98873000Y-116147000D01*
X98873000Y-116127000D01*
X98853000Y-116127000D01*
X98853000Y-115873000D01*
X98873000Y-115873000D01*
X98873000Y-115853000D01*
X99127000Y-115853000D01*
X99127000Y-115873000D01*
X100326250Y-115873000D01*
X100485000Y-115714250D01*
X100488072Y-115150000D01*
X100475812Y-115025518D01*
X100439502Y-114905820D01*
X100380537Y-114795506D01*
X100301185Y-114698815D01*
X100204494Y-114619463D01*
X100094180Y-114560498D01*
X100021620Y-114538487D01*
X100153475Y-114406632D01*
X100315990Y-114163411D01*
X100427932Y-113893158D01*
X100485000Y-113606260D01*
X100485000Y-113313740D01*
X100427932Y-113026842D01*
X100315990Y-112756589D01*
X100153475Y-112513368D01*
X99946632Y-112306525D01*
X99772240Y-112190000D01*
X99946632Y-112073475D01*
X100153475Y-111866632D01*
X100278178Y-111680000D01*
X100342678Y-111680000D01*
X100380000Y-111683676D01*
X100417322Y-111680000D01*
X100417333Y-111680000D01*
X100528986Y-111669003D01*
X100672247Y-111625546D01*
X100804276Y-111554974D01*
X100920001Y-111460001D01*
X100943804Y-111430997D01*
X116511003Y-95863799D01*
X116540001Y-95840001D01*
X116634974Y-95724276D01*
X116705546Y-95592247D01*
X116749003Y-95448986D01*
X116760000Y-95337333D01*
X116760000Y-95337323D01*
X116763676Y-95300000D01*
X116760000Y-95262677D01*
X116760000Y-66226354D01*
X116807795Y-66341741D01*
X116921063Y-66511259D01*
X117065226Y-66655422D01*
X117193445Y-66741095D01*
X117165026Y-66775724D01*
X117105823Y-66886485D01*
X117094454Y-66907754D01*
X117050997Y-67051015D01*
X117040000Y-67162668D01*
X117040000Y-67162678D01*
X117036324Y-67200000D01*
X117040000Y-67237322D01*
X117040001Y-93096288D01*
X116996063Y-93140226D01*
X116882795Y-93309744D01*
X116804774Y-93498102D01*
X116765000Y-93698061D01*
X116765000Y-93901939D01*
X116804774Y-94101898D01*
X116882795Y-94290256D01*
X116996063Y-94459774D01*
X117140226Y-94603937D01*
X117309744Y-94717205D01*
X117498102Y-94795226D01*
X117698061Y-94835000D01*
X117901939Y-94835000D01*
X118101898Y-94795226D01*
X118290256Y-94717205D01*
X118459774Y-94603937D01*
X118603937Y-94459774D01*
X118717205Y-94290256D01*
X118795226Y-94101898D01*
X118835000Y-93901939D01*
X118835000Y-93698061D01*
X118795226Y-93498102D01*
X118717205Y-93309744D01*
X118603937Y-93140226D01*
X118560000Y-93096289D01*
X118560000Y-67514801D01*
X125281003Y-60793799D01*
X125310001Y-60770001D01*
X125404974Y-60654276D01*
X125475546Y-60522247D01*
X125519003Y-60378986D01*
X125530000Y-60267333D01*
X125533677Y-60230000D01*
X125530000Y-60192667D01*
X125530000Y-58990000D01*
X126831822Y-58990000D01*
X126956525Y-59176632D01*
X127163368Y-59383475D01*
X127337760Y-59500000D01*
X127163368Y-59616525D01*
X126956525Y-59823368D01*
X126794010Y-60066589D01*
X126682068Y-60336842D01*
X126625000Y-60623740D01*
X126625000Y-60916260D01*
X126682068Y-61203158D01*
X126794010Y-61473411D01*
X126956525Y-61716632D01*
X127163368Y-61923475D01*
X127337760Y-62040000D01*
X127163368Y-62156525D01*
X126956525Y-62363368D01*
X126794010Y-62606589D01*
X126682068Y-62876842D01*
X126625000Y-63163740D01*
X126625000Y-63456260D01*
X126682068Y-63743158D01*
X126794010Y-64013411D01*
X126956525Y-64256632D01*
X127088380Y-64388487D01*
X127015820Y-64410498D01*
X126905506Y-64469463D01*
X126808815Y-64548815D01*
X126729463Y-64645506D01*
X126670498Y-64755820D01*
X126634188Y-64875518D01*
X126621928Y-65000000D01*
X126621928Y-66700000D01*
X126634188Y-66824482D01*
X126670498Y-66944180D01*
X126729463Y-67054494D01*
X126808815Y-67151185D01*
X126905506Y-67230537D01*
X127015820Y-67289502D01*
X127088380Y-67311513D01*
X126956525Y-67443368D01*
X126794010Y-67686589D01*
X126682068Y-67956842D01*
X126625000Y-68243740D01*
X126625000Y-68536260D01*
X126682068Y-68823158D01*
X126794010Y-69093411D01*
X126956525Y-69336632D01*
X127163368Y-69543475D01*
X127337760Y-69660000D01*
X127163368Y-69776525D01*
X126956525Y-69983368D01*
X126794010Y-70226589D01*
X126682068Y-70496842D01*
X126625000Y-70783740D01*
X126625000Y-71076260D01*
X126682068Y-71363158D01*
X126794010Y-71633411D01*
X126956525Y-71876632D01*
X127163368Y-72083475D01*
X127337760Y-72200000D01*
X127163368Y-72316525D01*
X126956525Y-72523368D01*
X126794010Y-72766589D01*
X126682068Y-73036842D01*
X126625000Y-73323740D01*
X126625000Y-73616260D01*
X126682068Y-73903158D01*
X126794010Y-74173411D01*
X126956525Y-74416632D01*
X127163368Y-74623475D01*
X127337760Y-74740000D01*
X127163368Y-74856525D01*
X126956525Y-75063368D01*
X126794010Y-75306589D01*
X126682068Y-75576842D01*
X126625000Y-75863740D01*
X126625000Y-76156260D01*
X126682068Y-76443158D01*
X126794010Y-76713411D01*
X126956525Y-76956632D01*
X127088380Y-77088487D01*
X127015820Y-77110498D01*
X126905506Y-77169463D01*
X126808815Y-77248815D01*
X126729463Y-77345506D01*
X126670498Y-77455820D01*
X126634188Y-77575518D01*
X126621928Y-77700000D01*
X126625000Y-78264250D01*
X126783750Y-78423000D01*
X127983000Y-78423000D01*
X127983000Y-78403000D01*
X128237000Y-78403000D01*
X128237000Y-78423000D01*
X128257000Y-78423000D01*
X128257000Y-78677000D01*
X128237000Y-78677000D01*
X128237000Y-78697000D01*
X127983000Y-78697000D01*
X127983000Y-78677000D01*
X126783750Y-78677000D01*
X126625000Y-78835750D01*
X126621928Y-79400000D01*
X126634188Y-79524482D01*
X126670498Y-79644180D01*
X126729463Y-79754494D01*
X126808815Y-79851185D01*
X126905506Y-79930537D01*
X127015820Y-79989502D01*
X127088380Y-80011513D01*
X126956525Y-80143368D01*
X126794010Y-80386589D01*
X126682068Y-80656842D01*
X126625000Y-80943740D01*
X126625000Y-81236260D01*
X126682068Y-81523158D01*
X126794010Y-81793411D01*
X126956525Y-82036632D01*
X127163368Y-82243475D01*
X127337760Y-82360000D01*
X127163368Y-82476525D01*
X126956525Y-82683368D01*
X126794010Y-82926589D01*
X126682068Y-83196842D01*
X126625000Y-83483740D01*
X126625000Y-83776260D01*
X126682068Y-84063158D01*
X126794010Y-84333411D01*
X126956525Y-84576632D01*
X127163368Y-84783475D01*
X127406589Y-84945990D01*
X127676842Y-85057932D01*
X127963740Y-85115000D01*
X128256260Y-85115000D01*
X128543158Y-85057932D01*
X128813411Y-84945990D01*
X129056632Y-84783475D01*
X129263475Y-84576632D01*
X129425990Y-84333411D01*
X129537932Y-84063158D01*
X129595000Y-83776260D01*
X129595000Y-83483740D01*
X129537932Y-83196842D01*
X129425990Y-82926589D01*
X129263475Y-82683368D01*
X129056632Y-82476525D01*
X128882240Y-82360000D01*
X129056632Y-82243475D01*
X129263475Y-82036632D01*
X129425990Y-81793411D01*
X129537932Y-81523158D01*
X129595000Y-81236260D01*
X129595000Y-80943740D01*
X129537932Y-80656842D01*
X129425990Y-80386589D01*
X129263475Y-80143368D01*
X129131620Y-80011513D01*
X129204180Y-79989502D01*
X129314494Y-79930537D01*
X129411185Y-79851185D01*
X129490537Y-79754494D01*
X129549502Y-79644180D01*
X129585812Y-79524482D01*
X129598072Y-79400000D01*
X129595000Y-78835750D01*
X129436252Y-78677002D01*
X129595000Y-78677002D01*
X129595000Y-78569802D01*
X131940000Y-80914802D01*
X131940001Y-103342667D01*
X131936324Y-103380000D01*
X131950998Y-103528985D01*
X131994454Y-103672246D01*
X132065026Y-103804276D01*
X132136201Y-103891002D01*
X132160000Y-103920001D01*
X132188998Y-103943799D01*
X150995555Y-122750357D01*
X150979754Y-122788504D01*
X150915000Y-123114042D01*
X150915000Y-123445958D01*
X150979754Y-123771496D01*
X151106772Y-124078147D01*
X151291175Y-124354125D01*
X151487050Y-124550000D01*
X151291175Y-124745875D01*
X151222883Y-124848081D01*
X148604037Y-122229236D01*
X148613072Y-122137500D01*
X148613072Y-121637500D01*
X148596248Y-121466684D01*
X148546423Y-121302433D01*
X148465512Y-121151058D01*
X148356623Y-121018377D01*
X148223942Y-120909488D01*
X148072567Y-120828577D01*
X147908316Y-120778752D01*
X147737500Y-120761928D01*
X147262500Y-120761928D01*
X147091684Y-120778752D01*
X146927433Y-120828577D01*
X146776058Y-120909488D01*
X146643377Y-121018377D01*
X146534488Y-121151058D01*
X146453577Y-121302433D01*
X146403752Y-121466684D01*
X146386928Y-121637500D01*
X146386928Y-122137500D01*
X146403752Y-122308316D01*
X146453577Y-122472567D01*
X146534488Y-122623942D01*
X146643377Y-122756623D01*
X146696232Y-122800000D01*
X146643377Y-122843377D01*
X146553822Y-122952500D01*
X144624822Y-122952500D01*
X144587499Y-122948824D01*
X144550176Y-122952500D01*
X144550167Y-122952500D01*
X144438514Y-122963497D01*
X144421036Y-122968799D01*
X144401939Y-122965000D01*
X144198061Y-122965000D01*
X143998102Y-123004774D01*
X143809744Y-123082795D01*
X143640226Y-123196063D01*
X143496063Y-123340226D01*
X143382795Y-123509744D01*
X143304774Y-123698102D01*
X143265000Y-123898061D01*
X143265000Y-124101939D01*
X143304774Y-124301898D01*
X143382795Y-124490256D01*
X143496063Y-124659774D01*
X143640226Y-124803937D01*
X143809744Y-124917205D01*
X143998102Y-124995226D01*
X144198061Y-125035000D01*
X144401939Y-125035000D01*
X144601898Y-124995226D01*
X144790256Y-124917205D01*
X144959774Y-124803937D01*
X145103937Y-124659774D01*
X145217205Y-124490256D01*
X145224560Y-124472500D01*
X146553822Y-124472500D01*
X146643377Y-124581623D01*
X146776058Y-124690512D01*
X146927433Y-124771423D01*
X147091684Y-124821248D01*
X147262500Y-124838072D01*
X147737500Y-124838072D01*
X147908316Y-124821248D01*
X148072567Y-124771423D01*
X148223942Y-124690512D01*
X148356623Y-124581623D01*
X148465512Y-124448942D01*
X148538183Y-124312984D01*
X150140000Y-125914802D01*
X150140001Y-126622668D01*
X150136324Y-126660000D01*
X150150998Y-126808985D01*
X150194454Y-126952246D01*
X150265026Y-127084276D01*
X150290077Y-127114800D01*
X150360000Y-127200001D01*
X150388998Y-127223799D01*
X150995555Y-127830356D01*
X150979754Y-127868504D01*
X150915000Y-128194042D01*
X150915000Y-128525958D01*
X150979754Y-128851496D01*
X151106772Y-129158147D01*
X151291175Y-129434125D01*
X151487050Y-129630000D01*
X151291175Y-129825875D01*
X151106772Y-130101853D01*
X150979754Y-130408504D01*
X150915000Y-130734042D01*
X150915000Y-131065958D01*
X150979754Y-131391496D01*
X151106772Y-131698147D01*
X151291175Y-131974125D01*
X151487050Y-132170000D01*
X151291175Y-132365875D01*
X151106772Y-132641853D01*
X150979754Y-132948504D01*
X150915000Y-133274042D01*
X150915000Y-133605958D01*
X150979754Y-133931496D01*
X151106772Y-134238147D01*
X151291175Y-134514125D01*
X151525875Y-134748825D01*
X151801853Y-134933228D01*
X152108504Y-135060246D01*
X152434042Y-135125000D01*
X152765958Y-135125000D01*
X153091496Y-135060246D01*
X153398147Y-134933228D01*
X153674125Y-134748825D01*
X153908825Y-134514125D01*
X154093228Y-134238147D01*
X154220246Y-133931496D01*
X154285000Y-133605958D01*
X154285000Y-133274042D01*
X154220246Y-132948504D01*
X154204445Y-132910357D01*
X157711008Y-129403795D01*
X157740001Y-129380001D01*
X157763795Y-129351008D01*
X157763799Y-129351004D01*
X157798014Y-129309313D01*
X157768555Y-156048608D01*
X157676282Y-156848064D01*
X157454298Y-157593457D01*
X157106248Y-158288982D01*
X156642710Y-158913503D01*
X156077767Y-159448042D01*
X155428587Y-159876359D01*
X154714884Y-160185443D01*
X153956641Y-160366306D01*
X153171595Y-160416302D01*
X59851947Y-160468471D01*
X59053222Y-160376282D01*
X58307829Y-160154298D01*
X57612304Y-159806248D01*
X56987783Y-159342710D01*
X56453244Y-158777767D01*
X56024927Y-158128587D01*
X55715843Y-157414884D01*
X55534980Y-156656641D01*
X55485000Y-155871844D01*
X55485000Y-154064200D01*
X60817728Y-154064200D01*
X60817728Y-155714200D01*
X60829988Y-155838682D01*
X60866298Y-155958380D01*
X60925263Y-156068694D01*
X61004615Y-156165385D01*
X61101306Y-156244737D01*
X61211620Y-156303702D01*
X61331318Y-156340012D01*
X61455800Y-156352272D01*
X63105800Y-156352272D01*
X63230282Y-156340012D01*
X63349980Y-156303702D01*
X63460294Y-156244737D01*
X63556985Y-156165385D01*
X63636337Y-156068694D01*
X63695302Y-155958380D01*
X63731612Y-155838682D01*
X63743872Y-155714200D01*
X63743872Y-154064200D01*
X63731612Y-153939718D01*
X63695302Y-153820020D01*
X63636337Y-153709706D01*
X63556985Y-153613015D01*
X63460294Y-153533663D01*
X63349980Y-153474698D01*
X63230282Y-153438388D01*
X63105800Y-153426128D01*
X63040800Y-153426128D01*
X63040800Y-148034001D01*
X66623646Y-144451156D01*
X66611798Y-144490215D01*
X66597124Y-144639200D01*
X66600801Y-144676532D01*
X66600800Y-153641089D01*
X66430104Y-153755144D01*
X66226744Y-153958504D01*
X66066965Y-154197631D01*
X65956907Y-154463334D01*
X65900800Y-154745403D01*
X65900800Y-155032997D01*
X65956907Y-155315066D01*
X66066965Y-155580769D01*
X66226744Y-155819896D01*
X66430104Y-156023256D01*
X66669231Y-156183035D01*
X66934934Y-156293093D01*
X67217003Y-156349200D01*
X67504597Y-156349200D01*
X67786666Y-156293093D01*
X68052369Y-156183035D01*
X68291496Y-156023256D01*
X68494856Y-155819896D01*
X68654635Y-155580769D01*
X68764693Y-155315066D01*
X68820800Y-155032997D01*
X68820800Y-154745403D01*
X68764693Y-154463334D01*
X68654635Y-154197631D01*
X68494856Y-153958504D01*
X68291496Y-153755144D01*
X68193584Y-153689721D01*
X149065000Y-153689721D01*
X149065000Y-154110279D01*
X149147047Y-154522756D01*
X149307988Y-154911302D01*
X149541637Y-155260983D01*
X149839017Y-155558363D01*
X150188698Y-155792012D01*
X150577244Y-155952953D01*
X150989721Y-156035000D01*
X151410279Y-156035000D01*
X151822756Y-155952953D01*
X152211302Y-155792012D01*
X152560983Y-155558363D01*
X152858363Y-155260983D01*
X153092012Y-154911302D01*
X153252953Y-154522756D01*
X153335000Y-154110279D01*
X153335000Y-153689721D01*
X153252953Y-153277244D01*
X153092012Y-152888698D01*
X152858363Y-152539017D01*
X152560983Y-152241637D01*
X152211302Y-152007988D01*
X151822756Y-151847047D01*
X151410279Y-151765000D01*
X150989721Y-151765000D01*
X150577244Y-151847047D01*
X150188698Y-152007988D01*
X149839017Y-152241637D01*
X149541637Y-152539017D01*
X149307988Y-152888698D01*
X149147047Y-153277244D01*
X149065000Y-153689721D01*
X68193584Y-153689721D01*
X68120800Y-153641089D01*
X68120800Y-149394829D01*
X72894200Y-149394829D01*
X72894200Y-149842571D01*
X72981550Y-150281710D01*
X73152894Y-150695369D01*
X73401646Y-151067653D01*
X73718247Y-151384254D01*
X74090531Y-151633006D01*
X74504190Y-151804350D01*
X74943329Y-151891700D01*
X75391071Y-151891700D01*
X75830210Y-151804350D01*
X76243869Y-151633006D01*
X76616153Y-151384254D01*
X76932754Y-151067653D01*
X77181506Y-150695369D01*
X77352850Y-150281710D01*
X77440200Y-149842571D01*
X77440200Y-149394829D01*
X86034200Y-149394829D01*
X86034200Y-149842571D01*
X86121550Y-150281710D01*
X86292894Y-150695369D01*
X86541646Y-151067653D01*
X86858247Y-151384254D01*
X87230531Y-151633006D01*
X87644190Y-151804350D01*
X88083329Y-151891700D01*
X88531071Y-151891700D01*
X88970210Y-151804350D01*
X89383869Y-151633006D01*
X89756153Y-151384254D01*
X90072754Y-151067653D01*
X90321506Y-150695369D01*
X90492850Y-150281710D01*
X90580200Y-149842571D01*
X90580200Y-149394829D01*
X90492850Y-148955690D01*
X90321506Y-148542031D01*
X90072754Y-148169747D01*
X89756153Y-147853146D01*
X89383869Y-147604394D01*
X88970210Y-147433050D01*
X88531071Y-147345700D01*
X88083329Y-147345700D01*
X87644190Y-147433050D01*
X87230531Y-147604394D01*
X86858247Y-147853146D01*
X86541646Y-148169747D01*
X86292894Y-148542031D01*
X86121550Y-148955690D01*
X86034200Y-149394829D01*
X77440200Y-149394829D01*
X77352850Y-148955690D01*
X77181506Y-148542031D01*
X76932754Y-148169747D01*
X76616153Y-147853146D01*
X76243869Y-147604394D01*
X75830210Y-147433050D01*
X75391071Y-147345700D01*
X74943329Y-147345700D01*
X74504190Y-147433050D01*
X74090531Y-147604394D01*
X73718247Y-147853146D01*
X73401646Y-148169747D01*
X73152894Y-148542031D01*
X72981550Y-148955690D01*
X72894200Y-149394829D01*
X68120800Y-149394829D01*
X68120800Y-146194700D01*
X76885128Y-146194700D01*
X76885128Y-147622700D01*
X76897388Y-147747182D01*
X76933698Y-147866880D01*
X76992663Y-147977194D01*
X77072015Y-148073885D01*
X77168706Y-148153237D01*
X77279020Y-148212202D01*
X77398718Y-148248512D01*
X77523200Y-148260772D01*
X78951200Y-148260772D01*
X79075682Y-148248512D01*
X79195380Y-148212202D01*
X79305694Y-148153237D01*
X79402385Y-148073885D01*
X79481737Y-147977194D01*
X79540702Y-147866880D01*
X79577012Y-147747182D01*
X79589272Y-147622700D01*
X79589272Y-147618840D01*
X79689363Y-147768637D01*
X79877263Y-147956537D01*
X80098209Y-148104168D01*
X80343711Y-148205858D01*
X80604335Y-148257700D01*
X80870065Y-148257700D01*
X81130689Y-148205858D01*
X81376191Y-148104168D01*
X81597137Y-147956537D01*
X81737200Y-147816474D01*
X81877263Y-147956537D01*
X82098209Y-148104168D01*
X82343711Y-148205858D01*
X82604335Y-148257700D01*
X82870065Y-148257700D01*
X83130689Y-148205858D01*
X83376191Y-148104168D01*
X83597137Y-147956537D01*
X83713701Y-147839973D01*
X84485532Y-147839973D01*
X84546691Y-148075170D01*
X84787526Y-148187468D01*
X85045641Y-148250624D01*
X85311119Y-148262211D01*
X85573755Y-148221782D01*
X85823458Y-148130893D01*
X85927709Y-148075170D01*
X85988868Y-147839973D01*
X85237200Y-147088305D01*
X84485532Y-147839973D01*
X83713701Y-147839973D01*
X83785037Y-147768637D01*
X83932668Y-147547691D01*
X83986711Y-147417219D01*
X84015007Y-147494958D01*
X84070730Y-147599209D01*
X84305927Y-147660368D01*
X85057595Y-146908700D01*
X85416805Y-146908700D01*
X86168473Y-147660368D01*
X86403670Y-147599209D01*
X86515968Y-147358374D01*
X86579124Y-147100259D01*
X86590711Y-146834781D01*
X86562352Y-146650551D01*
X151269054Y-146650551D01*
X151343663Y-146897073D01*
X151603439Y-147020473D01*
X151882297Y-147090823D01*
X152169521Y-147105417D01*
X152454074Y-147063697D01*
X152725020Y-146967265D01*
X152856337Y-146897073D01*
X152930946Y-146650551D01*
X152100000Y-145819605D01*
X151269054Y-146650551D01*
X86562352Y-146650551D01*
X86550282Y-146572145D01*
X86459393Y-146322442D01*
X86403670Y-146218191D01*
X86168473Y-146157032D01*
X85416805Y-146908700D01*
X85057595Y-146908700D01*
X84305927Y-146157032D01*
X84070730Y-146218191D01*
X83986316Y-146399226D01*
X83932668Y-146269709D01*
X83785037Y-146048763D01*
X83713701Y-145977427D01*
X84485532Y-145977427D01*
X85237200Y-146729095D01*
X85988868Y-145977427D01*
X85927709Y-145742230D01*
X85857562Y-145709521D01*
X150634583Y-145709521D01*
X150676303Y-145994074D01*
X150772735Y-146265020D01*
X150842927Y-146396337D01*
X151089449Y-146470946D01*
X151920395Y-145640000D01*
X152279605Y-145640000D01*
X153110551Y-146470946D01*
X153357073Y-146396337D01*
X153480473Y-146136561D01*
X153550823Y-145857703D01*
X153565417Y-145570479D01*
X153523697Y-145285926D01*
X153427265Y-145014980D01*
X153357073Y-144883663D01*
X153110551Y-144809054D01*
X152279605Y-145640000D01*
X151920395Y-145640000D01*
X151089449Y-144809054D01*
X150842927Y-144883663D01*
X150719527Y-145143439D01*
X150649177Y-145422297D01*
X150634583Y-145709521D01*
X85857562Y-145709521D01*
X85686874Y-145629932D01*
X85428759Y-145566776D01*
X85163281Y-145555189D01*
X84900645Y-145595618D01*
X84650942Y-145686507D01*
X84546691Y-145742230D01*
X84485532Y-145977427D01*
X83713701Y-145977427D01*
X83597137Y-145860863D01*
X83376191Y-145713232D01*
X83130689Y-145611542D01*
X82870065Y-145559700D01*
X82604335Y-145559700D01*
X82343711Y-145611542D01*
X82098209Y-145713232D01*
X81877263Y-145860863D01*
X81737200Y-146000926D01*
X81597137Y-145860863D01*
X81376191Y-145713232D01*
X81130689Y-145611542D01*
X80870065Y-145559700D01*
X80604335Y-145559700D01*
X80343711Y-145611542D01*
X80098209Y-145713232D01*
X79877263Y-145860863D01*
X79689363Y-146048763D01*
X79589272Y-146198560D01*
X79589272Y-146194700D01*
X79577012Y-146070218D01*
X79540702Y-145950520D01*
X79481737Y-145840206D01*
X79402385Y-145743515D01*
X79305694Y-145664163D01*
X79195380Y-145605198D01*
X79075682Y-145568888D01*
X78951200Y-145556628D01*
X77523200Y-145556628D01*
X77398718Y-145568888D01*
X77279020Y-145605198D01*
X77168706Y-145664163D01*
X77072015Y-145743515D01*
X76992663Y-145840206D01*
X76933698Y-145950520D01*
X76897388Y-146070218D01*
X76885128Y-146194700D01*
X68120800Y-146194700D01*
X68120800Y-144954001D01*
X68445352Y-144629449D01*
X151269054Y-144629449D01*
X152100000Y-145460395D01*
X152930946Y-144629449D01*
X152856337Y-144382927D01*
X152596561Y-144259527D01*
X152317703Y-144189177D01*
X152030479Y-144174583D01*
X151745926Y-144216303D01*
X151474980Y-144312735D01*
X151343663Y-144382927D01*
X151269054Y-144629449D01*
X68445352Y-144629449D01*
X73511004Y-139563798D01*
X73540001Y-139540001D01*
X73580363Y-139490820D01*
X73634974Y-139424277D01*
X73705546Y-139292247D01*
X73729134Y-139214485D01*
X73749003Y-139148986D01*
X73760000Y-139037333D01*
X73760000Y-139037324D01*
X73763676Y-139000001D01*
X73760000Y-138962678D01*
X73760000Y-136741738D01*
X123589805Y-136741738D01*
X123628905Y-136981849D01*
X123708751Y-137195417D01*
X123697763Y-137208806D01*
X123638798Y-137319120D01*
X123602488Y-137438818D01*
X123590228Y-137563300D01*
X123590228Y-138763300D01*
X123602488Y-138887782D01*
X123638798Y-139007480D01*
X123697763Y-139117794D01*
X123777115Y-139214485D01*
X123873806Y-139293837D01*
X123984120Y-139352802D01*
X124103818Y-139389112D01*
X124228300Y-139401372D01*
X125428300Y-139401372D01*
X125552782Y-139389112D01*
X125672480Y-139352802D01*
X125782794Y-139293837D01*
X125879485Y-139214485D01*
X125958837Y-139117794D01*
X126017802Y-139007480D01*
X126054112Y-138887782D01*
X126066372Y-138763300D01*
X126066372Y-137563300D01*
X126054112Y-137438818D01*
X126017802Y-137319120D01*
X125958837Y-137208806D01*
X125944732Y-137191619D01*
X126002537Y-137064784D01*
X126058300Y-136827987D01*
X126066795Y-136584862D01*
X126027695Y-136344751D01*
X125942502Y-136116882D01*
X125901648Y-136040448D01*
X125678064Y-135993141D01*
X125007905Y-136663300D01*
X125022048Y-136677443D01*
X124842443Y-136857048D01*
X124828300Y-136842905D01*
X124814158Y-136857048D01*
X124634553Y-136677443D01*
X124648695Y-136663300D01*
X123978536Y-135993141D01*
X123754952Y-136040448D01*
X123654063Y-136261816D01*
X123598300Y-136498613D01*
X123589805Y-136741738D01*
X73760000Y-136741738D01*
X73760000Y-135813536D01*
X124158141Y-135813536D01*
X124828300Y-136483695D01*
X125498459Y-135813536D01*
X125451152Y-135589952D01*
X125229784Y-135489063D01*
X124992987Y-135433300D01*
X124749862Y-135424805D01*
X124509751Y-135463905D01*
X124281882Y-135549098D01*
X124205448Y-135589952D01*
X124158141Y-135813536D01*
X73760000Y-135813536D01*
X73760000Y-135251900D01*
X134283628Y-135251900D01*
X134283628Y-136451900D01*
X134295888Y-136576382D01*
X134332198Y-136696080D01*
X134391163Y-136806394D01*
X134470515Y-136903085D01*
X134567206Y-136982437D01*
X134677520Y-137041402D01*
X134797218Y-137077712D01*
X134921700Y-137089972D01*
X136121700Y-137089972D01*
X136246182Y-137077712D01*
X136365880Y-137041402D01*
X136476194Y-136982437D01*
X136493381Y-136968332D01*
X136620216Y-137026137D01*
X136857013Y-137081900D01*
X137100138Y-137090395D01*
X137340249Y-137051295D01*
X137568118Y-136966102D01*
X137644552Y-136925248D01*
X137691859Y-136701664D01*
X137021700Y-136031505D01*
X137007558Y-136045648D01*
X136827953Y-135866043D01*
X136842095Y-135851900D01*
X136827953Y-135837758D01*
X137007558Y-135658153D01*
X137021700Y-135672295D01*
X137035843Y-135658153D01*
X137215448Y-135837758D01*
X137201305Y-135851900D01*
X137871464Y-136522059D01*
X138095048Y-136474752D01*
X138195937Y-136253384D01*
X138251700Y-136016587D01*
X138260195Y-135773462D01*
X138221095Y-135533351D01*
X138135902Y-135305482D01*
X138095048Y-135229048D01*
X137871466Y-135181742D01*
X137988572Y-135064636D01*
X137983936Y-135060000D01*
X138685199Y-135060000D01*
X139063099Y-135437901D01*
X139086898Y-135466900D01*
X139115896Y-135490698D01*
X139202622Y-135561873D01*
X139255154Y-135589952D01*
X139334652Y-135632445D01*
X139367655Y-135642456D01*
X144796201Y-141071003D01*
X144819999Y-141100001D01*
X144935724Y-141194974D01*
X145067753Y-141265546D01*
X145211014Y-141309003D01*
X145322667Y-141320000D01*
X145322677Y-141320000D01*
X145360000Y-141323676D01*
X145397323Y-141320000D01*
X150636928Y-141320000D01*
X150636928Y-141385000D01*
X150649188Y-141509482D01*
X150685498Y-141629180D01*
X150744463Y-141739494D01*
X150823815Y-141836185D01*
X150920506Y-141915537D01*
X151030820Y-141974502D01*
X151150518Y-142010812D01*
X151275000Y-142023072D01*
X152925000Y-142023072D01*
X153049482Y-142010812D01*
X153169180Y-141974502D01*
X153279494Y-141915537D01*
X153376185Y-141836185D01*
X153455537Y-141739494D01*
X153514502Y-141629180D01*
X153550812Y-141509482D01*
X153563072Y-141385000D01*
X153563072Y-139735000D01*
X153550812Y-139610518D01*
X153514502Y-139490820D01*
X153455537Y-139380506D01*
X153376185Y-139283815D01*
X153279494Y-139204463D01*
X153169180Y-139145498D01*
X153049482Y-139109188D01*
X152925000Y-139096928D01*
X151275000Y-139096928D01*
X151150518Y-139109188D01*
X151030820Y-139145498D01*
X150920506Y-139204463D01*
X150823815Y-139283815D01*
X150744463Y-139380506D01*
X150685498Y-139490820D01*
X150649188Y-139610518D01*
X150636928Y-139735000D01*
X150636928Y-139800000D01*
X145674802Y-139800000D01*
X140290703Y-134415902D01*
X140266900Y-134386898D01*
X140151175Y-134291925D01*
X140019146Y-134221353D01*
X139986144Y-134211342D01*
X139563803Y-133789002D01*
X139540001Y-133759999D01*
X139424276Y-133665026D01*
X139292247Y-133594454D01*
X139148986Y-133550997D01*
X139037333Y-133540000D01*
X139037322Y-133540000D01*
X139000000Y-133536324D01*
X138962678Y-133540000D01*
X137110922Y-133540000D01*
X137073599Y-133536324D01*
X137036276Y-133540000D01*
X137036267Y-133540000D01*
X136924614Y-133550997D01*
X136799382Y-133588985D01*
X136781353Y-133594454D01*
X136649323Y-133665026D01*
X136567416Y-133732246D01*
X136533599Y-133759999D01*
X136509801Y-133788997D01*
X135684971Y-134613828D01*
X134921700Y-134613828D01*
X134797218Y-134626088D01*
X134677520Y-134662398D01*
X134567206Y-134721363D01*
X134470515Y-134800715D01*
X134391163Y-134897406D01*
X134332198Y-135007720D01*
X134295888Y-135127418D01*
X134283628Y-135251900D01*
X73760000Y-135251900D01*
X73760000Y-79340801D01*
X75122056Y-77978745D01*
X75077988Y-78044698D01*
X74917047Y-78433244D01*
X74835000Y-78845721D01*
X74835000Y-79266279D01*
X74917047Y-79678756D01*
X75077988Y-80067302D01*
X75311637Y-80416983D01*
X75609017Y-80714363D01*
X75958698Y-80948012D01*
X76347244Y-81108953D01*
X76759721Y-81191000D01*
X77180279Y-81191000D01*
X77592756Y-81108953D01*
X77981302Y-80948012D01*
X78330983Y-80714363D01*
X78628363Y-80416983D01*
X78862012Y-80067302D01*
X79022953Y-79678756D01*
X79105000Y-79266279D01*
X79105000Y-78845721D01*
X79022953Y-78433244D01*
X78862012Y-78044698D01*
X78628363Y-77695017D01*
X78330983Y-77397637D01*
X77981302Y-77163988D01*
X77592756Y-77003047D01*
X77180279Y-76921000D01*
X76759721Y-76921000D01*
X76347244Y-77003047D01*
X75958698Y-77163988D01*
X75892745Y-77208056D01*
X77408801Y-75692000D01*
X93986388Y-75692000D01*
X94008785Y-75919400D01*
X94072093Y-76128098D01*
X94037498Y-76192820D01*
X94001188Y-76312518D01*
X93988928Y-76437000D01*
X93988928Y-77487000D01*
X94001188Y-77611482D01*
X94037498Y-77731180D01*
X94096463Y-77841494D01*
X94175815Y-77938185D01*
X94272506Y-78017537D01*
X94382820Y-78076502D01*
X94502518Y-78112812D01*
X94627000Y-78125072D01*
X96127000Y-78125072D01*
X96251482Y-78112812D01*
X96371180Y-78076502D01*
X96481494Y-78017537D01*
X96578185Y-77938185D01*
X96657537Y-77841494D01*
X96716502Y-77731180D01*
X96752812Y-77611482D01*
X96765072Y-77487000D01*
X96765072Y-76437000D01*
X96752812Y-76312518D01*
X96716502Y-76192820D01*
X96681907Y-76128098D01*
X96745215Y-75919400D01*
X96767612Y-75692000D01*
X96745215Y-75464600D01*
X96678885Y-75245940D01*
X96578071Y-75057331D01*
X96619275Y-74998882D01*
X96712272Y-74789337D01*
X96720964Y-74727810D01*
X96595163Y-74549000D01*
X95830109Y-74549000D01*
X95829400Y-74548785D01*
X95658979Y-74532000D01*
X95095021Y-74532000D01*
X94924600Y-74548785D01*
X94923891Y-74549000D01*
X94158837Y-74549000D01*
X94033036Y-74727810D01*
X94041728Y-74789337D01*
X94134725Y-74998882D01*
X94175929Y-75057331D01*
X94075115Y-75245940D01*
X94008785Y-75464600D01*
X93986388Y-75692000D01*
X77408801Y-75692000D01*
X78095942Y-75004860D01*
X78347244Y-75108953D01*
X78759721Y-75191000D01*
X79180279Y-75191000D01*
X79592756Y-75108953D01*
X79981302Y-74948012D01*
X80330983Y-74714363D01*
X80628363Y-74416983D01*
X80829346Y-74116190D01*
X94033036Y-74116190D01*
X94158837Y-74295000D01*
X95250000Y-74295000D01*
X95250000Y-73415402D01*
X95504000Y-73415402D01*
X95504000Y-74295000D01*
X96595163Y-74295000D01*
X96720964Y-74116190D01*
X96712272Y-74054663D01*
X96619275Y-73845118D01*
X96487184Y-73657742D01*
X96321076Y-73499736D01*
X96127334Y-73377172D01*
X95913404Y-73294761D01*
X95687507Y-73255669D01*
X95504000Y-73415402D01*
X95250000Y-73415402D01*
X95066493Y-73255669D01*
X94840596Y-73294761D01*
X94626666Y-73377172D01*
X94432924Y-73499736D01*
X94266816Y-73657742D01*
X94134725Y-73845118D01*
X94041728Y-74054663D01*
X94033036Y-74116190D01*
X80829346Y-74116190D01*
X80862012Y-74067302D01*
X81022953Y-73678756D01*
X81105000Y-73266279D01*
X81105000Y-72845721D01*
X81022953Y-72433244D01*
X80862012Y-72044698D01*
X80628363Y-71695017D01*
X80330983Y-71397637D01*
X79981302Y-71163988D01*
X79592756Y-71003047D01*
X79180279Y-70921000D01*
X78759721Y-70921000D01*
X78347244Y-71003047D01*
X77958698Y-71163988D01*
X77609017Y-71397637D01*
X77311637Y-71695017D01*
X77077988Y-72044698D01*
X76917047Y-72433244D01*
X76835000Y-72845721D01*
X76835000Y-73266279D01*
X76917047Y-73678756D01*
X77021140Y-73930058D01*
X72760000Y-78191199D01*
X72760000Y-69471408D01*
X82682000Y-69471408D01*
X82682000Y-69720592D01*
X82730613Y-69964987D01*
X82825971Y-70195202D01*
X82964410Y-70402391D01*
X83140609Y-70578590D01*
X83347798Y-70717029D01*
X83578013Y-70812387D01*
X83822408Y-70861000D01*
X84071592Y-70861000D01*
X84315987Y-70812387D01*
X84546202Y-70717029D01*
X84753391Y-70578590D01*
X84929590Y-70402391D01*
X84960587Y-70356000D01*
X86866678Y-70356000D01*
X86904000Y-70359676D01*
X86941322Y-70356000D01*
X86941333Y-70356000D01*
X87052986Y-70345003D01*
X87196247Y-70301546D01*
X87328276Y-70230974D01*
X87444001Y-70136001D01*
X87467804Y-70106997D01*
X88608801Y-68966000D01*
X90298928Y-68966000D01*
X90298928Y-70226000D01*
X90311188Y-70350482D01*
X90347498Y-70470180D01*
X90406463Y-70580494D01*
X90485815Y-70677185D01*
X90582506Y-70756537D01*
X90692820Y-70815502D01*
X90812518Y-70851812D01*
X90937000Y-70864072D01*
X92197000Y-70864072D01*
X92321482Y-70851812D01*
X92441180Y-70815502D01*
X92551494Y-70756537D01*
X92648185Y-70677185D01*
X92727537Y-70580494D01*
X92786502Y-70470180D01*
X92822812Y-70350482D01*
X92835072Y-70226000D01*
X92835072Y-68966000D01*
X92822812Y-68841518D01*
X92786502Y-68721820D01*
X92727537Y-68611506D01*
X92648185Y-68514815D01*
X92551494Y-68435463D01*
X92441180Y-68376498D01*
X92321482Y-68340188D01*
X92197000Y-68327928D01*
X90937000Y-68327928D01*
X90812518Y-68340188D01*
X90692820Y-68376498D01*
X90582506Y-68435463D01*
X90485815Y-68514815D01*
X90406463Y-68611506D01*
X90347498Y-68721820D01*
X90311188Y-68841518D01*
X90298928Y-68966000D01*
X88608801Y-68966000D01*
X90317298Y-67257503D01*
X90350613Y-67424987D01*
X90445971Y-67655202D01*
X90584410Y-67862391D01*
X90760609Y-68038590D01*
X90967798Y-68177029D01*
X91198013Y-68272387D01*
X91442408Y-68321000D01*
X91691592Y-68321000D01*
X91935987Y-68272387D01*
X92166202Y-68177029D01*
X92373391Y-68038590D01*
X92549590Y-67862391D01*
X92688029Y-67655202D01*
X92783387Y-67424987D01*
X92832000Y-67180592D01*
X92832000Y-66931408D01*
X92783387Y-66687013D01*
X92688029Y-66456798D01*
X92549590Y-66249609D01*
X92373391Y-66073410D01*
X92166202Y-65934971D01*
X91935987Y-65839613D01*
X91768503Y-65806299D01*
X93733902Y-63840900D01*
X96657528Y-63840900D01*
X96657528Y-63930900D01*
X96669788Y-64055382D01*
X96706098Y-64175080D01*
X96765063Y-64285394D01*
X96844415Y-64382085D01*
X96941106Y-64461437D01*
X97051420Y-64520402D01*
X97171118Y-64556712D01*
X97295600Y-64568972D01*
X98995600Y-64568972D01*
X99120082Y-64556712D01*
X99239780Y-64520402D01*
X99350094Y-64461437D01*
X99446785Y-64382085D01*
X99526137Y-64285394D01*
X99585102Y-64175080D01*
X99607113Y-64102520D01*
X99738968Y-64234375D01*
X99982189Y-64396890D01*
X100252442Y-64508832D01*
X100539340Y-64565900D01*
X100831860Y-64565900D01*
X101118758Y-64508832D01*
X101389011Y-64396890D01*
X101632232Y-64234375D01*
X101839075Y-64027532D01*
X102001590Y-63784311D01*
X102113532Y-63514058D01*
X102170600Y-63227160D01*
X102170600Y-62934640D01*
X102113532Y-62647742D01*
X102001590Y-62377489D01*
X101839075Y-62134268D01*
X101632232Y-61927425D01*
X101389011Y-61764910D01*
X101118758Y-61652968D01*
X100831860Y-61595900D01*
X100539340Y-61595900D01*
X100252442Y-61652968D01*
X99982189Y-61764910D01*
X99738968Y-61927425D01*
X99607113Y-62059280D01*
X99585102Y-61986720D01*
X99526137Y-61876406D01*
X99446785Y-61779715D01*
X99350094Y-61700363D01*
X99239780Y-61641398D01*
X99120082Y-61605088D01*
X98995600Y-61592828D01*
X97295600Y-61592828D01*
X97171118Y-61605088D01*
X97051420Y-61641398D01*
X96941106Y-61700363D01*
X96844415Y-61779715D01*
X96765063Y-61876406D01*
X96706098Y-61986720D01*
X96669788Y-62106418D01*
X96657528Y-62230900D01*
X96657528Y-62320900D01*
X93456425Y-62320900D01*
X93419100Y-62317224D01*
X93381775Y-62320900D01*
X93381767Y-62320900D01*
X93270114Y-62331897D01*
X93126853Y-62375354D01*
X92994824Y-62445926D01*
X92879099Y-62540899D01*
X92855301Y-62569897D01*
X86589199Y-68836000D01*
X84960587Y-68836000D01*
X84929590Y-68789609D01*
X84753391Y-68613410D01*
X84546202Y-68474971D01*
X84315987Y-68379613D01*
X84071592Y-68331000D01*
X83822408Y-68331000D01*
X83578013Y-68379613D01*
X83347798Y-68474971D01*
X83140609Y-68613410D01*
X82964410Y-68789609D01*
X82825971Y-68996798D01*
X82730613Y-69227013D01*
X82682000Y-69471408D01*
X72760000Y-69471408D01*
X72760000Y-66845721D01*
X74835000Y-66845721D01*
X74835000Y-67266279D01*
X74917047Y-67678756D01*
X75077988Y-68067302D01*
X75311637Y-68416983D01*
X75609017Y-68714363D01*
X75958698Y-68948012D01*
X76347244Y-69108953D01*
X76759721Y-69191000D01*
X77180279Y-69191000D01*
X77592756Y-69108953D01*
X77981302Y-68948012D01*
X78330983Y-68714363D01*
X78628363Y-68416983D01*
X78862012Y-68067302D01*
X79022953Y-67678756D01*
X79105000Y-67266279D01*
X79105000Y-66931408D01*
X82682000Y-66931408D01*
X82682000Y-67180592D01*
X82730613Y-67424987D01*
X82825971Y-67655202D01*
X82964410Y-67862391D01*
X83140609Y-68038590D01*
X83347798Y-68177029D01*
X83578013Y-68272387D01*
X83822408Y-68321000D01*
X84071592Y-68321000D01*
X84315987Y-68272387D01*
X84546202Y-68177029D01*
X84753391Y-68038590D01*
X84929590Y-67862391D01*
X85068029Y-67655202D01*
X85163387Y-67424987D01*
X85212000Y-67180592D01*
X85212000Y-66931408D01*
X85163387Y-66687013D01*
X85068029Y-66456798D01*
X84929590Y-66249609D01*
X84753391Y-66073410D01*
X84546202Y-65934971D01*
X84315987Y-65839613D01*
X84071592Y-65791000D01*
X83822408Y-65791000D01*
X83578013Y-65839613D01*
X83347798Y-65934971D01*
X83140609Y-66073410D01*
X82964410Y-66249609D01*
X82825971Y-66456798D01*
X82730613Y-66687013D01*
X82682000Y-66931408D01*
X79105000Y-66931408D01*
X79105000Y-66845721D01*
X79022953Y-66433244D01*
X78862012Y-66044698D01*
X78628363Y-65695017D01*
X78330983Y-65397637D01*
X77981302Y-65163988D01*
X77592756Y-65003047D01*
X77180279Y-64921000D01*
X76759721Y-64921000D01*
X76347244Y-65003047D01*
X75958698Y-65163988D01*
X75609017Y-65397637D01*
X75311637Y-65695017D01*
X75077988Y-66044698D01*
X74917047Y-66433244D01*
X74835000Y-66845721D01*
X72760000Y-66845721D01*
X72760000Y-54850000D01*
X101511928Y-54850000D01*
X101524188Y-54974482D01*
X101560498Y-55094180D01*
X101619463Y-55204494D01*
X101698815Y-55301185D01*
X101795506Y-55380537D01*
X101905820Y-55439502D01*
X102025518Y-55475812D01*
X102150000Y-55488072D01*
X102714250Y-55485000D01*
X102873000Y-55326250D01*
X102873000Y-54127000D01*
X103127000Y-54127000D01*
X103127000Y-55326250D01*
X103285750Y-55485000D01*
X103850000Y-55488072D01*
X103974482Y-55475812D01*
X104094180Y-55439502D01*
X104204494Y-55380537D01*
X104301185Y-55301185D01*
X104380537Y-55204494D01*
X104439502Y-55094180D01*
X104475812Y-54974482D01*
X104488072Y-54850000D01*
X104485000Y-54285750D01*
X104326250Y-54127000D01*
X103127000Y-54127000D01*
X102873000Y-54127000D01*
X101673750Y-54127000D01*
X101515000Y-54285750D01*
X101511928Y-54850000D01*
X72760000Y-54850000D01*
X72760000Y-43891801D01*
X74868056Y-41783745D01*
X74823988Y-41849698D01*
X74663047Y-42238244D01*
X74581000Y-42650721D01*
X74581000Y-43071279D01*
X74663047Y-43483756D01*
X74823988Y-43872302D01*
X75057637Y-44221983D01*
X75355017Y-44519363D01*
X75704698Y-44753012D01*
X76093244Y-44913953D01*
X76505721Y-44996000D01*
X76926279Y-44996000D01*
X77338756Y-44913953D01*
X77727302Y-44753012D01*
X78076983Y-44519363D01*
X78374363Y-44221983D01*
X78608012Y-43872302D01*
X78768953Y-43483756D01*
X78851000Y-43071279D01*
X78851000Y-42650721D01*
X78768953Y-42238244D01*
X78608012Y-41849698D01*
X78374363Y-41500017D01*
X78076983Y-41202637D01*
X77727302Y-40968988D01*
X77338756Y-40808047D01*
X76926279Y-40726000D01*
X76505721Y-40726000D01*
X76093244Y-40808047D01*
X75704698Y-40968988D01*
X75638745Y-41013056D01*
X77841942Y-38809860D01*
X78093244Y-38913953D01*
X78505721Y-38996000D01*
X78926279Y-38996000D01*
X79338756Y-38913953D01*
X79727302Y-38753012D01*
X80076983Y-38519363D01*
X80374363Y-38221983D01*
X80608012Y-37872302D01*
X80768953Y-37483756D01*
X80851000Y-37071279D01*
X80851000Y-36650721D01*
X80768953Y-36238244D01*
X80608012Y-35849698D01*
X80374363Y-35500017D01*
X80076983Y-35202637D01*
X79727302Y-34968988D01*
X79338756Y-34808047D01*
X78926279Y-34726000D01*
X78505721Y-34726000D01*
X78093244Y-34808047D01*
X77704698Y-34968988D01*
X77355017Y-35202637D01*
X77057637Y-35500017D01*
X76823988Y-35849698D01*
X76663047Y-36238244D01*
X76581000Y-36650721D01*
X76581000Y-37071279D01*
X76663047Y-37483756D01*
X76767140Y-37735058D01*
X71488998Y-43013201D01*
X71460000Y-43036999D01*
X71436202Y-43065997D01*
X71436201Y-43065998D01*
X71365026Y-43152724D01*
X71294454Y-43284754D01*
X71267988Y-43372003D01*
X71257421Y-43406842D01*
X71250998Y-43428015D01*
X71236324Y-43577000D01*
X71240001Y-43614333D01*
X71240000Y-137685197D01*
X61769798Y-147155401D01*
X61740800Y-147179199D01*
X61717002Y-147208197D01*
X61717001Y-147208198D01*
X61645826Y-147294924D01*
X61575254Y-147426954D01*
X61554626Y-147494958D01*
X61531798Y-147570214D01*
X61520801Y-147681867D01*
X61517124Y-147719200D01*
X61520801Y-147756532D01*
X61520800Y-153426128D01*
X61455800Y-153426128D01*
X61331318Y-153438388D01*
X61211620Y-153474698D01*
X61101306Y-153533663D01*
X61004615Y-153613015D01*
X60925263Y-153709706D01*
X60866298Y-153820020D01*
X60829988Y-153939718D01*
X60817728Y-154064200D01*
X55485000Y-154064200D01*
X55485000Y-143789721D01*
X57865000Y-143789721D01*
X57865000Y-144210279D01*
X57947047Y-144622756D01*
X58107988Y-145011302D01*
X58341637Y-145360983D01*
X58639017Y-145658363D01*
X58988698Y-145892012D01*
X59377244Y-146052953D01*
X59789721Y-146135000D01*
X60210279Y-146135000D01*
X60622756Y-146052953D01*
X61011302Y-145892012D01*
X61360983Y-145658363D01*
X61658363Y-145360983D01*
X61892012Y-145011302D01*
X62052953Y-144622756D01*
X62135000Y-144210279D01*
X62135000Y-143789721D01*
X62052953Y-143377244D01*
X61892012Y-142988698D01*
X61658363Y-142639017D01*
X61360983Y-142341637D01*
X61011302Y-142107988D01*
X60622756Y-141947047D01*
X60210279Y-141865000D01*
X59789721Y-141865000D01*
X59377244Y-141947047D01*
X58988698Y-142107988D01*
X58639017Y-142341637D01*
X58341637Y-142639017D01*
X58107988Y-142988698D01*
X57947047Y-143377244D01*
X57865000Y-143789721D01*
X55485000Y-143789721D01*
X55485000Y-134030351D01*
X59265454Y-134030351D01*
X59340063Y-134276873D01*
X59599839Y-134400273D01*
X59878697Y-134470623D01*
X60165921Y-134485217D01*
X60450474Y-134443497D01*
X60721420Y-134347065D01*
X60852737Y-134276873D01*
X60927346Y-134030351D01*
X60096400Y-133199405D01*
X59265454Y-134030351D01*
X55485000Y-134030351D01*
X55485000Y-133089321D01*
X58630983Y-133089321D01*
X58672703Y-133373874D01*
X58769135Y-133644820D01*
X58839327Y-133776137D01*
X59085849Y-133850746D01*
X59916795Y-133019800D01*
X60276005Y-133019800D01*
X61106951Y-133850746D01*
X61353473Y-133776137D01*
X61476873Y-133516361D01*
X61547223Y-133237503D01*
X61561817Y-132950279D01*
X61520097Y-132665726D01*
X61423665Y-132394780D01*
X61353473Y-132263463D01*
X61106951Y-132188854D01*
X60276005Y-133019800D01*
X59916795Y-133019800D01*
X59085849Y-132188854D01*
X58839327Y-132263463D01*
X58715927Y-132523239D01*
X58645577Y-132802097D01*
X58630983Y-133089321D01*
X55485000Y-133089321D01*
X55485000Y-132009249D01*
X59265454Y-132009249D01*
X60096400Y-132840195D01*
X60927346Y-132009249D01*
X60852737Y-131762727D01*
X60592961Y-131639327D01*
X60314103Y-131568977D01*
X60026879Y-131554383D01*
X59742326Y-131596103D01*
X59471380Y-131692535D01*
X59340063Y-131762727D01*
X59265454Y-132009249D01*
X55485000Y-132009249D01*
X55485000Y-127114800D01*
X58633328Y-127114800D01*
X58633328Y-128764800D01*
X58645588Y-128889282D01*
X58681898Y-129008980D01*
X58740863Y-129119294D01*
X58820215Y-129215985D01*
X58916906Y-129295337D01*
X59027220Y-129354302D01*
X59146918Y-129390612D01*
X59271400Y-129402872D01*
X60921400Y-129402872D01*
X61045882Y-129390612D01*
X61165580Y-129354302D01*
X61275894Y-129295337D01*
X61372585Y-129215985D01*
X61451937Y-129119294D01*
X61510902Y-129008980D01*
X61547212Y-128889282D01*
X61559472Y-128764800D01*
X61559472Y-127114800D01*
X61547212Y-126990318D01*
X61510902Y-126870620D01*
X61451937Y-126760306D01*
X61372585Y-126663615D01*
X61275894Y-126584263D01*
X61165580Y-126525298D01*
X61045882Y-126488988D01*
X60921400Y-126476728D01*
X59271400Y-126476728D01*
X59146918Y-126488988D01*
X59027220Y-126525298D01*
X58916906Y-126584263D01*
X58820215Y-126663615D01*
X58740863Y-126760306D01*
X58681898Y-126870620D01*
X58645588Y-126990318D01*
X58633328Y-127114800D01*
X55485000Y-127114800D01*
X55485000Y-46277000D01*
X60336324Y-46277000D01*
X60340001Y-46314333D01*
X60340000Y-75348678D01*
X60336324Y-75386000D01*
X60340000Y-75423322D01*
X60340000Y-75423332D01*
X60350997Y-75534985D01*
X60394454Y-75678246D01*
X60465026Y-75810276D01*
X60495574Y-75847498D01*
X60559999Y-75926001D01*
X60589003Y-75949804D01*
X62821140Y-78181942D01*
X62717047Y-78433244D01*
X62635000Y-78845721D01*
X62635000Y-79266279D01*
X62717047Y-79678756D01*
X62877988Y-80067302D01*
X63111637Y-80416983D01*
X63409017Y-80714363D01*
X63758698Y-80948012D01*
X64147244Y-81108953D01*
X64559721Y-81191000D01*
X64980279Y-81191000D01*
X65392756Y-81108953D01*
X65781302Y-80948012D01*
X66130983Y-80714363D01*
X66428363Y-80416983D01*
X66662012Y-80067302D01*
X66822953Y-79678756D01*
X66905000Y-79266279D01*
X66905000Y-78845721D01*
X66822953Y-78433244D01*
X66662012Y-78044698D01*
X66428363Y-77695017D01*
X66130983Y-77397637D01*
X65781302Y-77163988D01*
X65392756Y-77003047D01*
X64980279Y-76921000D01*
X64559721Y-76921000D01*
X64147244Y-77003047D01*
X63895942Y-77107140D01*
X61860000Y-75071199D01*
X61860000Y-46591801D01*
X63641941Y-44809860D01*
X63893244Y-44913953D01*
X64305721Y-44996000D01*
X64629199Y-44996000D01*
X64258998Y-45366201D01*
X64230000Y-45389999D01*
X64206202Y-45418997D01*
X64206201Y-45418998D01*
X64135026Y-45505724D01*
X64064454Y-45637754D01*
X64020998Y-45781015D01*
X64006324Y-45930000D01*
X64010001Y-45967333D01*
X64010000Y-65059895D01*
X63758698Y-65163988D01*
X63409017Y-65397637D01*
X63111637Y-65695017D01*
X62877988Y-66044698D01*
X62717047Y-66433244D01*
X62635000Y-66845721D01*
X62635000Y-67266279D01*
X62717047Y-67678756D01*
X62877988Y-68067302D01*
X63111637Y-68416983D01*
X63409017Y-68714363D01*
X63758698Y-68948012D01*
X64147244Y-69108953D01*
X64559721Y-69191000D01*
X64980279Y-69191000D01*
X65392756Y-69108953D01*
X65781302Y-68948012D01*
X66130983Y-68714363D01*
X66428363Y-68416983D01*
X66662012Y-68067302D01*
X66822953Y-67678756D01*
X66905000Y-67266279D01*
X66905000Y-66845721D01*
X66822953Y-66433244D01*
X66662012Y-66044698D01*
X66428363Y-65695017D01*
X66130983Y-65397637D01*
X65781302Y-65163988D01*
X65530000Y-65059895D01*
X65530000Y-46244801D01*
X67211004Y-44563798D01*
X67240001Y-44540001D01*
X67334974Y-44424276D01*
X67405546Y-44292247D01*
X67449003Y-44148986D01*
X67460000Y-44037333D01*
X67460000Y-44037324D01*
X67463676Y-44000001D01*
X67460000Y-43962678D01*
X67460000Y-33657408D01*
X83063000Y-33657408D01*
X83063000Y-33906592D01*
X83111613Y-34150987D01*
X83206971Y-34381202D01*
X83345410Y-34588391D01*
X83521609Y-34764590D01*
X83728798Y-34903029D01*
X83959013Y-34998387D01*
X84203408Y-35047000D01*
X84452592Y-35047000D01*
X84696987Y-34998387D01*
X84927202Y-34903029D01*
X85134391Y-34764590D01*
X85310590Y-34588391D01*
X85449029Y-34381202D01*
X85544387Y-34150987D01*
X85593000Y-33906592D01*
X85593000Y-33657408D01*
X90683000Y-33657408D01*
X90683000Y-33906592D01*
X90731613Y-34150987D01*
X90826971Y-34381202D01*
X90965410Y-34588391D01*
X91141609Y-34764590D01*
X91348798Y-34903029D01*
X91579013Y-34998387D01*
X91823408Y-35047000D01*
X92072592Y-35047000D01*
X92316987Y-34998387D01*
X92547202Y-34903029D01*
X92754391Y-34764590D01*
X92930590Y-34588391D01*
X93069029Y-34381202D01*
X93164387Y-34150987D01*
X93213000Y-33906592D01*
X93213000Y-33657408D01*
X93164387Y-33413013D01*
X93069029Y-33182798D01*
X92930590Y-32975609D01*
X92754391Y-32799410D01*
X92547202Y-32660971D01*
X92316987Y-32565613D01*
X92072592Y-32517000D01*
X91823408Y-32517000D01*
X91579013Y-32565613D01*
X91348798Y-32660971D01*
X91141609Y-32799410D01*
X90965410Y-32975609D01*
X90826971Y-33182798D01*
X90731613Y-33413013D01*
X90683000Y-33657408D01*
X85593000Y-33657408D01*
X85544387Y-33413013D01*
X85449029Y-33182798D01*
X85310590Y-32975609D01*
X85134391Y-32799410D01*
X84927202Y-32660971D01*
X84696987Y-32565613D01*
X84452592Y-32517000D01*
X84203408Y-32517000D01*
X83959013Y-32565613D01*
X83728798Y-32660971D01*
X83521609Y-32799410D01*
X83345410Y-32975609D01*
X83206971Y-33182798D01*
X83111613Y-33413013D01*
X83063000Y-33657408D01*
X67460000Y-33657408D01*
X67460000Y-33359801D01*
X70169080Y-30650721D01*
X74581000Y-30650721D01*
X74581000Y-31071279D01*
X74663047Y-31483756D01*
X74823988Y-31872302D01*
X75057637Y-32221983D01*
X75355017Y-32519363D01*
X75704698Y-32753012D01*
X76093244Y-32913953D01*
X76505721Y-32996000D01*
X76926279Y-32996000D01*
X77338756Y-32913953D01*
X77727302Y-32753012D01*
X78076983Y-32519363D01*
X78374363Y-32221983D01*
X78608012Y-31872302D01*
X78768953Y-31483756D01*
X78851000Y-31071279D01*
X78851000Y-30650721D01*
X78843298Y-30612000D01*
X83059928Y-30612000D01*
X83059928Y-31872000D01*
X83072188Y-31996482D01*
X83108498Y-32116180D01*
X83167463Y-32226494D01*
X83246815Y-32323185D01*
X83343506Y-32402537D01*
X83453820Y-32461502D01*
X83573518Y-32497812D01*
X83698000Y-32510072D01*
X84958000Y-32510072D01*
X85082482Y-32497812D01*
X85202180Y-32461502D01*
X85312494Y-32402537D01*
X85409185Y-32323185D01*
X85488537Y-32226494D01*
X85547502Y-32116180D01*
X85583812Y-31996482D01*
X85596072Y-31872000D01*
X85596072Y-31117408D01*
X90683000Y-31117408D01*
X90683000Y-31366592D01*
X90731613Y-31610987D01*
X90826971Y-31841202D01*
X90965410Y-32048391D01*
X91141609Y-32224590D01*
X91348798Y-32363029D01*
X91579013Y-32458387D01*
X91823408Y-32507000D01*
X92072592Y-32507000D01*
X92316987Y-32458387D01*
X92547202Y-32363029D01*
X92754391Y-32224590D01*
X92930590Y-32048391D01*
X93069029Y-31841202D01*
X93164387Y-31610987D01*
X93213000Y-31366592D01*
X93213000Y-31117408D01*
X93164387Y-30873013D01*
X93069029Y-30642798D01*
X92930590Y-30435609D01*
X92754391Y-30259410D01*
X92547202Y-30120971D01*
X92316987Y-30025613D01*
X92072592Y-29977000D01*
X91823408Y-29977000D01*
X91579013Y-30025613D01*
X91348798Y-30120971D01*
X91141609Y-30259410D01*
X90965410Y-30435609D01*
X90826971Y-30642798D01*
X90731613Y-30873013D01*
X90683000Y-31117408D01*
X85596072Y-31117408D01*
X85596072Y-30612000D01*
X85583812Y-30487518D01*
X85547502Y-30367820D01*
X85488537Y-30257506D01*
X85409185Y-30160815D01*
X85312494Y-30081463D01*
X85202180Y-30022498D01*
X85082482Y-29986188D01*
X84958000Y-29973928D01*
X83698000Y-29973928D01*
X83573518Y-29986188D01*
X83453820Y-30022498D01*
X83343506Y-30081463D01*
X83246815Y-30160815D01*
X83167463Y-30257506D01*
X83108498Y-30367820D01*
X83072188Y-30487518D01*
X83059928Y-30612000D01*
X78843298Y-30612000D01*
X78768953Y-30238244D01*
X78608012Y-29849698D01*
X78374363Y-29500017D01*
X78076983Y-29202637D01*
X77727302Y-28968988D01*
X77338756Y-28808047D01*
X76926279Y-28726000D01*
X76505721Y-28726000D01*
X76093244Y-28808047D01*
X75704698Y-28968988D01*
X75355017Y-29202637D01*
X75057637Y-29500017D01*
X74823988Y-29849698D01*
X74663047Y-30238244D01*
X74581000Y-30650721D01*
X70169080Y-30650721D01*
X76687202Y-24132600D01*
X115011700Y-24132600D01*
X115011700Y-24388097D01*
X115067807Y-24670166D01*
X115177865Y-24935869D01*
X115337644Y-25174996D01*
X115541004Y-25378356D01*
X115780131Y-25538135D01*
X116045834Y-25648193D01*
X116327903Y-25704300D01*
X116615497Y-25704300D01*
X116897566Y-25648193D01*
X117163269Y-25538135D01*
X117402396Y-25378356D01*
X117605756Y-25174996D01*
X117765535Y-24935869D01*
X117875593Y-24670166D01*
X117931700Y-24388097D01*
X117931700Y-24100503D01*
X117875593Y-23818434D01*
X117765535Y-23552731D01*
X117676380Y-23419300D01*
X120088628Y-23419300D01*
X120088628Y-25069300D01*
X120100888Y-25193782D01*
X120137198Y-25313480D01*
X120196163Y-25423794D01*
X120275515Y-25520485D01*
X120372206Y-25599837D01*
X120482520Y-25658802D01*
X120602218Y-25695112D01*
X120726700Y-25707372D01*
X122376700Y-25707372D01*
X122501182Y-25695112D01*
X122620880Y-25658802D01*
X122731194Y-25599837D01*
X122827885Y-25520485D01*
X122907237Y-25423794D01*
X122966202Y-25313480D01*
X123002512Y-25193782D01*
X123014772Y-25069300D01*
X123014772Y-23419300D01*
X123002512Y-23294818D01*
X122966202Y-23175120D01*
X122907237Y-23064806D01*
X122827885Y-22968115D01*
X122731194Y-22888763D01*
X122620880Y-22829798D01*
X122501182Y-22793488D01*
X122376700Y-22781228D01*
X120726700Y-22781228D01*
X120602218Y-22793488D01*
X120482520Y-22829798D01*
X120372206Y-22888763D01*
X120275515Y-22968115D01*
X120196163Y-23064806D01*
X120137198Y-23175120D01*
X120100888Y-23294818D01*
X120088628Y-23419300D01*
X117676380Y-23419300D01*
X117605756Y-23313604D01*
X117402396Y-23110244D01*
X117163269Y-22950465D01*
X116897566Y-22840407D01*
X116615497Y-22784300D01*
X116327903Y-22784300D01*
X116129288Y-22823807D01*
X116024276Y-22737626D01*
X115892247Y-22667054D01*
X115748986Y-22623597D01*
X115637333Y-22612600D01*
X115637322Y-22612600D01*
X115600000Y-22608924D01*
X115562678Y-22612600D01*
X76409722Y-22612600D01*
X76372399Y-22608924D01*
X76335076Y-22612600D01*
X76335067Y-22612600D01*
X76223414Y-22623597D01*
X76080153Y-22667054D01*
X75948124Y-22737626D01*
X75832399Y-22832599D01*
X75808601Y-22861597D01*
X66700001Y-31970198D01*
X66464860Y-31735058D01*
X66568953Y-31483756D01*
X66651000Y-31071279D01*
X66651000Y-30650721D01*
X66568953Y-30238244D01*
X66408012Y-29849698D01*
X66174363Y-29500017D01*
X65876983Y-29202637D01*
X65527302Y-28968988D01*
X65138756Y-28808047D01*
X64726279Y-28726000D01*
X64305721Y-28726000D01*
X63893244Y-28808047D01*
X63504698Y-28968988D01*
X63155017Y-29202637D01*
X62857637Y-29500017D01*
X62623988Y-29849698D01*
X62463047Y-30238244D01*
X62381000Y-30650721D01*
X62381000Y-31071279D01*
X62463047Y-31483756D01*
X62623988Y-31872302D01*
X62857637Y-32221983D01*
X63155017Y-32519363D01*
X63504698Y-32753012D01*
X63893244Y-32913953D01*
X64305721Y-32996000D01*
X64726279Y-32996000D01*
X65138756Y-32913953D01*
X65390058Y-32809860D01*
X65940001Y-33359804D01*
X65940000Y-41265654D01*
X65876983Y-41202637D01*
X65527302Y-40968988D01*
X65138756Y-40808047D01*
X64726279Y-40726000D01*
X64305721Y-40726000D01*
X63893244Y-40808047D01*
X63504698Y-40968988D01*
X63155017Y-41202637D01*
X62857637Y-41500017D01*
X62623988Y-41849698D01*
X62463047Y-42238244D01*
X62381000Y-42650721D01*
X62381000Y-43071279D01*
X62463047Y-43483756D01*
X62567140Y-43735059D01*
X60588998Y-45713201D01*
X60560000Y-45736999D01*
X60536202Y-45765997D01*
X60536201Y-45765998D01*
X60465026Y-45852724D01*
X60394454Y-45984754D01*
X60350998Y-46128015D01*
X60336324Y-46277000D01*
X55485000Y-46277000D01*
X55485000Y-21789721D01*
X57865000Y-21789721D01*
X57865000Y-22210279D01*
X57947047Y-22622756D01*
X58107988Y-23011302D01*
X58341637Y-23360983D01*
X58639017Y-23658363D01*
X58988698Y-23892012D01*
X59377244Y-24052953D01*
X59789721Y-24135000D01*
X60210279Y-24135000D01*
X60622756Y-24052953D01*
X61011302Y-23892012D01*
X61360983Y-23658363D01*
X61658363Y-23360983D01*
X61892012Y-23011302D01*
X62052953Y-22622756D01*
X62135000Y-22210279D01*
X62135000Y-21789721D01*
X151865000Y-21789721D01*
X151865000Y-22210279D01*
X151947047Y-22622756D01*
X152107988Y-23011302D01*
X152341637Y-23360983D01*
X152639017Y-23658363D01*
X152988698Y-23892012D01*
X153377244Y-24052953D01*
X153789721Y-24135000D01*
X154210279Y-24135000D01*
X154622756Y-24052953D01*
X155011302Y-23892012D01*
X155360983Y-23658363D01*
X155658363Y-23360983D01*
X155892012Y-23011302D01*
X156052953Y-22622756D01*
X156135000Y-22210279D01*
X156135000Y-21789721D01*
X156052953Y-21377244D01*
X155892012Y-20988698D01*
X155658363Y-20639017D01*
X155360983Y-20341637D01*
X155011302Y-20107988D01*
X154622756Y-19947047D01*
X154210279Y-19865000D01*
X153789721Y-19865000D01*
X153377244Y-19947047D01*
X152988698Y-20107988D01*
X152639017Y-20341637D01*
X152341637Y-20639017D01*
X152107988Y-20988698D01*
X151947047Y-21377244D01*
X151865000Y-21789721D01*
X62135000Y-21789721D01*
X62052953Y-21377244D01*
X61892012Y-20988698D01*
X61658363Y-20639017D01*
X61360983Y-20341637D01*
X61011302Y-20107988D01*
X60622756Y-19947047D01*
X60210279Y-19865000D01*
X59789721Y-19865000D01*
X59377244Y-19947047D01*
X58988698Y-20107988D01*
X58639017Y-20341637D01*
X58341637Y-20639017D01*
X58107988Y-20988698D01*
X57947047Y-21377244D01*
X57865000Y-21789721D01*
X55485000Y-21789721D01*
X55485000Y-21750902D01*
X55577217Y-20951937D01*
X55799203Y-20206538D01*
X56147252Y-19511016D01*
X56610791Y-18886494D01*
X57175731Y-18351958D01*
X57824912Y-17923641D01*
X58538615Y-17614557D01*
X59296858Y-17433694D01*
X60081656Y-17383714D01*
X153549086Y-17384999D01*
G04 #@! TA.AperFunction,Conductor*
D29*
G36*
X153549086Y-17384999D02*
G01*
X154348063Y-17477217D01*
X155093462Y-17699203D01*
X155788984Y-18047252D01*
X156413506Y-18510791D01*
X156948042Y-19075731D01*
X157376359Y-19724912D01*
X157511928Y-20037952D01*
X157876716Y-57871701D01*
X157811413Y-117147015D01*
X157740001Y-117059999D01*
X157711004Y-117036202D01*
X153560000Y-112885199D01*
X153560000Y-59837325D01*
X153563676Y-59800000D01*
X153560000Y-59762675D01*
X153560000Y-59762667D01*
X153549003Y-59651014D01*
X153505546Y-59507753D01*
X153434974Y-59375724D01*
X153340001Y-59259999D01*
X153311004Y-59236202D01*
X149253804Y-55179003D01*
X149230001Y-55149999D01*
X149114276Y-55055026D01*
X148982247Y-54984454D01*
X148838986Y-54940997D01*
X148727333Y-54930000D01*
X148727322Y-54930000D01*
X148690000Y-54926324D01*
X148652678Y-54930000D01*
X147168178Y-54930000D01*
X147043475Y-54743368D01*
X146911620Y-54611513D01*
X146984180Y-54589502D01*
X147094494Y-54530537D01*
X147191185Y-54451185D01*
X147270537Y-54354494D01*
X147329502Y-54244180D01*
X147365812Y-54124482D01*
X147378072Y-54000000D01*
X147378072Y-52300000D01*
X147365812Y-52175518D01*
X147329502Y-52055820D01*
X147270537Y-51945506D01*
X147191185Y-51848815D01*
X147094494Y-51769463D01*
X146984180Y-51710498D01*
X146911620Y-51688487D01*
X147043475Y-51556632D01*
X147205990Y-51313411D01*
X147317932Y-51043158D01*
X147375000Y-50756260D01*
X147375000Y-50463740D01*
X147317932Y-50176842D01*
X147205990Y-49906589D01*
X147043475Y-49663368D01*
X146836632Y-49456525D01*
X146662240Y-49340000D01*
X146836632Y-49223475D01*
X147043475Y-49016632D01*
X147205990Y-48773411D01*
X147317932Y-48503158D01*
X147375000Y-48216260D01*
X147375000Y-47923740D01*
X147317932Y-47636842D01*
X147205990Y-47366589D01*
X147043475Y-47123368D01*
X146836632Y-46916525D01*
X146662240Y-46800000D01*
X146836632Y-46683475D01*
X147043475Y-46476632D01*
X147205990Y-46233411D01*
X147317932Y-45963158D01*
X147375000Y-45676260D01*
X147375000Y-45383740D01*
X147317932Y-45096842D01*
X147205990Y-44826589D01*
X147043475Y-44583368D01*
X146836632Y-44376525D01*
X146662240Y-44260000D01*
X146836632Y-44143475D01*
X147043475Y-43936632D01*
X147205990Y-43693411D01*
X147317932Y-43423158D01*
X147375000Y-43136260D01*
X147375000Y-42843740D01*
X147317932Y-42556842D01*
X147205990Y-42286589D01*
X147043475Y-42043368D01*
X146911620Y-41911513D01*
X146984180Y-41889502D01*
X147094494Y-41830537D01*
X147191185Y-41751185D01*
X147270537Y-41654494D01*
X147329502Y-41544180D01*
X147365812Y-41424482D01*
X147378072Y-41300000D01*
X147378072Y-39600000D01*
X147365812Y-39475518D01*
X147329502Y-39355820D01*
X147270537Y-39245506D01*
X147191185Y-39148815D01*
X147094494Y-39069463D01*
X146984180Y-39010498D01*
X146911620Y-38988487D01*
X147043475Y-38856632D01*
X147205990Y-38613411D01*
X147317932Y-38343158D01*
X147375000Y-38056260D01*
X147375000Y-37763740D01*
X147317932Y-37476842D01*
X147205990Y-37206589D01*
X147043475Y-36963368D01*
X146836632Y-36756525D01*
X146662240Y-36640000D01*
X146836632Y-36523475D01*
X147043475Y-36316632D01*
X147205990Y-36073411D01*
X147317932Y-35803158D01*
X147375000Y-35516260D01*
X147375000Y-35223740D01*
X147317932Y-34936842D01*
X147205990Y-34666589D01*
X147043475Y-34423368D01*
X146836632Y-34216525D01*
X146593411Y-34054010D01*
X146323158Y-33942068D01*
X146036260Y-33885000D01*
X145743740Y-33885000D01*
X145456842Y-33942068D01*
X145186589Y-34054010D01*
X144943368Y-34216525D01*
X144736525Y-34423368D01*
X144574010Y-34666589D01*
X144462068Y-34936842D01*
X144405000Y-35223740D01*
X144405000Y-35516260D01*
X144462068Y-35803158D01*
X144574010Y-36073411D01*
X144736525Y-36316632D01*
X144943368Y-36523475D01*
X145117760Y-36640000D01*
X144943368Y-36756525D01*
X144736525Y-36963368D01*
X144574010Y-37206589D01*
X144462068Y-37476842D01*
X144405000Y-37763740D01*
X144405000Y-38056260D01*
X144462068Y-38343158D01*
X144574010Y-38613411D01*
X144736525Y-38856632D01*
X144868380Y-38988487D01*
X144795820Y-39010498D01*
X144685506Y-39069463D01*
X144588815Y-39148815D01*
X144509463Y-39245506D01*
X144450498Y-39355820D01*
X144414188Y-39475518D01*
X144401928Y-39600000D01*
X144401928Y-41300000D01*
X144414188Y-41424482D01*
X144450498Y-41544180D01*
X144509463Y-41654494D01*
X144588815Y-41751185D01*
X144685506Y-41830537D01*
X144795820Y-41889502D01*
X144868380Y-41911513D01*
X144736525Y-42043368D01*
X144574010Y-42286589D01*
X144462068Y-42556842D01*
X144405000Y-42843740D01*
X144405000Y-43136260D01*
X144462068Y-43423158D01*
X144574010Y-43693411D01*
X144736525Y-43936632D01*
X144943368Y-44143475D01*
X145117760Y-44260000D01*
X144943368Y-44376525D01*
X144736525Y-44583368D01*
X144574010Y-44826589D01*
X144462068Y-45096842D01*
X144405000Y-45383740D01*
X144405000Y-45676260D01*
X144462068Y-45963158D01*
X144574010Y-46233411D01*
X144736525Y-46476632D01*
X144943368Y-46683475D01*
X145117760Y-46800000D01*
X144943368Y-46916525D01*
X144736525Y-47123368D01*
X144574010Y-47366589D01*
X144462068Y-47636842D01*
X144405000Y-47923740D01*
X144405000Y-48216260D01*
X144462068Y-48503158D01*
X144574010Y-48773411D01*
X144736525Y-49016632D01*
X144943368Y-49223475D01*
X145117760Y-49340000D01*
X144943368Y-49456525D01*
X144736525Y-49663368D01*
X144574010Y-49906589D01*
X144462068Y-50176842D01*
X144405000Y-50463740D01*
X144405000Y-50756260D01*
X144462068Y-51043158D01*
X144574010Y-51313411D01*
X144736525Y-51556632D01*
X144868380Y-51688487D01*
X144795820Y-51710498D01*
X144685506Y-51769463D01*
X144588815Y-51848815D01*
X144509463Y-51945506D01*
X144450498Y-52055820D01*
X144414188Y-52175518D01*
X144401928Y-52300000D01*
X144401928Y-54000000D01*
X144414188Y-54124482D01*
X144450498Y-54244180D01*
X144509463Y-54354494D01*
X144588815Y-54451185D01*
X144685506Y-54530537D01*
X144795820Y-54589502D01*
X144868380Y-54611513D01*
X144736525Y-54743368D01*
X144574010Y-54986589D01*
X144462068Y-55256842D01*
X144405000Y-55543740D01*
X144405000Y-55836260D01*
X144462068Y-56123158D01*
X144574010Y-56393411D01*
X144736525Y-56636632D01*
X144943368Y-56843475D01*
X145117760Y-56960000D01*
X144943368Y-57076525D01*
X144736525Y-57283368D01*
X144574010Y-57526589D01*
X144462068Y-57796842D01*
X144405000Y-58083740D01*
X144405000Y-58376260D01*
X144462068Y-58663158D01*
X144574010Y-58933411D01*
X144736525Y-59176632D01*
X144943368Y-59383475D01*
X145117760Y-59500000D01*
X144943368Y-59616525D01*
X144736525Y-59823368D01*
X144574010Y-60066589D01*
X144462068Y-60336842D01*
X144405000Y-60623740D01*
X144405000Y-60916260D01*
X144462068Y-61203158D01*
X144574010Y-61473411D01*
X144736525Y-61716632D01*
X144943368Y-61923475D01*
X145117760Y-62040000D01*
X144943368Y-62156525D01*
X144736525Y-62363368D01*
X144574010Y-62606589D01*
X144462068Y-62876842D01*
X144405000Y-63163740D01*
X144405000Y-63456260D01*
X144462068Y-63743158D01*
X144574010Y-64013411D01*
X144736525Y-64256632D01*
X144868380Y-64388487D01*
X144795820Y-64410498D01*
X144685506Y-64469463D01*
X144588815Y-64548815D01*
X144509463Y-64645506D01*
X144450498Y-64755820D01*
X144414188Y-64875518D01*
X144401928Y-65000000D01*
X144401928Y-66700000D01*
X144414188Y-66824482D01*
X144450498Y-66944180D01*
X144509463Y-67054494D01*
X144588815Y-67151185D01*
X144685506Y-67230537D01*
X144795820Y-67289502D01*
X144868380Y-67311513D01*
X144736525Y-67443368D01*
X144574010Y-67686589D01*
X144462068Y-67956842D01*
X144405000Y-68243740D01*
X144405000Y-68536260D01*
X144462068Y-68823158D01*
X144574010Y-69093411D01*
X144736525Y-69336632D01*
X144943368Y-69543475D01*
X145117760Y-69660000D01*
X144943368Y-69776525D01*
X144736525Y-69983368D01*
X144574010Y-70226589D01*
X144462068Y-70496842D01*
X144405000Y-70783740D01*
X144405000Y-71076260D01*
X144462068Y-71363158D01*
X144574010Y-71633411D01*
X144736525Y-71876632D01*
X144943368Y-72083475D01*
X145117760Y-72200000D01*
X144943368Y-72316525D01*
X144736525Y-72523368D01*
X144574010Y-72766589D01*
X144462068Y-73036842D01*
X144405000Y-73323740D01*
X144405000Y-73616260D01*
X144462068Y-73903158D01*
X144574010Y-74173411D01*
X144736525Y-74416632D01*
X144943368Y-74623475D01*
X145117760Y-74740000D01*
X144943368Y-74856525D01*
X144736525Y-75063368D01*
X144574010Y-75306589D01*
X144462068Y-75576842D01*
X144405000Y-75863740D01*
X144405000Y-76156260D01*
X144462068Y-76443158D01*
X144574010Y-76713411D01*
X144736525Y-76956632D01*
X144868380Y-77088487D01*
X144795820Y-77110498D01*
X144685506Y-77169463D01*
X144588815Y-77248815D01*
X144509463Y-77345506D01*
X144450498Y-77455820D01*
X144414188Y-77575518D01*
X144401928Y-77700000D01*
X144401928Y-79400000D01*
X144414188Y-79524482D01*
X144450498Y-79644180D01*
X144509463Y-79754494D01*
X144588815Y-79851185D01*
X144685506Y-79930537D01*
X144795820Y-79989502D01*
X144868380Y-80011513D01*
X144736525Y-80143368D01*
X144671958Y-80240000D01*
X143503711Y-80240000D01*
X143459774Y-80196063D01*
X143290256Y-80082795D01*
X143101898Y-80004774D01*
X142901939Y-79965000D01*
X142698061Y-79965000D01*
X142498102Y-80004774D01*
X142309744Y-80082795D01*
X142140226Y-80196063D01*
X141996063Y-80340226D01*
X141882795Y-80509744D01*
X141804774Y-80698102D01*
X141765000Y-80898061D01*
X141765000Y-81101939D01*
X141786915Y-81212113D01*
X133533804Y-72959003D01*
X133510001Y-72929999D01*
X133394276Y-72835026D01*
X133262247Y-72764454D01*
X133118986Y-72720997D01*
X133007333Y-72710000D01*
X133007322Y-72710000D01*
X132970000Y-72706324D01*
X132932678Y-72710000D01*
X129388178Y-72710000D01*
X129263475Y-72523368D01*
X129056632Y-72316525D01*
X128882240Y-72200000D01*
X129056632Y-72083475D01*
X129263475Y-71876632D01*
X129425990Y-71633411D01*
X129537932Y-71363158D01*
X129595000Y-71076260D01*
X129595000Y-70783740D01*
X129537932Y-70496842D01*
X129425990Y-70226589D01*
X129263475Y-69983368D01*
X129056632Y-69776525D01*
X128882240Y-69660000D01*
X129056632Y-69543475D01*
X129263475Y-69336632D01*
X129425990Y-69093411D01*
X129537932Y-68823158D01*
X129595000Y-68536260D01*
X129595000Y-68243740D01*
X129537932Y-67956842D01*
X129425990Y-67686589D01*
X129263475Y-67443368D01*
X129131620Y-67311513D01*
X129204180Y-67289502D01*
X129314494Y-67230537D01*
X129411185Y-67151185D01*
X129490537Y-67054494D01*
X129549502Y-66944180D01*
X129585812Y-66824482D01*
X129598072Y-66700000D01*
X129598072Y-65000000D01*
X129585812Y-64875518D01*
X129549502Y-64755820D01*
X129490537Y-64645506D01*
X129411185Y-64548815D01*
X129314494Y-64469463D01*
X129204180Y-64410498D01*
X129131620Y-64388487D01*
X129263475Y-64256632D01*
X129425990Y-64013411D01*
X129537932Y-63743158D01*
X129595000Y-63456260D01*
X129595000Y-63163740D01*
X129537932Y-62876842D01*
X129425990Y-62606589D01*
X129263475Y-62363368D01*
X129056632Y-62156525D01*
X128882240Y-62040000D01*
X129056632Y-61923475D01*
X129263475Y-61716632D01*
X129425990Y-61473411D01*
X129537932Y-61203158D01*
X129595000Y-60916260D01*
X129595000Y-60623740D01*
X129537932Y-60336842D01*
X129425990Y-60066589D01*
X129263475Y-59823368D01*
X129056632Y-59616525D01*
X128882240Y-59500000D01*
X129056632Y-59383475D01*
X129263475Y-59176632D01*
X129425990Y-58933411D01*
X129537932Y-58663158D01*
X129595000Y-58376260D01*
X129595000Y-58083740D01*
X129537932Y-57796842D01*
X129425990Y-57526589D01*
X129263475Y-57283368D01*
X129056632Y-57076525D01*
X128882240Y-56960000D01*
X129056632Y-56843475D01*
X129263475Y-56636632D01*
X129425990Y-56393411D01*
X129537932Y-56123158D01*
X129595000Y-55836260D01*
X129595000Y-55543740D01*
X129537932Y-55256842D01*
X129425990Y-54986589D01*
X129263475Y-54743368D01*
X129131620Y-54611513D01*
X129204180Y-54589502D01*
X129314494Y-54530537D01*
X129411185Y-54451185D01*
X129490537Y-54354494D01*
X129549502Y-54244180D01*
X129585812Y-54124482D01*
X129598072Y-54000000D01*
X129598072Y-52300000D01*
X129585812Y-52175518D01*
X129549502Y-52055820D01*
X129490537Y-51945506D01*
X129411185Y-51848815D01*
X129314494Y-51769463D01*
X129204180Y-51710498D01*
X129131620Y-51688487D01*
X129263475Y-51556632D01*
X129425990Y-51313411D01*
X129537932Y-51043158D01*
X129595000Y-50756260D01*
X129595000Y-50463740D01*
X129537932Y-50176842D01*
X129425990Y-49906589D01*
X129263475Y-49663368D01*
X129056632Y-49456525D01*
X128882240Y-49340000D01*
X129056632Y-49223475D01*
X129263475Y-49016632D01*
X129425990Y-48773411D01*
X129537932Y-48503158D01*
X129595000Y-48216260D01*
X129595000Y-47923740D01*
X129537932Y-47636842D01*
X129425990Y-47366589D01*
X129263475Y-47123368D01*
X129056632Y-46916525D01*
X128882240Y-46800000D01*
X129056632Y-46683475D01*
X129263475Y-46476632D01*
X129425990Y-46233411D01*
X129537932Y-45963158D01*
X129595000Y-45676260D01*
X129595000Y-45383740D01*
X129537932Y-45096842D01*
X129425990Y-44826589D01*
X129263475Y-44583368D01*
X129056632Y-44376525D01*
X128882240Y-44260000D01*
X129056632Y-44143475D01*
X129263475Y-43936632D01*
X129425990Y-43693411D01*
X129537932Y-43423158D01*
X129595000Y-43136260D01*
X129595000Y-42843740D01*
X129537932Y-42556842D01*
X129425990Y-42286589D01*
X129263475Y-42043368D01*
X129131620Y-41911513D01*
X129204180Y-41889502D01*
X129314494Y-41830537D01*
X129411185Y-41751185D01*
X129490537Y-41654494D01*
X129549502Y-41544180D01*
X129585812Y-41424482D01*
X129598072Y-41300000D01*
X129598072Y-39600000D01*
X129585812Y-39475518D01*
X129549502Y-39355820D01*
X129490537Y-39245506D01*
X129411185Y-39148815D01*
X129314494Y-39069463D01*
X129204180Y-39010498D01*
X129131620Y-38988487D01*
X129263475Y-38856632D01*
X129425990Y-38613411D01*
X129517042Y-38393589D01*
X133190000Y-38393589D01*
X133190000Y-38666411D01*
X133243225Y-38933989D01*
X133347629Y-39186043D01*
X133499201Y-39412886D01*
X133692114Y-39605799D01*
X133918957Y-39757371D01*
X134171011Y-39861775D01*
X134438589Y-39915000D01*
X134711411Y-39915000D01*
X134978989Y-39861775D01*
X135231043Y-39757371D01*
X135457886Y-39605799D01*
X135650799Y-39412886D01*
X135802371Y-39186043D01*
X135906775Y-38933989D01*
X135960000Y-38666411D01*
X135960000Y-38393589D01*
X138040000Y-38393589D01*
X138040000Y-38666411D01*
X138093225Y-38933989D01*
X138197629Y-39186043D01*
X138349201Y-39412886D01*
X138542114Y-39605799D01*
X138768957Y-39757371D01*
X139021011Y-39861775D01*
X139288589Y-39915000D01*
X139561411Y-39915000D01*
X139828989Y-39861775D01*
X140081043Y-39757371D01*
X140307886Y-39605799D01*
X140500799Y-39412886D01*
X140652371Y-39186043D01*
X140756775Y-38933989D01*
X140810000Y-38666411D01*
X140810000Y-38393589D01*
X140756775Y-38126011D01*
X140652371Y-37873957D01*
X140500799Y-37647114D01*
X140307886Y-37454201D01*
X140081043Y-37302629D01*
X139828989Y-37198225D01*
X139561411Y-37145000D01*
X139288589Y-37145000D01*
X139021011Y-37198225D01*
X138768957Y-37302629D01*
X138542114Y-37454201D01*
X138349201Y-37647114D01*
X138197629Y-37873957D01*
X138093225Y-38126011D01*
X138040000Y-38393589D01*
X135960000Y-38393589D01*
X135906775Y-38126011D01*
X135802371Y-37873957D01*
X135650799Y-37647114D01*
X135457886Y-37454201D01*
X135231043Y-37302629D01*
X134978989Y-37198225D01*
X134711411Y-37145000D01*
X134438589Y-37145000D01*
X134171011Y-37198225D01*
X133918957Y-37302629D01*
X133692114Y-37454201D01*
X133499201Y-37647114D01*
X133347629Y-37873957D01*
X133243225Y-38126011D01*
X133190000Y-38393589D01*
X129517042Y-38393589D01*
X129537932Y-38343158D01*
X129595000Y-38056260D01*
X129595000Y-37763740D01*
X129537932Y-37476842D01*
X129425990Y-37206589D01*
X129263475Y-36963368D01*
X129056632Y-36756525D01*
X128882240Y-36640000D01*
X129056632Y-36523475D01*
X129263475Y-36316632D01*
X129425990Y-36073411D01*
X129537932Y-35803158D01*
X129595000Y-35516260D01*
X129595000Y-35348816D01*
X132740000Y-35348816D01*
X132740000Y-35651184D01*
X132798989Y-35947743D01*
X132914701Y-36227095D01*
X133082688Y-36478505D01*
X133296495Y-36692312D01*
X133547905Y-36860299D01*
X133827257Y-36976011D01*
X134123816Y-37035000D01*
X134426184Y-37035000D01*
X134722743Y-36976011D01*
X135002095Y-36860299D01*
X135253505Y-36692312D01*
X135467312Y-36478505D01*
X135635299Y-36227095D01*
X135751011Y-35947743D01*
X135810000Y-35651184D01*
X135810000Y-35348816D01*
X138190000Y-35348816D01*
X138190000Y-35651184D01*
X138248989Y-35947743D01*
X138364701Y-36227095D01*
X138532688Y-36478505D01*
X138746495Y-36692312D01*
X138997905Y-36860299D01*
X139277257Y-36976011D01*
X139573816Y-37035000D01*
X139876184Y-37035000D01*
X140172743Y-36976011D01*
X140452095Y-36860299D01*
X140703505Y-36692312D01*
X140917312Y-36478505D01*
X141085299Y-36227095D01*
X141201011Y-35947743D01*
X141260000Y-35651184D01*
X141260000Y-35348816D01*
X141201011Y-35052257D01*
X141085299Y-34772905D01*
X140917312Y-34521495D01*
X140703505Y-34307688D01*
X140452095Y-34139701D01*
X140172743Y-34023989D01*
X139876184Y-33965000D01*
X139573816Y-33965000D01*
X139277257Y-34023989D01*
X138997905Y-34139701D01*
X138746495Y-34307688D01*
X138532688Y-34521495D01*
X138364701Y-34772905D01*
X138248989Y-35052257D01*
X138190000Y-35348816D01*
X135810000Y-35348816D01*
X135751011Y-35052257D01*
X135635299Y-34772905D01*
X135467312Y-34521495D01*
X135253505Y-34307688D01*
X135002095Y-34139701D01*
X134722743Y-34023989D01*
X134426184Y-33965000D01*
X134123816Y-33965000D01*
X133827257Y-34023989D01*
X133547905Y-34139701D01*
X133296495Y-34307688D01*
X133082688Y-34521495D01*
X132914701Y-34772905D01*
X132798989Y-35052257D01*
X132740000Y-35348816D01*
X129595000Y-35348816D01*
X129595000Y-35223740D01*
X129537932Y-34936842D01*
X129425990Y-34666589D01*
X129263475Y-34423368D01*
X129056632Y-34216525D01*
X128813411Y-34054010D01*
X128543158Y-33942068D01*
X128256260Y-33885000D01*
X127963740Y-33885000D01*
X127676842Y-33942068D01*
X127406589Y-34054010D01*
X127163368Y-34216525D01*
X126956525Y-34423368D01*
X126794010Y-34666589D01*
X126682068Y-34936842D01*
X126625000Y-35223740D01*
X126625000Y-35516260D01*
X126682068Y-35803158D01*
X126794010Y-36073411D01*
X126956525Y-36316632D01*
X127163368Y-36523475D01*
X127337760Y-36640000D01*
X127163368Y-36756525D01*
X126956525Y-36963368D01*
X126794010Y-37206589D01*
X126682068Y-37476842D01*
X126625000Y-37763740D01*
X126625000Y-38056260D01*
X126682068Y-38343158D01*
X126794010Y-38613411D01*
X126956525Y-38856632D01*
X127088380Y-38988487D01*
X127015820Y-39010498D01*
X126905506Y-39069463D01*
X126808815Y-39148815D01*
X126729463Y-39245506D01*
X126670498Y-39355820D01*
X126634188Y-39475518D01*
X126621928Y-39600000D01*
X126621928Y-41300000D01*
X126634188Y-41424482D01*
X126670498Y-41544180D01*
X126729463Y-41654494D01*
X126808815Y-41751185D01*
X126905506Y-41830537D01*
X127015820Y-41889502D01*
X127088380Y-41911513D01*
X126956525Y-42043368D01*
X126794010Y-42286589D01*
X126682068Y-42556842D01*
X126625000Y-42843740D01*
X126625000Y-43136260D01*
X126682068Y-43423158D01*
X126794010Y-43693411D01*
X126956525Y-43936632D01*
X127163368Y-44143475D01*
X127337760Y-44260000D01*
X127163368Y-44376525D01*
X126956525Y-44583368D01*
X126794010Y-44826589D01*
X126682068Y-45096842D01*
X126625000Y-45383740D01*
X126625000Y-45676260D01*
X126682068Y-45963158D01*
X126794010Y-46233411D01*
X126956525Y-46476632D01*
X127163368Y-46683475D01*
X127337760Y-46800000D01*
X127163368Y-46916525D01*
X126956525Y-47123368D01*
X126831822Y-47310000D01*
X124967325Y-47310000D01*
X124930000Y-47306324D01*
X124892675Y-47310000D01*
X124892667Y-47310000D01*
X124781014Y-47320997D01*
X124637753Y-47364454D01*
X124505724Y-47435026D01*
X124389999Y-47529999D01*
X124366201Y-47558997D01*
X121489003Y-50436196D01*
X121459999Y-50459999D01*
X121416201Y-50513368D01*
X121365026Y-50575724D01*
X121298599Y-50700000D01*
X121294454Y-50707754D01*
X121250997Y-50851015D01*
X121240000Y-50962668D01*
X121240000Y-50962678D01*
X121236324Y-51000000D01*
X121240000Y-51037322D01*
X121240001Y-61261682D01*
X117685199Y-64816485D01*
X117623061Y-64816485D01*
X117423102Y-64856259D01*
X117234744Y-64934280D01*
X117065226Y-65047548D01*
X116921063Y-65191711D01*
X116807795Y-65361229D01*
X116760000Y-65476616D01*
X116760000Y-60707477D01*
X116761640Y-60702071D01*
X116816590Y-60647121D01*
X116929858Y-60477603D01*
X117007879Y-60289245D01*
X117047653Y-60089286D01*
X117047653Y-59885408D01*
X117007879Y-59685449D01*
X116929858Y-59497091D01*
X116816590Y-59327573D01*
X116672427Y-59183410D01*
X116502909Y-59070142D01*
X116314551Y-58992121D01*
X116114592Y-58952347D01*
X115910714Y-58952347D01*
X115710755Y-58992121D01*
X115522397Y-59070142D01*
X115496858Y-59087206D01*
X115490256Y-59082795D01*
X115301898Y-59004774D01*
X115101939Y-58965000D01*
X115039802Y-58965000D01*
X108576457Y-52501656D01*
X108552654Y-52472652D01*
X108436929Y-52377679D01*
X108304900Y-52307107D01*
X108161639Y-52263650D01*
X108049986Y-52252653D01*
X108049975Y-52252653D01*
X108012653Y-52248977D01*
X107975331Y-52252653D01*
X105691058Y-52252653D01*
X105647121Y-52208716D01*
X105477603Y-52095448D01*
X105289245Y-52017427D01*
X105089286Y-51977653D01*
X104885408Y-51977653D01*
X104685449Y-52017427D01*
X104497091Y-52095448D01*
X104327573Y-52208716D01*
X104201437Y-52334852D01*
X104315990Y-52163411D01*
X104427932Y-51893158D01*
X104485000Y-51606260D01*
X104485000Y-51313740D01*
X104427932Y-51026842D01*
X104315990Y-50756589D01*
X104153475Y-50513368D01*
X103946632Y-50306525D01*
X103772240Y-50190000D01*
X103946632Y-50073475D01*
X104153475Y-49866632D01*
X104315990Y-49623411D01*
X104427932Y-49353158D01*
X104485000Y-49066260D01*
X104485000Y-48773740D01*
X104427932Y-48486842D01*
X104315990Y-48216589D01*
X104153475Y-47973368D01*
X103946632Y-47766525D01*
X103772240Y-47650000D01*
X103946632Y-47533475D01*
X104153475Y-47326632D01*
X104315990Y-47083411D01*
X104427932Y-46813158D01*
X104485000Y-46526260D01*
X104485000Y-46233740D01*
X104427932Y-45946842D01*
X104315990Y-45676589D01*
X104153475Y-45433368D01*
X103946632Y-45226525D01*
X103772240Y-45110000D01*
X103946632Y-44993475D01*
X104153475Y-44786632D01*
X104315990Y-44543411D01*
X104427932Y-44273158D01*
X104485000Y-43986260D01*
X104485000Y-43693740D01*
X104427932Y-43406842D01*
X104315990Y-43136589D01*
X104153475Y-42893368D01*
X103946632Y-42686525D01*
X103772240Y-42570000D01*
X103946632Y-42453475D01*
X104153475Y-42246632D01*
X104315990Y-42003411D01*
X104427932Y-41733158D01*
X104485000Y-41446260D01*
X104485000Y-41153740D01*
X104427932Y-40866842D01*
X104315990Y-40596589D01*
X104153475Y-40353368D01*
X103946632Y-40146525D01*
X103703411Y-39984010D01*
X103433158Y-39872068D01*
X103146260Y-39815000D01*
X102853740Y-39815000D01*
X102633592Y-39858790D01*
X94867000Y-32092199D01*
X94867000Y-31940500D01*
X102558888Y-31940500D01*
X102581285Y-32167900D01*
X102644593Y-32376598D01*
X102609998Y-32441320D01*
X102573688Y-32561018D01*
X102561428Y-32685500D01*
X102561428Y-33735500D01*
X102573688Y-33859982D01*
X102609998Y-33979680D01*
X102668963Y-34089994D01*
X102748315Y-34186685D01*
X102845006Y-34266037D01*
X102955320Y-34325002D01*
X103075018Y-34361312D01*
X103199500Y-34373572D01*
X104699500Y-34373572D01*
X104823982Y-34361312D01*
X104943680Y-34325002D01*
X105053994Y-34266037D01*
X105150685Y-34186685D01*
X105230037Y-34089994D01*
X105289002Y-33979680D01*
X105325312Y-33859982D01*
X105337572Y-33735500D01*
X105337572Y-32685500D01*
X105325312Y-32561018D01*
X105289002Y-32441320D01*
X105254407Y-32376598D01*
X105317715Y-32167900D01*
X105340112Y-31940500D01*
X105317715Y-31713100D01*
X105251385Y-31494440D01*
X105150571Y-31305831D01*
X105191775Y-31247382D01*
X105284772Y-31037837D01*
X105293464Y-30976310D01*
X105167663Y-30797500D01*
X104402609Y-30797500D01*
X104401900Y-30797285D01*
X104231479Y-30780500D01*
X103667521Y-30780500D01*
X103497100Y-30797285D01*
X103496391Y-30797500D01*
X102731337Y-30797500D01*
X102605536Y-30976310D01*
X102614228Y-31037837D01*
X102707225Y-31247382D01*
X102748429Y-31305831D01*
X102647615Y-31494440D01*
X102581285Y-31713100D01*
X102558888Y-31940500D01*
X94867000Y-31940500D01*
X94867000Y-30364690D01*
X102605536Y-30364690D01*
X102731337Y-30543500D01*
X103822500Y-30543500D01*
X103822500Y-29663902D01*
X104076500Y-29663902D01*
X104076500Y-30543500D01*
X105167663Y-30543500D01*
X105293464Y-30364690D01*
X105284772Y-30303163D01*
X105191775Y-30093618D01*
X105059684Y-29906242D01*
X104893576Y-29748236D01*
X104699834Y-29625672D01*
X104485904Y-29543261D01*
X104260007Y-29504169D01*
X104076500Y-29663902D01*
X103822500Y-29663902D01*
X103638993Y-29504169D01*
X103413096Y-29543261D01*
X103199166Y-29625672D01*
X103005424Y-29748236D01*
X102839316Y-29906242D01*
X102707225Y-30093618D01*
X102614228Y-30303163D01*
X102605536Y-30364690D01*
X94867000Y-30364690D01*
X94867000Y-28670040D01*
X144463400Y-28670040D01*
X144463400Y-28962560D01*
X144520468Y-29249458D01*
X144632410Y-29519711D01*
X144794925Y-29762932D01*
X145001768Y-29969775D01*
X145244989Y-30132290D01*
X145515242Y-30244232D01*
X145802140Y-30301300D01*
X146094660Y-30301300D01*
X146381558Y-30244232D01*
X146651811Y-30132290D01*
X146895032Y-29969775D01*
X147026887Y-29837920D01*
X147048898Y-29910480D01*
X147107863Y-30020794D01*
X147187215Y-30117485D01*
X147283906Y-30196837D01*
X147394220Y-30255802D01*
X147513918Y-30292112D01*
X147638400Y-30304372D01*
X149338400Y-30304372D01*
X149462882Y-30292112D01*
X149582580Y-30255802D01*
X149692894Y-30196837D01*
X149789585Y-30117485D01*
X149868937Y-30020794D01*
X149927902Y-29910480D01*
X149964212Y-29790782D01*
X149976472Y-29666300D01*
X149976472Y-27966300D01*
X149964212Y-27841818D01*
X149927902Y-27722120D01*
X149868937Y-27611806D01*
X149789585Y-27515115D01*
X149692894Y-27435763D01*
X149582580Y-27376798D01*
X149462882Y-27340488D01*
X149338400Y-27328228D01*
X147638400Y-27328228D01*
X147513918Y-27340488D01*
X147394220Y-27376798D01*
X147283906Y-27435763D01*
X147187215Y-27515115D01*
X147107863Y-27611806D01*
X147048898Y-27722120D01*
X147026887Y-27794680D01*
X146895032Y-27662825D01*
X146651811Y-27500310D01*
X146381558Y-27388368D01*
X146094660Y-27331300D01*
X145802140Y-27331300D01*
X145515242Y-27388368D01*
X145244989Y-27500310D01*
X145001768Y-27662825D01*
X144794925Y-27869668D01*
X144632410Y-28112889D01*
X144520468Y-28383142D01*
X144463400Y-28670040D01*
X94867000Y-28670040D01*
X94867000Y-27059178D01*
X95053632Y-26934475D01*
X95185487Y-26802620D01*
X95207498Y-26875180D01*
X95266463Y-26985494D01*
X95345815Y-27082185D01*
X95442506Y-27161537D01*
X95552820Y-27220502D01*
X95672518Y-27256812D01*
X95797000Y-27269072D01*
X97497000Y-27269072D01*
X97621482Y-27256812D01*
X97741180Y-27220502D01*
X97851494Y-27161537D01*
X97948185Y-27082185D01*
X98027537Y-26985494D01*
X98086502Y-26875180D01*
X98122812Y-26755482D01*
X98135072Y-26631000D01*
X98135072Y-24931000D01*
X98122812Y-24806518D01*
X98086502Y-24686820D01*
X98027537Y-24576506D01*
X97948185Y-24479815D01*
X97851494Y-24400463D01*
X97741180Y-24341498D01*
X97621482Y-24305188D01*
X97497000Y-24292928D01*
X95797000Y-24292928D01*
X95672518Y-24305188D01*
X95552820Y-24341498D01*
X95442506Y-24400463D01*
X95345815Y-24479815D01*
X95266463Y-24576506D01*
X95207498Y-24686820D01*
X95185487Y-24759380D01*
X95053632Y-24627525D01*
X94810411Y-24465010D01*
X94540158Y-24353068D01*
X94253260Y-24296000D01*
X93960740Y-24296000D01*
X93673842Y-24353068D01*
X93403589Y-24465010D01*
X93160368Y-24627525D01*
X92953525Y-24834368D01*
X92791010Y-25077589D01*
X92679068Y-25347842D01*
X92622000Y-25634740D01*
X92622000Y-25927260D01*
X92679068Y-26214158D01*
X92791010Y-26484411D01*
X92953525Y-26727632D01*
X93160368Y-26934475D01*
X93347000Y-27059179D01*
X93347001Y-32369668D01*
X93343324Y-32407000D01*
X93347001Y-32444333D01*
X93357998Y-32555986D01*
X93367733Y-32588079D01*
X93401454Y-32699246D01*
X93472026Y-32831276D01*
X93525155Y-32896013D01*
X93567000Y-32947001D01*
X93595998Y-32970799D01*
X101558790Y-40933592D01*
X101515000Y-41153740D01*
X101515000Y-41446260D01*
X101572068Y-41733158D01*
X101684010Y-42003411D01*
X101846525Y-42246632D01*
X102053368Y-42453475D01*
X102227760Y-42570000D01*
X102053368Y-42686525D01*
X101846525Y-42893368D01*
X101684010Y-43136589D01*
X101572068Y-43406842D01*
X101515000Y-43693740D01*
X101515000Y-43986260D01*
X101572068Y-44273158D01*
X101684010Y-44543411D01*
X101846525Y-44786632D01*
X102053368Y-44993475D01*
X102227760Y-45110000D01*
X102053368Y-45226525D01*
X101846525Y-45433368D01*
X101684010Y-45676589D01*
X101572068Y-45946842D01*
X101515000Y-46233740D01*
X101515000Y-46526260D01*
X101572068Y-46813158D01*
X101684010Y-47083411D01*
X101846525Y-47326632D01*
X102053368Y-47533475D01*
X102227760Y-47650000D01*
X102053368Y-47766525D01*
X101846525Y-47973368D01*
X101684010Y-48216589D01*
X101572068Y-48486842D01*
X101515000Y-48773740D01*
X101515000Y-49066260D01*
X101572068Y-49353158D01*
X101684010Y-49623411D01*
X101846525Y-49866632D01*
X102053368Y-50073475D01*
X102227760Y-50190000D01*
X102053368Y-50306525D01*
X101846525Y-50513368D01*
X101721822Y-50700000D01*
X101399802Y-50700000D01*
X93835000Y-43135199D01*
X93835000Y-43073061D01*
X93795226Y-42873102D01*
X93717205Y-42684744D01*
X93603937Y-42515226D01*
X93459774Y-42371063D01*
X93290256Y-42257795D01*
X93101898Y-42179774D01*
X92901939Y-42140000D01*
X92698061Y-42140000D01*
X92498102Y-42179774D01*
X92309744Y-42257795D01*
X92140226Y-42371063D01*
X91996063Y-42515226D01*
X91882795Y-42684744D01*
X91804774Y-42873102D01*
X91765000Y-43073061D01*
X91765000Y-43276939D01*
X91804774Y-43476898D01*
X91882795Y-43665256D01*
X91996063Y-43834774D01*
X92140226Y-43978937D01*
X92309744Y-44092205D01*
X92498102Y-44170226D01*
X92698061Y-44210000D01*
X92760199Y-44210000D01*
X100521201Y-51971003D01*
X100544999Y-52000001D01*
X100660724Y-52094974D01*
X100792753Y-52165546D01*
X100936014Y-52209003D01*
X101047667Y-52220000D01*
X101047676Y-52220000D01*
X101084999Y-52223676D01*
X101122322Y-52220000D01*
X101721822Y-52220000D01*
X101846525Y-52406632D01*
X101978380Y-52538487D01*
X101905820Y-52560498D01*
X101795506Y-52619463D01*
X101698815Y-52698815D01*
X101619463Y-52795506D01*
X101560498Y-52905820D01*
X101524188Y-53025518D01*
X101511928Y-53150000D01*
X101515000Y-53714250D01*
X101673750Y-53873000D01*
X102873000Y-53873000D01*
X102873000Y-53853000D01*
X103127000Y-53853000D01*
X103127000Y-53873000D01*
X104326250Y-53873000D01*
X104360595Y-53838655D01*
X104497091Y-53929858D01*
X104685449Y-54007879D01*
X104885408Y-54047653D01*
X105089286Y-54047653D01*
X105289245Y-54007879D01*
X105477603Y-53929858D01*
X105647121Y-53816590D01*
X105691058Y-53772653D01*
X107697852Y-53772653D01*
X113965000Y-60039802D01*
X113965000Y-60101939D01*
X114004774Y-60301898D01*
X114082795Y-60490256D01*
X114196063Y-60659774D01*
X114340226Y-60803937D01*
X114509744Y-60917205D01*
X114698102Y-60995226D01*
X114898061Y-61035000D01*
X115101939Y-61035000D01*
X115240000Y-61007538D01*
X115240001Y-94985197D01*
X100192871Y-110032328D01*
X100153475Y-109973368D01*
X99946632Y-109766525D01*
X99772240Y-109650000D01*
X99946632Y-109533475D01*
X100153475Y-109326632D01*
X100315990Y-109083411D01*
X100427932Y-108813158D01*
X100485000Y-108526260D01*
X100485000Y-108233740D01*
X100427932Y-107946842D01*
X100315990Y-107676589D01*
X100153475Y-107433368D01*
X99946632Y-107226525D01*
X99703411Y-107064010D01*
X99433158Y-106952068D01*
X99146260Y-106895000D01*
X98853740Y-106895000D01*
X98566842Y-106952068D01*
X98296589Y-107064010D01*
X98053368Y-107226525D01*
X97846525Y-107433368D01*
X97730000Y-107607760D01*
X97613475Y-107433368D01*
X97406632Y-107226525D01*
X97163411Y-107064010D01*
X96893158Y-106952068D01*
X96606260Y-106895000D01*
X96313740Y-106895000D01*
X96026842Y-106952068D01*
X95756589Y-107064010D01*
X95513368Y-107226525D01*
X95306525Y-107433368D01*
X95144010Y-107676589D01*
X95032068Y-107946842D01*
X94975000Y-108233740D01*
X94975000Y-108526260D01*
X95032068Y-108813158D01*
X95144010Y-109083411D01*
X95306525Y-109326632D01*
X95513368Y-109533475D01*
X95687760Y-109650000D01*
X95513368Y-109766525D01*
X95306525Y-109973368D01*
X95144010Y-110216589D01*
X95032068Y-110486842D01*
X94975000Y-110773740D01*
X94975000Y-111066260D01*
X95032068Y-111353158D01*
X95144010Y-111623411D01*
X95306525Y-111866632D01*
X95513368Y-112073475D01*
X95687760Y-112190000D01*
X95513368Y-112306525D01*
X95306525Y-112513368D01*
X95144010Y-112756589D01*
X95032068Y-113026842D01*
X94975000Y-113313740D01*
X94975000Y-113606260D01*
X95018790Y-113826408D01*
X94088998Y-114756201D01*
X94060000Y-114779999D01*
X94036202Y-114808997D01*
X94036201Y-114808998D01*
X93965026Y-114895724D01*
X93894454Y-115027754D01*
X93864573Y-115126261D01*
X93850998Y-115171014D01*
X93841445Y-115268007D01*
X93836324Y-115320000D01*
X93840001Y-115357332D01*
X93840000Y-117262677D01*
X93836324Y-117300000D01*
X93840000Y-117337322D01*
X93840000Y-117337332D01*
X93850997Y-117448985D01*
X93885482Y-117562668D01*
X93894454Y-117592246D01*
X93965026Y-117724276D01*
X94004871Y-117772826D01*
X94059999Y-117840001D01*
X94089003Y-117863804D01*
X94523543Y-118298344D01*
X94547346Y-118327348D01*
X94663071Y-118422321D01*
X94795100Y-118492893D01*
X94938361Y-118536350D01*
X95050014Y-118547347D01*
X95050022Y-118547347D01*
X95087347Y-118551023D01*
X95124672Y-118547347D01*
X97708942Y-118547347D01*
X97752879Y-118591284D01*
X97922397Y-118704552D01*
X98110755Y-118782573D01*
X98310714Y-118822347D01*
X98514592Y-118822347D01*
X98714551Y-118782573D01*
X98902909Y-118704552D01*
X99072427Y-118591284D01*
X99216590Y-118447121D01*
X99329858Y-118277603D01*
X99407879Y-118089245D01*
X99447653Y-117889286D01*
X99447653Y-117685408D01*
X99407922Y-117485665D01*
X99850000Y-117488072D01*
X99974482Y-117475812D01*
X100094180Y-117439502D01*
X100204494Y-117380537D01*
X100301185Y-117301185D01*
X100380537Y-117204494D01*
X100439502Y-117094180D01*
X100475812Y-116974482D01*
X100488072Y-116850000D01*
X100485000Y-116285750D01*
X100326250Y-116127000D01*
X99127000Y-116127000D01*
X99127000Y-116147000D01*
X98873000Y-116147000D01*
X98873000Y-116127000D01*
X98853000Y-116127000D01*
X98853000Y-115873000D01*
X98873000Y-115873000D01*
X98873000Y-115853000D01*
X99127000Y-115853000D01*
X99127000Y-115873000D01*
X100326250Y-115873000D01*
X100485000Y-115714250D01*
X100488072Y-115150000D01*
X100475812Y-115025518D01*
X100439502Y-114905820D01*
X100380537Y-114795506D01*
X100301185Y-114698815D01*
X100204494Y-114619463D01*
X100094180Y-114560498D01*
X100021620Y-114538487D01*
X100153475Y-114406632D01*
X100315990Y-114163411D01*
X100427932Y-113893158D01*
X100485000Y-113606260D01*
X100485000Y-113313740D01*
X100427932Y-113026842D01*
X100315990Y-112756589D01*
X100153475Y-112513368D01*
X99946632Y-112306525D01*
X99772240Y-112190000D01*
X99946632Y-112073475D01*
X100153475Y-111866632D01*
X100278178Y-111680000D01*
X100342678Y-111680000D01*
X100380000Y-111683676D01*
X100417322Y-111680000D01*
X100417333Y-111680000D01*
X100528986Y-111669003D01*
X100672247Y-111625546D01*
X100804276Y-111554974D01*
X100920001Y-111460001D01*
X100943804Y-111430997D01*
X116511003Y-95863799D01*
X116540001Y-95840001D01*
X116634974Y-95724276D01*
X116705546Y-95592247D01*
X116749003Y-95448986D01*
X116760000Y-95337333D01*
X116760000Y-95337323D01*
X116763676Y-95300000D01*
X116760000Y-95262677D01*
X116760000Y-66226354D01*
X116807795Y-66341741D01*
X116921063Y-66511259D01*
X117065226Y-66655422D01*
X117193445Y-66741095D01*
X117165026Y-66775724D01*
X117105823Y-66886485D01*
X117094454Y-66907754D01*
X117050997Y-67051015D01*
X117040000Y-67162668D01*
X117040000Y-67162678D01*
X117036324Y-67200000D01*
X117040000Y-67237322D01*
X117040001Y-93096288D01*
X116996063Y-93140226D01*
X116882795Y-93309744D01*
X116804774Y-93498102D01*
X116765000Y-93698061D01*
X116765000Y-93901939D01*
X116804774Y-94101898D01*
X116882795Y-94290256D01*
X116996063Y-94459774D01*
X117140226Y-94603937D01*
X117309744Y-94717205D01*
X117498102Y-94795226D01*
X117698061Y-94835000D01*
X117901939Y-94835000D01*
X118101898Y-94795226D01*
X118290256Y-94717205D01*
X118459774Y-94603937D01*
X118603937Y-94459774D01*
X118717205Y-94290256D01*
X118795226Y-94101898D01*
X118835000Y-93901939D01*
X118835000Y-93698061D01*
X118795226Y-93498102D01*
X118717205Y-93309744D01*
X118603937Y-93140226D01*
X118560000Y-93096289D01*
X118560000Y-67514801D01*
X125281003Y-60793799D01*
X125310001Y-60770001D01*
X125404974Y-60654276D01*
X125475546Y-60522247D01*
X125519003Y-60378986D01*
X125530000Y-60267333D01*
X125533677Y-60230000D01*
X125530000Y-60192667D01*
X125530000Y-58990000D01*
X126831822Y-58990000D01*
X126956525Y-59176632D01*
X127163368Y-59383475D01*
X127337760Y-59500000D01*
X127163368Y-59616525D01*
X126956525Y-59823368D01*
X126794010Y-60066589D01*
X126682068Y-60336842D01*
X126625000Y-60623740D01*
X126625000Y-60916260D01*
X126682068Y-61203158D01*
X126794010Y-61473411D01*
X126956525Y-61716632D01*
X127163368Y-61923475D01*
X127337760Y-62040000D01*
X127163368Y-62156525D01*
X126956525Y-62363368D01*
X126794010Y-62606589D01*
X126682068Y-62876842D01*
X126625000Y-63163740D01*
X126625000Y-63456260D01*
X126682068Y-63743158D01*
X126794010Y-64013411D01*
X126956525Y-64256632D01*
X127088380Y-64388487D01*
X127015820Y-64410498D01*
X126905506Y-64469463D01*
X126808815Y-64548815D01*
X126729463Y-64645506D01*
X126670498Y-64755820D01*
X126634188Y-64875518D01*
X126621928Y-65000000D01*
X126621928Y-66700000D01*
X126634188Y-66824482D01*
X126670498Y-66944180D01*
X126729463Y-67054494D01*
X126808815Y-67151185D01*
X126905506Y-67230537D01*
X127015820Y-67289502D01*
X127088380Y-67311513D01*
X126956525Y-67443368D01*
X126794010Y-67686589D01*
X126682068Y-67956842D01*
X126625000Y-68243740D01*
X126625000Y-68536260D01*
X126682068Y-68823158D01*
X126794010Y-69093411D01*
X126956525Y-69336632D01*
X127163368Y-69543475D01*
X127337760Y-69660000D01*
X127163368Y-69776525D01*
X126956525Y-69983368D01*
X126794010Y-70226589D01*
X126682068Y-70496842D01*
X126625000Y-70783740D01*
X126625000Y-71076260D01*
X126682068Y-71363158D01*
X126794010Y-71633411D01*
X126956525Y-71876632D01*
X127163368Y-72083475D01*
X127337760Y-72200000D01*
X127163368Y-72316525D01*
X126956525Y-72523368D01*
X126794010Y-72766589D01*
X126682068Y-73036842D01*
X126625000Y-73323740D01*
X126625000Y-73616260D01*
X126682068Y-73903158D01*
X126794010Y-74173411D01*
X126956525Y-74416632D01*
X127163368Y-74623475D01*
X127337760Y-74740000D01*
X127163368Y-74856525D01*
X126956525Y-75063368D01*
X126794010Y-75306589D01*
X126682068Y-75576842D01*
X126625000Y-75863740D01*
X126625000Y-76156260D01*
X126682068Y-76443158D01*
X126794010Y-76713411D01*
X126956525Y-76956632D01*
X127088380Y-77088487D01*
X127015820Y-77110498D01*
X126905506Y-77169463D01*
X126808815Y-77248815D01*
X126729463Y-77345506D01*
X126670498Y-77455820D01*
X126634188Y-77575518D01*
X126621928Y-77700000D01*
X126625000Y-78264250D01*
X126783750Y-78423000D01*
X127983000Y-78423000D01*
X127983000Y-78403000D01*
X128237000Y-78403000D01*
X128237000Y-78423000D01*
X128257000Y-78423000D01*
X128257000Y-78677000D01*
X128237000Y-78677000D01*
X128237000Y-78697000D01*
X127983000Y-78697000D01*
X127983000Y-78677000D01*
X126783750Y-78677000D01*
X126625000Y-78835750D01*
X126621928Y-79400000D01*
X126634188Y-79524482D01*
X126670498Y-79644180D01*
X126729463Y-79754494D01*
X126808815Y-79851185D01*
X126905506Y-79930537D01*
X127015820Y-79989502D01*
X127088380Y-80011513D01*
X126956525Y-80143368D01*
X126794010Y-80386589D01*
X126682068Y-80656842D01*
X126625000Y-80943740D01*
X126625000Y-81236260D01*
X126682068Y-81523158D01*
X126794010Y-81793411D01*
X126956525Y-82036632D01*
X127163368Y-82243475D01*
X127337760Y-82360000D01*
X127163368Y-82476525D01*
X126956525Y-82683368D01*
X126794010Y-82926589D01*
X126682068Y-83196842D01*
X126625000Y-83483740D01*
X126625000Y-83776260D01*
X126682068Y-84063158D01*
X126794010Y-84333411D01*
X126956525Y-84576632D01*
X127163368Y-84783475D01*
X127406589Y-84945990D01*
X127676842Y-85057932D01*
X127963740Y-85115000D01*
X128256260Y-85115000D01*
X128543158Y-85057932D01*
X128813411Y-84945990D01*
X129056632Y-84783475D01*
X129263475Y-84576632D01*
X129425990Y-84333411D01*
X129537932Y-84063158D01*
X129595000Y-83776260D01*
X129595000Y-83483740D01*
X129537932Y-83196842D01*
X129425990Y-82926589D01*
X129263475Y-82683368D01*
X129056632Y-82476525D01*
X128882240Y-82360000D01*
X129056632Y-82243475D01*
X129263475Y-82036632D01*
X129425990Y-81793411D01*
X129537932Y-81523158D01*
X129595000Y-81236260D01*
X129595000Y-80943740D01*
X129537932Y-80656842D01*
X129425990Y-80386589D01*
X129263475Y-80143368D01*
X129131620Y-80011513D01*
X129204180Y-79989502D01*
X129314494Y-79930537D01*
X129411185Y-79851185D01*
X129490537Y-79754494D01*
X129549502Y-79644180D01*
X129585812Y-79524482D01*
X129598072Y-79400000D01*
X129595000Y-78835750D01*
X129436252Y-78677002D01*
X129595000Y-78677002D01*
X129595000Y-78569802D01*
X131940000Y-80914802D01*
X131940001Y-103342667D01*
X131936324Y-103380000D01*
X131950998Y-103528985D01*
X131994454Y-103672246D01*
X132065026Y-103804276D01*
X132136201Y-103891002D01*
X132160000Y-103920001D01*
X132188998Y-103943799D01*
X150995555Y-122750357D01*
X150979754Y-122788504D01*
X150915000Y-123114042D01*
X150915000Y-123445958D01*
X150979754Y-123771496D01*
X151106772Y-124078147D01*
X151291175Y-124354125D01*
X151487050Y-124550000D01*
X151291175Y-124745875D01*
X151222883Y-124848081D01*
X148604037Y-122229236D01*
X148613072Y-122137500D01*
X148613072Y-121637500D01*
X148596248Y-121466684D01*
X148546423Y-121302433D01*
X148465512Y-121151058D01*
X148356623Y-121018377D01*
X148223942Y-120909488D01*
X148072567Y-120828577D01*
X147908316Y-120778752D01*
X147737500Y-120761928D01*
X147262500Y-120761928D01*
X147091684Y-120778752D01*
X146927433Y-120828577D01*
X146776058Y-120909488D01*
X146643377Y-121018377D01*
X146534488Y-121151058D01*
X146453577Y-121302433D01*
X146403752Y-121466684D01*
X146386928Y-121637500D01*
X146386928Y-122137500D01*
X146403752Y-122308316D01*
X146453577Y-122472567D01*
X146534488Y-122623942D01*
X146643377Y-122756623D01*
X146696232Y-122800000D01*
X146643377Y-122843377D01*
X146553822Y-122952500D01*
X144624822Y-122952500D01*
X144587499Y-122948824D01*
X144550176Y-122952500D01*
X144550167Y-122952500D01*
X144438514Y-122963497D01*
X144421036Y-122968799D01*
X144401939Y-122965000D01*
X144198061Y-122965000D01*
X143998102Y-123004774D01*
X143809744Y-123082795D01*
X143640226Y-123196063D01*
X143496063Y-123340226D01*
X143382795Y-123509744D01*
X143304774Y-123698102D01*
X143265000Y-123898061D01*
X143265000Y-124101939D01*
X143304774Y-124301898D01*
X143382795Y-124490256D01*
X143496063Y-124659774D01*
X143640226Y-124803937D01*
X143809744Y-124917205D01*
X143998102Y-124995226D01*
X144198061Y-125035000D01*
X144401939Y-125035000D01*
X144601898Y-124995226D01*
X144790256Y-124917205D01*
X144959774Y-124803937D01*
X145103937Y-124659774D01*
X145217205Y-124490256D01*
X145224560Y-124472500D01*
X146553822Y-124472500D01*
X146643377Y-124581623D01*
X146776058Y-124690512D01*
X146927433Y-124771423D01*
X147091684Y-124821248D01*
X147262500Y-124838072D01*
X147737500Y-124838072D01*
X147908316Y-124821248D01*
X148072567Y-124771423D01*
X148223942Y-124690512D01*
X148356623Y-124581623D01*
X148465512Y-124448942D01*
X148538183Y-124312984D01*
X150140000Y-125914802D01*
X150140001Y-126622668D01*
X150136324Y-126660000D01*
X150150998Y-126808985D01*
X150194454Y-126952246D01*
X150265026Y-127084276D01*
X150290077Y-127114800D01*
X150360000Y-127200001D01*
X150388998Y-127223799D01*
X150995555Y-127830356D01*
X150979754Y-127868504D01*
X150915000Y-128194042D01*
X150915000Y-128525958D01*
X150979754Y-128851496D01*
X151106772Y-129158147D01*
X151291175Y-129434125D01*
X151487050Y-129630000D01*
X151291175Y-129825875D01*
X151106772Y-130101853D01*
X150979754Y-130408504D01*
X150915000Y-130734042D01*
X150915000Y-131065958D01*
X150979754Y-131391496D01*
X151106772Y-131698147D01*
X151291175Y-131974125D01*
X151487050Y-132170000D01*
X151291175Y-132365875D01*
X151106772Y-132641853D01*
X150979754Y-132948504D01*
X150915000Y-133274042D01*
X150915000Y-133605958D01*
X150979754Y-133931496D01*
X151106772Y-134238147D01*
X151291175Y-134514125D01*
X151525875Y-134748825D01*
X151801853Y-134933228D01*
X152108504Y-135060246D01*
X152434042Y-135125000D01*
X152765958Y-135125000D01*
X153091496Y-135060246D01*
X153398147Y-134933228D01*
X153674125Y-134748825D01*
X153908825Y-134514125D01*
X154093228Y-134238147D01*
X154220246Y-133931496D01*
X154285000Y-133605958D01*
X154285000Y-133274042D01*
X154220246Y-132948504D01*
X154204445Y-132910357D01*
X157711008Y-129403795D01*
X157740001Y-129380001D01*
X157763795Y-129351008D01*
X157763799Y-129351004D01*
X157798014Y-129309313D01*
X157768555Y-156048608D01*
X157676282Y-156848064D01*
X157454298Y-157593457D01*
X157106248Y-158288982D01*
X156642710Y-158913503D01*
X156077767Y-159448042D01*
X155428587Y-159876359D01*
X154714884Y-160185443D01*
X153956641Y-160366306D01*
X153171595Y-160416302D01*
X59851947Y-160468471D01*
X59053222Y-160376282D01*
X58307829Y-160154298D01*
X57612304Y-159806248D01*
X56987783Y-159342710D01*
X56453244Y-158777767D01*
X56024927Y-158128587D01*
X55715843Y-157414884D01*
X55534980Y-156656641D01*
X55485000Y-155871844D01*
X55485000Y-154064200D01*
X60817728Y-154064200D01*
X60817728Y-155714200D01*
X60829988Y-155838682D01*
X60866298Y-155958380D01*
X60925263Y-156068694D01*
X61004615Y-156165385D01*
X61101306Y-156244737D01*
X61211620Y-156303702D01*
X61331318Y-156340012D01*
X61455800Y-156352272D01*
X63105800Y-156352272D01*
X63230282Y-156340012D01*
X63349980Y-156303702D01*
X63460294Y-156244737D01*
X63556985Y-156165385D01*
X63636337Y-156068694D01*
X63695302Y-155958380D01*
X63731612Y-155838682D01*
X63743872Y-155714200D01*
X63743872Y-154064200D01*
X63731612Y-153939718D01*
X63695302Y-153820020D01*
X63636337Y-153709706D01*
X63556985Y-153613015D01*
X63460294Y-153533663D01*
X63349980Y-153474698D01*
X63230282Y-153438388D01*
X63105800Y-153426128D01*
X63040800Y-153426128D01*
X63040800Y-148034001D01*
X66623646Y-144451156D01*
X66611798Y-144490215D01*
X66597124Y-144639200D01*
X66600801Y-144676532D01*
X66600800Y-153641089D01*
X66430104Y-153755144D01*
X66226744Y-153958504D01*
X66066965Y-154197631D01*
X65956907Y-154463334D01*
X65900800Y-154745403D01*
X65900800Y-155032997D01*
X65956907Y-155315066D01*
X66066965Y-155580769D01*
X66226744Y-155819896D01*
X66430104Y-156023256D01*
X66669231Y-156183035D01*
X66934934Y-156293093D01*
X67217003Y-156349200D01*
X67504597Y-156349200D01*
X67786666Y-156293093D01*
X68052369Y-156183035D01*
X68291496Y-156023256D01*
X68494856Y-155819896D01*
X68654635Y-155580769D01*
X68764693Y-155315066D01*
X68820800Y-155032997D01*
X68820800Y-154745403D01*
X68764693Y-154463334D01*
X68654635Y-154197631D01*
X68494856Y-153958504D01*
X68291496Y-153755144D01*
X68193584Y-153689721D01*
X149065000Y-153689721D01*
X149065000Y-154110279D01*
X149147047Y-154522756D01*
X149307988Y-154911302D01*
X149541637Y-155260983D01*
X149839017Y-155558363D01*
X150188698Y-155792012D01*
X150577244Y-155952953D01*
X150989721Y-156035000D01*
X151410279Y-156035000D01*
X151822756Y-155952953D01*
X152211302Y-155792012D01*
X152560983Y-155558363D01*
X152858363Y-155260983D01*
X153092012Y-154911302D01*
X153252953Y-154522756D01*
X153335000Y-154110279D01*
X153335000Y-153689721D01*
X153252953Y-153277244D01*
X153092012Y-152888698D01*
X152858363Y-152539017D01*
X152560983Y-152241637D01*
X152211302Y-152007988D01*
X151822756Y-151847047D01*
X151410279Y-151765000D01*
X150989721Y-151765000D01*
X150577244Y-151847047D01*
X150188698Y-152007988D01*
X149839017Y-152241637D01*
X149541637Y-152539017D01*
X149307988Y-152888698D01*
X149147047Y-153277244D01*
X149065000Y-153689721D01*
X68193584Y-153689721D01*
X68120800Y-153641089D01*
X68120800Y-149394829D01*
X72894200Y-149394829D01*
X72894200Y-149842571D01*
X72981550Y-150281710D01*
X73152894Y-150695369D01*
X73401646Y-151067653D01*
X73718247Y-151384254D01*
X74090531Y-151633006D01*
X74504190Y-151804350D01*
X74943329Y-151891700D01*
X75391071Y-151891700D01*
X75830210Y-151804350D01*
X76243869Y-151633006D01*
X76616153Y-151384254D01*
X76932754Y-151067653D01*
X77181506Y-150695369D01*
X77352850Y-150281710D01*
X77440200Y-149842571D01*
X77440200Y-149394829D01*
X86034200Y-149394829D01*
X86034200Y-149842571D01*
X86121550Y-150281710D01*
X86292894Y-150695369D01*
X86541646Y-151067653D01*
X86858247Y-151384254D01*
X87230531Y-151633006D01*
X87644190Y-151804350D01*
X88083329Y-151891700D01*
X88531071Y-151891700D01*
X88970210Y-151804350D01*
X89383869Y-151633006D01*
X89756153Y-151384254D01*
X90072754Y-151067653D01*
X90321506Y-150695369D01*
X90492850Y-150281710D01*
X90580200Y-149842571D01*
X90580200Y-149394829D01*
X90492850Y-148955690D01*
X90321506Y-148542031D01*
X90072754Y-148169747D01*
X89756153Y-147853146D01*
X89383869Y-147604394D01*
X88970210Y-147433050D01*
X88531071Y-147345700D01*
X88083329Y-147345700D01*
X87644190Y-147433050D01*
X87230531Y-147604394D01*
X86858247Y-147853146D01*
X86541646Y-148169747D01*
X86292894Y-148542031D01*
X86121550Y-148955690D01*
X86034200Y-149394829D01*
X77440200Y-149394829D01*
X77352850Y-148955690D01*
X77181506Y-148542031D01*
X76932754Y-148169747D01*
X76616153Y-147853146D01*
X76243869Y-147604394D01*
X75830210Y-147433050D01*
X75391071Y-147345700D01*
X74943329Y-147345700D01*
X74504190Y-147433050D01*
X74090531Y-147604394D01*
X73718247Y-147853146D01*
X73401646Y-148169747D01*
X73152894Y-148542031D01*
X72981550Y-148955690D01*
X72894200Y-149394829D01*
X68120800Y-149394829D01*
X68120800Y-146194700D01*
X76885128Y-146194700D01*
X76885128Y-147622700D01*
X76897388Y-147747182D01*
X76933698Y-147866880D01*
X76992663Y-147977194D01*
X77072015Y-148073885D01*
X77168706Y-148153237D01*
X77279020Y-148212202D01*
X77398718Y-148248512D01*
X77523200Y-148260772D01*
X78951200Y-148260772D01*
X79075682Y-148248512D01*
X79195380Y-148212202D01*
X79305694Y-148153237D01*
X79402385Y-148073885D01*
X79481737Y-147977194D01*
X79540702Y-147866880D01*
X79577012Y-147747182D01*
X79589272Y-147622700D01*
X79589272Y-147618840D01*
X79689363Y-147768637D01*
X79877263Y-147956537D01*
X80098209Y-148104168D01*
X80343711Y-148205858D01*
X80604335Y-148257700D01*
X80870065Y-148257700D01*
X81130689Y-148205858D01*
X81376191Y-148104168D01*
X81597137Y-147956537D01*
X81737200Y-147816474D01*
X81877263Y-147956537D01*
X82098209Y-148104168D01*
X82343711Y-148205858D01*
X82604335Y-148257700D01*
X82870065Y-148257700D01*
X83130689Y-148205858D01*
X83376191Y-148104168D01*
X83597137Y-147956537D01*
X83713701Y-147839973D01*
X84485532Y-147839973D01*
X84546691Y-148075170D01*
X84787526Y-148187468D01*
X85045641Y-148250624D01*
X85311119Y-148262211D01*
X85573755Y-148221782D01*
X85823458Y-148130893D01*
X85927709Y-148075170D01*
X85988868Y-147839973D01*
X85237200Y-147088305D01*
X84485532Y-147839973D01*
X83713701Y-147839973D01*
X83785037Y-147768637D01*
X83932668Y-147547691D01*
X83986711Y-147417219D01*
X84015007Y-147494958D01*
X84070730Y-147599209D01*
X84305927Y-147660368D01*
X85057595Y-146908700D01*
X85416805Y-146908700D01*
X86168473Y-147660368D01*
X86403670Y-147599209D01*
X86515968Y-147358374D01*
X86579124Y-147100259D01*
X86590711Y-146834781D01*
X86562352Y-146650551D01*
X151269054Y-146650551D01*
X151343663Y-146897073D01*
X151603439Y-147020473D01*
X151882297Y-147090823D01*
X152169521Y-147105417D01*
X152454074Y-147063697D01*
X152725020Y-146967265D01*
X152856337Y-146897073D01*
X152930946Y-146650551D01*
X152100000Y-145819605D01*
X151269054Y-146650551D01*
X86562352Y-146650551D01*
X86550282Y-146572145D01*
X86459393Y-146322442D01*
X86403670Y-146218191D01*
X86168473Y-146157032D01*
X85416805Y-146908700D01*
X85057595Y-146908700D01*
X84305927Y-146157032D01*
X84070730Y-146218191D01*
X83986316Y-146399226D01*
X83932668Y-146269709D01*
X83785037Y-146048763D01*
X83713701Y-145977427D01*
X84485532Y-145977427D01*
X85237200Y-146729095D01*
X85988868Y-145977427D01*
X85927709Y-145742230D01*
X85857562Y-145709521D01*
X150634583Y-145709521D01*
X150676303Y-145994074D01*
X150772735Y-146265020D01*
X150842927Y-146396337D01*
X151089449Y-146470946D01*
X151920395Y-145640000D01*
X152279605Y-145640000D01*
X153110551Y-146470946D01*
X153357073Y-146396337D01*
X153480473Y-146136561D01*
X153550823Y-145857703D01*
X153565417Y-145570479D01*
X153523697Y-145285926D01*
X153427265Y-145014980D01*
X153357073Y-144883663D01*
X153110551Y-144809054D01*
X152279605Y-145640000D01*
X151920395Y-145640000D01*
X151089449Y-144809054D01*
X150842927Y-144883663D01*
X150719527Y-145143439D01*
X150649177Y-145422297D01*
X150634583Y-145709521D01*
X85857562Y-145709521D01*
X85686874Y-145629932D01*
X85428759Y-145566776D01*
X85163281Y-145555189D01*
X84900645Y-145595618D01*
X84650942Y-145686507D01*
X84546691Y-145742230D01*
X84485532Y-145977427D01*
X83713701Y-145977427D01*
X83597137Y-145860863D01*
X83376191Y-145713232D01*
X83130689Y-145611542D01*
X82870065Y-145559700D01*
X82604335Y-145559700D01*
X82343711Y-145611542D01*
X82098209Y-145713232D01*
X81877263Y-145860863D01*
X81737200Y-146000926D01*
X81597137Y-145860863D01*
X81376191Y-145713232D01*
X81130689Y-145611542D01*
X80870065Y-145559700D01*
X80604335Y-145559700D01*
X80343711Y-145611542D01*
X80098209Y-145713232D01*
X79877263Y-145860863D01*
X79689363Y-146048763D01*
X79589272Y-146198560D01*
X79589272Y-146194700D01*
X79577012Y-146070218D01*
X79540702Y-145950520D01*
X79481737Y-145840206D01*
X79402385Y-145743515D01*
X79305694Y-145664163D01*
X79195380Y-145605198D01*
X79075682Y-145568888D01*
X78951200Y-145556628D01*
X77523200Y-145556628D01*
X77398718Y-145568888D01*
X77279020Y-145605198D01*
X77168706Y-145664163D01*
X77072015Y-145743515D01*
X76992663Y-145840206D01*
X76933698Y-145950520D01*
X76897388Y-146070218D01*
X76885128Y-146194700D01*
X68120800Y-146194700D01*
X68120800Y-144954001D01*
X68445352Y-144629449D01*
X151269054Y-144629449D01*
X152100000Y-145460395D01*
X152930946Y-144629449D01*
X152856337Y-144382927D01*
X152596561Y-144259527D01*
X152317703Y-144189177D01*
X152030479Y-144174583D01*
X151745926Y-144216303D01*
X151474980Y-144312735D01*
X151343663Y-144382927D01*
X151269054Y-144629449D01*
X68445352Y-144629449D01*
X73511004Y-139563798D01*
X73540001Y-139540001D01*
X73580363Y-139490820D01*
X73634974Y-139424277D01*
X73705546Y-139292247D01*
X73729134Y-139214485D01*
X73749003Y-139148986D01*
X73760000Y-139037333D01*
X73760000Y-139037324D01*
X73763676Y-139000001D01*
X73760000Y-138962678D01*
X73760000Y-136741738D01*
X123589805Y-136741738D01*
X123628905Y-136981849D01*
X123708751Y-137195417D01*
X123697763Y-137208806D01*
X123638798Y-137319120D01*
X123602488Y-137438818D01*
X123590228Y-137563300D01*
X123590228Y-138763300D01*
X123602488Y-138887782D01*
X123638798Y-139007480D01*
X123697763Y-139117794D01*
X123777115Y-139214485D01*
X123873806Y-139293837D01*
X123984120Y-139352802D01*
X124103818Y-139389112D01*
X124228300Y-139401372D01*
X125428300Y-139401372D01*
X125552782Y-139389112D01*
X125672480Y-139352802D01*
X125782794Y-139293837D01*
X125879485Y-139214485D01*
X125958837Y-139117794D01*
X126017802Y-139007480D01*
X126054112Y-138887782D01*
X126066372Y-138763300D01*
X126066372Y-137563300D01*
X126054112Y-137438818D01*
X126017802Y-137319120D01*
X125958837Y-137208806D01*
X125944732Y-137191619D01*
X126002537Y-137064784D01*
X126058300Y-136827987D01*
X126066795Y-136584862D01*
X126027695Y-136344751D01*
X125942502Y-136116882D01*
X125901648Y-136040448D01*
X125678064Y-135993141D01*
X125007905Y-136663300D01*
X125022048Y-136677443D01*
X124842443Y-136857048D01*
X124828300Y-136842905D01*
X124814158Y-136857048D01*
X124634553Y-136677443D01*
X124648695Y-136663300D01*
X123978536Y-135993141D01*
X123754952Y-136040448D01*
X123654063Y-136261816D01*
X123598300Y-136498613D01*
X123589805Y-136741738D01*
X73760000Y-136741738D01*
X73760000Y-135813536D01*
X124158141Y-135813536D01*
X124828300Y-136483695D01*
X125498459Y-135813536D01*
X125451152Y-135589952D01*
X125229784Y-135489063D01*
X124992987Y-135433300D01*
X124749862Y-135424805D01*
X124509751Y-135463905D01*
X124281882Y-135549098D01*
X124205448Y-135589952D01*
X124158141Y-135813536D01*
X73760000Y-135813536D01*
X73760000Y-135251900D01*
X134283628Y-135251900D01*
X134283628Y-136451900D01*
X134295888Y-136576382D01*
X134332198Y-136696080D01*
X134391163Y-136806394D01*
X134470515Y-136903085D01*
X134567206Y-136982437D01*
X134677520Y-137041402D01*
X134797218Y-137077712D01*
X134921700Y-137089972D01*
X136121700Y-137089972D01*
X136246182Y-137077712D01*
X136365880Y-137041402D01*
X136476194Y-136982437D01*
X136493381Y-136968332D01*
X136620216Y-137026137D01*
X136857013Y-137081900D01*
X137100138Y-137090395D01*
X137340249Y-137051295D01*
X137568118Y-136966102D01*
X137644552Y-136925248D01*
X137691859Y-136701664D01*
X137021700Y-136031505D01*
X137007558Y-136045648D01*
X136827953Y-135866043D01*
X136842095Y-135851900D01*
X136827953Y-135837758D01*
X137007558Y-135658153D01*
X137021700Y-135672295D01*
X137035843Y-135658153D01*
X137215448Y-135837758D01*
X137201305Y-135851900D01*
X137871464Y-136522059D01*
X138095048Y-136474752D01*
X138195937Y-136253384D01*
X138251700Y-136016587D01*
X138260195Y-135773462D01*
X138221095Y-135533351D01*
X138135902Y-135305482D01*
X138095048Y-135229048D01*
X137871466Y-135181742D01*
X137988572Y-135064636D01*
X137983936Y-135060000D01*
X138685199Y-135060000D01*
X139063099Y-135437901D01*
X139086898Y-135466900D01*
X139115896Y-135490698D01*
X139202622Y-135561873D01*
X139255154Y-135589952D01*
X139334652Y-135632445D01*
X139367655Y-135642456D01*
X144796201Y-141071003D01*
X144819999Y-141100001D01*
X144935724Y-141194974D01*
X145067753Y-141265546D01*
X145211014Y-141309003D01*
X145322667Y-141320000D01*
X145322677Y-141320000D01*
X145360000Y-141323676D01*
X145397323Y-141320000D01*
X150636928Y-141320000D01*
X150636928Y-141385000D01*
X150649188Y-141509482D01*
X150685498Y-141629180D01*
X150744463Y-141739494D01*
X150823815Y-141836185D01*
X150920506Y-141915537D01*
X151030820Y-141974502D01*
X151150518Y-142010812D01*
X151275000Y-142023072D01*
X152925000Y-142023072D01*
X153049482Y-142010812D01*
X153169180Y-141974502D01*
X153279494Y-141915537D01*
X153376185Y-141836185D01*
X153455537Y-141739494D01*
X153514502Y-141629180D01*
X153550812Y-141509482D01*
X153563072Y-141385000D01*
X153563072Y-139735000D01*
X153550812Y-139610518D01*
X153514502Y-139490820D01*
X153455537Y-139380506D01*
X153376185Y-139283815D01*
X153279494Y-139204463D01*
X153169180Y-139145498D01*
X153049482Y-139109188D01*
X152925000Y-139096928D01*
X151275000Y-139096928D01*
X151150518Y-139109188D01*
X151030820Y-139145498D01*
X150920506Y-139204463D01*
X150823815Y-139283815D01*
X150744463Y-139380506D01*
X150685498Y-139490820D01*
X150649188Y-139610518D01*
X150636928Y-139735000D01*
X150636928Y-139800000D01*
X145674802Y-139800000D01*
X140290703Y-134415902D01*
X140266900Y-134386898D01*
X140151175Y-134291925D01*
X140019146Y-134221353D01*
X139986144Y-134211342D01*
X139563803Y-133789002D01*
X139540001Y-133759999D01*
X139424276Y-133665026D01*
X139292247Y-133594454D01*
X139148986Y-133550997D01*
X139037333Y-133540000D01*
X139037322Y-133540000D01*
X139000000Y-133536324D01*
X138962678Y-133540000D01*
X137110922Y-133540000D01*
X137073599Y-133536324D01*
X137036276Y-133540000D01*
X137036267Y-133540000D01*
X136924614Y-133550997D01*
X136799382Y-133588985D01*
X136781353Y-133594454D01*
X136649323Y-133665026D01*
X136567416Y-133732246D01*
X136533599Y-133759999D01*
X136509801Y-133788997D01*
X135684971Y-134613828D01*
X134921700Y-134613828D01*
X134797218Y-134626088D01*
X134677520Y-134662398D01*
X134567206Y-134721363D01*
X134470515Y-134800715D01*
X134391163Y-134897406D01*
X134332198Y-135007720D01*
X134295888Y-135127418D01*
X134283628Y-135251900D01*
X73760000Y-135251900D01*
X73760000Y-79340801D01*
X75122056Y-77978745D01*
X75077988Y-78044698D01*
X74917047Y-78433244D01*
X74835000Y-78845721D01*
X74835000Y-79266279D01*
X74917047Y-79678756D01*
X75077988Y-80067302D01*
X75311637Y-80416983D01*
X75609017Y-80714363D01*
X75958698Y-80948012D01*
X76347244Y-81108953D01*
X76759721Y-81191000D01*
X77180279Y-81191000D01*
X77592756Y-81108953D01*
X77981302Y-80948012D01*
X78330983Y-80714363D01*
X78628363Y-80416983D01*
X78862012Y-80067302D01*
X79022953Y-79678756D01*
X79105000Y-79266279D01*
X79105000Y-78845721D01*
X79022953Y-78433244D01*
X78862012Y-78044698D01*
X78628363Y-77695017D01*
X78330983Y-77397637D01*
X77981302Y-77163988D01*
X77592756Y-77003047D01*
X77180279Y-76921000D01*
X76759721Y-76921000D01*
X76347244Y-77003047D01*
X75958698Y-77163988D01*
X75892745Y-77208056D01*
X77408801Y-75692000D01*
X93986388Y-75692000D01*
X94008785Y-75919400D01*
X94072093Y-76128098D01*
X94037498Y-76192820D01*
X94001188Y-76312518D01*
X93988928Y-76437000D01*
X93988928Y-77487000D01*
X94001188Y-77611482D01*
X94037498Y-77731180D01*
X94096463Y-77841494D01*
X94175815Y-77938185D01*
X94272506Y-78017537D01*
X94382820Y-78076502D01*
X94502518Y-78112812D01*
X94627000Y-78125072D01*
X96127000Y-78125072D01*
X96251482Y-78112812D01*
X96371180Y-78076502D01*
X96481494Y-78017537D01*
X96578185Y-77938185D01*
X96657537Y-77841494D01*
X96716502Y-77731180D01*
X96752812Y-77611482D01*
X96765072Y-77487000D01*
X96765072Y-76437000D01*
X96752812Y-76312518D01*
X96716502Y-76192820D01*
X96681907Y-76128098D01*
X96745215Y-75919400D01*
X96767612Y-75692000D01*
X96745215Y-75464600D01*
X96678885Y-75245940D01*
X96578071Y-75057331D01*
X96619275Y-74998882D01*
X96712272Y-74789337D01*
X96720964Y-74727810D01*
X96595163Y-74549000D01*
X95830109Y-74549000D01*
X95829400Y-74548785D01*
X95658979Y-74532000D01*
X95095021Y-74532000D01*
X94924600Y-74548785D01*
X94923891Y-74549000D01*
X94158837Y-74549000D01*
X94033036Y-74727810D01*
X94041728Y-74789337D01*
X94134725Y-74998882D01*
X94175929Y-75057331D01*
X94075115Y-75245940D01*
X94008785Y-75464600D01*
X93986388Y-75692000D01*
X77408801Y-75692000D01*
X78095942Y-75004860D01*
X78347244Y-75108953D01*
X78759721Y-75191000D01*
X79180279Y-75191000D01*
X79592756Y-75108953D01*
X79981302Y-74948012D01*
X80330983Y-74714363D01*
X80628363Y-74416983D01*
X80829346Y-74116190D01*
X94033036Y-74116190D01*
X94158837Y-74295000D01*
X95250000Y-74295000D01*
X95250000Y-73415402D01*
X95504000Y-73415402D01*
X95504000Y-74295000D01*
X96595163Y-74295000D01*
X96720964Y-74116190D01*
X96712272Y-74054663D01*
X96619275Y-73845118D01*
X96487184Y-73657742D01*
X96321076Y-73499736D01*
X96127334Y-73377172D01*
X95913404Y-73294761D01*
X95687507Y-73255669D01*
X95504000Y-73415402D01*
X95250000Y-73415402D01*
X95066493Y-73255669D01*
X94840596Y-73294761D01*
X94626666Y-73377172D01*
X94432924Y-73499736D01*
X94266816Y-73657742D01*
X94134725Y-73845118D01*
X94041728Y-74054663D01*
X94033036Y-74116190D01*
X80829346Y-74116190D01*
X80862012Y-74067302D01*
X81022953Y-73678756D01*
X81105000Y-73266279D01*
X81105000Y-72845721D01*
X81022953Y-72433244D01*
X80862012Y-72044698D01*
X80628363Y-71695017D01*
X80330983Y-71397637D01*
X79981302Y-71163988D01*
X79592756Y-71003047D01*
X79180279Y-70921000D01*
X78759721Y-70921000D01*
X78347244Y-71003047D01*
X77958698Y-71163988D01*
X77609017Y-71397637D01*
X77311637Y-71695017D01*
X77077988Y-72044698D01*
X76917047Y-72433244D01*
X76835000Y-72845721D01*
X76835000Y-73266279D01*
X76917047Y-73678756D01*
X77021140Y-73930058D01*
X72760000Y-78191199D01*
X72760000Y-69471408D01*
X82682000Y-69471408D01*
X82682000Y-69720592D01*
X82730613Y-69964987D01*
X82825971Y-70195202D01*
X82964410Y-70402391D01*
X83140609Y-70578590D01*
X83347798Y-70717029D01*
X83578013Y-70812387D01*
X83822408Y-70861000D01*
X84071592Y-70861000D01*
X84315987Y-70812387D01*
X84546202Y-70717029D01*
X84753391Y-70578590D01*
X84929590Y-70402391D01*
X84960587Y-70356000D01*
X86866678Y-70356000D01*
X86904000Y-70359676D01*
X86941322Y-70356000D01*
X86941333Y-70356000D01*
X87052986Y-70345003D01*
X87196247Y-70301546D01*
X87328276Y-70230974D01*
X87444001Y-70136001D01*
X87467804Y-70106997D01*
X88608801Y-68966000D01*
X90298928Y-68966000D01*
X90298928Y-70226000D01*
X90311188Y-70350482D01*
X90347498Y-70470180D01*
X90406463Y-70580494D01*
X90485815Y-70677185D01*
X90582506Y-70756537D01*
X90692820Y-70815502D01*
X90812518Y-70851812D01*
X90937000Y-70864072D01*
X92197000Y-70864072D01*
X92321482Y-70851812D01*
X92441180Y-70815502D01*
X92551494Y-70756537D01*
X92648185Y-70677185D01*
X92727537Y-70580494D01*
X92786502Y-70470180D01*
X92822812Y-70350482D01*
X92835072Y-70226000D01*
X92835072Y-68966000D01*
X92822812Y-68841518D01*
X92786502Y-68721820D01*
X92727537Y-68611506D01*
X92648185Y-68514815D01*
X92551494Y-68435463D01*
X92441180Y-68376498D01*
X92321482Y-68340188D01*
X92197000Y-68327928D01*
X90937000Y-68327928D01*
X90812518Y-68340188D01*
X90692820Y-68376498D01*
X90582506Y-68435463D01*
X90485815Y-68514815D01*
X90406463Y-68611506D01*
X90347498Y-68721820D01*
X90311188Y-68841518D01*
X90298928Y-68966000D01*
X88608801Y-68966000D01*
X90317298Y-67257503D01*
X90350613Y-67424987D01*
X90445971Y-67655202D01*
X90584410Y-67862391D01*
X90760609Y-68038590D01*
X90967798Y-68177029D01*
X91198013Y-68272387D01*
X91442408Y-68321000D01*
X91691592Y-68321000D01*
X91935987Y-68272387D01*
X92166202Y-68177029D01*
X92373391Y-68038590D01*
X92549590Y-67862391D01*
X92688029Y-67655202D01*
X92783387Y-67424987D01*
X92832000Y-67180592D01*
X92832000Y-66931408D01*
X92783387Y-66687013D01*
X92688029Y-66456798D01*
X92549590Y-66249609D01*
X92373391Y-66073410D01*
X92166202Y-65934971D01*
X91935987Y-65839613D01*
X91768503Y-65806299D01*
X93733902Y-63840900D01*
X96657528Y-63840900D01*
X96657528Y-63930900D01*
X96669788Y-64055382D01*
X96706098Y-64175080D01*
X96765063Y-64285394D01*
X96844415Y-64382085D01*
X96941106Y-64461437D01*
X97051420Y-64520402D01*
X97171118Y-64556712D01*
X97295600Y-64568972D01*
X98995600Y-64568972D01*
X99120082Y-64556712D01*
X99239780Y-64520402D01*
X99350094Y-64461437D01*
X99446785Y-64382085D01*
X99526137Y-64285394D01*
X99585102Y-64175080D01*
X99607113Y-64102520D01*
X99738968Y-64234375D01*
X99982189Y-64396890D01*
X100252442Y-64508832D01*
X100539340Y-64565900D01*
X100831860Y-64565900D01*
X101118758Y-64508832D01*
X101389011Y-64396890D01*
X101632232Y-64234375D01*
X101839075Y-64027532D01*
X102001590Y-63784311D01*
X102113532Y-63514058D01*
X102170600Y-63227160D01*
X102170600Y-62934640D01*
X102113532Y-62647742D01*
X102001590Y-62377489D01*
X101839075Y-62134268D01*
X101632232Y-61927425D01*
X101389011Y-61764910D01*
X101118758Y-61652968D01*
X100831860Y-61595900D01*
X100539340Y-61595900D01*
X100252442Y-61652968D01*
X99982189Y-61764910D01*
X99738968Y-61927425D01*
X99607113Y-62059280D01*
X99585102Y-61986720D01*
X99526137Y-61876406D01*
X99446785Y-61779715D01*
X99350094Y-61700363D01*
X99239780Y-61641398D01*
X99120082Y-61605088D01*
X98995600Y-61592828D01*
X97295600Y-61592828D01*
X97171118Y-61605088D01*
X97051420Y-61641398D01*
X96941106Y-61700363D01*
X96844415Y-61779715D01*
X96765063Y-61876406D01*
X96706098Y-61986720D01*
X96669788Y-62106418D01*
X96657528Y-62230900D01*
X96657528Y-62320900D01*
X93456425Y-62320900D01*
X93419100Y-62317224D01*
X93381775Y-62320900D01*
X93381767Y-62320900D01*
X93270114Y-62331897D01*
X93126853Y-62375354D01*
X92994824Y-62445926D01*
X92879099Y-62540899D01*
X92855301Y-62569897D01*
X86589199Y-68836000D01*
X84960587Y-68836000D01*
X84929590Y-68789609D01*
X84753391Y-68613410D01*
X84546202Y-68474971D01*
X84315987Y-68379613D01*
X84071592Y-68331000D01*
X83822408Y-68331000D01*
X83578013Y-68379613D01*
X83347798Y-68474971D01*
X83140609Y-68613410D01*
X82964410Y-68789609D01*
X82825971Y-68996798D01*
X82730613Y-69227013D01*
X82682000Y-69471408D01*
X72760000Y-69471408D01*
X72760000Y-66845721D01*
X74835000Y-66845721D01*
X74835000Y-67266279D01*
X74917047Y-67678756D01*
X75077988Y-68067302D01*
X75311637Y-68416983D01*
X75609017Y-68714363D01*
X75958698Y-68948012D01*
X76347244Y-69108953D01*
X76759721Y-69191000D01*
X77180279Y-69191000D01*
X77592756Y-69108953D01*
X77981302Y-68948012D01*
X78330983Y-68714363D01*
X78628363Y-68416983D01*
X78862012Y-68067302D01*
X79022953Y-67678756D01*
X79105000Y-67266279D01*
X79105000Y-66931408D01*
X82682000Y-66931408D01*
X82682000Y-67180592D01*
X82730613Y-67424987D01*
X82825971Y-67655202D01*
X82964410Y-67862391D01*
X83140609Y-68038590D01*
X83347798Y-68177029D01*
X83578013Y-68272387D01*
X83822408Y-68321000D01*
X84071592Y-68321000D01*
X84315987Y-68272387D01*
X84546202Y-68177029D01*
X84753391Y-68038590D01*
X84929590Y-67862391D01*
X85068029Y-67655202D01*
X85163387Y-67424987D01*
X85212000Y-67180592D01*
X85212000Y-66931408D01*
X85163387Y-66687013D01*
X85068029Y-66456798D01*
X84929590Y-66249609D01*
X84753391Y-66073410D01*
X84546202Y-65934971D01*
X84315987Y-65839613D01*
X84071592Y-65791000D01*
X83822408Y-65791000D01*
X83578013Y-65839613D01*
X83347798Y-65934971D01*
X83140609Y-66073410D01*
X82964410Y-66249609D01*
X82825971Y-66456798D01*
X82730613Y-66687013D01*
X82682000Y-66931408D01*
X79105000Y-66931408D01*
X79105000Y-66845721D01*
X79022953Y-66433244D01*
X78862012Y-66044698D01*
X78628363Y-65695017D01*
X78330983Y-65397637D01*
X77981302Y-65163988D01*
X77592756Y-65003047D01*
X77180279Y-64921000D01*
X76759721Y-64921000D01*
X76347244Y-65003047D01*
X75958698Y-65163988D01*
X75609017Y-65397637D01*
X75311637Y-65695017D01*
X75077988Y-66044698D01*
X74917047Y-66433244D01*
X74835000Y-66845721D01*
X72760000Y-66845721D01*
X72760000Y-54850000D01*
X101511928Y-54850000D01*
X101524188Y-54974482D01*
X101560498Y-55094180D01*
X101619463Y-55204494D01*
X101698815Y-55301185D01*
X101795506Y-55380537D01*
X101905820Y-55439502D01*
X102025518Y-55475812D01*
X102150000Y-55488072D01*
X102714250Y-55485000D01*
X102873000Y-55326250D01*
X102873000Y-54127000D01*
X103127000Y-54127000D01*
X103127000Y-55326250D01*
X103285750Y-55485000D01*
X103850000Y-55488072D01*
X103974482Y-55475812D01*
X104094180Y-55439502D01*
X104204494Y-55380537D01*
X104301185Y-55301185D01*
X104380537Y-55204494D01*
X104439502Y-55094180D01*
X104475812Y-54974482D01*
X104488072Y-54850000D01*
X104485000Y-54285750D01*
X104326250Y-54127000D01*
X103127000Y-54127000D01*
X102873000Y-54127000D01*
X101673750Y-54127000D01*
X101515000Y-54285750D01*
X101511928Y-54850000D01*
X72760000Y-54850000D01*
X72760000Y-43891801D01*
X74868056Y-41783745D01*
X74823988Y-41849698D01*
X74663047Y-42238244D01*
X74581000Y-42650721D01*
X74581000Y-43071279D01*
X74663047Y-43483756D01*
X74823988Y-43872302D01*
X75057637Y-44221983D01*
X75355017Y-44519363D01*
X75704698Y-44753012D01*
X76093244Y-44913953D01*
X76505721Y-44996000D01*
X76926279Y-44996000D01*
X77338756Y-44913953D01*
X77727302Y-44753012D01*
X78076983Y-44519363D01*
X78374363Y-44221983D01*
X78608012Y-43872302D01*
X78768953Y-43483756D01*
X78851000Y-43071279D01*
X78851000Y-42650721D01*
X78768953Y-42238244D01*
X78608012Y-41849698D01*
X78374363Y-41500017D01*
X78076983Y-41202637D01*
X77727302Y-40968988D01*
X77338756Y-40808047D01*
X76926279Y-40726000D01*
X76505721Y-40726000D01*
X76093244Y-40808047D01*
X75704698Y-40968988D01*
X75638745Y-41013056D01*
X77841942Y-38809860D01*
X78093244Y-38913953D01*
X78505721Y-38996000D01*
X78926279Y-38996000D01*
X79338756Y-38913953D01*
X79727302Y-38753012D01*
X80076983Y-38519363D01*
X80374363Y-38221983D01*
X80608012Y-37872302D01*
X80768953Y-37483756D01*
X80851000Y-37071279D01*
X80851000Y-36650721D01*
X80768953Y-36238244D01*
X80608012Y-35849698D01*
X80374363Y-35500017D01*
X80076983Y-35202637D01*
X79727302Y-34968988D01*
X79338756Y-34808047D01*
X78926279Y-34726000D01*
X78505721Y-34726000D01*
X78093244Y-34808047D01*
X77704698Y-34968988D01*
X77355017Y-35202637D01*
X77057637Y-35500017D01*
X76823988Y-35849698D01*
X76663047Y-36238244D01*
X76581000Y-36650721D01*
X76581000Y-37071279D01*
X76663047Y-37483756D01*
X76767140Y-37735058D01*
X71488998Y-43013201D01*
X71460000Y-43036999D01*
X71436202Y-43065997D01*
X71436201Y-43065998D01*
X71365026Y-43152724D01*
X71294454Y-43284754D01*
X71267988Y-43372003D01*
X71257421Y-43406842D01*
X71250998Y-43428015D01*
X71236324Y-43577000D01*
X71240001Y-43614333D01*
X71240000Y-137685197D01*
X61769798Y-147155401D01*
X61740800Y-147179199D01*
X61717002Y-147208197D01*
X61717001Y-147208198D01*
X61645826Y-147294924D01*
X61575254Y-147426954D01*
X61554626Y-147494958D01*
X61531798Y-147570214D01*
X61520801Y-147681867D01*
X61517124Y-147719200D01*
X61520801Y-147756532D01*
X61520800Y-153426128D01*
X61455800Y-153426128D01*
X61331318Y-153438388D01*
X61211620Y-153474698D01*
X61101306Y-153533663D01*
X61004615Y-153613015D01*
X60925263Y-153709706D01*
X60866298Y-153820020D01*
X60829988Y-153939718D01*
X60817728Y-154064200D01*
X55485000Y-154064200D01*
X55485000Y-143789721D01*
X57865000Y-143789721D01*
X57865000Y-144210279D01*
X57947047Y-144622756D01*
X58107988Y-145011302D01*
X58341637Y-145360983D01*
X58639017Y-145658363D01*
X58988698Y-145892012D01*
X59377244Y-146052953D01*
X59789721Y-146135000D01*
X60210279Y-146135000D01*
X60622756Y-146052953D01*
X61011302Y-145892012D01*
X61360983Y-145658363D01*
X61658363Y-145360983D01*
X61892012Y-145011302D01*
X62052953Y-144622756D01*
X62135000Y-144210279D01*
X62135000Y-143789721D01*
X62052953Y-143377244D01*
X61892012Y-142988698D01*
X61658363Y-142639017D01*
X61360983Y-142341637D01*
X61011302Y-142107988D01*
X60622756Y-141947047D01*
X60210279Y-141865000D01*
X59789721Y-141865000D01*
X59377244Y-141947047D01*
X58988698Y-142107988D01*
X58639017Y-142341637D01*
X58341637Y-142639017D01*
X58107988Y-142988698D01*
X57947047Y-143377244D01*
X57865000Y-143789721D01*
X55485000Y-143789721D01*
X55485000Y-134030351D01*
X59265454Y-134030351D01*
X59340063Y-134276873D01*
X59599839Y-134400273D01*
X59878697Y-134470623D01*
X60165921Y-134485217D01*
X60450474Y-134443497D01*
X60721420Y-134347065D01*
X60852737Y-134276873D01*
X60927346Y-134030351D01*
X60096400Y-133199405D01*
X59265454Y-134030351D01*
X55485000Y-134030351D01*
X55485000Y-133089321D01*
X58630983Y-133089321D01*
X58672703Y-133373874D01*
X58769135Y-133644820D01*
X58839327Y-133776137D01*
X59085849Y-133850746D01*
X59916795Y-133019800D01*
X60276005Y-133019800D01*
X61106951Y-133850746D01*
X61353473Y-133776137D01*
X61476873Y-133516361D01*
X61547223Y-133237503D01*
X61561817Y-132950279D01*
X61520097Y-132665726D01*
X61423665Y-132394780D01*
X61353473Y-132263463D01*
X61106951Y-132188854D01*
X60276005Y-133019800D01*
X59916795Y-133019800D01*
X59085849Y-132188854D01*
X58839327Y-132263463D01*
X58715927Y-132523239D01*
X58645577Y-132802097D01*
X58630983Y-133089321D01*
X55485000Y-133089321D01*
X55485000Y-132009249D01*
X59265454Y-132009249D01*
X60096400Y-132840195D01*
X60927346Y-132009249D01*
X60852737Y-131762727D01*
X60592961Y-131639327D01*
X60314103Y-131568977D01*
X60026879Y-131554383D01*
X59742326Y-131596103D01*
X59471380Y-131692535D01*
X59340063Y-131762727D01*
X59265454Y-132009249D01*
X55485000Y-132009249D01*
X55485000Y-127114800D01*
X58633328Y-127114800D01*
X58633328Y-128764800D01*
X58645588Y-128889282D01*
X58681898Y-129008980D01*
X58740863Y-129119294D01*
X58820215Y-129215985D01*
X58916906Y-129295337D01*
X59027220Y-129354302D01*
X59146918Y-129390612D01*
X59271400Y-129402872D01*
X60921400Y-129402872D01*
X61045882Y-129390612D01*
X61165580Y-129354302D01*
X61275894Y-129295337D01*
X61372585Y-129215985D01*
X61451937Y-129119294D01*
X61510902Y-129008980D01*
X61547212Y-128889282D01*
X61559472Y-128764800D01*
X61559472Y-127114800D01*
X61547212Y-126990318D01*
X61510902Y-126870620D01*
X61451937Y-126760306D01*
X61372585Y-126663615D01*
X61275894Y-126584263D01*
X61165580Y-126525298D01*
X61045882Y-126488988D01*
X60921400Y-126476728D01*
X59271400Y-126476728D01*
X59146918Y-126488988D01*
X59027220Y-126525298D01*
X58916906Y-126584263D01*
X58820215Y-126663615D01*
X58740863Y-126760306D01*
X58681898Y-126870620D01*
X58645588Y-126990318D01*
X58633328Y-127114800D01*
X55485000Y-127114800D01*
X55485000Y-46277000D01*
X60336324Y-46277000D01*
X60340001Y-46314333D01*
X60340000Y-75348678D01*
X60336324Y-75386000D01*
X60340000Y-75423322D01*
X60340000Y-75423332D01*
X60350997Y-75534985D01*
X60394454Y-75678246D01*
X60465026Y-75810276D01*
X60495574Y-75847498D01*
X60559999Y-75926001D01*
X60589003Y-75949804D01*
X62821140Y-78181942D01*
X62717047Y-78433244D01*
X62635000Y-78845721D01*
X62635000Y-79266279D01*
X62717047Y-79678756D01*
X62877988Y-80067302D01*
X63111637Y-80416983D01*
X63409017Y-80714363D01*
X63758698Y-80948012D01*
X64147244Y-81108953D01*
X64559721Y-81191000D01*
X64980279Y-81191000D01*
X65392756Y-81108953D01*
X65781302Y-80948012D01*
X66130983Y-80714363D01*
X66428363Y-80416983D01*
X66662012Y-80067302D01*
X66822953Y-79678756D01*
X66905000Y-79266279D01*
X66905000Y-78845721D01*
X66822953Y-78433244D01*
X66662012Y-78044698D01*
X66428363Y-77695017D01*
X66130983Y-77397637D01*
X65781302Y-77163988D01*
X65392756Y-77003047D01*
X64980279Y-76921000D01*
X64559721Y-76921000D01*
X64147244Y-77003047D01*
X63895942Y-77107140D01*
X61860000Y-75071199D01*
X61860000Y-46591801D01*
X63641941Y-44809860D01*
X63893244Y-44913953D01*
X64305721Y-44996000D01*
X64629199Y-44996000D01*
X64258998Y-45366201D01*
X64230000Y-45389999D01*
X64206202Y-45418997D01*
X64206201Y-45418998D01*
X64135026Y-45505724D01*
X64064454Y-45637754D01*
X64020998Y-45781015D01*
X64006324Y-45930000D01*
X64010001Y-45967333D01*
X64010000Y-65059895D01*
X63758698Y-65163988D01*
X63409017Y-65397637D01*
X63111637Y-65695017D01*
X62877988Y-66044698D01*
X62717047Y-66433244D01*
X62635000Y-66845721D01*
X62635000Y-67266279D01*
X62717047Y-67678756D01*
X62877988Y-68067302D01*
X63111637Y-68416983D01*
X63409017Y-68714363D01*
X63758698Y-68948012D01*
X64147244Y-69108953D01*
X64559721Y-69191000D01*
X64980279Y-69191000D01*
X65392756Y-69108953D01*
X65781302Y-68948012D01*
X66130983Y-68714363D01*
X66428363Y-68416983D01*
X66662012Y-68067302D01*
X66822953Y-67678756D01*
X66905000Y-67266279D01*
X66905000Y-66845721D01*
X66822953Y-66433244D01*
X66662012Y-66044698D01*
X66428363Y-65695017D01*
X66130983Y-65397637D01*
X65781302Y-65163988D01*
X65530000Y-65059895D01*
X65530000Y-46244801D01*
X67211004Y-44563798D01*
X67240001Y-44540001D01*
X67334974Y-44424276D01*
X67405546Y-44292247D01*
X67449003Y-44148986D01*
X67460000Y-44037333D01*
X67460000Y-44037324D01*
X67463676Y-44000001D01*
X67460000Y-43962678D01*
X67460000Y-33657408D01*
X83063000Y-33657408D01*
X83063000Y-33906592D01*
X83111613Y-34150987D01*
X83206971Y-34381202D01*
X83345410Y-34588391D01*
X83521609Y-34764590D01*
X83728798Y-34903029D01*
X83959013Y-34998387D01*
X84203408Y-35047000D01*
X84452592Y-35047000D01*
X84696987Y-34998387D01*
X84927202Y-34903029D01*
X85134391Y-34764590D01*
X85310590Y-34588391D01*
X85449029Y-34381202D01*
X85544387Y-34150987D01*
X85593000Y-33906592D01*
X85593000Y-33657408D01*
X90683000Y-33657408D01*
X90683000Y-33906592D01*
X90731613Y-34150987D01*
X90826971Y-34381202D01*
X90965410Y-34588391D01*
X91141609Y-34764590D01*
X91348798Y-34903029D01*
X91579013Y-34998387D01*
X91823408Y-35047000D01*
X92072592Y-35047000D01*
X92316987Y-34998387D01*
X92547202Y-34903029D01*
X92754391Y-34764590D01*
X92930590Y-34588391D01*
X93069029Y-34381202D01*
X93164387Y-34150987D01*
X93213000Y-33906592D01*
X93213000Y-33657408D01*
X93164387Y-33413013D01*
X93069029Y-33182798D01*
X92930590Y-32975609D01*
X92754391Y-32799410D01*
X92547202Y-32660971D01*
X92316987Y-32565613D01*
X92072592Y-32517000D01*
X91823408Y-32517000D01*
X91579013Y-32565613D01*
X91348798Y-32660971D01*
X91141609Y-32799410D01*
X90965410Y-32975609D01*
X90826971Y-33182798D01*
X90731613Y-33413013D01*
X90683000Y-33657408D01*
X85593000Y-33657408D01*
X85544387Y-33413013D01*
X85449029Y-33182798D01*
X85310590Y-32975609D01*
X85134391Y-32799410D01*
X84927202Y-32660971D01*
X84696987Y-32565613D01*
X84452592Y-32517000D01*
X84203408Y-32517000D01*
X83959013Y-32565613D01*
X83728798Y-32660971D01*
X83521609Y-32799410D01*
X83345410Y-32975609D01*
X83206971Y-33182798D01*
X83111613Y-33413013D01*
X83063000Y-33657408D01*
X67460000Y-33657408D01*
X67460000Y-33359801D01*
X70169080Y-30650721D01*
X74581000Y-30650721D01*
X74581000Y-31071279D01*
X74663047Y-31483756D01*
X74823988Y-31872302D01*
X75057637Y-32221983D01*
X75355017Y-32519363D01*
X75704698Y-32753012D01*
X76093244Y-32913953D01*
X76505721Y-32996000D01*
X76926279Y-32996000D01*
X77338756Y-32913953D01*
X77727302Y-32753012D01*
X78076983Y-32519363D01*
X78374363Y-32221983D01*
X78608012Y-31872302D01*
X78768953Y-31483756D01*
X78851000Y-31071279D01*
X78851000Y-30650721D01*
X78843298Y-30612000D01*
X83059928Y-30612000D01*
X83059928Y-31872000D01*
X83072188Y-31996482D01*
X83108498Y-32116180D01*
X83167463Y-32226494D01*
X83246815Y-32323185D01*
X83343506Y-32402537D01*
X83453820Y-32461502D01*
X83573518Y-32497812D01*
X83698000Y-32510072D01*
X84958000Y-32510072D01*
X85082482Y-32497812D01*
X85202180Y-32461502D01*
X85312494Y-32402537D01*
X85409185Y-32323185D01*
X85488537Y-32226494D01*
X85547502Y-32116180D01*
X85583812Y-31996482D01*
X85596072Y-31872000D01*
X85596072Y-31117408D01*
X90683000Y-31117408D01*
X90683000Y-31366592D01*
X90731613Y-31610987D01*
X90826971Y-31841202D01*
X90965410Y-32048391D01*
X91141609Y-32224590D01*
X91348798Y-32363029D01*
X91579013Y-32458387D01*
X91823408Y-32507000D01*
X92072592Y-32507000D01*
X92316987Y-32458387D01*
X92547202Y-32363029D01*
X92754391Y-32224590D01*
X92930590Y-32048391D01*
X93069029Y-31841202D01*
X93164387Y-31610987D01*
X93213000Y-31366592D01*
X93213000Y-31117408D01*
X93164387Y-30873013D01*
X93069029Y-30642798D01*
X92930590Y-30435609D01*
X92754391Y-30259410D01*
X92547202Y-30120971D01*
X92316987Y-30025613D01*
X92072592Y-29977000D01*
X91823408Y-29977000D01*
X91579013Y-30025613D01*
X91348798Y-30120971D01*
X91141609Y-30259410D01*
X90965410Y-30435609D01*
X90826971Y-30642798D01*
X90731613Y-30873013D01*
X90683000Y-31117408D01*
X85596072Y-31117408D01*
X85596072Y-30612000D01*
X85583812Y-30487518D01*
X85547502Y-30367820D01*
X85488537Y-30257506D01*
X85409185Y-30160815D01*
X85312494Y-30081463D01*
X85202180Y-30022498D01*
X85082482Y-29986188D01*
X84958000Y-29973928D01*
X83698000Y-29973928D01*
X83573518Y-29986188D01*
X83453820Y-30022498D01*
X83343506Y-30081463D01*
X83246815Y-30160815D01*
X83167463Y-30257506D01*
X83108498Y-30367820D01*
X83072188Y-30487518D01*
X83059928Y-30612000D01*
X78843298Y-30612000D01*
X78768953Y-30238244D01*
X78608012Y-29849698D01*
X78374363Y-29500017D01*
X78076983Y-29202637D01*
X77727302Y-28968988D01*
X77338756Y-28808047D01*
X76926279Y-28726000D01*
X76505721Y-28726000D01*
X76093244Y-28808047D01*
X75704698Y-28968988D01*
X75355017Y-29202637D01*
X75057637Y-29500017D01*
X74823988Y-29849698D01*
X74663047Y-30238244D01*
X74581000Y-30650721D01*
X70169080Y-30650721D01*
X76687202Y-24132600D01*
X115011700Y-24132600D01*
X115011700Y-24388097D01*
X115067807Y-24670166D01*
X115177865Y-24935869D01*
X115337644Y-25174996D01*
X115541004Y-25378356D01*
X115780131Y-25538135D01*
X116045834Y-25648193D01*
X116327903Y-25704300D01*
X116615497Y-25704300D01*
X116897566Y-25648193D01*
X117163269Y-25538135D01*
X117402396Y-25378356D01*
X117605756Y-25174996D01*
X117765535Y-24935869D01*
X117875593Y-24670166D01*
X117931700Y-24388097D01*
X117931700Y-24100503D01*
X117875593Y-23818434D01*
X117765535Y-23552731D01*
X117676380Y-23419300D01*
X120088628Y-23419300D01*
X120088628Y-25069300D01*
X120100888Y-25193782D01*
X120137198Y-25313480D01*
X120196163Y-25423794D01*
X120275515Y-25520485D01*
X120372206Y-25599837D01*
X120482520Y-25658802D01*
X120602218Y-25695112D01*
X120726700Y-25707372D01*
X122376700Y-25707372D01*
X122501182Y-25695112D01*
X122620880Y-25658802D01*
X122731194Y-25599837D01*
X122827885Y-25520485D01*
X122907237Y-25423794D01*
X122966202Y-25313480D01*
X123002512Y-25193782D01*
X123014772Y-25069300D01*
X123014772Y-23419300D01*
X123002512Y-23294818D01*
X122966202Y-23175120D01*
X122907237Y-23064806D01*
X122827885Y-22968115D01*
X122731194Y-22888763D01*
X122620880Y-22829798D01*
X122501182Y-22793488D01*
X122376700Y-22781228D01*
X120726700Y-22781228D01*
X120602218Y-22793488D01*
X120482520Y-22829798D01*
X120372206Y-22888763D01*
X120275515Y-22968115D01*
X120196163Y-23064806D01*
X120137198Y-23175120D01*
X120100888Y-23294818D01*
X120088628Y-23419300D01*
X117676380Y-23419300D01*
X117605756Y-23313604D01*
X117402396Y-23110244D01*
X117163269Y-22950465D01*
X116897566Y-22840407D01*
X116615497Y-22784300D01*
X116327903Y-22784300D01*
X116129288Y-22823807D01*
X116024276Y-22737626D01*
X115892247Y-22667054D01*
X115748986Y-22623597D01*
X115637333Y-22612600D01*
X115637322Y-22612600D01*
X115600000Y-22608924D01*
X115562678Y-22612600D01*
X76409722Y-22612600D01*
X76372399Y-22608924D01*
X76335076Y-22612600D01*
X76335067Y-22612600D01*
X76223414Y-22623597D01*
X76080153Y-22667054D01*
X75948124Y-22737626D01*
X75832399Y-22832599D01*
X75808601Y-22861597D01*
X66700001Y-31970198D01*
X66464860Y-31735058D01*
X66568953Y-31483756D01*
X66651000Y-31071279D01*
X66651000Y-30650721D01*
X66568953Y-30238244D01*
X66408012Y-29849698D01*
X66174363Y-29500017D01*
X65876983Y-29202637D01*
X65527302Y-28968988D01*
X65138756Y-28808047D01*
X64726279Y-28726000D01*
X64305721Y-28726000D01*
X63893244Y-28808047D01*
X63504698Y-28968988D01*
X63155017Y-29202637D01*
X62857637Y-29500017D01*
X62623988Y-29849698D01*
X62463047Y-30238244D01*
X62381000Y-30650721D01*
X62381000Y-31071279D01*
X62463047Y-31483756D01*
X62623988Y-31872302D01*
X62857637Y-32221983D01*
X63155017Y-32519363D01*
X63504698Y-32753012D01*
X63893244Y-32913953D01*
X64305721Y-32996000D01*
X64726279Y-32996000D01*
X65138756Y-32913953D01*
X65390058Y-32809860D01*
X65940001Y-33359804D01*
X65940000Y-41265654D01*
X65876983Y-41202637D01*
X65527302Y-40968988D01*
X65138756Y-40808047D01*
X64726279Y-40726000D01*
X64305721Y-40726000D01*
X63893244Y-40808047D01*
X63504698Y-40968988D01*
X63155017Y-41202637D01*
X62857637Y-41500017D01*
X62623988Y-41849698D01*
X62463047Y-42238244D01*
X62381000Y-42650721D01*
X62381000Y-43071279D01*
X62463047Y-43483756D01*
X62567140Y-43735059D01*
X60588998Y-45713201D01*
X60560000Y-45736999D01*
X60536202Y-45765997D01*
X60536201Y-45765998D01*
X60465026Y-45852724D01*
X60394454Y-45984754D01*
X60350998Y-46128015D01*
X60336324Y-46277000D01*
X55485000Y-46277000D01*
X55485000Y-21789721D01*
X57865000Y-21789721D01*
X57865000Y-22210279D01*
X57947047Y-22622756D01*
X58107988Y-23011302D01*
X58341637Y-23360983D01*
X58639017Y-23658363D01*
X58988698Y-23892012D01*
X59377244Y-24052953D01*
X59789721Y-24135000D01*
X60210279Y-24135000D01*
X60622756Y-24052953D01*
X61011302Y-23892012D01*
X61360983Y-23658363D01*
X61658363Y-23360983D01*
X61892012Y-23011302D01*
X62052953Y-22622756D01*
X62135000Y-22210279D01*
X62135000Y-21789721D01*
X151865000Y-21789721D01*
X151865000Y-22210279D01*
X151947047Y-22622756D01*
X152107988Y-23011302D01*
X152341637Y-23360983D01*
X152639017Y-23658363D01*
X152988698Y-23892012D01*
X153377244Y-24052953D01*
X153789721Y-24135000D01*
X154210279Y-24135000D01*
X154622756Y-24052953D01*
X155011302Y-23892012D01*
X155360983Y-23658363D01*
X155658363Y-23360983D01*
X155892012Y-23011302D01*
X156052953Y-22622756D01*
X156135000Y-22210279D01*
X156135000Y-21789721D01*
X156052953Y-21377244D01*
X155892012Y-20988698D01*
X155658363Y-20639017D01*
X155360983Y-20341637D01*
X155011302Y-20107988D01*
X154622756Y-19947047D01*
X154210279Y-19865000D01*
X153789721Y-19865000D01*
X153377244Y-19947047D01*
X152988698Y-20107988D01*
X152639017Y-20341637D01*
X152341637Y-20639017D01*
X152107988Y-20988698D01*
X151947047Y-21377244D01*
X151865000Y-21789721D01*
X62135000Y-21789721D01*
X62052953Y-21377244D01*
X61892012Y-20988698D01*
X61658363Y-20639017D01*
X61360983Y-20341637D01*
X61011302Y-20107988D01*
X60622756Y-19947047D01*
X60210279Y-19865000D01*
X59789721Y-19865000D01*
X59377244Y-19947047D01*
X58988698Y-20107988D01*
X58639017Y-20341637D01*
X58341637Y-20639017D01*
X58107988Y-20988698D01*
X57947047Y-21377244D01*
X57865000Y-21789721D01*
X55485000Y-21789721D01*
X55485000Y-21750902D01*
X55577217Y-20951937D01*
X55799203Y-20206538D01*
X56147252Y-19511016D01*
X56610791Y-18886494D01*
X57175731Y-18351958D01*
X57824912Y-17923641D01*
X58538615Y-17614557D01*
X59296858Y-17433694D01*
X60081656Y-17383714D01*
X153549086Y-17384999D01*
G37*
G04 #@! TD.AperFunction*
M02*
