G04 #@! TF.GenerationSoftware,KiCad,Pcbnew,(5.1.10-1-10_14)*
G04 #@! TF.CreationDate,2021-10-13T16:24:28-04:00*
G04 #@! TF.ProjectId,CC_PCB_V1,43435f50-4342-45f5-9631-2e6b69636164,10/13/2021*
G04 #@! TF.SameCoordinates,Original*
G04 #@! TF.FileFunction,Copper,L1,Top*
G04 #@! TF.FilePolarity,Positive*
%FSLAX46Y46*%
G04 Gerber Fmt 4.6, Leading zero omitted, Abs format (unit mm)*
G04 Created by KiCad (PCBNEW (5.1.10-1-10_14)) date 2021-10-13 16:24:28*
%MOMM*%
%LPD*%
G01*
G04 APERTURE LIST*
G04 #@! TA.AperFunction,ComponentPad*
%ADD10C,3.276000*%
G04 #@! TD*
G04 #@! TA.AperFunction,ComponentPad*
%ADD11C,1.428000*%
G04 #@! TD*
G04 #@! TA.AperFunction,ComponentPad*
%ADD12R,1.428000X1.428000*%
G04 #@! TD*
G04 #@! TA.AperFunction,ComponentPad*
%ADD13C,1.200000*%
G04 #@! TD*
G04 #@! TA.AperFunction,ComponentPad*
%ADD14R,1.200000X1.200000*%
G04 #@! TD*
G04 #@! TA.AperFunction,ComponentPad*
%ADD15C,3.000000*%
G04 #@! TD*
G04 #@! TA.AperFunction,ComponentPad*
%ADD16R,1.500000X1.050000*%
G04 #@! TD*
G04 #@! TA.AperFunction,ComponentPad*
%ADD17O,1.500000X1.050000*%
G04 #@! TD*
G04 #@! TA.AperFunction,ComponentPad*
%ADD18C,1.260000*%
G04 #@! TD*
G04 #@! TA.AperFunction,ComponentPad*
%ADD19R,1.260000X1.260000*%
G04 #@! TD*
G04 #@! TA.AperFunction,ComponentPad*
%ADD20O,1.700000X1.700000*%
G04 #@! TD*
G04 #@! TA.AperFunction,ComponentPad*
%ADD21R,1.700000X1.700000*%
G04 #@! TD*
G04 #@! TA.AperFunction,ComponentPad*
%ADD22C,1.650000*%
G04 #@! TD*
G04 #@! TA.AperFunction,ComponentPad*
%ADD23R,1.650000X1.650000*%
G04 #@! TD*
G04 #@! TA.AperFunction,SMDPad,CuDef*
%ADD24R,3.098800X1.600200*%
G04 #@! TD*
G04 #@! TA.AperFunction,SMDPad,CuDef*
%ADD25R,0.838200X1.600200*%
G04 #@! TD*
G04 #@! TA.AperFunction,SMDPad,CuDef*
%ADD26R,1.700000X3.500000*%
G04 #@! TD*
G04 #@! TA.AperFunction,SMDPad,CuDef*
%ADD27R,3.500000X1.700000*%
G04 #@! TD*
G04 #@! TA.AperFunction,ComponentPad*
%ADD28C,2.100000*%
G04 #@! TD*
G04 #@! TA.AperFunction,ComponentPad*
%ADD29R,2.100000X2.100000*%
G04 #@! TD*
G04 #@! TA.AperFunction,ViaPad*
%ADD30C,0.800000*%
G04 #@! TD*
G04 #@! TA.AperFunction,Conductor*
%ADD31C,0.250000*%
G04 #@! TD*
G04 APERTURE END LIST*
G04 #@! TA.AperFunction,SMDPad,CuDef*
G36*
G01*
X137925000Y-117925000D02*
X136675000Y-117925000D01*
G75*
G02*
X136425000Y-117675000I0J250000D01*
G01*
X136425000Y-116750000D01*
G75*
G02*
X136675000Y-116500000I250000J0D01*
G01*
X137925000Y-116500000D01*
G75*
G02*
X138175000Y-116750000I0J-250000D01*
G01*
X138175000Y-117675000D01*
G75*
G02*
X137925000Y-117925000I-250000J0D01*
G01*
G37*
G04 #@! TD.AperFunction*
G04 #@! TA.AperFunction,SMDPad,CuDef*
G36*
G01*
X137925000Y-120900000D02*
X136675000Y-120900000D01*
G75*
G02*
X136425000Y-120650000I0J250000D01*
G01*
X136425000Y-119725000D01*
G75*
G02*
X136675000Y-119475000I250000J0D01*
G01*
X137925000Y-119475000D01*
G75*
G02*
X138175000Y-119725000I0J-250000D01*
G01*
X138175000Y-120650000D01*
G75*
G02*
X137925000Y-120900000I-250000J0D01*
G01*
G37*
G04 #@! TD.AperFunction*
G04 #@! TA.AperFunction,SMDPad,CuDef*
G36*
G01*
X137925000Y-124725000D02*
X136675000Y-124725000D01*
G75*
G02*
X136425000Y-124475000I0J250000D01*
G01*
X136425000Y-123550000D01*
G75*
G02*
X136675000Y-123300000I250000J0D01*
G01*
X137925000Y-123300000D01*
G75*
G02*
X138175000Y-123550000I0J-250000D01*
G01*
X138175000Y-124475000D01*
G75*
G02*
X137925000Y-124725000I-250000J0D01*
G01*
G37*
G04 #@! TD.AperFunction*
G04 #@! TA.AperFunction,SMDPad,CuDef*
G36*
G01*
X137925000Y-127700000D02*
X136675000Y-127700000D01*
G75*
G02*
X136425000Y-127450000I0J250000D01*
G01*
X136425000Y-126525000D01*
G75*
G02*
X136675000Y-126275000I250000J0D01*
G01*
X137925000Y-126275000D01*
G75*
G02*
X138175000Y-126525000I0J-250000D01*
G01*
X138175000Y-127450000D01*
G75*
G02*
X137925000Y-127700000I-250000J0D01*
G01*
G37*
G04 #@! TD.AperFunction*
D10*
X88307200Y-149618700D03*
X75167200Y-149618700D03*
D11*
X85237200Y-146908700D03*
X82737200Y-146908700D03*
X80737200Y-146908700D03*
D12*
X78237200Y-146908700D03*
D13*
X124828300Y-136663300D03*
D14*
X124828300Y-138163300D03*
D13*
X137021700Y-135851900D03*
D14*
X135521700Y-135851900D03*
G04 #@! TA.AperFunction,SMDPad,CuDef*
G36*
G01*
X84975000Y-63062500D02*
X84975000Y-63537500D01*
G75*
G02*
X84737500Y-63775000I-237500J0D01*
G01*
X84237500Y-63775000D01*
G75*
G02*
X84000000Y-63537500I0J237500D01*
G01*
X84000000Y-63062500D01*
G75*
G02*
X84237500Y-62825000I237500J0D01*
G01*
X84737500Y-62825000D01*
G75*
G02*
X84975000Y-63062500I0J-237500D01*
G01*
G37*
G04 #@! TD.AperFunction*
G04 #@! TA.AperFunction,SMDPad,CuDef*
G36*
G01*
X86800000Y-63062500D02*
X86800000Y-63537500D01*
G75*
G02*
X86562500Y-63775000I-237500J0D01*
G01*
X86062500Y-63775000D01*
G75*
G02*
X85825000Y-63537500I0J237500D01*
G01*
X85825000Y-63062500D01*
G75*
G02*
X86062500Y-62825000I237500J0D01*
G01*
X86562500Y-62825000D01*
G75*
G02*
X86800000Y-63062500I0J-237500D01*
G01*
G37*
G04 #@! TD.AperFunction*
G04 #@! TA.AperFunction,SMDPad,CuDef*
G36*
G01*
X96262000Y-31830000D02*
X96262000Y-32305000D01*
G75*
G02*
X96024500Y-32542500I-237500J0D01*
G01*
X95524500Y-32542500D01*
G75*
G02*
X95287000Y-32305000I0J237500D01*
G01*
X95287000Y-31830000D01*
G75*
G02*
X95524500Y-31592500I237500J0D01*
G01*
X96024500Y-31592500D01*
G75*
G02*
X96262000Y-31830000I0J-237500D01*
G01*
G37*
G04 #@! TD.AperFunction*
G04 #@! TA.AperFunction,SMDPad,CuDef*
G36*
G01*
X98087000Y-31830000D02*
X98087000Y-32305000D01*
G75*
G02*
X97849500Y-32542500I-237500J0D01*
G01*
X97349500Y-32542500D01*
G75*
G02*
X97112000Y-32305000I0J237500D01*
G01*
X97112000Y-31830000D01*
G75*
G02*
X97349500Y-31592500I237500J0D01*
G01*
X97849500Y-31592500D01*
G75*
G02*
X98087000Y-31830000I0J-237500D01*
G01*
G37*
G04 #@! TD.AperFunction*
G04 #@! TA.AperFunction,SMDPad,CuDef*
G36*
G01*
X89275000Y-63062500D02*
X89275000Y-63537500D01*
G75*
G02*
X89037500Y-63775000I-237500J0D01*
G01*
X88537500Y-63775000D01*
G75*
G02*
X88300000Y-63537500I0J237500D01*
G01*
X88300000Y-63062500D01*
G75*
G02*
X88537500Y-62825000I237500J0D01*
G01*
X89037500Y-62825000D01*
G75*
G02*
X89275000Y-63062500I0J-237500D01*
G01*
G37*
G04 #@! TD.AperFunction*
G04 #@! TA.AperFunction,SMDPad,CuDef*
G36*
G01*
X91100000Y-63062500D02*
X91100000Y-63537500D01*
G75*
G02*
X90862500Y-63775000I-237500J0D01*
G01*
X90362500Y-63775000D01*
G75*
G02*
X90125000Y-63537500I0J237500D01*
G01*
X90125000Y-63062500D01*
G75*
G02*
X90362500Y-62825000I237500J0D01*
G01*
X90862500Y-62825000D01*
G75*
G02*
X91100000Y-63062500I0J-237500D01*
G01*
G37*
G04 #@! TD.AperFunction*
G04 #@! TA.AperFunction,SMDPad,CuDef*
G36*
G01*
X84281000Y-26610500D02*
X84756000Y-26610500D01*
G75*
G02*
X84993500Y-26848000I0J-237500D01*
G01*
X84993500Y-27348000D01*
G75*
G02*
X84756000Y-27585500I-237500J0D01*
G01*
X84281000Y-27585500D01*
G75*
G02*
X84043500Y-27348000I0J237500D01*
G01*
X84043500Y-26848000D01*
G75*
G02*
X84281000Y-26610500I237500J0D01*
G01*
G37*
G04 #@! TD.AperFunction*
G04 #@! TA.AperFunction,SMDPad,CuDef*
G36*
G01*
X84281000Y-24785500D02*
X84756000Y-24785500D01*
G75*
G02*
X84993500Y-25023000I0J-237500D01*
G01*
X84993500Y-25523000D01*
G75*
G02*
X84756000Y-25760500I-237500J0D01*
G01*
X84281000Y-25760500D01*
G75*
G02*
X84043500Y-25523000I0J237500D01*
G01*
X84043500Y-25023000D01*
G75*
G02*
X84281000Y-24785500I237500J0D01*
G01*
G37*
G04 #@! TD.AperFunction*
G04 #@! TA.AperFunction,SMDPad,CuDef*
G36*
G01*
X86038000Y-75388500D02*
X83888000Y-75388500D01*
G75*
G02*
X83638000Y-75138500I0J250000D01*
G01*
X83638000Y-74213500D01*
G75*
G02*
X83888000Y-73963500I250000J0D01*
G01*
X86038000Y-73963500D01*
G75*
G02*
X86288000Y-74213500I0J-250000D01*
G01*
X86288000Y-75138500D01*
G75*
G02*
X86038000Y-75388500I-250000J0D01*
G01*
G37*
G04 #@! TD.AperFunction*
G04 #@! TA.AperFunction,SMDPad,CuDef*
G36*
G01*
X86038000Y-78363500D02*
X83888000Y-78363500D01*
G75*
G02*
X83638000Y-78113500I0J250000D01*
G01*
X83638000Y-77188500D01*
G75*
G02*
X83888000Y-76938500I250000J0D01*
G01*
X86038000Y-76938500D01*
G75*
G02*
X86288000Y-77188500I0J-250000D01*
G01*
X86288000Y-78113500D01*
G75*
G02*
X86038000Y-78363500I-250000J0D01*
G01*
G37*
G04 #@! TD.AperFunction*
G04 #@! TA.AperFunction,SMDPad,CuDef*
G36*
G01*
X85784000Y-40246000D02*
X83634000Y-40246000D01*
G75*
G02*
X83384000Y-39996000I0J250000D01*
G01*
X83384000Y-39071000D01*
G75*
G02*
X83634000Y-38821000I250000J0D01*
G01*
X85784000Y-38821000D01*
G75*
G02*
X86034000Y-39071000I0J-250000D01*
G01*
X86034000Y-39996000D01*
G75*
G02*
X85784000Y-40246000I-250000J0D01*
G01*
G37*
G04 #@! TD.AperFunction*
G04 #@! TA.AperFunction,SMDPad,CuDef*
G36*
G01*
X85784000Y-43221000D02*
X83634000Y-43221000D01*
G75*
G02*
X83384000Y-42971000I0J250000D01*
G01*
X83384000Y-42046000D01*
G75*
G02*
X83634000Y-41796000I250000J0D01*
G01*
X85784000Y-41796000D01*
G75*
G02*
X86034000Y-42046000I0J-250000D01*
G01*
X86034000Y-42971000D01*
G75*
G02*
X85784000Y-43221000I-250000J0D01*
G01*
G37*
G04 #@! TD.AperFunction*
G04 #@! TA.AperFunction,SMDPad,CuDef*
G36*
G01*
X102225000Y-71742000D02*
X100975000Y-71742000D01*
G75*
G02*
X100725000Y-71492000I0J250000D01*
G01*
X100725000Y-70567000D01*
G75*
G02*
X100975000Y-70317000I250000J0D01*
G01*
X102225000Y-70317000D01*
G75*
G02*
X102475000Y-70567000I0J-250000D01*
G01*
X102475000Y-71492000D01*
G75*
G02*
X102225000Y-71742000I-250000J0D01*
G01*
G37*
G04 #@! TD.AperFunction*
G04 #@! TA.AperFunction,SMDPad,CuDef*
G36*
G01*
X102225000Y-74717000D02*
X100975000Y-74717000D01*
G75*
G02*
X100725000Y-74467000I0J250000D01*
G01*
X100725000Y-73542000D01*
G75*
G02*
X100975000Y-73292000I250000J0D01*
G01*
X102225000Y-73292000D01*
G75*
G02*
X102475000Y-73542000I0J-250000D01*
G01*
X102475000Y-74467000D01*
G75*
G02*
X102225000Y-74717000I-250000J0D01*
G01*
G37*
G04 #@! TD.AperFunction*
G04 #@! TA.AperFunction,SMDPad,CuDef*
G36*
G01*
X95240000Y-39701500D02*
X93990000Y-39701500D01*
G75*
G02*
X93740000Y-39451500I0J250000D01*
G01*
X93740000Y-38526500D01*
G75*
G02*
X93990000Y-38276500I250000J0D01*
G01*
X95240000Y-38276500D01*
G75*
G02*
X95490000Y-38526500I0J-250000D01*
G01*
X95490000Y-39451500D01*
G75*
G02*
X95240000Y-39701500I-250000J0D01*
G01*
G37*
G04 #@! TD.AperFunction*
G04 #@! TA.AperFunction,SMDPad,CuDef*
G36*
G01*
X95240000Y-42676500D02*
X93990000Y-42676500D01*
G75*
G02*
X93740000Y-42426500I0J250000D01*
G01*
X93740000Y-41501500D01*
G75*
G02*
X93990000Y-41251500I250000J0D01*
G01*
X95240000Y-41251500D01*
G75*
G02*
X95490000Y-41501500I0J-250000D01*
G01*
X95490000Y-42426500D01*
G75*
G02*
X95240000Y-42676500I-250000J0D01*
G01*
G37*
G04 #@! TD.AperFunction*
D15*
X78970000Y-73056000D03*
X76970000Y-79056000D03*
X64770000Y-79056000D03*
X64770000Y-67056000D03*
X76970000Y-67056000D03*
X78716000Y-36861000D03*
X76716000Y-42861000D03*
X64516000Y-42861000D03*
X64516000Y-30861000D03*
X76716000Y-30861000D03*
D16*
X95377000Y-76962000D03*
D17*
X95377000Y-74422000D03*
X95377000Y-75692000D03*
D16*
X103949500Y-33210500D03*
D17*
X103949500Y-30670500D03*
X103949500Y-31940500D03*
D18*
X83947000Y-69596000D03*
X83947000Y-67056000D03*
X91567000Y-67056000D03*
D19*
X91567000Y-69596000D03*
D18*
X91948000Y-31242000D03*
X91948000Y-33782000D03*
X84328000Y-33782000D03*
D19*
X84328000Y-31242000D03*
D20*
X145948400Y-28816300D03*
D21*
X148488400Y-28816300D03*
D22*
X67360800Y-154889200D03*
D23*
X62280800Y-154889200D03*
D22*
X116471700Y-24244300D03*
D23*
X121551700Y-24244300D03*
D20*
X100685600Y-63080900D03*
D21*
X98145600Y-63080900D03*
D20*
X94107000Y-25781000D03*
D21*
X96647000Y-25781000D03*
D20*
X103000000Y-41300000D03*
X103000000Y-43840000D03*
X103000000Y-46380000D03*
X103000000Y-48920000D03*
X103000000Y-51460000D03*
D21*
X103000000Y-54000000D03*
D20*
X96460000Y-108380000D03*
X99000000Y-108380000D03*
X96460000Y-110920000D03*
X99000000Y-110920000D03*
X96460000Y-113460000D03*
X99000000Y-113460000D03*
X96460000Y-116000000D03*
D21*
X99000000Y-116000000D03*
D22*
X152100000Y-145640000D03*
D23*
X152100000Y-140560000D03*
D24*
X135458200Y-153835100D03*
D25*
X133146800Y-147434300D03*
X135458200Y-147434300D03*
X137769600Y-147434300D03*
D20*
X139540000Y-83400000D03*
D26*
X139540000Y-84300000D03*
D21*
X137000000Y-83400000D03*
D26*
X137000000Y-84300000D03*
D20*
X134460000Y-83400000D03*
D26*
X134460000Y-84300000D03*
D27*
X146790000Y-83630000D03*
X146790000Y-81090000D03*
X146790000Y-78550000D03*
X146790000Y-76010000D03*
X146790000Y-73470000D03*
X146790000Y-70930000D03*
X146790000Y-68390000D03*
X146790000Y-65850000D03*
X146790000Y-63310000D03*
X146790000Y-60770000D03*
X146790000Y-58230000D03*
X146790000Y-55690000D03*
X146790000Y-53150000D03*
X146790000Y-50610000D03*
X146790000Y-48070000D03*
X146790000Y-45530000D03*
X146790000Y-42990000D03*
X146790000Y-40450000D03*
X146790000Y-37910000D03*
X146790000Y-35370000D03*
X127210000Y-83630000D03*
X127210000Y-81090000D03*
X127210000Y-78550000D03*
X127210000Y-76010000D03*
X127210000Y-73470000D03*
X127210000Y-70930000D03*
X127210000Y-68390000D03*
X127210000Y-65850000D03*
X127210000Y-63310000D03*
X127210000Y-60770000D03*
X127210000Y-58230000D03*
X127210000Y-55690000D03*
X127210000Y-53150000D03*
X127210000Y-50610000D03*
X127210000Y-48070000D03*
X127210000Y-45530000D03*
X127210000Y-42990000D03*
X127210000Y-40450000D03*
X127210000Y-37910000D03*
X127210000Y-35370000D03*
D20*
X145890000Y-35370000D03*
X145890000Y-37910000D03*
D21*
X145890000Y-40450000D03*
D20*
X145890000Y-42990000D03*
X145890000Y-45530000D03*
X145890000Y-48070000D03*
X145890000Y-50610000D03*
D21*
X145890000Y-53150000D03*
D20*
X145890000Y-55690000D03*
X145890000Y-58230000D03*
X145890000Y-60770000D03*
X145890000Y-63310000D03*
D21*
X145890000Y-65850000D03*
D20*
X145890000Y-68390000D03*
X145890000Y-70930000D03*
X145890000Y-73470000D03*
X145890000Y-76010000D03*
D21*
X145890000Y-78550000D03*
D20*
X145890000Y-81090000D03*
X145890000Y-83630000D03*
X128110000Y-83630000D03*
X128110000Y-81090000D03*
D21*
X128110000Y-78550000D03*
D20*
X128110000Y-76010000D03*
X128110000Y-73470000D03*
X128110000Y-70930000D03*
X128110000Y-68390000D03*
D21*
X128110000Y-65850000D03*
D20*
X128110000Y-63310000D03*
X128110000Y-60770000D03*
X128110000Y-58230000D03*
X128110000Y-55690000D03*
D21*
X128110000Y-53150000D03*
D20*
X128110000Y-50610000D03*
X128110000Y-48070000D03*
X128110000Y-45530000D03*
X128110000Y-42990000D03*
D21*
X128110000Y-40450000D03*
D20*
X128110000Y-37910000D03*
X128110000Y-35370000D03*
D28*
X152600000Y-133440000D03*
X152600000Y-130900000D03*
X152600000Y-128360000D03*
X152600000Y-125820000D03*
X152600000Y-123280000D03*
X152600000Y-120740000D03*
D29*
X152600000Y-118200000D03*
D22*
X60096400Y-133019800D03*
D23*
X60096400Y-127939800D03*
D30*
X117725000Y-65851485D03*
X117800000Y-93800000D03*
X116012653Y-59987347D03*
X98412653Y-117787347D03*
X154200000Y-145300000D03*
X103000000Y-56000000D03*
X102000000Y-116000000D03*
X87000000Y-147000000D03*
X62000000Y-134000000D03*
X131000000Y-137000000D03*
X98000000Y-74300000D03*
X106700000Y-30400000D03*
X130200000Y-79600000D03*
X142800000Y-81000000D03*
X151725000Y-68400000D03*
X104987347Y-53012653D03*
X115000000Y-60000000D03*
X92800000Y-43175000D03*
X144300000Y-124000000D03*
X143225000Y-111603660D03*
D31*
X117600000Y-89780000D02*
X99000000Y-108380000D01*
X117600000Y-65976485D02*
X117600000Y-89780000D01*
X117725000Y-65851485D02*
X117600000Y-65976485D01*
X117800000Y-93800000D02*
X115900000Y-93800000D01*
X115900000Y-93800000D02*
X100100000Y-109600000D01*
X97780000Y-109600000D02*
X96460000Y-110920000D01*
X100100000Y-109600000D02*
X97780000Y-109600000D01*
X128110000Y-55690000D02*
X124290000Y-55690000D01*
X124290000Y-55690000D02*
X122800000Y-54200000D01*
X121800000Y-54200000D02*
X116012653Y-59987347D01*
X122800000Y-54200000D02*
X121800000Y-54200000D01*
X129490000Y-81090000D02*
X128110000Y-81090000D01*
X129800000Y-81400000D02*
X129490000Y-81090000D01*
X129800000Y-89400000D02*
X129800000Y-81400000D01*
X101412653Y-117787347D02*
X129800000Y-89400000D01*
X98412653Y-117787347D02*
X101412653Y-117787347D01*
X153860000Y-145640000D02*
X154200000Y-145300000D01*
X152100000Y-145640000D02*
X153860000Y-145640000D01*
X103000000Y-54000000D02*
X103000000Y-56000000D01*
X86908700Y-146908700D02*
X87000000Y-147000000D01*
X85237200Y-146908700D02*
X86908700Y-146908700D01*
X61019800Y-133019800D02*
X62000000Y-134000000D01*
X60096400Y-133019800D02*
X61019800Y-133019800D01*
X130663300Y-136663300D02*
X131000000Y-137000000D01*
X124828300Y-136663300D02*
X130663300Y-136663300D01*
X137769600Y-136599800D02*
X137021700Y-135851900D01*
X137769600Y-147434300D02*
X137769600Y-136599800D01*
X97878000Y-74422000D02*
X98000000Y-74300000D01*
X95377000Y-74422000D02*
X97878000Y-74422000D01*
X106429500Y-30670500D02*
X106700000Y-30400000D01*
X103949500Y-30670500D02*
X106429500Y-30670500D01*
X129150000Y-78550000D02*
X130200000Y-79600000D01*
X128110000Y-78550000D02*
X129150000Y-78550000D01*
X124828300Y-138163300D02*
X124828300Y-139171700D01*
X124828300Y-139171700D02*
X119000000Y-145000000D01*
X80145900Y-145000000D02*
X78237200Y-146908700D01*
X119000000Y-145000000D02*
X80145900Y-145000000D01*
X78237200Y-146080600D02*
X60096400Y-127939800D01*
X78237200Y-146908700D02*
X78237200Y-146080600D01*
X133146800Y-146481800D02*
X124828300Y-138163300D01*
X133146800Y-147434300D02*
X133146800Y-146481800D01*
X60096400Y-127939800D02*
X60096400Y-65403600D01*
X63159500Y-62340500D02*
X90868500Y-62340500D01*
X60096400Y-65403600D02*
X63159500Y-62340500D01*
X94359500Y-62340500D02*
X95200000Y-61500000D01*
X99104700Y-61500000D02*
X100685600Y-63080900D01*
X93599000Y-25273000D02*
X94107000Y-25781000D01*
X84518500Y-25273000D02*
X93599000Y-25273000D01*
X90612500Y-62787500D02*
X91059500Y-62340500D01*
X90612500Y-63300000D02*
X90612500Y-62787500D01*
X91059500Y-62340500D02*
X94359500Y-62340500D01*
X90868500Y-62340500D02*
X91059500Y-62340500D01*
X95200000Y-61500000D02*
X99104700Y-61500000D01*
X100685600Y-43614400D02*
X103000000Y-41300000D01*
X100685600Y-63080900D02*
X100685600Y-43614400D01*
X99000000Y-114000000D02*
X124800000Y-88200000D01*
X124800000Y-75234998D02*
X125234998Y-74800000D01*
X124800000Y-88200000D02*
X124800000Y-75234998D01*
X125234998Y-74800000D02*
X129400000Y-74800000D01*
X129400000Y-74800000D02*
X130600000Y-74800000D01*
X136800000Y-81000000D02*
X142800000Y-81000000D01*
X130600000Y-74800000D02*
X136800000Y-81000000D01*
X144000000Y-122300000D02*
X152600000Y-130900000D01*
X144000000Y-60120000D02*
X144000000Y-122300000D01*
X145890000Y-58230000D02*
X144000000Y-60120000D01*
X149200000Y-124960000D02*
X152600000Y-128360000D01*
X149200000Y-64600000D02*
X149200000Y-124960000D01*
X147910000Y-63310000D02*
X149200000Y-64600000D01*
X145890000Y-63310000D02*
X147910000Y-63310000D01*
X154400000Y-124020000D02*
X152600000Y-125820000D01*
X154400000Y-71075000D02*
X154400000Y-124020000D01*
X151725000Y-68400000D02*
X154400000Y-71075000D01*
X152600000Y-120740000D02*
X153460000Y-120740000D01*
X151000000Y-116600000D02*
X152600000Y-118200000D01*
X151000000Y-49094998D02*
X151000000Y-116600000D01*
X147435002Y-45530000D02*
X151000000Y-49094998D01*
X145890000Y-45530000D02*
X147435002Y-45530000D01*
X135458200Y-135915400D02*
X135521700Y-135851900D01*
X135458200Y-147434300D02*
X135458200Y-135915400D01*
X135521700Y-135821700D02*
X135521700Y-135851900D01*
X113557919Y-134300000D02*
X134000000Y-134300000D01*
X96460000Y-117202081D02*
X113557919Y-134300000D01*
X96460000Y-116000000D02*
X96460000Y-117202081D01*
X134000000Y-134300000D02*
X135521700Y-135821700D01*
X143525001Y-31239699D02*
X145948400Y-28816300D01*
X143525001Y-92874999D02*
X143525001Y-31239699D01*
X135521700Y-100878300D02*
X143525001Y-92874999D01*
X135521700Y-135851900D02*
X135521700Y-100878300D01*
X108195500Y-74004500D02*
X117600000Y-64600000D01*
X101600000Y-74004500D02*
X108195500Y-74004500D01*
X117600000Y-64600000D02*
X124000000Y-71000000D01*
X128040000Y-71000000D02*
X128110000Y-70930000D01*
X124000000Y-71000000D02*
X128040000Y-71000000D01*
X117600000Y-63673002D02*
X117600000Y-64600000D01*
X103000000Y-49073002D02*
X117600000Y-63673002D01*
X103000000Y-48920000D02*
X103000000Y-49073002D01*
X123390000Y-68390000D02*
X128110000Y-68390000D01*
X115000000Y-60000000D02*
X123390000Y-68390000D01*
X93404000Y-43175000D02*
X94615000Y-41964000D01*
X92800000Y-43175000D02*
X93404000Y-43175000D01*
X103434694Y-51460000D02*
X103000000Y-51460000D01*
X104987347Y-53012653D02*
X103434694Y-51460000D01*
X75167200Y-149618700D02*
X88307200Y-149618700D01*
X145890000Y-37910000D02*
X145410000Y-37910000D01*
X145890000Y-37910000D02*
X148590000Y-37910000D01*
X148590000Y-37910000D02*
X149000000Y-37500000D01*
X149000000Y-29327900D02*
X148488400Y-28816300D01*
X149000000Y-37500000D02*
X149000000Y-29327900D01*
X84709000Y-38854000D02*
X84709000Y-39533500D01*
X96647000Y-26543000D02*
X91948000Y-31242000D01*
X96647000Y-25781000D02*
X96647000Y-26543000D01*
X91948000Y-31242000D02*
X90590000Y-32600000D01*
X90590000Y-32600000D02*
X82700000Y-32600000D01*
X80577500Y-34722500D02*
X84709000Y-38854000D01*
X82700000Y-32600000D02*
X80577500Y-34722500D01*
X76716000Y-30861000D02*
X80577500Y-34722500D01*
X84963000Y-70612000D02*
X83947000Y-69596000D01*
X84963000Y-74676000D02*
X84963000Y-70612000D01*
X76970000Y-67056000D02*
X78614000Y-68700000D01*
X83051000Y-68700000D02*
X83947000Y-69596000D01*
X78614000Y-68700000D02*
X83051000Y-68700000D01*
X121551700Y-24244300D02*
X121551700Y-23451700D01*
X121194299Y-23094299D02*
X79905701Y-23094299D01*
X121551700Y-23451700D02*
X121194299Y-23094299D01*
X64516000Y-38484000D02*
X64516000Y-42861000D01*
X79905701Y-23094299D02*
X64516000Y-38484000D01*
X84356500Y-42861000D02*
X84709000Y-42508500D01*
X76716000Y-42861000D02*
X84356500Y-42861000D01*
X85202010Y-43001510D02*
X84709000Y-42508500D01*
X103949500Y-35450500D02*
X103949500Y-33210500D01*
X95500000Y-43900000D02*
X103949500Y-35450500D01*
X86100500Y-43900000D02*
X95500000Y-43900000D01*
X84709000Y-42508500D02*
X86100500Y-43900000D01*
X78375000Y-77651000D02*
X76970000Y-79056000D01*
X84963000Y-77651000D02*
X78375000Y-77651000D01*
X94688000Y-77651000D02*
X95377000Y-76962000D01*
X84963000Y-77651000D02*
X94688000Y-77651000D01*
X94060000Y-33782000D02*
X95774500Y-32067500D01*
X91948000Y-33782000D02*
X94060000Y-33782000D01*
X89408000Y-33782000D02*
X94615000Y-38989000D01*
X84328000Y-33782000D02*
X89408000Y-33782000D01*
X84328000Y-27288500D02*
X84518500Y-27098000D01*
X84328000Y-31242000D02*
X84328000Y-27288500D01*
X84487500Y-66515500D02*
X83947000Y-67056000D01*
X84487500Y-63300000D02*
X84487500Y-66515500D01*
X95540500Y-71029500D02*
X91567000Y-67056000D01*
X101600000Y-71029500D02*
X95540500Y-71029500D01*
X88787500Y-66816500D02*
X91567000Y-69596000D01*
X88787500Y-63300000D02*
X88787500Y-66816500D01*
X97726500Y-31940500D02*
X97599500Y-32067500D01*
X103949500Y-31940500D02*
X97726500Y-31940500D01*
X94377000Y-75692000D02*
X95377000Y-75692000D01*
X86312500Y-67627500D02*
X94377000Y-75692000D01*
X86312500Y-63300000D02*
X86312500Y-67627500D01*
X137312500Y-124000000D02*
X137300000Y-124012500D01*
X144300000Y-124000000D02*
X137312500Y-124000000D01*
X137616160Y-117212500D02*
X143225000Y-111603660D01*
X137300000Y-117212500D02*
X137616160Y-117212500D01*
M02*
