G04 #@! TF.GenerationSoftware,KiCad,Pcbnew,(5.1.10-1-10_14)*
G04 #@! TF.CreationDate,2021-10-13T16:24:28-04:00*
G04 #@! TF.ProjectId,CC_PCB_V1,43435f50-4342-45f5-9631-2e6b69636164,10/13/2021*
G04 #@! TF.SameCoordinates,Original*
G04 #@! TF.FileFunction,Paste,Top*
G04 #@! TF.FilePolarity,Positive*
%FSLAX46Y46*%
G04 Gerber Fmt 4.6, Leading zero omitted, Abs format (unit mm)*
G04 Created by KiCad (PCBNEW (5.1.10-1-10_14)) date 2021-10-13 16:24:28*
%MOMM*%
%LPD*%
G01*
G04 APERTURE LIST*
%ADD10R,3.098800X1.600200*%
%ADD11R,0.838200X1.600200*%
G04 APERTURE END LIST*
G36*
G01*
X137925000Y-117925000D02*
X136675000Y-117925000D01*
G75*
G02*
X136425000Y-117675000I0J250000D01*
G01*
X136425000Y-116750000D01*
G75*
G02*
X136675000Y-116500000I250000J0D01*
G01*
X137925000Y-116500000D01*
G75*
G02*
X138175000Y-116750000I0J-250000D01*
G01*
X138175000Y-117675000D01*
G75*
G02*
X137925000Y-117925000I-250000J0D01*
G01*
G37*
G36*
G01*
X137925000Y-120900000D02*
X136675000Y-120900000D01*
G75*
G02*
X136425000Y-120650000I0J250000D01*
G01*
X136425000Y-119725000D01*
G75*
G02*
X136675000Y-119475000I250000J0D01*
G01*
X137925000Y-119475000D01*
G75*
G02*
X138175000Y-119725000I0J-250000D01*
G01*
X138175000Y-120650000D01*
G75*
G02*
X137925000Y-120900000I-250000J0D01*
G01*
G37*
G36*
G01*
X137925000Y-124725000D02*
X136675000Y-124725000D01*
G75*
G02*
X136425000Y-124475000I0J250000D01*
G01*
X136425000Y-123550000D01*
G75*
G02*
X136675000Y-123300000I250000J0D01*
G01*
X137925000Y-123300000D01*
G75*
G02*
X138175000Y-123550000I0J-250000D01*
G01*
X138175000Y-124475000D01*
G75*
G02*
X137925000Y-124725000I-250000J0D01*
G01*
G37*
G36*
G01*
X137925000Y-127700000D02*
X136675000Y-127700000D01*
G75*
G02*
X136425000Y-127450000I0J250000D01*
G01*
X136425000Y-126525000D01*
G75*
G02*
X136675000Y-126275000I250000J0D01*
G01*
X137925000Y-126275000D01*
G75*
G02*
X138175000Y-126525000I0J-250000D01*
G01*
X138175000Y-127450000D01*
G75*
G02*
X137925000Y-127700000I-250000J0D01*
G01*
G37*
G36*
G01*
X84975000Y-63062500D02*
X84975000Y-63537500D01*
G75*
G02*
X84737500Y-63775000I-237500J0D01*
G01*
X84237500Y-63775000D01*
G75*
G02*
X84000000Y-63537500I0J237500D01*
G01*
X84000000Y-63062500D01*
G75*
G02*
X84237500Y-62825000I237500J0D01*
G01*
X84737500Y-62825000D01*
G75*
G02*
X84975000Y-63062500I0J-237500D01*
G01*
G37*
G36*
G01*
X86800000Y-63062500D02*
X86800000Y-63537500D01*
G75*
G02*
X86562500Y-63775000I-237500J0D01*
G01*
X86062500Y-63775000D01*
G75*
G02*
X85825000Y-63537500I0J237500D01*
G01*
X85825000Y-63062500D01*
G75*
G02*
X86062500Y-62825000I237500J0D01*
G01*
X86562500Y-62825000D01*
G75*
G02*
X86800000Y-63062500I0J-237500D01*
G01*
G37*
G36*
G01*
X96262000Y-31830000D02*
X96262000Y-32305000D01*
G75*
G02*
X96024500Y-32542500I-237500J0D01*
G01*
X95524500Y-32542500D01*
G75*
G02*
X95287000Y-32305000I0J237500D01*
G01*
X95287000Y-31830000D01*
G75*
G02*
X95524500Y-31592500I237500J0D01*
G01*
X96024500Y-31592500D01*
G75*
G02*
X96262000Y-31830000I0J-237500D01*
G01*
G37*
G36*
G01*
X98087000Y-31830000D02*
X98087000Y-32305000D01*
G75*
G02*
X97849500Y-32542500I-237500J0D01*
G01*
X97349500Y-32542500D01*
G75*
G02*
X97112000Y-32305000I0J237500D01*
G01*
X97112000Y-31830000D01*
G75*
G02*
X97349500Y-31592500I237500J0D01*
G01*
X97849500Y-31592500D01*
G75*
G02*
X98087000Y-31830000I0J-237500D01*
G01*
G37*
G36*
G01*
X89275000Y-63062500D02*
X89275000Y-63537500D01*
G75*
G02*
X89037500Y-63775000I-237500J0D01*
G01*
X88537500Y-63775000D01*
G75*
G02*
X88300000Y-63537500I0J237500D01*
G01*
X88300000Y-63062500D01*
G75*
G02*
X88537500Y-62825000I237500J0D01*
G01*
X89037500Y-62825000D01*
G75*
G02*
X89275000Y-63062500I0J-237500D01*
G01*
G37*
G36*
G01*
X91100000Y-63062500D02*
X91100000Y-63537500D01*
G75*
G02*
X90862500Y-63775000I-237500J0D01*
G01*
X90362500Y-63775000D01*
G75*
G02*
X90125000Y-63537500I0J237500D01*
G01*
X90125000Y-63062500D01*
G75*
G02*
X90362500Y-62825000I237500J0D01*
G01*
X90862500Y-62825000D01*
G75*
G02*
X91100000Y-63062500I0J-237500D01*
G01*
G37*
G36*
G01*
X84281000Y-26610500D02*
X84756000Y-26610500D01*
G75*
G02*
X84993500Y-26848000I0J-237500D01*
G01*
X84993500Y-27348000D01*
G75*
G02*
X84756000Y-27585500I-237500J0D01*
G01*
X84281000Y-27585500D01*
G75*
G02*
X84043500Y-27348000I0J237500D01*
G01*
X84043500Y-26848000D01*
G75*
G02*
X84281000Y-26610500I237500J0D01*
G01*
G37*
G36*
G01*
X84281000Y-24785500D02*
X84756000Y-24785500D01*
G75*
G02*
X84993500Y-25023000I0J-237500D01*
G01*
X84993500Y-25523000D01*
G75*
G02*
X84756000Y-25760500I-237500J0D01*
G01*
X84281000Y-25760500D01*
G75*
G02*
X84043500Y-25523000I0J237500D01*
G01*
X84043500Y-25023000D01*
G75*
G02*
X84281000Y-24785500I237500J0D01*
G01*
G37*
G36*
G01*
X86038000Y-75388500D02*
X83888000Y-75388500D01*
G75*
G02*
X83638000Y-75138500I0J250000D01*
G01*
X83638000Y-74213500D01*
G75*
G02*
X83888000Y-73963500I250000J0D01*
G01*
X86038000Y-73963500D01*
G75*
G02*
X86288000Y-74213500I0J-250000D01*
G01*
X86288000Y-75138500D01*
G75*
G02*
X86038000Y-75388500I-250000J0D01*
G01*
G37*
G36*
G01*
X86038000Y-78363500D02*
X83888000Y-78363500D01*
G75*
G02*
X83638000Y-78113500I0J250000D01*
G01*
X83638000Y-77188500D01*
G75*
G02*
X83888000Y-76938500I250000J0D01*
G01*
X86038000Y-76938500D01*
G75*
G02*
X86288000Y-77188500I0J-250000D01*
G01*
X86288000Y-78113500D01*
G75*
G02*
X86038000Y-78363500I-250000J0D01*
G01*
G37*
G36*
G01*
X85784000Y-40246000D02*
X83634000Y-40246000D01*
G75*
G02*
X83384000Y-39996000I0J250000D01*
G01*
X83384000Y-39071000D01*
G75*
G02*
X83634000Y-38821000I250000J0D01*
G01*
X85784000Y-38821000D01*
G75*
G02*
X86034000Y-39071000I0J-250000D01*
G01*
X86034000Y-39996000D01*
G75*
G02*
X85784000Y-40246000I-250000J0D01*
G01*
G37*
G36*
G01*
X85784000Y-43221000D02*
X83634000Y-43221000D01*
G75*
G02*
X83384000Y-42971000I0J250000D01*
G01*
X83384000Y-42046000D01*
G75*
G02*
X83634000Y-41796000I250000J0D01*
G01*
X85784000Y-41796000D01*
G75*
G02*
X86034000Y-42046000I0J-250000D01*
G01*
X86034000Y-42971000D01*
G75*
G02*
X85784000Y-43221000I-250000J0D01*
G01*
G37*
G36*
G01*
X102225000Y-71742000D02*
X100975000Y-71742000D01*
G75*
G02*
X100725000Y-71492000I0J250000D01*
G01*
X100725000Y-70567000D01*
G75*
G02*
X100975000Y-70317000I250000J0D01*
G01*
X102225000Y-70317000D01*
G75*
G02*
X102475000Y-70567000I0J-250000D01*
G01*
X102475000Y-71492000D01*
G75*
G02*
X102225000Y-71742000I-250000J0D01*
G01*
G37*
G36*
G01*
X102225000Y-74717000D02*
X100975000Y-74717000D01*
G75*
G02*
X100725000Y-74467000I0J250000D01*
G01*
X100725000Y-73542000D01*
G75*
G02*
X100975000Y-73292000I250000J0D01*
G01*
X102225000Y-73292000D01*
G75*
G02*
X102475000Y-73542000I0J-250000D01*
G01*
X102475000Y-74467000D01*
G75*
G02*
X102225000Y-74717000I-250000J0D01*
G01*
G37*
G36*
G01*
X95240000Y-39701500D02*
X93990000Y-39701500D01*
G75*
G02*
X93740000Y-39451500I0J250000D01*
G01*
X93740000Y-38526500D01*
G75*
G02*
X93990000Y-38276500I250000J0D01*
G01*
X95240000Y-38276500D01*
G75*
G02*
X95490000Y-38526500I0J-250000D01*
G01*
X95490000Y-39451500D01*
G75*
G02*
X95240000Y-39701500I-250000J0D01*
G01*
G37*
G36*
G01*
X95240000Y-42676500D02*
X93990000Y-42676500D01*
G75*
G02*
X93740000Y-42426500I0J250000D01*
G01*
X93740000Y-41501500D01*
G75*
G02*
X93990000Y-41251500I250000J0D01*
G01*
X95240000Y-41251500D01*
G75*
G02*
X95490000Y-41501500I0J-250000D01*
G01*
X95490000Y-42426500D01*
G75*
G02*
X95240000Y-42676500I-250000J0D01*
G01*
G37*
D10*
X135458200Y-153835100D03*
D11*
X133146800Y-147434300D03*
X135458200Y-147434300D03*
X137769600Y-147434300D03*
M02*
