G04 #@! TF.GenerationSoftware,KiCad,Pcbnew,(5.1.10-1-10_14)*
G04 #@! TF.CreationDate,2021-10-13T16:24:28-04:00*
G04 #@! TF.ProjectId,CC_PCB_V1,43435f50-4342-45f5-9631-2e6b69636164,10/13/2021*
G04 #@! TF.SameCoordinates,Original*
G04 #@! TF.FileFunction,Legend,Bot*
G04 #@! TF.FilePolarity,Positive*
%FSLAX46Y46*%
G04 Gerber Fmt 4.6, Leading zero omitted, Abs format (unit mm)*
G04 Created by KiCad (PCBNEW (5.1.10-1-10_14)) date 2021-10-13 16:24:28*
%MOMM*%
%LPD*%
G01*
G04 APERTURE LIST*
%ADD10C,0.120000*%
%ADD11C,0.150000*%
G04 APERTURE END LIST*
D10*
X148022500Y-113345276D02*
X148022500Y-113854724D01*
X146977500Y-113345276D02*
X146977500Y-113854724D01*
X146977500Y-123054724D02*
X146977500Y-122545276D01*
X148022500Y-123054724D02*
X148022500Y-122545276D01*
D11*
X146522380Y-113433333D02*
X146046190Y-113100000D01*
X146522380Y-112861904D02*
X145522380Y-112861904D01*
X145522380Y-113242857D01*
X145570000Y-113338095D01*
X145617619Y-113385714D01*
X145712857Y-113433333D01*
X145855714Y-113433333D01*
X145950952Y-113385714D01*
X145998571Y-113338095D01*
X146046190Y-113242857D01*
X146046190Y-112861904D01*
X145522380Y-114290476D02*
X145522380Y-114100000D01*
X145570000Y-114004761D01*
X145617619Y-113957142D01*
X145760476Y-113861904D01*
X145950952Y-113814285D01*
X146331904Y-113814285D01*
X146427142Y-113861904D01*
X146474761Y-113909523D01*
X146522380Y-114004761D01*
X146522380Y-114195238D01*
X146474761Y-114290476D01*
X146427142Y-114338095D01*
X146331904Y-114385714D01*
X146093809Y-114385714D01*
X145998571Y-114338095D01*
X145950952Y-114290476D01*
X145903333Y-114195238D01*
X145903333Y-114004761D01*
X145950952Y-113909523D01*
X145998571Y-113861904D01*
X146093809Y-113814285D01*
M02*
