G04 #@! TF.GenerationSoftware,KiCad,Pcbnew,(5.1.10-1-10_14)*
G04 #@! TF.CreationDate,2021-10-13T16:24:28-04:00*
G04 #@! TF.ProjectId,CC_PCB_V1,43435f50-4342-45f5-9631-2e6b69636164,10/13/2021*
G04 #@! TF.SameCoordinates,Original*
G04 #@! TF.FileFunction,Soldermask,Bot*
G04 #@! TF.FilePolarity,Negative*
%FSLAX46Y46*%
G04 Gerber Fmt 4.6, Leading zero omitted, Abs format (unit mm)*
G04 Created by KiCad (PCBNEW (5.1.10-1-10_14)) date 2021-10-13 16:24:28*
%MOMM*%
%LPD*%
G01*
G04 APERTURE LIST*
%ADD10C,3.276000*%
%ADD11C,1.428000*%
%ADD12R,1.428000X1.428000*%
%ADD13C,1.200000*%
%ADD14R,1.200000X1.200000*%
%ADD15C,3.000000*%
%ADD16R,1.500000X1.050000*%
%ADD17O,1.500000X1.050000*%
%ADD18C,1.260000*%
%ADD19R,1.260000X1.260000*%
%ADD20O,1.700000X1.700000*%
%ADD21R,1.700000X1.700000*%
%ADD22C,1.650000*%
%ADD23R,1.650000X1.650000*%
%ADD24O,1.500000X1.500000*%
%ADD25O,1.800000X1.800000*%
%ADD26C,2.100000*%
%ADD27R,2.100000X2.100000*%
G04 APERTURE END LIST*
G36*
G01*
X147262500Y-114025000D02*
X147737500Y-114025000D01*
G75*
G02*
X147975000Y-114262500I0J-237500D01*
G01*
X147975000Y-114762500D01*
G75*
G02*
X147737500Y-115000000I-237500J0D01*
G01*
X147262500Y-115000000D01*
G75*
G02*
X147025000Y-114762500I0J237500D01*
G01*
X147025000Y-114262500D01*
G75*
G02*
X147262500Y-114025000I237500J0D01*
G01*
G37*
G36*
G01*
X147262500Y-112200000D02*
X147737500Y-112200000D01*
G75*
G02*
X147975000Y-112437500I0J-237500D01*
G01*
X147975000Y-112937500D01*
G75*
G02*
X147737500Y-113175000I-237500J0D01*
G01*
X147262500Y-113175000D01*
G75*
G02*
X147025000Y-112937500I0J237500D01*
G01*
X147025000Y-112437500D01*
G75*
G02*
X147262500Y-112200000I237500J0D01*
G01*
G37*
G36*
G01*
X147737500Y-122375000D02*
X147262500Y-122375000D01*
G75*
G02*
X147025000Y-122137500I0J237500D01*
G01*
X147025000Y-121637500D01*
G75*
G02*
X147262500Y-121400000I237500J0D01*
G01*
X147737500Y-121400000D01*
G75*
G02*
X147975000Y-121637500I0J-237500D01*
G01*
X147975000Y-122137500D01*
G75*
G02*
X147737500Y-122375000I-237500J0D01*
G01*
G37*
G36*
G01*
X147737500Y-124200000D02*
X147262500Y-124200000D01*
G75*
G02*
X147025000Y-123962500I0J237500D01*
G01*
X147025000Y-123462500D01*
G75*
G02*
X147262500Y-123225000I237500J0D01*
G01*
X147737500Y-123225000D01*
G75*
G02*
X147975000Y-123462500I0J-237500D01*
G01*
X147975000Y-123962500D01*
G75*
G02*
X147737500Y-124200000I-237500J0D01*
G01*
G37*
D10*
X88307200Y-149618700D03*
X75167200Y-149618700D03*
D11*
X85237200Y-146908700D03*
X82737200Y-146908700D03*
X80737200Y-146908700D03*
D12*
X78237200Y-146908700D03*
D13*
X124828300Y-136663300D03*
D14*
X124828300Y-138163300D03*
D13*
X137021700Y-135851900D03*
D14*
X135521700Y-135851900D03*
D15*
X78970000Y-73056000D03*
X76970000Y-79056000D03*
X64770000Y-79056000D03*
X64770000Y-67056000D03*
X76970000Y-67056000D03*
X78716000Y-36861000D03*
X76716000Y-42861000D03*
X64516000Y-42861000D03*
X64516000Y-30861000D03*
X76716000Y-30861000D03*
D16*
X95377000Y-76962000D03*
D17*
X95377000Y-74422000D03*
X95377000Y-75692000D03*
D16*
X103949500Y-33210500D03*
D17*
X103949500Y-30670500D03*
X103949500Y-31940500D03*
D18*
X83947000Y-69596000D03*
X83947000Y-67056000D03*
X91567000Y-67056000D03*
D19*
X91567000Y-69596000D03*
D18*
X91948000Y-31242000D03*
X91948000Y-33782000D03*
X84328000Y-33782000D03*
D19*
X84328000Y-31242000D03*
D20*
X145948400Y-28816300D03*
D21*
X148488400Y-28816300D03*
D22*
X67360800Y-154889200D03*
D23*
X62280800Y-154889200D03*
D22*
X116471700Y-24244300D03*
D23*
X121551700Y-24244300D03*
D20*
X100685600Y-63080900D03*
D21*
X98145600Y-63080900D03*
D20*
X94107000Y-25781000D03*
D21*
X96647000Y-25781000D03*
D20*
X103000000Y-41300000D03*
X103000000Y-43840000D03*
X103000000Y-46380000D03*
X103000000Y-48920000D03*
X103000000Y-51460000D03*
D21*
X103000000Y-54000000D03*
D20*
X96460000Y-108380000D03*
X99000000Y-108380000D03*
X96460000Y-110920000D03*
X99000000Y-110920000D03*
X96460000Y-113460000D03*
X99000000Y-113460000D03*
X96460000Y-116000000D03*
D21*
X99000000Y-116000000D03*
D15*
X151200000Y-153900000D03*
X60000000Y-22000000D03*
X60000000Y-144000000D03*
X154000000Y-22000000D03*
D22*
X152100000Y-145640000D03*
D23*
X152100000Y-140560000D03*
D20*
X139540000Y-83400000D03*
D21*
X137000000Y-83400000D03*
D20*
X134460000Y-83400000D03*
D24*
X139425000Y-38530000D03*
X134575000Y-38530000D03*
D25*
X139725000Y-35500000D03*
X134275000Y-35500000D03*
D20*
X145890000Y-35370000D03*
X145890000Y-37910000D03*
D21*
X145890000Y-40450000D03*
D20*
X145890000Y-42990000D03*
X145890000Y-45530000D03*
X145890000Y-48070000D03*
X145890000Y-50610000D03*
D21*
X145890000Y-53150000D03*
D20*
X145890000Y-55690000D03*
X145890000Y-58230000D03*
X145890000Y-60770000D03*
X145890000Y-63310000D03*
D21*
X145890000Y-65850000D03*
D20*
X145890000Y-68390000D03*
X145890000Y-70930000D03*
X145890000Y-73470000D03*
X145890000Y-76010000D03*
D21*
X145890000Y-78550000D03*
D20*
X145890000Y-81090000D03*
X145890000Y-83630000D03*
X128110000Y-83630000D03*
X128110000Y-81090000D03*
D21*
X128110000Y-78550000D03*
D20*
X128110000Y-76010000D03*
X128110000Y-73470000D03*
X128110000Y-70930000D03*
X128110000Y-68390000D03*
D21*
X128110000Y-65850000D03*
D20*
X128110000Y-63310000D03*
X128110000Y-60770000D03*
X128110000Y-58230000D03*
X128110000Y-55690000D03*
D21*
X128110000Y-53150000D03*
D20*
X128110000Y-50610000D03*
X128110000Y-48070000D03*
X128110000Y-45530000D03*
X128110000Y-42990000D03*
D21*
X128110000Y-40450000D03*
D20*
X128110000Y-37910000D03*
X128110000Y-35370000D03*
D26*
X152600000Y-133440000D03*
X152600000Y-130900000D03*
X152600000Y-128360000D03*
X152600000Y-125820000D03*
X152600000Y-123280000D03*
X152600000Y-120740000D03*
D27*
X152600000Y-118200000D03*
D22*
X60096400Y-133019800D03*
D23*
X60096400Y-127939800D03*
M02*
