G04 #@! TF.GenerationSoftware,KiCad,Pcbnew,(5.1.10-1-10_14)*
G04 #@! TF.CreationDate,2021-10-13T16:24:28-04:00*
G04 #@! TF.ProjectId,CC_PCB_V1,43435f50-4342-45f5-9631-2e6b69636164,10/13/2021*
G04 #@! TF.SameCoordinates,Original*
G04 #@! TF.FileFunction,Legend,Top*
G04 #@! TF.FilePolarity,Positive*
%FSLAX46Y46*%
G04 Gerber Fmt 4.6, Leading zero omitted, Abs format (unit mm)*
G04 Created by KiCad (PCBNEW (5.1.10-1-10_14)) date 2021-10-13 16:24:28*
%MOMM*%
%LPD*%
G01*
G04 APERTURE LIST*
%ADD10C,0.150000*%
%ADD11C,0.120000*%
%ADD12C,0.200000*%
%ADD13C,0.127000*%
%ADD14C,0.152400*%
G04 APERTURE END LIST*
D10*
X112628571Y-21938095D02*
X112628571Y-22700000D01*
X112247619Y-22319047D02*
X113009523Y-22319047D01*
X112247619Y-23700000D02*
X112247619Y-23128571D01*
X112247619Y-23414285D02*
X113247619Y-23414285D01*
X113104761Y-23319047D01*
X113009523Y-23223809D01*
X112961904Y-23128571D01*
X113152380Y-24080952D02*
X113200000Y-24128571D01*
X113247619Y-24223809D01*
X113247619Y-24461904D01*
X113200000Y-24557142D01*
X113152380Y-24604761D01*
X113057142Y-24652380D01*
X112961904Y-24652380D01*
X112819047Y-24604761D01*
X112247619Y-24033333D01*
X112247619Y-24652380D01*
X113247619Y-24938095D02*
X112247619Y-25271428D01*
X113247619Y-25604761D01*
X125900000Y-23061904D02*
X125947619Y-22966666D01*
X125947619Y-22823809D01*
X125900000Y-22680952D01*
X125804761Y-22585714D01*
X125709523Y-22538095D01*
X125519047Y-22490476D01*
X125376190Y-22490476D01*
X125185714Y-22538095D01*
X125090476Y-22585714D01*
X124995238Y-22680952D01*
X124947619Y-22823809D01*
X124947619Y-22919047D01*
X124995238Y-23061904D01*
X125042857Y-23109523D01*
X125376190Y-23109523D01*
X125376190Y-22919047D01*
X124947619Y-23538095D02*
X125947619Y-23538095D01*
X124947619Y-24109523D01*
X125947619Y-24109523D01*
X124947619Y-24585714D02*
X125947619Y-24585714D01*
X125947619Y-24823809D01*
X125900000Y-24966666D01*
X125804761Y-25061904D01*
X125709523Y-25109523D01*
X125519047Y-25157142D01*
X125376190Y-25157142D01*
X125185714Y-25109523D01*
X125090476Y-25061904D01*
X124995238Y-24966666D01*
X124947619Y-24823809D01*
X124947619Y-24585714D01*
X124947619Y-26109523D02*
X124947619Y-25538095D01*
X124947619Y-25823809D02*
X125947619Y-25823809D01*
X125804761Y-25728571D01*
X125709523Y-25633333D01*
X125661904Y-25538095D01*
X58247619Y-152219047D02*
X59247619Y-152219047D01*
X58533333Y-152552380D01*
X59247619Y-152885714D01*
X58247619Y-152885714D01*
X59247619Y-153552380D02*
X59247619Y-153742857D01*
X59200000Y-153838095D01*
X59104761Y-153933333D01*
X58914285Y-153980952D01*
X58580952Y-153980952D01*
X58390476Y-153933333D01*
X58295238Y-153838095D01*
X58247619Y-153742857D01*
X58247619Y-153552380D01*
X58295238Y-153457142D01*
X58390476Y-153361904D01*
X58580952Y-153314285D01*
X58914285Y-153314285D01*
X59104761Y-153361904D01*
X59200000Y-153457142D01*
X59247619Y-153552380D01*
X59247619Y-154266666D02*
X59247619Y-154838095D01*
X58247619Y-154552380D02*
X59247619Y-154552380D01*
X59247619Y-155361904D02*
X59247619Y-155552380D01*
X59200000Y-155647619D01*
X59104761Y-155742857D01*
X58914285Y-155790476D01*
X58580952Y-155790476D01*
X58390476Y-155742857D01*
X58295238Y-155647619D01*
X58247619Y-155552380D01*
X58247619Y-155361904D01*
X58295238Y-155266666D01*
X58390476Y-155171428D01*
X58580952Y-155123809D01*
X58914285Y-155123809D01*
X59104761Y-155171428D01*
X59200000Y-155266666D01*
X59247619Y-155361904D01*
X58247619Y-156790476D02*
X58723809Y-156457142D01*
X58247619Y-156219047D02*
X59247619Y-156219047D01*
X59247619Y-156600000D01*
X59200000Y-156695238D01*
X59152380Y-156742857D01*
X59057142Y-156790476D01*
X58914285Y-156790476D01*
X58819047Y-156742857D01*
X58771428Y-156695238D01*
X58723809Y-156600000D01*
X58723809Y-156219047D01*
X58628571Y-157219047D02*
X58628571Y-157980952D01*
X70647619Y-152219047D02*
X71647619Y-152219047D01*
X70933333Y-152552380D01*
X71647619Y-152885714D01*
X70647619Y-152885714D01*
X71647619Y-153552380D02*
X71647619Y-153742857D01*
X71600000Y-153838095D01*
X71504761Y-153933333D01*
X71314285Y-153980952D01*
X70980952Y-153980952D01*
X70790476Y-153933333D01*
X70695238Y-153838095D01*
X70647619Y-153742857D01*
X70647619Y-153552380D01*
X70695238Y-153457142D01*
X70790476Y-153361904D01*
X70980952Y-153314285D01*
X71314285Y-153314285D01*
X71504761Y-153361904D01*
X71600000Y-153457142D01*
X71647619Y-153552380D01*
X71647619Y-154266666D02*
X71647619Y-154838095D01*
X70647619Y-154552380D02*
X71647619Y-154552380D01*
X71647619Y-155361904D02*
X71647619Y-155552380D01*
X71600000Y-155647619D01*
X71504761Y-155742857D01*
X71314285Y-155790476D01*
X70980952Y-155790476D01*
X70790476Y-155742857D01*
X70695238Y-155647619D01*
X70647619Y-155552380D01*
X70647619Y-155361904D01*
X70695238Y-155266666D01*
X70790476Y-155171428D01*
X70980952Y-155123809D01*
X71314285Y-155123809D01*
X71504761Y-155171428D01*
X71600000Y-155266666D01*
X71647619Y-155361904D01*
X70647619Y-156790476D02*
X71123809Y-156457142D01*
X70647619Y-156219047D02*
X71647619Y-156219047D01*
X71647619Y-156600000D01*
X71600000Y-156695238D01*
X71552380Y-156742857D01*
X71457142Y-156790476D01*
X71314285Y-156790476D01*
X71219047Y-156742857D01*
X71171428Y-156695238D01*
X71123809Y-156600000D01*
X71123809Y-156219047D01*
X71028571Y-157219047D02*
X71028571Y-157980952D01*
X70647619Y-157600000D02*
X71409523Y-157600000D01*
X144938095Y-145200000D02*
X144842857Y-145152380D01*
X144700000Y-145152380D01*
X144557142Y-145200000D01*
X144461904Y-145295238D01*
X144414285Y-145390476D01*
X144366666Y-145580952D01*
X144366666Y-145723809D01*
X144414285Y-145914285D01*
X144461904Y-146009523D01*
X144557142Y-146104761D01*
X144700000Y-146152380D01*
X144795238Y-146152380D01*
X144938095Y-146104761D01*
X144985714Y-146057142D01*
X144985714Y-145723809D01*
X144795238Y-145723809D01*
X145414285Y-146152380D02*
X145414285Y-145152380D01*
X145985714Y-146152380D01*
X145985714Y-145152380D01*
X146461904Y-146152380D02*
X146461904Y-145152380D01*
X146700000Y-145152380D01*
X146842857Y-145200000D01*
X146938095Y-145295238D01*
X146985714Y-145390476D01*
X147033333Y-145580952D01*
X147033333Y-145723809D01*
X146985714Y-145914285D01*
X146938095Y-146009523D01*
X146842857Y-146104761D01*
X146700000Y-146152380D01*
X146461904Y-146152380D01*
X142900000Y-140771428D02*
X143661904Y-140771428D01*
X143280952Y-141152380D02*
X143280952Y-140390476D01*
X144042857Y-140152380D02*
X144661904Y-140152380D01*
X144328571Y-140533333D01*
X144471428Y-140533333D01*
X144566666Y-140580952D01*
X144614285Y-140628571D01*
X144661904Y-140723809D01*
X144661904Y-140961904D01*
X144614285Y-141057142D01*
X144566666Y-141104761D01*
X144471428Y-141152380D01*
X144185714Y-141152380D01*
X144090476Y-141104761D01*
X144042857Y-141057142D01*
X145090476Y-141057142D02*
X145138095Y-141104761D01*
X145090476Y-141152380D01*
X145042857Y-141104761D01*
X145090476Y-141057142D01*
X145090476Y-141152380D01*
X145471428Y-140152380D02*
X146090476Y-140152380D01*
X145757142Y-140533333D01*
X145900000Y-140533333D01*
X145995238Y-140580952D01*
X146042857Y-140628571D01*
X146090476Y-140723809D01*
X146090476Y-140961904D01*
X146042857Y-141057142D01*
X145995238Y-141104761D01*
X145900000Y-141152380D01*
X145614285Y-141152380D01*
X145519047Y-141104761D01*
X145471428Y-141057142D01*
X146376190Y-140152380D02*
X146709523Y-141152380D01*
X147042857Y-140152380D01*
X64714285Y-128171428D02*
X65476190Y-128171428D01*
X65095238Y-128552380D02*
X65095238Y-127790476D01*
X66428571Y-127552380D02*
X65952380Y-127552380D01*
X65904761Y-128028571D01*
X65952380Y-127980952D01*
X66047619Y-127933333D01*
X66285714Y-127933333D01*
X66380952Y-127980952D01*
X66428571Y-128028571D01*
X66476190Y-128123809D01*
X66476190Y-128361904D01*
X66428571Y-128457142D01*
X66380952Y-128504761D01*
X66285714Y-128552380D01*
X66047619Y-128552380D01*
X65952380Y-128504761D01*
X65904761Y-128457142D01*
X66761904Y-127552380D02*
X67095238Y-128552380D01*
X67428571Y-127552380D01*
X65438095Y-132900000D02*
X65342857Y-132852380D01*
X65200000Y-132852380D01*
X65057142Y-132900000D01*
X64961904Y-132995238D01*
X64914285Y-133090476D01*
X64866666Y-133280952D01*
X64866666Y-133423809D01*
X64914285Y-133614285D01*
X64961904Y-133709523D01*
X65057142Y-133804761D01*
X65200000Y-133852380D01*
X65295238Y-133852380D01*
X65438095Y-133804761D01*
X65485714Y-133757142D01*
X65485714Y-133423809D01*
X65295238Y-133423809D01*
X65914285Y-133852380D02*
X65914285Y-132852380D01*
X66485714Y-133852380D01*
X66485714Y-132852380D01*
X66961904Y-133852380D02*
X66961904Y-132852380D01*
X67200000Y-132852380D01*
X67342857Y-132900000D01*
X67438095Y-132995238D01*
X67485714Y-133090476D01*
X67533333Y-133280952D01*
X67533333Y-133423809D01*
X67485714Y-133614285D01*
X67438095Y-133709523D01*
X67342857Y-133804761D01*
X67200000Y-133852380D01*
X66961904Y-133852380D01*
X144857142Y-134052380D02*
X144857142Y-133052380D01*
X145238095Y-133052380D01*
X145333333Y-133100000D01*
X145380952Y-133147619D01*
X145428571Y-133242857D01*
X145428571Y-133385714D01*
X145380952Y-133480952D01*
X145333333Y-133528571D01*
X145238095Y-133576190D01*
X144857142Y-133576190D01*
X146047619Y-133052380D02*
X146238095Y-133052380D01*
X146333333Y-133100000D01*
X146428571Y-133195238D01*
X146476190Y-133385714D01*
X146476190Y-133719047D01*
X146428571Y-133909523D01*
X146333333Y-134004761D01*
X146238095Y-134052380D01*
X146047619Y-134052380D01*
X145952380Y-134004761D01*
X145857142Y-133909523D01*
X145809523Y-133719047D01*
X145809523Y-133385714D01*
X145857142Y-133195238D01*
X145952380Y-133100000D01*
X146047619Y-133052380D01*
X146761904Y-133052380D02*
X147333333Y-133052380D01*
X147047619Y-134052380D02*
X147047619Y-133052380D01*
X148190476Y-134052380D02*
X147619047Y-134052380D01*
X147904761Y-134052380D02*
X147904761Y-133052380D01*
X147809523Y-133195238D01*
X147714285Y-133290476D01*
X147619047Y-133338095D01*
X144757142Y-131352380D02*
X144757142Y-130352380D01*
X145138095Y-130352380D01*
X145233333Y-130400000D01*
X145280952Y-130447619D01*
X145328571Y-130542857D01*
X145328571Y-130685714D01*
X145280952Y-130780952D01*
X145233333Y-130828571D01*
X145138095Y-130876190D01*
X144757142Y-130876190D01*
X145947619Y-130352380D02*
X146138095Y-130352380D01*
X146233333Y-130400000D01*
X146328571Y-130495238D01*
X146376190Y-130685714D01*
X146376190Y-131019047D01*
X146328571Y-131209523D01*
X146233333Y-131304761D01*
X146138095Y-131352380D01*
X145947619Y-131352380D01*
X145852380Y-131304761D01*
X145757142Y-131209523D01*
X145709523Y-131019047D01*
X145709523Y-130685714D01*
X145757142Y-130495238D01*
X145852380Y-130400000D01*
X145947619Y-130352380D01*
X146661904Y-130352380D02*
X147233333Y-130352380D01*
X146947619Y-131352380D02*
X146947619Y-130352380D01*
X147519047Y-130447619D02*
X147566666Y-130400000D01*
X147661904Y-130352380D01*
X147900000Y-130352380D01*
X147995238Y-130400000D01*
X148042857Y-130447619D01*
X148090476Y-130542857D01*
X148090476Y-130638095D01*
X148042857Y-130780952D01*
X147471428Y-131352380D01*
X148090476Y-131352380D01*
X142738095Y-127852380D02*
X143309523Y-127852380D01*
X143023809Y-128852380D02*
X143023809Y-127852380D01*
X143642857Y-128852380D02*
X143642857Y-127852380D01*
X144071428Y-128852380D02*
X144071428Y-128328571D01*
X144023809Y-128233333D01*
X143928571Y-128185714D01*
X143785714Y-128185714D01*
X143690476Y-128233333D01*
X143642857Y-128280952D01*
X144547619Y-128852380D02*
X144547619Y-128185714D01*
X144547619Y-128376190D02*
X144595238Y-128280952D01*
X144642857Y-128233333D01*
X144738095Y-128185714D01*
X144833333Y-128185714D01*
X145309523Y-128852380D02*
X145214285Y-128804761D01*
X145166666Y-128757142D01*
X145119047Y-128661904D01*
X145119047Y-128376190D01*
X145166666Y-128280952D01*
X145214285Y-128233333D01*
X145309523Y-128185714D01*
X145452380Y-128185714D01*
X145547619Y-128233333D01*
X145595238Y-128280952D01*
X145642857Y-128376190D01*
X145642857Y-128661904D01*
X145595238Y-128757142D01*
X145547619Y-128804761D01*
X145452380Y-128852380D01*
X145309523Y-128852380D01*
X145928571Y-128185714D02*
X146309523Y-128185714D01*
X146071428Y-127852380D02*
X146071428Y-128709523D01*
X146119047Y-128804761D01*
X146214285Y-128852380D01*
X146309523Y-128852380D01*
X146500000Y-128185714D02*
X146880952Y-128185714D01*
X146642857Y-127852380D02*
X146642857Y-128709523D01*
X146690476Y-128804761D01*
X146785714Y-128852380D01*
X146880952Y-128852380D01*
X147357142Y-128852380D02*
X147261904Y-128804761D01*
X147214285Y-128709523D01*
X147214285Y-127852380D01*
X148119047Y-128804761D02*
X148023809Y-128852380D01*
X147833333Y-128852380D01*
X147738095Y-128804761D01*
X147690476Y-128709523D01*
X147690476Y-128328571D01*
X147738095Y-128233333D01*
X147833333Y-128185714D01*
X148023809Y-128185714D01*
X148119047Y-128233333D01*
X148166666Y-128328571D01*
X148166666Y-128423809D01*
X147690476Y-128519047D01*
X143652380Y-125352380D02*
X143842857Y-125352380D01*
X143938095Y-125400000D01*
X144033333Y-125495238D01*
X144080952Y-125685714D01*
X144080952Y-126019047D01*
X144033333Y-126209523D01*
X143938095Y-126304761D01*
X143842857Y-126352380D01*
X143652380Y-126352380D01*
X143557142Y-126304761D01*
X143461904Y-126209523D01*
X143414285Y-126019047D01*
X143414285Y-125685714D01*
X143461904Y-125495238D01*
X143557142Y-125400000D01*
X143652380Y-125352380D01*
X144509523Y-125685714D02*
X144509523Y-126352380D01*
X144509523Y-125780952D02*
X144557142Y-125733333D01*
X144652380Y-125685714D01*
X144795238Y-125685714D01*
X144890476Y-125733333D01*
X144938095Y-125828571D01*
X144938095Y-126352380D01*
X146128571Y-125304761D02*
X145271428Y-126590476D01*
X146652380Y-125352380D02*
X146842857Y-125352380D01*
X146938095Y-125400000D01*
X147033333Y-125495238D01*
X147080952Y-125685714D01*
X147080952Y-126019047D01*
X147033333Y-126209523D01*
X146938095Y-126304761D01*
X146842857Y-126352380D01*
X146652380Y-126352380D01*
X146557142Y-126304761D01*
X146461904Y-126209523D01*
X146414285Y-126019047D01*
X146414285Y-125685714D01*
X146461904Y-125495238D01*
X146557142Y-125400000D01*
X146652380Y-125352380D01*
X147366666Y-125685714D02*
X147747619Y-125685714D01*
X147509523Y-126352380D02*
X147509523Y-125495238D01*
X147557142Y-125400000D01*
X147652380Y-125352380D01*
X147747619Y-125352380D01*
X147938095Y-125685714D02*
X148319047Y-125685714D01*
X148080952Y-126352380D02*
X148080952Y-125495238D01*
X148128571Y-125400000D01*
X148223809Y-125352380D01*
X148319047Y-125352380D01*
X146200000Y-123852380D02*
X146200000Y-122852380D01*
X146438095Y-122852380D01*
X146580952Y-122900000D01*
X146676190Y-122995238D01*
X146723809Y-123090476D01*
X146771428Y-123280952D01*
X146771428Y-123423809D01*
X146723809Y-123614285D01*
X146676190Y-123709523D01*
X146580952Y-123804761D01*
X146438095Y-123852380D01*
X146200000Y-123852380D01*
X147200000Y-123852380D02*
X147200000Y-122852380D01*
X148247619Y-123852380D02*
X147914285Y-123376190D01*
X147676190Y-123852380D02*
X147676190Y-122852380D01*
X148057142Y-122852380D01*
X148152380Y-122900000D01*
X148200000Y-122947619D01*
X148247619Y-123042857D01*
X148247619Y-123185714D01*
X148200000Y-123280952D01*
X148152380Y-123328571D01*
X148057142Y-123376190D01*
X147676190Y-123376190D01*
X145547619Y-121004761D02*
X145690476Y-121052380D01*
X145928571Y-121052380D01*
X146023809Y-121004761D01*
X146071428Y-120957142D01*
X146119047Y-120861904D01*
X146119047Y-120766666D01*
X146071428Y-120671428D01*
X146023809Y-120623809D01*
X145928571Y-120576190D01*
X145738095Y-120528571D01*
X145642857Y-120480952D01*
X145595238Y-120433333D01*
X145547619Y-120338095D01*
X145547619Y-120242857D01*
X145595238Y-120147619D01*
X145642857Y-120100000D01*
X145738095Y-120052380D01*
X145976190Y-120052380D01*
X146119047Y-120100000D01*
X146404761Y-120385714D02*
X146785714Y-120385714D01*
X146547619Y-120052380D02*
X146547619Y-120909523D01*
X146595238Y-121004761D01*
X146690476Y-121052380D01*
X146785714Y-121052380D01*
X147500000Y-121004761D02*
X147404761Y-121052380D01*
X147214285Y-121052380D01*
X147119047Y-121004761D01*
X147071428Y-120909523D01*
X147071428Y-120528571D01*
X147119047Y-120433333D01*
X147214285Y-120385714D01*
X147404761Y-120385714D01*
X147500000Y-120433333D01*
X147547619Y-120528571D01*
X147547619Y-120623809D01*
X147071428Y-120719047D01*
X147976190Y-120385714D02*
X147976190Y-121385714D01*
X147976190Y-120433333D02*
X148071428Y-120385714D01*
X148261904Y-120385714D01*
X148357142Y-120433333D01*
X148404761Y-120480952D01*
X148452380Y-120576190D01*
X148452380Y-120861904D01*
X148404761Y-120957142D01*
X148357142Y-121004761D01*
X148261904Y-121052380D01*
X148071428Y-121052380D01*
X147976190Y-121004761D01*
X150200000Y-115071428D02*
X150961904Y-115071428D01*
X150580952Y-115452380D02*
X150580952Y-114690476D01*
X151342857Y-114452380D02*
X151961904Y-114452380D01*
X151628571Y-114833333D01*
X151771428Y-114833333D01*
X151866666Y-114880952D01*
X151914285Y-114928571D01*
X151961904Y-115023809D01*
X151961904Y-115261904D01*
X151914285Y-115357142D01*
X151866666Y-115404761D01*
X151771428Y-115452380D01*
X151485714Y-115452380D01*
X151390476Y-115404761D01*
X151342857Y-115357142D01*
X152390476Y-115357142D02*
X152438095Y-115404761D01*
X152390476Y-115452380D01*
X152342857Y-115404761D01*
X152390476Y-115357142D01*
X152390476Y-115452380D01*
X152771428Y-114452380D02*
X153390476Y-114452380D01*
X153057142Y-114833333D01*
X153200000Y-114833333D01*
X153295238Y-114880952D01*
X153342857Y-114928571D01*
X153390476Y-115023809D01*
X153390476Y-115261904D01*
X153342857Y-115357142D01*
X153295238Y-115404761D01*
X153200000Y-115452380D01*
X152914285Y-115452380D01*
X152819047Y-115404761D01*
X152771428Y-115357142D01*
X153676190Y-114452380D02*
X154009523Y-115452380D01*
X154342857Y-114452380D01*
D11*
X138435000Y-121160000D02*
X138435000Y-117100000D01*
X136165000Y-121160000D02*
X138435000Y-121160000D01*
X136165000Y-117100000D02*
X136165000Y-121160000D01*
X138435000Y-127960000D02*
X138435000Y-123900000D01*
X136165000Y-127960000D02*
X138435000Y-127960000D01*
X136165000Y-123900000D02*
X136165000Y-127960000D01*
D12*
X78237200Y-145218700D02*
G75*
G03*
X78237200Y-145218700I-100000J0D01*
G01*
X88637200Y-145738700D02*
X74837200Y-145738700D01*
X74837200Y-159898700D02*
X88637200Y-159898700D01*
X74837200Y-145738700D02*
X74837200Y-147398700D01*
X74837200Y-151988700D02*
X74837200Y-159898700D01*
X88637200Y-145738700D02*
X88637200Y-147398700D01*
X88637200Y-151988700D02*
X88637200Y-159898700D01*
D11*
X126948300Y-137413300D02*
G75*
G03*
X126948300Y-137413300I-2120000J0D01*
G01*
X125668300Y-137413300D02*
X126908300Y-137413300D01*
X122748300Y-137413300D02*
X123988300Y-137413300D01*
X125668300Y-137373300D02*
X126908300Y-137373300D01*
X122748300Y-137373300D02*
X123988300Y-137373300D01*
X125668300Y-137333300D02*
X126907300Y-137333300D01*
X122749300Y-137333300D02*
X123988300Y-137333300D01*
X122751300Y-137293300D02*
X123988300Y-137293300D01*
X125668300Y-137293300D02*
X126905300Y-137293300D01*
X122754300Y-137253300D02*
X123988300Y-137253300D01*
X125668300Y-137253300D02*
X126902300Y-137253300D01*
X122757300Y-137213300D02*
X123988300Y-137213300D01*
X125668300Y-137213300D02*
X126899300Y-137213300D01*
X122761300Y-137173300D02*
X123988300Y-137173300D01*
X125668300Y-137173300D02*
X126895300Y-137173300D01*
X122766300Y-137133300D02*
X123988300Y-137133300D01*
X125668300Y-137133300D02*
X126890300Y-137133300D01*
X122772300Y-137093300D02*
X123988300Y-137093300D01*
X125668300Y-137093300D02*
X126884300Y-137093300D01*
X122778300Y-137053300D02*
X123988300Y-137053300D01*
X125668300Y-137053300D02*
X126878300Y-137053300D01*
X122786300Y-137013300D02*
X123988300Y-137013300D01*
X125668300Y-137013300D02*
X126870300Y-137013300D01*
X122794300Y-136973300D02*
X123988300Y-136973300D01*
X125668300Y-136973300D02*
X126862300Y-136973300D01*
X122803300Y-136933300D02*
X123988300Y-136933300D01*
X125668300Y-136933300D02*
X126853300Y-136933300D01*
X122812300Y-136893300D02*
X123988300Y-136893300D01*
X125668300Y-136893300D02*
X126844300Y-136893300D01*
X122823300Y-136853300D02*
X123988300Y-136853300D01*
X125668300Y-136853300D02*
X126833300Y-136853300D01*
X122834300Y-136813300D02*
X123988300Y-136813300D01*
X125668300Y-136813300D02*
X126822300Y-136813300D01*
X122846300Y-136773300D02*
X123988300Y-136773300D01*
X125668300Y-136773300D02*
X126810300Y-136773300D01*
X122860300Y-136733300D02*
X123988300Y-136733300D01*
X125668300Y-136733300D02*
X126796300Y-136733300D01*
X122874300Y-136692300D02*
X123988300Y-136692300D01*
X125668300Y-136692300D02*
X126782300Y-136692300D01*
X122888300Y-136652300D02*
X123988300Y-136652300D01*
X125668300Y-136652300D02*
X126768300Y-136652300D01*
X122904300Y-136612300D02*
X123988300Y-136612300D01*
X125668300Y-136612300D02*
X126752300Y-136612300D01*
X122921300Y-136572300D02*
X123988300Y-136572300D01*
X125668300Y-136572300D02*
X126735300Y-136572300D01*
X122939300Y-136532300D02*
X123988300Y-136532300D01*
X125668300Y-136532300D02*
X126717300Y-136532300D01*
X122958300Y-136492300D02*
X123988300Y-136492300D01*
X125668300Y-136492300D02*
X126698300Y-136492300D01*
X122977300Y-136452300D02*
X123988300Y-136452300D01*
X125668300Y-136452300D02*
X126679300Y-136452300D01*
X122998300Y-136412300D02*
X123988300Y-136412300D01*
X125668300Y-136412300D02*
X126658300Y-136412300D01*
X123020300Y-136372300D02*
X123988300Y-136372300D01*
X125668300Y-136372300D02*
X126636300Y-136372300D01*
X123043300Y-136332300D02*
X123988300Y-136332300D01*
X125668300Y-136332300D02*
X126613300Y-136332300D01*
X123068300Y-136292300D02*
X123988300Y-136292300D01*
X125668300Y-136292300D02*
X126588300Y-136292300D01*
X123093300Y-136252300D02*
X123988300Y-136252300D01*
X125668300Y-136252300D02*
X126563300Y-136252300D01*
X123120300Y-136212300D02*
X123988300Y-136212300D01*
X125668300Y-136212300D02*
X126536300Y-136212300D01*
X123148300Y-136172300D02*
X123988300Y-136172300D01*
X125668300Y-136172300D02*
X126508300Y-136172300D01*
X123178300Y-136132300D02*
X123988300Y-136132300D01*
X125668300Y-136132300D02*
X126478300Y-136132300D01*
X123209300Y-136092300D02*
X123988300Y-136092300D01*
X125668300Y-136092300D02*
X126447300Y-136092300D01*
X123241300Y-136052300D02*
X123988300Y-136052300D01*
X125668300Y-136052300D02*
X126415300Y-136052300D01*
X123276300Y-136012300D02*
X123988300Y-136012300D01*
X125668300Y-136012300D02*
X126380300Y-136012300D01*
X123312300Y-135972300D02*
X123988300Y-135972300D01*
X125668300Y-135972300D02*
X126344300Y-135972300D01*
X123350300Y-135932300D02*
X123988300Y-135932300D01*
X125668300Y-135932300D02*
X126306300Y-135932300D01*
X123390300Y-135892300D02*
X123988300Y-135892300D01*
X125668300Y-135892300D02*
X126266300Y-135892300D01*
X123432300Y-135852300D02*
X123988300Y-135852300D01*
X125668300Y-135852300D02*
X126224300Y-135852300D01*
X123477300Y-135812300D02*
X126179300Y-135812300D01*
X123524300Y-135772300D02*
X126132300Y-135772300D01*
X123574300Y-135732300D02*
X126082300Y-135732300D01*
X123628300Y-135692300D02*
X126028300Y-135692300D01*
X123686300Y-135652300D02*
X125970300Y-135652300D01*
X123748300Y-135612300D02*
X125908300Y-135612300D01*
X123815300Y-135572300D02*
X125841300Y-135572300D01*
X123888300Y-135532300D02*
X125768300Y-135532300D01*
X123969300Y-135492300D02*
X125687300Y-135492300D01*
X124060300Y-135452300D02*
X125596300Y-135452300D01*
X124164300Y-135412300D02*
X125492300Y-135412300D01*
X124291300Y-135372300D02*
X125365300Y-135372300D01*
X124458300Y-135332300D02*
X125198300Y-135332300D01*
X123633300Y-139683101D02*
X123633300Y-139283101D01*
X123433300Y-139483101D02*
X123833300Y-139483101D01*
X138391700Y-135851900D02*
G75*
G03*
X138391700Y-135851900I-2120000J0D01*
G01*
X136271700Y-136691900D02*
X136271700Y-137931900D01*
X136271700Y-133771900D02*
X136271700Y-135011900D01*
X136311700Y-136691900D02*
X136311700Y-137931900D01*
X136311700Y-133771900D02*
X136311700Y-135011900D01*
X136351700Y-136691900D02*
X136351700Y-137930900D01*
X136351700Y-133772900D02*
X136351700Y-135011900D01*
X136391700Y-133774900D02*
X136391700Y-135011900D01*
X136391700Y-136691900D02*
X136391700Y-137928900D01*
X136431700Y-133777900D02*
X136431700Y-135011900D01*
X136431700Y-136691900D02*
X136431700Y-137925900D01*
X136471700Y-133780900D02*
X136471700Y-135011900D01*
X136471700Y-136691900D02*
X136471700Y-137922900D01*
X136511700Y-133784900D02*
X136511700Y-135011900D01*
X136511700Y-136691900D02*
X136511700Y-137918900D01*
X136551700Y-133789900D02*
X136551700Y-135011900D01*
X136551700Y-136691900D02*
X136551700Y-137913900D01*
X136591700Y-133795900D02*
X136591700Y-135011900D01*
X136591700Y-136691900D02*
X136591700Y-137907900D01*
X136631700Y-133801900D02*
X136631700Y-135011900D01*
X136631700Y-136691900D02*
X136631700Y-137901900D01*
X136671700Y-133809900D02*
X136671700Y-135011900D01*
X136671700Y-136691900D02*
X136671700Y-137893900D01*
X136711700Y-133817900D02*
X136711700Y-135011900D01*
X136711700Y-136691900D02*
X136711700Y-137885900D01*
X136751700Y-133826900D02*
X136751700Y-135011900D01*
X136751700Y-136691900D02*
X136751700Y-137876900D01*
X136791700Y-133835900D02*
X136791700Y-135011900D01*
X136791700Y-136691900D02*
X136791700Y-137867900D01*
X136831700Y-133846900D02*
X136831700Y-135011900D01*
X136831700Y-136691900D02*
X136831700Y-137856900D01*
X136871700Y-133857900D02*
X136871700Y-135011900D01*
X136871700Y-136691900D02*
X136871700Y-137845900D01*
X136911700Y-133869900D02*
X136911700Y-135011900D01*
X136911700Y-136691900D02*
X136911700Y-137833900D01*
X136951700Y-133883900D02*
X136951700Y-135011900D01*
X136951700Y-136691900D02*
X136951700Y-137819900D01*
X136992700Y-133897900D02*
X136992700Y-135011900D01*
X136992700Y-136691900D02*
X136992700Y-137805900D01*
X137032700Y-133911900D02*
X137032700Y-135011900D01*
X137032700Y-136691900D02*
X137032700Y-137791900D01*
X137072700Y-133927900D02*
X137072700Y-135011900D01*
X137072700Y-136691900D02*
X137072700Y-137775900D01*
X137112700Y-133944900D02*
X137112700Y-135011900D01*
X137112700Y-136691900D02*
X137112700Y-137758900D01*
X137152700Y-133962900D02*
X137152700Y-135011900D01*
X137152700Y-136691900D02*
X137152700Y-137740900D01*
X137192700Y-133981900D02*
X137192700Y-135011900D01*
X137192700Y-136691900D02*
X137192700Y-137721900D01*
X137232700Y-134000900D02*
X137232700Y-135011900D01*
X137232700Y-136691900D02*
X137232700Y-137702900D01*
X137272700Y-134021900D02*
X137272700Y-135011900D01*
X137272700Y-136691900D02*
X137272700Y-137681900D01*
X137312700Y-134043900D02*
X137312700Y-135011900D01*
X137312700Y-136691900D02*
X137312700Y-137659900D01*
X137352700Y-134066900D02*
X137352700Y-135011900D01*
X137352700Y-136691900D02*
X137352700Y-137636900D01*
X137392700Y-134091900D02*
X137392700Y-135011900D01*
X137392700Y-136691900D02*
X137392700Y-137611900D01*
X137432700Y-134116900D02*
X137432700Y-135011900D01*
X137432700Y-136691900D02*
X137432700Y-137586900D01*
X137472700Y-134143900D02*
X137472700Y-135011900D01*
X137472700Y-136691900D02*
X137472700Y-137559900D01*
X137512700Y-134171900D02*
X137512700Y-135011900D01*
X137512700Y-136691900D02*
X137512700Y-137531900D01*
X137552700Y-134201900D02*
X137552700Y-135011900D01*
X137552700Y-136691900D02*
X137552700Y-137501900D01*
X137592700Y-134232900D02*
X137592700Y-135011900D01*
X137592700Y-136691900D02*
X137592700Y-137470900D01*
X137632700Y-134264900D02*
X137632700Y-135011900D01*
X137632700Y-136691900D02*
X137632700Y-137438900D01*
X137672700Y-134299900D02*
X137672700Y-135011900D01*
X137672700Y-136691900D02*
X137672700Y-137403900D01*
X137712700Y-134335900D02*
X137712700Y-135011900D01*
X137712700Y-136691900D02*
X137712700Y-137367900D01*
X137752700Y-134373900D02*
X137752700Y-135011900D01*
X137752700Y-136691900D02*
X137752700Y-137329900D01*
X137792700Y-134413900D02*
X137792700Y-135011900D01*
X137792700Y-136691900D02*
X137792700Y-137289900D01*
X137832700Y-134455900D02*
X137832700Y-135011900D01*
X137832700Y-136691900D02*
X137832700Y-137247900D01*
X137872700Y-134500900D02*
X137872700Y-137202900D01*
X137912700Y-134547900D02*
X137912700Y-137155900D01*
X137952700Y-134597900D02*
X137952700Y-137105900D01*
X137992700Y-134651900D02*
X137992700Y-137051900D01*
X138032700Y-134709900D02*
X138032700Y-136993900D01*
X138072700Y-134771900D02*
X138072700Y-136931900D01*
X138112700Y-134838900D02*
X138112700Y-136864900D01*
X138152700Y-134911900D02*
X138152700Y-136791900D01*
X138192700Y-134992900D02*
X138192700Y-136710900D01*
X138232700Y-135083900D02*
X138232700Y-136619900D01*
X138272700Y-135187900D02*
X138272700Y-136515900D01*
X138312700Y-135314900D02*
X138312700Y-136388900D01*
X138352700Y-135481900D02*
X138352700Y-136221900D01*
X134001899Y-134656900D02*
X134401899Y-134656900D01*
X134201899Y-134456900D02*
X134201899Y-134856900D01*
X85654724Y-63822500D02*
X85145276Y-63822500D01*
X85654724Y-62777500D02*
X85145276Y-62777500D01*
X96941724Y-32590000D02*
X96432276Y-32590000D01*
X96941724Y-31545000D02*
X96432276Y-31545000D01*
X89954724Y-63822500D02*
X89445276Y-63822500D01*
X89954724Y-62777500D02*
X89445276Y-62777500D01*
X85041000Y-25930776D02*
X85041000Y-26440224D01*
X83996000Y-25930776D02*
X83996000Y-26440224D01*
X83378000Y-74563500D02*
X83378000Y-78623500D01*
X83378000Y-78623500D02*
X86548000Y-78623500D01*
X86548000Y-78623500D02*
X86548000Y-74563500D01*
X83124000Y-39421000D02*
X83124000Y-43481000D01*
X83124000Y-43481000D02*
X86294000Y-43481000D01*
X86294000Y-43481000D02*
X86294000Y-39421000D01*
X100465000Y-70917000D02*
X100465000Y-74977000D01*
X100465000Y-74977000D02*
X102735000Y-74977000D01*
X102735000Y-74977000D02*
X102735000Y-70917000D01*
X93480000Y-38876500D02*
X93480000Y-42936500D01*
X93480000Y-42936500D02*
X95750000Y-42936500D01*
X95750000Y-42936500D02*
X95750000Y-38876500D01*
X70470000Y-71556000D02*
X75470000Y-71556000D01*
X70470000Y-74556000D02*
X70470000Y-71556000D01*
X75470000Y-74556000D02*
X70470000Y-74556000D01*
X75470000Y-71556000D02*
X75470000Y-74556000D01*
X70470000Y-71556000D02*
X75470000Y-74556000D01*
X72970000Y-71556000D02*
X72970000Y-67056000D01*
X72970000Y-79056000D02*
X72970000Y-74556000D01*
X76370000Y-73056000D02*
X76370000Y-69356000D01*
X69470000Y-73056000D02*
X69470000Y-69356000D01*
X69470000Y-69356000D02*
X76370000Y-69356000D01*
X67970000Y-73056000D02*
X63470000Y-75756000D01*
X69470000Y-73056000D02*
X67970000Y-73056000D01*
X72970000Y-79056000D02*
X75270000Y-79056000D01*
X76370000Y-73056000D02*
X77270000Y-73056000D01*
X75270000Y-67056000D02*
X72970000Y-67056000D01*
X64770000Y-77356000D02*
X64770000Y-75056000D01*
X64770000Y-68756000D02*
X64770000Y-71056000D01*
X61270000Y-65356000D02*
X80470000Y-65356000D01*
X61270000Y-80756000D02*
X61270000Y-65356000D01*
X80470000Y-80756000D02*
X61270000Y-80756000D01*
X80470000Y-80756000D02*
X80470000Y-74256000D01*
X80470000Y-71856000D02*
X80470000Y-65356000D01*
X70216000Y-35361000D02*
X75216000Y-35361000D01*
X70216000Y-38361000D02*
X70216000Y-35361000D01*
X75216000Y-38361000D02*
X70216000Y-38361000D01*
X75216000Y-35361000D02*
X75216000Y-38361000D01*
X70216000Y-35361000D02*
X75216000Y-38361000D01*
X72716000Y-35361000D02*
X72716000Y-30861000D01*
X72716000Y-42861000D02*
X72716000Y-38361000D01*
X76116000Y-36861000D02*
X76116000Y-33161000D01*
X69216000Y-36861000D02*
X69216000Y-33161000D01*
X69216000Y-33161000D02*
X76116000Y-33161000D01*
X67716000Y-36861000D02*
X63216000Y-39561000D01*
X69216000Y-36861000D02*
X67716000Y-36861000D01*
X72716000Y-42861000D02*
X75016000Y-42861000D01*
X76116000Y-36861000D02*
X77016000Y-36861000D01*
X75016000Y-30861000D02*
X72716000Y-30861000D01*
X64516000Y-41161000D02*
X64516000Y-38861000D01*
X64516000Y-32561000D02*
X64516000Y-34861000D01*
X61016000Y-29161000D02*
X80216000Y-29161000D01*
X61016000Y-44561000D02*
X61016000Y-29161000D01*
X80216000Y-44561000D02*
X61016000Y-44561000D01*
X80216000Y-44561000D02*
X80216000Y-38061000D01*
X80216000Y-35661000D02*
X80216000Y-29161000D01*
X97227000Y-77492000D02*
X97227000Y-73892000D01*
X97215478Y-73853522D02*
G75*
G03*
X92777000Y-75692000I-1838478J-1838478D01*
G01*
X97215478Y-77530478D02*
G75*
G02*
X92777000Y-75692000I-1838478J1838478D01*
G01*
X105799500Y-33740500D02*
X105799500Y-30140500D01*
X105787978Y-30102022D02*
G75*
G03*
X101349500Y-31940500I-1838478J-1838478D01*
G01*
X105787978Y-33778978D02*
G75*
G02*
X101349500Y-31940500I-1838478J1838478D01*
G01*
D13*
X84507000Y-70866000D02*
X91007000Y-70866000D01*
X84507000Y-65786000D02*
X91007000Y-65786000D01*
D12*
X92937000Y-69596000D02*
G75*
G03*
X92937000Y-69596000I-100000J0D01*
G01*
D13*
X91388000Y-29972000D02*
X84888000Y-29972000D01*
X91388000Y-35052000D02*
X84888000Y-35052000D01*
D12*
X83158000Y-31242000D02*
G75*
G03*
X83158000Y-31242000I-100000J0D01*
G01*
D11*
X144618400Y-27486300D02*
X144618400Y-30146300D01*
X147218400Y-27486300D02*
X144618400Y-27486300D01*
X147218400Y-30146300D02*
X144618400Y-30146300D01*
X147218400Y-27486300D02*
X147218400Y-30146300D01*
X148488400Y-27486300D02*
X149818400Y-27486300D01*
X149818400Y-27486300D02*
X149818400Y-28816300D01*
D13*
X59740800Y-150789200D02*
X69900800Y-150789200D01*
X69900800Y-150789200D02*
X69900800Y-157989200D01*
X69900800Y-157989200D02*
X69900800Y-158989200D01*
X69900800Y-158989200D02*
X59740800Y-158989200D01*
X59740800Y-158989200D02*
X59740800Y-157989200D01*
X59740800Y-157989200D02*
X59740800Y-150789200D01*
X59740800Y-157989200D02*
X69900800Y-157989200D01*
X124091700Y-28344300D02*
X113931700Y-28344300D01*
X113931700Y-28344300D02*
X113931700Y-21144300D01*
X113931700Y-21144300D02*
X113931700Y-20144300D01*
X113931700Y-20144300D02*
X124091700Y-20144300D01*
X124091700Y-20144300D02*
X124091700Y-21144300D01*
X124091700Y-21144300D02*
X124091700Y-28344300D01*
X124091700Y-21144300D02*
X113931700Y-21144300D01*
D11*
X102015600Y-64410900D02*
X102015600Y-61750900D01*
X99415600Y-64410900D02*
X102015600Y-64410900D01*
X99415600Y-61750900D02*
X102015600Y-61750900D01*
X99415600Y-64410900D02*
X99415600Y-61750900D01*
X98145600Y-64410900D02*
X96815600Y-64410900D01*
X96815600Y-64410900D02*
X96815600Y-63080900D01*
X92777000Y-24451000D02*
X92777000Y-27111000D01*
X95377000Y-24451000D02*
X92777000Y-24451000D01*
X95377000Y-27111000D02*
X92777000Y-27111000D01*
X95377000Y-24451000D02*
X95377000Y-27111000D01*
X96647000Y-24451000D02*
X97977000Y-24451000D01*
X97977000Y-24451000D02*
X97977000Y-25781000D01*
X104330000Y-39970000D02*
X101670000Y-39970000D01*
X104330000Y-52730000D02*
X104330000Y-39970000D01*
X101670000Y-52730000D02*
X101670000Y-39970000D01*
X104330000Y-52730000D02*
X101670000Y-52730000D01*
X104330000Y-54000000D02*
X104330000Y-55330000D01*
X104330000Y-55330000D02*
X103000000Y-55330000D01*
X100330000Y-107050000D02*
X95130000Y-107050000D01*
X100330000Y-114730000D02*
X100330000Y-107050000D01*
X95130000Y-117330000D02*
X95130000Y-107050000D01*
X100330000Y-114730000D02*
X97730000Y-114730000D01*
X97730000Y-114730000D02*
X97730000Y-117330000D01*
X97730000Y-117330000D02*
X95130000Y-117330000D01*
X100330000Y-116000000D02*
X100330000Y-117330000D01*
X100330000Y-117330000D02*
X99000000Y-117330000D01*
D13*
X156200000Y-138020000D02*
X156200000Y-148180000D01*
X156200000Y-148180000D02*
X149000000Y-148180000D01*
X149000000Y-148180000D02*
X148000000Y-148180000D01*
X148000000Y-148180000D02*
X148000000Y-138020000D01*
X148000000Y-138020000D02*
X149000000Y-138020000D01*
X149000000Y-138020000D02*
X156200000Y-138020000D01*
X149000000Y-138020000D02*
X149000000Y-148180000D01*
D14*
X138811000Y-148780500D02*
X132105400Y-148780500D01*
X138811000Y-152488900D02*
X138811000Y-148780500D01*
X132105400Y-152488900D02*
X138811000Y-152488900D01*
X132105400Y-148780500D02*
X132105400Y-152488900D01*
D11*
X138100000Y-85000000D02*
X138500000Y-85000000D01*
X135500000Y-85000000D02*
X135900000Y-85000000D01*
X147500000Y-85000000D02*
X140700000Y-85000000D01*
X147500000Y-74600000D02*
X147500000Y-75000000D01*
X147500000Y-66900000D02*
X147500000Y-67300000D01*
X147500000Y-41500000D02*
X147500000Y-41900000D01*
X147500000Y-34000000D02*
X147500000Y-34300000D01*
X147500000Y-56800000D02*
X147500000Y-57200000D01*
X147500000Y-72000000D02*
X147500000Y-72400000D01*
X147500000Y-51700000D02*
X147500000Y-52100000D01*
X147500000Y-46600000D02*
X147500000Y-47000000D01*
X147500000Y-59300000D02*
X147500000Y-59700000D01*
X147500000Y-64400000D02*
X147500000Y-64800000D01*
X147500000Y-79600000D02*
X147500000Y-80000000D01*
X147500000Y-82200000D02*
X147500000Y-82600000D01*
X147500000Y-77100000D02*
X147500000Y-77500000D01*
X147500000Y-44100000D02*
X147500000Y-44500000D01*
X147500000Y-36400000D02*
X147500000Y-36800000D01*
X147500000Y-39000000D02*
X147500000Y-39400000D01*
X147500000Y-69500000D02*
X147500000Y-69900000D01*
X147500000Y-61800000D02*
X147500000Y-62200000D01*
X147500000Y-54200000D02*
X147500000Y-54600000D01*
X147500000Y-49100000D02*
X147500000Y-49500000D01*
X126500000Y-82200000D02*
X126500000Y-82600000D01*
X126500000Y-79600000D02*
X126500000Y-80000000D01*
X126500000Y-77100000D02*
X126500000Y-77500000D01*
X126500000Y-74600000D02*
X126500000Y-75000000D01*
X126500000Y-72000000D02*
X126500000Y-72400000D01*
X126500000Y-69500000D02*
X126500000Y-69900000D01*
X126500000Y-66900000D02*
X126500000Y-67300000D01*
X126500000Y-64400000D02*
X126500000Y-64800000D01*
X126500000Y-61800000D02*
X126500000Y-62200000D01*
X126500000Y-59300000D02*
X126500000Y-59700000D01*
X126500000Y-56800000D02*
X126500000Y-57200000D01*
X126500000Y-54200000D02*
X126500000Y-54600000D01*
X126500000Y-51700000D02*
X126500000Y-52100000D01*
X126500000Y-49100000D02*
X126500000Y-49500000D01*
X126500000Y-46600000D02*
X126500000Y-47000000D01*
X126500000Y-44100000D02*
X126500000Y-44500000D01*
X126500000Y-41500000D02*
X126500000Y-41900000D01*
X126500000Y-39000000D02*
X126500000Y-39400000D01*
X126500000Y-36400000D02*
X126500000Y-36800000D01*
X126500000Y-34000000D02*
X126500000Y-34300000D01*
X129507000Y-36667000D02*
X129507000Y-34000000D01*
X126500000Y-36667000D02*
X129507000Y-36667000D01*
X133300000Y-85000000D02*
X126500000Y-85000000D01*
X126500000Y-34000000D02*
X147500000Y-34000000D01*
X149750000Y-116580000D02*
X149750000Y-135060000D01*
X154850000Y-116580000D02*
X154850000Y-135060000D01*
X155970000Y-116580000D02*
X155970000Y-135060000D01*
X149230000Y-116580000D02*
X149230000Y-135060000D01*
X155970000Y-116580000D02*
X149230000Y-116580000D01*
X155970000Y-135060000D02*
X149230000Y-135060000D01*
X149630000Y-116340000D02*
X148990000Y-116340000D01*
X148990000Y-116340000D02*
X148990000Y-116740000D01*
D13*
X64196400Y-125399800D02*
X64196400Y-135559800D01*
X64196400Y-135559800D02*
X56996400Y-135559800D01*
X56996400Y-135559800D02*
X55996400Y-135559800D01*
X55996400Y-135559800D02*
X55996400Y-125399800D01*
X55996400Y-125399800D02*
X56996400Y-125399800D01*
X56996400Y-125399800D02*
X64196400Y-125399800D01*
X56996400Y-125399800D02*
X56996400Y-135559800D01*
D10*
X135884761Y-120319047D02*
X135932380Y-120176190D01*
X135932380Y-119938095D01*
X135884761Y-119842857D01*
X135837142Y-119795238D01*
X135741904Y-119747619D01*
X135646666Y-119747619D01*
X135551428Y-119795238D01*
X135503809Y-119842857D01*
X135456190Y-119938095D01*
X135408571Y-120128571D01*
X135360952Y-120223809D01*
X135313333Y-120271428D01*
X135218095Y-120319047D01*
X135122857Y-120319047D01*
X135027619Y-120271428D01*
X134980000Y-120223809D01*
X134932380Y-120128571D01*
X134932380Y-119890476D01*
X134980000Y-119747619D01*
X134932380Y-119461904D02*
X134932380Y-118890476D01*
X135932380Y-119176190D02*
X134932380Y-119176190D01*
X135408571Y-118557142D02*
X135408571Y-118223809D01*
X135932380Y-118080952D02*
X135932380Y-118557142D01*
X134932380Y-118557142D01*
X134932380Y-118080952D01*
X135932380Y-117652380D02*
X134932380Y-117652380D01*
X134932380Y-117271428D01*
X134980000Y-117176190D01*
X135027619Y-117128571D01*
X135122857Y-117080952D01*
X135265714Y-117080952D01*
X135360952Y-117128571D01*
X135408571Y-117176190D01*
X135456190Y-117271428D01*
X135456190Y-117652380D01*
X134932380Y-128952380D02*
X134932380Y-128380952D01*
X135932380Y-128666666D02*
X134932380Y-128666666D01*
X135932380Y-128047619D02*
X134932380Y-128047619D01*
X135408571Y-128047619D02*
X135408571Y-127476190D01*
X135932380Y-127476190D02*
X134932380Y-127476190D01*
X135932380Y-126428571D02*
X135456190Y-126761904D01*
X135932380Y-127000000D02*
X134932380Y-127000000D01*
X134932380Y-126619047D01*
X134980000Y-126523809D01*
X135027619Y-126476190D01*
X135122857Y-126428571D01*
X135265714Y-126428571D01*
X135360952Y-126476190D01*
X135408571Y-126523809D01*
X135456190Y-126619047D01*
X135456190Y-127000000D01*
X134932380Y-125809523D02*
X134932380Y-125619047D01*
X134980000Y-125523809D01*
X135075238Y-125428571D01*
X135265714Y-125380952D01*
X135599047Y-125380952D01*
X135789523Y-125428571D01*
X135884761Y-125523809D01*
X135932380Y-125619047D01*
X135932380Y-125809523D01*
X135884761Y-125904761D01*
X135789523Y-126000000D01*
X135599047Y-126047619D01*
X135265714Y-126047619D01*
X135075238Y-126000000D01*
X134980000Y-125904761D01*
X134932380Y-125809523D01*
X134932380Y-125095238D02*
X134932380Y-124523809D01*
X135932380Y-124809523D02*
X134932380Y-124809523D01*
X134932380Y-124333333D02*
X134932380Y-123761904D01*
X135932380Y-124047619D02*
X134932380Y-124047619D01*
X135932380Y-122952380D02*
X135932380Y-123428571D01*
X134932380Y-123428571D01*
X135408571Y-122619047D02*
X135408571Y-122285714D01*
X135932380Y-122142857D02*
X135932380Y-122619047D01*
X134932380Y-122619047D01*
X134932380Y-122142857D01*
X77610533Y-142672604D02*
X77610533Y-143244033D01*
X77572438Y-143358319D01*
X77496247Y-143434509D01*
X77381961Y-143472604D01*
X77305771Y-143472604D01*
X77915295Y-142672604D02*
X78410533Y-142672604D01*
X78143866Y-142977366D01*
X78258152Y-142977366D01*
X78334342Y-143015461D01*
X78372438Y-143053557D01*
X78410533Y-143129747D01*
X78410533Y-143320223D01*
X78372438Y-143396414D01*
X78334342Y-143434509D01*
X78258152Y-143472604D01*
X78029580Y-143472604D01*
X77953390Y-143434509D01*
X77915295Y-143396414D01*
X121935442Y-137579966D02*
X121983061Y-137627585D01*
X122030680Y-137770442D01*
X122030680Y-137865680D01*
X121983061Y-138008538D01*
X121887823Y-138103776D01*
X121792585Y-138151395D01*
X121602109Y-138199014D01*
X121459252Y-138199014D01*
X121268776Y-138151395D01*
X121173538Y-138103776D01*
X121078300Y-138008538D01*
X121030680Y-137865680D01*
X121030680Y-137770442D01*
X121078300Y-137627585D01*
X121125919Y-137579966D01*
X121125919Y-137199014D02*
X121078300Y-137151395D01*
X121030680Y-137056157D01*
X121030680Y-136818061D01*
X121078300Y-136722823D01*
X121125919Y-136675204D01*
X121221157Y-136627585D01*
X121316395Y-136627585D01*
X121459252Y-136675204D01*
X122030680Y-137246633D01*
X122030680Y-136627585D01*
X136105033Y-132959042D02*
X136057414Y-133006661D01*
X135914557Y-133054280D01*
X135819319Y-133054280D01*
X135676461Y-133006661D01*
X135581223Y-132911423D01*
X135533604Y-132816185D01*
X135485985Y-132625709D01*
X135485985Y-132482852D01*
X135533604Y-132292376D01*
X135581223Y-132197138D01*
X135676461Y-132101900D01*
X135819319Y-132054280D01*
X135914557Y-132054280D01*
X136057414Y-132101900D01*
X136105033Y-132149519D01*
X137057414Y-133054280D02*
X136485985Y-133054280D01*
X136771700Y-133054280D02*
X136771700Y-132054280D01*
X136676461Y-132197138D01*
X136581223Y-132292376D01*
X136485985Y-132339995D01*
X85233333Y-65182380D02*
X84900000Y-64706190D01*
X84661904Y-65182380D02*
X84661904Y-64182380D01*
X85042857Y-64182380D01*
X85138095Y-64230000D01*
X85185714Y-64277619D01*
X85233333Y-64372857D01*
X85233333Y-64515714D01*
X85185714Y-64610952D01*
X85138095Y-64658571D01*
X85042857Y-64706190D01*
X84661904Y-64706190D01*
X86090476Y-64515714D02*
X86090476Y-65182380D01*
X85852380Y-64134761D02*
X85614285Y-64849047D01*
X86233333Y-64849047D01*
X96520333Y-33949880D02*
X96187000Y-33473690D01*
X95948904Y-33949880D02*
X95948904Y-32949880D01*
X96329857Y-32949880D01*
X96425095Y-32997500D01*
X96472714Y-33045119D01*
X96520333Y-33140357D01*
X96520333Y-33283214D01*
X96472714Y-33378452D01*
X96425095Y-33426071D01*
X96329857Y-33473690D01*
X95948904Y-33473690D01*
X96853666Y-32949880D02*
X97472714Y-32949880D01*
X97139380Y-33330833D01*
X97282238Y-33330833D01*
X97377476Y-33378452D01*
X97425095Y-33426071D01*
X97472714Y-33521309D01*
X97472714Y-33759404D01*
X97425095Y-33854642D01*
X97377476Y-33902261D01*
X97282238Y-33949880D01*
X96996523Y-33949880D01*
X96901285Y-33902261D01*
X96853666Y-33854642D01*
X89533333Y-65182380D02*
X89200000Y-64706190D01*
X88961904Y-65182380D02*
X88961904Y-64182380D01*
X89342857Y-64182380D01*
X89438095Y-64230000D01*
X89485714Y-64277619D01*
X89533333Y-64372857D01*
X89533333Y-64515714D01*
X89485714Y-64610952D01*
X89438095Y-64658571D01*
X89342857Y-64706190D01*
X88961904Y-64706190D01*
X89914285Y-64277619D02*
X89961904Y-64230000D01*
X90057142Y-64182380D01*
X90295238Y-64182380D01*
X90390476Y-64230000D01*
X90438095Y-64277619D01*
X90485714Y-64372857D01*
X90485714Y-64468095D01*
X90438095Y-64610952D01*
X89866666Y-65182380D01*
X90485714Y-65182380D01*
X86400880Y-26352166D02*
X85924690Y-26685500D01*
X86400880Y-26923595D02*
X85400880Y-26923595D01*
X85400880Y-26542642D01*
X85448500Y-26447404D01*
X85496119Y-26399785D01*
X85591357Y-26352166D01*
X85734214Y-26352166D01*
X85829452Y-26399785D01*
X85877071Y-26447404D01*
X85924690Y-26542642D01*
X85924690Y-26923595D01*
X86400880Y-25399785D02*
X86400880Y-25971214D01*
X86400880Y-25685500D02*
X85400880Y-25685500D01*
X85543738Y-25780738D01*
X85638976Y-25875976D01*
X85686595Y-25971214D01*
X83135380Y-76901595D02*
X82135380Y-76901595D01*
X82135380Y-76663500D01*
X82183000Y-76520642D01*
X82278238Y-76425404D01*
X82373476Y-76377785D01*
X82563952Y-76330166D01*
X82706809Y-76330166D01*
X82897285Y-76377785D01*
X82992523Y-76425404D01*
X83087761Y-76520642D01*
X83135380Y-76663500D01*
X83135380Y-76901595D01*
X82468714Y-75473023D02*
X83135380Y-75473023D01*
X82087761Y-75711119D02*
X82802047Y-75949214D01*
X82802047Y-75330166D01*
X82881380Y-41759095D02*
X81881380Y-41759095D01*
X81881380Y-41521000D01*
X81929000Y-41378142D01*
X82024238Y-41282904D01*
X82119476Y-41235285D01*
X82309952Y-41187666D01*
X82452809Y-41187666D01*
X82643285Y-41235285D01*
X82738523Y-41282904D01*
X82833761Y-41378142D01*
X82881380Y-41521000D01*
X82881380Y-41759095D01*
X81881380Y-40854333D02*
X81881380Y-40235285D01*
X82262333Y-40568619D01*
X82262333Y-40425761D01*
X82309952Y-40330523D01*
X82357571Y-40282904D01*
X82452809Y-40235285D01*
X82690904Y-40235285D01*
X82786142Y-40282904D01*
X82833761Y-40330523D01*
X82881380Y-40425761D01*
X82881380Y-40711476D01*
X82833761Y-40806714D01*
X82786142Y-40854333D01*
X100232380Y-73255095D02*
X99232380Y-73255095D01*
X99232380Y-73017000D01*
X99280000Y-72874142D01*
X99375238Y-72778904D01*
X99470476Y-72731285D01*
X99660952Y-72683666D01*
X99803809Y-72683666D01*
X99994285Y-72731285D01*
X100089523Y-72778904D01*
X100184761Y-72874142D01*
X100232380Y-73017000D01*
X100232380Y-73255095D01*
X99327619Y-72302714D02*
X99280000Y-72255095D01*
X99232380Y-72159857D01*
X99232380Y-71921761D01*
X99280000Y-71826523D01*
X99327619Y-71778904D01*
X99422857Y-71731285D01*
X99518095Y-71731285D01*
X99660952Y-71778904D01*
X100232380Y-72350333D01*
X100232380Y-71731285D01*
X93247380Y-41214595D02*
X92247380Y-41214595D01*
X92247380Y-40976500D01*
X92295000Y-40833642D01*
X92390238Y-40738404D01*
X92485476Y-40690785D01*
X92675952Y-40643166D01*
X92818809Y-40643166D01*
X93009285Y-40690785D01*
X93104523Y-40738404D01*
X93199761Y-40833642D01*
X93247380Y-40976500D01*
X93247380Y-41214595D01*
X93247380Y-39690785D02*
X93247380Y-40262214D01*
X93247380Y-39976500D02*
X92247380Y-39976500D01*
X92390238Y-40071738D01*
X92485476Y-40166976D01*
X92533095Y-40262214D01*
X70131904Y-64308380D02*
X70131904Y-63308380D01*
X70703333Y-64308380D02*
X70274761Y-63736952D01*
X70703333Y-63308380D02*
X70131904Y-63879809D01*
X71084285Y-63403619D02*
X71131904Y-63356000D01*
X71227142Y-63308380D01*
X71465238Y-63308380D01*
X71560476Y-63356000D01*
X71608095Y-63403619D01*
X71655714Y-63498857D01*
X71655714Y-63594095D01*
X71608095Y-63736952D01*
X71036666Y-64308380D01*
X71655714Y-64308380D01*
X69877904Y-28113380D02*
X69877904Y-27113380D01*
X70449333Y-28113380D02*
X70020761Y-27541952D01*
X70449333Y-27113380D02*
X69877904Y-27684809D01*
X71401714Y-28113380D02*
X70830285Y-28113380D01*
X71116000Y-28113380D02*
X71116000Y-27113380D01*
X71020761Y-27256238D01*
X70925523Y-27351476D01*
X70830285Y-27399095D01*
X92364619Y-75787238D02*
X92317000Y-75882476D01*
X92221761Y-75977714D01*
X92078904Y-76120571D01*
X92031285Y-76215809D01*
X92031285Y-76311047D01*
X92269380Y-76263428D02*
X92221761Y-76358666D01*
X92126523Y-76453904D01*
X91936047Y-76501523D01*
X91602714Y-76501523D01*
X91412238Y-76453904D01*
X91317000Y-76358666D01*
X91269380Y-76263428D01*
X91269380Y-76072952D01*
X91317000Y-75977714D01*
X91412238Y-75882476D01*
X91602714Y-75834857D01*
X91936047Y-75834857D01*
X92126523Y-75882476D01*
X92221761Y-75977714D01*
X92269380Y-76072952D01*
X92269380Y-76263428D01*
X91602714Y-74977714D02*
X92269380Y-74977714D01*
X91221761Y-75215809D02*
X91936047Y-75453904D01*
X91936047Y-74834857D01*
X100937119Y-32035738D02*
X100889500Y-32130976D01*
X100794261Y-32226214D01*
X100651404Y-32369071D01*
X100603785Y-32464309D01*
X100603785Y-32559547D01*
X100841880Y-32511928D02*
X100794261Y-32607166D01*
X100699023Y-32702404D01*
X100508547Y-32750023D01*
X100175214Y-32750023D01*
X99984738Y-32702404D01*
X99889500Y-32607166D01*
X99841880Y-32511928D01*
X99841880Y-32321452D01*
X99889500Y-32226214D01*
X99984738Y-32130976D01*
X100175214Y-32083357D01*
X100508547Y-32083357D01*
X100699023Y-32130976D01*
X100794261Y-32226214D01*
X100841880Y-32321452D01*
X100841880Y-32511928D01*
X99841880Y-31750023D02*
X99841880Y-31130976D01*
X100222833Y-31464309D01*
X100222833Y-31321452D01*
X100270452Y-31226214D01*
X100318071Y-31178595D01*
X100413309Y-31130976D01*
X100651404Y-31130976D01*
X100746642Y-31178595D01*
X100794261Y-31226214D01*
X100841880Y-31321452D01*
X100841880Y-31607166D01*
X100794261Y-31702404D01*
X100746642Y-31750023D01*
X88444180Y-72200884D02*
X88367836Y-72162712D01*
X88291492Y-72086367D01*
X88176976Y-71971851D01*
X88100631Y-71933679D01*
X88024287Y-71933679D01*
X88062459Y-72124539D02*
X87986115Y-72086367D01*
X87909771Y-72010023D01*
X87871599Y-71857335D01*
X87871599Y-71590130D01*
X87909771Y-71437442D01*
X87986115Y-71361098D01*
X88062459Y-71322925D01*
X88215148Y-71322925D01*
X88291492Y-71361098D01*
X88367836Y-71437442D01*
X88406008Y-71590130D01*
X88406008Y-71857335D01*
X88367836Y-72010023D01*
X88291492Y-72086367D01*
X88215148Y-72124539D01*
X88062459Y-72124539D01*
X88711385Y-71399270D02*
X88749557Y-71361098D01*
X88825901Y-71322925D01*
X89016762Y-71322925D01*
X89093106Y-71361098D01*
X89131278Y-71399270D01*
X89169450Y-71475614D01*
X89169450Y-71551958D01*
X89131278Y-71666474D01*
X88673213Y-72124539D01*
X89169450Y-72124539D01*
X87298130Y-29515074D02*
X87221786Y-29476902D01*
X87145442Y-29400557D01*
X87030926Y-29286041D01*
X86954581Y-29247869D01*
X86878237Y-29247869D01*
X86916409Y-29438729D02*
X86840065Y-29400557D01*
X86763721Y-29324213D01*
X86725549Y-29171525D01*
X86725549Y-28904320D01*
X86763721Y-28751632D01*
X86840065Y-28675288D01*
X86916409Y-28637115D01*
X87069098Y-28637115D01*
X87145442Y-28675288D01*
X87221786Y-28751632D01*
X87259958Y-28904320D01*
X87259958Y-29171525D01*
X87221786Y-29324213D01*
X87145442Y-29400557D01*
X87069098Y-29438729D01*
X86916409Y-29438729D01*
X88023400Y-29438729D02*
X87565335Y-29438729D01*
X87794368Y-29438729D02*
X87794368Y-28637115D01*
X87718023Y-28751632D01*
X87641679Y-28827976D01*
X87565335Y-28866148D01*
X150270780Y-29149633D02*
X150985066Y-29149633D01*
X151127923Y-29197252D01*
X151223161Y-29292490D01*
X151270780Y-29435347D01*
X151270780Y-29530585D01*
X151270780Y-28625823D02*
X151270780Y-28435347D01*
X151223161Y-28340109D01*
X151175542Y-28292490D01*
X151032685Y-28197252D01*
X150842209Y-28149633D01*
X150461257Y-28149633D01*
X150366019Y-28197252D01*
X150318400Y-28244871D01*
X150270780Y-28340109D01*
X150270780Y-28530585D01*
X150318400Y-28625823D01*
X150366019Y-28673442D01*
X150461257Y-28721061D01*
X150699352Y-28721061D01*
X150794590Y-28673442D01*
X150842209Y-28625823D01*
X150889828Y-28530585D01*
X150889828Y-28340109D01*
X150842209Y-28244871D01*
X150794590Y-28197252D01*
X150699352Y-28149633D01*
X63359532Y-148725519D02*
X63359532Y-149441261D01*
X63311815Y-149584409D01*
X63216383Y-149679842D01*
X63073235Y-149727558D01*
X62977802Y-149727558D01*
X63979841Y-149154964D02*
X63884409Y-149107248D01*
X63836693Y-149059532D01*
X63788977Y-148964100D01*
X63788977Y-148916383D01*
X63836693Y-148820951D01*
X63884409Y-148773235D01*
X63979841Y-148725519D01*
X64170706Y-148725519D01*
X64266138Y-148773235D01*
X64313854Y-148820951D01*
X64361571Y-148916383D01*
X64361571Y-148964100D01*
X64313854Y-149059532D01*
X64266138Y-149107248D01*
X64170706Y-149154964D01*
X63979841Y-149154964D01*
X63884409Y-149202680D01*
X63836693Y-149250396D01*
X63788977Y-149345829D01*
X63788977Y-149536693D01*
X63836693Y-149632126D01*
X63884409Y-149679842D01*
X63979841Y-149727558D01*
X64170706Y-149727558D01*
X64266138Y-149679842D01*
X64313854Y-149632126D01*
X64361571Y-149536693D01*
X64361571Y-149345829D01*
X64313854Y-149250396D01*
X64266138Y-149202680D01*
X64170706Y-149154964D01*
X118601487Y-24000364D02*
X118601487Y-24716106D01*
X118553770Y-24859254D01*
X118458338Y-24954687D01*
X118315190Y-25002403D01*
X118219757Y-25002403D01*
X118983216Y-24000364D02*
X119651242Y-24000364D01*
X119221796Y-25002403D01*
X95267980Y-63414233D02*
X95982266Y-63414233D01*
X96125123Y-63461852D01*
X96220361Y-63557090D01*
X96267980Y-63699947D01*
X96267980Y-63795185D01*
X95267980Y-62509471D02*
X95267980Y-62699947D01*
X95315600Y-62795185D01*
X95363219Y-62842804D01*
X95506076Y-62938042D01*
X95696552Y-62985661D01*
X96077504Y-62985661D01*
X96172742Y-62938042D01*
X96220361Y-62890423D01*
X96267980Y-62795185D01*
X96267980Y-62604709D01*
X96220361Y-62509471D01*
X96172742Y-62461852D01*
X96077504Y-62414233D01*
X95839409Y-62414233D01*
X95744171Y-62461852D01*
X95696552Y-62509471D01*
X95648933Y-62604709D01*
X95648933Y-62795185D01*
X95696552Y-62890423D01*
X95744171Y-62938042D01*
X95839409Y-62985661D01*
X98429380Y-26114333D02*
X99143666Y-26114333D01*
X99286523Y-26161952D01*
X99381761Y-26257190D01*
X99429380Y-26400047D01*
X99429380Y-26495285D01*
X98762714Y-25209571D02*
X99429380Y-25209571D01*
X98381761Y-25447666D02*
X99096047Y-25685761D01*
X99096047Y-25066714D01*
X102666666Y-55782380D02*
X102666666Y-56496666D01*
X102619047Y-56639523D01*
X102523809Y-56734761D01*
X102380952Y-56782380D01*
X102285714Y-56782380D01*
X103619047Y-55782380D02*
X103142857Y-55782380D01*
X103095238Y-56258571D01*
X103142857Y-56210952D01*
X103238095Y-56163333D01*
X103476190Y-56163333D01*
X103571428Y-56210952D01*
X103619047Y-56258571D01*
X103666666Y-56353809D01*
X103666666Y-56591904D01*
X103619047Y-56687142D01*
X103571428Y-56734761D01*
X103476190Y-56782380D01*
X103238095Y-56782380D01*
X103142857Y-56734761D01*
X103095238Y-56687142D01*
X97396666Y-117782380D02*
X97396666Y-118496666D01*
X97349047Y-118639523D01*
X97253809Y-118734761D01*
X97110952Y-118782380D01*
X97015714Y-118782380D01*
X97825238Y-117877619D02*
X97872857Y-117830000D01*
X97968095Y-117782380D01*
X98206190Y-117782380D01*
X98301428Y-117830000D01*
X98349047Y-117877619D01*
X98396666Y-117972857D01*
X98396666Y-118068095D01*
X98349047Y-118210952D01*
X97777619Y-118782380D01*
X98396666Y-118782380D01*
X145763907Y-137305587D02*
X145907056Y-137353303D01*
X146145637Y-137353303D01*
X146241069Y-137305587D01*
X146288785Y-137257871D01*
X146336501Y-137162438D01*
X146336501Y-137067006D01*
X146288785Y-136971574D01*
X146241069Y-136923858D01*
X146145637Y-136876141D01*
X145954772Y-136828425D01*
X145859340Y-136780709D01*
X145811624Y-136732993D01*
X145763907Y-136637561D01*
X145763907Y-136542128D01*
X145811624Y-136446696D01*
X145859340Y-136398980D01*
X145954772Y-136351264D01*
X146193353Y-136351264D01*
X146336501Y-136398980D01*
X147195392Y-137305587D02*
X147099959Y-137353303D01*
X146909095Y-137353303D01*
X146813663Y-137305587D01*
X146765946Y-137257871D01*
X146718230Y-137162438D01*
X146718230Y-136876141D01*
X146765946Y-136780709D01*
X146813663Y-136732993D01*
X146909095Y-136685277D01*
X147099959Y-136685277D01*
X147195392Y-136732993D01*
X147624837Y-137353303D02*
X147624837Y-136685277D01*
X147624837Y-136876141D02*
X147672553Y-136780709D01*
X147720269Y-136732993D01*
X147815702Y-136685277D01*
X147911134Y-136685277D01*
X148626876Y-137305587D02*
X148531444Y-137353303D01*
X148340579Y-137353303D01*
X148245147Y-137305587D01*
X148197431Y-137210154D01*
X148197431Y-136828425D01*
X148245147Y-136732993D01*
X148340579Y-136685277D01*
X148531444Y-136685277D01*
X148626876Y-136732993D01*
X148674592Y-136828425D01*
X148674592Y-136923858D01*
X148197431Y-137019290D01*
X149008605Y-136685277D02*
X149199470Y-137353303D01*
X149390334Y-136876141D01*
X149581199Y-137353303D01*
X149772063Y-136685277D01*
X149915212Y-137448735D02*
X150678670Y-137448735D01*
X150774102Y-136351264D02*
X151346696Y-136351264D01*
X151060399Y-137353303D02*
X151060399Y-136351264D01*
X152062438Y-137305587D02*
X151967006Y-137353303D01*
X151776141Y-137353303D01*
X151680709Y-137305587D01*
X151632993Y-137210154D01*
X151632993Y-136828425D01*
X151680709Y-136732993D01*
X151776141Y-136685277D01*
X151967006Y-136685277D01*
X152062438Y-136732993D01*
X152110154Y-136828425D01*
X152110154Y-136923858D01*
X151632993Y-137019290D01*
X152539600Y-137353303D02*
X152539600Y-136685277D01*
X152539600Y-136876141D02*
X152587316Y-136780709D01*
X152635032Y-136732993D01*
X152730464Y-136685277D01*
X152825897Y-136685277D01*
X153159910Y-137353303D02*
X153159910Y-136685277D01*
X153159910Y-136780709D02*
X153207626Y-136732993D01*
X153303058Y-136685277D01*
X153446206Y-136685277D01*
X153541639Y-136732993D01*
X153589355Y-136828425D01*
X153589355Y-137353303D01*
X153589355Y-136828425D02*
X153637071Y-136732993D01*
X153732503Y-136685277D01*
X153875652Y-136685277D01*
X153971084Y-136732993D01*
X154018800Y-136828425D01*
X154018800Y-137353303D01*
X154495962Y-137353303D02*
X154495962Y-136685277D01*
X154495962Y-136351264D02*
X154448245Y-136398980D01*
X154495962Y-136446696D01*
X154543678Y-136398980D01*
X154495962Y-136351264D01*
X154495962Y-136446696D01*
X154973123Y-136685277D02*
X154973123Y-137353303D01*
X154973123Y-136780709D02*
X155020839Y-136732993D01*
X155116271Y-136685277D01*
X155259420Y-136685277D01*
X155354852Y-136732993D01*
X155402568Y-136828425D01*
X155402568Y-137353303D01*
X156309175Y-137353303D02*
X156309175Y-136828425D01*
X156261459Y-136732993D01*
X156166027Y-136685277D01*
X155975162Y-136685277D01*
X155879730Y-136732993D01*
X156309175Y-137305587D02*
X156213743Y-137353303D01*
X155975162Y-137353303D01*
X155879730Y-137305587D01*
X155832014Y-137210154D01*
X155832014Y-137114722D01*
X155879730Y-137019290D01*
X155975162Y-136971574D01*
X156213743Y-136971574D01*
X156309175Y-136923858D01*
X156929485Y-137353303D02*
X156834053Y-137305587D01*
X156786336Y-137210154D01*
X156786336Y-136351264D01*
X157263498Y-136446696D02*
X157311214Y-136398980D01*
X157406646Y-136351264D01*
X157645227Y-136351264D01*
X157740659Y-136398980D01*
X157788375Y-136446696D01*
X157836092Y-136542128D01*
X157836092Y-136637561D01*
X157788375Y-136780709D01*
X157215782Y-137353303D01*
X157836092Y-137353303D01*
X138857093Y-150295383D02*
X138857093Y-151623085D01*
X138935193Y-151779285D01*
X139013293Y-151857385D01*
X139169493Y-151935485D01*
X139481894Y-151935485D01*
X139638094Y-151857385D01*
X139716194Y-151779285D01*
X139794294Y-151623085D01*
X139794294Y-150295383D01*
X140497195Y-150451584D02*
X140575295Y-150373484D01*
X140731495Y-150295383D01*
X141121996Y-150295383D01*
X141278196Y-150373484D01*
X141356296Y-150451584D01*
X141434396Y-150607784D01*
X141434396Y-150763984D01*
X141356296Y-150998284D01*
X140419095Y-151935485D01*
X141434396Y-151935485D01*
X136238095Y-58952380D02*
X136238095Y-59761904D01*
X136285714Y-59857142D01*
X136333333Y-59904761D01*
X136428571Y-59952380D01*
X136619047Y-59952380D01*
X136714285Y-59904761D01*
X136761904Y-59857142D01*
X136809523Y-59761904D01*
X136809523Y-58952380D01*
X137809523Y-59952380D02*
X137238095Y-59952380D01*
X137523809Y-59952380D02*
X137523809Y-58952380D01*
X137428571Y-59095238D01*
X137333333Y-59190476D01*
X137238095Y-59238095D01*
X140904761Y-86023809D02*
X141019047Y-86061904D01*
X141209523Y-86061904D01*
X141285714Y-86023809D01*
X141323809Y-85985714D01*
X141361904Y-85909523D01*
X141361904Y-85833333D01*
X141323809Y-85757142D01*
X141285714Y-85719047D01*
X141209523Y-85680952D01*
X141057142Y-85642857D01*
X140980952Y-85604761D01*
X140942857Y-85566666D01*
X140904761Y-85490476D01*
X140904761Y-85414285D01*
X140942857Y-85338095D01*
X140980952Y-85300000D01*
X141057142Y-85261904D01*
X141247619Y-85261904D01*
X141361904Y-85300000D01*
X141628571Y-85261904D02*
X141819047Y-86061904D01*
X141971428Y-85490476D01*
X142123809Y-86061904D01*
X142314285Y-85261904D01*
X142619047Y-86061904D02*
X142619047Y-85261904D01*
X142809523Y-85261904D01*
X142923809Y-85300000D01*
X143000000Y-85376190D01*
X143038095Y-85452380D01*
X143076190Y-85604761D01*
X143076190Y-85719047D01*
X143038095Y-85871428D01*
X143000000Y-85947619D01*
X142923809Y-86023809D01*
X142809523Y-86061904D01*
X142619047Y-86061904D01*
X143419047Y-86061904D02*
X143419047Y-85261904D01*
X143952380Y-85261904D02*
X144104761Y-85261904D01*
X144180952Y-85300000D01*
X144257142Y-85376190D01*
X144295238Y-85528571D01*
X144295238Y-85795238D01*
X144257142Y-85947619D01*
X144180952Y-86023809D01*
X144104761Y-86061904D01*
X143952380Y-86061904D01*
X143876190Y-86023809D01*
X143800000Y-85947619D01*
X143761904Y-85795238D01*
X143761904Y-85528571D01*
X143800000Y-85376190D01*
X143876190Y-85300000D01*
X143952380Y-85261904D01*
X129490476Y-86023809D02*
X129604761Y-86061904D01*
X129795238Y-86061904D01*
X129871428Y-86023809D01*
X129909523Y-85985714D01*
X129947619Y-85909523D01*
X129947619Y-85833333D01*
X129909523Y-85757142D01*
X129871428Y-85719047D01*
X129795238Y-85680952D01*
X129642857Y-85642857D01*
X129566666Y-85604761D01*
X129528571Y-85566666D01*
X129490476Y-85490476D01*
X129490476Y-85414285D01*
X129528571Y-85338095D01*
X129566666Y-85300000D01*
X129642857Y-85261904D01*
X129833333Y-85261904D01*
X129947619Y-85300000D01*
X130214285Y-85261904D02*
X130404761Y-86061904D01*
X130557142Y-85490476D01*
X130709523Y-86061904D01*
X130900000Y-85261904D01*
X131661904Y-85985714D02*
X131623809Y-86023809D01*
X131509523Y-86061904D01*
X131433333Y-86061904D01*
X131319047Y-86023809D01*
X131242857Y-85947619D01*
X131204761Y-85871428D01*
X131166666Y-85719047D01*
X131166666Y-85604761D01*
X131204761Y-85452380D01*
X131242857Y-85376190D01*
X131319047Y-85300000D01*
X131433333Y-85261904D01*
X131509523Y-85261904D01*
X131623809Y-85300000D01*
X131661904Y-85338095D01*
X132385714Y-86061904D02*
X132004761Y-86061904D01*
X132004761Y-85261904D01*
X132652380Y-86061904D02*
X132652380Y-85261904D01*
X133109523Y-86061904D02*
X132766666Y-85604761D01*
X133109523Y-85261904D02*
X132652380Y-85719047D01*
X149151597Y-54240964D02*
X149420971Y-53971590D01*
X149259346Y-54456463D02*
X148882223Y-53702216D01*
X149636470Y-54079340D01*
X149582595Y-53055719D02*
X149501783Y-53082656D01*
X149420971Y-53163468D01*
X149367096Y-53271218D01*
X149367096Y-53378967D01*
X149394033Y-53459780D01*
X149474845Y-53594467D01*
X149555658Y-53675279D01*
X149690345Y-53756091D01*
X149771157Y-53783028D01*
X149878906Y-53783028D01*
X149986656Y-53729154D01*
X150040531Y-53675279D01*
X150094406Y-53567529D01*
X150094406Y-53513654D01*
X149905844Y-53325093D01*
X149798094Y-53432842D01*
X150390717Y-53325093D02*
X149825032Y-52759407D01*
X150713966Y-53001844D01*
X150148280Y-52436158D01*
X150983340Y-52732470D02*
X150417654Y-52166784D01*
X150552341Y-52032097D01*
X150660091Y-51978223D01*
X150767841Y-51978223D01*
X150848653Y-52005160D01*
X150983340Y-52085972D01*
X151064152Y-52166784D01*
X151144964Y-52301471D01*
X151171902Y-52382284D01*
X151171902Y-52490033D01*
X151118027Y-52597783D01*
X150983340Y-52732470D01*
X149086158Y-40598155D02*
X149005346Y-40625093D01*
X148924534Y-40705905D01*
X148870659Y-40813654D01*
X148870659Y-40921404D01*
X148897597Y-41002216D01*
X148978409Y-41136903D01*
X149059221Y-41217715D01*
X149193908Y-41298528D01*
X149274720Y-41325465D01*
X149382470Y-41325465D01*
X149490219Y-41271590D01*
X149544094Y-41217715D01*
X149597969Y-41109966D01*
X149597969Y-41056091D01*
X149409407Y-40867529D01*
X149301658Y-40975279D01*
X149894280Y-40867529D02*
X149328595Y-40301844D01*
X150217529Y-40544280D01*
X149651844Y-39978595D01*
X150486903Y-40274906D02*
X149921218Y-39709221D01*
X150055905Y-39574534D01*
X150163654Y-39520659D01*
X150271404Y-39520659D01*
X150352216Y-39547597D01*
X150486903Y-39628409D01*
X150567715Y-39709221D01*
X150648528Y-39843908D01*
X150675465Y-39924720D01*
X150675465Y-40032470D01*
X150621590Y-40140219D01*
X150486903Y-40274906D01*
X149086158Y-65998155D02*
X149005346Y-66025093D01*
X148924534Y-66105905D01*
X148870659Y-66213654D01*
X148870659Y-66321404D01*
X148897597Y-66402216D01*
X148978409Y-66536903D01*
X149059221Y-66617715D01*
X149193908Y-66698528D01*
X149274720Y-66725465D01*
X149382470Y-66725465D01*
X149490219Y-66671590D01*
X149544094Y-66617715D01*
X149597969Y-66509966D01*
X149597969Y-66456091D01*
X149409407Y-66267529D01*
X149301658Y-66375279D01*
X149894280Y-66267529D02*
X149328595Y-65701844D01*
X150217529Y-65944280D01*
X149651844Y-65378595D01*
X150486903Y-65674906D02*
X149921218Y-65109221D01*
X150055905Y-64974534D01*
X150163654Y-64920659D01*
X150271404Y-64920659D01*
X150352216Y-64947597D01*
X150486903Y-65028409D01*
X150567715Y-65109221D01*
X150648528Y-65243908D01*
X150675465Y-65324720D01*
X150675465Y-65432470D01*
X150621590Y-65540219D01*
X150486903Y-65674906D01*
X149086158Y-78698155D02*
X149005346Y-78725093D01*
X148924534Y-78805905D01*
X148870659Y-78913654D01*
X148870659Y-79021404D01*
X148897597Y-79102216D01*
X148978409Y-79236903D01*
X149059221Y-79317715D01*
X149193908Y-79398528D01*
X149274720Y-79425465D01*
X149382470Y-79425465D01*
X149490219Y-79371590D01*
X149544094Y-79317715D01*
X149597969Y-79209966D01*
X149597969Y-79156091D01*
X149409407Y-78967529D01*
X149301658Y-79075279D01*
X149894280Y-78967529D02*
X149328595Y-78401844D01*
X150217529Y-78644280D01*
X149651844Y-78078595D01*
X150486903Y-78374906D02*
X149921218Y-77809221D01*
X150055905Y-77674534D01*
X150163654Y-77620659D01*
X150271404Y-77620659D01*
X150352216Y-77647597D01*
X150486903Y-77728409D01*
X150567715Y-77809221D01*
X150648528Y-77943908D01*
X150675465Y-78024720D01*
X150675465Y-78132470D01*
X150621590Y-78240219D01*
X150486903Y-78374906D01*
X123486158Y-78698155D02*
X123405346Y-78725093D01*
X123324534Y-78805905D01*
X123270659Y-78913654D01*
X123270659Y-79021404D01*
X123297597Y-79102216D01*
X123378409Y-79236903D01*
X123459221Y-79317715D01*
X123593908Y-79398528D01*
X123674720Y-79425465D01*
X123782470Y-79425465D01*
X123890219Y-79371590D01*
X123944094Y-79317715D01*
X123997969Y-79209966D01*
X123997969Y-79156091D01*
X123809407Y-78967529D01*
X123701658Y-79075279D01*
X124294280Y-78967529D02*
X123728595Y-78401844D01*
X124617529Y-78644280D01*
X124051844Y-78078595D01*
X124886903Y-78374906D02*
X124321218Y-77809221D01*
X124455905Y-77674534D01*
X124563654Y-77620659D01*
X124671404Y-77620659D01*
X124752216Y-77647597D01*
X124886903Y-77728409D01*
X124967715Y-77809221D01*
X125048528Y-77943908D01*
X125075465Y-78024720D01*
X125075465Y-78132470D01*
X125021590Y-78240219D01*
X124886903Y-78374906D01*
X123486158Y-65998155D02*
X123405346Y-66025093D01*
X123324534Y-66105905D01*
X123270659Y-66213654D01*
X123270659Y-66321404D01*
X123297597Y-66402216D01*
X123378409Y-66536903D01*
X123459221Y-66617715D01*
X123593908Y-66698528D01*
X123674720Y-66725465D01*
X123782470Y-66725465D01*
X123890219Y-66671590D01*
X123944094Y-66617715D01*
X123997969Y-66509966D01*
X123997969Y-66456091D01*
X123809407Y-66267529D01*
X123701658Y-66375279D01*
X124294280Y-66267529D02*
X123728595Y-65701844D01*
X124617529Y-65944280D01*
X124051844Y-65378595D01*
X124886903Y-65674906D02*
X124321218Y-65109221D01*
X124455905Y-64974534D01*
X124563654Y-64920659D01*
X124671404Y-64920659D01*
X124752216Y-64947597D01*
X124886903Y-65028409D01*
X124967715Y-65109221D01*
X125048528Y-65243908D01*
X125075465Y-65324720D01*
X125075465Y-65432470D01*
X125021590Y-65540219D01*
X124886903Y-65674906D01*
X123486158Y-53298155D02*
X123405346Y-53325093D01*
X123324534Y-53405905D01*
X123270659Y-53513654D01*
X123270659Y-53621404D01*
X123297597Y-53702216D01*
X123378409Y-53836903D01*
X123459221Y-53917715D01*
X123593908Y-53998528D01*
X123674720Y-54025465D01*
X123782470Y-54025465D01*
X123890219Y-53971590D01*
X123944094Y-53917715D01*
X123997969Y-53809966D01*
X123997969Y-53756091D01*
X123809407Y-53567529D01*
X123701658Y-53675279D01*
X124294280Y-53567529D02*
X123728595Y-53001844D01*
X124617529Y-53244280D01*
X124051844Y-52678595D01*
X124886903Y-52974906D02*
X124321218Y-52409221D01*
X124455905Y-52274534D01*
X124563654Y-52220659D01*
X124671404Y-52220659D01*
X124752216Y-52247597D01*
X124886903Y-52328409D01*
X124967715Y-52409221D01*
X125048528Y-52543908D01*
X125075465Y-52624720D01*
X125075465Y-52732470D01*
X125021590Y-52840219D01*
X124886903Y-52974906D01*
X123486158Y-40598155D02*
X123405346Y-40625093D01*
X123324534Y-40705905D01*
X123270659Y-40813654D01*
X123270659Y-40921404D01*
X123297597Y-41002216D01*
X123378409Y-41136903D01*
X123459221Y-41217715D01*
X123593908Y-41298528D01*
X123674720Y-41325465D01*
X123782470Y-41325465D01*
X123890219Y-41271590D01*
X123944094Y-41217715D01*
X123997969Y-41109966D01*
X123997969Y-41056091D01*
X123809407Y-40867529D01*
X123701658Y-40975279D01*
X124294280Y-40867529D02*
X123728595Y-40301844D01*
X124617529Y-40544280D01*
X124051844Y-39978595D01*
X124886903Y-40274906D02*
X124321218Y-39709221D01*
X124455905Y-39574534D01*
X124563654Y-39520659D01*
X124671404Y-39520659D01*
X124752216Y-39547597D01*
X124886903Y-39628409D01*
X124967715Y-39709221D01*
X125048528Y-39843908D01*
X125075465Y-39924720D01*
X125075465Y-40032470D01*
X125021590Y-40140219D01*
X124886903Y-40274906D01*
X148953129Y-36027309D02*
X149707377Y-36404433D01*
X149330253Y-35650186D01*
X149976751Y-35542436D02*
X150084500Y-35488561D01*
X150138375Y-35488561D01*
X150219187Y-35515499D01*
X150300000Y-35596311D01*
X150326937Y-35677123D01*
X150326937Y-35730998D01*
X150300000Y-35811810D01*
X150084500Y-36027309D01*
X149518815Y-35461624D01*
X149707377Y-35273062D01*
X149788189Y-35246125D01*
X149842064Y-35246125D01*
X149922876Y-35273062D01*
X149976751Y-35326937D01*
X150003688Y-35407749D01*
X150003688Y-35461624D01*
X149976751Y-35542436D01*
X149788189Y-35730998D01*
X150084500Y-34895938D02*
X150542436Y-35353874D01*
X150623248Y-35380812D01*
X150677123Y-35380812D01*
X150757935Y-35353874D01*
X150865685Y-35246125D01*
X150892622Y-35165312D01*
X150892622Y-35111438D01*
X150865685Y-35030625D01*
X150407749Y-34572690D01*
X151188934Y-34869001D02*
X151296683Y-34815126D01*
X151431370Y-34680439D01*
X151458308Y-34599627D01*
X151458308Y-34545752D01*
X151431370Y-34464940D01*
X151377496Y-34411065D01*
X151296683Y-34384128D01*
X151242809Y-34384128D01*
X151161996Y-34411065D01*
X151027309Y-34491877D01*
X150946497Y-34518815D01*
X150892622Y-34518815D01*
X150811810Y-34491877D01*
X150757935Y-34438003D01*
X150730998Y-34357190D01*
X150730998Y-34303316D01*
X150757935Y-34222503D01*
X150892622Y-34087816D01*
X151000372Y-34033942D01*
X148920473Y-38569966D02*
X149674720Y-38947089D01*
X149297597Y-38192842D01*
X149997969Y-38569966D02*
X150105719Y-38516091D01*
X150240406Y-38381404D01*
X150267343Y-38300592D01*
X150267343Y-38246717D01*
X150240406Y-38165905D01*
X150186531Y-38112030D01*
X150105719Y-38085093D01*
X150051844Y-38085093D01*
X149971032Y-38112030D01*
X149836345Y-38192842D01*
X149755532Y-38219780D01*
X149701658Y-38219780D01*
X149620845Y-38192842D01*
X149566971Y-38138967D01*
X149540033Y-38058155D01*
X149540033Y-38004280D01*
X149566971Y-37923468D01*
X149701658Y-37788781D01*
X149809407Y-37734906D01*
X150428967Y-37654094D02*
X150698341Y-37923468D01*
X149944094Y-37546345D02*
X150428967Y-37654094D01*
X150321218Y-37169221D01*
X151021590Y-37546345D02*
X151129340Y-37492470D01*
X151264027Y-37357783D01*
X151290964Y-37276971D01*
X151290964Y-37223096D01*
X151264027Y-37142284D01*
X151210152Y-37088409D01*
X151129340Y-37061471D01*
X151075465Y-37061471D01*
X150994653Y-37088409D01*
X150859966Y-37169221D01*
X150779154Y-37196158D01*
X150725279Y-37196158D01*
X150644467Y-37169221D01*
X150590592Y-37115346D01*
X150563654Y-37034534D01*
X150563654Y-36980659D01*
X150590592Y-36899847D01*
X150725279Y-36765160D01*
X150833028Y-36711285D01*
X148922131Y-43458308D02*
X149272317Y-43108122D01*
X149299255Y-43512183D01*
X149380067Y-43431370D01*
X149460879Y-43404433D01*
X149514754Y-43404433D01*
X149595566Y-43431370D01*
X149730253Y-43566057D01*
X149757190Y-43646870D01*
X149757190Y-43700744D01*
X149730253Y-43781557D01*
X149568629Y-43943181D01*
X149487816Y-43970118D01*
X149433942Y-43970118D01*
X149433942Y-42946497D02*
X150188189Y-43323621D01*
X149811065Y-42569374D01*
X149945752Y-42434687D02*
X150295938Y-42084500D01*
X150322876Y-42488561D01*
X150403688Y-42407749D01*
X150484500Y-42380812D01*
X150538375Y-42380812D01*
X150619187Y-42407749D01*
X150753874Y-42542436D01*
X150780812Y-42623248D01*
X150780812Y-42677123D01*
X150753874Y-42757935D01*
X150592250Y-42919560D01*
X150511438Y-42946497D01*
X150457563Y-42946497D01*
X151023248Y-42596311D02*
X151454247Y-42165312D01*
X151238748Y-41680439D02*
X151427309Y-41491877D01*
X151804433Y-41707377D02*
X151535059Y-41976751D01*
X150969374Y-41411065D01*
X151238748Y-41141691D01*
X152046870Y-41464940D02*
X151481184Y-40899255D01*
X152370118Y-41141691D01*
X151804433Y-40576006D01*
X148889847Y-45990592D02*
X149240033Y-45640406D01*
X149266971Y-46044467D01*
X149347783Y-45963654D01*
X149428595Y-45936717D01*
X149482470Y-45936717D01*
X149563282Y-45963654D01*
X149697969Y-46098341D01*
X149724906Y-46179154D01*
X149724906Y-46233028D01*
X149697969Y-46313841D01*
X149536345Y-46475465D01*
X149455532Y-46502402D01*
X149401658Y-46502402D01*
X149401658Y-45478781D02*
X150155905Y-45855905D01*
X149778781Y-45101658D01*
X149913468Y-44966971D02*
X150263654Y-44616784D01*
X150290592Y-45020845D01*
X150371404Y-44940033D01*
X150452216Y-44913096D01*
X150506091Y-44913096D01*
X150586903Y-44940033D01*
X150721590Y-45074720D01*
X150748528Y-45155532D01*
X150748528Y-45209407D01*
X150721590Y-45290219D01*
X150559966Y-45451844D01*
X150479154Y-45478781D01*
X150425279Y-45478781D01*
X149154788Y-49033773D02*
X149424162Y-48764399D01*
X149262537Y-49249272D02*
X148885414Y-48495025D01*
X149639661Y-48872149D01*
X149828223Y-48683587D02*
X149262537Y-48117902D01*
X149397224Y-47983215D01*
X149504974Y-47929340D01*
X149612723Y-47929340D01*
X149693536Y-47956277D01*
X149828223Y-48037089D01*
X149909035Y-48117902D01*
X149989847Y-48252589D01*
X150016784Y-48333401D01*
X150016784Y-48441150D01*
X149962910Y-48548900D01*
X149828223Y-48683587D01*
X150663282Y-47740778D02*
X150663282Y-47794653D01*
X150609407Y-47902402D01*
X150555532Y-47956277D01*
X150447783Y-48010152D01*
X150340033Y-48010152D01*
X150259221Y-47983215D01*
X150124534Y-47902402D01*
X150043722Y-47821590D01*
X149962910Y-47686903D01*
X149935972Y-47606091D01*
X149935972Y-47498341D01*
X149989847Y-47390592D01*
X150043722Y-47336717D01*
X150151471Y-47282842D01*
X150205346Y-47282842D01*
X150878781Y-47740778D02*
X151309780Y-47309780D01*
X150744094Y-46636345D02*
X151498341Y-47013468D01*
X151121218Y-46259221D01*
X152198714Y-46313096D02*
X151740778Y-46232284D01*
X151875465Y-46636345D02*
X151309780Y-46070659D01*
X151525279Y-45855160D01*
X151606091Y-45828223D01*
X151659966Y-45828223D01*
X151740778Y-45855160D01*
X151821590Y-45935972D01*
X151848528Y-46016784D01*
X151848528Y-46070659D01*
X151821590Y-46151471D01*
X151606091Y-46366971D01*
X152144839Y-45774348D02*
X152333401Y-45585786D01*
X152710524Y-45801285D02*
X152441150Y-46070659D01*
X151875465Y-45504974D01*
X152144839Y-45235600D01*
X152845211Y-45073975D02*
X152656650Y-45262537D01*
X152952961Y-45558849D02*
X152387276Y-44993163D01*
X152656650Y-44723789D01*
X149097722Y-50746592D02*
X149016910Y-50773529D01*
X148936097Y-50854341D01*
X148882223Y-50962091D01*
X148882223Y-51069841D01*
X148909160Y-51150653D01*
X148989972Y-51285340D01*
X149070784Y-51366152D01*
X149205471Y-51446964D01*
X149286284Y-51473902D01*
X149394033Y-51473902D01*
X149501783Y-51420027D01*
X149555658Y-51366152D01*
X149609532Y-51258402D01*
X149609532Y-51204528D01*
X149420971Y-51015966D01*
X149313221Y-51123715D01*
X149905844Y-51015966D02*
X149340158Y-50450280D01*
X149555658Y-50234781D01*
X149636470Y-50207844D01*
X149690345Y-50207844D01*
X149771157Y-50234781D01*
X149851969Y-50315593D01*
X149878906Y-50396406D01*
X149878906Y-50450280D01*
X149851969Y-50531093D01*
X149636470Y-50746592D01*
X149932781Y-49965407D02*
X149932781Y-49911532D01*
X149959719Y-49830720D01*
X150094406Y-49696033D01*
X150175218Y-49669096D01*
X150229093Y-49669096D01*
X150309905Y-49696033D01*
X150363780Y-49749908D01*
X150417654Y-49857658D01*
X150417654Y-50504155D01*
X150767841Y-50153969D01*
X150767841Y-49507471D02*
X150687028Y-49534409D01*
X150633154Y-49534409D01*
X150552341Y-49507471D01*
X150525404Y-49480534D01*
X150498467Y-49399722D01*
X150498467Y-49345847D01*
X150525404Y-49265035D01*
X150633154Y-49157285D01*
X150713966Y-49130348D01*
X150767841Y-49130348D01*
X150848653Y-49157285D01*
X150875590Y-49184223D01*
X150902528Y-49265035D01*
X150902528Y-49318910D01*
X150875590Y-49399722D01*
X150767841Y-49507471D01*
X150740903Y-49588284D01*
X150740903Y-49642158D01*
X150767841Y-49722971D01*
X150875590Y-49830720D01*
X150956402Y-49857658D01*
X151010277Y-49857658D01*
X151091089Y-49830720D01*
X151198839Y-49722971D01*
X151225776Y-49642158D01*
X151225776Y-49588284D01*
X151198839Y-49507471D01*
X151091089Y-49399722D01*
X151010277Y-49372784D01*
X150956402Y-49372784D01*
X150875590Y-49399722D01*
X149097722Y-56090592D02*
X149016910Y-56117529D01*
X148936097Y-56198341D01*
X148882223Y-56306091D01*
X148882223Y-56413841D01*
X148909160Y-56494653D01*
X148989972Y-56629340D01*
X149070784Y-56710152D01*
X149205471Y-56790964D01*
X149286284Y-56817902D01*
X149394033Y-56817902D01*
X149501783Y-56764027D01*
X149555658Y-56710152D01*
X149609532Y-56602402D01*
X149609532Y-56548528D01*
X149420971Y-56359966D01*
X149313221Y-56467715D01*
X149905844Y-56359966D02*
X149340158Y-55794280D01*
X149555658Y-55578781D01*
X149636470Y-55551844D01*
X149690345Y-55551844D01*
X149771157Y-55578781D01*
X149851969Y-55659593D01*
X149878906Y-55740406D01*
X149878906Y-55794280D01*
X149851969Y-55875093D01*
X149636470Y-56090592D01*
X149932781Y-55309407D02*
X149932781Y-55255532D01*
X149959719Y-55174720D01*
X150094406Y-55040033D01*
X150175218Y-55013096D01*
X150229093Y-55013096D01*
X150309905Y-55040033D01*
X150363780Y-55093908D01*
X150417654Y-55201658D01*
X150417654Y-55848155D01*
X150767841Y-55497969D01*
X150390717Y-54743722D02*
X150767841Y-54366598D01*
X151091089Y-55174720D01*
X149097722Y-58620592D02*
X149016910Y-58647529D01*
X148936097Y-58728341D01*
X148882223Y-58836091D01*
X148882223Y-58943841D01*
X148909160Y-59024653D01*
X148989972Y-59159340D01*
X149070784Y-59240152D01*
X149205471Y-59320964D01*
X149286284Y-59347902D01*
X149394033Y-59347902D01*
X149501783Y-59294027D01*
X149555658Y-59240152D01*
X149609532Y-59132402D01*
X149609532Y-59078528D01*
X149420971Y-58889966D01*
X149313221Y-58997715D01*
X149905844Y-58889966D02*
X149340158Y-58324280D01*
X149555658Y-58108781D01*
X149636470Y-58081844D01*
X149690345Y-58081844D01*
X149771157Y-58108781D01*
X149851969Y-58189593D01*
X149878906Y-58270406D01*
X149878906Y-58324280D01*
X149851969Y-58405093D01*
X149636470Y-58620592D01*
X149932781Y-57839407D02*
X149932781Y-57785532D01*
X149959719Y-57704720D01*
X150094406Y-57570033D01*
X150175218Y-57543096D01*
X150229093Y-57543096D01*
X150309905Y-57570033D01*
X150363780Y-57623908D01*
X150417654Y-57731658D01*
X150417654Y-58378155D01*
X150767841Y-58027969D01*
X150687028Y-56977410D02*
X150579279Y-57085160D01*
X150552341Y-57165972D01*
X150552341Y-57219847D01*
X150579279Y-57354534D01*
X150660091Y-57489221D01*
X150875590Y-57704720D01*
X150956402Y-57731658D01*
X151010277Y-57731658D01*
X151091089Y-57704720D01*
X151198839Y-57596971D01*
X151225776Y-57516158D01*
X151225776Y-57462284D01*
X151198839Y-57381471D01*
X151064152Y-57246784D01*
X150983340Y-57219847D01*
X150929465Y-57219847D01*
X150848653Y-57246784D01*
X150740903Y-57354534D01*
X150713966Y-57435346D01*
X150713966Y-57489221D01*
X150740903Y-57570033D01*
X149838375Y-61443435D02*
X149380439Y-61362622D01*
X149515126Y-61766683D02*
X148949441Y-61200998D01*
X149164940Y-60985499D01*
X149245752Y-60958561D01*
X149299627Y-60958561D01*
X149380439Y-60985499D01*
X149461251Y-61066311D01*
X149488189Y-61147123D01*
X149488189Y-61200998D01*
X149461251Y-61281810D01*
X149245752Y-61497309D01*
X149515126Y-60635312D02*
X149973062Y-61093248D01*
X150053874Y-61120186D01*
X150107749Y-61120186D01*
X150188561Y-61093248D01*
X150296311Y-60985499D01*
X150323248Y-60904687D01*
X150323248Y-60850812D01*
X150296311Y-60769999D01*
X149838375Y-60312064D01*
X150673435Y-60608375D02*
X150107749Y-60042690D01*
X150996683Y-60285126D01*
X150430998Y-59719441D01*
X149097722Y-63700592D02*
X149016910Y-63727529D01*
X148936097Y-63808341D01*
X148882223Y-63916091D01*
X148882223Y-64023841D01*
X148909160Y-64104653D01*
X148989972Y-64239340D01*
X149070784Y-64320152D01*
X149205471Y-64400964D01*
X149286284Y-64427902D01*
X149394033Y-64427902D01*
X149501783Y-64374027D01*
X149555658Y-64320152D01*
X149609532Y-64212402D01*
X149609532Y-64158528D01*
X149420971Y-63969966D01*
X149313221Y-64077715D01*
X149905844Y-63969966D02*
X149340158Y-63404280D01*
X149555658Y-63188781D01*
X149636470Y-63161844D01*
X149690345Y-63161844D01*
X149771157Y-63188781D01*
X149851969Y-63269593D01*
X149878906Y-63350406D01*
X149878906Y-63404280D01*
X149851969Y-63485093D01*
X149636470Y-63700592D01*
X149932781Y-62919407D02*
X149932781Y-62865532D01*
X149959719Y-62784720D01*
X150094406Y-62650033D01*
X150175218Y-62623096D01*
X150229093Y-62623096D01*
X150309905Y-62650033D01*
X150363780Y-62703908D01*
X150417654Y-62811658D01*
X150417654Y-63458155D01*
X150767841Y-63107969D01*
X150471529Y-62380659D02*
X150471529Y-62326784D01*
X150498467Y-62245972D01*
X150633154Y-62111285D01*
X150713966Y-62084348D01*
X150767841Y-62084348D01*
X150848653Y-62111285D01*
X150902528Y-62165160D01*
X150956402Y-62272910D01*
X150956402Y-62919407D01*
X151306589Y-62569221D01*
X149097722Y-68790592D02*
X149016910Y-68817529D01*
X148936097Y-68898341D01*
X148882223Y-69006091D01*
X148882223Y-69113841D01*
X148909160Y-69194653D01*
X148989972Y-69329340D01*
X149070784Y-69410152D01*
X149205471Y-69490964D01*
X149286284Y-69517902D01*
X149394033Y-69517902D01*
X149501783Y-69464027D01*
X149555658Y-69410152D01*
X149609532Y-69302402D01*
X149609532Y-69248528D01*
X149420971Y-69059966D01*
X149313221Y-69167715D01*
X149905844Y-69059966D02*
X149340158Y-68494280D01*
X149555658Y-68278781D01*
X149636470Y-68251844D01*
X149690345Y-68251844D01*
X149771157Y-68278781D01*
X149851969Y-68359593D01*
X149878906Y-68440406D01*
X149878906Y-68494280D01*
X149851969Y-68575093D01*
X149636470Y-68790592D01*
X149932781Y-68009407D02*
X149932781Y-67955532D01*
X149959719Y-67874720D01*
X150094406Y-67740033D01*
X150175218Y-67713096D01*
X150229093Y-67713096D01*
X150309905Y-67740033D01*
X150363780Y-67793908D01*
X150417654Y-67901658D01*
X150417654Y-68548155D01*
X150767841Y-68197969D01*
X151306589Y-67659221D02*
X150983340Y-67982470D01*
X151144964Y-67820845D02*
X150579279Y-67255160D01*
X150606216Y-67389847D01*
X150606216Y-67497597D01*
X150579279Y-67578409D01*
X149097722Y-71320592D02*
X149016910Y-71347529D01*
X148936097Y-71428341D01*
X148882223Y-71536091D01*
X148882223Y-71643841D01*
X148909160Y-71724653D01*
X148989972Y-71859340D01*
X149070784Y-71940152D01*
X149205471Y-72020964D01*
X149286284Y-72047902D01*
X149394033Y-72047902D01*
X149501783Y-71994027D01*
X149555658Y-71940152D01*
X149609532Y-71832402D01*
X149609532Y-71778528D01*
X149420971Y-71589966D01*
X149313221Y-71697715D01*
X149905844Y-71589966D02*
X149340158Y-71024280D01*
X149555658Y-70808781D01*
X149636470Y-70781844D01*
X149690345Y-70781844D01*
X149771157Y-70808781D01*
X149851969Y-70889593D01*
X149878906Y-70970406D01*
X149878906Y-71024280D01*
X149851969Y-71105093D01*
X149636470Y-71320592D01*
X149932781Y-70539407D02*
X149932781Y-70485532D01*
X149959719Y-70404720D01*
X150094406Y-70270033D01*
X150175218Y-70243096D01*
X150229093Y-70243096D01*
X150309905Y-70270033D01*
X150363780Y-70323908D01*
X150417654Y-70431658D01*
X150417654Y-71078155D01*
X150767841Y-70727969D01*
X150552341Y-69812097D02*
X150606216Y-69758223D01*
X150687028Y-69731285D01*
X150740903Y-69731285D01*
X150821715Y-69758223D01*
X150956402Y-69839035D01*
X151091089Y-69973722D01*
X151171902Y-70108409D01*
X151198839Y-70189221D01*
X151198839Y-70243096D01*
X151171902Y-70323908D01*
X151118027Y-70377783D01*
X151037215Y-70404720D01*
X150983340Y-70404720D01*
X150902528Y-70377783D01*
X150767841Y-70296971D01*
X150633154Y-70162284D01*
X150552341Y-70027597D01*
X150525404Y-69946784D01*
X150525404Y-69892910D01*
X150552341Y-69812097D01*
X149097722Y-73860592D02*
X149016910Y-73887529D01*
X148936097Y-73968341D01*
X148882223Y-74076091D01*
X148882223Y-74183841D01*
X148909160Y-74264653D01*
X148989972Y-74399340D01*
X149070784Y-74480152D01*
X149205471Y-74560964D01*
X149286284Y-74587902D01*
X149394033Y-74587902D01*
X149501783Y-74534027D01*
X149555658Y-74480152D01*
X149609532Y-74372402D01*
X149609532Y-74318528D01*
X149420971Y-74129966D01*
X149313221Y-74237715D01*
X149905844Y-74129966D02*
X149340158Y-73564280D01*
X149555658Y-73348781D01*
X149636470Y-73321844D01*
X149690345Y-73321844D01*
X149771157Y-73348781D01*
X149851969Y-73429593D01*
X149878906Y-73510406D01*
X149878906Y-73564280D01*
X149851969Y-73645093D01*
X149636470Y-73860592D01*
X150767841Y-73267969D02*
X150444592Y-73591218D01*
X150606216Y-73429593D02*
X150040531Y-72863908D01*
X150067468Y-72998595D01*
X150067468Y-73106345D01*
X150040531Y-73187157D01*
X151037215Y-72998595D02*
X151144964Y-72890845D01*
X151171902Y-72810033D01*
X151171902Y-72756158D01*
X151144964Y-72621471D01*
X151064152Y-72486784D01*
X150848653Y-72271285D01*
X150767841Y-72244348D01*
X150713966Y-72244348D01*
X150633154Y-72271285D01*
X150525404Y-72379035D01*
X150498467Y-72459847D01*
X150498467Y-72513722D01*
X150525404Y-72594534D01*
X150660091Y-72729221D01*
X150740903Y-72756158D01*
X150794778Y-72756158D01*
X150875590Y-72729221D01*
X150983340Y-72621471D01*
X151010277Y-72540659D01*
X151010277Y-72486784D01*
X150983340Y-72405972D01*
X149097722Y-76400592D02*
X149016910Y-76427529D01*
X148936097Y-76508341D01*
X148882223Y-76616091D01*
X148882223Y-76723841D01*
X148909160Y-76804653D01*
X148989972Y-76939340D01*
X149070784Y-77020152D01*
X149205471Y-77100964D01*
X149286284Y-77127902D01*
X149394033Y-77127902D01*
X149501783Y-77074027D01*
X149555658Y-77020152D01*
X149609532Y-76912402D01*
X149609532Y-76858528D01*
X149420971Y-76669966D01*
X149313221Y-76777715D01*
X149905844Y-76669966D02*
X149340158Y-76104280D01*
X149555658Y-75888781D01*
X149636470Y-75861844D01*
X149690345Y-75861844D01*
X149771157Y-75888781D01*
X149851969Y-75969593D01*
X149878906Y-76050406D01*
X149878906Y-76104280D01*
X149851969Y-76185093D01*
X149636470Y-76400592D01*
X150767841Y-75807969D02*
X150444592Y-76131218D01*
X150606216Y-75969593D02*
X150040531Y-75403908D01*
X150067468Y-75538595D01*
X150067468Y-75646345D01*
X150040531Y-75727157D01*
X150767841Y-75161471D02*
X150687028Y-75188409D01*
X150633154Y-75188409D01*
X150552341Y-75161471D01*
X150525404Y-75134534D01*
X150498467Y-75053722D01*
X150498467Y-74999847D01*
X150525404Y-74919035D01*
X150633154Y-74811285D01*
X150713966Y-74784348D01*
X150767841Y-74784348D01*
X150848653Y-74811285D01*
X150875590Y-74838223D01*
X150902528Y-74919035D01*
X150902528Y-74972910D01*
X150875590Y-75053722D01*
X150767841Y-75161471D01*
X150740903Y-75242284D01*
X150740903Y-75296158D01*
X150767841Y-75376971D01*
X150875590Y-75484720D01*
X150956402Y-75511658D01*
X151010277Y-75511658D01*
X151091089Y-75484720D01*
X151198839Y-75376971D01*
X151225776Y-75296158D01*
X151225776Y-75242284D01*
X151198839Y-75161471D01*
X151091089Y-75053722D01*
X151010277Y-75026784D01*
X150956402Y-75026784D01*
X150875590Y-75053722D01*
X149097722Y-81480592D02*
X149016910Y-81507529D01*
X148936097Y-81588341D01*
X148882223Y-81696091D01*
X148882223Y-81803841D01*
X148909160Y-81884653D01*
X148989972Y-82019340D01*
X149070784Y-82100152D01*
X149205471Y-82180964D01*
X149286284Y-82207902D01*
X149394033Y-82207902D01*
X149501783Y-82154027D01*
X149555658Y-82100152D01*
X149609532Y-81992402D01*
X149609532Y-81938528D01*
X149420971Y-81749966D01*
X149313221Y-81857715D01*
X149905844Y-81749966D02*
X149340158Y-81184280D01*
X149555658Y-80968781D01*
X149636470Y-80941844D01*
X149690345Y-80941844D01*
X149771157Y-80968781D01*
X149851969Y-81049593D01*
X149878906Y-81130406D01*
X149878906Y-81184280D01*
X149851969Y-81265093D01*
X149636470Y-81480592D01*
X150767841Y-80887969D02*
X150444592Y-81211218D01*
X150606216Y-81049593D02*
X150040531Y-80483908D01*
X150067468Y-80618595D01*
X150067468Y-80726345D01*
X150040531Y-80807157D01*
X150390717Y-80133722D02*
X150767841Y-79756598D01*
X151091089Y-80564720D01*
X149097722Y-84020592D02*
X149016910Y-84047529D01*
X148936097Y-84128341D01*
X148882223Y-84236091D01*
X148882223Y-84343841D01*
X148909160Y-84424653D01*
X148989972Y-84559340D01*
X149070784Y-84640152D01*
X149205471Y-84720964D01*
X149286284Y-84747902D01*
X149394033Y-84747902D01*
X149501783Y-84694027D01*
X149555658Y-84640152D01*
X149609532Y-84532402D01*
X149609532Y-84478528D01*
X149420971Y-84289966D01*
X149313221Y-84397715D01*
X149905844Y-84289966D02*
X149340158Y-83724280D01*
X149555658Y-83508781D01*
X149636470Y-83481844D01*
X149690345Y-83481844D01*
X149771157Y-83508781D01*
X149851969Y-83589593D01*
X149878906Y-83670406D01*
X149878906Y-83724280D01*
X149851969Y-83805093D01*
X149636470Y-84020592D01*
X150767841Y-83427969D02*
X150444592Y-83751218D01*
X150606216Y-83589593D02*
X150040531Y-83023908D01*
X150067468Y-83158595D01*
X150067468Y-83266345D01*
X150040531Y-83347157D01*
X150687028Y-82377410D02*
X150579279Y-82485160D01*
X150552341Y-82565972D01*
X150552341Y-82619847D01*
X150579279Y-82754534D01*
X150660091Y-82889221D01*
X150875590Y-83104720D01*
X150956402Y-83131658D01*
X151010277Y-83131658D01*
X151091089Y-83104720D01*
X151198839Y-82996971D01*
X151225776Y-82916158D01*
X151225776Y-82862284D01*
X151198839Y-82781471D01*
X151064152Y-82646784D01*
X150983340Y-82619847D01*
X150929465Y-82619847D01*
X150848653Y-82646784D01*
X150740903Y-82754534D01*
X150713966Y-82835346D01*
X150713966Y-82889221D01*
X150740903Y-82970033D01*
X122989722Y-84020592D02*
X122908910Y-84047529D01*
X122828097Y-84128341D01*
X122774223Y-84236091D01*
X122774223Y-84343841D01*
X122801160Y-84424653D01*
X122881972Y-84559340D01*
X122962784Y-84640152D01*
X123097471Y-84720964D01*
X123178284Y-84747902D01*
X123286033Y-84747902D01*
X123393783Y-84694027D01*
X123447658Y-84640152D01*
X123501532Y-84532402D01*
X123501532Y-84478528D01*
X123312971Y-84289966D01*
X123205221Y-84397715D01*
X123797844Y-84289966D02*
X123232158Y-83724280D01*
X123447658Y-83508781D01*
X123528470Y-83481844D01*
X123582345Y-83481844D01*
X123663157Y-83508781D01*
X123743969Y-83589593D01*
X123770906Y-83670406D01*
X123770906Y-83724280D01*
X123743969Y-83805093D01*
X123528470Y-84020592D01*
X124659841Y-83427969D02*
X124336592Y-83751218D01*
X124498216Y-83589593D02*
X123932531Y-83023908D01*
X123959468Y-83158595D01*
X123959468Y-83266345D01*
X123932531Y-83347157D01*
X124605966Y-82350473D02*
X124336592Y-82619847D01*
X124579028Y-82916158D01*
X124579028Y-82862284D01*
X124605966Y-82781471D01*
X124740653Y-82646784D01*
X124821465Y-82619847D01*
X124875340Y-82619847D01*
X124956152Y-82646784D01*
X125090839Y-82781471D01*
X125117776Y-82862284D01*
X125117776Y-82916158D01*
X125090839Y-82996971D01*
X124956152Y-83131658D01*
X124875340Y-83158595D01*
X124821465Y-83158595D01*
X122943722Y-81480592D02*
X122862910Y-81507529D01*
X122782097Y-81588341D01*
X122728223Y-81696091D01*
X122728223Y-81803841D01*
X122755160Y-81884653D01*
X122835972Y-82019340D01*
X122916784Y-82100152D01*
X123051471Y-82180964D01*
X123132284Y-82207902D01*
X123240033Y-82207902D01*
X123347783Y-82154027D01*
X123401658Y-82100152D01*
X123455532Y-81992402D01*
X123455532Y-81938528D01*
X123266971Y-81749966D01*
X123159221Y-81857715D01*
X123751844Y-81749966D02*
X123186158Y-81184280D01*
X123401658Y-80968781D01*
X123482470Y-80941844D01*
X123536345Y-80941844D01*
X123617157Y-80968781D01*
X123697969Y-81049593D01*
X123724906Y-81130406D01*
X123724906Y-81184280D01*
X123697969Y-81265093D01*
X123482470Y-81480592D01*
X124613841Y-80887969D02*
X124290592Y-81211218D01*
X124452216Y-81049593D02*
X123886531Y-80483908D01*
X123913468Y-80618595D01*
X123913468Y-80726345D01*
X123886531Y-80807157D01*
X124721590Y-80025972D02*
X125098714Y-80403096D01*
X124371404Y-79945160D02*
X124640778Y-80483908D01*
X124990964Y-80133722D01*
X122989722Y-76400592D02*
X122908910Y-76427529D01*
X122828097Y-76508341D01*
X122774223Y-76616091D01*
X122774223Y-76723841D01*
X122801160Y-76804653D01*
X122881972Y-76939340D01*
X122962784Y-77020152D01*
X123097471Y-77100964D01*
X123178284Y-77127902D01*
X123286033Y-77127902D01*
X123393783Y-77074027D01*
X123447658Y-77020152D01*
X123501532Y-76912402D01*
X123501532Y-76858528D01*
X123312971Y-76669966D01*
X123205221Y-76777715D01*
X123797844Y-76669966D02*
X123232158Y-76104280D01*
X123447658Y-75888781D01*
X123528470Y-75861844D01*
X123582345Y-75861844D01*
X123663157Y-75888781D01*
X123743969Y-75969593D01*
X123770906Y-76050406D01*
X123770906Y-76104280D01*
X123743969Y-76185093D01*
X123528470Y-76400592D01*
X124659841Y-75807969D02*
X124336592Y-76131218D01*
X124498216Y-75969593D02*
X123932531Y-75403908D01*
X123959468Y-75538595D01*
X123959468Y-75646345D01*
X123932531Y-75727157D01*
X124282717Y-75053722D02*
X124632903Y-74703536D01*
X124659841Y-75107597D01*
X124740653Y-75026784D01*
X124821465Y-74999847D01*
X124875340Y-74999847D01*
X124956152Y-75026784D01*
X125090839Y-75161471D01*
X125117776Y-75242284D01*
X125117776Y-75296158D01*
X125090839Y-75376971D01*
X124929215Y-75538595D01*
X124848402Y-75565532D01*
X124794528Y-75565532D01*
X122843722Y-73860592D02*
X122762910Y-73887529D01*
X122682097Y-73968341D01*
X122628223Y-74076091D01*
X122628223Y-74183841D01*
X122655160Y-74264653D01*
X122735972Y-74399340D01*
X122816784Y-74480152D01*
X122951471Y-74560964D01*
X123032284Y-74587902D01*
X123140033Y-74587902D01*
X123247783Y-74534027D01*
X123301658Y-74480152D01*
X123355532Y-74372402D01*
X123355532Y-74318528D01*
X123166971Y-74129966D01*
X123059221Y-74237715D01*
X123651844Y-74129966D02*
X123086158Y-73564280D01*
X123301658Y-73348781D01*
X123382470Y-73321844D01*
X123436345Y-73321844D01*
X123517157Y-73348781D01*
X123597969Y-73429593D01*
X123624906Y-73510406D01*
X123624906Y-73564280D01*
X123597969Y-73645093D01*
X123382470Y-73860592D01*
X124513841Y-73267969D02*
X124190592Y-73591218D01*
X124352216Y-73429593D02*
X123786531Y-72863908D01*
X123813468Y-72998595D01*
X123813468Y-73106345D01*
X123786531Y-73187157D01*
X124217529Y-72540659D02*
X124217529Y-72486784D01*
X124244467Y-72405972D01*
X124379154Y-72271285D01*
X124459966Y-72244348D01*
X124513841Y-72244348D01*
X124594653Y-72271285D01*
X124648528Y-72325160D01*
X124702402Y-72432910D01*
X124702402Y-73079407D01*
X125052589Y-72729221D01*
X122843722Y-71320592D02*
X122762910Y-71347529D01*
X122682097Y-71428341D01*
X122628223Y-71536091D01*
X122628223Y-71643841D01*
X122655160Y-71724653D01*
X122735972Y-71859340D01*
X122816784Y-71940152D01*
X122951471Y-72020964D01*
X123032284Y-72047902D01*
X123140033Y-72047902D01*
X123247783Y-71994027D01*
X123301658Y-71940152D01*
X123355532Y-71832402D01*
X123355532Y-71778528D01*
X123166971Y-71589966D01*
X123059221Y-71697715D01*
X123651844Y-71589966D02*
X123086158Y-71024280D01*
X123301658Y-70808781D01*
X123382470Y-70781844D01*
X123436345Y-70781844D01*
X123517157Y-70808781D01*
X123597969Y-70889593D01*
X123624906Y-70970406D01*
X123624906Y-71024280D01*
X123597969Y-71105093D01*
X123382470Y-71320592D01*
X124513841Y-70727969D02*
X124190592Y-71051218D01*
X124352216Y-70889593D02*
X123786531Y-70323908D01*
X123813468Y-70458595D01*
X123813468Y-70566345D01*
X123786531Y-70647157D01*
X125052589Y-70189221D02*
X124729340Y-70512470D01*
X124890964Y-70350845D02*
X124325279Y-69785160D01*
X124352216Y-69919847D01*
X124352216Y-70027597D01*
X124325279Y-70108409D01*
X122989722Y-68780592D02*
X122908910Y-68807529D01*
X122828097Y-68888341D01*
X122774223Y-68996091D01*
X122774223Y-69103841D01*
X122801160Y-69184653D01*
X122881972Y-69319340D01*
X122962784Y-69400152D01*
X123097471Y-69480964D01*
X123178284Y-69507902D01*
X123286033Y-69507902D01*
X123393783Y-69454027D01*
X123447658Y-69400152D01*
X123501532Y-69292402D01*
X123501532Y-69238528D01*
X123312971Y-69049966D01*
X123205221Y-69157715D01*
X123797844Y-69049966D02*
X123232158Y-68484280D01*
X123447658Y-68268781D01*
X123528470Y-68241844D01*
X123582345Y-68241844D01*
X123663157Y-68268781D01*
X123743969Y-68349593D01*
X123770906Y-68430406D01*
X123770906Y-68484280D01*
X123743969Y-68565093D01*
X123528470Y-68780592D01*
X124659841Y-68187969D02*
X124336592Y-68511218D01*
X124498216Y-68349593D02*
X123932531Y-67783908D01*
X123959468Y-67918595D01*
X123959468Y-68026345D01*
X123932531Y-68107157D01*
X124444341Y-67272097D02*
X124498216Y-67218223D01*
X124579028Y-67191285D01*
X124632903Y-67191285D01*
X124713715Y-67218223D01*
X124848402Y-67299035D01*
X124983089Y-67433722D01*
X125063902Y-67568409D01*
X125090839Y-67649221D01*
X125090839Y-67703096D01*
X125063902Y-67783908D01*
X125010027Y-67837783D01*
X124929215Y-67864720D01*
X124875340Y-67864720D01*
X124794528Y-67837783D01*
X124659841Y-67756971D01*
X124525154Y-67622284D01*
X124444341Y-67487597D01*
X124417404Y-67406784D01*
X124417404Y-67352910D01*
X124444341Y-67272097D01*
X123513096Y-63431218D02*
X123432284Y-63458155D01*
X123351471Y-63538967D01*
X123297597Y-63646717D01*
X123297597Y-63754467D01*
X123324534Y-63835279D01*
X123405346Y-63969966D01*
X123486158Y-64050778D01*
X123620845Y-64131590D01*
X123701658Y-64158528D01*
X123809407Y-64158528D01*
X123917157Y-64104653D01*
X123971032Y-64050778D01*
X124024906Y-63943028D01*
X124024906Y-63889154D01*
X123836345Y-63700592D01*
X123728595Y-63808341D01*
X124321218Y-63700592D02*
X123755532Y-63134906D01*
X123971032Y-62919407D01*
X124051844Y-62892470D01*
X124105719Y-62892470D01*
X124186531Y-62919407D01*
X124267343Y-63000219D01*
X124294280Y-63081032D01*
X124294280Y-63134906D01*
X124267343Y-63215719D01*
X124051844Y-63431218D01*
X124913841Y-63107969D02*
X125021590Y-63000219D01*
X125048528Y-62919407D01*
X125048528Y-62865532D01*
X125021590Y-62730845D01*
X124940778Y-62596158D01*
X124725279Y-62380659D01*
X124644467Y-62353722D01*
X124590592Y-62353722D01*
X124509780Y-62380659D01*
X124402030Y-62488409D01*
X124375093Y-62569221D01*
X124375093Y-62623096D01*
X124402030Y-62703908D01*
X124536717Y-62838595D01*
X124617529Y-62865532D01*
X124671404Y-62865532D01*
X124752216Y-62838595D01*
X124859966Y-62730845D01*
X124886903Y-62650033D01*
X124886903Y-62596158D01*
X124859966Y-62515346D01*
X123513096Y-60891218D02*
X123432284Y-60918155D01*
X123351471Y-60998967D01*
X123297597Y-61106717D01*
X123297597Y-61214467D01*
X123324534Y-61295279D01*
X123405346Y-61429966D01*
X123486158Y-61510778D01*
X123620845Y-61591590D01*
X123701658Y-61618528D01*
X123809407Y-61618528D01*
X123917157Y-61564653D01*
X123971032Y-61510778D01*
X124024906Y-61403028D01*
X124024906Y-61349154D01*
X123836345Y-61160592D01*
X123728595Y-61268341D01*
X124321218Y-61160592D02*
X123755532Y-60594906D01*
X123971032Y-60379407D01*
X124051844Y-60352470D01*
X124105719Y-60352470D01*
X124186531Y-60379407D01*
X124267343Y-60460219D01*
X124294280Y-60541032D01*
X124294280Y-60594906D01*
X124267343Y-60675719D01*
X124051844Y-60891218D01*
X124644467Y-60190845D02*
X124563654Y-60217783D01*
X124509780Y-60217783D01*
X124428967Y-60190845D01*
X124402030Y-60163908D01*
X124375093Y-60083096D01*
X124375093Y-60029221D01*
X124402030Y-59948409D01*
X124509780Y-59840659D01*
X124590592Y-59813722D01*
X124644467Y-59813722D01*
X124725279Y-59840659D01*
X124752216Y-59867597D01*
X124779154Y-59948409D01*
X124779154Y-60002284D01*
X124752216Y-60083096D01*
X124644467Y-60190845D01*
X124617529Y-60271658D01*
X124617529Y-60325532D01*
X124644467Y-60406345D01*
X124752216Y-60514094D01*
X124833028Y-60541032D01*
X124886903Y-60541032D01*
X124967715Y-60514094D01*
X125075465Y-60406345D01*
X125102402Y-60325532D01*
X125102402Y-60271658D01*
X125075465Y-60190845D01*
X124967715Y-60083096D01*
X124886903Y-60056158D01*
X124833028Y-60056158D01*
X124752216Y-60083096D01*
X123613096Y-58321218D02*
X123532284Y-58348155D01*
X123451471Y-58428967D01*
X123397597Y-58536717D01*
X123397597Y-58644467D01*
X123424534Y-58725279D01*
X123505346Y-58859966D01*
X123586158Y-58940778D01*
X123720845Y-59021590D01*
X123801658Y-59048528D01*
X123909407Y-59048528D01*
X124017157Y-58994653D01*
X124071032Y-58940778D01*
X124124906Y-58833028D01*
X124124906Y-58779154D01*
X123936345Y-58590592D01*
X123828595Y-58698341D01*
X124421218Y-58590592D02*
X123855532Y-58024906D01*
X124071032Y-57809407D01*
X124151844Y-57782470D01*
X124205719Y-57782470D01*
X124286531Y-57809407D01*
X124367343Y-57890219D01*
X124394280Y-57971032D01*
X124394280Y-58024906D01*
X124367343Y-58105719D01*
X124151844Y-58321218D01*
X124367343Y-57513096D02*
X124744467Y-57135972D01*
X125067715Y-57944094D01*
X123513096Y-55811218D02*
X123432284Y-55838155D01*
X123351471Y-55918967D01*
X123297597Y-56026717D01*
X123297597Y-56134467D01*
X123324534Y-56215279D01*
X123405346Y-56349966D01*
X123486158Y-56430778D01*
X123620845Y-56511590D01*
X123701658Y-56538528D01*
X123809407Y-56538528D01*
X123917157Y-56484653D01*
X123971032Y-56430778D01*
X124024906Y-56323028D01*
X124024906Y-56269154D01*
X123836345Y-56080592D01*
X123728595Y-56188341D01*
X124321218Y-56080592D02*
X123755532Y-55514906D01*
X123971032Y-55299407D01*
X124051844Y-55272470D01*
X124105719Y-55272470D01*
X124186531Y-55299407D01*
X124267343Y-55380219D01*
X124294280Y-55461032D01*
X124294280Y-55514906D01*
X124267343Y-55595719D01*
X124051844Y-55811218D01*
X124563654Y-54706784D02*
X124455905Y-54814534D01*
X124428967Y-54895346D01*
X124428967Y-54949221D01*
X124455905Y-55083908D01*
X124536717Y-55218595D01*
X124752216Y-55434094D01*
X124833028Y-55461032D01*
X124886903Y-55461032D01*
X124967715Y-55434094D01*
X125075465Y-55326345D01*
X125102402Y-55245532D01*
X125102402Y-55191658D01*
X125075465Y-55110845D01*
X124940778Y-54976158D01*
X124859966Y-54949221D01*
X124806091Y-54949221D01*
X124725279Y-54976158D01*
X124617529Y-55083908D01*
X124590592Y-55164720D01*
X124590592Y-55218595D01*
X124617529Y-55299407D01*
X123513096Y-50731218D02*
X123432284Y-50758155D01*
X123351471Y-50838967D01*
X123297597Y-50946717D01*
X123297597Y-51054467D01*
X123324534Y-51135279D01*
X123405346Y-51269966D01*
X123486158Y-51350778D01*
X123620845Y-51431590D01*
X123701658Y-51458528D01*
X123809407Y-51458528D01*
X123917157Y-51404653D01*
X123971032Y-51350778D01*
X124024906Y-51243028D01*
X124024906Y-51189154D01*
X123836345Y-51000592D01*
X123728595Y-51108341D01*
X124321218Y-51000592D02*
X123755532Y-50434906D01*
X123971032Y-50219407D01*
X124051844Y-50192470D01*
X124105719Y-50192470D01*
X124186531Y-50219407D01*
X124267343Y-50300219D01*
X124294280Y-50381032D01*
X124294280Y-50434906D01*
X124267343Y-50515719D01*
X124051844Y-50731218D01*
X124590592Y-49599847D02*
X124321218Y-49869221D01*
X124563654Y-50165532D01*
X124563654Y-50111658D01*
X124590592Y-50030845D01*
X124725279Y-49896158D01*
X124806091Y-49869221D01*
X124859966Y-49869221D01*
X124940778Y-49896158D01*
X125075465Y-50030845D01*
X125102402Y-50111658D01*
X125102402Y-50165532D01*
X125075465Y-50246345D01*
X124940778Y-50381032D01*
X124859966Y-50407969D01*
X124806091Y-50407969D01*
X123513096Y-48191218D02*
X123432284Y-48218155D01*
X123351471Y-48298967D01*
X123297597Y-48406717D01*
X123297597Y-48514467D01*
X123324534Y-48595279D01*
X123405346Y-48729966D01*
X123486158Y-48810778D01*
X123620845Y-48891590D01*
X123701658Y-48918528D01*
X123809407Y-48918528D01*
X123917157Y-48864653D01*
X123971032Y-48810778D01*
X124024906Y-48703028D01*
X124024906Y-48649154D01*
X123836345Y-48460592D01*
X123728595Y-48568341D01*
X124321218Y-48460592D02*
X123755532Y-47894906D01*
X123971032Y-47679407D01*
X124051844Y-47652470D01*
X124105719Y-47652470D01*
X124186531Y-47679407D01*
X124267343Y-47760219D01*
X124294280Y-47841032D01*
X124294280Y-47894906D01*
X124267343Y-47975719D01*
X124051844Y-48191218D01*
X124752216Y-47275346D02*
X125129340Y-47652470D01*
X124402030Y-47194534D02*
X124671404Y-47733282D01*
X125021590Y-47383096D01*
X123513096Y-45651218D02*
X123432284Y-45678155D01*
X123351471Y-45758967D01*
X123297597Y-45866717D01*
X123297597Y-45974467D01*
X123324534Y-46055279D01*
X123405346Y-46189966D01*
X123486158Y-46270778D01*
X123620845Y-46351590D01*
X123701658Y-46378528D01*
X123809407Y-46378528D01*
X123917157Y-46324653D01*
X123971032Y-46270778D01*
X124024906Y-46163028D01*
X124024906Y-46109154D01*
X123836345Y-45920592D01*
X123728595Y-46028341D01*
X124321218Y-45920592D02*
X123755532Y-45354906D01*
X123971032Y-45139407D01*
X124051844Y-45112470D01*
X124105719Y-45112470D01*
X124186531Y-45139407D01*
X124267343Y-45220219D01*
X124294280Y-45301032D01*
X124294280Y-45354906D01*
X124267343Y-45435719D01*
X124051844Y-45651218D01*
X124267343Y-44843096D02*
X124617529Y-44492910D01*
X124644467Y-44896971D01*
X124725279Y-44816158D01*
X124806091Y-44789221D01*
X124859966Y-44789221D01*
X124940778Y-44816158D01*
X125075465Y-44950845D01*
X125102402Y-45031658D01*
X125102402Y-45085532D01*
X125075465Y-45166345D01*
X124913841Y-45327969D01*
X124833028Y-45354906D01*
X124779154Y-45354906D01*
X123513096Y-35491218D02*
X123432284Y-35518155D01*
X123351471Y-35598967D01*
X123297597Y-35706717D01*
X123297597Y-35814467D01*
X123324534Y-35895279D01*
X123405346Y-36029966D01*
X123486158Y-36110778D01*
X123620845Y-36191590D01*
X123701658Y-36218528D01*
X123809407Y-36218528D01*
X123917157Y-36164653D01*
X123971032Y-36110778D01*
X124024906Y-36003028D01*
X124024906Y-35949154D01*
X123836345Y-35760592D01*
X123728595Y-35868341D01*
X124321218Y-35760592D02*
X123755532Y-35194906D01*
X123971032Y-34979407D01*
X124051844Y-34952470D01*
X124105719Y-34952470D01*
X124186531Y-34979407D01*
X124267343Y-35060219D01*
X124294280Y-35141032D01*
X124294280Y-35194906D01*
X124267343Y-35275719D01*
X124051844Y-35491218D01*
X124428967Y-34521471D02*
X124482842Y-34467597D01*
X124563654Y-34440659D01*
X124617529Y-34440659D01*
X124698341Y-34467597D01*
X124833028Y-34548409D01*
X124967715Y-34683096D01*
X125048528Y-34817783D01*
X125075465Y-34898595D01*
X125075465Y-34952470D01*
X125048528Y-35033282D01*
X124994653Y-35087157D01*
X124913841Y-35114094D01*
X124859966Y-35114094D01*
X124779154Y-35087157D01*
X124644467Y-35006345D01*
X124509780Y-34871658D01*
X124428967Y-34736971D01*
X124402030Y-34656158D01*
X124402030Y-34602284D01*
X124428967Y-34521471D01*
X123413096Y-43111218D02*
X123332284Y-43138155D01*
X123251471Y-43218967D01*
X123197597Y-43326717D01*
X123197597Y-43434467D01*
X123224534Y-43515279D01*
X123305346Y-43649966D01*
X123386158Y-43730778D01*
X123520845Y-43811590D01*
X123601658Y-43838528D01*
X123709407Y-43838528D01*
X123817157Y-43784653D01*
X123871032Y-43730778D01*
X123924906Y-43623028D01*
X123924906Y-43569154D01*
X123736345Y-43380592D01*
X123628595Y-43488341D01*
X124221218Y-43380592D02*
X123655532Y-42814906D01*
X123871032Y-42599407D01*
X123951844Y-42572470D01*
X124005719Y-42572470D01*
X124086531Y-42599407D01*
X124167343Y-42680219D01*
X124194280Y-42761032D01*
X124194280Y-42814906D01*
X124167343Y-42895719D01*
X123951844Y-43111218D01*
X124248155Y-42330033D02*
X124248155Y-42276158D01*
X124275093Y-42195346D01*
X124409780Y-42060659D01*
X124490592Y-42033722D01*
X124544467Y-42033722D01*
X124625279Y-42060659D01*
X124679154Y-42114534D01*
X124733028Y-42222284D01*
X124733028Y-42868781D01*
X125083215Y-42518595D01*
X123413096Y-38021218D02*
X123332284Y-38048155D01*
X123251471Y-38128967D01*
X123197597Y-38236717D01*
X123197597Y-38344467D01*
X123224534Y-38425279D01*
X123305346Y-38559966D01*
X123386158Y-38640778D01*
X123520845Y-38721590D01*
X123601658Y-38748528D01*
X123709407Y-38748528D01*
X123817157Y-38694653D01*
X123871032Y-38640778D01*
X123924906Y-38533028D01*
X123924906Y-38479154D01*
X123736345Y-38290592D01*
X123628595Y-38398341D01*
X124221218Y-38290592D02*
X123655532Y-37724906D01*
X123871032Y-37509407D01*
X123951844Y-37482470D01*
X124005719Y-37482470D01*
X124086531Y-37509407D01*
X124167343Y-37590219D01*
X124194280Y-37671032D01*
X124194280Y-37724906D01*
X124167343Y-37805719D01*
X123951844Y-38021218D01*
X125083215Y-37428595D02*
X124759966Y-37751844D01*
X124921590Y-37590219D02*
X124355905Y-37024534D01*
X124382842Y-37159221D01*
X124382842Y-37266971D01*
X124355905Y-37347783D01*
M02*
